<?xml version="1.0" encoding="UTF-8"?>
<svg id="Layer_2" data-name="Layer 2" xmlns="http://www.w3.org/2000/svg" viewBox="0 0 1017.73 551.03">
  <defs>
    <style>
      .cls-1 {
        fill: #d8d8d8;
      }

      .cls-1, .cls-2, .cls-3, .cls-4, .cls-5, .cls-6, .cls-7, .cls-8, .cls-9, .cls-10, .cls-11, .cls-12, .cls-13, .cls-14, .cls-15, .cls-16 {
        stroke-width: 0px;
      }

      .cls-2 {
        fill: #f5f8fd;
      }

      .cls-3 {
        fill: #61b0c9;
      }

      .cls-4 {
        fill: #223033;
      }

      .cls-5 {
        fill: #eeeeef;
      }

      .cls-6 {
        fill: #524b5b;
      }

      .cls-7 {
        fill: #edbdac;
      }

      .cls-8 {
        fill: #c5cacb;
      }

      .cls-9 {
        fill: #fefefe;
      }

      .cls-10 {
        fill: #f4f7fc;
      }

      .cls-11 {
        fill: #e9eaea;
      }

      .cls-12 {
        fill: #fff;
      }

      .cls-13 {
        fill: #3d4e55;
      }

      .cls-14 {
        fill: #38474c;
      }

      .cls-15 {
        fill: #2c393f;
      }

      .cls-16 {
        fill: #54798e;
      }
    </style>
  </defs>
  <g id="Layer_1-2" data-name="Layer 1">
    <g>
      <path class="cls-12" d="M96.93,530.64c-2.96,3.45-5.91,6.9-7.76,11.51,5.89.84,11.45,1.65,17.13,1.24-.5,2.77-1.96,4.18-4.95,3.96-2.55-.18-5.12-.04-7.68-.07-1.83-.02-3.68-.47-4.72-1.93-1.23-1.74-2.76-1.91-4.57-1.83-1.92.08-3.91-.26-5.74.16-4.12.95-8.27.62-12.41.73-3.36.09-6.72.03-10.08.1-.94.02-1.92.12-2.81.41-.54.18-1.09.71-.82,1.5.17.5.57.79,1.06.77,4.65-.19,9.17,1.13,13.83,1,5.27-.15,10.56.03,15.83.07,1.12,0,2.29-.17,3.35.09,4.57,1.16,9.22.67,13.84.81,2.56.08,5.19-.25,7.66.24,3.34.66,6.67.63,10.02.65,11.36.07,22.71.13,34.07.13,144.61,0,289.21,0,433.82,0,106.06,0,212.11,0,318.17.02,2.08,0,4.21-.17,6.21.26,2.23.47,4.44.57,6.67.52,12.77-.26,25.54.58,38.32-.67,9.03-.88,18.17.02,27.27-.99,6.63-.73,13.39,0,20.06-1.03,4.4-.68,8.88-.8,13.32-1.2.29-.03.58-.23.84-.4.09-.06.1-.27.1-.42,0-.14.01-.37-.07-.42-.26-.17-.57-.39-.85-.38-5.44.2-10.77-1.22-16.23-1.03-4.95.17-9.92-.03-14.87-.07-1.12,0-2.3.16-3.34-.13-3.3-.91-6.66-.64-10.01-.71-2.88-.06-5.76-.07-8.64-.1,0-.31,0-.63,0-.94,4.95-.92,9.44-2.8,13.24-6.2,2.51-2.25,4.72-4.75,6.63-7.51,3.64-5.28,6.47-10.97,8.5-17.05,1.28-1.18,2.5-2.44,3.86-3.52,6.25-4.98,10.75-11.23,14.03-18.49,2.81-6.21,3.67-12.84,4.56-19.47,1.14-8.53,2.24-17.06,3.38-25.59.85-6.36.71-12.75.19-19.11-.38-4.75-1.52-9.43-1.72-14.22-.05-1.08-.56-2.14-.85-3.21-.04-.63.05-1.31-.14-1.89-1.31-4.07-2.51-8.19-4.07-12.17-1.5-3.82-2.74-7.83-5.44-11.04-2.63-3.12-4.92-6.72-9.39-7.56-.55-.55-1.02-1.25-1.67-1.63-3.28-1.94-6.57-3.86-9.93-5.66-3.21-1.72-6.51-3.28-9.76-4.92-1.86-8.78-5.95-16.49-11.82-23.15-5.91-6.71-12.65-12.6-20.08-17.62-8.73-5.9-17.84-11.16-27.19-16-5.11-2.65-10.24-5.27-15.45-7.7-4.85-2.26-9.02-5.33-12.72-9.19-2.82-2.94-4.97-6.34-6.43-9.99-2.55-6.37-3.95-13.08-4.13-19.99-.02-.95-.04-1.96-.37-2.83-.65-1.71-.52-3.46-.58-5.21-.45-14.19.79-28.4-.82-42.6-.56-4.89-1.06-9.77-1.97-14.61-2.23-11.8-6.74-22.4-14.46-31.81-4.13-5.03-8.8-9.24-14.1-12.73-6.51-4.28-13.31-8.1-20.54-11.19-8.09-3.46-16.24-6.62-24.85-8.41-3.72-.77-7.45-1.69-11.31-1.52-1.43.06-2.84-.06-4.26-.49-2.49-.76-5.05-.76-7.54.06-1.25.41-2.52.52-3.78.43-2.75-.21-5.39.37-8.03,1.01-6.35,1.54-12.62,3.27-18.6,6.03-11.19,5.17-21.59,11.69-31.95,18.31-11.67,7.46-22.92,15.6-35.58,21.42-11.69,5.37-23.69,9.29-36.75,8.94-1.44-.04-2.88-.08-4.32,0-5.8.36-11.41-.77-17.01-2.02-7.81-1.74-15.34-4.34-22.4-8.08-5.34-2.83-10.55-5.96-15.63-9.25-4.94-3.2-9.72-6.67-14.39-10.24-3.15-2.41-5.96-5.28-9-7.84-6.7-5.65-13.3-11.41-19.5-17.62-7-7.02-14.01-14.04-21.05-21.03-1.11-1.1-2.01-2.56-3.84-2.65-.07-1.27-.2-2.54-.2-3.82-.02-5.27-.04-10.55,0-15.82.02-2.1-.36-3.87-2.74-4.37-1.19-.25-1.49-1.06-1.52-2.07-.04-1.28-.04-2.56-.03-3.83.06-9.11.12-18.21.2-27.32.03-3.7-.38-7.33-1.39-10.89-2.84-10.04-9.1-17.45-17.79-22.92-7.76-4.89-16.32-7.2-25.45-7.38-7.51-.15-15.02-.16-22.53-.19-37.55-.12-75.1-.21-112.65-.33-5.27-.02-10.53-.17-15.8-.25-.2-.84-.64-1.4-1.56-1.56-3.75-.63-7.48-1.47-11.25-1.89-5.2-.58-10.39-1.18-15.59-1.8-4.87-.58-9.86-.07-14.73-1.15-13.38.49-26.8-.97-40.17.88-3.6.5-7.26.33-10.92.86-4.7.68-9.43,1.17-14.11,2.03-10.21,1.86-20.2,4.27-29.59,8.92-6.9,3.42-13.49,7.16-18.74,12.91-1.93,2.11-4.12,3.95-5.8,6.35-6.68,9.59-9.42,20.45-10.3,31.85-.37,4.77-.08,9.59-.05,14.38,0,.95-.01,1.97.31,2.83.65,1.71.63,3.44.63,5.2,0,1.44.15,2.83.51,4.25.62,2.45,1.05,4.97,1.35,7.49.55,4.74,1.59,9.38,2.71,14.01,2.12,8.81,4.27,17.61,6.72,26.34,1.75,6.25,3.27,12.6,4.32,19.05.33,2.05.74,4.05.62,6.13-1.21-.41-2.39-.93-3.62-1.22-6.62-1.53-13.89,2.43-14.32,9.61-.11,1.88-.7,3.3-1.93,4.68-1.17,1.31-1.79,3-2.25,4.72-1.77,6.6-1.32,12.99,1.97,19.04,1.45,2.66,3.1,5.22,4.77,7.75,1.88,2.86,2.63,5.79,1.09,9.03-.23,3.06-1.36,5.9-2.07,8.85-1.43.69-2.87,1.33-4.27,2.07-4.53,2.38-8.37,5.74-12.43,8.8-2.4,1.8-3.95,4.1-5.03,6.79-.53,1.33-.93,2.7-1.38,4.06-1.44,0-2.82.12-4.19.75-1.87.86-3.88,1.45-5.81,2.18-10.42,3.97-21.46,6.06-31.78,10.33-4.71,1.95-9.49,3.72-14.16,5.75-7.8,3.39-14.65,8.39-21.49,13.32-3.32,2.39-6.53,5.07-9.41,8.09-2.1,2.2-3.81,4.71-5.89,6.89-3.88,4.07-7.15,8.62-9.8,13.5-4.33,7.99-8.59,16.04-11.13,24.86-1.06,3.67-1.96,7.36-2.7,11.11-1.34,6.87-2.65,13.71-2.49,20.77.15,6.23.02,12.47.04,18.7,0,1.28-.22,2.67.2,3.81,1.29,3.51.21,7.36,1.68,10.81.03,4.82,1.36,9.44,2.43,14.06,1.86,8.06,4.06,16.03,7.16,23.74,4.12,10.24,8.95,20.11,15.1,29.28,2.83,4.22,6.04,8.19,9.2,12.17,2.07,2.62,4.28,5.14,6.58,7.56,4.39,4.62,9.49,8.46,14.3,12.64,4.24,3.68,8.95,6.65,13.54,9.77,6.85,4.66,14.29,8.4,21.78,11.99,2.31,1.11,4.65,2.1,7.18,2.55.17,3-1.08,5.62-2.26,8.25Z"/>
      <path class="cls-3" d="M1014.75,408.13c.3,1.07.81,2.13.85,3.21.2,4.79,1.33,9.47,1.72,14.22.51,6.36.65,12.75-.19,19.11-1.13,8.53-2.24,17.06-3.38,25.59-.89,6.64-1.75,13.26-4.56,19.47-3.28,7.25-7.78,13.51-14.03,18.49-1.36,1.08-2.58,2.34-3.86,3.52-1.35-.06-2.45.64-3.56,1.24-7.33,3.94-15.19,5.48-23.46,5.46-19.43-.05-38.87-.02-58.3,0-2.07,0-4.14.08-6.21.12-1.6-.03-3.19-.1-4.79-.1-51.94,0-103.89,0-155.83,0-1.76,0-3.51.06-5.27.09-1.59-.05-3.19-.04-4.78-.18-1.87-.17-2.91-1.17-3.09-3.04-.14-1.42-.06-2.87-.09-4.3-.24-11.15.37-22.29-.88-33.44-1.38-12.26-3.94-24.21-8.12-35.78-3.92-10.85-9.07-21.08-16.32-30.13-1.68-2.1-3.23-4.36-5.67-5.73-.45-1.26-1.46-2.07-2.41-2.91-4.45-3.98-9.56-6.96-15.06-9.14-6.64-2.62-13.34-2.48-20.02.29-7.18,2.98-12.64,8.02-17.1,14.16-10.03,13.81-14.71,29.65-16.18,46.39-.91,10.46-.99,21.04.79,31.5,1.63,9.62,3.95,19.03,8.26,27.86.62,1.28,1.47,2.49,1.59,3.97-1.75.1-3.5.28-5.25.28-39.8,0-79.59-.01-119.39-.04-1.75,0-3.5-.2-5.25-.3-.32-1.15.16-2.19.47-3.25.7-2.45,1.53-4.87,1.62-7.46.21-6.06.59-12.11.62-18.17.13-30.51.16-61.01.24-91.52.03-9.26.12-18.52.18-27.79,8-.02,15.99-.04,23.99-.04.64,0,1.32-.04,1.9.17,2.33.83,4.74.62,7.13.64,10.4.06,20.8.09,31.2.14,1.28,0,2.61-.21,3.83.08,5.22,1.23,10.51.57,15.76.71,1.27.04,2.6.05,3.8-.29,1.9-.53,3.8-.49,5.71-.5,9.28-.05,18.56-.08,27.84-.13,1.44,0,2.95.17,4.3-.2,2.53-.71,5.07-.68,7.61-.63,6.37.13,12.73-.16,19.13.68,5.66.74,11.44.38,17.18,1,4.1.45,8.24.88,12.34,1.34,8.37.94,16.67,2.46,25,3.8.57.09,1.06.62,1.59.95.14.94.22,1.9.43,2.82,1.26,5.38,4.77,9.38,8.59,12.98,9.22,8.69,20.12,14.02,32.91,14.57,8.43.36,16.84,1.04,25.3,1.12,12.28.12,24.52-1,36.79-1,2.4.04,4.79.1,7.19.1,39.65.02,79.29.03,118.94.03,4.8,0,9.59-.03,14.39-.05,5.55.32,11.09.85,16.67.82,12.41-.07,24.82.13,37.21-.8ZM893.95,450.37c-25.74,0-51.49,0-77.23,0-6.08,0-12.15.02-18.23,0-1.93,0-3.82.17-5.66.84-3.99,1.44-5,3.5-3.2,7.34,3.59,7.67,7.33,15.27,10.99,22.91.93,1.94,2.33,3.38,4.13,4.54,2.05,1.32,4.25,2.22,6.63,2.67,2.83.53,5.67.82,8.57.82,38.38-.04,76.75-.03,115.13-.03,11.51,0,23.03-.01,34.54,0,3.55,0,7.01-.45,10.36-1.6,3.8-1.3,6.6-3.56,8.27-7.41,2.99-6.89,6.29-13.64,9.44-20.46.47-1.01.85-2.07,1.27-3.1.54-1.34.14-2.5-.74-3.55-.85-1-1.91-1.64-3.15-2.1-2.46-.92-5.02-.88-7.57-.88-31.18,0-62.36,0-93.54,0Z"/>
      <path class="cls-2" d="M513.87,105.68c1.82.09,2.73,1.55,3.84,2.65,7.03,6.99,14.04,14.01,21.05,21.03,6.19,6.21,12.8,11.97,19.5,17.62,3.04,2.57,5.85,5.43,9,7.84,4.68,3.58,9.46,7.04,14.39,10.24,5.08,3.29,10.28,6.42,15.63,9.25,7.06,3.74,14.6,6.34,22.4,8.08,5.59,1.25,11.21,2.37,17.01,2.02,1.43-.09,2.88-.05,4.32,0,13.06.35,25.07-3.57,36.75-8.94,12.67-5.82,23.91-13.96,35.58-21.42,10.35-6.62,20.75-13.14,31.95-18.31,5.97-2.76,12.25-4.49,18.6-6.03,2.64-.64,5.27-1.22,8.03-1.01,1.27.1,2.53-.01,3.78-.43,2.49-.82,5.05-.81,7.54-.06,1.42.43,2.82.55,4.26.49,3.87-.17,7.6.75,11.31,1.52,8.61,1.79,16.76,4.95,24.85,8.41,7.24,3.09,14.03,6.91,20.54,11.19,5.3,3.48,9.97,7.7,14.1,12.73,7.72,9.41,12.23,20.01,14.46,31.81.92,4.85,1.42,9.72,1.97,14.61,1.61,14.2.37,28.41.82,42.6.06,1.75-.07,3.5.58,5.21.33.87.35,1.88.37,2.83.18,6.91,1.58,13.63,4.13,19.99,1.46,3.65,3.61,7.04,6.43,9.99,3.7,3.86,7.87,6.93,12.72,9.19,5.21,2.43,10.34,5.05,15.45,7.7,9.35,4.85,18.47,10.1,27.19,16,7.43,5.03,14.17,10.91,20.08,17.62,5.87,6.66,9.96,14.37,11.82,23.15-.77-.2-1.58-.31-2.31-.6-13.39-5.29-27.15-9.33-41.18-12.54-19.62-4.49-39.41-7.85-59.51-9.26-2.11-.15-3.71-.8-4.56-2.82,1.6-1.06,3.44-2.1,3.53-4.22.15-3.33.15-6.68-.12-10-.23-2.81-2.04-4.6-4.78-5.29-1.07-.27-2.19-.45-3.28-.45-5.09,0-10.18.07-15.26.11-.52-.36-1.11-.66-1.56-1.09-3.83-3.62-7.68-7.23-11.45-10.92-9.25-9.06-18.71-17.88-28.42-26.45-11.53-10.17-24.22-18.8-36.78-27.58-6.88-4.81-14.7-7.67-22.98-9.12-8.05-1.41-16.22-1.61-24.34-1.71-23.49-.29-46.99-.24-70.49-.27-47.31-.05-94.62-.07-141.93-.11-.57-3.02-.2-6.06-.21-9.09,0-7.67.04-15.35.08-23.02,0-1.15.11-2,1.65-2.38,2.88-.72,3.08-1.17,3.22-3.87.03-.64,0-1.28,0-1.92,0-14.07,0-28.14,0-42.21,0-.96,0-1.92-.08-2.87-.11-1.22-.79-2.41-1.91-2.48-2.81-.18-2.77-1.95-2.74-3.97.06-3.84.06-7.67.05-11.51,0-1.29.4-2.03,1.83-2.25,2.39-.37,2.87-2.14,2.86-4.27-.04-6.4-.03-12.79,0-19.19,0-2.07.13-4.14.21-6.22Z"/>
      <path class="cls-2" d="M99.2,522.39c-2.54-.46-4.87-1.44-7.18-2.55-7.49-3.59-14.92-7.33-21.78-11.99-4.59-3.12-9.3-6.09-13.54-9.77-4.8-4.17-9.9-8.01-14.3-12.64-2.3-2.42-4.5-4.94-6.58-7.56-3.16-3.99-6.37-7.96-9.2-12.17-6.15-9.17-10.97-19.04-15.1-29.28-3.1-7.71-5.3-15.68-7.16-23.74-1.07-4.62-2.4-9.24-2.43-14.06-1.47-3.45-.4-7.3-1.68-10.81-.42-1.14-.2-2.53-.2-3.81-.02-6.23.11-12.47-.04-18.7-.17-7.06,1.14-13.91,2.49-20.77.73-3.75,1.64-7.44,2.7-11.11,2.54-8.82,6.8-16.88,11.13-24.86,2.64-4.88,5.91-9.43,9.8-13.5,2.08-2.18,3.79-4.69,5.89-6.89,2.88-3.02,6.09-5.7,9.41-8.09,6.84-4.92,13.69-9.92,21.49-13.32,4.67-2.03,9.45-3.81,14.16-5.75,10.33-4.27,21.36-6.36,31.78-10.33,1.93-.74,3.94-1.32,5.81-2.18,1.37-.63,2.75-.76,4.19-.75-.78,5.8-1.66,11.59-2.31,17.41-.3,2.67-.18,5.39-.22,8.09-.01.85.55,1.46,1.05,2.07-.05,1.27-.35,2.59-.09,3.8.84,3.92.47,7.92.9,11.85.46,4.24,1.08,8.46,2.61,12.53,1.16,3.1,3.29,4.55,6.41,4.79,2.71.21,5.39-.04,7.99-.9.38,4.05.43,8.08-.57,12.08-.29,1.18-.68,2.42-.28,3.68-1,.36-1.37,1.29-1.86,2.09-3.72,5.99-6.95,12.23-9.5,18.81-1.45,3.73-2.62,7.54-3.34,11.49-.94,5.12-.98,10.14.82,15.13.75,2.09,1.2,4.31,1.62,6.5,1.13,5.82,1.66,11.71,1.79,17.64.3,13.44.1,26.87-.65,40.3-.27,4.78-1.4,9.03-3.75,13.17-3.64,6.39-6.81,13.03-9.48,19.9-2.74,7.04-4.77,14.25-5.17,21.84-.24,4.48-.91,8.9-1.71,13.31-1.08,5.97-2.08,11.95-3.11,17.93-.27.39-.54.77-.82,1.16Z"/>
      <path class="cls-3" d="M866.78,338.03c.85,2.02,2.45,2.67,4.56,2.82,20.09,1.42,39.89,4.77,59.51,9.26,14.03,3.21,27.79,7.25,41.18,12.54.74.29,1.54.4,2.31.6,3.26,1.63,6.55,3.2,9.76,4.92,3.36,1.8,6.65,3.72,9.93,5.66.65.38,1.12,1.08,1.67,1.63-3.68-.17-7.33.23-10.9,1.04-12.12,2.75-19.96,9.94-23.06,22.18-.64,2.52-.48,5.07-1.03,7.55-1.76-.03-3.51-.08-5.27-.08-23.01-.01-46.02-.02-69.04-.03-21.89-.01-43.79-.04-65.68-.06-.27-1.57-.56-3.14-.81-4.71-1.16-7.22-4.37-13.22-10.27-17.74-3.21-2.46-6.72-4.24-10.5-5.59-8.04-2.88-16.41-4.07-24.85-4.39-15.16-.59-30.33-.05-45.5-.03-3.52,0-7,.12-10.42,1.02-5.02-.78-10.09-1.38-15.06-2.39-7.96-1.62-16.02-2.53-24.06-3.32-6-.6-12.02-1.65-18.1-1.2-.63.05-1.31.09-1.91-.08-3.76-1.11-7.6-.73-11.42-.77-5.43-.05-10.86,0-16.3.02-1.27,0-2.62-.1-3.81.25-2.05.61-4.1.58-6.17.58-27,0-54,0-81-.02-1.43,0-2.92.07-4.28-.29-1.9-.5-3.79-.5-5.7-.52-7.51-.07-15.01-.14-22.52-.21-.15-8.93-.26-17.87.14-26.8,9.79-.03,19.58-.06,29.37-.09.31.06.64.07.93.19,9.14,3.73,18.76,4.52,28.49,4.73,1.45.03,2.93,0,4.13-.87,2.11-1.54,4.07-1.15,6.22-.05,2.26,1.16,4.71,1.93,7.24,2.29,3.28.47,8.27-1.9,9.86-4.65,1.09-1.88.83-3.81-.91-5.07-1.15-.82-2.5-1.35-3.77-2.01-.77-4.41-2.65-8.47-4.01-12.7-4.49-13.9-9-27.8-13.54-41.68-.93-2.86-1.77-5.77-3.59-8.25-2.2-6.41-6.37-11.4-11.59-15.51-4.11-3.24-8.78-4.87-14.2-4.76-11.33.22-22.68.07-34.02.07.03-3.53.07-7.05.1-10.58,47.31.03,94.62.05,141.93.11,23.5.03,46.99-.03,70.49.27,8.12.1,16.29.31,24.34,1.71,8.28,1.45,16.09,4.31,22.98,9.12,12.56,8.78,25.25,17.4,36.78,27.58,9.71,8.57,19.17,17.39,28.42,26.45,3.77,3.69,7.62,7.29,11.45,10.92.46.43,1.04.73,1.57,1.09.2.96.76,1.69,1.45,2.38,5.26,5.23,10.5,10.48,15.73,15.73.79.79,1.6,1.53,2.74,1.75ZM850.58,339.78c1.12-.71,1.12-.71.02-1.75-.38-.51-.7-1.07-1.14-1.53-5.95-6.25-11.86-12.55-17.89-18.72-10.61-10.87-21.67-21.27-32.92-31.47-7.7-6.99-15.58-13.74-23.96-19.89-5.93-4.35-11.96-8.57-18.65-11.7-4.39-2.05-8.92-3.18-13.86-3.18-51.97.06-103.94,0-155.91-.01-1.28,0-2.56-.04-3.84.04-1.87.11-2.98,1.02-3.27,2.85-.18,1.09-.28,2.28-.05,3.33,1.07,4.82,2.15,9.64,4.57,14.03.62,1.8,1.15,3.64,1.86,5.41,2.34,5.76,4.78,11.49,7.14,17.25,2.9,7.09,5.85,14.16,9.39,20.97,2.07,4,4.57,7.69,7.38,11.17,3.78,4.7,8.61,8.07,14.25,10.2,1.62.61,3.29,1.2,5.09,1.23,5.58.1,11.15.5,16.72.72,18.34.72,36.72-.25,55.06,1.06,47.93.04,95.87.09,143.8.13,1.43,0,2.87-.12,4.3-.19.64.02,1.28.04,1.92.06Z"/>
      <path class="cls-13" d="M508.91,240.93c-.03,3.53-.07,7.05-.1,10.58-.27,5.16-.51,10.31-.04,15.47-.09,1.75-.26,3.5-.27,5.26-.16,19.03-.31,38.06-.43,57.09-.02,3.51.07,7.03.11,10.55-.4,8.93-.29,17.86-.14,26.8,0,1.04-.01,2.09-.02,3.13-.06,9.26-.15,18.52-.18,27.79-.08,30.51-.11,61.01-.24,91.52-.03,6.06-.4,12.11-.62,18.17-.09,2.58-.92,5.01-1.62,7.46-.31,1.07-.79,2.1-.47,3.25-1.42.43-1.71,1.8-2.32,2.86-3.25,5.6-7.64,10.12-12.96,13.77-3.83,2.63-8.05,4.46-12.39,6.03-6.81,2-13.79,2.18-20.83,2.17-65.35-.05-130.71-.04-196.06-.02-7.5,0-15,.15-22.27-2.14-1.47-.62-2.94-1.23-4.42-1.85-4.91-2.05-9.35-4.85-13.3-8.41-6.21-5.6-10.54-12.35-12.48-20.55-.93-3.94-.74-7.94-.73-11.92.09-27.8.17-55.59.31-83.39.15-30.83.38-61.66.55-92.49.07-12.62.04-25.23.05-37.85.32-1.3,1.21-2.12,2.21-2.94,2.56-2.09,5.02-4.29,7.58-6.39,1.32-1.08,2.28-2.63,4.04-3.16.03.48.08.96.08,1.43-.09,28.8-.14,57.59-.28,86.39-.22,45.91-.49,91.82-.79,137.74-.06,9.94,4.15,17.56,12.16,23.18,5.95,4.17,12.64,5.94,19.89,5.97,25.27.11,50.55.31,75.82.44,23.04.11,46.07.16,69.11.23,20.64.06,41.28.11,61.91.18,3.86.01,7.68-.18,11.41-1.23,13.02-3.69,22.66-14.4,22.36-28.68-.37-17.11-.02-34.23.07-51.35.25-47.03.54-94.06.78-141.09.32-60.47.62-120.94.91-181.41.11-22.88.1-45.75.24-68.63.05-7.85-2.92-14.29-8.53-19.62-3.66-3.48-8-5.81-12.8-7.3-4.49-1.39-9.12-1.6-13.76-1.62-22.08-.09-44.15-.18-66.23-.25-32.48-.11-64.95-.2-97.43-.3-13.76-.04-27.52-.07-41.27-.13-5.18-.02-10.21.72-14.93,2.94-11.31,5.31-17.57,13.93-17.59,26.73-.07,33.92-.19,67.83-.35,101.75-.11,22.88-.34,45.75-.46,68.62-.06,11.2-.01,22.39-.01,33.59-.34,1.04-.72,2.01-1.47,2.89-3.33,3.98-7.62,6.53-12.29,8.55-.04-7.19-.14-14.38-.11-21.56.23-48.26.5-96.51.74-144.77.1-19.34.2-38.67.22-58.01.01-9.58,3.43-17.76,9.73-24.83,3.33-3.73,7.24-6.74,11.64-9.11,7.46-4.03,15.42-6,23.91-5.95,14.54.08,29.08.11,43.62.13,5.27,0,10.54-.1,15.8-.15,5.27.09,10.53.24,15.8.25,37.55.12,75.1.22,112.65.33,7.51.02,15.02.04,22.53.19,9.13.18,17.69,2.49,25.45,7.38,8.69,5.47,14.95,12.88,17.79,22.92,1.01,3.56,1.42,7.19,1.39,10.89-.08,9.11-.14,18.21-.2,27.32,0,1.28,0,2.56.03,3.83.03,1.02.32,1.82,1.52,2.07,2.38.5,2.76,2.28,2.74,4.37-.04,5.27-.03,10.55,0,15.82,0,1.27.13,2.54.2,3.82-.07,2.07-.2,4.14-.21,6.22-.03,6.4-.03,12.79,0,19.19.01,2.12-.47,3.9-2.86,4.27-1.43.22-1.83.96-1.83,2.25.01,3.84.01,7.67-.05,11.51-.03,2.01-.08,3.79,2.74,3.97,1.12.07,1.8,1.27,1.91,2.48.09.95.08,1.92.08,2.87,0,14.07,0,28.14,0,42.21,0,.64.02,1.28,0,1.92-.13,2.7-.33,3.16-3.22,3.87-1.54.38-1.64,1.23-1.65,2.38-.04,7.67-.09,15.35-.08,23.02,0,3.03-.36,6.07.21,9.09ZM357.49,20.25h0c5.27,0,10.55.01,15.82,0,.96,0,1.94.04,2.87-.14,1.5-.28,2.83-1.87,3.01-3.36.18-1.47-.51-2.49-2.16-3.36-1.17-.62-2.38-.84-3.69-.83-10.39.02-20.78.08-31.17-.04-2.6-.03-4.21,1.18-5.59,3.05-.62.85-.57,1.81.03,2.68.98,1.43,2.33,2.03,4.09,2.02,5.59-.05,11.19-.02,16.78-.02Z"/>
      <path class="cls-10" d="M313.98,6.48c-5.27.05-10.54.16-15.8.15-14.54-.01-29.08-.05-43.62-.13-8.49-.05-16.45,1.93-23.91,5.95-4.4,2.37-8.32,5.38-11.64,9.11-6.3,7.06-9.72,15.25-9.73,24.83-.02,19.34-.13,38.67-.22,58.01-.24,48.26-.51,96.51-.74,144.77-.03,7.19.07,14.38.11,21.56-4.98,2.54-9.98,5.06-14.95,7.63-2.13,1.1-4.17,2.36-6.29,3.46-1.54.79-2.11.62-3.13-.97-1.04-1.61-1.97-3.29-2.87-4.97-2.5-4.64-4.56-9.51-7.45-13.94,1.57-1.02,2.74-2.19,1.64-4.24-.54-1-.71-2.09-.67-3.21.24-5.71-2.14-10.47-5.59-14.74-3.57-4.43-7.34-8.69-11.01-13.03.08-.63.24-1.26.23-1.89,0-1.79.46-2.91,2.59-3.16,2.72-.32,4.48-2.13,5.69-4.56,1.06-2.15,1.89-4.36,2.38-6.7.81-3.89,1.21-7.82.95-11.8.69-1.82,2.46-2.38,3.9-3.33,1.97-1.3,3.31-2.99,3.24-5.47-.22-8.49-3.95-13.62-10.53-15.1-1.36-.31-2.33-.77-2.12-2.52.25-2.06-.88-3.66-2.26-5.05-1.22-1.23-2.53-2.38-3.8-3.56.13-2.08-.28-4.07-.62-6.13-1.05-6.45-2.57-12.8-4.32-19.05-2.45-8.73-4.6-17.53-6.72-26.34-1.11-4.62-2.16-9.26-2.71-14.01-.29-2.52-.73-5.03-1.35-7.49-.36-1.42-.51-2.81-.51-4.25,0-1.76.02-3.49-.63-5.2-.33-.86-.31-1.88-.31-2.83-.03-4.8-.32-9.61.05-14.38.88-11.41,3.62-22.26,10.3-31.85,1.67-2.4,3.86-4.23,5.8-6.35,5.25-5.75,11.83-9.49,18.74-12.91,9.4-4.66,19.39-7.06,29.59-8.92,4.69-.86,9.42-1.35,14.11-2.03,3.66-.53,7.32-.36,10.92-.86,13.37-1.85,26.78-.39,40.17-.88,4.86,1.08,9.85.57,14.73,1.15,5.19.62,10.39,1.21,15.59,1.8,3.77.42,7.5,1.26,11.25,1.89.92.15,1.36.72,1.56,1.56Z"/>
      <path class="cls-8" d="M238.06,540.67c7.27,2.3,14.77,2.15,22.27,2.14,65.35-.02,130.71-.03,196.06.02,7.04,0,14.02-.18,20.83-2.17.43.51.96.84,1.63.86,1.28.03,2.55.05,3.83.05,56.39,0,112.77.02,169.16.02,1.44,0,2.87-.02,4.31-.08.68-.03,1.17-.43,1.53-1,.47.04.98-.02,1.4.15,5.47,2.1,11.13,2.07,16.84,1.57,8.87.04,17.74.11,26.6.12,2.39,0,4.69-.66,6.98-1.31.9-.26,1.83-.42,2.75-.63.41.78,1.1,1.13,1.95,1.15,1.6.03,3.2.04,4.8.04,61.27,0,122.54-.02,183.81.01,4.61,0,9.25-.41,13.84.74,1.29.32,2.9.56,4.01-.79,5.15,1.02,10.35.69,15.55.74,3.78.04,7.57-.35,11.35.2.78,1.05,1.92.95,3.02.95,4.11,0,8.23,0,12.34,0,2.88.03,5.76.04,8.64.1,3.34.07,6.7-.2,10.01.71,1.05.29,2.23.12,3.34.13,4.96.04,9.92.24,14.87.07,5.46-.19,10.79,1.23,16.23,1.03.28-.01.59.21.85.38.08.05.08.28.07.42,0,.14-.01.36-.1.42-.26.17-.55.38-.84.4-4.44.4-8.92.52-13.32,1.2-6.68,1.03-13.43.3-20.06,1.03-9.1,1.01-18.24.1-27.27.99-12.78,1.25-25.55.4-38.32.67-2.23.05-4.43-.05-6.67-.52-2-.42-4.13-.26-6.21-.26-106.06-.01-212.11-.02-318.17-.02-144.61,0-289.21,0-433.82,0-11.36,0-22.71-.06-34.07-.13-3.35-.02-6.67.01-10.02-.65-2.47-.49-5.1-.16-7.66-.24-4.62-.15-9.27.34-13.84-.81-1.06-.27-2.23-.09-3.35-.09-5.28-.04-10.56-.22-15.83-.07-4.66.13-9.18-1.2-13.83-1-.49.02-.89-.27-1.06-.77-.27-.79.28-1.32.82-1.5.89-.29,1.87-.39,2.81-.41,3.36-.07,6.72-.01,10.08-.1,4.14-.11,8.29.22,12.41-.73,1.83-.42,3.82-.08,5.74-.16,1.82-.07,3.34.09,4.57,1.83,1.04,1.47,2.89,1.92,4.72,1.93,2.56.02,5.13-.12,7.68.07,2.99.22,4.46-1.2,4.95-3.96.08-.29.17-.58.25-.88,7.01-.03,14.02-.04,21.04-.09,1.11,0,2.28.06,3.32-.25,2.04-.61,4.09-.54,6.16-.56,6.69-.06,13.38-.12,20.08-.18.2.57.41,1.14.61,1.71-.22.23-.53.42-.64.69-.89,2.26-.55,3,1.52,3.42,3.26.66,6.53,1.1,9.88,1,4.28-.12,8.57-.19,12.84.01,4.17.2,8.15-1.09,12.26-1.15.76-.01,1.5-.49,2.27-.67,1.84-.42,2.04-1.73,1.87-3.28-.07-.49-.15-.97-.22-1.46,1.92-.07,3.83-.18,5.75-.19,10.07-.03,20.15,0,30.22-.06,1.54,0,3.23.53,4.56-.81Z"/>
      <path class="cls-3" d="M158.09,226.72c3.68,4.34,7.45,8.61,11.02,13.03,3.45,4.27,5.83,9.03,5.59,14.74-.05,1.13.13,2.21.67,3.21,1.1,2.05-.06,3.22-1.64,4.24-4.25,1.19-8.51,2.36-12.75,3.59-1.11.32-1.46,1.12-.95,2.23,1.9,4.16,3.84,8.32,5.83,12.44.48.99,1.15,1.89,1.31,3.02-.1,3.16-.29,6.33-.28,9.49.03,9.34.14,18.68.22,28.02-5.08.34-10.16.73-15.25.99-3.19.16-6.35.37-9.46,1.15-2.68.09-5.35.18-8.03.27-.4-1.26-.01-2.5.28-3.68,1-4,.95-8.02.57-12.08.56-4-.58-7.84-1.15-11.74.4-1.29-.18-2.45-.48-3.64-1-4.03-1.32-8.22-2.86-12.12-.1-1.14-.28-2.2-1.71-2.45-3.88-.69-7.75-1.41-11.62-2.12-.5-.61-1.07-1.21-1.05-2.07.04-2.7-.08-5.42.22-8.09.65-5.82,1.52-11.61,2.31-17.41.46-1.35.85-2.73,1.38-4.06,1.08-2.7,2.63-4.99,5.03-6.79,4.06-3.05,7.9-6.41,12.43-8.8,1.4-.74,2.85-1.38,4.27-2.07,1.46.85,3.08.71,4.66.72,3.82.02,7.64-.02,11.45-.04Z"/>
      <path class="cls-4" d="M947.57,542.49c-3.77-.55-7.56-.16-11.35-.2-5.19-.06-10.4.28-15.55-.74-6.55-2.67-11.5-7.25-15.42-13.02-2.14-3.16-4.13-6.4-5.49-9.99,2.07-.04,4.14-.11,6.21-.12,19.43,0,38.87-.04,58.3,0,8.27.02,16.13-1.52,23.46-5.46,1.11-.6,2.21-1.3,3.56-1.24-2.03,6.08-4.86,11.77-8.5,17.05-1.91,2.77-4.12,5.27-6.63,7.51-3.8,3.4-8.29,5.27-13.24,6.2-5.12-.34-10.24-.23-15.36,0Z"/>
      <path class="cls-15" d="M158.36,163.58c1.27,1.18,2.58,2.33,3.8,3.56,1.38,1.39,2.5,2.99,2.26,5.05-.21,1.74.77,2.21,2.12,2.52,6.58,1.48,10.31,6.61,10.53,15.1.06,2.48-1.27,4.17-3.24,5.47-1.44.95-3.21,1.51-3.9,3.33-1.23.35-1.66,1.97-3.29,1.95-.39-.92-.74-1.92-1.24-2.85-.46-.87-1.21-1.51-2.26-1.49-1.26.02-2.01.88-2.51,1.9-.57,1.18-.62,2.49-.31,3.72.54,2.16-.13,4.04-1.04,5.94-3.07,6.41-8.46,9.04-15.24,9.41,1.54-3.24.79-6.17-1.09-9.03-1.67-2.53-3.32-5.09-4.77-7.75-3.29-6.05-3.74-12.44-1.97-19.04.46-1.72,1.08-3.41,2.25-4.72,1.24-1.38,1.82-2.8,1.93-4.68.43-7.19,7.7-11.15,14.32-9.61,1.23.29,2.41.8,3.62,1.22Z"/>
      <path class="cls-11" d="M960.71,406.24c.55-2.49.39-5.04,1.03-7.55,3.09-12.24,10.93-19.42,23.06-22.18,3.58-.81,7.22-1.21,10.9-1.04,4.48.84,6.77,4.44,9.39,7.56,2.71,3.21,3.94,7.22,5.44,11.04,1.56,3.98,2.76,8.09,4.07,12.17.19.58.1,1.26.14,1.89-12.39.93-24.8.73-37.21.8-5.58.03-11.11-.5-16.67-.82-.05-.62-.11-1.24-.16-1.87Z"/>
      <path class="cls-7" d="M144.05,217.19c6.79-.37,12.17-3,15.24-9.41.91-1.9,1.58-3.77,1.04-5.94-.31-1.24-.26-2.55.31-3.72.49-1.02,1.25-1.88,2.51-1.9,1.04-.01,1.8.63,2.26,1.49.5.93.85,1.94,1.24,2.85,1.63.02,2.06-1.61,3.29-1.95.26,3.98-.14,7.91-.95,11.8-.49,2.34-1.31,4.55-2.38,6.7-1.2,2.43-2.97,4.24-5.69,4.56-2.13.25-2.59,1.37-2.59,3.16,0,.63-.15,1.26-.23,1.89-3.82.02-7.64.05-11.46.04-1.58,0-3.2.13-4.66-.72.72-2.95,1.84-5.79,2.07-8.85Z"/>
      <path class="cls-13" d="M106.55,542.52c-.08.29-.17.59-.25.88-5.67.41-11.24-.41-17.13-1.24,1.84-4.61,4.8-8.07,7.76-11.51,2.91.23,5.85.24,8.63,1.32.74,1.75.8,3.61.84,5.47.04,1.7.1,3.4.15,5.09Z"/>
      <path class="cls-7" d="M105.57,531.96c-2.78-1.08-5.72-1.09-8.63-1.32,1.18-2.63,2.43-5.25,2.26-8.25.27-.39.55-.77.82-1.16,2.72,1.24,5.53,2.18,8.56,2.24-.34,1.21-.69,2.43-1.03,3.64-.8,1.56-1.73,3.06-1.97,4.84Z"/>
      <path class="cls-11" d="M947.57,542.49c5.12-.22,10.24-.33,15.36,0,0,.31,0,.63,0,.94-4.11,0-8.23,0-12.34,0-1.1,0-2.25.11-3.02-.95Z"/>
      <path class="cls-15" d="M893.95,450.37c31.18,0,62.36,0,93.54,0,2.56,0,5.11-.05,7.57.88,1.23.46,2.3,1.1,3.15,2.1.88,1.04,1.28,2.2.74,3.55-.42,1.04-.8,2.09-1.27,3.1-3.15,6.82-6.45,13.57-9.44,20.46-1.67,3.85-4.47,6.11-8.27,7.41-3.36,1.14-6.82,1.61-10.36,1.6-11.51-.02-23.03,0-34.54,0-38.38,0-76.75-.01-115.13.03-2.9,0-5.74-.28-8.57-.82-2.37-.45-4.58-1.35-6.63-2.67-1.8-1.16-3.2-2.6-4.13-4.54-3.65-7.64-7.4-15.24-10.99-22.91-1.8-3.84-.79-5.9,3.2-7.34,1.84-.66,3.72-.84,5.66-.84,6.08.02,12.15,0,18.23,0,25.74,0,51.49,0,77.23,0Z"/>
      <path class="cls-14" d="M675.94,542.21c-5.71.51-11.37.53-16.84-1.57-.42-.16-.93-.1-1.4-.15-3.59-1.77-7.05-3.75-10.07-6.43-3.98-3.54-7.28-7.62-10.13-12.1-.85-1.34-1.4-2.89-2.71-3.92-.13-1.48-.97-2.69-1.59-3.97-4.31-8.83-6.63-18.24-8.26-27.86-1.78-10.46-1.7-21.04-.79-31.5,1.46-16.74,6.14-32.58,16.18-46.39,4.46-6.14,9.92-11.18,17.1-14.16,6.68-2.77,13.38-2.91,20.02-.29,5.51,2.17,10.61,5.16,15.06,9.14.95.85,1.96,1.65,2.41,2.91.14,1.44.47,2.74,1.37,3.99,1.4,1.93,2.56,4.03,3.71,6.12,4.24,7.73,7.28,15.9,8.98,24.57,1.35,6.86,2.76,13.69,2.48,20.77-.21,5.26-.17,10.54-.01,15.81.12,4.02-.72,7.94-1.38,11.81-1.02,5.93-2.51,11.82-4.7,17.47-3.78,9.73-8.37,18.93-16.22,26.18-3.31,3.06-6.53,6.08-11.01,7.33-1.06.3-2.11.85-2.2,2.22ZM699.91,465.72c.15-4.67-.73-11.32-2.17-17.88-1.76-8.01-4.66-15.6-9.41-22.38-2.87-4.1-6.29-7.67-10.73-10.08-6.54-3.56-13.14-3.52-19.68.01-3.86,2.09-6.92,5.11-9.58,8.56-3.46,4.46-5.97,9.45-7.84,14.75-2.24,6.35-3.6,12.87-4.32,19.59-1.41,13.26.08,26.14,4.59,38.65,2.35,6.52,5.69,12.51,10.57,17.51,9.95,10.2,22.49,10.31,32.56.31,4.73-4.7,7.97-10.35,10.38-16.51,3.84-9.78,5.55-19.96,5.63-32.52Z"/>
      <path class="cls-10" d="M899.76,518.54c1.36,3.59,3.34,6.83,5.49,9.99,3.93,5.78,8.88,10.35,15.42,13.02-1.12,1.35-2.72,1.11-4.01.79-4.59-1.15-9.22-.74-13.84-.74-61.27-.03-122.54-.01-183.81-.01-1.6,0-3.2-.01-4.8-.04-.85-.02-1.53-.37-1.95-1.15.4-.25.79-.52,1.21-.73,9.33-4.6,15.79-11.97,20.39-21.13,1.76-.03,3.51-.09,5.27-.09,51.94,0,103.89,0,155.83,0,1.6,0,3.19.06,4.79.1Z"/>
      <path class="cls-10" d="M634.79,518.05c1.31,1.02,1.86,2.58,2.71,3.92,2.85,4.48,6.15,8.56,10.13,12.1,3.02,2.69,6.47,4.66,10.07,6.43-.36.57-.85.97-1.53,1-1.44.06-2.87.08-4.31.08-56.39,0-112.77,0-169.16-.02-1.28,0-2.56-.02-3.83-.05-.67-.02-1.21-.35-1.63-.86,4.34-1.58,8.56-3.41,12.39-6.03,5.32-3.65,9.71-8.17,12.96-13.77.62-1.07.9-2.43,2.32-2.86,1.75.11,3.5.3,5.25.3,39.8.03,79.59.05,119.39.04,1.75,0,3.5-.19,5.25-.28Z"/>
      <path class="cls-11" d="M718.37,374.62c3.42-.9,6.9-1.02,10.42-1.02,15.17-.02,30.34-.56,45.5.03,8.44.33,16.81,1.52,24.85,4.39,3.79,1.35,7.29,3.13,10.5,5.59,5.9,4.52,9.1,10.52,10.27,17.74.25,1.57.54,3.14.81,4.71-.13.65-.25,1.3-.38,1.95-12.27,0-24.5,1.11-36.79,1-8.46-.08-16.87-.76-25.3-1.12-12.8-.55-23.7-5.88-32.91-14.57-3.81-3.6-7.33-7.6-8.59-12.98-.22-.92-.29-1.88-.43-2.82.92-.8,1.55-1.8,2.04-2.9Z"/>
      <path class="cls-4" d="M733.87,518.52c-4.6,9.17-11.06,16.53-20.39,21.13-.42.21-.81.49-1.21.73-.92.21-1.85.37-2.75.63-2.29.66-4.59,1.31-6.98,1.31-8.87,0-17.74-.07-26.6-.12.09-1.38,1.15-1.93,2.2-2.22,4.48-1.25,7.7-4.27,11.01-7.33,7.85-7.25,12.44-16.46,16.22-26.18,2.2-5.65,3.69-11.54,4.7-17.47.66-3.87,1.5-7.79,1.38-11.81-.15-5.27-.2-10.55.01-15.81.29-7.08-1.13-13.9-2.48-20.77-1.7-8.67-4.74-16.84-8.98-24.57-1.15-2.09-2.31-4.2-3.71-6.12-.91-1.25-1.23-2.55-1.37-3.99,2.43,1.37,3.99,3.63,5.67,5.73,7.25,9.06,12.41,19.29,16.32,30.13,4.18,11.58,6.74,23.53,8.12,35.78,1.25,11.14.64,22.29.88,33.44.03,1.43-.05,2.88.09,4.3.18,1.86,1.22,2.87,3.09,3.04,1.58.14,3.18.13,4.78.18Z"/>
      <path class="cls-16" d="M718.37,374.62c-.49,1.1-1.12,2.11-2.04,2.9-.53-.33-1.02-.86-1.59-.95-8.32-1.34-16.63-2.86-25-3.8-4.1-.46-8.24-.9-12.34-1.34-5.74-.62-11.52-.26-17.18-1-6.39-.84-12.75-.55-19.13-.68-2.55-.05-5.09-.08-7.61.63-1.35.38-2.86.2-4.3.2-9.28.05-18.56.08-27.84.13-1.91.01-3.81-.03-5.71.5-1.2.34-2.53.32-3.8.29-5.26-.15-10.54.52-15.76-.71-1.22-.29-2.55-.07-3.83-.08-10.4-.05-20.8-.08-31.2-.14-2.39-.01-4.8.2-7.13-.64-.58-.21-1.27-.17-1.9-.17-8,0-15.99.03-23.99.04,0-1.04.01-2.09.02-3.13,7.51.07,15.01.14,22.52.21,1.91.02,3.8.02,5.7.52,1.36.36,2.85.29,4.28.29,27,.02,54,.02,81,.02,2.07,0,4.12.02,6.17-.58,1.19-.35,2.53-.24,3.81-.25,5.43-.03,10.86-.07,16.3-.02,3.82.03,7.67-.34,11.42.77.59.17,1.28.13,1.91.08,6.09-.46,12.1.6,18.1,1.2,8.04.8,16.11,1.7,24.06,3.32,4.98,1.01,10.04,1.61,15.06,2.39Z"/>
      <path class="cls-16" d="M820.35,408.02c.13-.65.25-1.3.38-1.95,21.89.02,43.79.05,65.68.06,23.01.02,46.02.02,69.04.03,1.76,0,3.51.05,5.27.08.05.62.11,1.24.16,1.87-4.8.02-9.59.05-14.39.05-39.65,0-79.29-.02-118.94-.03-2.4,0-4.79-.07-7.19-.1Z"/>
      <path class="cls-6" d="M866.78,338.03c-1.15-.22-1.95-.96-2.74-1.75-5.23-5.25-10.48-10.5-15.73-15.73-.69-.68-1.25-1.41-1.45-2.38,5.09-.04,10.18-.11,15.26-.11,1.1,0,2.22.18,3.28.45,2.74.7,4.55,2.49,4.78,5.29.27,3.31.27,6.67.12,10-.1,2.12-1.93,3.16-3.53,4.22Z"/>
      <path class="cls-4" d="M108.57,523.47c-3.03-.06-5.83-1.01-8.56-2.24,1.03-5.98,2.03-11.96,3.11-17.93.8-4.41,1.47-8.83,1.71-13.31.4-7.58,2.43-14.8,5.17-21.84,2.67-6.87,5.85-13.5,9.48-19.9,2.35-4.14,3.49-8.39,3.75-13.17.75-13.43.95-26.86.65-40.3-.13-5.93-.66-11.82-1.79-17.64-.43-2.19-.87-4.41-1.62-6.5-1.79-4.99-1.75-10.01-.82-15.13.72-3.95,1.9-7.76,3.34-11.49,2.55-6.58,5.78-12.82,9.5-18.81.49-.8.86-1.73,1.86-2.09,2.68-.09,5.35-.18,8.03-.27-.51,2,.01,4.12-.99,6.09-1.22,2.4-2.26,4.91-3.22,7.43-2.63,6.83-4.91,13.71-4.73,21.22.21,9,.05,9,5.5,15.99.2.25.41.49.64.71,2.8,2.67,4.46,6.16,6.51,9.33,2.15,3.33,3.25,7.21,3.77,11.2.12.92.6,1.78.91,2.67-.7.58-.69,1.4-.71,2.18-.11,5.62-.96,11.14-2.12,16.62-1.68,7.97-3.38,15.93-5.14,23.88-.31,1.39-.85,2.74-1.4,4.07-6.76,16.38-13.54,32.76-20.33,49.14-4.16,10.03-8.34,20.05-12.51,30.07Z"/>
      <path class="cls-7" d="M134.06,295.64c.57,3.89,1.71,7.73,1.15,11.74-2.6.86-5.28,1.1-7.99.9-3.12-.24-5.25-1.69-6.41-4.79-1.52-4.06-2.14-8.29-2.61-12.53-.43-3.93-.07-7.92-.9-11.85-.26-1.2.05-2.53.09-3.8,3.88.71,7.75,1.43,11.63,2.12,1.43.25,1.61,1.31,1.71,2.45-.01,4.58-.06,9.16-.02,13.75.02,1.67.35,1.88,2.41,2.09.31.03.63-.04.94-.07Z"/>
      <path class="cls-1" d="M848.66,339.72c-1.43.07-2.87.19-4.3.19-47.93-.03-95.87-.08-143.8-.13-18.34-1.31-36.72-.33-55.06-1.06-5.57-.22-11.14-.62-16.72-.72-1.81-.03-3.47-.62-5.09-1.23-5.64-2.13-10.46-5.51-14.25-10.2-2.8-3.48-5.3-7.17-7.38-11.17-3.54-6.81-6.49-13.88-9.39-20.97-2.35-5.76-4.79-11.48-7.14-17.25-.72-1.76-1.25-3.6-1.86-5.41,4.63,0,9.27-.02,13.9,0,1.12,0,2.33-.17,3.33.2,2.65.98,5.38.9,8.06.7,6.41-.48,12.67,1.42,19.06,1.07.46-.03.96.11,1.39.3,1.68.73,3.45.57,5.2.6,1.12.02,2.25-.05,3.35.11,5.96.88,11.91,1.8,17.85,2.74,6.42,1.01,12.87,1.89,19.25,3.15,6.69,1.32,13.32,2.98,19.96,4.56,15.93,3.79,31.68,8.22,47.25,13.34,11.66,3.83,23.2,7.97,34.7,12.23,5.97,2.21,12,4.28,17.91,6.64,15.09,6.01,30.15,12.09,45.16,18.28,2.92,1.2,6.12,1.89,8.61,4.03Z"/>
      <path class="cls-11" d="M848.66,339.72c-2.49-2.14-5.69-2.83-8.61-4.03-15.02-6.19-30.07-12.27-45.16-18.28-5.91-2.36-11.94-4.43-17.91-6.64-11.5-4.26-23.05-8.39-34.7-12.23-15.56-5.12-31.31-9.55-47.25-13.34-6.64-1.58-13.27-3.24-19.96-4.56-6.37-1.26-12.83-2.13-19.25-3.15-5.95-.94-11.9-1.86-17.85-2.74-1.1-.16-2.23-.09-3.35-.11-1.75-.03-3.52.13-5.2-.6-.43-.19-.93-.32-1.39-.3-6.39.35-12.65-1.56-19.06-1.07-2.68.2-5.41.29-8.06-.7-1-.37-2.21-.2-3.33-.2-4.63-.01-9.27,0-13.9,0-2.41-4.39-3.5-9.21-4.57-14.03-.24-1.06-.13-2.24.05-3.33.29-1.83,1.4-2.74,3.27-2.85,1.28-.07,2.56-.04,3.84-.04,51.97.02,103.94.07,155.91.01,4.94,0,9.47,1.13,13.86,3.18,6.7,3.13,12.73,7.35,18.65,11.7,8.38,6.15,16.26,12.9,23.96,19.89,11.25,10.21,22.31,20.61,32.92,31.47,6.03,6.18,11.94,12.47,17.89,18.72.43.46.76,1.02,1.14,1.53,0,.58-.02,1.17-.02,1.75-.64-.02-1.28-.04-1.92-.06Z"/>
      <path class="cls-1" d="M508.19,339.87c-.04-3.52-.14-7.03-.11-10.55.12-19.03.27-38.06.43-57.09.01-1.75.18-3.51.27-5.26,1.53.44,3.07.82,4.58,1.32,8.81,2.89,17.77,4.8,27.13,4.47,5.1-.18,10.22-.03,15.33-.05,1.12,0,2.33.23,3.33-.13,3.11-1.1,6.32-.68,9.48-.89,1.82,2.48,2.65,5.39,3.59,8.25,4.54,13.89,9.06,27.78,13.54,41.68,1.36,4.22,3.24,8.29,4.01,12.7-3.81-.59-7.42-1.91-11.08-2.99-2.49-.74-2.55-.84-2.61-3.26-.06-2.24-.02-4.46-.88-6.6-1.53-3.83-3.86-5.59-7.96-5.63-5.11-.06-10.23-.02-15.34-.02-3.36,0-6.72-.08-10.07.03-4.56.15-7.05,2.45-7.73,6.93-.07.47-.08.96-.08,1.43,0,3.04.03,6.07-.02,9.11-.03,1.69.48,3.13,1.64,4.35.66.69,1.29,1.4,1.94,2.1-9.79.03-19.58.06-29.37.09Z"/>
      <path class="cls-6" d="M537.55,339.78c-.65-.7-1.28-1.41-1.94-2.1-1.16-1.22-1.67-2.66-1.64-4.35.05-3.04.01-6.07.02-9.11,0-.48,0-.96.08-1.43.68-4.48,3.17-6.78,7.73-6.93,3.35-.11,6.71-.03,10.07-.03,5.11,0,10.23-.04,15.34.02,4.1.05,6.44,1.81,7.96,5.63.86,2.15.82,4.37.88,6.6.06,2.42.12,2.52,2.61,3.26,3.67,1.09,7.28,2.41,11.08,2.99,1.26.66,2.62,1.19,3.77,2.02,1.75,1.25,2.01,3.18.91,5.07-1.59,2.74-6.58,5.12-9.86,4.65-2.53-.37-4.98-1.13-7.24-2.29-2.15-1.1-4.11-1.48-6.22.05-1.2.87-2.68.9-4.13.87-9.72-.21-19.35-1-28.49-4.73-.29-.12-.62-.13-.93-.19Z"/>
      <path class="cls-11" d="M568.61,271.71c-3.16.21-6.37-.22-9.48.89-1,.35-2.21.12-3.33.13-5.11.01-10.22-.13-15.33.05-9.36.33-18.31-1.58-27.13-4.47-1.51-.49-3.05-.88-4.58-1.32-.47-5.16-.24-10.31.04-15.47,11.34,0,22.68.16,34.02-.07,5.42-.11,10.08,1.52,14.2,4.76,5.22,4.11,9.38,9.1,11.59,15.51Z"/>
      <path class="cls-1" d="M850.58,339.78c0-.58.02-1.17.02-1.75,1.1,1.04,1.1,1.04-.02,1.75Z"/>
      <path class="cls-9" d="M222.17,259.29c0-11.2-.05-22.39.01-33.59.13-22.88.35-45.75.46-68.62.16-33.92.27-67.83.35-101.75.03-12.8,6.28-21.42,17.59-26.73,4.72-2.22,9.75-2.96,14.93-2.94,13.76.06,27.52.09,41.27.13,32.48.1,64.95.19,97.43.3,22.08.07,44.15.16,66.23.25,4.65.02,9.28.23,13.76,1.62,4.8,1.49,9.14,3.82,12.8,7.3,5.6,5.33,8.58,11.77,8.53,19.62-.14,22.88-.13,45.75-.24,68.63-.28,60.47-.59,120.94-.91,181.41-.25,47.03-.54,94.06-.78,141.09-.09,17.12-.44,34.24-.07,51.35.31,14.28-9.34,24.99-22.36,28.68-3.73,1.06-7.55,1.25-11.41,1.23-20.64-.08-41.27-.12-61.91-.18-23.04-.07-46.07-.12-69.11-.23-25.27-.12-50.55-.33-75.82-.44-7.25-.03-13.94-1.8-19.89-5.97-8-5.62-12.22-13.24-12.16-23.18.3-45.91.56-91.82.79-137.74.14-28.8.19-57.59.28-86.39,0-.48-.05-.96-.08-1.43,1.56-1.76,2.75-3.91,5.02-4.91,2.09-.92,3.7-2.42,5.23-4.03,2.17-2.27,4.62-3.84,7.93-3.6.3.02.64-.05.92-.17.67-.3,1-.96.67-1.54-1.22-2.14-2.91-3.69-5.52-3.93-3.81-.36-7.22.56-10.13,3.12-1.17,1.02-2.02,2.5-3.81,2.62ZM356.76,481.13c15.03,0,30.07,0,45.1,0,12.48,0,24.95-.1,37.43.03,8.26.09,18.84-6.32,19.45-18.7.44-8.94.3-17.92.03-26.86-.26-8.84-6.48-16-15.1-18.25-2.53-.66-5.07-.59-7.62-.59-52.78,0-105.56,0-158.34,0-1.12,0-2.24-.02-3.36.01-11.23.29-18.38,8.99-19.23,16.83-.17,1.59-.36,3.18-.37,4.77-.04,7.04-.05,14.08,0,21.11.01,1.75.13,3.52.44,5.24,1.42,7.77,6.01,12.83,13.39,15.5,2.47.89,5.01.91,7.57.91,26.87,0,53.74,0,80.61,0ZM425.92,199.77c9.11,0,18.23,0,27.34,0,1.59,0,3.14-.02,4.73-.46,9.18-2.54,14.95-10.88,15.24-19.87.38-11.66.31-23.34.02-35.01-.22-9.03-5.31-15.17-13.26-18.88-2.7-1.26-5.75-1.66-8.85-1.65-16.63.08-33.25.06-49.88.02-2.57,0-5.05.32-7.55.93-9.37,2.27-15.36,11.27-15.4,19.58-.05,11.83.17,23.66-.07,35.49-.2,10.19,9.71,20.15,19.86,19.91,9.27-.22,18.54-.05,27.82-.05ZM292.13,199.77h26.86c.16,0,.32,0,.48,0,1.28-.03,2.6.12,3.83-.13,9.66-2.02,16.84-10.9,16.65-20.08-.24-11.83-.08-23.66-.05-35.49.02-7.15-3.29-12.47-8.99-16.47-3.93-2.76-8.44-3.64-13.11-3.66-16.63-.05-33.25.03-49.88-.06-3.26-.02-6.33.47-9.32,1.74-6.9,2.93-11.34,7.79-12.89,15.34-.75,3.65-.84,7.26-.85,10.92-.02,8.15.09,16.31-.04,24.46-.07,4.09.78,8.02,2.42,11.61,3.38,7.38,9.12,11.75,17.55,11.8,9.11.05,18.23.01,27.34.01ZM425.61,331.29c9.27,0,18.55,0,27.82,0,1.59,0,3.14-.04,4.72-.53,9.67-2.99,14.64-10.38,15.05-19.96.48-11.33.19-22.7.06-34.05-.04-2.99-.47-6.12-1.91-8.78-4.14-7.69-10.34-12.47-19.43-12.49-17.43-.05-34.86.02-52.29-.05-2.62-.01-5.12.58-7.47,1.42-2.66.95-5.52,1.95-7.42,4.23-3.74,4.48-6.55,9.34-6.49,15.51.12,11.51.29,23.03-.04,34.54-.3,10.43,9.78,20.55,20.05,20.24,9.11-.27,18.23-.06,27.34-.06ZM292.12,331.29c9.27,0,18.54,0,27.81,0,1.75,0,3.44-.14,5.18-.66,3.8-1.14,6.9-3.18,9.55-6.09,3.24-3.56,5.18-7.64,5.2-12.48.05-12.47.02-24.94.01-37.41,0-1.27-.08-2.51-.44-3.78-2.54-8.85-10.37-15.42-20.64-15.42-16.94,0-33.89.07-50.83-.06-3.62-.03-7.01.62-10.22,2.04-6.21,2.74-10.15,7.61-11.86,14.13-.93,3.54-1.13,7.2-1.07,10.89.13,8.15.1,16.3.01,24.46-.03,2.9.26,5.71,1.03,8.5,1.34,4.88,3.59,8.97,7.92,12.07,3.57,2.56,7.18,3.87,11.5,3.84,8.95-.08,17.9-.02,26.85-.02ZM320.2,48.97h0c-19.51,0-39.03.15-58.54-.07-7.02-.08-13.52,6.19-13.09,13,.16,2.55.02,5.12.03,7.68.01,5.31,2.41,9.06,7.19,11.44,2.53,1.26,5.1,1.62,7.87,1.62,37.59-.04,75.18-.03,112.77-.03.96,0,1.92.04,2.88-.02,6.38-.39,12.11-6.08,12.4-12.45.14-3.03.15-6.08,0-9.11-.25-4.64-2.44-8.14-6.53-10.47-2.32-1.33-4.78-1.61-7.38-1.6-19.19.04-38.39.02-57.58.02ZM288.61,342.82c-3.83,0-7.66,0-11.49,0-4.63,0-9.25,0-13.88.04-1.36.01-2.19.74-1.94,1.52.3.91,1.05,1.12,1.87,1.16.96.05,1.91.04,2.87.04,3.67,0,7.34,0,11.01,0,11.01,0,22.02,0,33.03,0,1.27,0,2.56,0,3.81-.18.77-.1,1.56-.51,1.48-1.52-.07-.78-.75-.97-1.4-1-1.27-.06-2.55-.06-3.83-.06-7.18,0-14.36,0-21.54,0ZM415.89,345.57h0c5.28.01,10.55.02,15.83,0,.95,0,1.95.1,2.74-.58.22-.19.39-.55.39-.83,0-.28-.19-.62-.41-.81-.65-.56-1.48-.53-2.27-.53-10.71,0-21.42,0-32.14.01-.94,0-1.98-.04-2.35,1.14-.27.85.72,1.56,2.39,1.57,5.28.03,10.55.01,15.83.01ZM424.86,353.52c7.5,0,15.01.01,22.51-.01,1.26,0,2.53-.15,3.78-.3.19-.02.37-.42.47-.68.14-.36-.05-.59-.4-.76-1.06-.52-2.19-.33-3.29-.33-15.49-.01-30.97-.01-46.46,0-.8,0-1.59.03-2.39.1-.69.06-1.29.38-1.12,1.15.07.31.65.67,1.03.7,1.27.12,2.55.13,3.82.13,7.34,0,14.69,0,22.03,0ZM291.91,219.89c-7.34,0-14.69,0-22.03,0-1.28,0-2.56-.02-3.83.05-.6.03-1.32.09-1.45.89-.15.92.62,1,1.21,1.06.95.1,1.91.09,2.87.09,15.17,0,30.34,0,45.5,0,.96,0,1.92,0,2.87-.09.59-.06,1.36-.13,1.22-1.05-.12-.8-.85-.86-1.45-.89-1.27-.07-2.55-.05-3.83-.05-7.02,0-14.05,0-21.07,0ZM421.5,213.38h0c7.98,0,15.96,0,23.93-.02.89,0,1.92.24,2.51-.8.36-.64-.81-1.27-2.59-1.27-16.12-.01-32.23-.01-48.35,0-.78,0-1.55.19-2.32.33-.38.07-.54.39-.41.75.1.26.28.67.46.69,1.25.15,2.52.3,3.78.3,7.66.03,15.32.01,22.98.01ZM459.32,54.8c-3.18,0-6.36-.02-9.54.01-.94.01-1.91.09-2.82.31-.61.14-1.11.65-1.19,1.34-.1.94.51,1.48,1.29,1.75.59.2,1.24.28,1.86.3,1.59.04,3.18.02,4.77.02,4.93,0,9.86,0,14.79,0,1.12,0,2.25-.01,3.15-.81.5-.44.78-1.05.51-1.69-.17-.4-.55-.88-.93-.99-.75-.21-1.57-.23-2.35-.24-3.18-.02-6.36,0-9.54-.01ZM458.49,76.1c3.82,0,7.63.01,11.45,0,.96,0,1.95-.12,2.22-1.32.22-.97-.67-1.72-2.27-1.73-7.32-.03-14.63-.02-21.95,0-.98,0-1.93.17-2.23,1.33-.25.96.63,1.69,2.28,1.72,3.5.05,7,.02,10.5.01ZM459.4,64.23c-3.82,0-7.63-.01-11.45,0-.96,0-1.95.11-2.23,1.31-.23.96.66,1.73,2.26,1.74,7.32.03,14.63.03,21.95,0,1.58,0,2.47-.8,2.23-1.76-.3-1.19-1.3-1.28-2.25-1.28-3.5-.03-7-.01-10.5,0ZM283.42,211.28c-2.39,0-4.78-.01-7.17,0-3.5.02-7,.04-10.51.1-.68.01-1.26.35-1.15,1.15.07.5.55.71,1.03.74.95.05,1.91.11,2.86.11,9.87,0,19.75,0,29.62,0,.8,0,1.59,0,2.39-.05.31-.02.65-.08.9-.24.22-.14.39-.42.49-.68.14-.36-.02-.69-.39-.75-.92-.16-1.86-.35-2.79-.36-5.1-.03-10.19-.02-15.29-.02ZM296.22,353.51c5.57,0,11.14,0,16.72,0,.79,0,1.63.06,2.22-.59.16-.17.16-.79.05-.84-.54-.28-1.15-.61-1.73-.61-11.3-.03-22.61-.02-33.91,0-.44,0-.93.2-1.32.43-.19.11-.24.51-.29.8-.02.1.11.27.21.35.68.55,1.5.46,2.28.46,5.25.01,10.51,0,15.76,0ZM430.11,219.89c-5.25,0-10.5,0-15.76,0-.94,0-1.92-.16-2.75.47-.1.08-.22.25-.21.36.04.28.09.72.25.78.57.22,1.2.43,1.81.43,10.82.02,21.64.02,32.47,0,.6,0,1.21-.26,1.81-.44.1-.03.23-.24.21-.34-.05-.28-.09-.64-.27-.81-.65-.58-1.49-.45-2.27-.46-5.09-.02-10.19,0-15.28-.01Z"/>
      <path class="cls-10" d="M167.11,320.73c-.08-9.34-.19-18.68-.22-28.02-.01-3.16.18-6.33.28-9.49,1.24.61,1.73,1.84,2.39,2.92,1.58,2.62,3.66,4.82,5.84,6.94,1.93,1.87,4.14,2.77,6.89,2.8,3.13.03,5.98-.78,8.78-2.02,4.55-2.02,8.69-4.72,12.75-7.55,1.31-.91,2.57-1.91,4.24-2.09-.01,12.62.01,25.24-.05,37.85-.16,30.83-.39,61.66-.55,92.49-.14,27.8-.22,55.59-.31,83.39-.01,3.99-.2,7.99.73,11.92,1.94,8.2,6.27,14.95,12.48,20.55,3.95,3.56,8.39,6.36,13.3,8.41,1.47.61,2.94,1.23,4.42,1.85-1.33,1.33-3.02.8-4.56.81-10.07.05-20.15.03-30.22.06-1.92,0-3.83.12-5.75.19-2.17-.94-4.33-1.87-6.67-2.31-4.21-.79-8.14-2.37-11.98-4.23-3.26-1.58-6.59-3.02-9.88-4.51-.09-2.96-.18-5.91-.27-8.87,1.02-7.91,2.1-15.82,3.05-23.74,1.46-12.21,2.73-24.44,4.24-36.64,1.8-14.44,2.71-28.93,2.78-43.48.06-12.15-.17-24.29-1.44-36.38-1.59-15.09-3.73-30.1-6.58-45.01-1.02-5.31-1.77-10.71-3.67-15.82Z"/>
      <path class="cls-7" d="M208.05,284.22c-1.67.18-2.92,1.17-4.24,2.09-4.06,2.83-8.2,5.54-12.75,7.55-2.8,1.24-5.65,2.05-8.78,2.02-2.74-.03-4.96-.93-6.89-2.8-2.19-2.12-4.26-4.31-5.84-6.94-.65-1.08-1.14-2.31-2.39-2.92-.16-1.13-.83-2.02-1.31-3.02-1.99-4.12-3.93-8.27-5.83-12.44-.51-1.11-.16-1.91.95-2.23,4.24-1.23,8.5-2.4,12.75-3.59,2.89,4.43,4.95,9.3,7.45,13.94.91,1.69,1.84,3.37,2.87,4.97,1.03,1.59,1.6,1.76,3.13.97,2.13-1.1,4.17-2.36,6.29-3.46,4.97-2.57,9.96-5.09,14.95-7.63,4.67-2.02,8.96-4.58,12.29-8.55.74-.89,1.12-1.86,1.47-2.89,1.79-.12,2.65-1.6,3.81-2.62,2.92-2.55,6.32-3.47,10.13-3.12,2.61.24,4.3,1.8,5.52,3.93.33.57,0,1.24-.67,1.54-.28.12-.62.19-.92.17-3.3-.24-5.76,1.33-7.93,3.6-1.53,1.6-3.14,3.11-5.23,4.03-2.26,1-3.46,3.15-5.02,4.91-1.75.53-2.71,2.08-4.04,3.16-2.56,2.09-5.02,4.3-7.58,6.39-1,.82-1.9,1.64-2.21,2.94Z"/>
      <path class="cls-14" d="M357.49,20.25c-5.59,0-11.19-.03-16.78.02-1.76.02-3.11-.59-4.09-2.02-.6-.87-.66-1.83-.03-2.68,1.37-1.87,2.99-3.08,5.59-3.05,10.39.12,20.78.06,31.17.04,1.31,0,2.52.22,3.69.83,1.65.87,2.33,1.88,2.16,3.36-.18,1.49-1.51,3.08-3.01,3.36-.93.18-1.91.14-2.87.14-5.27.01-10.55,0-15.82,0h0Z"/>
      <path class="cls-9" d="M105.57,531.96c.25-1.78,1.17-3.29,1.97-4.84,1.6-.03,3.11.23,4.66.76,3.9,1.33,7.89,2.36,11.8,3.64,7.98,2.61,16.19,4.33,24.38,6.04,2.91.61,5.85,1.53,8.92,1.11l-.16,2.79c-6.69.06-13.38.11-20.08.18-2.07.02-4.12-.05-6.16.56-1.04.31-2.21.24-3.32.25-7.01.04-14.02.06-21.04.09-.05-1.7-.11-3.4-.15-5.09-.04-1.86-.1-3.71-.84-5.47Z"/>
      <path class="cls-13" d="M157.14,541.44l.16-2.79c.9-2.13.98-4.53,2.21-6.55,3.2-.22,6.24-1.5,9.49-1.44,3.3,1.5,6.63,2.94,9.89,4.51,3.84,1.86,7.78,3.44,11.98,4.23,2.35.44,4.51,1.37,6.67,2.31.07.49.15.97.22,1.46-1.43.17-2.86.29-4.28.51-11.94,1.85-23.86,2.14-35.73-.55-.2-.57-.41-1.14-.61-1.71Z"/>
      <path class="cls-10" d="M157.75,543.15c11.87,2.69,23.79,2.4,35.73.55,1.42-.22,2.86-.35,4.28-.51.17,1.54-.03,2.86-1.87,3.28-.77.17-1.51.65-2.27.67-4.12.06-8.1,1.35-12.26,1.15-4.27-.21-8.56-.13-12.84-.01-3.35.1-6.62-.34-9.88-1-2.07-.42-2.41-1.16-1.52-3.42.11-.27.42-.46.64-.69Z"/>
      <path class="cls-15" d="M167.11,320.73c1.9,5.12,2.65,10.51,3.67,15.82,2.85,14.9,4.99,29.92,6.58,45.01,1.27,12.08,1.5,24.23,1.44,36.38-.07,14.55-.99,29.04-2.78,43.48-1.52,12.2-2.79,24.43-4.24,36.64-.95,7.92-2.03,15.83-3.05,23.74-3.37.51-6.75.98-9.98-.67-.48-7-.92-14.01-1.46-21.01-.41-5.25-1.03-10.48-1.41-15.73-.77-10.53-1.17-21.08,1.63-31.4,1.67-6.18,1.48-12.36.59-18.52-1.78-12.44-4.15-24.79-7.33-36.96-.31-.89-.79-1.76-.91-2.67-.51-3.99-1.62-7.88-3.77-11.2-2.05-3.17-3.72-6.66-6.51-9.33-.23-.22-.44-.46-.64-.71-5.45-6.99-5.29-6.99-5.5-15.99-.17-7.51,2.11-14.39,4.73-21.22.97-2.52,2-5.03,3.22-7.43,1-1.97.48-4.09.99-6.09,3.11-.78,6.28-.99,9.46-1.15,5.09-.26,10.17-.65,15.25-.99Z"/>
      <path class="cls-11" d="M134.06,295.64c-.32.03-.63.1-.94.07-2.06-.2-2.39-.41-2.41-2.09-.04-4.58,0-9.17.02-13.75,1.54,3.91,1.85,8.1,2.86,12.13.3,1.19.88,2.35.48,3.64Z"/>
      <path class="cls-10" d="M150.77,397.51c3.18,12.18,5.54,24.52,7.33,36.96.88,6.16,1.08,12.34-.59,18.52-2.79,10.32-2.4,20.87-1.63,31.4.39,5.25,1.01,10.48,1.41,15.73.54,7,.98,14.01,1.46,21.01.25,3.66.51,7.31.76,10.97-1.23,2.02-1.31,4.42-2.21,6.55-3.07.42-6.01-.5-8.92-1.11-8.2-1.71-16.4-3.42-24.38-6.04-3.91-1.28-7.91-2.32-11.8-3.64-1.55-.53-3.06-.79-4.66-.76.34-1.21.69-2.43,1.03-3.64,4.17-10.02,8.35-20.04,12.51-30.07,6.79-16.37,13.57-32.75,20.33-49.14.55-1.32,1.09-2.68,1.4-4.07,1.75-7.95,3.46-15.92,5.14-23.88,1.16-5.48,2.01-11,2.12-16.62.02-.79,0-1.61.71-2.18Z"/>
      <path class="cls-8" d="M699.91,465.72c-.09,12.56-1.8,22.74-5.63,32.52-2.41,6.16-5.66,11.81-10.38,16.51-10.07,10.01-22.61,9.89-32.56-.31-4.88-5-8.22-10.99-10.57-17.51-4.51-12.51-6-25.39-4.59-38.65.72-6.71,2.08-13.24,4.32-19.59,1.87-5.3,4.38-10.28,7.84-14.75,2.66-3.44,5.72-6.47,9.58-8.56,6.54-3.53,13.14-3.57,19.68-.01,4.44,2.42,7.86,5.98,10.73,10.08,4.74,6.78,7.64,14.37,9.41,22.38,1.44,6.56,2.33,13.21,2.17,17.88ZM646.03,468.95c-.12,2.99.25,6.95,1.07,10.87,1.06,5.03,2.64,9.86,5.25,14.32,1.54,2.64,3.4,5.03,5.76,6.99,6.01,4.99,13.24,4.99,19.18-.1,1.32-1.13,2.5-2.47,3.57-3.86,2.57-3.31,4.32-7.07,5.65-11.03,2.68-8,3.36-16.24,2.57-24.59-.48-5.09-1.64-10.07-3.59-14.84-1.84-4.49-4.28-8.57-7.94-11.82-5.88-5.23-12.98-5.43-19.17-.52-.99.79-1.91,1.7-2.76,2.64-1.83,2.03-3.27,4.33-4.47,6.78-3.71,7.61-5.23,15.7-5.11,25.15Z"/>
      <path class="cls-15" d="M356.76,481.13c-26.87,0-53.74,0-80.61,0-2.56,0-5.1-.01-7.57-.91-7.38-2.67-11.97-7.73-13.39-15.5-.31-1.72-.43-3.49-.44-5.24-.05-7.04-.04-14.07,0-21.11,0-1.59.2-3.19.37-4.77.85-7.84,8-16.54,19.23-16.83,1.12-.03,2.24-.01,3.36-.01,52.78,0,105.56,0,158.34,0,2.55,0,5.09-.07,7.62.59,8.62,2.25,14.84,9.41,15.1,18.25.27,8.95.41,17.93-.03,26.86-.61,12.37-11.19,18.78-19.45,18.7-12.47-.13-24.95-.03-37.43-.03-15.03,0-30.07,0-45.1,0ZM330.67,447.56c.95-1.43,1.8-2.41,2.33-3.54,1.98-4.29.18-8.89-4.17-10.75-1.47-.63-3.02-1.03-4.65-1.03-2.88,0-5.76-.05-8.63,0-2.08.05-2.51.48-2.52,2.6-.04,9.27-.03,18.54,0,27.81,0,1.91.44,2.44,2.14,2.46,3.51.03,7.03-.04,10.54-.13,1.79-.05,3.46-.59,5-1.51,5.57-3.31,6.33-10.06,1.64-14.54-.45-.43-.96-.8-1.66-1.39ZM341.73,444.16s.05,0,.07,0c0,3.52-.19,7.05.04,10.55.39,5.95,3.62,9.62,9.22,10.69,2.84.54,5.71.49,8.56-.24,4.45-1.14,7.23-3.86,8.31-8.34.41-1.72.65-3.45.64-5.22-.02-5.12,0-10.24-.01-15.36,0-.8-.01-1.6-.09-2.39-.09-.91-.69-1.47-1.54-1.55-2.18-.21-3.38-.04-3.35,2.66.06,5.28-.01,10.56.02,15.83.01,1.93-.15,3.83-.69,5.69-.46,1.6-1.4,2.86-2.8,3.76-5.28,3.38-12.31.31-13.28-5.82-.2-1.25-.16-2.55-.16-3.83-.02-5.12.02-10.24-.02-15.35-.02-2.53-.53-3.05-2.6-3-1.8.04-2.27.56-2.3,2.8-.04,3.04-.01,6.08-.01,9.12ZM387.26,446.92c-1.53-.96-1.84-2.07-2.37-3.02-1.8-3.19-3.64-6.36-5.3-9.62-.99-1.93-2.52-2.22-4.38-2.02-1.13.12-1.74,1.02-1.21,1.98,1.82,3.36,3.49,6.83,5.6,10,3.47,5.21,5.56,10.67,4.63,17.02-.05.31-.01.64,0,.96.09,2.48.79,3.12,3.16,2.92,1.08-.09,1.84-.58,1.86-1.74.05-2.23.17-4.47.03-6.69-.18-2.83.62-5.25,2.13-7.64,2.97-4.71,5.74-9.56,8.53-14.38.85-1.47.22-2.35-1.51-2.47-1.58-.1-2.77.34-3.58,1.79-1.63,2.92-3.32,5.8-5.01,8.69-.79,1.35-1.63,2.68-2.58,4.22Z"/>
      <path class="cls-5" d="M425.92,199.77c-9.27,0-18.55-.17-27.82.05-10.15.24-20.07-9.72-19.86-19.91.24-11.83.01-23.66.07-35.49.04-8.31,6.04-17.31,15.4-19.58,2.5-.61,4.98-.93,7.55-.93,16.63.04,33.25.06,49.88-.02,3.1-.01,6.15.39,8.85,1.65,7.95,3.72,13.04,9.85,13.26,18.88.29,11.66.36,23.35-.02,35.01-.29,8.99-6.06,17.34-15.24,19.87-1.59.44-3.15.46-4.73.46-9.11.02-18.23,0-27.34,0ZM402.34,173.86c.66-.03,1.31-.06,1.97-.08,3.2.04,6.4.04,9.6.14,8.95.27,17.91-.43,26.84.6.47.05.96,0,1.44-.04,1.36-.12,1.93-.66,2.21-2.05.23-1.18-.31-2.65,1.24-3.34.64,1.27-.25,2.46-.17,3.73.23,3.76,3.29,6.58,7,6.3,3.71-.28,6.32-3.58,5.81-7.35-.5-3.66-3.95-6.13-7.65-5.4-1.08.21-2.12.59-3.18.9-.28-.92.15-1.55.89-1.98,4.69-2.7,10.41-.09,11.56,5.24.26,1.22-.26,2.59.7,3.72,1.45.2,2.82-.29,4.19-.63.97-.24,1.75-.91,1.77-2.01.03-2.24.09-4.48-.1-6.71-.16-1.85-1.16-3.31-2.94-4.08-1.02-.44-2.05-.93-3.12-1.2-4.02-1.01-8.04-2.14-12.12-2.84-4.03-.69-7.62-2.06-10.9-4.54-6.89-5.21-14.75-7.37-23.36-7.19-5.75.12-11.48.27-17.22.88-3.78.4-5.86,2.24-6.86,5.61-1.55,5.2-3.01,10.43-4.46,15.66-.25.91-.43,1.89-.37,2.82.11,1.59.9,2.71,2.67,2.81.51.05,1.01.1,1.52.16.21.75.3,1.56.64,2.25,2.25,4.64,8.02,5.24,11.12,1.14.56-.74.86-1.66,1.28-2.5Z"/>
      <path class="cls-5" d="M292.13,199.77c-9.11,0-18.23.04-27.34-.01-8.43-.05-14.17-4.42-17.55-11.8-1.64-3.58-2.49-7.51-2.42-11.61.13-8.15.03-16.31.04-24.46,0-3.66.1-7.27.85-10.92,1.55-7.56,5.99-12.41,12.89-15.34,2.98-1.27,6.05-1.76,9.32-1.74,16.63.09,33.25.01,49.88.06,4.68.01,9.18.9,13.11,3.66,5.7,4,9,9.31,8.99,16.47-.03,11.83-.19,23.67.05,35.49.19,9.18-6.99,18.06-16.65,20.08-1.23.26-2.55.1-3.83.13-.16,0-.32,0-.48,0-8.95,0-17.91,0-26.86,0ZM269.2,173.94c.59-.08,1.18-.15,1.77-.23.48.05.95.13,1.43.13,11.79.12,23.59.24,35.38.35,1.11.01,2.24.08,3.28-.46.3.81,1,1.01,1.75,1.12.52.78.93,1.67,1.58,2.33,1.97,1.99,4.4,2.43,6.96,1.43,2.58-1.01,3.95-3.06,4.05-5.82.03-.91-.31-1.84-.48-2.77.5,0,1-.02,1.5-.03.71,1.29-.01,2.88.86,4.13,6.17-.3,6.26-.4,6.08-6.16-.04-1.12-.06-2.24-.22-3.34-.26-1.88-1.28-3.26-3.05-3.97-1.18-.48-2.38-.94-3.62-1.23-4.19-1-8.37-2-12.59-2.85-3.17-.64-6.13-1.62-8.74-3.63-1.64-1.26-3.47-2.27-5.23-3.36-3.3-2.04-6.85-3.33-10.71-3.89-9.1-1.33-18.15-.54-27.2.45-1.87.21-3.28,1.26-4.13,2.92-.58,1.13-1.08,2.31-1.44,3.53-1.41,4.74-2.74,9.5-4.1,14.25-.22.76-.5,1.53-.56,2.31-.1,1.35.46,2.48,1.56,3.3.49.37.95.2,1.18-.24.36-.7.6-1.47.89-2.22.5.02,1,.03,1.5.05-.16.94-.47,1.89-.44,2.82.1,2.76,1.79,5.01,4.22,5.84,2.69.92,5.48.13,7.27-2.2.57-.74.84-1.7,1.25-2.56Z"/>
      <path class="cls-5" d="M425.61,331.29c-9.11,0-18.24-.21-27.34.06-10.27.31-20.35-9.81-20.05-20.24.33-11.5.16-23.02.04-34.54-.06-6.17,2.75-11.03,6.49-15.51,1.9-2.28,4.76-3.28,7.42-4.23,2.35-.84,4.84-1.43,7.47-1.42,17.43.08,34.86,0,52.29.05,9.09.02,15.29,4.8,19.43,12.49,1.43,2.66,1.87,5.79,1.91,8.78.13,11.35.42,22.72-.06,34.05-.41,9.57-5.38,16.97-15.05,19.96-1.59.49-3.13.53-4.72.53-9.27.01-18.55,0-27.82,0ZM445.46,305.38c.25.57.5,1.14.76,1.71,1.95,4.21,8.25,4.75,10.9.88.35-.51.65-1.06.97-1.6l2.18-.31c7.24-1.33,6.27-1.02,6.16-7.99-.06-3.43-1.71-5.73-5.14-6.57-3.56-.88-7.08-1.93-10.68-2.58-5.57-1.01-10.87-2.5-15.25-6.32-.36-.31-.81-.51-1.21-.77-4.21-2.77-8.84-4.44-13.84-4.92-8.46-.81-16.9-.26-25.31.75-1.86.22-3.3,1.21-4.14,2.89-.57,1.13-1.06,2.32-1.43,3.53-1.38,4.58-2.69,9.18-4.04,13.77-.36,1.23-.68,2.48-.49,3.77.23,1.56.89,2.75,2.76,2.65l1.69.26c.15.62.21,1.28.46,1.86,1.42,3.25,4.02,4.68,7.25,4.06,3.13-.6,5.15-3.1,5.16-6.53,0-.78-.29-1.56-.45-2.34l1.48-.04c.14.62.37,1.23.42,1.85.1,1.32.65,2.05,2.06,2.01.95-.03,1.91.02,2.86.03,9.38.08,18.75.17,28.13.22,2.38.01,4.76.35,7.13-.15.54-.04,1.07-.08,1.61-.11Z"/>
      <path class="cls-5" d="M292.12,331.29c-8.95,0-17.9-.05-26.85.02-4.32.04-7.93-1.28-11.5-3.84-4.33-3.1-6.58-7.19-7.92-12.07-.76-2.79-1.06-5.6-1.03-8.5.09-8.15.12-16.31-.01-24.46-.06-3.7.14-7.35,1.07-10.89,1.72-6.52,5.65-11.39,11.86-14.13,3.21-1.42,6.6-2.07,10.22-2.04,16.94.14,33.89.06,50.83.06,10.27,0,18.1,6.58,20.64,15.42.36,1.26.44,2.51.44,3.78,0,12.47.03,24.94-.01,37.41-.02,4.84-1.96,8.92-5.2,12.48-2.65,2.91-5.75,4.95-9.55,6.09-1.74.52-3.43.66-5.18.66-9.27,0-18.54,0-27.81,0ZM256.15,304.44c.28.89.42,1.87.86,2.67,2.42,4.35,7.92,4.77,10.93.84.56-.73.81-1.68,1.21-2.53.58-.05,1.16-.1,1.75-.14,5.4.06,10.8.06,16.19.2,6.66.18,13.33-.42,19.97.54.47.07.95.03,1.43,0,1.62-.09,2.07-.47,2.49-2.25.21-.88-.04-1.97,1.26-2.22.66,1.05-.07,2.16.12,3.25.61,3.5,3.15,5.83,6.46,5.84,3.5,0,6.17-2.55,6.5-6.27.08-.93.02-1.88.03-2.82,1.31.24,1.1,1.32,1.25,2.22.41,2.47.64,2.6,3.09,1.94.46-.12.94-.22,1.39-.38,2.31-.83,2.98-1.95,2.64-4.38-.18-1.26-.43-2.51-.52-3.77-.18-2.71-1.54-4.48-4.09-5.31-1.97-.64-3.94-1.3-5.95-1.77-3.41-.8-6.85-1.5-10.3-2.16-3.89-.74-7.07-2.87-10.21-5.07-6.08-4.26-12.81-6.31-20.23-6.28-6.23.02-12.42.16-18.64.82-3.47.37-5.68,1.7-6.94,4.84-.36.89-.91,1.71-1.17,2.62-1.34,4.76-2.65,9.52-3.88,14.31-.23.89-.17,1.92,0,2.84.26,1.36,1.09,2.29,2.61,2.34.58.03,1.17.06,1.75.09Z"/>
      <path class="cls-8" d="M320.2,48.97c19.19,0,38.39.02,57.58-.02,2.61,0,5.06.28,7.38,1.6,4.09,2.33,6.29,5.83,6.53,10.47.16,3.03.15,6.08,0,9.11-.29,6.36-6.02,12.06-12.4,12.45-.96.06-1.92.02-2.88.02-37.59,0-75.18-.01-112.77.03-2.77,0-5.34-.36-7.87-1.62-4.78-2.38-7.18-6.13-7.19-11.44,0-2.56.13-5.13-.03-7.68-.43-6.81,6.07-13.08,13.09-13,19.51.22,39.03.08,58.54.08h0ZM319.48,79.79c15.51,0,31.03,0,46.54,0,4.32,0,8.64.08,12.95-.03,5.57-.14,9.69-4.15,9.93-9.64.13-3.03.05-6.08.01-9.11-.05-4.37-2.44-7.14-6.27-8.78-2.23-.96-4.59-1.17-7.03-1.17-37.26.04-74.52.02-111.79.03-.96,0-1.93-.05-2.88.06-5.41.58-9.86,5.1-10.19,10.42-.18,2.87-.32,5.79.05,8.62.52,4,2.57,7.16,6.39,8.95,1.83.86,3.76.64,5.66.64,18.87.02,37.74.01,56.61.01Z"/>
      <path class="cls-8" d="M288.61,342.82c7.18,0,14.36,0,21.54,0,1.28,0,2.55,0,3.83.06.64.03,1.33.21,1.4,1,.09,1-.71,1.41-1.48,1.52-1.26.17-2.54.18-3.81.18-11.01.01-22.02,0-33.03,0-3.67,0-7.34,0-11.01,0-.96,0-1.92,0-2.87-.04-.82-.04-1.58-.26-1.87-1.16-.25-.77.57-1.5,1.94-1.52,4.63-.05,9.25-.04,13.88-.04,3.83,0,7.66,0,11.49,0Z"/>
      <path class="cls-8" d="M415.89,345.57c-5.28,0-10.55.02-15.83-.01-1.67-.01-2.66-.73-2.39-1.57.38-1.19,1.41-1.14,2.35-1.14,10.71-.02,21.42-.02,32.14-.01.79,0,1.62-.03,2.27.53.22.19.41.54.41.81,0,.28-.17.64-.39.83-.79.68-1.79.58-2.74.58-5.28,0-10.55,0-15.83,0h0Z"/>
      <path class="cls-8" d="M424.86,353.52c-7.34,0-14.69,0-22.03,0-1.28,0-2.56-.01-3.82-.13-.38-.04-.96-.4-1.03-.7-.17-.77.43-1.1,1.12-1.15.79-.07,1.59-.1,2.39-.1,15.49,0,30.97,0,46.46,0,1.1,0,2.23-.19,3.29.33.35.17.54.4.4.76-.1.26-.29.66-.47.68-1.26.15-2.52.29-3.78.3-7.5.03-15.01.01-22.51.01Z"/>
      <path class="cls-8" d="M291.91,219.89c7.02,0,14.05,0,21.07,0,1.28,0,2.56-.01,3.83.05.6.03,1.32.09,1.45.89.14.92-.63.99-1.22,1.05-.95.1-1.91.09-2.87.09-15.17,0-30.34,0-45.5,0-.96,0-1.92,0-2.87-.09-.59-.06-1.36-.14-1.21-1.06.13-.8.85-.86,1.45-.89,1.27-.07,2.55-.05,3.83-.05,7.34,0,14.69,0,22.03,0Z"/>
      <path class="cls-8" d="M421.5,213.38c-7.66,0-15.32.01-22.98-.01-1.26,0-2.53-.15-3.78-.3-.18-.02-.36-.43-.46-.69-.13-.36.03-.67.41-.75.77-.15,1.55-.33,2.32-.33,16.12-.02,32.23-.02,48.35,0,1.78,0,2.95.63,2.59,1.27-.59,1.04-1.62.8-2.51.8-7.98.03-15.96.02-23.93.02h0Z"/>
      <path class="cls-8" d="M459.32,54.8c3.18,0,6.36-.01,9.54,0,.79,0,1.6.03,2.35.24.38.1.76.59.93.99.27.63,0,1.25-.51,1.69-.9.8-2.03.81-3.15.81-4.93,0-9.86,0-14.79,0-1.59,0-3.18.02-4.77-.02-.63-.02-1.28-.09-1.86-.3-.78-.27-1.39-.81-1.29-1.75.07-.69.58-1.19,1.19-1.34.92-.21,1.88-.3,2.82-.31,3.18-.04,6.36-.01,9.54-.01Z"/>
      <path class="cls-8" d="M458.49,76.1c-3.5,0-7,.04-10.5-.01-1.66-.02-2.53-.75-2.28-1.72.3-1.16,1.25-1.33,2.23-1.33,7.32-.01,14.63-.03,21.95,0,1.6,0,2.49.76,2.27,1.73-.27,1.2-1.26,1.31-2.22,1.32-3.82.02-7.63,0-11.45.01Z"/>
      <path class="cls-8" d="M459.4,64.23c3.5,0,7-.02,10.5,0,.95,0,1.95.09,2.25,1.28.24.96-.65,1.76-2.23,1.76-7.32.03-14.63.03-21.95,0-1.59,0-2.49-.78-2.26-1.74.28-1.19,1.27-1.3,2.23-1.31,3.82-.02,7.63,0,11.45-.01Z"/>
      <path class="cls-8" d="M283.42,211.28c5.1,0,10.19-.02,15.29.02.93,0,1.86.2,2.79.36.37.06.53.39.39.75-.1.26-.27.54-.49.68-.25.16-.59.23-.9.24-.79.04-1.59.05-2.39.05-9.87,0-19.75,0-29.62,0-.95,0-1.91-.05-2.86-.11-.49-.03-.97-.24-1.03-.74-.11-.8.48-1.14,1.15-1.15,3.5-.06,7-.08,10.51-.1,2.39-.01,4.78,0,7.17,0Z"/>
      <path class="cls-8" d="M296.22,353.51c-5.25,0-10.51,0-15.76,0-.78,0-1.61.09-2.28-.46-.1-.08-.23-.25-.21-.35.05-.28.1-.68.29-.8.39-.23.87-.43,1.32-.43,11.3-.03,22.61-.03,33.91,0,.58,0,1.19.34,1.73.61.11.05.1.67-.05.84-.59.64-1.43.58-2.22.59-5.57,0-11.14,0-16.72,0Z"/>
      <path class="cls-8" d="M430.11,219.89c5.09,0,10.19,0,15.28,0,.78,0,1.63-.13,2.27.46.19.17.23.53.27.81.02.1-.11.31-.21.34-.6.17-1.2.44-1.81.44-10.82.03-21.64.03-32.47,0-.61,0-1.23-.21-1.81-.43-.16-.06-.21-.5-.25-.78-.02-.11.1-.28.21-.36.83-.64,1.82-.47,2.75-.47,5.25-.02,10.5,0,15.76,0Z"/>
      <path class="cls-7" d="M159.51,532.11c-.25-3.66-.51-7.31-.76-10.97,3.23,1.65,6.6,1.18,9.98.67.09,2.95.18,5.91.27,8.87-3.25-.06-6.29,1.22-9.49,1.44Z"/>
      <path class="cls-14" d="M646.03,468.95c-.11-9.45,1.41-17.53,5.11-25.15,1.19-2.45,2.64-4.75,4.47-6.78.85-.94,1.76-1.85,2.76-2.64,6.19-4.91,13.29-4.7,19.17.52,3.66,3.25,6.1,7.33,7.94,11.82,1.96,4.77,3.11,9.75,3.59,14.84.79,8.34.11,16.58-2.57,24.59-1.33,3.96-3.08,7.72-5.65,11.03-1.07,1.38-2.24,2.72-3.57,3.86-5.94,5.08-13.18,5.08-19.18.1-2.36-1.96-4.22-4.35-5.76-6.99-2.6-4.46-4.19-9.29-5.25-14.32-.82-3.92-1.19-7.89-1.07-10.87Z"/>
      <path class="cls-5" d="M330.67,447.56c.7.58,1.21.96,1.66,1.39,4.7,4.48,3.93,11.23-1.64,14.54-1.54.91-3.21,1.46-5,1.51-3.51.09-7.03.16-10.54.13-1.69-.02-2.13-.55-2.14-2.46-.03-9.27-.03-18.54,0-27.81,0-2.13.44-2.56,2.52-2.6,2.88-.06,5.75-.01,8.63,0,1.63,0,3.18.41,4.65,1.03,4.36,1.86,6.15,6.46,4.17,10.75-.52,1.13-1.37,2.11-2.33,3.54ZM317.94,455.21s.04,0,.06,0c0,1.43-.02,2.85,0,4.28.02.96.65,1.42,1.53,1.43,1.74.03,3.49,0,5.23-.03,1.13-.02,2.17-.4,3.15-.97,1.84-1.08,2.54-2.72,2.42-4.8-.11-1.98-1.23-3.16-2.94-3.95-1.48-.68-3.04-.88-4.63-.87-5.01,0-4.84-.42-4.82,4.44,0,.16,0,.32,0,.48ZM322.62,436.55q-4.63-.06-4.67,3.97c0,1.11-.03,2.23.01,3.34.07,1.84.49,2.28,2.21,2.33,2.25.06,4.46-.17,6.41-1.41,1.67-1.06,2.36-2.93,1.91-4.99-.39-1.78-1.65-2.66-3.33-2.96-1.09-.2-2.21-.24-2.54-.28Z"/>
      <path class="cls-5" d="M341.73,444.16c0-3.04-.03-6.08.01-9.12.03-2.24.5-2.76,2.3-2.8,2.07-.05,2.58.47,2.6,3,.04,5.12,0,10.24.02,15.35,0,1.28-.03,2.57.16,3.83.96,6.13,8,9.19,13.28,5.82,1.4-.9,2.34-2.15,2.8-3.76.54-1.86.7-3.76.69-5.69-.03-5.28.04-10.56-.02-15.83-.03-2.7,1.17-2.87,3.35-2.66.86.08,1.45.65,1.54,1.55.08.79.09,1.59.09,2.39,0,5.12-.01,10.24.01,15.36,0,1.77-.23,3.5-.64,5.22-1.08,4.49-3.86,7.2-8.31,8.34-2.85.73-5.72.78-8.56.24-5.6-1.07-8.83-4.74-9.22-10.69-.23-3.5-.04-7.03-.04-10.55-.02,0-.05,0-.07,0Z"/>
      <path class="cls-5" d="M387.26,446.92c.94-1.54,1.78-2.86,2.58-4.22,1.69-2.89,3.38-5.77,5.01-8.69.81-1.45,2-1.9,3.58-1.79,1.74.11,2.37.99,1.51,2.47-2.8,4.82-5.56,9.67-8.53,14.38-1.51,2.39-2.31,4.81-2.13,7.64.14,2.22.03,4.46-.03,6.69-.03,1.16-.78,1.65-1.86,1.74-2.37.2-3.07-.45-3.16-2.92-.01-.32-.04-.64,0-.96.93-6.35-1.17-11.82-4.63-17.02-2.11-3.17-3.78-6.64-5.6-10-.52-.96.08-1.86,1.21-1.98,1.86-.2,3.39.09,4.38,2.02,1.66,3.26,3.51,6.43,5.3,9.62.53.95.84,2.06,2.37,3.02Z"/>
      <path class="cls-3" d="M387.78,172.8c-1.77-.09-2.56-1.22-2.67-2.8-.06-.93.12-1.91.37-2.82,1.45-5.23,2.91-10.46,4.46-15.66,1-3.37,3.08-5.2,6.86-5.61,5.74-.61,11.46-.76,17.22-.88,8.61-.18,16.47,1.98,23.36,7.19,3.28,2.48,6.87,3.85,10.9,4.54,4.08.7,8.09,1.83,12.12,2.84,1.07.27,2.1.76,3.12,1.2,1.78.77,2.78,2.23,2.94,4.08.19,2.22.13,4.47.1,6.71-.02,1.1-.8,1.76-1.77,2.01-1.37.34-2.74.84-4.19.63-.96-1.13-.43-2.49-.7-3.72-1.15-5.33-6.87-7.93-11.56-5.24-.74.42-1.18,1.05-.89,1.98l.04-.09c-.78-.11-1.08.25-1,1l.04-.04c-.77-.1-.99.36-1,1.01l.11-.04c-1.55.69-1,2.16-1.24,3.34-.27,1.4-.85,1.93-2.21,2.05-.48.04-.96.09-1.44.04-8.93-1.02-17.9-.33-26.84-.6-3.2-.09-6.4-.09-9.6-.14-.04-1.9-.43-3.68-1.26-5.44-2.42-5.17-9.13-5.05-12.08-2.53-1,.86-1.68,1.88-1.1,3.3v-.02c-2.17.41-1.81,2.24-2.09,3.72ZM431.43,159.46c1.66,0,3.41.04,5.16-.02.99-.03,1.63-1.26,1.08-2.1-.51-.79-1.07-1.6-1.79-2.18-3.25-2.58-6.75-4.75-10.64-6.27-2.75-1.08-5.59-1.12-8.46-1.04-1.52.05-2.09.61-1.93,2.03.24,2.21.64,4.4.94,6.6.18,1.34.97,1.87,2.25,1.96,4.44.32,8.87.67,13.4,1.02ZM404.65,147.77c0,.05,0,.11,0,.16-1.43,0-2.87,0-4.3,0-.32,0-.64-.01-.95.05-1.09.21-2.23.29-3.23.7-2.05.84-2.41,3.67-.71,5.13.47.41,1.07.69,1.59,1.04,2.62,1.73,5.69,2.05,8.66,2.41,2.27.27,4.69,1.15,6.94-.28.7-2.36.15-4.73-.09-7.07-.15-1.52-.92-2.07-2.65-2.13-1.75-.06-3.5-.01-5.26-.01Z"/>
      <path class="cls-6" d="M447.44,167.25c1.06-.3,2.1-.69,3.18-.9,3.7-.72,7.16,1.74,7.65,5.4.51,3.76-2.1,7.07-5.81,7.35-3.71.28-6.78-2.54-7-6.3-.08-1.26.81-2.46.17-3.73,0,0-.11.04-.11.04,1.03.36,1.06-.29,1-1.01l-.04.04c.76.09,1.09-.24,1-1l-.04.09ZM455.75,172.53c-.11-2.13-2.02-3.74-4.2-3.55-2.01.18-3.39,1.78-3.31,3.87.07,1.97,1.72,3.63,3.62,3.65,2,.02,3.99-2.01,3.88-3.98Z"/>
      <path class="cls-13" d="M402.34,173.86c-.42.84-.72,1.77-1.28,2.5-3.1,4.1-8.88,3.5-11.12-1.14-.33-.69-.43-1.5-.64-2.25.34-1.27.74-2.53.58-3.88,0,0,0,.02,0,.02,1.21-.12,1.69-1.3,2.64-1.82,3.65-2,7.78-.57,9.26,3.36.38,1,.39,2.15.57,3.22ZM395.6,176.53c1.87.14,3.74-1.47,3.93-3.38.23-2.31-1.27-4.1-3.52-4.2-2-.08-3.76,1.36-4.02,3.31-.26,1.98,1.54,4.12,3.6,4.27Z"/>
      <path class="cls-1" d="M402.34,173.86c-.18-1.08-.19-2.22-.57-3.22-1.48-3.93-5.61-5.35-9.26-3.36-.95.52-1.43,1.7-2.64,1.82-.58-1.41.1-2.44,1.1-3.3,2.95-2.52,9.67-2.64,12.08,2.53.82,1.76,1.22,3.54,1.26,5.44-.65.03-1.31.06-1.97.08Z"/>
      <path class="cls-1" d="M389.88,169.08c.17,1.35-.24,2.61-.58,3.88-.51-.05-1.01-.1-1.52-.16.27-1.48-.08-3.32,2.1-3.72Z"/>
      <path class="cls-6" d="M255.4,170c-.29.74-.52,1.51-.89,2.22-.23.45-.69.61-1.18.24-1.1-.83-1.66-1.95-1.56-3.3.06-.78.34-1.55.56-2.31,1.35-4.75,2.69-9.51,4.1-14.25.36-1.21.86-2.4,1.44-3.53.85-1.66,2.27-2.71,4.13-2.92,9.05-1,18.1-1.78,27.2-.45,3.86.56,7.41,1.86,10.71,3.89,1.76,1.09,3.6,2.1,5.23,3.36,2.61,2.01,5.56,2.99,8.74,3.63,4.22.85,8.41,1.85,12.59,2.85,1.23.3,2.44.75,3.62,1.23,1.77.72,2.79,2.1,3.05,3.97.15,1.1.18,2.22.22,3.34.18,5.76.09,5.86-6.08,6.16-.87-1.25-.15-2.84-.86-4.13-.02-2.17-1.52-3.4-3-4.59-1.28-1.03-2.83-1.36-4.47-1.35-3.46.03-6.43,2.15-7.62,5.44-.5,1.39-.47,2.8-.29,4.23-1.04.54-2.17.47-3.28.46-11.79-.11-23.59-.23-35.38-.35-.48,0-.95-.09-1.43-.13-.08-1.1-.02-2.24-.27-3.31-.82-3.6-3.84-6.13-7.38-6.32-1.79-.09-3.51.2-4.93,1.34-1.48,1.18-2.96,2.42-2.99,4.58ZM281.74,148.14c.32,2.56.54,4.91.92,7.24.44,2.71.67,2.86,3.29,3.07,2.86.23,5.71.52,8.57.68,3.18.17,6.37.25,9.55.31.78.01,1.35-1.12.91-1.79-.52-.79-1.04-1.64-1.77-2.22-3.12-2.48-6.41-4.74-10.13-6.26-3.62-1.48-7.35-1.71-11.35-1.04ZM277.02,157.75c3.37.05,3.46-.06,3-3.56-.2-1.57-.44-3.14-.6-4.72-.11-1.15-.73-1.75-1.83-1.73-4.12.1-8.24.23-12.36.4-.62.02-1.25.23-1.83.46-2.5.97-2.97,3.63-.86,5.22,1.78,1.34,3.79,2.34,6.01,2.71,2.81.48,5.64.82,8.46,1.22Z"/>
      <path class="cls-6" d="M324.93,170.04c.17.92.51,1.85.48,2.77-.1,2.77-1.47,4.82-4.05,5.82-2.56,1-4.98.56-6.96-1.43-.65-.65-1.06-1.55-1.58-2.33,0-.94-.07-1.9.04-2.83.58-5.03,5.72-7.34,9.81-4.38.87.63,1.52,1.57,2.27,2.37ZM318.93,168.98c-1.96,0-3.68,1.57-3.79,3.49-.12,1.99,1.81,4.03,3.83,4.03,1.9,0,3.6-1.64,3.7-3.58.12-2.25-1.49-3.95-3.73-3.95Z"/>
      <path class="cls-13" d="M269.2,173.94c-.41.86-.68,1.83-1.25,2.56-1.79,2.33-4.59,3.12-7.27,2.2-2.43-.83-4.12-3.07-4.22-5.84-.03-.93.28-1.88.44-2.82.63-.7,1.18-1.49,1.9-2.07,4-3.21,8.98-1.41,10.11,3.63.17.76.19,1.55.28,2.33ZM263.05,168.95c-2.11-.1-3.73,1.28-3.92,3.32-.2,2.19,1.44,4.17,3.54,4.27,2.01.1,4.05-1.88,4.02-3.9-.03-1.95-1.66-3.6-3.65-3.69Z"/>
      <path class="cls-8" d="M324.93,170.04c-.75-.8-1.4-1.74-2.27-2.37-4.09-2.96-9.22-.65-9.81,4.38-.11.93-.03,1.88-.04,2.83-.75-.11-1.45-.31-1.75-1.12-.18-1.43-.21-2.84.29-4.23,1.19-3.29,4.16-5.41,7.62-5.44,1.64-.01,3.19.32,4.47,1.35,1.47,1.19,2.98,2.42,3,4.59-.5,0-1,.02-1.5.03Z"/>
      <path class="cls-8" d="M269.2,173.94c-.09-.78-.11-1.57-.28-2.33-1.13-5.04-6.12-6.84-10.11-3.63-.72.58-1.27,1.37-1.9,2.07-.5-.02-1-.03-1.5-.05.03-2.16,1.51-3.4,2.99-4.58,1.43-1.13,3.14-1.43,4.93-1.34,3.54.18,6.57,2.72,7.38,6.32.24,1.07.19,2.2.27,3.31-.59.07-1.18.15-1.77.22Z"/>
      <path class="cls-6" d="M443.85,305.49c-2.37.5-4.75.17-7.13.15-9.38-.05-18.75-.14-28.13-.22-.95,0-1.91-.06-2.86-.03-1.41.05-1.97-.69-2.06-2.01-.05-.62-.27-1.24-.42-1.85.04-1.98-1.32-3.14-2.61-4.28-1.22-1.08-2.7-1.58-4.35-1.64-3.55-.13-6.43,1.67-7.92,4.95-.54,1.19-.62,2.44-.71,3.7-1.87.1-2.52-1.09-2.76-2.65-.19-1.29.12-2.53.49-3.77,1.35-4.59,2.66-9.19,4.04-13.77.37-1.21.86-2.4,1.43-3.53.84-1.68,2.28-2.66,4.14-2.89,8.41-1.01,16.85-1.57,25.31-.75,5.01.48,9.63,2.15,13.84,4.92.4.26.85.46,1.21.77,4.38,3.82,9.68,5.31,15.25,6.32,3.6.65,7.12,1.7,10.68,2.58,3.43.85,5.08,3.14,5.14,6.57.11,6.97,1.08,6.66-6.16,7.99-.15-1.42-.18-2.88-.49-4.26-.77-3.4-3.72-5.9-7.08-6.17-3.53-.28-6.67,1.53-8.1,4.74-.73,1.62-1.08,3.33-.75,5.13ZM433.33,291.03c.32,0,1.76.04,3.2-.01,1.3-.04,1.89-1.31,1.11-2.4-.46-.64-.97-1.29-1.59-1.77-3.15-2.47-6.47-4.68-10.2-6.23-3.19-1.33-6.54-1.4-9.91-1.22-.73.04-1.19.51-1.11,1.24.26,2.22.56,4.44.89,6.65.35,2.34.47,2.47,2.6,2.64,4.62.37,9.25.68,15,1.1ZM405.37,279.23c-3.41.26-6.15,0-8.78.78-1.13.33-1.97,1.05-2.21,2.27-.27,1.39.2,2.51,1.39,3.27,1.75,1.12,3.57,2.17,5.64,2.48,3.14.47,6.31.78,9.47,1.15,1.63.19,2.34-.32,2.13-2.15-.21-1.9-.28-3.81-.54-5.7-.23-1.67-.73-2.04-2.58-2.09-1.75-.05-3.5,0-4.53,0Z"/>
      <path class="cls-13" d="M401.77,301.57c.16.78.45,1.56.45,2.34,0,3.43-2.03,5.93-5.16,6.53-3.24.62-5.83-.82-7.25-4.06-.25-.58-.31-1.24-.46-1.86.15-.61.25-1.24.45-1.83,1.74-5.02,6.46-6.34,10.4-2.88.59.51,1.04,1.17,1.56,1.76ZM399.54,304.29c.03-2.11-1.38-3.7-3.42-3.83-2.2-.14-4.12,1.55-4.15,3.67-.03,2.03,1.99,4.02,4,3.93,1.93-.08,3.54-1.78,3.57-3.77Z"/>
      <path class="cls-13" d="M458.09,306.37c-.32.53-.62,1.08-.97,1.6-2.65,3.87-8.95,3.33-10.9-.88-.26-.57-.51-1.14-.76-1.71.26-1.24.19-2.53.79-3.73,1.29-2.56,4.06-4.15,6.64-3.69,2.81.49,4.78,2.57,5.15,5.54.12.94.04,1.91.06,2.87ZM455.78,304.17c0-2.11-1.92-3.85-4.11-3.72-2.04.11-3.49,1.69-3.47,3.79.01,1.98,1.61,3.71,3.53,3.82,1.99.12,4.05-1.86,4.05-3.88Z"/>
      <path class="cls-8" d="M458.09,306.37c-.01-.96.06-1.93-.06-2.87-.36-2.96-2.34-5.04-5.15-5.54-2.59-.45-5.36,1.13-6.64,3.69-.6,1.19-.53,2.48-.79,3.73-.54.04-1.07.08-1.61.11-.33-1.79.03-3.5.75-5.13,1.43-3.21,4.57-5.02,8.1-4.74,3.36.27,6.31,2.77,7.08,6.17.31,1.39.34,2.84.49,4.26-.73.1-1.46.21-2.18.31Z"/>
      <path class="cls-8" d="M401.77,301.57c-.52-.59-.97-1.25-1.56-1.76-3.95-3.45-8.66-2.14-10.4,2.88-.2.59-.3,1.22-.45,1.83-.56-.09-1.13-.17-1.69-.26.09-1.26.17-2.51.71-3.7,1.48-3.28,4.36-5.08,7.92-4.95,1.65.06,3.12.56,4.35,1.64,1.3,1.15,2.66,2.3,2.61,4.28-.49.01-.98.03-1.48.04Z"/>
      <path class="cls-3" d="M254.4,304.36c-1.52-.05-2.35-.97-2.61-2.34-.17-.92-.23-1.95,0-2.84,1.23-4.79,2.54-9.55,3.88-14.31.26-.91.81-1.73,1.17-2.62,1.26-3.14,3.47-4.47,6.94-4.84,6.21-.67,12.41-.8,18.64-.82,7.42-.03,14.16,2.03,20.23,6.28,3.14,2.2,6.32,4.33,10.21,5.07,3.44.65,6.88,1.36,10.3,2.16,2.01.47,3.98,1.13,5.95,1.77,2.55.83,3.91,2.6,4.09,5.31.08,1.26.34,2.51.52,3.77.34,2.42-.33,3.55-2.64,4.38-.45.16-.92.25-1.39.38-2.45.66-2.68.53-3.09-1.94-.15-.9.06-1.98-1.25-2.22l.1.04c.33-.99.3-1.79-.99-1.95l.04.05c.11-.77-.19-1.13-.99-.99l.02.03c-.05-.45.06-1.1-.19-1.31-2.7-2.32-6.34-2.32-9.07,0-.26.22-.17.86-.25,1.31l.03-.03c-.78-.12-1.07.26-.99.99l.04-.05c-1.23.2-1.28.99-.99,1.96l.12-.04c-1.29.25-1.05,1.34-1.26,2.22-.42,1.78-.87,2.16-2.49,2.25-.47.03-.96.06-1.43,0-6.64-.95-13.31-.36-19.97-.54-5.39-.14-10.79-.14-16.19-.2-.05-.94-.03-1.89-.17-2.81-.67-4.29-4.54-8.02-10.54-6.45-1.19.31-2.36,1.02-1.84,2.69h0c-1.08-.53-1.8.06-2.35.85-1,1.43-1.52,3.05-1.59,4.8ZM298.31,290.98c1.98,0,3.73.05,5.47-.02,1.06-.04,1.5-1.19.86-2.12-.27-.39-.53-.81-.87-1.13-3.89-3.64-8.27-6.47-13.43-7.92-2.48-.7-5.05-.52-7.59-.34-.71.05-1.21.57-1.13,1.26.26,2.37.56,4.73.95,7.08.25,1.54.88,2.02,2.66,2.17,4.43.37,8.87.69,13.08,1.02ZM271.71,279.31v.22c-2.07,0-4.14-.01-6.22,0-1.14.01-2.19.33-3.11,1.06-1.54,1.21-1.67,3.28-.24,4.55,1.46,1.3,3.21,2.16,5.06,2.61,3.56.86,7.19,1.44,10.87,1.42.32,0,.64-.04.95-.1.72-.15,1.14-.67,1.07-1.34-.21-2.22-.51-4.43-.77-6.64-.13-1.13-.8-1.73-1.88-1.76-1.91-.05-3.83-.01-5.74-.01Z"/>
      <path class="cls-6" d="M325.34,301.54c0,.94.06,1.89-.03,2.82-.33,3.73-3,6.28-6.5,6.27-3.31,0-5.85-2.34-6.46-5.84-.19-1.09.53-2.19-.12-3.25,0,0-.12.04-.12.04,1.14-.24,1.52-.87.99-1.96,0,0-.04.05-.04.05.95.29,1.25-.07.99-.99,0,0-.03.03-.03.03.45-.01.97.13,1.33-.06,2.28-1.2,4.53-1.25,6.83-.06.37.19.9.08,1.35.11,0,0-.02-.03-.02-.03-.21.87.12,1.2.99.99,0,0-.04-.05-.04-.05-.38,1.01-.07,1.67.99,1.95l-.1-.04ZM318.8,300.49c-1.98,0-3.65,1.56-3.77,3.5-.12,2.04,1.78,4.04,3.81,4.02,1.93-.03,3.62-1.64,3.74-3.58.13-2.18-1.57-3.95-3.77-3.94Z"/>
      <path class="cls-6" d="M269.15,305.42c-.4.85-.66,1.8-1.21,2.53-3,3.93-8.51,3.51-10.93-.84-.45-.8-.58-1.77-.86-2.67.04-2.18,1.63-3.76,2.19-5.74h0c1.02.24,1.83-.4,2.71-.68,3.09-1,7.34,1.25,7.84,5.02.1.79.17,1.58.25,2.37ZM262.7,300.48c-2.09.01-3.56,1.43-3.65,3.52-.09,2.19,1.64,4.06,3.72,4.01,1.86-.04,3.63-1.75,3.74-3.61.13-2.13-1.63-3.94-3.81-3.92Z"/>
      <path class="cls-1" d="M269.15,305.42c-.08-.79-.14-1.58-.25-2.37-.5-3.77-4.75-6.02-7.84-5.02-.89.29-1.69.92-2.71.68-.52-1.67.65-2.38,1.84-2.69,5.99-1.56,9.87,2.16,10.54,6.45.14.92.12,1.87.17,2.81-.58.05-1.16.1-1.75.14Z"/>
      <path class="cls-1" d="M258.34,298.71c-.57,1.97-2.15,3.56-2.19,5.74-.58-.03-1.17-.06-1.75-.09.07-1.75.59-3.37,1.59-4.8.55-.79,1.27-1.38,2.35-.85Z"/>
      <path class="cls-9" d="M319.48,79.79c-18.87,0-37.74,0-56.61-.01-1.9,0-3.83.22-5.66-.64-3.82-1.79-5.88-4.95-6.39-8.95-.37-2.83-.23-5.76-.05-8.62.33-5.32,4.78-9.84,10.19-10.42.95-.1,1.92-.06,2.88-.06,37.26,0,74.52,0,111.79-.03,2.44,0,4.8.21,7.03,1.17,3.83,1.65,6.22,4.42,6.27,8.78.04,3.04.12,6.08-.01,9.11-.24,5.49-4.36,9.5-9.93,9.64-4.32.11-8.64.03-12.95.03-15.51,0-31.03,0-46.54,0ZM273.23,54.86c-6.52.09-10.54,4.1-10.49,9.18.01,1.25.25,2.56.71,3.72.63,1.57.31,2.72-.84,3.85-.9.89-1.76,1.83-2.53,2.84-.21.27-.15.95.04,1.29.39.7,1.1.63,1.63.19.98-.81,1.91-1.67,2.78-2.6,1.1-1.16,2.25-1.7,3.8-.87.55.29,1.19.44,1.81.58,3.84.83,6.92-.5,9.2-3.56,2.18-2.92,2.5-6.17.87-9.44-1.71-3.44-4.57-5.17-6.99-5.16Z"/>
      <path class="cls-14" d="M317.94,455.21c0-.16,0-.32,0-.48-.02-4.86-.19-4.43,4.82-4.44,1.6,0,3.16.2,4.63.87,1.71.79,2.83,1.97,2.94,3.95.11,2.08-.58,3.72-2.42,4.8-.97.57-2.01.95-3.15.97-1.74.04-3.49.06-5.23.03-.88-.02-1.51-.47-1.53-1.43-.03-1.43,0-2.85,0-4.28-.02,0-.04,0-.06,0Z"/>
      <path class="cls-14" d="M322.62,436.55c.34.03,1.45.08,2.54.28,1.68.3,2.94,1.17,3.33,2.96.45,2.07-.24,3.93-1.91,4.99-1.95,1.24-4.16,1.47-6.41,1.41-1.71-.05-2.14-.49-2.21-2.33-.04-1.11-.02-2.22-.01-3.34q.04-4.03,4.67-3.97Z"/>
      <path class="cls-2" d="M431.43,159.46c-4.53-.35-8.96-.7-13.4-1.02-1.28-.09-2.07-.62-2.25-1.96-.3-2.2-.69-4.39-.94-6.6-.16-1.43.41-1.99,1.93-2.03,2.87-.09,5.71-.04,8.46,1.04,3.89,1.53,7.39,3.69,10.64,6.27.72.57,1.29,1.39,1.79,2.18.55.85-.09,2.07-1.08,2.1-1.75.06-3.5.02-5.16.02Z"/>
      <path class="cls-2" d="M404.65,147.77c1.75,0,3.51-.05,5.26.01,1.73.06,2.49.61,2.65,2.13.24,2.35.79,4.71.09,7.07-2.25,1.43-4.67.55-6.94.28-2.97-.35-6.04-.68-8.66-2.41-.53-.35-1.12-.63-1.59-1.04-1.69-1.46-1.34-4.29.71-5.13,1.01-.41,2.15-.5,3.23-.7.31-.06.64-.05.95-.05,1.43,0,2.87,0,4.3,0,0-.05,0-.11,0-.16Z"/>
      <path class="cls-5" d="M446.52,168.11c.05.72.02,1.36-1,1.01.02-.65.24-1.1,1-1.01Z"/>
      <path class="cls-5" d="M447.48,167.16c.09.76-.24,1.09-1,1-.08-.74.22-1.11,1-1Z"/>
      <path class="cls-5" d="M455.75,172.53c.11,1.96-1.88,4-3.88,3.98-1.9-.02-3.55-1.68-3.62-3.65-.08-2.09,1.3-3.69,3.31-3.87,2.18-.19,4.09,1.41,4.2,3.55Z"/>
      <path class="cls-5" d="M395.6,176.53c-2.06-.16-3.86-2.29-3.6-4.27.26-1.95,2.01-3.39,4.02-3.31,2.25.09,3.75,1.89,3.52,4.2-.19,1.92-2.06,3.53-3.93,3.38Z"/>
      <path class="cls-10" d="M281.74,148.14c4-.66,7.73-.44,11.35,1.04,3.72,1.52,7.01,3.78,10.13,6.26.72.57,1.25,1.43,1.77,2.22.44.67-.13,1.8-.91,1.79-3.18-.06-6.37-.14-9.55-.31-2.86-.16-5.72-.45-8.57-.68-2.61-.21-2.85-.37-3.29-3.07-.38-2.33-.6-4.69-.92-7.24Z"/>
      <path class="cls-10" d="M277.02,157.75c-2.82-.4-5.66-.74-8.46-1.22-2.22-.38-4.23-1.37-6.01-2.71-2.11-1.59-1.64-4.25.86-5.22.58-.23,1.22-.43,1.83-.46,4.12-.17,8.24-.3,12.36-.4,1.1-.03,1.72.58,1.83,1.73.16,1.58.39,3.14.6,4.72.46,3.51.37,3.61-3,3.56Z"/>
      <path class="cls-5" d="M318.93,168.98c2.24,0,3.85,1.7,3.73,3.95-.1,1.94-1.8,3.59-3.7,3.58-2.02,0-3.95-2.04-3.83-4.03.12-1.92,1.83-3.49,3.79-3.49Z"/>
      <path class="cls-5" d="M263.05,168.95c1.99.09,3.62,1.74,3.65,3.69.03,2.02-2.01,4-4.02,3.9-2.1-.1-3.74-2.08-3.54-4.27.19-2.04,1.81-3.41,3.92-3.32Z"/>
      <path class="cls-10" d="M433.33,291.03c-5.75-.42-10.38-.73-15-1.1-2.14-.17-2.25-.31-2.6-2.64-.33-2.21-.63-4.43-.89-6.65-.08-.73.38-1.2,1.11-1.24,3.37-.18,6.71-.1,9.91,1.22,3.73,1.55,7.05,3.76,10.2,6.23.62.48,1.13,1.13,1.59,1.77.78,1.09.19,2.36-1.11,2.4-1.44.05-2.88.01-3.2.01Z"/>
      <path class="cls-10" d="M405.37,279.23c1.03,0,2.78-.04,4.53,0,1.85.05,2.35.42,2.58,2.09.26,1.89.32,3.8.54,5.7.2,1.84-.5,2.34-2.13,2.15-3.16-.37-6.32-.68-9.47-1.15-2.07-.31-3.89-1.36-5.64-2.48-1.19-.76-1.67-1.88-1.39-3.27.24-1.22,1.08-1.93,2.21-2.27,2.63-.78,5.37-.52,8.78-.78Z"/>
      <path class="cls-5" d="M399.54,304.29c-.03,1.99-1.64,3.68-3.57,3.77-2,.09-4.03-1.9-4-3.93.03-2.12,1.95-3.81,4.15-3.67,2.03.13,3.45,1.73,3.42,3.83Z"/>
      <path class="cls-5" d="M455.78,304.17c0,2.02-2.05,4-4.05,3.88-1.92-.11-3.52-1.83-3.53-3.82-.02-2.09,1.43-3.67,3.47-3.79,2.19-.12,4.1,1.61,4.11,3.72Z"/>
      <path class="cls-2" d="M298.31,290.98c-4.21-.33-8.65-.65-13.08-1.02-1.78-.15-2.4-.63-2.66-2.17-.38-2.35-.69-4.71-.95-7.08-.07-.69.42-1.21,1.13-1.26,2.54-.18,5.11-.36,7.59.34,5.16,1.45,9.55,4.28,13.43,7.92.34.32.6.74.87,1.13.64.93.2,2.08-.86,2.12-1.75.06-3.5.02-5.47.02Z"/>
      <path class="cls-2" d="M271.71,279.31c1.91,0,3.83-.04,5.74.01,1.09.03,1.75.63,1.88,1.76.26,2.21.56,4.42.77,6.64.06.68-.36,1.19-1.07,1.34-.31.07-.63.1-.95.1-3.69.02-7.31-.55-10.87-1.42-1.85-.45-3.6-1.31-5.06-2.61-1.43-1.27-1.3-3.34.24-4.55.92-.72,1.96-1.05,3.11-1.06,2.07-.02,4.14,0,6.22,0v-.22Z"/>
      <path class="cls-5" d="M323.52,298.72c-.45-.03-.98.08-1.35-.11-2.3-1.2-4.55-1.14-6.83.06-.36.19-.88.04-1.33.06.07-.45-.02-1.09.25-1.31,2.73-2.33,6.38-2.33,9.07,0,.25.22.13.86.19,1.31Z"/>
      <path class="cls-5" d="M313.09,299.63c.53,1.09.15,1.72-.99,1.96-.29-.97-.24-1.76.99-1.96Z"/>
      <path class="cls-5" d="M325.44,301.58c-1.06-.28-1.37-.94-.99-1.95,1.29.16,1.32.97.99,1.95Z"/>
      <path class="cls-5" d="M314.04,298.69c.25.92-.05,1.28-.99.99-.07-.74.22-1.11.99-.99Z"/>
      <path class="cls-5" d="M324.49,299.68c-.87.21-1.2-.12-.99-.99.8-.14,1.1.22.99.99Z"/>
      <path class="cls-5" d="M318.8,300.49c2.2,0,3.9,1.77,3.77,3.94-.11,1.93-1.8,3.55-3.74,3.58-2.03.03-3.93-1.98-3.81-4.02.11-1.94,1.79-3.5,3.77-3.5Z"/>
      <path class="cls-5" d="M262.7,300.48c2.18-.01,3.94,1.8,3.81,3.92-.11,1.86-1.88,3.56-3.74,3.61-2.08.05-3.82-1.82-3.72-4.01.09-2.09,1.56-3.51,3.65-3.52Z"/>
      <path class="cls-16" d="M273.23,54.86c2.42,0,5.28,1.72,6.99,5.16,1.63,3.28,1.31,6.52-.87,9.44-2.28,3.06-5.36,4.39-9.2,3.56-.62-.13-1.26-.28-1.81-.58-1.55-.82-2.7-.29-3.8.87-.87.92-1.81,1.79-2.78,2.6-.53.44-1.24.51-1.63-.19-.19-.35-.25-1.02-.04-1.29.76-1.01,1.63-1.95,2.53-2.84,1.14-1.12,1.47-2.28.84-3.85-.46-1.15-.7-2.47-.71-3.72-.05-5.07,3.97-9.08,10.49-9.18ZM271.86,57.11c-3.78.06-6.95,3.29-6.94,7.08,0,3.73,3.38,7.06,7.06,6.95,3.71-.11,6.89-3.42,6.88-7.16,0-3.9-3.1-6.94-7-6.88Z"/>
      <path class="cls-2" d="M271.86,57.11c3.9-.06,6.99,2.98,7,6.88,0,3.74-3.18,7.05-6.88,7.16-3.67.1-7.06-3.23-7.06-6.95,0-3.8,3.16-7.02,6.94-7.08Z"/>
    </g>
  </g>
</svg>