<svg viewBox="0 0 1200 1000" xmlns="http://www.w3.org/2000/svg"><g fill="#f7f7f7"><path d="m468.5 265.6h256.9l-4.8-9.6c-2.4-4.9-2.4-10.7 0-15.6l4.8-9.6h-256.9l4.8 9.6c2.4 4.9 2.4 10.7 0 15.6z"/><path d="m701.3 683.1c0-11-5.1-21.2-14-27.9-5.1-3.8-7.7-10.1-6.8-16.4 1.6-11-2-21.7-9.8-29.5s-18.5-11.4-29.5-9.8c-6.3.9-12.6-1.7-16.4-6.8-6.7-8.9-16.8-14-27.9-14s-21.2 5.1-27.9 14c-3.8 5.1-10.1 7.7-16.4 6.8-11-1.6-21.7 2-29.5 9.8s-11.4 18.5-9.8 29.5c.9 6.3-1.7 12.6-6.8 16.4-8.9 6.7-14 16.8-14 27.9s5.1 21.2 14 27.9c5.1 3.8 7.7 10.1 6.8 16.4-1.6 11 2 21.7 9.8 29.5s18.5 11.4 29.5 9.8c.8 0 1.7-.2 2.4-.2 5.4 0 10.6 2.5 13.9 7 6.7 8.9 16.8 14 27.9 14s21.2-5.1 27.9-14c3.8-5.1 10.1-7.7 16.4-6.8 11 1.6 21.7-2 29.5-9.8s11.4-18.5 9.8-29.5c-.9-6.3 1.7-12.6 6.8-16.4 8.9-6.7 14-16.8 14-27.9zm-104.3 52.2c-28.8 0-52.2-23.4-52.2-52.2s23.4-52.2 52.2-52.2 52.2 23.4 52.2 52.2-23.4 52.2-52.2 52.2z"/><path d="m547.7 564.4c13-12.9 30.7-20.4 49.2-20.4s36.3 7.5 49.2 20.4h.2c18.4 0 35.8 7.1 49 20.4s20.4 30.8 20.4 49.2c12.9 13 20.4 30.7 20.4 49.2h245.3c7-34 33.8-60.9 67.8-67.8v-421.1c-34.1-7-60.9-33.8-67.9-67.8h-768.8c-7 34-33.8 60.9-67.8 67.8v421c34 7 60.9 33.8 67.8 67.8h245.3c0-18.5 7.5-36.3 20.4-49.2 0-18.4 7.1-35.9 20.4-49.2 13.2-13.2 30.6-20.4 49-20.4h.2zm-122.9-343.2c-2.7-5.4-2.4-11.8.8-16.9s8.8-8.3 14.8-8.3h313.1c6 0 11.7 3.1 14.8 8.3 3.2 5.1 3.5 11.5.8 16.9l-13.5 27 13.5 27c2.7 5.4 2.4 11.8-.8 16.9s-8.8 8.3-14.8 8.3h-313.1c-6 0-11.7-3.1-14.8-8.3-3.2-5.1-3.5-11.5-.8-16.9l13.5-27zm-54 114h452.3c9.6 0 17.4 7.8 17.4 17.4s-7.8 17.4-17.4 17.4h-452.3c-9.6 0-17.4-7.8-17.4-17.4s7.8-17.4 17.4-17.4zm-87 87c0-9.6 7.8-17.4 17.4-17.4h591.5c9.6 0 17.4 7.8 17.4 17.4s-7.8 17.4-17.4 17.4h-591.5c-9.6 0-17.4-7.8-17.4-17.4zm87 87c-9.6 0-17.4-7.8-17.4-17.4s7.8-17.4 17.4-17.4h452.3c9.6 0 17.4 7.8 17.4 17.4s-7.8 17.4-17.4 17.4z"/><path d="m1136.3 22.1h-1078.6c-9.6 0-17.4 7.8-17.4 17.4v730.7c0 9.6 7.8 17.4 17.4 17.4h447.7c-2.4-1.8-4.7-3.8-6.8-6-13.2-13.2-20.4-30.8-20.4-49.2-4.3-4.3-8-9.2-11-14.4h-270.3c-9.6 0-17.4-7.8-17.4-17.4 0-28.8-23.4-52.2-52.2-52.2s-17.4-7.8-17.4-17.4v-452.4c0-9.6 7.8-17.4 17.4-17.4 28.8 0 52.2-23.4 52.2-52.2s7.8-17.4 17.4-17.4h800.3c9.6 0 17.4 7.8 17.4 17.4 0 28.8 23.4 52.2 52.2 52.2s17.4 7.8 17.4 17.4v452.3c0 9.6-7.8 17.4-17.4 17.4-28.8 0-52.2 23.4-52.2 52.2s-7.8 17.4-17.4 17.4h-270.3c-3 5.2-6.7 10.1-11 14.4 0 18.4-7.1 35.9-20.4 49.2-2.2 2.2-4.4 4.1-6.8 6h447.7c9.6 0 17.4-7.8 17.4-17.4v-730.6c0-9.6-7.8-17.4-17.4-17.4z"/><path d="m614.4 683.1c0 23.2-34.8 23.2-34.8 0s34.8-23.2 34.8 0"/><path d="m646.2 801.9c-13 12.9-30.7 20.4-49.2 20.4s-36.3-7.5-49.2-20.4h-.2c-.9 0-1.8 0-2.7 0v142.3c0 7.7 5 14.4 12.4 16.7 7.4 2.2 15.3-.6 19.5-7l20.3-30.5 20.3 30.5c3.3 5 8.8 7.7 14.5 7.7s3.4-.3 5-.7c7.3-2.2 12.4-9 12.4-16.7v-142.3c-.9 0-1.8 0-2.7 0h-.2z"/></g><path d="m5.5 3.7h1199.4v995.9h-1199.4z" fill="none"/></svg>