<?xml version="1.0" encoding="UTF-8"?>
<svg xmlns="http://www.w3.org/2000/svg" viewBox="0 0 323.81 227.08">
  <defs>
    <style>
      .cls-1 {
        fill: #11191c;
      }

      .cls-1, .cls-2, .cls-3, .cls-4, .cls-5, .cls-6, .cls-7, .cls-8, .cls-9, .cls-10, .cls-11, .cls-12, .cls-13, .cls-14, .cls-15, .cls-16, .cls-17, .cls-18, .cls-19, .cls-20 {
        stroke-width: 0px;
      }

      .cls-2 {
        mix-blend-mode: multiply;
      }

      .cls-2, .cls-12 {
        fill: #fcc63d;
      }

      .cls-3 {
        fill: #dfecf3;
      }

      .cls-4 {
        fill: #3c3c84;
      }

      .cls-5 {
        fill: #42417a;
      }

      .cls-6 {
        fill: #987052;
      }

      .cls-7 {
        fill: #e8b134;
      }

      .cls-8 {
        fill: #fcc5c8;
      }

      .cls-9 {
        fill: #151535;
      }

      .cls-10 {
        fill: #2d2d60;
      }

      .cls-11 {
        fill: #fcdde5;
      }

      .cls-13 {
        fill: #21214c;
      }

      .cls-14 {
        fill: #ffeef0;
      }

      .cls-15 {
        opacity: .43;
      }

      .cls-15, .cls-17 {
        fill: #fff;
      }

      .cls-21 {
        isolation: isolate;
      }

      .cls-16 {
        fill: #8a8ac4;
      }

      .cls-18 {
        fill: #f7d486;
      }

      .cls-19 {
        fill: #660606;
      }

      .cls-20 {
        fill: #ffdc8d;
      }
    </style>
  </defs>
  <g class="cls-21">
    <g id="Layer_2" data-name="Layer 2">
      <g id="Layer_1-2" data-name="Layer 1">
        <g>
          <path class="cls-3" d="M265.9,226.53H85.98c-25.35-23.91-41.17-57.81-41.17-95.4C44.81,58.71,103.52,0,175.94,0s131.13,58.71,131.13,131.13c0,37.6-15.83,71.49-41.17,95.4Z"/>
          <g>
            <polygon class="cls-8" points="193.15 147.87 166.28 140.63 152.78 182.85 180.15 188.26 181.11 185.28 193.15 147.87"/>
            <polygon class="cls-17" points="176.62 141 170.27 138.79 155.8 183.37 166.94 185.71 176.62 141"/>
            <polygon class="cls-13" points="178.71 134.86 161.52 185.28 179.86 189.15 193.15 147.87 178.71 134.86"/>
            <g>
              <circle class="cls-12" cx="251.33" cy="103.29" r="48.31" transform="translate(.58 207.97) rotate(-45)"/>
              <circle class="cls-12" cx="251.33" cy="103.29" r="42.78" transform="translate(-20.34 97.79) rotate(-21.18)"/>
              <path class="cls-18" d="M203.59,110.71c1.16,7.41,4.01,14.39,8.26,20.42l81.38-51.9c-3.67-6.39-8.8-11.93-15.03-16.1l-74.6,47.58Z"/>
              <path class="cls-18" d="M203.03,104.73c.03,1.16.12,2.31.23,3.45l72.77-46.41c-.99-.59-1.99-1.15-3.03-1.67l-69.97,44.63Z"/>
              <path class="cls-18" d="M227.79,145.48c.61.34,1.23.67,1.86.99l69.97-44.63c-.02-.7-.06-1.41-.11-2.1l-71.72,45.74Z"/>
              <path class="cls-20" d="M287.4,80.28c-12.7-19.92-39.15-25.77-59.07-13.07-19.92,12.7-25.77,39.15-13.07,59.07,12.7,19.92,39.15,25.77,59.07,13.07,19.92-12.7,25.77-39.15,13.07-59.07ZM216.5,125.5c-12.27-19.23-6.62-44.77,12.61-57.04,19.23-12.27,44.77-6.62,57.04,12.61,12.27,19.23,6.62,44.77-12.61,57.04s-44.77,6.62-57.04-12.61Z"/>
              <path class="cls-2" d="M206.64,84.93l78.33-16.31c-6.21-6.04-14.13-10.49-23.21-12.5-23.3-5.15-46.37,7.46-55.12,28.82Z"/>
            </g>
            <path class="cls-1" d="M84.62,102.8c.42-1.28.11-2.84-.78-3.96-.74-.93-1.81-1.52-2.48-2.5-1.15-1.65-.83-3.81-.55-5.71.39-2.62.61-5.28.67-7.96.06-2.59.09-5.37-.41-7.97-.31-1.61-.93-3.22-2.01-4.48-1.45-1.69-4.02-2.75-5.8-1.44-.77.57-1.56,1.01-2.58.84-.99-.16-2-.66-3-.91-2.08-.52-4.26-.69-6.23-.05-3.81,1.24-6.91,5.28-5.97,9.77.12.57.16,1.22-.2,1.62-.26.29-.67.37-1.01.56-1.79,1.03-.37,3.42.55,4.72.26.37.53.77.59,1.22.15,1.06-.83,1.67-1.57,2.08-3.84,2.16-7.28,6.07-8.52,10.58-.56,2.04-.29,4.25.47,6.32.94,2.56,2.39,5.41,4.61,7.04,1.84,1.35,4.12,1.84,6.25,1.72,2.14-.12,4.16-.81,6.1-1.62,4.07-1.71,7.86-3.99,12.01-5.53,2.88-1.07,8.67-.74,9.85-4.35Z"/>
            <path class="cls-11" d="M76.21,98.19l48.17,3.73,32.37-41.8,8.1,4.1s-17.81,38.59-33.04,55.41l-53.24,6.6-2.37-28.04Z"/>
            <path class="cls-6" d="M76.26,76.8l7.03,7.39-2.36,7.97-4.97.75c-.84.22-1.37,1.05-1.23,1.9l.54,5.99c.26,2.9-3.25,4.54-5.3,2.47l-4.62-5.69s4.41-4.36,2.21-7.86c-.63-1-2.64-.39-1.64-2.9l3.33,1.53s1.39-.32.96-1.15c-.38-.74.17-3.94,1.58-4.45,2.21-.81,4.37-2.6,4.47-5.95Z"/>
            <polygon class="cls-6" points="65.57 226.45 49.94 226.45 65.57 222.53 65.57 226.45"/>
            <path class="cls-5" d="M92.92,181.54s24.48,7.67,34.56,11.55c21.81,8.41,24.06,33.35-6.28,33.31l-51.08.04v-8.59l15.78-34.49,7.02-1.83Z"/>
            <path class="cls-13" d="M119.26,209.73s-25.79,5.9-42.83,10.54c-1.35.37-7.65,1.37-9.93,1.27l8.28-15.35s27.3-1.17,44.49,3.54Z"/>
            <path class="cls-13" d="M121.2,226.41c18.08.02,24.77-8.39,22.21-17.99,0,.02.52,3.68-3.97,7.87-2.89,2.69-9.12,3.02-17.44,3.39-12.67.56-56.44.59-56.44.59v6.18l55.63-.04Z"/>
            <path class="cls-6" d="M82.2,207.48s-2.46,5.87-3.62,9.02l1.62,3.6,8.92,1.44,5.15-4.68.78-.9s-4.32-.68-4.23-3.61l3.53-3.82-12.16-1.05Z"/>
            <path class="cls-19" d="M92.44,215.37c.33-.62,1.09-.88,1.7-.53,3.11,1.77,11.32,6.25,17.38,7.77.38.09.71.29.97.57.07.08.15.17.22.27.9,1.24-.03,2.98-1.59,2.98h-33.8c-1.64,0-2.84-1.48-2.49-3.05.44-1.97,1.37-4.67,3.28-7.45.23-.34.72-.4,1.05-.15,1.16.9,3.89,2.68,7.05,2.47.85-.06,4.8-.21,6.24-2.89Z"/>
            <path class="cls-19" d="M51.28,225.2c-.05.7-.63,1.14-1.34,1.18-3.69.2-11.64.07-19.04.03-.39,0-.77.03-1.12-.13-.1-.04-.21-.1-.31-.16-1.34-.76-1.19-2.73.23-3.37l30.83-13.86c1.49-.67,3.2.19,3.52,1.76.4,1.98.67,4.82.06,8.14-.07.41-.49.66-.9.57-1.42-.34-4.64-.85-7.44.64-.76.4-4.29,2.16-4.5,5.2Z"/>
            <path class="cls-5" d="M82.2,177.42c-2.96-1.85-9.45-20.39-9.45-20.39l-19.03,24.76c-15.14,4.14-33.25-4.74-33.25-4.74,0,0-9.24,42.7,23.66,48.98,0,0,22.67,4.55,36.23-18.09l12.43-27.52.48.08c-5.06-.79-9.02-1.8-11.07-3.08Z"/>
            <path class="cls-10" d="M80.36,207.94l12.43-27.52c-4.83-.78-8.6-1.76-10.59-3-2.96-1.85-9.45-20.39-9.45-20.39.16,8.44,6.68,23.9,6.68,23.9-2.37,10.12-5.88,17.18-9.45,22.08-6.39,8.76-17.36,13.12-27.94,10.77-23.27-5.17-21.57-36.73-21.57-36.73h0s-9.24,42.7,23.66,48.98c0,0,22.89,4.78,36.23-18.09Z"/>
            <path class="cls-5" d="M96.8,161.16l23.3,5.27c6.01-13.16,7.29-22.13,7.29-22.13,5.64-27.35-15.8-30.59-30.21-16.43-1.84,1.81-2.85,3.02-5.72,6.33,3.44,14.18,5.33,26.96,5.33,26.96Z"/>
            <path class="cls-5" d="M92.79,180.43l-12.43,27.51s0,0,0,0h0s11.11,4.83,11.11,4.83c6.61-10.08,16.23-21.58,20.83-30.4-7.17-.44-14.03-1.06-19.52-1.95Z"/>
            <polygon class="cls-13" points="111.59 138.79 96.8 161.16 101.06 162.12 111.59 138.79"/>
            <path class="cls-13" d="M113.86,188.31s-8.06.93-15.43,19.82h-3.79l15.02-21.21,4.2,1.39Z"/>
            <path class="cls-10" d="M92.79,180.43l-1.33,2.94s11.8,2.5,19.29,1.77c.56-.94,1.09-1.87,1.56-2.77-7.17-.44-14.03-1.06-19.52-1.95Z"/>
            <path class="cls-14" d="M157.24,174.83l-60.44-13.68s-8.87-59.89-23.1-64.32c0,0-26.25-9.98-53.23,80.22,0,0,18.11,8.87,33.25,4.74l19.03-24.76s6.49,18.54,9.45,20.39c10.8,6.75,74.3,5.91,74.3,5.91l.74-8.5Z"/>
            <path class="cls-8" d="M49.24,182.64c1.51-.18,3.01-.45,4.48-.85l19.03-24.76c-2.74-7.77-7.18-21.28-7.18-21.28l-16.33,46.89Z"/>
            <path class="cls-8" d="M156.5,183.34l.25-2.91h0c-43.24,2.83-74.55-3.01-74.55-3.01,10.8,6.75,74.3,5.91,74.3,5.91Z"/>
            <polygon class="cls-12" points="313.03 28.47 311.76 59.51 308.72 73.61 317.48 73.61 313.1 59.41 314.2 28.47 313.03 28.47"/>
            <g>
              <polygon class="cls-9" points="232.38 16.04 162.26 56.92 242.8 66.68 312.94 25.89 232.38 16.04"/>
              <polygon class="cls-16" points="231.97 14.07 232.38 16.04 312.94 25.89 312.54 23.93 231.97 14.07"/>
              <polygon class="cls-4" points="161.86 54.95 162.26 56.92 232.38 16.04 231.97 14.07 161.86 54.95"/>
              <path class="cls-13" d="M285.2,62.6l-9.33-21.92c-1.43-3.36-4.53-5.72-8.15-6.17-6.86-.85-18.81-1.57-31.28,1.24-12.57,2.35-23.26,7.73-29.23,11.22-3.15,1.84-5.07,5.24-5.05,8.89l.09,23.83c0,1.93,1.78,3.37,3.68,2.98l38.54-7.94,38.54-7.94c1.89-.39,2.95-2.42,2.2-4.19Z"/>
              <path class="cls-4" d="M202.19,65.25l.06,14.43c0,1.93,1.78,3.37,3.68,2.98l38.54-7.94,38.54-7.94c1.89-.39,2.95-2.42,2.2-4.19l-9.33-21.92c-.04-.09-.09-.18-.13-.28-8.43-.3-17.66.45-27.19,2.41-20.05,4.13-36.83,12.66-46.36,22.44Z"/>
            </g>
            <g>
              <rect class="cls-12" x="204.42" y="150.46" width="101.53" height="25.33" rx="9.25" ry="9.25"/>
              <path class="cls-7" d="M204.42,163.12v2.79c0,5.46,3.88,9.88,8.66,9.88h84.21c4.78,0,8.66-4.42,8.66-9.88v-2.79h-101.53Z"/>
              <rect class="cls-15" x="278.18" y="150.46" width="7.83" height="25.33"/>
              <rect class="cls-15" x="288.63" y="150.46" width="2.18" height="25.33"/>
            </g>
            <g>
              <rect class="cls-12" x="212.95" y="175.78" width="101.53" height="25.33" rx="9.25" ry="9.25"/>
              <path class="cls-7" d="M212.95,188.45v2.79c0,5.46,3.88,9.88,8.66,9.88h84.21c4.78,0,8.66-4.42,8.66-9.88v-2.79h-101.53Z"/>
              <rect class="cls-15" x="286.71" y="175.78" width="7.83" height="25.33"/>
              <rect class="cls-15" x="297.16" y="175.78" width="2.18" height="25.33"/>
            </g>
            <g>
              <rect class="cls-12" x="203.59" y="201.21" width="101.53" height="25.33" rx="9.25" ry="9.25"/>
              <path class="cls-7" d="M203.59,213.87v2.79c0,5.46,3.88,9.88,8.66,9.88h84.21c4.78,0,8.66-4.42,8.66-9.88v-2.79h-101.53Z"/>
              <rect class="cls-15" x="277.35" y="201.21" width="7.83" height="25.33"/>
              <rect class="cls-15" x="287.8" y="201.21" width="2.18" height="25.33"/>
            </g>
            <path class="cls-6" d="M163.85,63.71l4.22-4.3.7-6.29s-2.39-.08-3.15,3.57l-.23.3c-.55.71-1.54.89-2.3.43l-.82-.5-.4-1.97,5.74-3.35s1.65-.96,1.32-2.42l-5.28.52-5.28,2.34-1.6,8.08,7.1,3.59Z"/>
            <path class="cls-6" d="M157.24,174.83l5.43-2.68,3.53-.6-1.08,3.18,5.38.1c.71.01,1.41.33,1.81.93.26.4.43.94.28,1.66-.29,1.4-1.07,3.01-2.88,4.39,0,0-4.34,2.21-6.58,2.08l-6.58-1.48.71-7.57Z"/>
            <g>
              <path class="cls-17" d="M202.82,199h-43.79c-2.49,0-4.51-2.02-4.51-4.51h0c0-2.49,2.02-4.51,4.51-4.51h43.79c-2.49,0-4.51,2.02-4.51,4.51h0c0,2.49,2.02,4.51,4.51,4.51Z"/>
              <path class="cls-19" d="M204.89,199h-45.87c-2.49,0-4.51-2.02-4.51-4.51s2.02-4.51,4.51-4.51h45.87v-1.9h-45.7c-3.54,0-6.41,2.87-6.41,6.41s2.87,6.41,6.41,6.41h45.7v-1.9Z"/>
            </g>
            <g>
              <path class="cls-17" d="M193.97,211.82h-43.79c-2.49,0-4.51-2.02-4.51-4.51h0c0-2.49,2.02-4.51,4.51-4.51h43.79c-2.49,0-4.51,2.02-4.51,4.51h0c0,2.49,2.02,4.51,4.51,4.51Z"/>
              <path class="cls-13" d="M196.05,211.82h-45.87c-2.49,0-4.51-2.02-4.51-4.51s2.02-4.51,4.51-4.51h45.87v-1.9h-45.7c-3.54,0-6.41,2.87-6.41,6.41s2.87,6.41,6.41,6.41h45.7v-1.9Z"/>
            </g>
            <g>
              <path class="cls-17" d="M153.36,224.64h43.79c2.49,0,4.51-2.02,4.51-4.51h0c0-2.49-2.02-4.51-4.51-4.51h-43.79c2.49,0,4.51,2.02,4.51,4.51h0c0,2.49-2.02,4.51-4.51,4.51Z"/>
              <path class="cls-19" d="M151.28,224.64h45.87c2.49,0,4.51-2.02,4.51-4.51s-2.02-4.51-4.51-4.51h-45.87v-1.9h45.7c3.54,0,6.41,2.87,6.41,6.41s-2.87,6.41-6.41,6.41h-45.7v-1.9Z"/>
            </g>
            <polygon class="cls-5" points="162.85 204.71 160.73 203.44 158.61 204.71 158.61 195.63 162.85 195.63 162.85 204.71"/>
          </g>
          <rect class="cls-17" y="226.45" width="323.81" height=".63"/>
        </g>
      </g>
    </g>
  </g>
</svg>