<svg viewBox="0 0 323.81 227.08" xmlns="http://www.w3.org/2000/svg"><path d="m265.9 226.53h-179.92c-25.35-23.91-41.17-57.81-41.17-95.4 0-72.42 58.71-131.13 131.13-131.13s131.13 58.71 131.13 131.13c0 37.6-15.83 71.49-41.17 95.4z" fill="#dfecf3"/><path d="m193.15 147.87-26.87-7.24-13.5 42.22 27.37 5.41.96-2.98z" fill="#fcc5c8"/><path d="m176.62 141-6.35-2.21-14.47 44.58 11.14 2.34z" fill="#fff"/><path d="m178.71 134.86-17.19 50.42 18.34 3.87 13.29-41.28z" fill="#21214c"/><circle cx="251.33" cy="103.29" fill="#fcc63d" r="48.31" transform="matrix(.70710678 -.70710678 .70710678 .70710678 .58 207.97)"/><circle cx="251.33" cy="103.29" fill="#fcc63d" r="42.78" transform="matrix(.93244998 -.36129911 .36129911 .93244998 -20.34 97.79)"/><g fill="#f7d486"><path d="m203.59 110.71c1.16 7.41 4.01 14.39 8.26 20.42l81.38-51.9c-3.67-6.39-8.8-11.93-15.03-16.1l-74.6 47.58z"/><path d="m203.03 104.73c.03 1.16.12 2.31.23 3.45l72.77-46.41c-.99-.59-1.99-1.15-3.03-1.67z"/><path d="m227.79 145.48c.61.34 1.23.67 1.86.99l69.97-44.63c-.02-.7-.06-1.41-.11-2.1z"/></g><path d="m287.4 80.28c-12.7-19.92-39.15-25.77-59.07-13.07s-25.77 39.15-13.07 59.07 39.15 25.77 59.07 13.07 25.77-39.15 13.07-59.07zm-70.9 45.22c-12.27-19.23-6.62-44.77 12.61-57.04s44.77-6.62 57.04 12.61 6.62 44.77-12.61 57.04-44.77 6.62-57.04-12.61z" fill="#ffdc8d"/><path d="m206.64 84.93 78.33-16.31c-6.21-6.04-14.13-10.49-23.21-12.5-23.3-5.15-46.37 7.46-55.12 28.82z" fill="#fcc63d"/><path d="m84.62 102.8c.42-1.28.11-2.84-.78-3.96-.74-.93-1.81-1.52-2.48-2.5-1.15-1.65-.83-3.81-.55-5.71.39-2.62.61-5.28.67-7.96.06-2.59.09-5.37-.41-7.97-.31-1.61-.93-3.22-2.01-4.48-1.45-1.69-4.02-2.75-5.8-1.44-.77.57-1.56 1.01-2.58.84-.99-.16-2-.66-3-.91-2.08-.52-4.26-.69-6.23-.05-3.81 1.24-6.91 5.28-5.97 9.77.12.57.16 1.22-.2 1.62-.26.29-.67.37-1.01.56-1.79 1.03-.37 3.42.55 4.72.26.37.53.77.59 1.22.15 1.06-.83 1.67-1.57 2.08-3.84 2.16-7.28 6.07-8.52 10.58-.56 2.04-.29 4.25.47 6.32.94 2.56 2.39 5.41 4.61 7.04 1.84 1.35 4.12 1.84 6.25 1.72 2.14-.12 4.16-.81 6.1-1.62 4.07-1.71 7.86-3.99 12.01-5.53 2.88-1.07 8.67-.74 9.85-4.35z" fill="#11191c"/><path d="m76.21 98.19 48.17 3.73 32.37-41.8 8.1 4.1s-17.81 38.59-33.04 55.41l-53.24 6.6-2.37-28.04z" fill="#fcdde5"/><path d="m76.26 76.8 7.03 7.39-2.36 7.97-4.97.75c-.84.22-1.37 1.05-1.23 1.9l.54 5.99c.26 2.9-3.25 4.54-5.3 2.47l-4.62-5.69s4.41-4.36 2.21-7.86c-.63-1-2.64-.39-1.64-2.9l3.33 1.53s1.39-.32.96-1.15c-.38-.74.17-3.94 1.58-4.45 2.21-.81 4.37-2.6 4.47-5.95z" fill="#987052"/><path d="m65.57 226.45h-15.63l15.63-3.92z" fill="#987052"/><path d="m92.92 181.54s24.48 7.67 34.56 11.55c21.81 8.41 24.06 33.35-6.28 33.31l-51.08.04v-8.59l15.78-34.49 7.02-1.83z" fill="#42417a"/><path d="m119.26 209.73s-25.79 5.9-42.83 10.54c-1.35.37-7.65 1.37-9.93 1.27l8.28-15.35s27.3-1.17 44.49 3.54z" fill="#21214c"/><path d="m121.2 226.41c18.08.02 24.77-8.39 22.21-17.99 0 .02.52 3.68-3.97 7.87-2.89 2.69-9.12 3.02-17.44 3.39-12.67.56-56.44.59-56.44.59v6.18l55.63-.04z" fill="#21214c"/><path d="m82.2 207.48s-2.46 5.87-3.62 9.02l1.62 3.6 8.92 1.44 5.15-4.68.78-.9s-4.32-.68-4.23-3.61l3.53-3.82-12.16-1.05z" fill="#987052"/><path d="m92.44 215.37c.33-.62 1.09-.88 1.7-.53 3.11 1.77 11.32 6.25 17.38 7.77.38.09.71.29.97.57.07.08.15.17.22.27.9 1.24-.03 2.98-1.59 2.98h-33.8c-1.64 0-2.84-1.48-2.49-3.05.44-1.97 1.37-4.67 3.28-7.45.23-.34.72-.4 1.05-.15 1.16.9 3.89 2.68 7.05 2.47.85-.06 4.8-.21 6.24-2.89z" fill="#660606"/><path d="m51.28 225.2c-.05.7-.63 1.14-1.34 1.18-3.69.2-11.64.07-19.04.03-.39 0-.77.03-1.12-.13-.1-.04-.21-.1-.31-.16-1.34-.76-1.19-2.73.23-3.37l30.83-13.86c1.49-.67 3.2.19 3.52 1.76.4 1.98.67 4.82.06 8.14-.07.41-.49.66-.9.57-1.42-.34-4.64-.85-7.44.64-.76.4-4.29 2.16-4.5 5.2z" fill="#660606"/><path d="m82.2 177.42c-2.96-1.85-9.45-20.39-9.45-20.39l-19.03 24.76c-15.14 4.14-33.25-4.74-33.25-4.74s-9.24 42.7 23.66 48.98c0 0 22.67 4.55 36.23-18.09l12.43-27.52.48.08c-5.06-.79-9.02-1.8-11.07-3.08z" fill="#42417a"/><path d="m80.36 207.94 12.43-27.52c-4.83-.78-8.6-1.76-10.59-3-2.96-1.85-9.45-20.39-9.45-20.39.16 8.44 6.68 23.9 6.68 23.9-2.37 10.12-5.88 17.18-9.45 22.08-6.39 8.76-17.36 13.12-27.94 10.77-23.27-5.17-21.57-36.73-21.57-36.73s-9.24 42.7 23.66 48.98c0 0 22.89 4.78 36.23-18.09z" fill="#2d2d60"/><path d="m96.8 161.16 23.3 5.27c6.01-13.16 7.29-22.13 7.29-22.13 5.64-27.35-15.8-30.59-30.21-16.43-1.84 1.81-2.85 3.02-5.72 6.33 3.44 14.18 5.33 26.96 5.33 26.96z" fill="#42417a"/><path d="m92.79 180.43-12.43 27.51s0 0 0 0 11.11 4.83 11.11 4.83c6.61-10.08 16.23-21.58 20.83-30.4-7.17-.44-14.03-1.06-19.52-1.95z" fill="#42417a"/><path d="m111.59 138.79-14.79 22.37 4.26.96z" fill="#21214c"/><path d="m113.86 188.31s-8.06.93-15.43 19.82h-3.79l15.02-21.21z" fill="#21214c"/><path d="m92.79 180.43-1.33 2.94s11.8 2.5 19.29 1.77c.56-.94 1.09-1.87 1.56-2.77-7.17-.44-14.03-1.06-19.52-1.95z" fill="#2d2d60"/><path d="m157.24 174.83-60.44-13.68s-8.87-59.89-23.1-64.32c0 0-26.25-9.98-53.23 80.22 0 0 18.11 8.87 33.25 4.74l19.03-24.76s6.49 18.54 9.45 20.39c10.8 6.75 74.3 5.91 74.3 5.91z" fill="#ffeef0"/><path d="m49.24 182.64c1.51-.18 3.01-.45 4.48-.85l19.03-24.76c-2.74-7.77-7.18-21.28-7.18-21.28z" fill="#fcc5c8"/><path d="m156.5 183.34.25-2.91c-43.24 2.83-74.55-3.01-74.55-3.01 10.8 6.75 74.3 5.91 74.3 5.91z" fill="#fcc5c8"/><path d="m313.03 28.47-1.27 31.04-3.04 14.1h8.76l-4.38-14.2 1.1-30.94z" fill="#fcc63d"/><path d="m232.38 16.04-70.12 40.88 80.54 9.76 70.14-40.79z" fill="#151535"/><path d="m231.97 14.07.41 1.97 80.56 9.85-.4-1.96z" fill="#8a8ac4"/><path d="m161.86 54.95.4 1.97 70.12-40.88-.41-1.97z" fill="#3c3c84"/><path d="m285.2 62.6-9.33-21.92c-1.43-3.36-4.53-5.72-8.15-6.17-6.86-.85-18.81-1.57-31.28 1.24-12.57 2.35-23.26 7.73-29.23 11.22-3.15 1.84-5.07 5.24-5.05 8.89l.09 23.83c0 1.93 1.78 3.37 3.68 2.98l38.54-7.94 38.54-7.94c1.89-.39 2.95-2.42 2.2-4.19z" fill="#21214c"/><path d="m202.19 65.25.06 14.43c0 1.93 1.78 3.37 3.68 2.98l38.54-7.94 38.54-7.94c1.89-.39 2.95-2.42 2.2-4.19l-9.33-21.92c-.04-.09-.09-.18-.13-.28-8.43-.3-17.66.45-27.19 2.41-20.05 4.13-36.83 12.66-46.36 22.44z" fill="#3c3c84"/><rect fill="#fcc63d" height="25.33" rx="9.25" width="101.53" x="204.42" y="150.46"/><path d="m204.42 163.12v2.79c0 5.46 3.88 9.88 8.66 9.88h84.21c4.78 0 8.66-4.42 8.66-9.88v-2.79z" fill="#e8b134"/><path d="m278.18 150.46h7.83v25.33h-7.83z" fill="#fff" opacity=".43"/><path d="m288.63 150.46h2.18v25.33h-2.18z" fill="#fff" opacity=".43"/><rect fill="#fcc63d" height="25.33" rx="9.25" width="101.53" x="212.95" y="175.78"/><path d="m212.95 188.45v2.79c0 5.46 3.88 9.88 8.66 9.88h84.21c4.78 0 8.66-4.42 8.66-9.88v-2.79z" fill="#e8b134"/><path d="m286.71 175.78h7.83v25.33h-7.83z" fill="#fff" opacity=".43"/><path d="m297.16 175.78h2.18v25.33h-2.18z" fill="#fff" opacity=".43"/><rect fill="#fcc63d" height="25.33" rx="9.25" width="101.53" x="203.59" y="201.21"/><path d="m203.59 213.87v2.79c0 5.46 3.88 9.88 8.66 9.88h84.21c4.78 0 8.66-4.42 8.66-9.88v-2.79z" fill="#e8b134"/><path d="m277.35 201.21h7.83v25.33h-7.83z" fill="#fff" opacity=".43"/><path d="m287.8 201.21h2.18v25.33h-2.18z" fill="#fff" opacity=".43"/><path d="m163.85 63.71 4.22-4.3.7-6.29s-2.39-.08-3.15 3.57l-.23.3c-.55.71-1.54.89-2.3.43l-.82-.5-.4-1.97 5.74-3.35s1.65-.96 1.32-2.42l-5.28.52-5.28 2.34-1.6 8.08 7.1 3.59z" fill="#987052"/><path d="m157.24 174.83 5.43-2.68 3.53-.6-1.08 3.18 5.38.1c.71.01 1.41.33 1.81.93.26.4.43.94.28 1.66-.29 1.4-1.07 3.01-2.88 4.39 0 0-4.34 2.21-6.58 2.08l-6.58-1.48.71-7.57z" fill="#987052"/><path d="m202.82 199h-43.79c-2.49 0-4.51-2.02-4.51-4.51 0-2.49 2.02-4.51 4.51-4.51h43.79c-2.49 0-4.51 2.02-4.51 4.51 0 2.49 2.02 4.51 4.51 4.51z" fill="#fff"/><path d="m204.89 199h-45.87c-2.49 0-4.51-2.02-4.51-4.51s2.02-4.51 4.51-4.51h45.87v-1.9h-45.7c-3.54 0-6.41 2.87-6.41 6.41s2.87 6.41 6.41 6.41h45.7z" fill="#660606"/><path d="m193.97 211.82h-43.79c-2.49 0-4.51-2.02-4.51-4.51 0-2.49 2.02-4.51 4.51-4.51h43.79c-2.49 0-4.51 2.02-4.51 4.51 0 2.49 2.02 4.51 4.51 4.51z" fill="#fff"/><path d="m196.05 211.82h-45.87c-2.49 0-4.51-2.02-4.51-4.51s2.02-4.51 4.51-4.51h45.87v-1.9h-45.7c-3.54 0-6.41 2.87-6.41 6.41s2.87 6.41 6.41 6.41h45.7z" fill="#21214c"/><path d="m153.36 224.64h43.79c2.49 0 4.51-2.02 4.51-4.51 0-2.49-2.02-4.51-4.51-4.51h-43.79c2.49 0 4.51 2.02 4.51 4.51 0 2.49-2.02 4.51-4.51 4.51z" fill="#fff"/><path d="m151.28 224.64h45.87c2.49 0 4.51-2.02 4.51-4.51s-2.02-4.51-4.51-4.51h-45.87v-1.9h45.7c3.54 0 6.41 2.87 6.41 6.41s-2.87 6.41-6.41 6.41h-45.7z" fill="#660606"/><path d="m162.85 204.71-2.12-1.27-2.12 1.27v-9.08h4.24z" fill="#42417a"/><path d="m0 226.45h323.81v.63h-323.81z" fill="#fff"/></svg>