<svg viewBox="0 0 2235.24 1250.23" xmlns="http://www.w3.org/2000/svg"><path d="m350.58 272.66c-56.36 3.75-110.23-1.16-165.53-13.68-8.48-1.92-17.48-4.49-23.23-11.61-8.71-10.78-6.09-28.94 3.3-39.01s23.54-13.08 36.6-11.68c8.36.9 16.93 3.37 25 .81 10.08-3.2 16.76-13.33 23.52-22.16 6.76-8.82 15.91-17.55 26.33-16.17 7.81 1.03 13.96 7.49 20.91 11.54s17.04 4.47 21.02-2.98c8.53-15.94-3.44-59.66 40.47-59.66 63.38 0 53.03 44 60.66 53.34 11.57 14.15 32.15 11.04 48.91 6.25 16.75-4.79 36.7-9.33 49.63 3.32 11.21 10.97 12.36 31.1 24.28 41.13 12.69 10.68 30.7 4.98 46.07.18s35.19-6.56 44.11 8.01c7.48 12.21 1.9 29.95-8.73 38.9-10.64 8.95-24.66 11.14-38.03 12.03-86.82 5.78-165.64-3.21-235.28 1.43z" fill="#ededee"/><path d="m2121.55 696.46c19.57-10.16 20.42-14.91 27.8-22.34s20.47-24.16 2.52-35.05c-7.87-4.78-10.95-5.05-17.82 2.69-6.87 7.75-4.55 19.98-18.3 32.04-13.74 12.07 5.79 22.66 5.79 22.66z" fill="#b68681"/><path d="m1907.81 913.05s.01.03.02.07c.23-.17.32-.26.35-.29-.06.01-.37.21-.37.21z" fill="#1f1f39" opacity=".46"/><path d="m2115.1 1197.83c4.81-11.57 13.22-42.06 13.22-42.06l-31.3-10.86-16.73 62.88 21.01 3.88 13.8-13.83z" fill="#b68681"/><path d="m2116.15 1195.19c3.53-.51 1.73 4.29 2.52 9.63 1.82 12.21 42.98 14.98 49.44 16.66 3.33.87 7.16 18.93-9.66 17.3-14.55-1.41-61.17-5.74-77.08-7.38-3.33-.34-6.03-2.87-6.53-6.18-1.8-11.8.64-29.63 5.12-29.6 6.92-1.53 21.47 1.68 36.19-.43z" fill="#1f1f39"/><path d="m1666.38 1162.6s-13.16 15.92-26.53 17.5c-.02 0-.04 0-.06 0-4.01.48-7.87.88-11.15 1.12-1.57.12-3 .21-4.25.24l-18.29-6.86 12.19-23.63 2.63-.44 6.66-1.1 35.78-19.83 2.96 32.36.06.63z" fill="#b68681"/><path d="m1621.89 1186.6c-1.47.61-3.14 1.71-4.94 3.17-12.12 9.84-29.88 36.16-29.94 41.97-.03 3.44-22.09 11.48-19.13-5.16 2.92-16.48 20.45-51.29 18.17-67.12-.47-3.31 1.32-6.55 4.4-7.84 11.01-4.62 28.9-6.59 29.96-2.24.18.36.35.75.52 1.15 2.58 6.48 2.79 18.07 7.73 30.69.12.3.24.61.37.92 1.35 3.31-2.14 2.39-7.12 4.46z" fill="#1f1f39"/><path d="m2127.39 1182.61c-2.32-.32-4.55-.63-6.67-.95-15.22-2.25-25.58-4.49-31.86-6.05-5.26-1.31-9.47-11.8-9.47-11.8 4.17-22.8 42.51-138.28 35.29-145.73-6.38-6.59-36.68-25.85-74.17-39.98-12.97-4.89-26.24-9.75-38.71-14.25-33.29-12-60.94-21.4-62.29-21.86-.03-.01-.05-.02-.05-.02-6.35 10.84-31.82 59.34-54.55 101.14-14.34 26.36-27.59 50.05-34.28 59.97-22.91 33.95-209.61 80.15-209.61 80.15-.37-1.05-.77-2.09-1.17-3.14-4.4-11.59-9.92-23.13-12.27-30.66-1.39-4.46-1.57-10.6.14-11.44 33.51-6.95 161.29-59.03 170.74-73.56 11.31-17.38 33.35-77.97 41.05-119.77 1.32-7.16 2.42-13.63 3.22-19.04 2.66-17.76 5.78-34.98 8.7-49.84 5.35-27.27 10.04-46.57 10.04-46.57l99.26 15.66 16.01 15.36c24.87 8.13 176.77 86.84 197.56 113.98 24.66 32.2-42.65 200.2-46.91 208.39z" fill="#4b4b5b"/><path d="m1934.46 639.75c10.95-5.99 24.42-8.18 23.45-16.21-.36-3.06-.45-5.04-.36-6.46.25-3.55 1.66-3.53 2.72-7.86.88-3.61 1.98-6.42 2.97-8.47 1.36-2.85 2.5-4.21 2.5-4.21l-5.55-9.13-11.78-19.4s-.69-1.13-8.55 9.06c-7.17 9.29-15.58 31.91-15.82 43.96 0 0-2.75 10.15 10.41 18.73z" fill="#b68681"/><path d="m1957.56 617.08c.25-3.55 1.66-3.53 2.72-7.86.88-3.61 1.98-6.42 2.97-8.47l-4.86-8s-12.23 1.71-16.09 3.17c-5.98 2.25-2.21 19.06 15.26 21.16z" fill="#1f1f39" opacity=".14"/><path d="m1991.49 569.68c-3.42 9.73-1.32 32.24-7.65 29.38s-7.21 20.57-14.05 17.77c-16.58-6.8-30.75-25.57-29.33-34.41s12.43-30.37 12.43-30.37z" fill="#b68681"/><path d="m1970.62 571.14c4.88 2.92 4.5 4.21 8.89 4.08s.38-7.91 7.61-6 14.81 4.81 18.96-2.58c6.01-10.7-4.65-13.39-11.33-14.84-4.3-.93-1.45-9.91-9.47-13.07-6.29-2.48-7.18 1.44-12.89-.52-3.45-1.18-7.48-9.55-14.43-7.88-12.9 3.1-8.97 15.78-20.49 20.1-13.43 5.04-.68 34.37 2.89 33.11 4.16-1.46 4.13-12.94 8.09-13.86 5.96-1.38 4.82 2.66 6.97 7.85 2.3 5.54 9.56 9.07 8.08-.3s2.69-8.75 7.11-6.11z" fill="#1f1f39"/><path d="m1917.16 613.56c11.29-3.95 20.43 17.68 29.81 17.88 5.69.12 1.63-4.56 3.39-7.65 4.63-8.11 3.2-9.73 6.5-6.62 56.54 53.24 26.28 247.59 9.7 231.25s-88.96 36.81-98.36 29.53c-30.18-23.34-.85-53.7.09-62.08 3.58-32.1 26.82-171.21 26.82-171.21s5.83-14.09 22.06-31.11z" fill="#fff"/><path d="m1954.99 615.68c68.61-.1 91.97 125.49 106.43 125.5 9.8 0 45.92-71.23 54.6-70.86 6.72.29 20.49 6.58 24.01 14.37 3.52 7.8-54.8 107.03-80.99 105.49-22.12-1.3-51.62-77.79-56.78-66.02-3.57 8.14-.66 20.8 1.98 36.31s11.64 78.39-17.36 109.43c-11.87 12.7-45.33 16.87-52.79 10.59-12.78-10.78 32.42-56.68 31.75-126.32-.38-39.73 10.23-63.58 4.17-95.99-4.58-24.51-15.03-42.51-15.03-42.51z" fill="#0267a4"/><path d="m1954.99 615.68c68.61-.1 91.97 125.49 106.43 125.5 9.8 0 45.92-71.23 54.6-70.86 6.72.29 20.49 6.58 24.01 14.37 3.52 7.8-54.8 107.03-80.99 105.49-22.12-1.3-51.62-77.79-56.78-66.02-3.57 8.14-.66 20.8 1.98 36.31s11.64 78.39-17.36 109.43c-11.87 12.7-45.33 16.87-52.79 10.59-12.78-10.78 32.42-56.68 31.75-126.32-.38-39.73 10.23-63.58 4.17-95.99-4.58-24.51-15.03-42.51-15.03-42.51z" fill="#1f1f39" opacity=".17"/><path d="m1919.66 857.41c-7.95 39.09-55.18 73.23-80.15 87.26 1.32-7.16 2.42-13.63 3.22-19.04 2.66-17.76 5.78-34.98 8.7-49.84l68.24-18.38z" fill="#1f1f39" opacity=".24"/><path d="m1947.46 730.26c-.07 4.19-.69 8.8-1.69 13.65-2.88 13.95-8.86 29.83-13.46 43.07-2.15 6.18-3.99 11.77-5.08 16.34-9.8 41.02-3.19 64.46-17.68 82.2-12.12 14.83-72.64 26.15-102.14 4.86-11.5-8.3 25.34-20.33 37.68-34.38 19.27-21.93 17.52-47.15 20.5-68.85 2.9-21.04.57-49.45.07-82.81-.32-21.29 6.6-54.48 16.1-64.32 23.71-24.57 35.02-26.2 35.02-26.2 1.16 8.43 13.97 35.24 22.67 65.72.06.19.11.39.17.59.31 1.1.62 2.22.92 3.33 3.91 14.43 6.76 29.53 6.93 43.79.02 1.02.01 2.02 0 3.03z" fill="#0267a4"/><path d="m1947.46 730.26c-.07 4.19-.69 8.8-1.69 13.65-2.88 13.95-8.86 29.83-13.46 43.07-1.46-39.67-24.24-89.58-24.24-89.58l32.47-13.96c3.91 14.43 6.76 29.53 6.93 43.79.02 1.02.01 2.02 0 3.03z" fill="#1f1f39" opacity=".18"/><path d="m2040.51 978.1c-12.97-4.89-26.24-9.75-38.71-14.25-33.29-12-60.94-21.4-62.29-21.86-.03-.01-.05-.02-.05-.02 5.93-10.85 7.16-16.01 7.16-16.01s65.46 33.65 93.89 52.13z" fill="#1f1f39" opacity=".38"/><path d="m1884.9 1043.12c-14.34 26.36-27.59 50.05-34.28 59.97-22.91 33.95-209.61 80.15-209.61 80.15-.37-1.05-.77-2.09-1.17-3.14 9.68-1.3 17.31-16.39 26.48-18.13 92.61-17.51 159.75-56.92 218.58-118.85z" fill="#1f1f39" opacity=".24"/><path d="m2141.09 651.33c8.05-8.88 11.18-16.94 7.96-17.81s-10.33 3.82-10.33 3.82l-4.42 11.34 6.79 2.66z" fill="#b68681"/><path d="m1221.36 1127.87-1139.33-9.61c-10.17-.09-18.34-8.4-18.25-18.56l.33-39.41c.09-10.17 8.4-18.34 18.56-18.25l1139.33 9.61c10.17.09 18.34 8.4 18.25 18.56l-.33 39.41c-.09 10.17-8.4 18.34-18.56 18.25z" fill="#603a3e"/><path d="m1244.46 1091.47c397.16-25.88 568.37-463.43 663.09-473.4 73.88-7.78 179.96 8.42 203.08 21.64 44.2 25.28 50.2 42.3 53.44 51.43 7.45 20.98 8.84 35.54-3.59 65.66-12.43 30.11-43.23 48.62-34.86 94.23" fill="none" stroke="#4b4b5b" stroke-linecap="round" stroke-linejoin="round" stroke-width="6.96"/><path d="m2085.5 677.6c7.37-20.78 11.96-22.28 18.3-30.61 6.35-8.33 32.43-32.08 34.37-7.32.72 9.18-.52 15.28-7.25 23.15s-25.16 5.47-35.69 27.43c-7.91 16.49-9.74-12.64-9.74-12.64z" fill="#b68681"/><path d="m1922.63 632.02c63.15 78.5 72.93 83.06 84.81 89.94s81.4-73.64 86.54-73.95c12.8-.77 22.86 25.72 18.92 30.13-18.12 20.25-82.24 99.62-115 88.04-25.78-9.11-97-75.34-97-75.34s-33.49-34.25-14.57-53.33c18.91-19.08 36.3-5.49 36.3-5.49z" fill="#0267a4"/><path d="m1942.38 638.74c-1.19-.59-9.46 22.45-23.45 31.49-3.86 2.5-9.24 6.04-13.81 6.89-13.4 2.48-20.76 6.32-37.99 6.33 2.1-6.49-.91-10.15 4.58-22.03 12.79 2.32 24.35 2.34 31.3.67 5.15-1.24 9.9-3.33 14.22-5.9 8.13-4.82 14.75-11.3 19.69-16.82 2.51-2.82 2.46-6.62 5.83-7.18 4.48-.76 1.15 7.33-.38 6.57z" fill="#1f1f39" opacity=".18"/><path d="m1948.52 632.65c-.46-2.38-2.64-6.04-7.67-5.19-3.79.64-3.9 2.23-6.73 5.39-8.49 9.51-21.44 21.53-38.1 25.53s-58.06-13.26-82.37-4.63-29.05 32.02-64.41 42.39-76.12.08-86.54 3.27c-10.41 3.19-16.57 6.35-15.76 10.53s7 10.48 14.87 12.52c7.86 2.03 74.33-1.92 91.43-6.49 27.92-7.45 49.06-36.21 67.15-40.17s57.95 1.59 79.25-2.34c23.75-4.39 39.66-34.75 41.37-33.89s3.3 1.69 6.27.52c2.04-.8 1.69-5.07 1.23-7.44z" fill="#f4ad00"/><path d="m2155.81 647.71c.55 9.71 4.4 15.99-4.39 17.5s-21.59-7.48-21.25-14.55 20.07-8.87 20.07-8.87l5.56 5.92z" fill="#b68681"/><path d="m1239.04 1068.47c23.75 6.61 29.55 36.01 9.55 39.68-11.25 2.06-9.85.77-9.85.77l1.8-35.18-1.5-5.28z" fill="#1f1f39"/><path d="m1300.54 1234.56c0 7.25-306.84 15.67-660.39 15.67s-640.15-5.88-640.15-13.13 286.61-13.13 640.15-13.13 660.39 3.34 660.39 10.59z" fill="#32323f" opacity=".18"/><path d="m2235.24 1234.56c0 7.25-175.47 15.67-377.65 15.67s-366.08-5.88-366.08-13.13 163.9-13.13 366.08-13.13 377.65 3.34 377.65 10.59z" fill="#32323f" opacity=".18"/><path d="m1311.86 678.14c-3 10.49-4.52 20.47 12 34.88 12.89 11.24 26.7 3.6 40.67 10.99 19.07 10.09 16.69 25.92 41.49 27.91 21.4 1.72 26.3-30.93 57.52-18.05 23.57 9.73 50.23 1.09 49.42-21.52-.82-22.7 22.92-26.82 8.6-48.97-14.59-22.58-38.47-4.11-49.87-9.4-17.53-8.13-19.72-24.92-45.8-23.7-33.28 1.55-29.67 21.61-60.21 20.37-27.45-1.11-48.68 9.5-53.82 27.51z" fill="#ededee" fill-rule="evenodd" opacity=".71"/><path d="m1031.14 542.95c1.55-54.57-7.22-89.97 1.09-98.38s54.36-10.41 59.3-3.08 1.6 134 1.6 134z" fill="#3b3b4c"/><path d="m1092.71 400.3c25.07-24.65 36.58-87.69 16.31-112.25-22.89-27.72 10.39-62.36 37.33-82.39 26.93-20.03 79.13-129.77 41.75-150.82s-42.6-59.18-89.57-54.44c-45.57 4.6-91.69 3.34-84.35 61.79 6.78 54 48.02 43.49 38.12 78.47-9.67 34.19-26.67 55.7-7.37 82.17s-5.03 46.57-11.86 77.49c-6.55 29.61 27.04 37.5 36.62 59.54 7.54 17.37-4.18 47.19-6.88 58.94-.41 1.79 1.64 3.11 3.09 1.99l26.81-20.5z" fill="#ededee"/><path d="m1093.13 575.48-61.99-32.53c.92-32.38-1.79-58.01-2.41-75.26 16.26-9.27 38.01-18.42 63.71-23.08 3.59 21.02.7 130.88.7 130.88z" fill="#1f1f39" opacity=".28"/><path d="m1191.01 1055.02-585.18-2.48s1.68-100.75 3.54-213.74c.1-6.06.2-12.16.3-18.28 2.22-135.9 4.57-282.43 4.48-289.84-.17-13.97 267.11-102.37 291.3-107.51s247.53 153.84 280.15 177.7c32.61 23.86 11.99 328 5.42 454.15z" fill="#4b4b5b"/><path d="m1215.52 602.94s-.77 6.77-3.69 12.51c-2.02 3.98-5.08 7.47-9.64 7.85-11.13.94-296.75-200.13-296.75-200.13s-271.65 127.71-281.32 130.25c-3.02.8-8.29-.36-14.1-2.6-12.76-4.91-28.14-15.03-28.22-21.14-.11-8.89 315.33-125 322.6-125.89 7.26-.9 275.31 179.38 311.11 199.15z" fill="#419f81"/><path d="m1099.77 699.56-27.73.33c-1.72.02-3.09 1.43-3.07 3.14l.3 25.15c.02 1.44 1.02 2.68 2.42 2.99l27.81 6.27c1.96.44 3.81-1.06 3.79-3.07l-.38-31.75c-.02-1.72-1.43-3.09-3.14-3.07z" fill="#fdfffd"/><rect fill="#fdfffd" height="32.36" rx="3.11" transform="matrix(.99992957 -.01186796 .01186796 .99992957 -9.14 13.02)" width="33.94" x="1069.81" y="756.26"/><path d="m1054.4 700.1.34 28.73c.02 1.59-1.16 2.93-2.74 3.12l-23.66 2.84c-1.84.22-3.46-1.2-3.48-3.05l-.34-28.85c-.02-1.43.95-2.69 2.34-3.05l23.62-6.04c1.95-.5 3.85.96 3.88 2.97l.04 3.32z" fill="#fdfffd"/><path d="m1055.11 760.13.38 32.22c.02 1.72-1.35 3.12-3.07 3.14l-24.09.29c-1.55.02-2.88-1.11-3.11-2.64l-4.38-28.88c-.26-1.72.95-3.32 2.67-3.55l28.09-3.63c1.84-.24 3.48 1.19 3.51 3.04z" fill="#fdfffd"/><path d="m809.04 693.22c1.08 14.39.69 24.51.39 29.04-.1 1.55-1.29 2.8-2.83 3l-29.29 3.68c-1.92.24-3.63-1.24-3.65-3.18l-.38-31.91c-.02-1.79 1.41-3.26 3.21-3.28l29.28-.35c1.71-.02 3.15 1.3 3.28 3z" fill="#fdfffd"/><path d="m755.74 690.53c-10.14-.72-21.88.03-26.89.43-1.46.12-2.66 1.2-2.93 2.65-1.49 8.09-6 33.72-3.93 36.42 2.02 2.63 25.74.65 34.2-.15 1.68-.16 2.96-1.58 2.94-3.27l-.39-32.87c-.02-1.68-1.32-3.08-2.99-3.2z" fill="#fdfffd"/><path d="m807.06 746.76c-9.21.13-24.48.29-30.55.36-1.53.02-2.84 1.1-3.14 2.6-1.82 9.07-7.19 39.14 1.06 41.1 9.73 2.31 34.61 2.82 36.27-.43 1.38-2.7.11-31-.36-40.54-.09-1.74-1.54-3.11-3.28-3.08z" fill="#fdfffd"/><path d="m755.55 747.57c-8.62.44-20.32.31-25.98.21-1.83-.03-3.32 1.45-3.3 3.28l.46 38.31c.03 2.11 2.02 3.63 4.06 3.1l22.03-5.72c1.3-.34 2.26-1.44 2.41-2.78l3.7-32.8c.22-1.99-1.38-3.71-3.38-3.6z" fill="#fdfffd"/><path d="m948.26 1054.74c1.82-55.64 9.4-108.73-1.69-141.68-4.09-12.15-35.78-56.55-71.62-12.48s-22.44 153.75-22.44 153.75z" fill="#1f1f39" opacity=".28"/><path d="m1211.83 615.45c-2.02 3.98-5.08 7.47-9.64 7.85-11.13.94-296.75-200.13-296.75-200.13s-271.65 127.71-281.32 130.25c-3.02.8-8.29-.36-14.1-2.6 75.09-47.48 284.98-138.2 293.4-136.77 8.02 1.36 262.73 163.46 308.41 201.4z" fill="#1f1f39" opacity=".28"/><path d="m724.42 679.67-2.03 345.23c-.07 11.74-9.65 21.21-21.39 21.14l-587.53-3.45c-11.75-.07-21.21-9.65-21.14-21.39l2.03-345.23c.07-11.74 9.64-21.21 21.39-21.14l587.53 3.45c11.75.07 21.21 9.65 21.14 21.39z" fill="#0267a4"/><rect fill="#f4bb47" height="73.83" rx="9.26" transform="matrix(.99998239 .00593408 -.00593408 .99998239 4.52 -1.2)" width="97.27" x="157.37" y="731.56"/><rect fill="#f4ad00" height="51.84" rx=".47" transform="matrix(.99998239 .00593408 -.00593408 .99998239 4.53 -1.19)" width="26.6" x="191.01" y="745.39"/><path d="m213.17 742.99-17.38-.1c-3.9-.02-7.08 3.13-7.11 7.02l-.25 42.62c-.02 3.9 3.13 7.08 7.02 7.11l17.38.1c3.9.02 7.08-3.13 7.11-7.02l.25-42.62c.02-3.9-3.13-7.08-7.02-7.11zm1.86 49.7c0 1.19-.98 2.15-2.17 2.14l-17.38-.1c-1.19 0-2.15-.98-2.14-2.17l.25-42.62c0-1.19.98-2.15 2.17-2.15l17.38.1c1.19 0 2.15.98 2.14 2.17l-.25 42.62z" fill="#fffdfd"/><path d="m218.66 776.31h35.92v4.55h-35.92z" fill="#fff" transform="matrix(.99998239 .00593408 -.00593408 .99998239 4.58 -1.38)"/><path d="m157.32 775.95h35.92v4.55h-35.92z" fill="#fff" transform="matrix(.99998239 .00593408 -.00593408 .99998239 4.58 -1.02)"/><path d="m157.46 750.81h36.11v4.74h-36.11z" fill="#fff" transform="matrix(.99998239 .00593408 -.00593408 .99998239 4.43 -1.02)"/><path d="m217.38 751.16h37.35v4.74h-37.35z" fill="#fff" transform="matrix(.99998239 .00593408 -.00593408 .99998239 4.43 -1.37)"/><path d="m651.08 873.55-489.65-2.88c-2.7-.02-4.87-2.22-4.86-4.91v-1.63c.03-2.7 2.22-4.87 4.92-4.86l489.65 2.88c2.7.02 4.87 2.22 4.86 4.91v1.63c-.03 2.7-2.22 4.87-4.92 4.86z" fill="#f4ad00"/><rect fill="#f4bb47" height="47.9" rx="19.83" transform="matrix(.99998239 .00593408 -.00593408 .99998239 5.89 -3.71)" width="94.48" x="587.04" y="977.24"/><path d="m627.91 1045.61-213.83-1.26c-28.11-44.36-57.1-105.81-81.01-172.67-.6-1.67-1.19-3.34-1.78-5.01-.75-2.14-1.5-4.27-2.24-6.41-.18-.51-.36-1.03-.53-1.55-.14-.42-.29-.84-.43-1.26-.81-2.35-1.61-4.71-2.4-7.07-5.91-17.61-11.43-35.5-16.47-53.47-.66-2.36-1.31-4.73-1.96-7.09-2.44-8.92-4.74-17.86-6.92-26.78-.76-3.11-1.5-6.23-2.22-9.34-7.78-33.37-13.58-66.45-16.75-97.92l178.87 1.05c-1.85 58.24 20.42 134.15 51.33 204.49 1.68 3.83 3.39 7.64 5.12 11.43 17.35 38 37.01 73.96 56.49 104.12 11.96 18.52 23.85 34.85 35.08 48.11 6.84 8.07 13.43 15.01 19.65 20.62z" fill="#0b0b11" opacity=".15"/><g fill="#c1c1c1"><path d="m168.9 937.58c-1.52 0-2.9-.29-4.15-.85-1.24-.56-2.32-1.39-3.21-2.51-.9-1.12-1.58-2.52-2.06-4.2s-.71-3.65-.7-5.9c.01-2.42.31-4.48.9-6.17.58-1.69 1.35-3.06 2.31-4.13.95-1.07 2.04-1.83 3.26-2.31 1.22-.47 2.49-.7 3.81-.7s2.59.26 3.83.76c1.23.5 2.32 1.29 3.26 2.37s1.69 2.46 2.26 4.16c.56 1.69.84 3.74.82 6.13-.01 2.25-.27 4.22-.77 5.89s-1.2 3.07-2.11 4.17c-.91 1.11-2 1.93-3.26 2.47-1.27.54-2.66.81-4.18.8zm6.79-13.36c.01-1.89-.16-3.49-.51-4.82s-.82-2.41-1.42-3.26-1.3-1.47-2.12-1.85c-.82-.39-1.68-.58-2.6-.59-.92 0-1.78.19-2.59.6-.81.4-1.51 1.03-2.12 1.87s-1.09 1.92-1.46 3.25c-.37 1.32-.55 2.9-.57 4.73-.02 3.41.55 6.02 1.7 7.83s2.79 2.72 4.91 2.73c2.15.01 3.81-.88 4.99-2.68 1.17-1.8 1.77-4.4 1.79-7.81z"/><path d="m193.99 937.72c-1.52 0-2.9-.29-4.15-.85-1.24-.56-2.32-1.39-3.21-2.51-.9-1.12-1.58-2.52-2.06-4.2s-.71-3.65-.7-5.9c.01-2.42.31-4.48.9-6.17.58-1.69 1.35-3.06 2.31-4.13.95-1.07 2.04-1.83 3.26-2.31 1.22-.47 2.49-.7 3.81-.7s2.59.26 3.83.76c1.23.5 2.32 1.29 3.26 2.37s1.69 2.46 2.26 4.16c.56 1.69.84 3.74.82 6.13-.01 2.25-.27 4.22-.77 5.89s-1.2 3.07-2.11 4.17c-.91 1.11-2 1.93-3.26 2.47-1.27.54-2.66.81-4.18.8zm6.79-13.36c.01-1.89-.16-3.49-.51-4.82s-.82-2.41-1.42-3.26-1.3-1.47-2.12-1.85c-.82-.39-1.68-.58-2.6-.59-.92 0-1.78.19-2.59.6-.81.4-1.51 1.03-2.12 1.87s-1.09 1.92-1.46 3.25c-.37 1.32-.55 2.9-.57 4.73-.02 3.41.55 6.02 1.7 7.83s2.79 2.72 4.91 2.73c2.15.01 3.81-.88 4.99-2.68 1.17-1.8 1.77-4.4 1.79-7.81z"/><path d="m219.08 937.87c-1.52 0-2.9-.29-4.15-.85-1.24-.56-2.32-1.39-3.21-2.51-.9-1.12-1.58-2.52-2.06-4.2s-.71-3.65-.7-5.9c.01-2.42.31-4.48.9-6.17.58-1.69 1.35-3.06 2.31-4.13.95-1.07 2.04-1.83 3.26-2.31 1.22-.47 2.49-.7 3.81-.7s2.59.26 3.83.76c1.23.5 2.32 1.29 3.26 2.37s1.69 2.46 2.26 4.16c.56 1.69.84 3.74.82 6.13-.01 2.25-.27 4.22-.77 5.89s-1.2 3.07-2.11 4.17c-.91 1.11-2 1.93-3.26 2.47-1.27.54-2.66.81-4.18.8zm6.79-13.36c.01-1.89-.16-3.49-.51-4.82s-.82-2.41-1.42-3.26-1.3-1.47-2.12-1.85c-.82-.39-1.68-.58-2.6-.59-.92 0-1.78.19-2.59.6-.81.4-1.51 1.03-2.12 1.87s-1.09 1.92-1.46 3.25c-.37 1.32-.55 2.9-.57 4.73-.02 3.41.55 6.02 1.7 7.83s2.79 2.72 4.91 2.73c2.15.01 3.81-.88 4.99-2.68 1.17-1.8 1.77-4.4 1.79-7.81z"/><path d="m244.17 938.02c-1.52 0-2.9-.29-4.15-.85-1.24-.56-2.32-1.39-3.21-2.51-.9-1.12-1.58-2.52-2.06-4.2s-.71-3.65-.7-5.9c.01-2.42.31-4.48.9-6.17.58-1.69 1.35-3.06 2.31-4.13.95-1.07 2.04-1.83 3.26-2.31 1.22-.47 2.49-.7 3.81-.7s2.59.26 3.83.76c1.23.5 2.32 1.29 3.26 2.37s1.69 2.46 2.26 4.16c.56 1.69.84 3.74.82 6.13-.01 2.25-.27 4.22-.77 5.89s-1.2 3.07-2.11 4.17c-.91 1.11-2 1.93-3.26 2.47-1.27.54-2.66.81-4.18.8zm6.79-13.36c.01-1.89-.16-3.49-.51-4.82s-.82-2.41-1.42-3.26-1.3-1.47-2.12-1.85c-.82-.39-1.68-.58-2.6-.59-.92 0-1.78.19-2.59.6-.81.4-1.51 1.03-2.12 1.87s-1.09 1.92-1.46 3.25c-.37 1.32-.55 2.9-.57 4.73-.02 3.41.55 6.02 1.7 7.83s2.79 2.72 4.91 2.73c2.15.01 3.81-.88 4.99-2.68 1.17-1.8 1.77-4.4 1.79-7.81z"/><path d="m296.11 938.32c-1.52 0-2.9-.29-4.15-.85-1.24-.56-2.32-1.39-3.21-2.51-.9-1.12-1.58-2.52-2.06-4.2s-.71-3.65-.7-5.9c.01-2.42.31-4.48.9-6.17.58-1.69 1.35-3.06 2.31-4.13.95-1.07 2.04-1.83 3.26-2.31 1.22-.47 2.49-.7 3.81-.7s2.59.26 3.83.76c1.23.5 2.32 1.29 3.26 2.37s1.69 2.46 2.26 4.16c.56 1.69.84 3.74.82 6.13-.01 2.25-.27 4.22-.77 5.89s-1.2 3.07-2.11 4.17c-.91 1.11-2 1.93-3.26 2.47-1.27.54-2.66.81-4.18.8zm6.79-13.36c.01-1.89-.16-3.49-.51-4.82s-.82-2.41-1.42-3.26-1.3-1.47-2.12-1.85-1.68-.58-2.6-.59c-.92 0-1.78.19-2.59.6-.81.4-1.51 1.03-2.12 1.87s-1.09 1.92-1.46 3.25c-.37 1.32-.55 2.9-.57 4.73-.02 3.41.55 6.02 1.7 7.83s2.79 2.72 4.91 2.73c2.15.01 3.81-.88 4.99-2.68 1.17-1.8 1.77-4.4 1.79-7.81z"/><path d="m321.2 938.47c-1.52 0-2.9-.29-4.15-.85-1.24-.56-2.32-1.39-3.21-2.51-.9-1.12-1.58-2.52-2.06-4.2s-.71-3.65-.7-5.9c.01-2.42.31-4.48.9-6.17.58-1.69 1.35-3.06 2.31-4.13.95-1.07 2.04-1.83 3.26-2.31 1.22-.47 2.49-.7 3.81-.7s2.59.26 3.83.76c1.23.5 2.32 1.29 3.26 2.37s1.69 2.46 2.26 4.16c.56 1.69.84 3.74.82 6.13-.01 2.25-.27 4.22-.77 5.89s-1.2 3.07-2.11 4.17c-.91 1.11-2 1.93-3.26 2.47-1.27.54-2.66.81-4.18.8zm6.79-13.36c.01-1.89-.16-3.49-.51-4.82s-.82-2.41-1.42-3.26-1.3-1.47-2.12-1.85c-.82-.39-1.68-.58-2.6-.59-.92 0-1.78.19-2.59.6-.81.4-1.51 1.03-2.12 1.87s-1.09 1.92-1.46 3.25c-.37 1.32-.55 2.9-.57 4.73-.02 3.41.55 6.02 1.7 7.83s2.79 2.72 4.91 2.73c2.15.01 3.81-.88 4.99-2.68 1.17-1.8 1.77-4.4 1.79-7.81z"/><path d="m346.29 938.62c-1.52 0-2.9-.29-4.15-.85-1.24-.56-2.32-1.39-3.21-2.51-.9-1.12-1.58-2.52-2.06-4.2s-.71-3.65-.7-5.9c.01-2.42.31-4.48.9-6.17.58-1.69 1.35-3.06 2.31-4.13.95-1.07 2.04-1.83 3.26-2.31 1.22-.47 2.49-.7 3.81-.7s2.59.26 3.83.76c1.23.5 2.32 1.29 3.26 2.37s1.69 2.46 2.26 4.16c.56 1.69.84 3.74.82 6.13-.01 2.26-.27 4.22-.77 5.89s-1.2 3.06-2.11 4.17-2 1.93-3.26 2.47c-1.27.54-2.66.81-4.18.8zm6.79-13.36c.01-1.89-.16-3.49-.51-4.82s-.82-2.41-1.42-3.26-1.3-1.47-2.12-1.85-1.68-.58-2.6-.59c-.92 0-1.78.19-2.59.6-.81.4-1.51 1.03-2.12 1.87s-1.09 1.92-1.46 3.25c-.37 1.32-.55 2.9-.57 4.73-.02 3.41.55 6.02 1.7 7.83s2.79 2.72 4.91 2.73c2.15.01 3.81-.88 4.99-2.68 1.17-1.8 1.77-4.4 1.79-7.81z"/><path d="m371.37 938.76c-1.52 0-2.9-.29-4.15-.85-1.24-.56-2.32-1.39-3.21-2.51-.9-1.12-1.58-2.52-2.06-4.2s-.71-3.65-.7-5.9c.01-2.42.31-4.48.9-6.17.58-1.69 1.35-3.06 2.31-4.13.95-1.07 2.04-1.83 3.26-2.31 1.22-.47 2.49-.7 3.81-.7s2.59.26 3.83.76c1.23.5 2.32 1.29 3.26 2.37s1.69 2.46 2.26 4.16c.56 1.69.84 3.74.82 6.13-.01 2.26-.27 4.22-.77 5.89s-1.2 3.06-2.11 4.17-2 1.93-3.26 2.47c-1.27.54-2.66.81-4.18.8zm6.8-13.35c.01-1.89-.16-3.49-.51-4.82s-.82-2.41-1.42-3.26-1.3-1.47-2.12-1.85c-.82-.39-1.68-.58-2.6-.59-.92 0-1.78.19-2.59.6-.81.4-1.51 1.03-2.12 1.87s-1.09 1.92-1.46 3.25c-.37 1.32-.55 2.9-.57 4.73-.02 3.41.55 6.02 1.7 7.83s2.79 2.72 4.91 2.73c2.15.01 3.81-.88 4.99-2.68 1.17-1.8 1.77-4.4 1.79-7.81z"/><path d="m431.03 939.12c-1.52 0-2.9-.29-4.15-.85-1.24-.56-2.32-1.39-3.21-2.51-.9-1.12-1.58-2.52-2.06-4.2s-.71-3.65-.7-5.9c.01-2.42.31-4.48.9-6.17.58-1.69 1.35-3.06 2.31-4.13.95-1.07 2.04-1.83 3.26-2.31 1.22-.47 2.49-.7 3.81-.7s2.59.26 3.83.76c1.23.5 2.32 1.29 3.26 2.37s1.69 2.46 2.26 4.16c.56 1.69.84 3.74.82 6.13-.01 2.25-.27 4.22-.77 5.89s-1.2 3.07-2.11 4.17c-.91 1.11-2 1.93-3.26 2.47-1.27.54-2.66.81-4.18.8zm6.79-13.36c.01-1.89-.16-3.49-.51-4.82s-.82-2.41-1.42-3.26-1.3-1.47-2.12-1.85c-.82-.39-1.68-.58-2.6-.59-.92 0-1.78.19-2.59.6-.81.4-1.51 1.03-2.12 1.87s-1.09 1.92-1.46 3.25c-.37 1.32-.55 2.9-.57 4.73-.02 3.41.55 6.02 1.7 7.83s2.79 2.72 4.91 2.73c2.15.01 3.81-.88 4.99-2.68 1.17-1.8 1.77-4.4 1.79-7.81z"/><path d="m456.12 939.26c-1.52 0-2.9-.29-4.15-.85-1.24-.56-2.32-1.39-3.21-2.51-.9-1.12-1.58-2.52-2.06-4.2s-.71-3.65-.7-5.9c.01-2.42.31-4.48.9-6.17.58-1.69 1.35-3.06 2.31-4.13.95-1.07 2.04-1.83 3.26-2.31 1.22-.47 2.49-.7 3.81-.7s2.59.26 3.83.76c1.23.5 2.32 1.29 3.26 2.37s1.69 2.46 2.26 4.16c.56 1.69.84 3.74.82 6.13-.01 2.25-.27 4.22-.77 5.89s-1.2 3.06-2.11 4.17-2 1.93-3.26 2.47c-1.27.54-2.66.81-4.18.8zm6.79-13.36c.01-1.89-.16-3.49-.51-4.82s-.82-2.41-1.42-3.26-1.3-1.47-2.12-1.85-1.68-.58-2.6-.59c-.92 0-1.78.19-2.59.6-.81.4-1.51 1.03-2.12 1.87s-1.09 1.92-1.46 3.25c-.37 1.32-.55 2.9-.57 4.73-.02 3.41.55 6.02 1.7 7.83s2.79 2.72 4.91 2.73c2.15.01 3.81-.88 4.99-2.68 1.17-1.8 1.77-4.4 1.79-7.81z"/><path d="m481.2 939.41c-1.52 0-2.9-.29-4.15-.85-1.24-.56-2.32-1.39-3.21-2.51-.9-1.12-1.58-2.52-2.06-4.2s-.71-3.65-.7-5.9c.01-2.42.31-4.48.9-6.17.58-1.69 1.35-3.06 2.31-4.13.95-1.07 2.04-1.83 3.26-2.31 1.22-.47 2.49-.7 3.81-.7s2.59.26 3.83.76c1.23.5 2.32 1.29 3.26 2.37s1.69 2.46 2.26 4.16c.56 1.69.84 3.74.82 6.13-.01 2.25-.27 4.22-.77 5.89s-1.2 3.06-2.11 4.17-2 1.93-3.26 2.47c-1.27.54-2.66.81-4.18.8zm6.8-13.36c.01-1.89-.16-3.49-.51-4.82s-.82-2.41-1.42-3.26-1.3-1.47-2.12-1.85c-.82-.39-1.68-.58-2.6-.59-.92 0-1.78.19-2.59.6-.81.4-1.51 1.03-2.12 1.87s-1.09 1.92-1.46 3.25c-.37 1.32-.55 2.9-.57 4.73-.02 3.41.55 6.02 1.7 7.83s2.79 2.72 4.91 2.73c2.15.01 3.81-.88 4.99-2.68 1.17-1.8 1.77-4.4 1.79-7.81z"/><path d="m506.29 939.56c-1.52 0-2.9-.29-4.15-.85-1.24-.56-2.32-1.39-3.21-2.51-.9-1.12-1.58-2.52-2.06-4.2s-.71-3.65-.7-5.9c.01-2.42.31-4.48.9-6.17.58-1.69 1.35-3.06 2.31-4.13.95-1.07 2.04-1.83 3.26-2.31 1.22-.47 2.49-.7 3.81-.7s2.59.26 3.83.76c1.23.5 2.32 1.29 3.26 2.37s1.69 2.46 2.26 4.16c.56 1.69.84 3.74.82 6.13-.01 2.25-.27 4.22-.77 5.89s-1.2 3.06-2.11 4.17-2 1.93-3.26 2.47c-1.27.54-2.66.81-4.18.8zm6.79-13.36c.01-1.89-.16-3.49-.51-4.82s-.82-2.41-1.42-3.26-1.3-1.47-2.12-1.85c-.82-.39-1.68-.58-2.6-.59-.92 0-1.78.19-2.59.6-.81.4-1.51 1.03-2.12 1.87s-1.09 1.92-1.46 3.25c-.37 1.32-.55 2.9-.57 4.73-.02 3.41.55 6.02 1.7 7.83s2.79 2.72 4.91 2.73c2.15.01 3.81-.88 4.99-2.68 1.17-1.8 1.77-4.4 1.79-7.81z"/><path d="m570.14 939.93c-1.52 0-2.9-.29-4.15-.85-1.24-.56-2.32-1.39-3.21-2.51-.9-1.12-1.58-2.52-2.06-4.2s-.71-3.65-.7-5.9c.01-2.42.31-4.48.9-6.17.58-1.69 1.35-3.06 2.31-4.13.95-1.07 2.04-1.83 3.26-2.31 1.22-.47 2.49-.7 3.81-.7s2.59.26 3.83.76c1.23.5 2.32 1.29 3.26 2.37s1.69 2.46 2.26 4.16c.56 1.69.84 3.74.82 6.13-.01 2.25-.27 4.22-.77 5.89s-1.2 3.07-2.11 4.17c-.91 1.11-2 1.93-3.26 2.47-1.27.54-2.66.81-4.18.8zm6.79-13.36c.01-1.89-.16-3.49-.51-4.82s-.83-2.41-1.42-3.26c-.6-.85-1.3-1.47-2.12-1.85-.82-.39-1.68-.58-2.6-.59-.92 0-1.78.19-2.59.6-.81.4-1.51 1.03-2.12 1.87s-1.09 1.92-1.46 3.25c-.37 1.32-.55 2.9-.57 4.73-.02 3.41.55 6.02 1.7 7.83s2.79 2.72 4.91 2.73c2.15.01 3.81-.88 4.99-2.68 1.17-1.8 1.77-4.4 1.79-7.81z"/><path d="m595.23 940.08c-1.52 0-2.9-.29-4.15-.85-1.24-.56-2.32-1.39-3.21-2.51-.9-1.12-1.58-2.52-2.06-4.2s-.71-3.65-.7-5.9c.01-2.42.31-4.48.9-6.17.58-1.69 1.35-3.06 2.31-4.13.95-1.07 2.04-1.83 3.26-2.31 1.22-.47 2.49-.7 3.81-.7s2.59.26 3.83.76c1.23.5 2.32 1.29 3.26 2.37s1.69 2.46 2.26 4.16c.56 1.69.84 3.74.82 6.13-.01 2.25-.27 4.22-.77 5.89s-1.2 3.07-2.11 4.17c-.91 1.11-2 1.93-3.26 2.47-1.27.54-2.66.81-4.18.8zm6.79-13.36c.01-1.89-.16-3.49-.51-4.82s-.83-2.41-1.42-3.26c-.6-.85-1.3-1.47-2.12-1.85-.82-.39-1.68-.58-2.6-.59-.92 0-1.78.19-2.59.6-.81.4-1.51 1.03-2.12 1.87s-1.09 1.92-1.46 3.25c-.37 1.32-.55 2.9-.57 4.73-.02 3.41.55 6.02 1.7 7.83s2.79 2.72 4.91 2.73c2.15.01 3.81-.88 4.99-2.68 1.17-1.8 1.77-4.4 1.79-7.81z"/><path d="m620.32 940.23c-1.52 0-2.9-.29-4.15-.85-1.24-.56-2.32-1.39-3.21-2.51-.9-1.12-1.58-2.52-2.06-4.2s-.71-3.65-.7-5.9c.01-2.42.31-4.48.9-6.17.58-1.69 1.35-3.06 2.31-4.13.95-1.07 2.04-1.83 3.26-2.31 1.22-.47 2.49-.7 3.81-.7s2.59.26 3.83.76c1.23.5 2.32 1.29 3.26 2.37s1.69 2.46 2.26 4.16c.56 1.69.84 3.74.82 6.13-.01 2.25-.27 4.22-.77 5.89s-1.2 3.07-2.11 4.17c-.91 1.11-2 1.93-3.26 2.47-1.27.54-2.66.81-4.18.8zm6.79-13.36c.01-1.89-.16-3.49-.51-4.82s-.82-2.41-1.42-3.26-1.3-1.47-2.12-1.85c-.82-.39-1.68-.58-2.6-.59-.92 0-1.78.19-2.59.6-.81.4-1.51 1.03-2.12 1.87s-1.09 1.92-1.46 3.25c-.37 1.32-.55 2.9-.57 4.73-.02 3.41.55 6.02 1.7 7.83s2.79 2.72 4.91 2.73c2.15.01 3.81-.88 4.99-2.68 1.17-1.8 1.77-4.4 1.79-7.81z"/><path d="m645.4 940.37c-1.52 0-2.9-.29-4.15-.85-1.24-.56-2.32-1.39-3.21-2.51-.9-1.12-1.58-2.52-2.06-4.2s-.71-3.65-.7-5.9c.01-2.42.31-4.48.9-6.17.58-1.69 1.35-3.06 2.31-4.13.95-1.07 2.04-1.83 3.26-2.31 1.22-.47 2.49-.7 3.81-.7s2.59.26 3.83.76c1.23.5 2.32 1.29 3.26 2.37s1.69 2.46 2.26 4.16c.56 1.69.84 3.74.82 6.13-.01 2.25-.27 4.22-.77 5.89s-1.2 3.07-2.11 4.17c-.91 1.11-2 1.93-3.26 2.47-1.27.54-2.66.81-4.18.8zm6.8-13.35c.01-1.89-.16-3.49-.51-4.82s-.82-2.41-1.42-3.26-1.3-1.47-2.12-1.85c-.82-.39-1.68-.58-2.6-.59-.92 0-1.78.19-2.59.6-.81.4-1.51 1.03-2.12 1.87s-1.09 1.92-1.46 3.25c-.37 1.32-.55 2.9-.57 4.73-.02 3.41.55 6.02 1.7 7.83s2.79 2.72 4.91 2.73c2.15.01 3.81-.88 4.99-2.68 1.17-1.8 1.77-4.4 1.79-7.81z"/></g><ellipse cx="302.52" cy="1133.24" fill="#1f1f39" rx="105.6" ry="104.69" transform="matrix(.00733032 -.99997313 .99997313 .00733032 -832.91 1427.43)"/><ellipse cx="302.52" cy="1133.24" fill="#fff" rx="44.74" ry="44.36" transform="matrix(.00733032 -.99997313 .99997313 .00733032 -832.92 1427.41)"/><path d="m396.82 977.07v.75c0 .64.02 1.28.03 1.9.03 1.45.07 2.84.13 4.16.04.9.08 1.76.13 2.6.23 4.05.53 7.3.78 9.5v.06c.05.41.09.79.13 1.13.09.71.16 1.23.2 1.55v.04c0 .05.01.09.02.13v.04c.02.12.03.19.03.19l55.27.7c-.31-2.9-.45-5.72-.43-8.45 0-.44.01-.88.02-1.32.01-.63.04-1.25.07-1.87.02-.41.05-.82.08-1.23.03-.48.07-.96.12-1.44.03-.38.07-.76.12-1.13.02-.2.04-.4.07-.59.04-.34.08-.68.13-1.01 0-.05.01-.1.02-.15.05-.41.11-.81.18-1.21 0-.04.01-.08.02-.12.06-.39.13-.78.2-1.16.01-.07.03-.14.04-.21.02-.08.03-.15.04-.23.06-.36.13-.71.21-1.05.04-.18.07-.35.11-.53.08-.38.16-.76.26-1.14.11-.48.23-.95.35-1.42 0-.03.01-.05.02-.07.11-.4.21-.79.33-1.19.04-.15.08-.3.13-.45.11-.37.22-.74.34-1.1.14-.44.28-.87.43-1.3.12-.36.25-.72.37-1.07.06-.17.12-.33.18-.5.16-.43.33-.86.5-1.29.16-.41.33-.82.51-1.22.18-.43.37-.86.57-1.29.15-.33.3-.65.46-.97.08-.17.16-.33.24-.5.4-.81.82-1.62 1.25-2.41.18-.32.36-.65.55-.97 2.56-4.45 5.68-8.47 9.23-12.04.29-.3.59-.59.89-.88.39-.38.78-.75 1.18-1.12.27-.26.56-.51.84-.76.05-.05.1-.09.15-.13.31-.27.62-.54.93-.8.24-.2.48-.4.72-.6.22-.18.45-.36.67-.54.24-.19.48-.38.73-.57 1.7-1.31 3.46-2.55 5.27-3.69.3-.19.59-.37.89-.55.09-.06.17-.11.26-.16.42-.26.84-.51 1.27-.75 2.35-1.35 4.79-2.57 7.29-3.65.33-.15.66-.29 1-.42.14-.06.27-.12.41-.17.44-.18.89-.36 1.34-.53.44-.17.89-.34 1.34-.5.14-.06.29-.11.43-.16.41-.15.82-.29 1.23-.43.42-.15.85-.28 1.28-.42 1.13-.36 2.27-.69 3.42-.99.35-.1.7-.19 1.06-.28.17-.04.34-.09.51-.13.36-.09.73-.18 1.09-.26.25-.06.49-.11.73-.17.28-.06.57-.13.86-.18.22-.05.43-.1.65-.14.47-.09.93-.18 1.4-.26 2.07-.37 4.16-.66 6.25-.86.54-.05 1.07-.1 1.61-.14s1.07-.08 1.61-.11c1.61-.09 3.22-.13 4.84-.12.45 0 .9.01 1.35.02.38 0 .75.02 1.13.03.28 0 .57.02.85.04h.07c.34.01.69.04 1.03.06.18 0 .35.02.53.03.48.03.97.07 1.45.12h.07c.27.02.55.05.82.08.87.08 1.73.19 2.59.31.44.06.88.12 1.32.19.45.08.91.15 1.36.22l.36.06c.47.09.94.18 1.41.27.02 0 .04 0 .06.01.53.11 1.04.21 1.56.33h.04c.51.12 1.01.24 1.52.36.52.13 1.03.26 1.55.4 22.53 6.11 41.98 23.27 47.51 53.21 1.1 5.97 1.65 12.46 1.55 19.47 48.24 2.48 288.73 5.54 288.73 5.54 1.46-9.68 3.96-18.25 7.29-25.75 22.8-51.5 84.33-52.37 112.71-13.16 8.49 11.73 14.02 27.05 14.65 45.67 36.21 1.69 42.44 2.09 54.87 2.4 11.61.29 37.11.85 41.75-18.06 5.19-21.15-3.95-46.09-10.48-59.11-16.1-32.06-63.63-28.26-133.24-46.91-63.11-16.91-78.33-8.1-89.69-22.58-11.36-14.47-42.43-72.46-75.16-81.18-19.53-5.2-91.91-7.94-149.89-8.79-.53 0-1.06-.02-1.59-.03-.51 0-1.02-.02-1.53-.02-1.02-.01-2.03-.02-3.03-.04-1.01-.01-2.01-.02-3.01-.04-1.99-.02-3.96-.04-5.9-.06-1.26-.01-2.52-.02-3.77-.03-4.82-.04-9.47-.07-13.89-.08-.94 0-1.87 0-2.79 0-.26 0-.52 0-.77 0-1.23 0-2.43 0-3.62 0-.72 0-1.43 0-2.14 0h-.28c-.82 0-1.63 0-2.42 0-.09 0-.19 0-.28 0-.54 0-1.07 0-1.6.01h-.27c-.39 0-.77 0-1.15 0-.1 0-.21 0-.3 0-.55 0-1.08 0-1.61.01-2.53.02-4.93.05-7.17.09-.8.01-1.58.03-2.34.04-.43 0-.85.01-1.26.02-.43.01-.86.02-1.27.03-.14 0-.27 0-.41 0-.91.02-1.77.04-2.61.07-.42 0-.83.02-1.22.03-.4.01-.79.03-1.17.04-.27 0-.55.02-.8.03-.61.02-1.2.04-1.76.07-1.25.05-2.36.11-3.32.17-.14 0-.28.02-.42.03s-.28.02-.41.03c-.39.03-.76.06-1.09.09-.22.02-.43.04-.62.06s-.37.04-.54.06c-.16.02-.31.04-.44.06 0 0-.01 0-.02 0-.07 0-.13.02-.2.03-.59.12-1.19.25-1.77.39-1.17.28-2.32.59-3.45.94-.85.26-1.68.54-2.51.83-.35.12-.68.24-1.02.37-.44.17-.89.34-1.33.52-.36.15-.72.29-1.07.45-.48.2-.95.42-1.42.63-.26.12-.52.24-.78.37-.52.25-1.03.51-1.55.77l-.7.37s-.07.04-.1.06c-.24.13-.48.26-.72.39-.5.28-1 .56-1.5.85s-.99.59-1.48.89c-.49.31-.97.61-1.45.93-.24.16-.48.32-.72.48-.23.16-.47.32-.71.49-.23.16-.47.33-.7.5s-.47.34-.69.51c-.23.17-.47.34-.69.52-.23.17-.46.34-.69.52-.48.37-.95.74-1.42 1.12s-.93.76-1.39 1.15c-.61.52-1.22 1.05-1.82 1.59-.6.54-1.19 1.09-1.78 1.64s-1.17 1.12-1.75 1.69c-.87.86-1.72 1.74-2.56 2.63-.56.59-1.11 1.2-1.66 1.8-.69.76-1.36 1.53-2.03 2.31-.33.39-.67.78-1 1.18s-.66.79-.99 1.19c-.52.64-1.04 1.28-1.55 1.92-.51.65-1.02 1.3-1.52 1.96-.5.65-1 1.31-1.5 1.98-.49.66-.99 1.33-1.48 2-.39.53-.78 1.07-1.16 1.61-.33.46-.66.92-.98 1.38-.08.12-.17.24-.25.35-.35.5-.7 1.01-1.05 1.51-.05.07-.1.15-.16.22-.32.47-.64.94-.96 1.41-.74 1.09-1.48 2.18-2.21 3.28-.36.54-.72 1.09-1.09 1.64-1.32 2-2.63 4-3.92 5.98-.22.34-.44.68-.66 1.02-.44.68-.88 1.35-1.31 2.02-.65 1.01-1.3 2.01-1.95 3-.65 1-1.29 1.98-1.94 2.95-.21.32-.43.65-.64.97-.19.29-.38.58-.57.86-.85 1.28-1.7 2.53-2.56 3.76-.03.04-.05.08-.08.11-.64.93-1.28 1.84-1.93 2.74-.21.3-.43.6-.64.89-.43.59-.85 1.18-1.29 1.75-.44.58-.87 1.15-1.31 1.72-1.07 1.39-2.15 2.73-3.24 4-.46.54-.92 1.07-1.38 1.58-.42.47-.84.92-1.26 1.36-.22.24-.44.47-.66.7s-.45.46-.67.68c-.78.77-1.56 1.52-2.36 2.22-.35.31-.7.61-1.05.91-.46.39-.92.76-1.38 1.12t0 0c-.47.36-.94.71-1.41 1.03-.21.15-.42.3-.64.43-.21.14-.41.28-.62.41s-.41.26-.63.38c-.47.29-.95.57-1.43.83-.16.09-.33.17-.49.26-.67.34-1.35.66-2.04.95-.24.1-.49.2-.74.29-.07.03-.14.05-.21.08-.19.07-.38.14-.57.2-.25.09-.5.17-.75.25-.04.01-.08.02-.12.04-.23.07-.45.13-.68.19-.26.07-.52.14-.78.2-.26.06-.52.12-.77.17-.01 0-.02 0-.03 0-.26.06-.53.1-.79.14-.22.03-.43.07-.65.09-.09.01-.18.02-.26.03-.51.06-1.02.11-1.54.13-26.6 1.42-38.41 7.92-52.68 22.66-.39.4-.77.81-1.15 1.22-.33.35-.65.71-.97 1.08-.12.13-.23.27-.35.41-.23.26-.45.52-.67.78-.09.1-.18.21-.26.31-.69.84-1.36 1.68-2 2.55-.31.41-.61.83-.91 1.24-.04.06-.09.13-.14.2-.27.38-.54.77-.8 1.15-.04.06-.08.11-.12.17-.3.44-.58.88-.87 1.32-.27.43-.54.85-.81 1.28-.11.18-.22.36-.33.54-.18.29-.34.57-.51.86-.14.23-.28.47-.41.7-.18.31-.36.63-.53.95-.15.27-.3.54-.45.82-.13.24-.25.47-.38.71-.18.33-.35.67-.52 1.01-.32.65-.65 1.3-.96 1.95-.16.33-.31.66-.47 1-.16.33-.31.67-.46 1-.3.68-.6 1.36-.88 2.04-.25.61-.5 1.22-.74 1.84-.19.49-.38.98-.56 1.47-.1.26-.19.52-.29.78-.25.69-.49 1.38-.73 2.07-.14.42-.28.83-.42 1.25v.01c-.17.51-.33 1.03-.49 1.55-.48 1.57-.93 3.15-1.35 4.73-.14.53-.27 1.05-.4 1.57-.13.53-.26 1.05-.38 1.58-.08.34-.16.69-.23 1.03-.07.28-.13.57-.19.84-.1.47-.2.94-.3 1.41-.08.38-.16.77-.23 1.15-.13.69-.26 1.38-.38 2.06-.28 1.52-.53 3.04-.75 4.55-.07.46-.13.92-.2 1.38-.06.46-.12.91-.18 1.37-.06.47-.12.94-.18 1.41-.05.42-.09.83-.14 1.24-.02.14-.03.28-.05.42-.18 1.69-.34 3.36-.47 5-.05.58-.09 1.16-.13 1.73-.12 1.71-.21 3.39-.28 5.03v.04c-.07 1.66-.11 3.27-.14 4.84-.02 1.43-.02 2.84-.01 4.19z" fill="#87c3d5"/><path d="m462.51 994.87c-.12 18.83 8.8 35.6 22.7 46.2 9.59 7.31 21.53 11.69 34.52 11.77 13.53.09 26-4.5 35.89-12.25 13.35-10.46 21.97-26.69 22.09-44.97.03-3.94-.35-7.79-1.07-11.51-5.16-26.33-28.28-46.28-56.14-46.46-26.78-.18-49.4 17.94-56.01 42.65-1.25 4.64-1.92 9.53-1.96 14.56z" fill="#3b3b4c"/><path d="m497.05 995.09c-.05 7.54 3.52 14.25 9.09 18.5 3.84 2.93 8.62 4.68 13.82 4.71 5.42.04 10.41-1.8 14.37-4.91 5.35-4.19 8.8-10.69 8.84-18 .01-1.58-.14-3.12-.43-4.61-2.06-10.54-11.32-18.53-22.48-18.6-10.72-.07-19.78 7.18-22.43 17.08-.5 1.86-.77 3.82-.78 5.83z" fill="#fdfffd"/><path d="m894.84 1003.59c-.1 15.89 6.97 30.14 18.17 39.7 8.94 7.63 20.51 12.26 33.19 12.34 12.13.08 23.31-4.02 32.18-10.96 12-9.39 19.76-23.98 19.86-40.41.08-12.01-3.94-23.09-10.76-31.91-9.38-12.16-24.06-20.03-40.61-20.13-21.05-.14-39.24 12.33-47.42 30.33-2.92 6.41-4.57 13.53-4.62 21.03z" fill="#3b3b4c"/><path d="m925.48 1003.8c-.04 6.47 2.84 12.28 7.4 16.17 3.64 3.11 8.36 4.99 13.52 5.03 4.94.03 9.5-1.64 13.11-4.47 4.89-3.83 8.05-9.77 8.09-16.46.03-4.89-1.61-9.4-4.38-13-3.82-4.95-9.8-8.16-16.54-8.2-8.57-.06-15.99 5.02-19.32 12.36-1.19 2.61-1.86 5.51-1.88 8.57z" fill="#fdfffd"/><path d="m833.82 880.17c-24.13-.16-227.95-1.22-294.35-1.57-9.12-.05-11.03-8.74-10.18-17.82 1.97-21.07 7.74-46.42 39.49-60.27 40.18-17.53 215.18-2.14 231 5.92 14.61 7.45 36.43 36.39 51.04 55.59 6.01 7.9-7.06 18.36-16.99 18.14z" fill="#3b3b4c" opacity=".47"/><path d="m833.82 880.17c-24.13-.16-227.95-1.22-294.35-1.57-9.12-.05-11.03-8.74-10.18-17.82 1.97-21.07 7.74-46.42 39.49-60.27 40.18-17.53 215.18-2.14 231 5.92 14.61 7.45 36.43 36.39 51.04 55.59 6.01 7.9-7.06 18.36-16.99 18.14z" fill="#3b3b4c" opacity=".47"/><path d="m396.82 977.07v.75c.01.64.02 1.28.03 1.9.03 1.45.07 2.84.13 4.16.04.89.08 1.76.13 2.6.22 4.05.53 7.3.78 9.5v.06c.04.41.09.79.13 1.13.08.7.15 1.23.2 1.55v.04c0 .05.01.09.02.13v.04c.01.12.02.19.02.19l55.27.7c-.31-2.9-.45-5.72-.43-8.45 0-.44.01-.88.02-1.32.01-.63.04-1.25.07-1.87.02-.41.05-.82.08-1.23.03-.48.07-.96.12-1.44.03-.38.07-.76.12-1.13.02-.2.04-.4.07-.59.04-.34.08-.68.13-1.01 0-.05.01-.1.02-.15.05-.41.11-.81.18-1.21 0-.04.01-.08.02-.12.06-.39.13-.78.2-1.16.01-.07.03-.14.04-.21.02-.08.03-.15.04-.23.06-.36.13-.7.21-1.05.03-.18.07-.35.11-.53.08-.38.16-.76.26-1.14.11-.47.23-.95.35-1.42 0-.03.01-.05.02-.07.11-.4.21-.8.33-1.19.04-.15.08-.3.13-.45.11-.37.22-.74.34-1.1.14-.44.28-.87.43-1.3.12-.36.25-.72.37-1.07.06-.17.12-.34.18-.5.16-.43.33-.86.5-1.29.16-.41.34-.82.51-1.22.18-.43.37-.86.57-1.29.15-.33.3-.65.46-.97.08-.16.16-.33.24-.5.4-.81.82-1.62 1.25-2.41.18-.32.36-.65.55-.97 2.56-4.45 5.68-8.47 9.23-12.04.29-.3.59-.59.89-.88.39-.38.78-.75 1.18-1.12.28-.26.56-.51.84-.76.05-.05.1-.09.15-.13.31-.27.62-.54.93-.8l.72-.6c.22-.18.45-.36.67-.54.24-.19.48-.38.73-.57 1.7-1.31 3.46-2.55 5.27-3.69.29-.19.59-.37.89-.55.09-.06.17-.11.26-.16.42-.26.84-.51 1.27-.75 2.35-1.35 4.79-2.57 7.29-3.65.33-.15.66-.29 1-.42.14-.06.27-.12.41-.17.44-.18.89-.36 1.34-.53.44-.17.89-.34 1.34-.5.14-.06.29-.11.43-.16.41-.15.82-.29 1.23-.43.42-.15.85-.28 1.28-.42 1.13-.36 2.27-.69 3.42-.99.35-.1.71-.19 1.06-.28.17-.05.34-.09.51-.13.36-.09.73-.18 1.09-.26.24-.06.49-.12.73-.17.28-.07.57-.13.86-.18.22-.05.43-.1.65-.14.46-.09.93-.18 1.4-.26 2.07-.37 4.16-.66 6.25-.86.54-.05 1.07-.1 1.61-.14s1.07-.08 1.61-.11c1.61-.09 3.22-.13 4.84-.12.45 0 .9.01 1.35.02.38 0 .75.02 1.13.03.28 0 .57.02.85.04h.07c.35.01.69.04 1.03.06.18 0 .35.02.53.03.48.03.96.07 1.45.12h.07c.27.02.55.05.82.08.87.08 1.73.19 2.59.31.44.06.88.12 1.32.19.45.07.9.15 1.36.22l.36.06 1.41.27c.02 0 .04 0 .06.01.52.1 1.04.21 1.56.33h.04c.5.12 1.01.23 1.52.36.52.13 1.03.26 1.55.4.18.04.36.1.53.14 26.48-14.51 49.9-27.28 69.49-52.46 15.06-19.35 27.87-46.04 38.08-86.48.85-3.38 1.69-6.87 2.51-10.45-.53-.01-1.06-.02-1.59-.03-.51 0-1.02-.02-1.53-.02-1.02-.01-2.03-.02-3.03-.04-1.01-.01-2.01-.02-3.01-.04-1.99-.02-3.96-.04-5.9-.06-1.26-.01-2.52-.02-3.77-.03-4.82-.04-9.47-.07-13.89-.08-.94 0-1.87 0-2.79 0-.26 0-.52 0-.77 0-1.23 0-2.43 0-3.62 0-.72 0-1.43 0-2.14 0h-.28c-.82 0-1.63 0-2.42 0-.09 0-.19 0-.28 0-.54 0-1.07 0-1.6.01h-.27c-.39 0-.77 0-1.15 0-.1 0-.21 0-.3 0-.55 0-1.08 0-1.61.01-2.53.02-4.93.05-7.17.09-.8.01-1.58.02-2.34.04-.43 0-.85.01-1.26.02-.43.01-.86.02-1.27.03-.14 0-.27 0-.41 0-.91.02-1.77.04-2.61.07-.42 0-.83.02-1.22.03-.4.01-.79.03-1.17.04-.27 0-.55.02-.8.03-.61.02-1.2.04-1.76.07-1.25.05-2.36.11-3.32.17-.14 0-.28.02-.42.03s-.28.02-.41.03c-.4.03-.76.06-1.09.09-.22.02-.43.04-.62.06s-.37.04-.54.06c-.16.02-.3.04-.44.06 0 0-.01 0-.02 0-.07 0-.13.02-.2.03-.59.12-1.19.25-1.77.4-1.17.28-2.32.59-3.45.94-.85.26-1.68.54-2.51.83-.35.12-.68.24-1.02.37-.45.17-.89.34-1.33.52-.36.15-.72.29-1.07.45-.48.2-.95.42-1.42.63-.26.12-.52.24-.78.37-.52.25-1.03.51-1.55.77l-.7.37s-.07.04-.1.06c-.24.13-.48.26-.72.39-.5.28-1 .56-1.5.85s-.99.59-1.48.89-.97.61-1.45.93c-.24.16-.48.32-.72.48-.23.16-.47.32-.71.49-.23.16-.47.33-.7.5s-.47.34-.69.51c-.23.17-.47.34-.69.52-.23.17-.46.34-.69.52-.48.37-.95.74-1.42 1.12s-.93.76-1.39 1.15c-.61.52-1.22 1.04-1.82 1.59-.6.53-1.19 1.08-1.78 1.64-.59.55-1.17 1.12-1.75 1.69-.87.86-1.72 1.73-2.56 2.63-.56.59-1.12 1.19-1.66 1.8-.69.76-1.36 1.53-2.03 2.31-.33.39-.67.78-1 1.18s-.66.79-.99 1.19c-.52.64-1.04 1.28-1.55 1.92-.51.65-1.02 1.3-1.52 1.96-.51.66-1.01 1.31-1.5 1.98-.49.66-.99 1.33-1.48 2-.39.53-.78 1.07-1.16 1.61-.33.46-.66.92-.98 1.38-.08.12-.17.24-.25.35-.35.5-.7 1.01-1.05 1.51-.05.07-.1.15-.16.22-.32.47-.64.94-.96 1.41-.74 1.09-1.48 2.18-2.21 3.28-.36.54-.72 1.09-1.09 1.64-1.33 2-2.63 4-3.92 5.98-.22.34-.44.68-.66 1.02-.44.68-.88 1.35-1.31 2.02-.66 1.01-1.31 2.01-1.95 3-.65 1-1.29 1.98-1.94 2.95-.21.32-.43.65-.64.97-.19.29-.39.58-.57.86-.85 1.28-1.71 2.53-2.56 3.76-.03.04-.05.08-.08.11-.65.93-1.29 1.84-1.93 2.74-.21.3-.43.6-.64.89-.43.59-.86 1.18-1.29 1.75-.44.58-.87 1.15-1.31 1.72-1.08 1.39-2.15 2.72-3.24 4-.46.54-.92 1.07-1.38 1.58-.42.46-.84.92-1.26 1.36-.22.24-.44.47-.66.7s-.45.46-.67.68c-.78.77-1.56 1.52-2.36 2.22-.35.31-.7.61-1.05.91-.46.38-.92.76-1.38 1.12t0 0c-.47.36-.94.71-1.41 1.03-.21.15-.42.3-.64.43-.21.14-.41.28-.62.41s-.41.26-.63.38c-.47.29-.95.57-1.43.83-.17.09-.33.17-.49.26-.67.34-1.35.66-2.04.95-.25.1-.49.2-.74.29-.07.03-.14.05-.21.08-.19.07-.38.14-.57.2-.25.09-.5.17-.75.25-.04.01-.08.02-.12.04-.23.07-.45.13-.68.19-.26.07-.52.14-.78.2-.26.06-.52.12-.77.17-.01 0-.02 0-.03 0-.26.06-.53.1-.79.14-.22.03-.43.07-.65.09-.09.01-.18.02-.26.03-.51.06-1.02.11-1.54.13-26.6 1.42-38.41 7.92-52.68 22.66-.39.4-.77.81-1.15 1.22-.33.35-.65.71-.97 1.08-.12.13-.23.27-.35.41-.23.26-.45.52-.67.78-.09.1-.18.21-.26.31-.69.83-1.36 1.68-2 2.55-.31.41-.61.83-.91 1.24-.04.06-.09.13-.14.2-.27.38-.54.77-.8 1.15-.04.06-.08.11-.12.17-.3.44-.58.88-.87 1.32-.27.43-.54.85-.81 1.28-.11.18-.22.36-.33.54-.18.29-.34.57-.51.86-.14.23-.28.47-.41.7-.18.31-.36.63-.53.95-.15.27-.3.54-.45.82-.13.24-.25.47-.38.71-.18.33-.35.67-.52 1.01-.33.65-.65 1.3-.96 1.95-.16.33-.31.66-.47 1-.16.33-.31.67-.46 1-.3.68-.6 1.36-.88 2.04-.25.61-.5 1.22-.74 1.84-.19.49-.38.98-.56 1.47-.1.26-.19.52-.29.78-.25.69-.49 1.38-.73 2.07-.14.42-.28.83-.42 1.25v.01c-.17.51-.33 1.03-.49 1.55-.48 1.57-.93 3.15-1.35 4.73-.14.53-.27 1.05-.4 1.57-.13.53-.26 1.05-.38 1.58-.08.34-.16.69-.23 1.03-.07.28-.13.57-.19.84-.1.47-.2.94-.3 1.41-.08.38-.16.77-.23 1.15-.13.69-.26 1.38-.38 2.06-.28 1.52-.53 3.04-.75 4.55-.07.46-.13.92-.2 1.38-.06.46-.12.91-.18 1.37-.06.47-.12.94-.18 1.41-.05.42-.09.83-.14 1.24-.02.14-.03.28-.05.42-.19 1.69-.35 3.36-.47 5-.05.58-.09 1.16-.12 1.73-.12 1.71-.21 3.39-.28 5.03v.04c-.07 1.66-.11 3.27-.14 4.84-.02 1.43-.03 2.83-.02 4.19z" fill="#1f1f39" opacity=".15"/><path d="m276.39 788.09c83.04 1.03 55.89 8.16 117.5-.71 7.31-1.06 13.27-.07 18.21 2.45 8.29 4.22 13.74 12.75 17.97 23.23 8.12 20.11 7.08 32.11 17.73 49.71 18.3 30.28 115.27 14.58 143.58 5.21 84.95-28.08 103.49-87.81 103.49-87.81-12.26-38.95-17.64-45.34-23.2-59.05-6.28-15.47-6.84-20.86 1.6-29.66 6.44-6.69 18.11-15.37 36.47-31.99 59.08-53.48 101.17-70.66 15.22-71.91-85.94-1.25-176.8 3.63-225.22 19.74-48.43 16.11-302.29 179.8-223.35 180.78z" fill="#303047"/><path d="m764.75 599.18s5.81 11.35-5.55 20.99-162.49 136.68-206.7 150.95-283.28 25.62-285 20.61-12.75-10.16 1.83-20.29 495.42-172.27 495.42-172.27z" fill="#0f0f21"/><path d="m764.75 599.18c-45.77 39.98-180.57 150.88-211.76 158.66s-287.93 34.81-288.08 26.12-1.15-10.07 6.65-18.16 227.21-145.5 227.21-145.5l265.99-21.12z" fill="#303047"/><path d="m412.1 789.83c8.29 4.22 13.74 12.75 17.97 23.23 33.38-.41 104.64-2.63 136.48-13.86 30.79-10.86 78.46-46.39 105.11-78.07-6.28-15.47-6.84-20.86 1.6-29.66l-1.91.32-126.92 75.17-132.36 20.44v2.44z" fill="#1f1f39" opacity=".51"/><path d="m336.72 786.33c2.78-10.4 180.5-100.04 181.96-100.56s9.11-14.46 2.98-13.22-195.77 103.33-193.18 111.1 4.37 6.92 4.37 6.92z" fill="#f4ad00"/><path d="m499.49 688.78c2.07 5.85 12.58 4.04 21.63.83s16.63-8.73 14.56-14.58-13.02-9.82-22.07-6.61-16.19 14.51-14.12 20.36z" fill="#f4ad00"/><path d="m499.49 688.78c2.07 5.85 12.58 4.04 21.63.83s16.63-8.73 14.56-14.58-13.02-9.82-22.07-6.61-16.19 14.51-14.12 20.36z" fill="#1f1f39" opacity=".12"/><path d="m328.34 783.54c-.49.69-.77 1.52-.79 2.36-2.16 75.63-8.41 166.55.11 168.88 6.99 1.91 8.36-132.22 8.44-168.76 0-4.17-5.34-5.88-7.76-2.48z" fill="#f4ad00"/><path d="m337.03 1028.91c.78.74 1.24 1.75 1.33 2.82 2 23.46 24.04 50.97 15.66 50.29-8.57-.7-14.34-13.12-19.07-5.41s-19.25 23.15-18.67 11.8-5.7 5.15-17.75 8.5-40.96-2.39-25.74-7.22c15.22-4.82 44.28-37.9 41.64-62.06-2.3-21.01 17.43-3.6 22.6 1.28z" fill="#f4ad00"/><path d="m311.55 1029.01c3.22 3.36 27.47 1.88 30.88-.13 1.89-1.08 1.63-13.32.95-24.11-.45-7.84-1.07-14.91-1.2-16.36-.02-.19-.02-.36-.01-.55.08-1.82.07-4.33-.05-7.3-.59-15.35-4.12-42.52-15.25-42.11-10.03.4-13.75 28.26-14.95 42.09-.4 4.66-.55 7.73-.55 7.73s-.65 7.83-1.03 16.64c-.43 10.44-.54 22.27 1.2 24.1z" fill="#1f1f39"/><path d="m310.5 1001.76c-.1 1.88 1.04 3.62 2.82 4.25 4.39 1.56 9.7 3.16 13.64 3.44 3.76.24 9.05-1.48 13.61-3.42 1.68-.72 2.74-2.4 2.62-4.23-.42-6.59-.91-12.12-1.02-13.39-.02-.19-.02-.36-.01-.55.03-.69.05-1.48.05-2.36 0-2.55-2.21-4.52-4.75-4.26-7.16.75-15.03.36-21.22-.24-2.4-.23-4.5 1.57-4.67 3.97-.14 2.07-.2 3.29-.2 3.29s-.5 6.05-.88 13.49z" fill="#fff" opacity=".26"/><ellipse cx="1053.98" cy="1132.63" fill="#1f1f39" rx="105.6" ry="104.69" transform="matrix(.00837748 -.99996491 .99996491 .00837748 -87.48 2177.04)"/><ellipse cx="1053.98" cy="1132.63" fill="#fff" rx="44.74" ry="44.36" transform="matrix(.00855201 -.99996343 .99996343 .00855201 -87.56 2176.96)"/></svg>