<?xml version="1.0" encoding="UTF-8"?>
<svg id="Layer_1" data-name="Layer 1" xmlns="http://www.w3.org/2000/svg" version="1.1" viewBox="0 0 1441.3 1063.9">
  <defs>
    <style>
      .cls-1 {
        fill: #1b8eff;
      }

      .cls-1, .cls-2, .cls-3, .cls-4, .cls-5, .cls-6, .cls-7, .cls-8, .cls-9 {
        stroke-width: 0px;
      }

      .cls-10 {
        font-size: 98.5px;
      }

      .cls-10, .cls-11, .cls-12, .cls-5, .cls-13, .cls-14, .cls-15 {
        fill: #013d5b;
      }

      .cls-10, .cls-11, .cls-12, .cls-13, .cls-14, .cls-15 {
        font-style: italic;
      }

      .cls-10, .cls-13, .cls-14, .cls-15 {
        font-family: Optimist-SemiBoldItalic, Optimist;
        font-weight: 600;
      }

      .cls-2 {
        fill: #d0a8ff;
      }

      .cls-11 {
        font-family: Optimist-Italic, Optimist;
        font-size: 52.7px;
      }

      .cls-3 {
        fill: #0c2248;
      }

      .cls-4 {
        fill: #fcb500;
      }

      .cls-12 {
        font-family: Optimist-LightItalic, Optimist;
        font-size: 118.8px;
        font-weight: 300;
      }

      .cls-13 {
        font-size: 71.4px;
      }

      .cls-14 {
        font-size: 91.6px;
      }

      .cls-6 {
        fill: #cd2328;
      }

      .cls-15 {
        font-size: 182.1px;
      }

      .cls-7 {
        fill: #14bf96;
      }

      .cls-8 {
        fill: #fff;
      }

      .cls-9 {
        fill: #023d5b;
      }
    </style>
  </defs>
  <g>
    <g>
      <g>
        <g>
          <g id="gLrYwI">
            <path class="cls-7" d="M855.5,226.5c0,4.9-.1,9.8,0,14.7,0,2.6-.8,4.2-3.1,5.5-8.5,4.7-17,9.6-25.4,14.5-1.7,1-3.5,1-5.2,0-4.4-2.5-8.8-4.9-13.1-7.4-4.2-2.4-8.3-4.8-12.5-7.1-2.2-1.2-3.2-2.8-3.2-5.3,0-10,0-20,0-30,0-.4,0-.8,0-1.1,0-1.6.7-2.7,2.2-3.5,5.3-3,10.5-6,15.7-9,3.3-1.9,6.6-3.7,9.8-5.6,2.3-1.4,4.4-1.5,6.9-.1,8.4,4.9,16.9,9.7,25.4,14.5,1.7.9,2.4,2.2,2.4,4.1,0,5.3,0,10.6,0,15.9h0ZM825.1,246.3c6.1-.1,11.9-2.4,16.6-7.5,4.4-4.8,6.5-10.5,6.5-17,0-1.7-.3-2-2-1.9-3.4.2-6.5,1.2-9.4,3-6.9,4.2-10.7,10.5-11.5,18.5,0,.8-.2,1.6-.4,2.4,0,.1-.2.3-.4.3-.3,0-.5-.1-.5-.4,0-.4-.1-.7-.1-1.1,0-1.3-.2-2.5-.5-3.7-2.1-9.1-7.5-15.3-16.4-18.3-1.4-.5-2.8-.7-4.3-.7-1.5,0-1.8.2-1.9,1.7,0,1.4,0,2.8.1,4.1,2,12.5,11.9,20.5,24.3,20.6ZM816.9,213.5c0,4.2,3.1,7.5,7.3,7.6,4.2,0,7.6-3.2,7.7-7.4,0-3.9-3.4-7.5-7.4-7.6-4.2,0-7.6,3.2-7.6,7.4Z"/>
          </g>
          <g id="gLrYwI-2" data-name="gLrYwI">
            <g>
              <path class="cls-3" d="M891.7,221.9c1.2-.5,1.7-1.3,2.3-2,4.2-4.8,8.5-9.5,12.7-14.3,1.1-1.3,2.4-1.9,4.1-1.7,1.4,0,2.8,0,4.3,0,.8,0,1.6.1,2,1,.3.8,0,1.4-.6,1.9-1.6,1.9-3.2,3.7-4.9,5.6-3.4,3.8-6.8,7.6-10.2,11.4-1.4,1.6-1.4,1.6,0,3.2,5.2,6.2,10.5,12.5,15.7,18.7.1.2.3.3.4.5.5.7,1.1,1.4.7,2.3-.5,1-1.4,1.1-2.4,1.1-1.7,0-3.4,0-5.1,0-1.4,0-2.4-.5-3.3-1.6-4.4-5.5-8.8-10.9-13.2-16.4-.7-.8-1.3-1.7-2.1-2.4-.4.8-.2,1.5-.2,2.2,0,4.7,0,9.5,0,14.2,0,.6,0,1.3,0,1.9-.2,1.2-.7,1.8-1.9,1.9-1.8.1-3.5,0-5.3,0-1.2,0-1.8-.7-2-1.8,0-.6-.1-1.3-.1-1.9,0-12.7,0-25.4,0-38.1,0-.5,0-1,0-1.5.2-1.8.7-2.3,2.6-2.4,1.4,0,2.8,0,4.3,0,2,0,2.5.6,2.5,2.6,0,3.7,0,7.4,0,11.1,0,1.4,0,2.8,0,4.4Z"/>
              <path class="cls-3" d="M1211.4,222.5c1.3-1.2,2.4-2,3.7-2.7,4.4-2.1,9.8-1.5,13,1.8,1.2,1.2,1.3,1.2,2.6,0,3.3-2.7,7-3.6,11.1-2.9,4.4.7,7.2,3.1,8.5,7.3.6,1.8.8,3.7.8,5.7,0,4.9,0,9.8,0,14.7,0,2.6-.5,3.1-3.1,3.2-1.1,0-2.1,0-3.2,0-1.7,0-2.3-.7-2.3-2.4,0-2.6,0-5.2,0-7.9,0-2.3,0-4.7,0-7,0-1.1-.1-2.1-.5-3.1-.6-1.5-1.6-2.4-3.3-2.6-1,0-2-.1-3,0-2.2.4-3.3,1.9-3.3,4.2,0,5,0,9.9,0,14.9,0,.6,0,1.3,0,1.9-.2,1.2-.7,1.8-1.9,1.9-1.6,0-3.1,0-4.7,0-1.4,0-1.9-.6-1.9-2,0-1.1,0-2.3,0-3.4,0-3.7,0-7.4,0-11.1,0-1.4-.1-2.7-.5-4-.4-1.4-1.4-2.2-2.9-2.5-4-.7-6.7,1.5-6.7,5.5,0,4.4,0,8.8,0,13.2,0,.6,0,1.3,0,1.9-.2,1.7-.7,2.3-2.4,2.3-1.3,0-2.7,0-4,0-1.5,0-2-.6-2.1-2.1,0-1.4,0-2.8,0-4.3,0-6.8,0-13.6,0-20.4,0-.6,0-1.3,0-1.9,0-.7.4-1.2,1-1.5,1.8-.8,3.8,0,4.6,1.6.2.4.4.7.7,1.4Z"/>
              <path class="cls-3" d="M1068.5,249.6c-2.6.7-4.2-.8-5.1-3.5-.4-1.1-1-2.2-1.5-3.3-.4-1-1.1-1.4-2.2-1.4-5.4,0-10.8,0-16.1,0-1.1,0-1.7.4-2.1,1.4-.6,1.4-1.3,2.8-1.9,4.3-.7,1.8-1.9,2.7-3.9,2.6-1.1,0-2.1,0-3.2,0-2.6,0-3.1-.8-2-3.1,1.6-3.4,3.1-6.8,4.7-10.2,4.7-10.2,9.4-20.3,14.1-30.4.3-.6.6-1.3,1-1.9.8-1.1,2.2-1.1,3,0,.2.3.4.7.6,1.1,6.3,13.8,12.7,27.7,19,41.5,1,2.1.5,2.9-1.8,3-.7,0-1.4,0-2.6,0ZM1051.4,220.7c-.6,1.4-1.3,2.8-2,4.3-1.1,2.4-2.2,4.9-3.3,7.4-.4,1-.2,1.3.8,1.3,1.1,0,2.3,0,3.4,0,2,0,4,0,5.9,0,1.2,0,1.3-.2.9-1.2-.1-.3-.3-.7-.4-1-1.5-3.3-3-6.6-4.5-9.8-.2-.4-.3-.8-1-.9Z"/>
              <path class="cls-3" d="M1160.2,246.7c-.8,0-1.2.5-1.6.9-6.9,5.4-16.2,2.7-20.2-3.8-4.2-6.9-3.2-16.5,2.8-21.6,3.2-2.8,7-3.8,11.2-3.5,1.3.1,2.7.4,4,.6,1.2.2,1.4,0,1.4-1.1,0-2.3,0-4.7,0-7,0-1.6,0-3.3,0-4.9,0-1.7.7-2.3,2.4-2.3,1.3,0,2.7,0,4,0,1.6,0,2.1.6,2.2,2.2,0,.5,0,1,0,1.5,0,12.7,0,25.4,0,38,0,.3,0,.6,0,.8,0,2.7-1.9,3.9-4.4,2.9-.9-.4-1.2-1.2-1.5-2,0-.3-.2-.5-.4-.8ZM1157.9,233.6h0c0-1.3,0-2.7,0-4,0-1.3-.5-1.9-1.7-2.4-1.4-.5-2.8-.6-4.2-.6-3.6,0-6,1.8-7,5.3-.4,1.6-.4,3.2,0,4.8,1.1,4.6,5.1,6.9,9.3,5.3,2.3-.9,3.5-2.6,3.5-5,0-1.1,0-2.3,0-3.4Z"/>
              <path class="cls-3" d="M931.2,220.5c1.7-.8,3.4-1.6,5.4-1.8,8.9-.9,12.9,3.9,13.8,10.2.3,1.8.4,3.7.4,5.5,0,4,0,8.1,0,12.1,0,2.6-.6,3.1-3.2,3.1-.9,0-1.8,0-2.8,0-2.2,0-2.6-.5-2.7-2.6,0-4.3,0-8.5,0-12.8,0-1,0-2-.2-3-.6-3.4-2.3-4.8-5.5-4.7-3,0-5.2,2.1-5.6,5.1,0,.6,0,1.3,0,1.9,0,4.5,0,8.9,0,13.4,0,2.2-.4,2.6-2.6,2.6-1.1,0-2.1,0-3.2,0-2.2,0-2.7-.6-2.8-2.8,0-.4,0-.7,0-1.1,0-12.6,0-25.2,0-37.8,0-.4,0-.9,0-1.3,0-2.1.6-2.6,2.7-2.7,1.2,0,2.4,0,3.6,0,1.8,0,2.2.5,2.3,2.3,0,.5,0,1,0,1.5,0,3.5,0,7.1,0,10.6,0,.7-.2,1.4.3,2.2Z"/>
              <path class="cls-3" d="M1268.2,236.9c.6-.2.5-.8.7-1.2,1.8-4.7,3.6-9.4,5.4-14.1.8-2.2,1.1-2.4,3.4-2.4,1.3,0,2.7,0,4,0,2.1,0,2.7.9,1.9,2.9-1,2.5-2,5-3.1,7.5-4.4,10.7-8.8,21.3-13.3,32-.3.7-.6,1.3-.8,2-.4,1-1.2,1.5-2.3,1.5-1.7,0-3.4,0-5.1,0-1.9,0-2.5-.9-1.8-2.6,1.2-3.1,2.2-6.3,3.7-9.3,1.8-3.6,1.8-6.9.3-10.7-2.5-6.1-4.5-12.5-6.8-18.8-.2-.6-.4-1.2-.6-1.8-.4-1.6.1-2.4,1.8-2.5,1.4,0,2.8,0,4.2,0,2.5,0,2.7.2,3.4,2.5,1.4,4.7,2.8,9.3,4.2,14,.1.4,0,.9.5,1.1Z"/>
              <path class="cls-3" d="M1189.8,236.3c-2.5,0-5.1,0-7.6,0-2.1,0-2.5.8-1.5,2.7,1.6,3,5.3,4.4,9,3.4,1.2-.3,2.3-1,3.4-1.6,1.5-.9,1.9-.8,3,.6.6.8,1.2,1.6,1.8,2.4.8,1.3.7,2-.5,2.9-9.1,7.2-23,3.9-25.8-8.6-1.5-6.8,1.3-13.8,7.1-17.3,8-4.8,19.5-1.6,21.6,9.1.2,1.1.2,2.1.2,3.2,0,2.6-.6,3.2-3.3,3.3-2.5,0-5,0-7.4,0h0ZM1186.2,230.3h0c1.3,0,2.7,0,4,0,1.5,0,1.8-.6,1-1.9-1.1-2-2.9-2.8-5.1-2.7-2.3,0-4.1,1-5.2,3-.5,1-.3,1.5.8,1.6,1.5,0,3,0,4.4,0Z"/>
              <path class="cls-3" d="M993.3,222.3c.8-.1,1.2-.7,1.7-1.1,4.4-3.4,10.4-3.3,14.8-.9,1.5.8,2.7,2.1,3.5,3.6,1.1,2.2,1.7,4.5,1.8,6.9,0,5.3,0,10.6,0,15.9,0,2.3-.5,2.8-2.9,2.9-1.1,0-2.3,0-3.4,0-1.6,0-2.1-.7-2.3-2.2,0-.6,0-1.1,0-1.7,0-3.9,0-7.8,0-11.7,0-.7,0-1.4,0-2.1-.1-3-1.2-4.7-3.2-5.2-2.9-.7-5.9.5-7.2,2.8-.5.9-.6,1.9-.6,2.9,0,4.5,0,8.9,0,13.4,0,.6,0,1.3,0,1.9-.2,1.4-.6,1.9-2,2-1.5,0-3,0-4.5,0-1.3,0-1.9-.7-2-2,0-.6,0-1.1,0-1.7,0-7.7,0-15.4,0-23.1,0-.6,0-1.1,0-1.7,0-1.1.7-1.6,1.8-1.8,2.5-.4,3.1,0,4.7,3Z"/>
              <path class="cls-3" d="M980.6,238.4c0,2.8,0,5.5,0,8.3,0,1.9-.4,2.5-1.6,2.9-1.7.4-3,0-3.9-1.3q-.8-1.2-2.1-.3c-3.3,2.1-6.8,3-10.7,2.1-4.5-1.1-7.2-4.5-7.5-9.6-.3-3.9,2.3-7.6,6.3-9.2,2.9-1.1,5.9-1.2,9-.8.7.1,1.6.6,2.1-.3.5-.8.2-1.7-.2-2.4-.7-1.4-2-1.9-3.5-1.9-1.9,0-3.8.3-5.7.6-.8.1-1.5.3-2.3.4-1.1.2-1.8-.2-2.1-1.3-.3-1.1-.5-2.2-.7-3.3-.2-1.3.1-1.9,1.4-2.3,1.4-.4,2.9-.8,4.3-1,2.8-.4,5.6-.7,8.5-.3,5,.7,7.6,3.2,8.4,8.2.3,2,.4,4.1.4,6.1,0,1.8,0,3.5,0,5.3h0ZM972.3,239.3c0-2.2,0-2.5-1-2.9-2.1-.7-4.2-.8-6.2,0-2.7,1.1-2.4,5.5-.5,6.6,1.7,1,3.4,1,5.1.1,1.6-.9,3-2,2.7-4Z"/>
              <path class="cls-3" d="M1131.2,238.1c0,3,0,6,0,8.9,0,1.7-.4,2.2-1.4,2.5-1.6.4-3.1,0-3.8-1-1-1.4-1-1.4-2.4-.5-3,1.9-6.1,2.8-9.7,2.2-5-.9-8.2-4.4-8.4-9.5-.2-4.9,2.7-8.6,7.6-9.8,2.5-.6,5-.7,7.6-.3,2.1.3,2.7-.5,2-2.5-.6-1.6-1.8-2.1-3.3-2.2-2.1,0-4.2.3-6.3.7-3.7.7-3.9.6-4.6-3.1-.5-2.6-.2-3.2,2.4-3.7,3.9-.9,7.9-1.6,12-.9,4.2.7,6.7,2.9,7.8,7,.5,2.1.5,4.2.5,6.3,0,2,0,4,0,6ZM1119.1,235.9s0,0,0,0c-.6,0-1.3,0-1.9.1-2.3.3-3.6,2.1-3.4,4.3.2,2.2,1.9,3.7,4.2,3.5,1,0,1.9-.4,2.8-.9,2-1.1,2.7-2.9,2-5.5-.5-1.9-2.2-1.3-3.5-1.5,0,0-.1,0-.2,0Z"/>
              <path class="cls-3" d="M1082.6,234.5c0,4.4,2.3,7.2,6.3,8,2.1.4,3.9-.2,5.6-1.4.6-.5,1.2-1,1.7-1.6.7-.6,1.5-.8,2.3-.1,1,.7,1.9,1.5,2.8,2.3,1.1,1.1,1.1,1.7.2,3-2.7,3.9-6.7,5.7-11.3,5.8-8.1.1-13.9-5-15.7-11.3-2.8-9.5,3.3-19,13.2-20.3,4.7-.7,8.8.7,12.4,3.8,1.9,1.7,1.9,2.3.4,4.2-.6.8-1.3,1.5-2,2.2-.7.7-1.5.7-2.3.1-.5-.4-1-.8-1.5-1.2-4.1-2.9-9.9-1.2-11.6,3.6-.4,1-.4,2.1-.4,3Z"/>
            </g>
          </g>
        </g>
        <g>
          <path class="cls-6" d="M953.7,157.1c-10.2,7.2-22.2,14.8-35.1,22.7l-.5.3s0,0-.1.1c0,0,0,0,0,.2,0,0,0,.1,0,.2,0,0,0,.1,0,.2,0,0,0,0,.1.1,0,0,.1,0,.2,0,0,0,.1,0,.2,0,0,0,.1,0,.1,0l.4-.2c11-5.7,23.6-12.6,36.3-19.6h.2c-.7-1.2-1.3-2.5-1.7-3.8h0ZM1020.4,103.1c-16-17.6-119.1-1.8-162.9,7.8l-1,.2s0,0-.1,0c0,0,0,0-.1.1s0,0,0,.1c0,0,0,0,0,.1,0,0,0,.1,0,.1,0,0,0,0,.1.1,0,0,0,0,.1,0,0,0,.1,0,.2,0l1-.2c36.3-6.5,111.8-15.4,128.1.7,5,4.9,3.8,11.3-2,18.7,3.2,2.1,5.4,5.3,6.3,9.1,22.4-15,37.5-29.2,30.4-37.1Z"/>
          <path class="cls-9" d="M960.2,152.5c.2,6.2,4.2,11.3,9.3,11.3,9.9,0,14.2-12.2,13.9-20.4-.2-6.2-4.2-11.3-9.4-11.3-8.5,0-14.1,12.2-13.8,20.4ZM954.9,152.2c-.4-10.6,7.9-21.5,20-21.5s13.4,5.4,13.6,13.6c.4,11.2-7.4,21.5-20,21.5s-13.4-5.4-13.7-13.6Z"/>
          <path class="cls-9" d="M840.6,149.3c-.5.2-1.1.4-1.7.5-.7.2-2,.4-3.8.7-.9,0-1.8.4-2.6.8-.2.1-.4.3-.6.6-.1.2-.2.5-.3.7,0,.3,0,.5,0,.8,0,.2.3.4.5.6.7.4,1.6.6,2.4.5.9,0,1.7-.1,2.5-.4.7-.2,1.4-.6,2-1.1.4-.4.7-.8.9-1.3.2-.7.4-1.5.5-2.2h0ZM851.1,142.9c0,1.1-.3,2.2-.5,3.3l-1.8,10c0,.4,0,.8.1,1.2.2.4.5.7.9.9v.4h-10.1v-2.6c-1.6,1-3.3,1.7-5,2.2-1.6.4-3.2.6-4.9.6-3.3,0-5.2-.3-6.5-1.5-.6-.4-1.1-.9-1.4-1.5-.3-.6-.5-1.3-.5-2,.1-1.1.5-2.1,1.2-3,.7-.8,1.7-1.5,2.7-1.9,1.3-.6,2.7-1,4.1-1.1,1.8-.3,4.3-.6,7.6-.9,1.1,0,2.3-.3,3.3-.7.7-.3,1-.6,1.1-1.1.2-1-.1-1.6-1.5-1.9-4.7-.3-9.5.1-14.1,1.4l1.9-5.2c4.5-.7,9.1-1.1,13.6-1.1,7.3,0,9.7,2.1,9.6,4.8"/>
          <path class="cls-9" d="M880.6,158.6l3.5-19.9h9.8l-3.5,19.9h-9.7ZM884.6,134c.3-1.7,2.9-3,5.8-3s5,1.3,4.7,3c-.3,1.7-2.9,3-5.8,3s-5-1.3-4.7-3Z"/>
          <path class="cls-9" d="M928.4,149.4c-.4.2-1,.3-1.7.5-.7.2-2,.4-3.8.7-.9,0-1.8.4-2.6.8-.4.3-.7.8-.8,1.3,0,.2,0,.5,0,.7,0,.2.3.4.5.6.8.4,1.6.6,2.5.5.8,0,1.7-.1,2.5-.4.8-.2,1.5-.6,2.1-1.1.4-.4.7-.8.9-1.3.2-.8.4-1.5.5-2.3ZM938.9,142.8c0,1.1-.2,2.2-.5,3.3l-1.8,10c0,.4,0,.8.1,1.2.2.4.5.7.8.9v.4h-10.2v-2.6c-1.5,1-3.2,1.7-4.9,2.2-1.6.4-3.2.6-4.9.6-3.3,0-5.1-.3-6.5-1.5-.6-.4-1.1-.9-1.4-1.5-.3-.6-.5-1.3-.5-2,0-1.1.5-2.1,1.2-3,.8-.8,1.7-1.5,2.7-1.9,1.3-.6,2.7-1,4.1-1.2,1.8-.3,4.4-.6,7.7-.9,1.1,0,2.3-.3,3.3-.7.7-.3,1-.6,1.1-1.1.2-1-.2-1.6-1.5-1.9-3.7-.7-10.5.5-14.1,1.4l1.9-5.2c4.5-.7,9.1-1.1,13.6-1.1,7.3,0,9.6,2.2,9.6,4.8"/>
          <path class="cls-9" d="M820.1,151.3c-2.7.6-5.4.9-8.1.9-4.7,0-8.3-2.3-8.1-6.6.2-2.8,3.5-8.8,12-8.8,2.7,0,5.3.7,7.6,2.1l1.2-6.9c-3.1-1.2-6.3-1.8-9.6-1.6-11.1.1-21.8,5.2-23.1,15.4-1.3,10.2,11.4,13.2,17.1,13.1,3.3,0,6.6-.1,9.8-.5l1.3-7Z"/>
          <path class="cls-9" d="M899.2,138.5l.7-4,10.2-2.2-1.1,6.3h5l-.9,4h-4.8l-2.9,16.1h-9.8l2.9-16.1h-3.7l.7-4h3.8Z"/>
          <path class="cls-9" d="M948.8,158.5h-9.9s5-27.8,5-27.8l9.7.3-4.7,27.5Z"/>
          <path class="cls-9" d="M867.7,143.3c-1.3,0-2.5.4-3.5,1.2-1.1.8-1.8,2.1-1.9,3.4-.2.6-.2,1.3-.1,1.9,0,.7.3,1.3.7,1.8.4.4.9.7,1.4.9.5.2,1.1.3,1.6.2.9,0,1.7-.1,2.5-.5.8-.4,1.4-.9,1.9-1.6.5-.8.9-1.7,1.1-2.6.2-.6.2-1.2,0-1.9-.1-.6-.4-1.2-.8-1.7-.4-.4-.8-.7-1.3-.9-.5-.2-1.1-.3-1.6-.3ZM849.9,165.5l4.7-26.7h8.5l-.7,3.4c.9-1.1,2.2-2,3.6-2.5,1.7-.8,3.6-1.2,5.5-1.2,1.8-.1,3.6.2,5.3,1,1.6.8,2.8,2.1,3.4,3.8.6,1.7.8,3.6.4,5.4-.2,1.6-.8,3-1.6,4.4-.8,1.3-1.9,2.5-3.2,3.4-3.4,2.2-7.4,2.9-11.3,2.1-.7-.2-1.3-.4-1.9-.8-.6-.4-1.1-.9-1.6-1.5l-1.6,9.2h-9.6Z"/>
          <path class="cls-9" d="M1026.6,145.7c0-.3,0-.7-.1-1-.1-.3-.3-.6-.5-.9-.2-.3-.5-.5-.9-.6-.3-.1-.7-.2-1-.2-4,0-8.2,7.8-9,11,6.6,0,11.6-3.9,11.5-8.3ZM1027.4,158l.8.5c-.9,2.1-2.4,3.8-4.3,5.1-1.9,1.3-4,2-6.3,2.1-1,0-1.9-.1-2.8-.5-.9-.4-1.7-.9-2.4-1.6-.7-.7-1.2-1.5-1.5-2.4-.3-.9-.5-1.9-.4-2.8-.3-8.6,7.7-16.5,14.2-16.5s5.4,1.2,5.5,4.3c.2,6.8-9.3,8.8-15.6,9-.2.8-.3,1.7-.2,2.5,0,.7,0,1.4.3,2.1.3.7.7,1.2,1.2,1.7.5.5,1.1.9,1.8,1.1.7.2,1.4.3,2.1.3,1.6-.2,3.1-.7,4.4-1.5,1.3-.8,2.4-2,3.2-3.3Z"/>
          <path class="cls-9" d="M988.5,145.5c.7,0,1.8-.2,2.2-.2s1.4.1,1.4.8c0,.7-.7,3.5-.9,4.2l-1.5,6.6c-.6,2.7-1.3,5.6-1.9,7.9h3.9l2.2-10.6c6.6-7,9.2-9.2,10.8-9.2.2,0,.3,0,.5,0,.2,0,.3.1.4.3.1.1.2.3.3.4,0,.2,0,.3,0,.5-.1,1.6-.5,3.3-1,4.8l-2.2,7.7c-.5,1.4-.8,2.9-.9,4.4,0,.3,0,.7.2,1,.1.3.3.6.6.8.2.2.5.4.9.5.3.1.7.1,1,.1,2.9,0,4.9-3,6.7-5.9l-.5-1c-.7,1.2-2.4,3.7-3.8,3.7s-.8-.3-.8-1c0-1.1.2-2.1.6-3.2l2.5-9.1c.5-1.6.8-3.3,1-5,0-.3,0-.7,0-1-.1-.3-.3-.6-.5-.9-.2-.2-.6-.4-.9-.5-.3-.1-.7-.1-1,0-2.6,0-6,1.9-13.2,10.2h-.1l.9-4.1c.5-2.2,1-4.5,1.4-6.1-2.7,1-5.5,1.7-8.3,2.3v1.4Z"/>
          <path class="cls-9" d="M1070.6,95.1h-1.4v85.8h1.4v-85.8Z"/>
          <path class="cls-9" d="M1112,107.2h-6v22.8h6v-22.8Z"/>
          <path class="cls-9" d="M1138.8,130.1l-1.2-13.6-4,11.6h-4.6l-4.2-11.7-1.3,13.7h-5.5l2.2-22.8h6.5l4.6,12.7,4.6-12.7h6.3l2.2,22.8h-5.6Z"/>
          <path class="cls-9" d="M1150.4,130.1v-22.4c1.3-.2,2.6-.4,4.1-.5,1.3-.1,2.6-.2,3.9-.2,2.5-.2,5,.5,7.1,2,.8.7,1.4,1.6,1.8,2.6.4,1,.6,2,.6,3.1,0,1.1-.2,2.1-.7,3.1-.4,1-1.1,1.9-1.9,2.6-2,1.5-4.5,2.2-7,2.1h-2.1v7.7h-5.9ZM1158.3,111.2c-.7,0-1.3,0-2,.1v6.8h2.1c.5,0,.9,0,1.4-.2.4-.2.8-.4,1.2-.7.3-.3.6-.7.8-1.2.2-.4.2-.9.2-1.4,0-2.2-1.2-3.4-3.6-3.4Z"/>
          <path class="cls-9" d="M1186,130.1l-1.3-4.4h-7.4l-1.3,4.4h-5.9l7.6-22.8h6.9l7.5,22.9h-6.1ZM1178.4,121.8h5.1l-2.6-8.8-2.6,8.8Z"/>
          <path class="cls-9" d="M1212.4,129.1c-2,1-4.3,1.5-6.6,1.5-1.4,0-2.9-.1-4.2-.7-1.3-.5-2.5-1.4-3.5-2.4-1.9-2.5-2.9-5.6-2.7-8.8-.2-3.2.8-6.3,2.7-8.8,1-1.1,2.2-1.9,3.5-2.4,1.3-.5,2.8-.8,4.2-.7,2.3,0,4.5.5,6.6,1.5v4.6c-.9-.4-1.9-.8-2.8-1.1-.9-.2-1.7-.3-2.6-.3-.7,0-1.5.1-2.1.4-.7.3-1.2.8-1.7,1.4-1,1.6-1.4,3.5-1.3,5.4-.1,1.9.3,3.8,1.3,5.4.4.6,1,1.1,1.7,1.4.7.3,1.4.5,2.1.4.9,0,1.8-.1,2.6-.3,1-.3,2-.6,2.9-1.1v4.5Z"/>
          <path class="cls-9" d="M1223.1,130.1v-18.1h-6.2v-4.7h18.5v4.7h-6.2v18.1h-6Z"/>
          <path class="cls-9" d="M1109.9,146.4h-3.2v22.8h3.2v-22.8Z"/>
          <path class="cls-9" d="M1132.1,169.2l-11-17.6v17.6h-3v-22.8h2.9l11,17.6v-17.6h3v22.8h-2.9Z"/>
          <path class="cls-9" d="M1146.2,146.4h-3.2v22.8h3.2v-22.8Z"/>
          <path class="cls-9" d="M1158.8,169.2v-20.2h-6.7v-2.6h16.5v2.6h-6.7v20.2h-3.2Z"/>
          <path class="cls-9" d="M1177.8,146.4h-3.2v22.8h3.2v-22.8Z"/>
          <path class="cls-9" d="M1199.9,169.3l-1.9-5.7h-9.3l-1.9,5.7h-3.3l7.9-22.9h3.8l7.9,22.9h-3.2ZM1189.5,161.2h7.8l-3.9-11.8-3.8,11.8Z"/>
          <path class="cls-9" d="M1211.1,169.2v-20.2h-6.7v-2.6h16.5v2.6h-6.7v20.2h-3.2Z"/>
          <path class="cls-9" d="M1230,146.4h-3.2v22.8h3.2v-22.8Z"/>
          <path class="cls-9" d="M1243.7,169.2l-7.8-22.8h3.4l6.2,19.4,6.3-19.4h3.3l-7.8,22.8h-3.5Z"/>
          <path class="cls-9" d="M1264,159v7.7h10.8v2.6h-13.9v-22.8h13.8v2.6h-10.7v7.3h9.3v2.6h-9.3Z"/>
        </g>
      </g>
      <g>
        <path class="cls-5" d="M234.8,252.5l21.9-83h7.2l-20.4,77.1h38.6l-1.6,5.8h-45.7Z"/>
        <path class="cls-5" d="M332.6,250.4c-2.5,1.2-5.3,2.1-8.6,2.8-3.2.7-6.3,1.1-9.3,1.1-7.4,0-13-2-16.6-6.1-3.6-4.1-5.2-9.9-4.7-17.4.5-7.7,2.4-14.5,5.6-20.6,3.2-6.1,7.2-10.8,12-14.1,4.8-3.3,9.9-5,15.4-5s10.7,1.7,13.9,5c3.2,3.4,4.6,8,4.2,14-.3,3.7-1.3,8.2-3.1,13.5h-40.2c-.6,2.9-1,5.5-1.1,7.6-.4,5.8.7,10.1,3.4,13.1,2.6,3,6.7,4.4,12.3,4.4s6.2-.4,9.5-1.1c3.3-.7,6.2-1.7,8.7-2.8l-1.4,5.5ZM325.8,196.5c-5.1,0-9.7,2-13.8,5.9-4.1,4-7.1,9.4-9.2,16.2h33.8c.8-2.8,1.3-5.5,1.5-8.3.3-4.4-.6-7.8-2.7-10.3-2.1-2.4-5.3-3.6-9.6-3.6Z"/>
        <path class="cls-5" d="M372.4,198.1l-9.8,37.2c-.5,2.1-.9,3.8-.9,5-.2,2.7.4,4.7,1.8,6.1,1.4,1.4,3.6,2.1,6.5,2.1s6.9-.6,10.1-1.8l-1.4,5.2c-3.6,1.3-7,1.9-10.4,1.9s-7.7-1.1-10.2-3.4c-2.4-2.3-3.5-5.4-3.3-9.4,0-1.3.4-3.2,1-5.6l9.8-37.3h-8.7l1.3-4.9,9-.4,4.6-14.9,6.1-.7-4.2,15.6h17.3l-1.3,5.2h-17.3Z"/>
        <path class="cls-5" d="M396.8,195.2c6.3-5.8,10.2-11.5,12-16.9-1.1-.2-1.9-.8-2.5-1.5-.6-.8-.8-1.8-.7-3.1.1-1.8.7-3.3,1.9-4.5,1.1-1.2,2.5-1.8,4.2-1.8s2.8.6,3.6,1.7c.8,1.1,1.1,2.7,1,4.7-.2,3.5-2,7.4-5.3,11.8-3.3,4.4-7.2,8.2-11.9,11.4l-2.1-1.8Z"/>
        <path class="cls-5" d="M406.7,244c5.4,3.2,11.3,4.9,17.8,4.9s8.4-1.2,11.5-3.6c3.1-2.4,4.7-5.6,5-9.5.2-2.4-.3-4.5-1.3-6-1-1.6-2.9-3-5.6-4.1l-8.2-3.7c-3.7-1.7-6.3-3.6-7.8-5.7-1.5-2.2-2.2-4.8-2-7.9.3-4.9,2.6-9,6.7-12.2,4.1-3.2,9.1-4.9,15-4.9s11.9,1.5,17.1,4.4l-1.4,5.2c-3-1.5-5.7-2.6-8.1-3.2-2.4-.6-5-.9-7.6-.9-4.1,0-7.5,1-10.3,3.1-2.8,2.1-4.2,4.8-4.5,8-.1,2.1.3,3.9,1.3,5.2,1,1.3,2.9,2.5,5.5,3.7l8.4,3.8c6.9,3.2,10.1,8.1,9.6,14.7-.3,3.8-1.5,7.2-3.7,10.1-2.2,2.9-5,5.2-8.5,6.8-3.5,1.6-7.3,2.4-11.5,2.4-7,0-12.9-1.5-17.9-4.4l.4-5.9Z"/>
        <path class="cls-5" d="M543.6,250.4c-6.9,2.6-13.9,3.9-21,3.9s-17.3-2.8-22.5-8.3c-5.2-5.5-7.4-13.2-6.8-22.9.7-10.6,3.3-20.1,7.6-28.7,4.3-8.5,9.8-15.1,16.3-19.7,6.5-4.6,13.6-6.9,21.3-6.9s16.7,2.1,23.3,6.3l-1.5,5.6c-6.2-4-13.4-6-21.7-6s-13.2,2.2-18.6,6.6c-5.4,4.4-9.9,10.4-13.2,17.9-3.4,7.5-5.4,15.6-6,24.4-.6,8.3,1.1,14.7,5.1,19.2,4,4.5,10,6.8,18,6.8s9.7-.7,13.9-2.1l8.2-30.9h-11.3l2.8-5.8h16.8l-10.8,40.8Z"/>
        <path class="cls-5" d="M582.2,254.3c-6.9,0-12-1.9-15.4-5.6-3.4-3.8-4.8-9.1-4.3-16.1.6-7.9,2.4-15.1,5.5-21.6,3.1-6.5,7-11.4,11.8-14.8,4.8-3.4,10.2-5.1,16.2-5.1s12,1.9,15.4,5.6c3.4,3.8,4.8,9.1,4.3,16.1-.6,7.9-2.4,15.1-5.5,21.6-3.1,6.5-7,11.4-11.8,14.8-4.8,3.4-10.2,5.1-16.2,5.1ZM583.3,248.9c4.7,0,8.9-1.6,12.5-4.7,3.6-3.2,6.5-7.5,8.7-13.2,2.2-5.6,3.5-11.7,4-18.1.8-10.8-3.8-16.2-13.6-16.2s-8.9,1.6-12.5,4.7c-3.6,3.2-6.5,7.5-8.7,13.2-2.2,5.6-3.5,11.7-4,18.1-.8,10.8,3.8,16.2,13.6,16.2Z"/>
      </g>
      <g>
        <path class="cls-5" d="M446.9,363.9c2.7,1.9,5.8,3.4,9.2,4.5,3.5,1.1,6.7,1.7,9.8,1.7,4.6,0,8.3-1,11.2-3.1,2.9-2.1,4.5-4.8,4.7-8.1.1-2.1-.3-3.9-1.4-5.3-1.1-1.4-2.9-2.7-5.5-3.8l-5.6-2.5c-5-2.2-8.4-4.5-10.4-7-2-2.5-2.8-5.7-2.6-9.7.3-4.3,1.7-8,4.3-11.4,2.6-3.3,5.9-5.9,10-7.7,4.1-1.8,8.6-2.7,13.4-2.7s7.2.4,10.9,1.3c3.7.9,6.9,2.1,9.5,3.6l-2.7,10.2c-2.3-1.4-5-2.5-7.9-3.2-2.9-.8-5.9-1.2-8.8-1.2-4.2,0-7.6.9-10.3,2.6-2.7,1.7-4.1,4-4.3,6.8-.1,1.7.3,3.1,1.3,4.2,1,1.1,2.8,2.3,5.6,3.5l5.8,2.7c5,2.2,8.4,4.8,10.4,7.6,2,2.8,2.8,6.4,2.5,10.6-.3,4.7-1.8,8.8-4.4,12.3-2.6,3.5-6,6.2-10.2,8.1-4.2,1.9-9,2.8-14.2,2.8s-8-.5-11.7-1.5-6.8-2.4-9.4-4.1l.8-11.3Z"/>
        <path class="cls-5" d="M539.9,377c-2.2,1.2-4.8,2.1-7.6,2.8-2.8.7-5.6,1-8.3,1-7.2,0-12.5-1.8-16-5.5-3.5-3.7-5.1-9-4.6-15.9.4-6.2,2-11.7,4.8-16.7,2.7-4.9,6.2-8.8,10.4-11.5,4.2-2.7,8.9-4,13.9-4s10.2,1.5,13.3,4.5c3.1,3,4.4,7.1,4.1,12.2-.2,3.5-1.3,7.8-3.1,13h-30.5c-.2.7-.3,1.8-.4,3.2-.5,7.3,3.3,10.9,11.3,10.9s4.7-.3,7.4-.9c2.7-.6,5.3-1.4,7.8-2.5l-2.4,9.3ZM531.2,336.2c-2.8,0-5.3,1.1-7.6,3.3-2.2,2.2-4,5.4-5.3,9.5h19.2c.5-1.7.8-3.4.9-5,.2-2.6-.3-4.5-1.6-5.8-1.2-1.3-3.1-2-5.7-2Z"/>
        <path class="cls-5" d="M577.7,337.8l-6.1,23.2c-.5,2.2-.9,4-1,5.2-.2,3.1,1.6,4.7,5.5,4.7s4.8-.3,7-.9l-2.4,9c-3,1-6.3,1.5-9.8,1.5s-7.7-1.1-10.2-3.2c-2.5-2.2-3.6-5.1-3.3-8.8.1-1.9.4-3.7.9-5.4l6.7-25.3h-7.2l2.3-8.6,7.9-.3,4.3-12.6,11.5-1.3-3.6,13.8h12.5l-2.4,9h-12.5Z"/>
        <path class="cls-5" d="M638.5,379.5v-2.9c-5,2.7-9.6,4.1-13.9,4.1s-7.5-1.2-9.8-3.7c-2.4-2.4-3.4-5.7-3.1-9.8.2-3.2,1.3-6.1,3.2-8.6,1.9-2.5,4.3-4.4,7.3-5.8,3-1.3,6.3-2,9.9-2s7.8.5,11.5,1.6l1-3.7c.3-1,.4-1.8.4-2.4.3-4.3-2.8-6.4-9.4-6.4s-9.9.9-14.6,2.7l2.3-8.7c5.1-2,10.4-3,15.9-3s10.4,1.2,13.5,3.7c3.1,2.5,4.4,5.9,4.1,10.4,0,1.4-.4,3-.9,4.8l-7.6,28.8-9.8,1ZM630.3,372.1c1.3,0,2.8-.2,4.3-.6,1.6-.4,3-1,4.3-1.7l2.7-10.4c-2.7-.6-5.3-.9-7.8-.9s-5.3.7-7.1,2.1c-1.8,1.4-2.8,3.3-3,5.7-.1,2,.3,3.4,1.4,4.4,1.1,1,2.8,1.5,5,1.5Z"/>
        <path class="cls-5" d="M706,336.3l-11.3,42.9h-12.2l16.9-64h11.2l14.2,42.9,11.3-42.9h12.2l-16.9,64h-11.2l-14.2-42.9Z"/>
        <path class="cls-5" d="M780.5,377.2c-2.1,1.1-4.4,2-7,2.6-2.6.6-5.2.9-7.7.9-6.6,0-11.6-1.7-14.9-5.1-3.3-3.4-4.7-8.3-4.3-14.8.4-5.7,1.9-10.9,4.4-15.5,2.5-4.6,5.8-8.1,9.7-10.6,3.9-2.5,8.2-3.7,12.9-3.7s9.5,1.4,12.3,4.2c2.9,2.8,4.1,6.6,3.8,11.4-.2,3.2-1.2,7.3-2.9,12.1h-28.3c-.2.7-.3,1.7-.4,3-.5,6.8,3,10.1,10.5,10.1s4.4-.3,6.9-.8c2.5-.5,4.9-1.3,7.2-2.3l-2.3,8.7ZM772.4,339.2c-2.6,0-5,1-7,3.1-2.1,2-3.7,5-5,8.8h17.8c.5-1.6.8-3.1.9-4.7.2-2.4-.3-4.2-1.5-5.4-1.1-1.2-2.9-1.8-5.3-1.8Z"/>
        <path class="cls-5" d="M827.6,379.2l.7-35-18.2,35h-10.9l-1.2-46.9h11.5l-1,32.7,16.7-32.7h11.7l-.6,32.8,16.4-32.8h11.6l-25.9,46.9h-10.9Z"/>
      </g>
    </g>
    <g>
      <g>
        <polygon class="cls-2" points="1231.1 657.8 1228.5 680.8 386.7 650.4 1231.1 657.8"/>
        <polygon class="cls-6" points="217.2 130.8 652.4 101.4 647.4 130.8 217.2 130.8"/>
        <polygon class="cls-7" points="399.8 419.4 394.1 441.2 823 416.2 399.8 419.4"/>
        <polygon class="cls-1" points="112.7 782.3 104.2 809.3 450.5 778.8 112.7 782.3"/>
        <g>
          <path class="cls-5" d="M744.6,586.5l-16.4-47.5h-16.7l-11.6,47.5h-24.7l30.7-124.6c5.2-1.3,11.1-2.4,17.7-3.1,6.6-.7,13-1.1,19.1-1.1,15,0,26.3,3.2,33.8,9.5,7.5,6.3,10.9,15.5,10.3,27.6-.5,9.7-3.8,18-9.9,25-6.1,7-14.5,12.1-25.4,15.4l20.6,51.3h-27.5ZM739.8,476.8c-5.5,0-9.9.4-13.3,1.3l-10.4,42.2h13.5c9.3,0,16.9-2.2,22.6-6.7,5.8-4.5,8.8-10.6,9.2-18.4.3-5.9-1.4-10.5-5.1-13.6-3.7-3.2-9.2-4.7-16.5-4.7Z"/>
          <path class="cls-5" d="M851.2,582.5c-4.1,2.2-8.8,3.9-13.9,5.1-5.2,1.2-10.3,1.8-15.4,1.8-13.2,0-23.2-3.4-29.8-10.2-6.7-6.8-9.7-16.6-9-29.5.6-11.4,3.3-21.7,8.3-30.8,4.9-9.2,11.2-16.2,18.9-21.2,7.7-5,16.2-7.5,25.6-7.5s18.9,2.8,24.7,8.3c5.8,5.5,8.4,13.1,7.9,22.6-.3,6.4-2.1,14.4-5.3,24h-56.4c-.3,1.3-.5,3.3-.7,6-.7,13.5,6.4,20.2,21.3,20.2s8.7-.5,13.6-1.6c5-1.1,9.7-2.6,14.3-4.5l-4.2,17.3ZM833.7,507c-5.2,0-9.8,2-13.9,6.1-4,4.1-7.2,9.9-9.6,17.6h35.5c.9-3.2,1.4-6.2,1.6-9.3.2-4.7-.8-8.3-3.1-10.7-2.3-2.4-5.8-3.6-10.5-3.6Z"/>
          <path class="cls-5" d="M932.9,582.7c-9.2,4.5-18.5,6.7-27.8,6.7s-21.4-3.3-27.5-9.9c-6.1-6.6-8.8-16.2-8.1-28.8.6-11.9,3.4-22.5,8.3-31.7,4.9-9.3,11.3-16.4,19.1-21.3,7.8-4.9,16.6-7.4,26.3-7.4s19,2.5,27.4,7.6l-4,17.3c-7.4-4.1-14.7-6.2-21.9-6.2s-10.9,1.8-15.4,5.4c-4.4,3.6-8,8.4-10.6,14.5-2.6,6.1-4.1,12.9-4.5,20.3-.4,7.5.8,13,3.7,16.4,2.9,3.4,7.6,5.1,14.1,5.1s16.5-1.8,25-5.5l-4.2,17.5Z"/>
          <path class="cls-5" d="M985.4,589.4c-12.5,0-21.8-3.1-27.8-9.3s-8.8-15.2-8.1-27.1c.7-12.7,3.4-23.8,8.3-33.3,4.9-9.5,11.3-16.7,19.2-21.8,8-5.1,16.9-7.6,26.9-7.6s21.8,3.1,27.8,9.3c6,6.2,8.8,15.2,8.1,27.1-.7,12.7-3.4,23.8-8.3,33.3-4.9,9.5-11.3,16.7-19.2,21.8-8,5.1-16.9,7.6-26.9,7.6ZM988.4,570.9c7.3,0,13.4-4.1,18.3-12.3,4.9-8.2,7.7-18.8,8.4-31.9.3-6.3-.6-10.8-2.8-13.6-2.2-2.8-6-4.2-11.3-4.2s-13.4,4.1-18.3,12.3c-4.9,8.2-7.7,18.8-8.4,31.9-.3,6.3.6,10.9,2.8,13.6,2.2,2.8,6,4.2,11.3,4.2Z"/>
          <path class="cls-5" d="M1040.3,586.5l22.6-91.8,19.4-2v8.5c9.3-6.9,18.2-10.4,26.6-10.4s6.1.4,8.8,1.3l-4.8,19.6c-3.4-.7-6.4-1.1-9-1.1-8.5,0-16.1,2.2-22.9,6.7l-17.1,69.1h-23.6Z"/>
          <path class="cls-5" d="M1166.2,587v-5.8c-9.3,5.5-18.2,8.2-26.7,8.2s-17.1-3.3-22.1-9.8c-5.1-6.5-7.3-15.7-6.7-27.5.6-12.2,3.5-23.1,8.4-32.6,5-9.5,11.5-16.7,19.5-21.7,8-5,17.1-7.5,27.1-7.5s12.6,1,18.8,2.9l10.8-43.5,24.1-2.4-34,137.7-19.4,2ZM1150.5,570.9c5.5,0,10.8-1.5,16.1-4.5l13.6-55.7c-3.9-1.7-8.4-2.5-13.3-2.5s-11.2,1.9-15.8,5.7c-4.6,3.8-8.2,9-10.9,15.5-2.7,6.5-4.3,13.5-4.6,21-.4,7,.6,12.2,3,15.6,2.4,3.3,6.3,5,11.9,5Z"/>
        </g>
        <g>
          <path class="cls-5" d="M272,589.2l3.4-100-47.1,100h-25.5l1.2-127.3h24.9l-5.5,93.8,43.8-93.8h28l-2.8,94.9,41.2-94.9h25.1l-61.4,127.3h-25.5Z"/>
          <path class="cls-5" d="M375.7,592.1c-12.5,0-21.8-3.1-27.8-9.3-6-6.2-8.8-15.2-8.1-27.1.7-12.7,3.4-23.8,8.3-33.3,4.9-9.5,11.3-16.7,19.2-21.8,8-5.1,16.9-7.6,26.9-7.6s21.8,3.1,27.8,9.3c6,6.2,8.8,15.2,8.1,27.1-.7,12.7-3.4,23.8-8.3,33.3-4.9,9.5-11.3,16.7-19.2,21.8-8,5.1-16.9,7.6-26.9,7.6ZM378.7,573.6c7.3,0,13.4-4.1,18.3-12.3,4.9-8.2,7.7-18.8,8.4-31.9.3-6.3-.6-10.9-2.8-13.6-2.2-2.8-6-4.2-11.3-4.2s-13.4,4.1-18.3,12.3c-4.9,8.2-7.7,18.8-8.4,31.9-.3,6.3.6,10.9,2.8,13.6,2.2,2.8,6,4.2,11.3,4.2Z"/>
          <path class="cls-5" d="M430.6,589.2l22.6-91.8,19.4-2v8.5c9.3-6.9,18.2-10.4,26.6-10.4s6.1.4,8.8,1.3l-4.8,19.6c-3.4-.7-6.4-1.1-9-1.1-8.5,0-16.1,2.2-22.9,6.7l-17.1,69.1h-23.6Z"/>
          <path class="cls-5" d="M498.8,589.2l33.7-136.8,24.1-2.4-34.2,139.1h-23.6Z"/>
          <path class="cls-5" d="M601.7,589.8v-5.8c-9.3,5.5-18.2,8.2-26.7,8.2s-17.1-3.3-22.1-9.8c-5.1-6.5-7.3-15.7-6.7-27.5.6-12.2,3.5-23.1,8.4-32.6,5-9.5,11.5-16.7,19.5-21.7,8-5,17.1-7.5,27.1-7.5s12.6,1,18.8,2.9l10.8-43.5,24.1-2.4-34,137.7-19.4,2ZM586,573.6c5.5,0,10.8-1.5,16.1-4.5l13.6-55.7c-3.9-1.7-8.4-2.5-13.3-2.5s-11.2,1.9-15.8,5.7c-4.6,3.8-8.2,9-10.9,15.5-2.7,6.5-4.3,13.5-4.6,21-.4,7,.6,12.2,3,15.6,2.4,3.3,6.3,5,11.9,5Z"/>
        </g>
        <g>
          <path class="cls-5" d="M252.4,36.2s-29.4,99.4-29.4,99.4l-3.9-5.4s445.3-.6,445.3-.6c0,0,4.2,0,4.2,0l-.9,4.1s-34.4,157.4-34.4,157.4c0,0-1,4.6-1,4.6,0,0-4.8.1-4.8.1,0,0-199,4.6-199,4.6,0,0,7-5.7,7-5.7,0,0-24.9,118-24.9,118s-9.9-12.6-9.9-12.6c5.4.2,869,13.5,874,13.7,0,0-.6,3.6-.6,3.6,0,0-35.6,230.6-35.6,230.6,0,0-1.3,8.4-1.3,8.4,0,0-8.7,0-8.7,0,.8-2.8-1092.6-2.5-1078.1-9.4,0,0-29.4,130.3-29.4,130.3,0,0-8.1-10.6-8.1-10.6,0,0,82.2.3,82.2.3,117.9.6,292.7,1.9,411.1,3.1,48.3.2,116.9.5,164.4,3.6,0,0,0,2.7,0,2.7-47.3,4-116.3,2.5-164.4,3.6-118.6.9-293,2.7-411.1,3.1-3.8,0-92.2.3-93.6.4,0,0,3.3-10.6,3.3-10.6,0,0,39.7-127.5,39.7-127.5,0,0,.7-2.2.7-2.2s2.2,0,2.2,0c0,0,1081-7.1,1081-7.1,0,0-10,8.3-10,8.3,0,0,49.5-228,49.5-228l3,3.7s-870.5.6-870.5.6c0,0-13.1,0-13.1,0,0,0,3.3-12.6,3.3-12.6,0,0,30.4-116.7,30.4-116.7,0,0,1.5-5.6,1.5-5.6s5.6,0,5.6,0c0,0,199.1-2,199.1-2,0,0-5.8,4.7-5.8,4.7,0,0,39.7-156.2,39.7-156.2,0,0,3.3,4.1,3.3,4.1,0,0-445.3,2.1-445.3,2.1,0,0-6,0-6,0,0,0,2.1-5.4,2.1-5.4s37.1-96.8,37.1-96.8h0Z"/>
          <circle class="cls-5" cx="252.4" cy="34.1" r="28.5"/>
          <circle class="cls-8" cx="252.4" cy="34.1" r="13.8"/>
        </g>
        <g>
          <g>
            <path class="cls-6" d="M1044.1,753.1c-4.2-4.2-9.6-6.3-15.1-6.3s-10.9,2.1-15.1,6.2l-4,3.9-4-3.9c-4.2-4.2-9.6-6.2-15.1-6.2s-10.9,2.1-15.1,6.3c-8.3,8.3-8.3,21.8,0,30.2l3.9,3.9,30.2,30.1,30.2-30.1,3.9-3.9c8.3-8.3,8.4-21.8,0-30.2h0Z"/>
            <g>
              <path class="cls-4" d="M1032.9,924.4c-14.5,8.3-32.4,8.3-47,0-2.5,15.4-7.9,30.3-15.9,43.8h78.9c-8-13.5-13.4-28.3-15.9-43.8h0Z"/>
              <path class="cls-4" d="M934.2,865.1c-6.1-11.7-11.4-23.8-15.9-36.2h0c-29-18.8-52.8-45.3-62.1-75.9h43c-1.4-9.1-2.4-18.1-3.2-27.1h-44.4c-7.3,0-14.1,3.5-18.5,9.3-4.4,5.8-5.8,13.3-3.9,20.3,12.9,50,56.9,91.9,107.3,113.8-.8-1.4-1.6-2.8-2.3-4.2Z"/>
              <path class="cls-4" d="M1185.9,735.2c-4.4-5.8-11.2-9.2-18.5-9.3h-44.4c-.8,9-1.9,18-3.2,27.1h42.9c-9.3,30.5-33.1,57.1-62.1,75.9-4.5,12.4-9.8,24.5-15.9,36.2-.7,1.4-1.5,2.8-2.3,4.3,50.5-21.8,94.5-63.8,107.4-113.8,1.9-7,.5-14.5-3.9-20.3Z"/>
              <path class="cls-4" d="M954,707.2c0,1.8-1.2,3.4-2.9,3.8h-48.6c6.3,118.4,60.7,211.9,107.1,211.9h0c46.4,0,100.8-93.5,107.1-211.9h-47.4c-1.7-.5-2.9-2.1-2.9-3.8s1.2-3.4,2.9-3.8h47.7v-7.1c0-2.1-.7-4.1-2.1-5.6-1.4-1.5-3.4-2.4-5.5-2.4h-200c-2.1,0-4.1.9-5.5,2.4-1.4,1.5-2.2,3.5-2.1,5.6v7.1h49.1c1.7.5,2.9,2,2.9,3.8ZM980,714.4c32.4-16.4,71.7-3.3,88,29.1h0c9.6,19.1,10,40.6,0,58.9-10.4,18.9-58.6,77.7-58.6,77.7,0,0-48.9-58.8-58.6-77.7-15.8-30.9-3.3-71.7,29.1-88Z"/>
              <path class="cls-4" d="M957.4,975.9c-2,0-3.9.9-5.4,2.3-1.4,1.4-2.2,3.4-2.2,5.4v11.5h119.4v-11.5c0-2.1-.8-4-2.2-5.5-1.4-1.4-3.4-2.3-5.5-2.2h-104.1Z"/>
              <polygon class="cls-4" points="1082.4 869.4 1082.4 869.4 1082.4 869.4 1082.4 869.4"/>
              <path class="cls-4" d="M936.6,869.4c0,0-.1,0-.2,0,0,0,0,0,0,0h.1Z"/>
              <path class="cls-4" d="M1084,1002.9h-149c-12.7.2-22.9,10.6-22.8,23.3v15.6c0,4.2,3.3,7.6,7.5,7.7h179.5c4.2,0,7.6-3.5,7.5-7.7v-15.6c0-12.7-10.1-23.1-22.8-23.3Z"/>
            </g>
          </g>
          <g>
            <path class="cls-5" d="M1241.9,893.4c-8.6-3.1-17.3-6.2-25.3-10.4-4.9,7.5-9.7,15-14.6,22.6,8,4.2,16.6,7.3,25.3,10.4,4.9-7.5,9.7-15,14.6-22.6Z"/>
            <path class="cls-5" d="M1256,968.2c.8,1,2.1,1.5,3.3,1.5,1.3,0,2.5-.8,3.2-1.8l43.8-67.7c.9-1.5.9-3.4-.3-4.7-12.6-15.6-30.7-22-48.2-28.4-17.3-6.2-33.6-12.1-44.7-25.9-.8-1-2.1-1.5-3.3-1.5-1.3,0-2.5.8-3.2,1.8l-43.8,67.7c-.9,1.5-.9,3.4.3,4.7.7.9,1.4,1.7,2.2,2.5,12.4,13.7,29.5,19.9,46.1,25.8,17.3,6.2,33.6,12,44.7,25.9h0ZM1214.1,934.7c-8.6-3.1-16.9-6.1-24.4-10,4.1-6.4,8.3-12.8,12.4-19.2-6.8-3.5-13.1-7.9-18.4-13.6l14.6-22.6c5.4,5.7,11.6,10,18.4,13.6,4.1-6.4,8.3-12.8,12.4-19.2,8.1,4.3,16.7,7.4,25.2,10.5-4.1,6.4-8.2,12.7-12.3,19.1,8.6,3.1,17.3,6.2,25.3,10.4,4.1-6.4,8.3-12.8,12.4-19.2,6.9,3.5,13.1,7.8,18.4,13.6l-12.4,19.1c-5.4-5.7-11.6-10-18.4-13.6-4.9,7.5-9.7,15-14.6,22.6,6.8,3.5,13.1,7.9,18.4,13.6l-12.3,19.1c-5.5-5.7-11.8-9.9-18.5-13.5,4.1-6.4,8.3-12.8,12.4-19.2-8-4.2-16.6-7.3-25.3-10.4-4.1,6.4-8.2,12.7-12.4,19.1-.3-.1-.6-.2-.9-.3h0Z"/>
            <path class="cls-5" d="M1217.4,812.5c-2.1-1.3-4.5-1.8-7-1.3-2.4.5-4.5,2-5.8,4-2,3.1-1.9,6.9-.1,9.8l-103.2,159.6c-1,1.6-.8,3.6.4,4.9.2.3.5.5.8.7,1.9,1.2,4.4.7,5.6-1.2l103.2-159.6c3.4.4,6.9-1,8.9-4.1,2.8-4.3,1.5-10-2.7-12.8h0Z"/>
          </g>
          <g>
            <path class="cls-8" d="M781.8,957.6c10.9-14,27.2-20,44.3-26.5,16.5-6.2,33.5-12.6,45.7-26.5.7-.8,1.4-1.7,2.1-2.6,1.1-1.4,1.2-3.3.2-4.7l-44.7-67.1c-.7-1.1-1.9-1.7-3.2-1.8-1.3,0-2.5.6-3.3,1.5-10.9,13.9-27.2,20-44.3,26.5-17.4,6.6-35.4,13.3-47.8,29.1-1.1,1.4-1.2,3.3-.2,4.7l44.7,67.1c.7,1.1,1.9,1.7,3.2,1.8,1.3,0,2.5-.5,3.3-1.5h0Z"/>
            <path class="cls-5" d="M809.8,905c8.6-3.2,17.2-6.5,25.1-10.8-5-7.5-10-14.9-14.9-22.4-7.9,4.3-16.5,7.5-25.1,10.8,5,7.4,10,14.9,14.9,22.4Z"/>
            <path class="cls-5" d="M781.8,957.6c10.9-14,27.2-20,44.3-26.5,16.5-6.2,33.5-12.6,45.7-26.5.7-.8,1.4-1.7,2.1-2.6,1.1-1.4,1.2-3.3.2-4.7l-44.7-67.1c-.7-1.1-1.9-1.7-3.2-1.8-1.3,0-2.5.6-3.3,1.5-10.9,13.9-27.2,20-44.3,26.5-17.4,6.6-35.4,13.3-47.8,29.1-1.1,1.4-1.2,3.3-.2,4.7l44.7,67.1c.7,1.1,1.9,1.7,3.2,1.8,1.3,0,2.5-.5,3.3-1.5h0ZM823.2,923.5c-.3.1-.6.2-.9.3-4.2-6.3-8.4-12.6-12.6-18.9-8.6,3.2-17.2,6.5-25.1,10.8,4.2,6.3,8.5,12.7,12.7,19-6.7,3.6-12.9,8-18.3,13.7l-12.6-18.9c5.3-5.8,11.5-10.2,18.2-13.8-5-7.5-10-14.9-14.9-22.4-6.7,3.6-12.9,8-18.2,13.8l-12.6-18.9c5.2-5.9,11.3-10.3,18.2-13.9,4.2,6.3,8.4,12.6,12.7,19,7.9-4.3,16.5-7.5,25.1-10.8-4.2-6.3-8.4-12.6-12.6-18.9,8.5-3.2,17.1-6.5,25.1-10.8,4.2,6.3,8.5,12.7,12.7,19,6.7-3.6,12.9-8,18.2-13.8l14.9,22.4c-5.3,5.8-11.5,10.2-18.2,13.8,4.2,6.3,8.4,12.6,12.7,19-7.5,4-15.8,7.1-24.3,10.3h0Z"/>
            <path class="cls-5" d="M818.2,801.5c-4.3,2.8-5.4,8.6-2.6,12.8,2,3,5.6,4.5,9,4l105.5,158.1c1.2,1.9,3.7,2.4,5.6,1.1.3-.2.6-.4.8-.7,1.2-1.3,1.4-3.3.3-4.9l-105.5-158.1c1.8-3,1.8-6.8-.3-9.8-1.4-2-3.5-3.4-5.9-3.9-2.4-.5-4.9,0-7,1.4h0Z"/>
          </g>
        </g>
      </g>
      <path class="cls-4" d="M147.4,349.5c-9,17.1-19,34.3-30,51.5-7.7,12.1-15.6,2.2-8.3-6.9,13.8-17.4,24.9-35.8,33.3-55.1.7-1.6-.5-3.3-2.2-3.2-27.6,1.3-54.6,3.5-81.1,6.7-3.9.5-10.7-1.2-6.3-6.6.7-.9,1.8-1.5,3-1.7,23.7-4.2,47.7-6.2,71.9-6,9.6,0,10.9-3.2,3.9-9.6l-62-57.7c-.9-.9-1.2-2.1-.7-3.1,2.3-4.4,5.9-5.5,10.7-3.1,10.6,5.2,18.7,13.9,24.1,26.4.6,1.3,1.3,2.4,2.2,3,13.8,10,26.1,21.6,36.8,34.8.7.9,1.2.6,1.2-.9,1.1-27-8.7-53.7-16.4-79.4-.4-1.6.4-3.2,1.9-3.8,9.3-3.7,9.6,4.4,11.3,10.5,6.7,24.4,11,49.1,13,74.3.1,1.2.5,1.3,1.1.3,14.2-22.9,28.2-42.6,47.6-61.3,3.4-3.3,4.5-2.6,3.3,1.9-2.1,7.7-8.3,10-12,15.2-11.8,16.8-23,33.9-33.8,51.5-1.4,2.3-.7,3.3,2.2,3.3l59.5-1.2c1,0,1.7.9,1.5,1.9-1.2,6.5-50.7,6.6-58,6.4-1.9,0-2.2.6-1.1,1.8l60.1,64.3c.8.8.6,2.4-.5,3.7-2.5,3.2-8.4-5.9-11.5-7.1-1.3-.5-2.3-1.2-3.1-2l-48.8-50.5c-1.7-1.7-2.4-1.4-2.2.9,2.2,24.3,6.1,48.6,11.6,72.9.6,2.9-2.7,16.7-5.9,2.9-5.7-24.4-10-49.3-13-74.4-.4-3.7-1.5-3.9-3.2-.6Z"/>
      <path class="cls-7" d="M512.2,837c-9.8-4.6-20-5.4-30.8-2.2-12.5,3.7-24.2,8.1-35,13.4-.4.1-.6.4-.8.7-.9,1.7-.4,2.9,1.5,3.5,2.7,7.7,3.8,15.8,3.3,24-.1,2.6-.7,5.4-1.5,8.3-3.9,13.1-11,29.5-20.5,39.5-.7.8-1.7,1.8-2.7,3.2-9.2,11.7-33.7,26.6-45.7,9.1-2.2-3.3-3.5-11.7-2.8-15.6.7-3.7,1.2-7.5,1.7-11.2,0-.3.1-.6.4-.9,3.5-4.8,2.5-9.6,6.7-13.2.3-.3.5-.7.6-1.1.4-2.4,1.6-4.2,3.7-5.4.4-.2.7-.6.8-1,.9-3,2.7-5.4,5.2-7.1.4-.3.7-.7.7-1.2.2-2,1.3-2,2.3-3,7-6.9,14.3-13.5,21.9-19.8,5-2.2,9.8-5,14.4-8.5.8-.6.9-1.7.3-2.5,0,0,0-.1-.1-.1-7.3-7.2-15.7-11.2-25.1-11.9-23.3-1.8-49.7,17.8-63.6,35.7-3.6,3.9-6.7,8.2-9.3,12.7-6.6,11.6-12.4,22.5-14,35.9,0,.4,0,.8.3,1.2,2.2,3.5,1.4,4.3-2.6,2.2-.7-.4-1-1-.9-1.7.8-10.9,3.8-21.2,8.8-30.8,1.2-2.1,3-3.2,3.3-6.2,0-.5.3-.9.7-1.2l2.5-2c.4-.3.6-.7.7-1.1.4-2.4,1.4-4.5,3-6.2.2-.2.2-.6,0-.8l-.2-.5c3.9-2.1,6.4-4.7,7.6-7.7,19.1-22,54.9-44.3,84.4-26.9,3.8,2.2,6.9,5.6,10.6,8.5.5.4,1.2.5,1.8.2,10-4.6,20.1-8.5,30.5-12,12.9-4.3,25.8-4.8,38.9-1.4l4.6,4.7c.1.1.4.3.6.4,2.3,1,3.9,2.8,4.7,5.3.7,2.1,2.3,2.5,4.8,1,22.9-13.2,51.9-22.4,77.1-12.4,5.4,2.2,9.4,6.7,13.5,10.9.4.4.6,1.1.4,1.7-.3,1.1-.1,2,.4,2.6.6.7,1.5.9,2.3.5,15.3-8.9,30.6-14.5,45.8-16.7,13-1.9,23.7-4.6,37.1-4.3.6,0,1,.4,1.1,1,.1,1.3-.7,2-2.5,2.2-27.3,2.2-54.8,7.2-79.1,20.6-.4.2-.7.6-.8,1-.8,2.3-.7,4.5.3,6.6.2.4.2.9,0,1.4-.7,1.7-.5,3.4.5,5.1.2.4.4.9.2,1.4-1.5,6.2-.8,12.6-2.5,18.2-4.6,14.9-15.3,32.9-32.9,28.6-.4-.1-.9-.4-1.1-.8l-4.1-6.8c-.1-.2-.2-.5-.2-.8-.5-7,1.2-13.2,5.1-18.8,2.8-3.9,4.7-9.1,9.1-12.4.3-.2.4-.4.6-.8,3-7.6,9.5-12.1,17.2-18.7.4-.4.7-1,.6-1.6-2.5-20-30.8-21.9-45.4-19.2-14.2,2.7-28,7.9-41.5,15.5-.8.4-1.2,1.4-.7,2.3,2.9,6.1,8.3,24.4,4.2,30.5-.2.4-.3.7-.3,1.1.4,6.3-6.4,19.3-9.6,23.3-7.1,9-32.4,36.7-45.3,23.7-.3-.3-.4-.6-.5-.9-3.3-18-.1-33.7,9.6-47,8.5-11.7,14.6-18.9,18.2-21.5,5.4-3.9,10.8-7.4,16.1-10.6.9-.5,1.2-1.6.7-2.4,0-.1-.2-.3-.4-.4l-8.5-7.7h0ZM512.8,907.8c14.9-15.9,19.2-35.5,11.7-56.2-.4-.9-1.4-1.4-2.3-1.1-.1,0-.3.1-.4.2l-18.1,13.3c-.3.2-.5.4-.6.7-1.5,3.5-4.8,5.6-6.6,7.7-9.3,11.3-14.7,24.2-16.4,38.9-.7,5.6,0,10.6,2.2,14.8.4.8,1.3,1.2,2.1.9,11.5-3.5,20.1-10.7,28.4-19.5h0c0,.1,0,.1,0,.1ZM435.2,854.1c-10.3,5.3-16.6,9.2-18.8,11.7-5.8,6.4-11.1,11.3-15.9,14.9-.1.1-.4.3-.4.5-9.8,16.1-20.6,28.2-17.2,48.6,2.2,13.1,14.9,11.3,23.7,6.5,10.1-5.5,14.3-10.6,22.3-21.7,4.9-6.8,8.3-14.4,12.2-21.8.2-.4.2-.7.1-1.2-.3-1.8.2-3.2,1.6-4.1.7-.4.9-1.1.9-1.8-.8-4.9,1.7-8.3,1.5-12.7-.2-4.8,0-18.5-4.9-19.7.9-.6,1-1.2.5-1.7-.3-.3-.7-.4-1-.4-1.9.3-3.4,1.2-4.6,2.6h0ZM609,862.6c-4.4,3-5.6,7.8-8.9,11.7-5.2,5.9-7.7,11.7-11.1,18.3-2.4,4.5-.8,11.9,1.5,15.2.4.5,1,.8,1.7.7,5-.6,8.9-2.6,11.8-6,2-2.3,6-5.6,6.7-6.9,2.8-5.3,4.4-8.9,5-10.9,1.4-4.6,2.2-9.2,2.4-13.7l.5-12.6c0-1-.7-1.8-1.7-1.8s-.6,0-.9.2c-1.1.6-2,1.2-2.8,2.1-2,2-3.3,3.3-4.1,3.8h0q0-.1,0-.1Z"/>
    </g>
    <g>
      <g>
        <path class="cls-5" d="M179.5,727.1l9.7-36.8h5.1l-9.7,36.8h-5.1Z"/>
        <path class="cls-5" d="M209.2,727.1l4.7-17.6c.2-.8.3-1.6.4-2.2,0-1.3-.2-2.3-1-3-.8-.7-1.9-1-3.5-1s-2.1.2-3.3.5c-1.2.3-2.3.8-3.3,1.3l-5.8,21.9h-4.8l7-26.4,4-.4v1.8c2.9-1.6,5.7-2.5,8.2-2.5s4.4.6,5.7,1.9c1.3,1.2,1.8,3,1.7,5.2,0,.9-.2,1.8-.4,2.6l-4.7,17.9h-4.8Z"/>
      </g>
      <g>
        <path class="cls-5" d="M230.9,735l13.2-49.9h31.1l-2.1,7.9h-21.3l-3.7,13.8h18.4l-2.1,7.9h-18.4l-5.3,20.2h-9.9Z"/>
        <path class="cls-5" d="M268.3,735l9.4-35.8,9.6-.9-9.7,36.8h-9.3ZM284.5,692.6c-1.5,0-2.7-.4-3.6-1.2-.8-.8-1.2-1.9-1.1-3.1.1-1.9.8-3.5,2-4.6,1.2-1.1,2.8-1.7,4.8-1.7s2.7.4,3.6,1.2c.8.8,1.2,1.9,1.1,3.1-.1,1.9-.8,3.5-2,4.6-1.2,1.1-2.8,1.7-4.8,1.7Z"/>
        <path class="cls-5" d="M307.8,735l6.2-23.4c.3-1,.4-1.9.5-2.7,0-1.4-.3-2.4-1.1-3.2-.9-.7-2.1-1.1-3.7-1.1-2.3,0-4.6.6-6.7,1.8l-7.6,28.6h-9.3l9.5-36,7.6-.8v2.3c3.9-2.1,7.5-3.2,10.8-3.2s5.9.9,7.7,2.6c1.8,1.7,2.6,4.1,2.4,7.2,0,1.4-.3,2.7-.6,3.8l-6.4,24h-9.3Z"/>
        <path class="cls-5" d="M347.2,735.2v-2.3c-3.9,2.1-7.5,3.2-10.8,3.2s-5.8-1-7.7-2.8c-1.8-1.9-2.7-4.4-2.4-7.6.2-2.5,1-4.7,2.5-6.7,1.5-1.9,3.4-3.4,5.7-4.5,2.3-1,4.9-1.6,7.7-1.6s6.1.4,9,1.2l.8-2.9c.2-.8.3-1.4.3-1.9.2-3.3-2.2-5-7.4-5s-7.7.7-11.4,2.1l1.8-6.8c4-1.6,8.2-2.4,12.4-2.4s8.1,1,10.5,2.9c2.4,1.9,3.5,4.6,3.2,8.1,0,1.1-.3,2.3-.7,3.7l-5.9,22.4-7.6.8ZM340.7,729.4c1,0,2.2-.2,3.4-.5,1.2-.3,2.3-.8,3.4-1.4l2.1-8.1c-2.1-.5-4.1-.7-6.1-.7s-4.1.5-5.5,1.6c-1.4,1.1-2.2,2.6-2.3,4.5-.1,1.5.3,2.7,1.1,3.5.8.8,2.2,1.2,3.9,1.2Z"/>
        <path class="cls-5" d="M384.3,735l6.2-23.4c.3-1,.4-1.9.5-2.7,0-1.4-.3-2.4-1.1-3.2-.9-.7-2.1-1.1-3.7-1.1-2.3,0-4.6.6-6.7,1.8l-7.6,28.6h-9.3l9.5-36,7.6-.8v2.3c3.9-2.1,7.5-3.2,10.8-3.2s5.9.9,7.7,2.6c1.8,1.7,2.6,4.1,2.4,7.2,0,1.4-.3,2.7-.6,3.8l-6.4,24h-9.3Z"/>
        <path class="cls-5" d="M429,733.5c-3.6,1.8-7.3,2.6-11,2.6s-8.4-1.3-10.7-3.9c-2.3-2.6-3.3-6.4-3-11.3.3-4.7,1.5-8.8,3.5-12.4,2-3.6,4.5-6.4,7.7-8.3,3.1-1.9,6.6-2.9,10.4-2.9s7.4,1,10.7,3l-1.7,6.8c-2.9-1.6-5.7-2.4-8.5-2.4s-4.3.7-6.1,2.1c-1.8,1.4-3.2,3.3-4.3,5.7-1.1,2.4-1.7,5-1.9,7.9-.2,2.9.2,5.1,1.3,6.4,1.1,1.3,2.9,2,5.5,2s6.5-.7,9.9-2.1l-1.8,6.8Z"/>
        <path class="cls-5" d="M434.6,735l9.4-35.8,9.6-.9-9.7,36.8h-9.3ZM450.8,692.6c-1.5,0-2.7-.4-3.6-1.2-.8-.8-1.2-1.9-1.1-3.1.1-1.9.8-3.5,2-4.6,1.2-1.1,2.8-1.7,4.8-1.7s2.7.4,3.6,1.2c.8.8,1.2,1.9,1.1,3.1-.1,1.9-.8,3.5-2,4.6-1.2,1.1-2.8,1.7-4.8,1.7Z"/>
        <path class="cls-5" d="M474.3,735.2v-2.3c-3.9,2.1-7.5,3.2-10.8,3.2s-5.8-1-7.7-2.8c-1.8-1.9-2.7-4.4-2.4-7.6.2-2.5,1-4.7,2.5-6.7,1.5-1.9,3.4-3.4,5.7-4.5,2.3-1,4.9-1.6,7.7-1.6s6.1.4,9,1.2l.8-2.9c.2-.8.3-1.4.3-1.9.2-3.3-2.2-5-7.4-5s-7.7.7-11.4,2.1l1.8-6.8c4-1.6,8.2-2.4,12.4-2.4s8.1,1,10.5,2.9c2.4,1.9,3.5,4.6,3.2,8.1,0,1.1-.3,2.3-.7,3.7l-5.9,22.4-7.6.8ZM467.9,729.4c1,0,2.2-.2,3.4-.5,1.2-.3,2.3-.8,3.4-1.4l2.1-8.1c-2.1-.5-4.1-.7-6.1-.7s-4.1.5-5.5,1.6c-1.4,1.1-2.2,2.6-2.3,4.5-.1,1.5.3,2.7,1.1,3.5.8.8,2.2,1.2,3.9,1.2Z"/>
        <path class="cls-5" d="M489.8,735l14.2-53.6,9.5-.9-14.4,54.5h-9.3Z"/>
        <path class="cls-5" d="M526.5,735l13.2-49.9h9.9l-11.1,42h20.7l-2.1,7.9h-30.7Z"/>
        <path class="cls-5" d="M562.4,735l9.4-35.8,9.6-.9-9.7,36.8h-9.3ZM578.6,692.6c-1.5,0-2.7-.4-3.6-1.2-.8-.8-1.2-1.9-1.1-3.1.1-1.9.8-3.5,2-4.6,1.2-1.1,2.8-1.7,4.8-1.7s2.7.4,3.6,1.2c.8.8,1.2,1.9,1.1,3.1-.1,1.9-.8,3.5-2,4.6-1.2,1.1-2.8,1.7-4.8,1.7Z"/>
        <path class="cls-5" d="M599.9,705l-4.5,16.8c-.4,1.6-.6,2.9-.7,3.8-.2,2.3,1.2,3.4,4,3.4s3.5-.2,5.1-.6l-1.7,6.6c-2.2.7-4.6,1.1-7.1,1.1s-5.6-.8-7.4-2.4c-1.8-1.6-2.6-3.7-2.4-6.4,0-1.4.3-2.7.6-3.9l4.9-18.3h-5.2l1.7-6.3,5.7-.2,3.1-9.1,8.3-.9-2.6,10h9.1l-1.7,6.6h-9.1Z"/>
        <path class="cls-5" d="M636.3,733.4c-1.6.9-3.5,1.5-5.5,2-2,.5-4,.7-6,.7-5.2,0-9.1-1.3-11.6-4-2.6-2.7-3.7-6.5-3.3-11.5.3-4.5,1.5-8.5,3.5-12.1,2-3.6,4.5-6.4,7.6-8.3,3.1-1.9,6.4-2.9,10.1-2.9s7.4,1.1,9.6,3.2c2.2,2.2,3.2,5.1,3,8.9-.2,2.5-.9,5.7-2.2,9.4h-22.1c-.1.5-.2,1.3-.3,2.4-.4,5.3,2.4,7.9,8.2,7.9s3.4-.2,5.4-.6c2-.4,3.8-1,5.7-1.8l-1.8,6.8ZM629.9,703.8c-2,0-3.9.8-5.5,2.4-1.6,1.6-2.9,3.9-3.9,6.9h13.9c.4-1.2.6-2.4.7-3.6.1-1.9-.2-3.3-1.1-4.2-.9-.9-2.3-1.4-4.1-1.4Z"/>
        <path class="cls-5" d="M643.9,735l9.5-36,7.6-.8v3.3c3.6-2.7,7.1-4.1,10.5-4.1s2.4.2,3.5.5l-2,7.7c-1.3-.3-2.5-.4-3.5-.4-3.3,0-6.3.9-9,2.6l-7.2,27.1h-9.3Z"/>
        <path class="cls-5" d="M692.6,735.2v-2.3c-3.9,2.1-7.5,3.2-10.8,3.2s-5.8-1-7.7-2.8c-1.8-1.9-2.7-4.4-2.4-7.6.2-2.5,1-4.7,2.5-6.7,1.5-1.9,3.4-3.4,5.7-4.5,2.3-1,4.9-1.6,7.7-1.6s6.1.4,9,1.2l.8-2.9c.2-.8.3-1.4.3-1.9.2-3.3-2.2-5-7.4-5s-7.7.7-11.4,2.1l1.8-6.8c4-1.6,8.2-2.4,12.4-2.4s8.1,1,10.5,2.9c2.4,1.9,3.5,4.6,3.2,8.1,0,1.1-.3,2.3-.7,3.7l-5.9,22.4-7.6.8ZM686.2,729.4c1,0,2.2-.2,3.4-.5,1.2-.3,2.3-.8,3.4-1.4l2.1-8.1c-2.1-.5-4.1-.7-6.1-.7s-4.1.5-5.5,1.6c-1.4,1.1-2.2,2.6-2.3,4.5-.1,1.5.3,2.7,1.1,3.5.8.8,2.2,1.2,3.9,1.2Z"/>
        <path class="cls-5" d="M735.3,733.5c-3.6,1.8-7.3,2.6-11,2.6s-8.4-1.3-10.7-3.9c-2.3-2.6-3.3-6.4-3-11.3.3-4.7,1.5-8.8,3.5-12.4,2-3.6,4.5-6.4,7.7-8.3s6.6-2.9,10.4-2.9,7.4,1,10.7,3l-1.7,6.8c-2.9-1.6-5.7-2.4-8.5-2.4s-4.3.7-6.1,2.1c-1.8,1.4-3.2,3.3-4.3,5.7-1.1,2.4-1.7,5-1.9,7.9-.2,2.9.2,5.1,1.3,6.4,1.1,1.3,2.9,2,5.5,2s6.5-.7,9.9-2.1l-1.8,6.8Z"/>
        <path class="cls-5" d="M736.3,743.4c3.6-.4,6.4-1.3,8.5-2.5,2.1-1.2,4-3.1,5.6-5.6l-3.7-37h9.4l.8,28,15.6-28h9.3l-22.3,36.6c-3.1,5.1-6.3,8.9-9.7,11.5s-7.4,4.2-11.9,4.9l-1.6-8Z"/>
      </g>
    </g>
  </g>
  <g>
    <g>
      <g>
        <g>
          <g id="gLrYwI-3" data-name="gLrYwI">
            <path class="cls-7" d="M2326.9,226.5c0,4.9-.1,9.8,0,14.7,0,2.6-.8,4.2-3.1,5.5-8.5,4.7-17,9.6-25.4,14.5-1.7,1-3.5,1-5.2,0-4.4-2.5-8.8-4.9-13.1-7.4-4.2-2.4-8.3-4.8-12.5-7.1-2.2-1.2-3.2-2.8-3.2-5.3,0-10,0-20,0-30,0-.4,0-.8,0-1.1,0-1.6.7-2.7,2.2-3.5,5.3-3,10.5-6,15.7-9,3.3-1.9,6.6-3.7,9.8-5.6,2.3-1.4,4.4-1.5,6.9-.1,8.4,4.9,16.9,9.7,25.4,14.5,1.7.9,2.4,2.2,2.4,4.1,0,5.3,0,10.6,0,15.9h0ZM2296.4,246.3c6.1-.1,11.9-2.4,16.6-7.5,4.4-4.8,6.5-10.5,6.5-17,0-1.7-.3-2-2-1.9-3.4.2-6.5,1.2-9.4,3-6.9,4.2-10.7,10.5-11.5,18.5,0,.8-.2,1.6-.4,2.4,0,.1-.2.3-.4.3-.3,0-.5-.1-.5-.4,0-.4-.1-.7-.1-1.1,0-1.3-.2-2.5-.5-3.7-2.1-9.1-7.5-15.3-16.4-18.3-1.4-.5-2.8-.7-4.3-.7-1.5,0-1.8.2-1.9,1.7,0,1.4,0,2.8.1,4.1,2,12.5,11.9,20.5,24.3,20.6ZM2288.3,213.5c0,4.2,3.1,7.5,7.3,7.6,4.2,0,7.6-3.2,7.7-7.4,0-3.9-3.4-7.5-7.4-7.6-4.2,0-7.6,3.2-7.6,7.4Z"/>
          </g>
          <g id="gLrYwI-4" data-name="gLrYwI">
            <g>
              <path class="cls-3" d="M2363.1,221.9c1.2-.5,1.7-1.3,2.3-2,4.2-4.8,8.5-9.5,12.7-14.3,1.1-1.3,2.4-1.9,4.1-1.7,1.4,0,2.8,0,4.3,0,.8,0,1.6.1,2,1,.3.8,0,1.4-.6,1.9-1.6,1.9-3.2,3.7-4.9,5.6-3.4,3.8-6.8,7.6-10.2,11.4-1.4,1.6-1.4,1.6,0,3.2,5.2,6.2,10.5,12.5,15.7,18.7.1.2.3.3.4.5.5.7,1.1,1.4.7,2.3-.5,1-1.4,1.1-2.4,1.1-1.7,0-3.4,0-5.1,0-1.4,0-2.4-.5-3.3-1.6-4.4-5.5-8.8-10.9-13.2-16.4-.7-.8-1.3-1.7-2.1-2.4-.4.8-.2,1.5-.2,2.2,0,4.7,0,9.5,0,14.2,0,.6,0,1.3,0,1.9-.2,1.2-.7,1.8-1.9,1.9-1.8.1-3.5,0-5.3,0-1.2,0-1.8-.7-2-1.8,0-.6-.1-1.3-.1-1.9,0-12.7,0-25.4,0-38.1,0-.5,0-1,0-1.5.2-1.8.7-2.3,2.6-2.4,1.4,0,2.8,0,4.3,0,2,0,2.5.6,2.5,2.6,0,3.7,0,7.4,0,11.1,0,1.4,0,2.8,0,4.4Z"/>
              <path class="cls-3" d="M2682.7,222.5c1.3-1.2,2.4-2,3.7-2.7,4.4-2.1,9.8-1.5,13,1.8,1.2,1.2,1.3,1.2,2.6,0,3.3-2.7,7-3.6,11.1-2.9,4.4.7,7.2,3.1,8.5,7.3.6,1.8.8,3.7.8,5.7,0,4.9,0,9.8,0,14.7,0,2.6-.5,3.1-3.1,3.2-1.1,0-2.1,0-3.2,0-1.7,0-2.3-.7-2.3-2.4,0-2.6,0-5.2,0-7.9,0-2.3,0-4.7,0-7,0-1.1-.1-2.1-.5-3.1-.6-1.5-1.6-2.4-3.3-2.6-1,0-2-.1-3,0-2.2.4-3.3,1.9-3.3,4.2,0,5,0,9.9,0,14.9,0,.6,0,1.3,0,1.9-.2,1.2-.7,1.8-1.9,1.9-1.6,0-3.1,0-4.7,0-1.4,0-1.9-.6-1.9-2,0-1.1,0-2.3,0-3.4,0-3.7,0-7.4,0-11.1,0-1.4-.1-2.7-.5-4-.4-1.4-1.4-2.2-2.9-2.5-4-.7-6.7,1.5-6.7,5.5,0,4.4,0,8.8,0,13.2,0,.6,0,1.3,0,1.9-.2,1.7-.7,2.3-2.4,2.3-1.3,0-2.7,0-4,0-1.5,0-2-.6-2.1-2.1,0-1.4,0-2.8,0-4.3,0-6.8,0-13.6,0-20.4,0-.6,0-1.3,0-1.9,0-.7.4-1.2,1-1.5,1.8-.8,3.8,0,4.6,1.6.2.4.4.7.7,1.4Z"/>
              <path class="cls-3" d="M2539.9,249.6c-2.6.7-4.2-.8-5.1-3.5-.4-1.1-1-2.2-1.5-3.3-.4-1-1.1-1.4-2.2-1.4-5.4,0-10.8,0-16.1,0-1.1,0-1.7.4-2.1,1.4-.6,1.4-1.3,2.8-1.9,4.3-.7,1.8-1.9,2.7-3.9,2.6-1.1,0-2.1,0-3.2,0-2.6,0-3.1-.8-2-3.1,1.6-3.4,3.1-6.8,4.7-10.2,4.7-10.2,9.4-20.3,14.1-30.4.3-.6.6-1.3,1-1.9.8-1.1,2.2-1.1,3,0,.2.3.4.7.6,1.1,6.3,13.8,12.7,27.7,19,41.5,1,2.1.5,2.9-1.8,3-.7,0-1.4,0-2.6,0ZM2522.8,220.7c-.6,1.4-1.3,2.8-2,4.3-1.1,2.4-2.2,4.9-3.3,7.4-.4,1-.2,1.3.8,1.3,1.1,0,2.3,0,3.4,0,2,0,4,0,5.9,0,1.2,0,1.3-.2.9-1.2-.1-.3-.3-.7-.4-1-1.5-3.3-3-6.6-4.5-9.8-.2-.4-.3-.8-1-.9Z"/>
              <path class="cls-3" d="M2631.6,246.7c-.8,0-1.2.5-1.6.9-6.9,5.4-16.2,2.7-20.2-3.8-4.2-6.9-3.2-16.5,2.8-21.6,3.2-2.8,7-3.8,11.2-3.5,1.3.1,2.7.4,4,.6,1.2.2,1.4,0,1.4-1.1,0-2.3,0-4.7,0-7,0-1.6,0-3.3,0-4.9,0-1.7.7-2.3,2.4-2.3,1.3,0,2.7,0,4,0,1.6,0,2.1.6,2.2,2.2,0,.5,0,1,0,1.5,0,12.7,0,25.4,0,38,0,.3,0,.6,0,.8,0,2.7-1.9,3.9-4.4,2.9-.9-.4-1.2-1.2-1.5-2,0-.3-.2-.5-.4-.8ZM2629.2,233.6h0c0-1.3,0-2.7,0-4,0-1.3-.5-1.9-1.7-2.4-1.4-.5-2.8-.6-4.2-.6-3.6,0-6,1.8-7,5.3-.4,1.6-.4,3.2,0,4.8,1.1,4.6,5.1,6.9,9.3,5.3,2.3-.9,3.5-2.6,3.5-5,0-1.1,0-2.3,0-3.4Z"/>
              <path class="cls-3" d="M2402.6,220.5c1.7-.8,3.4-1.6,5.4-1.8,8.9-.9,12.9,3.9,13.8,10.2.3,1.8.4,3.7.4,5.5,0,4,0,8.1,0,12.1,0,2.6-.6,3.1-3.2,3.1-.9,0-1.8,0-2.8,0-2.2,0-2.6-.5-2.7-2.6,0-4.3,0-8.5,0-12.8,0-1,0-2-.2-3-.6-3.4-2.3-4.8-5.5-4.7-3,0-5.2,2.1-5.6,5.1,0,.6,0,1.3,0,1.9,0,4.5,0,8.9,0,13.4,0,2.2-.4,2.6-2.6,2.6-1.1,0-2.1,0-3.2,0-2.2,0-2.7-.6-2.8-2.8,0-.4,0-.7,0-1.1,0-12.6,0-25.2,0-37.8,0-.4,0-.9,0-1.3,0-2.1.6-2.6,2.7-2.7,1.2,0,2.4,0,3.6,0,1.8,0,2.2.5,2.3,2.3,0,.5,0,1,0,1.5,0,3.5,0,7.1,0,10.6,0,.7-.2,1.4.3,2.2Z"/>
              <path class="cls-3" d="M2739.5,236.9c.6-.2.5-.8.7-1.2,1.8-4.7,3.6-9.4,5.4-14.1.8-2.2,1.1-2.4,3.4-2.4,1.3,0,2.7,0,4,0,2.1,0,2.7.9,1.9,2.9-1,2.5-2,5-3.1,7.5-4.4,10.7-8.8,21.3-13.3,32-.3.7-.6,1.3-.8,2-.4,1-1.2,1.5-2.3,1.5-1.7,0-3.4,0-5.1,0-1.9,0-2.5-.9-1.8-2.6,1.2-3.1,2.2-6.3,3.7-9.3,1.8-3.6,1.8-6.9.3-10.7-2.5-6.1-4.5-12.5-6.8-18.8-.2-.6-.4-1.2-.6-1.8-.4-1.6.1-2.4,1.8-2.5,1.4,0,2.8,0,4.2,0,2.5,0,2.7.2,3.4,2.5,1.4,4.7,2.8,9.3,4.2,14,.1.4,0,.9.5,1.1Z"/>
              <path class="cls-3" d="M2661.1,236.3c-2.5,0-5.1,0-7.6,0-2.1,0-2.5.8-1.5,2.7,1.6,3,5.3,4.4,9,3.4,1.2-.3,2.3-1,3.4-1.6,1.5-.9,1.9-.8,3,.6.6.8,1.2,1.6,1.8,2.4.8,1.3.7,2-.5,2.9-9.1,7.2-23,3.9-25.8-8.6-1.5-6.8,1.3-13.8,7.1-17.3,8-4.8,19.5-1.6,21.6,9.1.2,1.1.2,2.1.2,3.2,0,2.6-.6,3.2-3.3,3.3-2.5,0-5,0-7.4,0h0ZM2657.6,230.3h0c1.3,0,2.7,0,4,0,1.5,0,1.8-.6,1-1.9-1.1-2-2.9-2.8-5.1-2.7-2.3,0-4.1,1-5.2,3-.5,1-.3,1.5.8,1.6,1.5,0,3,0,4.4,0Z"/>
              <path class="cls-3" d="M2464.7,222.3c.8-.1,1.2-.7,1.7-1.1,4.4-3.4,10.4-3.3,14.8-.9,1.5.8,2.7,2.1,3.5,3.6,1.1,2.2,1.7,4.5,1.8,6.9,0,5.3,0,10.6,0,15.9,0,2.3-.5,2.8-2.9,2.9-1.1,0-2.3,0-3.4,0-1.6,0-2.1-.7-2.3-2.2,0-.6,0-1.1,0-1.7,0-3.9,0-7.8,0-11.7,0-.7,0-1.4,0-2.1-.1-3-1.2-4.7-3.2-5.2-2.9-.7-5.9.5-7.2,2.8-.5.9-.6,1.9-.6,2.9,0,4.5,0,8.9,0,13.4,0,.6,0,1.3,0,1.9-.2,1.4-.6,1.9-2,2-1.5,0-3,0-4.5,0-1.3,0-1.9-.7-2-2,0-.6,0-1.1,0-1.7,0-7.7,0-15.4,0-23.1,0-.6,0-1.1,0-1.7,0-1.1.7-1.6,1.8-1.8,2.5-.4,3.1,0,4.7,3Z"/>
              <path class="cls-3" d="M2451.9,238.4c0,2.8,0,5.5,0,8.3,0,1.9-.4,2.5-1.6,2.9-1.7.4-3,0-3.9-1.3q-.8-1.2-2.1-.3c-3.3,2.1-6.8,3-10.7,2.1-4.5-1.1-7.2-4.5-7.5-9.6-.3-3.9,2.3-7.6,6.3-9.2,2.9-1.1,5.9-1.2,9-.8.7.1,1.6.6,2.1-.3.5-.8.2-1.7-.2-2.4-.7-1.4-2-1.9-3.5-1.9-1.9,0-3.8.3-5.7.6-.8.1-1.5.3-2.3.4-1.1.2-1.8-.2-2.1-1.3-.3-1.1-.5-2.2-.7-3.3-.2-1.3.1-1.9,1.4-2.3,1.4-.4,2.9-.8,4.3-1,2.8-.4,5.6-.7,8.5-.3,5,.7,7.6,3.2,8.4,8.2.3,2,.4,4.1.4,6.1,0,1.8,0,3.5,0,5.3h0ZM2443.7,239.3c0-2.2,0-2.5-1-2.9-2.1-.7-4.2-.8-6.2,0-2.7,1.1-2.4,5.5-.5,6.6,1.7,1,3.4,1,5.1.1,1.6-.9,3-2,2.7-4Z"/>
              <path class="cls-3" d="M2602.6,238.1c0,3,0,6,0,8.9,0,1.7-.4,2.2-1.4,2.5-1.6.4-3.1,0-3.8-1-1-1.4-1-1.4-2.4-.5-3,1.9-6.1,2.8-9.7,2.2-5-.9-8.2-4.4-8.4-9.5-.2-4.9,2.7-8.6,7.6-9.8,2.5-.6,5-.7,7.6-.3,2.1.3,2.7-.5,2-2.5-.6-1.6-1.8-2.1-3.3-2.2-2.1,0-4.2.3-6.3.7-3.7.7-3.9.6-4.6-3.1-.5-2.6-.2-3.2,2.4-3.7,3.9-.9,7.9-1.6,12-.9,4.2.7,6.7,2.9,7.8,7,.5,2.1.5,4.2.5,6.3,0,2,0,4,0,6ZM2590.5,235.9s0,0,0,0c-.6,0-1.3,0-1.9.1-2.3.3-3.6,2.1-3.4,4.3.2,2.2,1.9,3.7,4.2,3.5,1,0,1.9-.4,2.8-.9,2-1.1,2.7-2.9,2-5.5-.5-1.9-2.2-1.3-3.5-1.5,0,0-.1,0-.2,0Z"/>
              <path class="cls-3" d="M2553.9,234.5c0,4.4,2.3,7.2,6.3,8,2.1.4,3.9-.2,5.6-1.4.6-.5,1.2-1,1.7-1.6.7-.6,1.5-.8,2.3-.1,1,.7,1.9,1.5,2.8,2.3,1.1,1.1,1.1,1.7.2,3-2.7,3.9-6.7,5.7-11.3,5.8-8.1.1-13.9-5-15.7-11.3-2.8-9.5,3.3-19,13.2-20.3,4.7-.7,8.8.7,12.4,3.8,1.9,1.7,1.9,2.3.4,4.2-.6.8-1.3,1.5-2,2.2-.7.7-1.5.7-2.3.1-.5-.4-1-.8-1.5-1.2-4.1-2.9-9.9-1.2-11.6,3.6-.4,1-.4,2.1-.4,3Z"/>
            </g>
          </g>
        </g>
        <g>
          <path class="cls-6" d="M2425.1,157.1c-10.2,7.2-22.2,14.8-35.1,22.7l-.5.3s0,0-.1.1c0,0,0,0,0,.2,0,0,0,.1,0,.2,0,0,0,.1,0,.2,0,0,0,0,.1.1,0,0,.1,0,.2,0,0,0,.1,0,.2,0,0,0,.1,0,.1,0l.4-.2c11-5.7,23.6-12.6,36.3-19.6h.2c-.7-1.2-1.3-2.5-1.7-3.8h0ZM2491.8,103.1c-16-17.6-119.1-1.8-162.9,7.8l-1,.2s0,0-.1,0c0,0,0,0-.1.1s0,0,0,.1c0,0,0,0,0,.1,0,0,0,.1,0,.1,0,0,0,0,.1.1,0,0,0,0,.1,0,0,0,.1,0,.2,0l1-.2c36.3-6.5,111.8-15.4,128.1.7,5,4.9,3.8,11.3-2,18.7,3.2,2.1,5.4,5.3,6.3,9.1,22.4-15,37.5-29.2,30.4-37.1Z"/>
          <path class="cls-9" d="M2431.6,152.5c.2,6.2,4.2,11.3,9.3,11.3,9.9,0,14.2-12.2,13.9-20.4-.2-6.2-4.2-11.3-9.4-11.3-8.5,0-14.1,12.2-13.8,20.4ZM2426.3,152.2c-.4-10.6,7.9-21.5,20-21.5s13.4,5.4,13.6,13.6c.4,11.2-7.4,21.5-20,21.5s-13.4-5.4-13.7-13.6Z"/>
          <path class="cls-9" d="M2312,149.3c-.5.2-1.1.4-1.7.5-.7.2-2,.4-3.8.7-.9,0-1.8.4-2.6.8-.2.1-.4.3-.6.6-.1.2-.2.5-.3.7,0,.3,0,.5,0,.8,0,.2.3.4.5.6.7.4,1.6.6,2.4.5.9,0,1.7-.1,2.5-.4.7-.2,1.4-.6,2-1.1.4-.4.7-.8.9-1.3.2-.7.4-1.5.5-2.2h0ZM2322.5,142.9c0,1.1-.3,2.2-.5,3.3l-1.8,10c0,.4,0,.8.1,1.2.2.4.5.7.9.9v.4h-10.1v-2.6c-1.6,1-3.3,1.7-5,2.2-1.6.4-3.2.6-4.9.6-3.3,0-5.2-.3-6.5-1.5-.6-.4-1.1-.9-1.4-1.5-.3-.6-.5-1.3-.5-2,.1-1.1.5-2.1,1.2-3,.7-.8,1.7-1.5,2.7-1.9,1.3-.6,2.7-1,4.1-1.1,1.8-.3,4.3-.6,7.6-.9,1.1,0,2.3-.3,3.3-.7.7-.3,1-.6,1.1-1.1.2-1-.1-1.6-1.5-1.9-4.7-.3-9.5.1-14.1,1.4l1.9-5.2c4.5-.7,9.1-1.1,13.6-1.1,7.3,0,9.7,2.1,9.6,4.8"/>
          <path class="cls-9" d="M2351.9,158.6l3.5-19.9h9.8l-3.5,19.9h-9.7ZM2356,134c.3-1.7,2.9-3,5.8-3s5,1.3,4.7,3c-.3,1.7-2.9,3-5.8,3s-5-1.3-4.7-3Z"/>
          <path class="cls-9" d="M2399.8,149.4c-.4.2-1,.3-1.7.5-.7.2-2,.4-3.8.7-.9,0-1.8.4-2.6.8-.4.3-.7.8-.8,1.3,0,.2,0,.5,0,.7,0,.2.3.4.5.6.8.4,1.6.6,2.5.5.8,0,1.7-.1,2.5-.4.8-.2,1.5-.6,2.1-1.1.4-.4.7-.8.9-1.3.2-.8.4-1.5.5-2.3ZM2410.2,142.8c0,1.1-.2,2.2-.5,3.3l-1.8,10c0,.4,0,.8.1,1.2.2.4.5.7.8.9v.4h-10.2v-2.6c-1.5,1-3.2,1.7-4.9,2.2-1.6.4-3.2.6-4.9.6-3.3,0-5.1-.3-6.5-1.5-.6-.4-1.1-.9-1.4-1.5-.3-.6-.5-1.3-.5-2,0-1.1.5-2.1,1.2-3,.8-.8,1.7-1.5,2.7-1.9,1.3-.6,2.7-1,4.1-1.2,1.8-.3,4.4-.6,7.7-.9,1.1,0,2.3-.3,3.3-.7.7-.3,1-.6,1.1-1.1.2-1-.2-1.6-1.5-1.9-3.7-.7-10.5.5-14.1,1.4l1.9-5.2c4.5-.7,9.1-1.1,13.6-1.1,7.3,0,9.6,2.2,9.6,4.8"/>
          <path class="cls-9" d="M2291.5,151.3c-2.7.6-5.4.9-8.1.9-4.7,0-8.3-2.3-8.1-6.6.2-2.8,3.5-8.8,12-8.8,2.7,0,5.3.7,7.6,2.1l1.2-6.9c-3.1-1.2-6.3-1.8-9.6-1.6-11.1.1-21.8,5.2-23.1,15.4-1.3,10.2,11.4,13.2,17.1,13.1,3.3,0,6.6-.1,9.8-.5l1.3-7Z"/>
          <path class="cls-9" d="M2370.6,138.5l.7-4,10.2-2.2-1.1,6.3h5l-.9,4h-4.8l-2.9,16.1h-9.8l2.9-16.1h-3.7l.7-4h3.8Z"/>
          <path class="cls-9" d="M2420.1,158.5h-9.9s5-27.8,5-27.8l9.7.3-4.7,27.5Z"/>
          <path class="cls-9" d="M2339.1,143.3c-1.3,0-2.5.4-3.5,1.2-1.1.8-1.8,2.1-1.9,3.4-.2.6-.2,1.3-.1,1.9,0,.7.3,1.3.7,1.8.4.4.9.7,1.4.9.5.2,1.1.3,1.6.2.9,0,1.7-.1,2.5-.5.8-.4,1.4-.9,1.9-1.6.5-.8.9-1.7,1.1-2.6.2-.6.2-1.2,0-1.9-.1-.6-.4-1.2-.8-1.7-.4-.4-.8-.7-1.3-.9-.5-.2-1.1-.3-1.6-.3ZM2321.3,165.5l4.7-26.7h8.5l-.7,3.4c.9-1.1,2.2-2,3.6-2.5,1.7-.8,3.6-1.2,5.5-1.2,1.8-.1,3.6.2,5.3,1,1.6.8,2.8,2.1,3.4,3.8.6,1.7.8,3.6.4,5.4-.2,1.6-.8,3-1.6,4.4-.8,1.3-1.9,2.5-3.2,3.4-3.4,2.2-7.4,2.9-11.3,2.1-.7-.2-1.3-.4-1.9-.8-.6-.4-1.1-.9-1.6-1.5l-1.6,9.2h-9.6Z"/>
          <path class="cls-9" d="M2497.9,145.7c0-.3,0-.7-.1-1-.1-.3-.3-.6-.5-.9-.2-.3-.5-.5-.9-.6-.3-.1-.7-.2-1-.2-4,0-8.2,7.8-9,11,6.6,0,11.6-3.9,11.5-8.3ZM2498.8,158l.8.5c-.9,2.1-2.4,3.8-4.3,5.1-1.9,1.3-4,2-6.3,2.1-1,0-1.9-.1-2.8-.5-.9-.4-1.7-.9-2.4-1.6-.7-.7-1.2-1.5-1.5-2.4-.3-.9-.5-1.9-.4-2.8-.3-8.6,7.7-16.5,14.2-16.5s5.4,1.2,5.5,4.3c.2,6.8-9.3,8.8-15.6,9-.2.8-.3,1.7-.2,2.5,0,.7,0,1.4.3,2.1.3.7.7,1.2,1.2,1.7.5.5,1.1.9,1.8,1.1.7.2,1.4.3,2.1.3,1.6-.2,3.1-.7,4.4-1.5,1.3-.8,2.4-2,3.2-3.3Z"/>
          <path class="cls-9" d="M2459.8,145.5c.7,0,1.8-.2,2.2-.2s1.4.1,1.4.8c0,.7-.7,3.5-.9,4.2l-1.5,6.6c-.6,2.7-1.3,5.6-1.9,7.9h3.9l2.2-10.6c6.6-7,9.2-9.2,10.8-9.2.2,0,.3,0,.5,0,.2,0,.3.1.4.3.1.1.2.3.3.4,0,.2,0,.3,0,.5-.1,1.6-.5,3.3-1,4.8l-2.2,7.7c-.5,1.4-.8,2.9-.9,4.4,0,.3,0,.7.2,1,.1.3.3.6.6.8.2.2.5.4.9.5.3.1.7.1,1,.1,2.9,0,4.9-3,6.7-5.9l-.5-1c-.7,1.2-2.4,3.7-3.8,3.7s-.8-.3-.8-1c0-1.1.2-2.1.6-3.2l2.5-9.1c.5-1.6.8-3.3,1-5,0-.3,0-.7,0-1-.1-.3-.3-.6-.5-.9-.2-.2-.6-.4-.9-.5-.3-.1-.7-.1-1,0-2.6,0-6,1.9-13.2,10.2h-.1l.9-4.1c.5-2.2,1-4.5,1.4-6.1-2.7,1-5.5,1.7-8.3,2.3v1.4Z"/>
          <path class="cls-9" d="M2542,95.1h-1.4v85.8h1.4v-85.8Z"/>
          <path class="cls-9" d="M2583.4,107.2h-6v22.8h6v-22.8Z"/>
          <path class="cls-9" d="M2610.2,130.1l-1.2-13.6-4,11.6h-4.6l-4.2-11.7-1.3,13.7h-5.5l2.2-22.8h6.5l4.6,12.7,4.6-12.7h6.3l2.2,22.8h-5.6Z"/>
          <path class="cls-9" d="M2621.8,130.1v-22.4c1.3-.2,2.6-.4,4.1-.5,1.3-.1,2.6-.2,3.9-.2,2.5-.2,5,.5,7.1,2,.8.7,1.4,1.6,1.8,2.6.4,1,.6,2,.6,3.1,0,1.1-.2,2.1-.7,3.1-.4,1-1.1,1.9-1.9,2.6-2,1.5-4.5,2.2-7,2.1h-2.1v7.7h-5.9ZM2629.7,111.2c-.7,0-1.3,0-2,.1v6.8h2.1c.5,0,.9,0,1.4-.2.4-.2.8-.4,1.2-.7.3-.3.6-.7.8-1.2.2-.4.2-.9.2-1.4,0-2.2-1.2-3.4-3.6-3.4Z"/>
          <path class="cls-9" d="M2657.4,130.1l-1.3-4.4h-7.4l-1.3,4.4h-5.9l7.6-22.8h6.9l7.5,22.9h-6.1ZM2649.8,121.8h5.1l-2.6-8.8-2.6,8.8Z"/>
          <path class="cls-9" d="M2683.8,129.1c-2,1-4.3,1.5-6.6,1.5-1.4,0-2.9-.1-4.2-.7-1.3-.5-2.5-1.4-3.5-2.4-1.9-2.5-2.9-5.6-2.7-8.8-.2-3.2.8-6.3,2.7-8.8,1-1.1,2.2-1.9,3.5-2.4,1.3-.5,2.8-.8,4.2-.7,2.3,0,4.5.5,6.6,1.5v4.6c-.9-.4-1.9-.8-2.8-1.1-.9-.2-1.7-.3-2.6-.3-.7,0-1.5.1-2.1.4-.7.3-1.2.8-1.7,1.4-1,1.6-1.4,3.5-1.3,5.4-.1,1.9.3,3.8,1.3,5.4.4.6,1,1.1,1.7,1.4.7.3,1.4.5,2.1.4.9,0,1.8-.1,2.6-.3,1-.3,2-.6,2.9-1.1v4.5Z"/>
          <path class="cls-9" d="M2694.5,130.1v-18.1h-6.2v-4.7h18.5v4.7h-6.2v18.1h-6Z"/>
          <path class="cls-9" d="M2581.3,146.4h-3.2v22.8h3.2v-22.8Z"/>
          <path class="cls-9" d="M2603.4,169.2l-11-17.6v17.6h-3v-22.8h2.9l11,17.6v-17.6h3v22.8h-2.9Z"/>
          <path class="cls-9" d="M2617.6,146.4h-3.2v22.8h3.2v-22.8Z"/>
          <path class="cls-9" d="M2630.2,169.2v-20.2h-6.7v-2.6h16.5v2.6h-6.7v20.2h-3.2Z"/>
          <path class="cls-9" d="M2649.1,146.4h-3.2v22.8h3.2v-22.8Z"/>
          <path class="cls-9" d="M2671.3,169.3l-1.9-5.7h-9.3l-1.9,5.7h-3.3l7.9-22.9h3.8l7.9,22.9h-3.2ZM2660.8,161.2h7.8l-3.9-11.8-3.8,11.8Z"/>
          <path class="cls-9" d="M2682.5,169.2v-20.2h-6.7v-2.6h16.5v2.6h-6.7v20.2h-3.2Z"/>
          <path class="cls-9" d="M2701.4,146.4h-3.2v22.8h3.2v-22.8Z"/>
          <path class="cls-9" d="M2715.1,169.2l-7.8-22.8h3.4l6.2,19.4,6.3-19.4h3.3l-7.8,22.8h-3.5Z"/>
          <path class="cls-9" d="M2735.4,159v7.7h10.8v2.6h-13.9v-22.8h13.8v2.6h-10.7v7.3h9.3v2.6h-9.3Z"/>
        </g>
      </g>
      <text class="cls-12" transform="translate(1701.3 252.5) skewX(-4)"><tspan x="0" y="0">Lets Go</tspan></text>
      <text class="cls-10" transform="translate(1899.3 379.2) skewX(-4)"><tspan x="0" y="0" xml:space="preserve"> Set</tspan></text>
      <text class="cls-14" transform="translate(2066 379.2) skewX(-4)"><tspan x="0" y="0" xml:space="preserve"> a New</tspan></text>
    </g>
    <g>
      <g>
        <polygon class="cls-2" points="2702.5 657.8 2699.9 680.8 1858.1 650.4 2702.5 657.8"/>
        <polygon class="cls-6" points="1688.6 130.8 2123.8 101.4 2118.7 130.8 1688.6 130.8"/>
        <polygon class="cls-7" points="1871.2 419.4 1865.5 441.2 2294.3 416.2 1871.2 419.4"/>
        <polygon class="cls-1" points="1584.1 782.3 1575.6 809.3 1921.9 778.8 1584.1 782.3"/>
        <text class="cls-15" transform="translate(2142.1 586.5) skewX(-3)"><tspan x="0" y="0">Record</tspan></text>
        <text class="cls-15" transform="translate(1650.1 589.2) skewX(-3)"><tspan x="0" y="0">World</tspan></text>
        <g>
          <path class="cls-5" d="M1723.8,36.2s-29.4,99.4-29.4,99.4l-3.9-5.4s445.3-.6,445.3-.6c0,0,4.2,0,4.2,0l-.9,4.1s-34.4,157.4-34.4,157.4c0,0-1,4.6-1,4.6,0,0-4.8.1-4.8.1,0,0-199,4.6-199,4.6,0,0,7-5.7,7-5.7,0,0-24.9,118-24.9,118s-9.9-12.6-9.9-12.6c5.4.2,869,13.5,874,13.7,0,0-.6,3.6-.6,3.6,0,0-35.6,230.6-35.6,230.6,0,0-1.3,8.4-1.3,8.4,0,0-8.7,0-8.7,0,.8-2.8-1092.6-2.5-1078.1-9.4,0,0-29.4,130.3-29.4,130.3,0,0-8.1-10.6-8.1-10.6,0,0,82.2.3,82.2.3,117.9.6,292.7,1.9,411.1,3.1,48.3.2,116.9.5,164.4,3.6,0,0,0,2.7,0,2.7-47.3,4-116.3,2.5-164.4,3.6-118.6.9-293,2.7-411.1,3.1-3.8,0-92.2.3-93.6.4,0,0,3.3-10.6,3.3-10.6,0,0,39.7-127.5,39.7-127.5,0,0,.7-2.2.7-2.2s2.2,0,2.2,0c0,0,1081-7.1,1081-7.1,0,0-10,8.3-10,8.3,0,0,49.5-228,49.5-228l3,3.7s-870.5.6-870.5.6c0,0-13.1,0-13.1,0,0,0,3.3-12.6,3.3-12.6,0,0,30.4-116.7,30.4-116.7,0,0,1.5-5.6,1.5-5.6s5.6,0,5.6,0c0,0,199.1-2,199.1-2,0,0-5.8,4.7-5.8,4.7,0,0,39.7-156.2,39.7-156.2,0,0,3.3,4.1,3.3,4.1,0,0-445.3,2.1-445.3,2.1,0,0-6,0-6,0,0,0,2.1-5.4,2.1-5.4s37.1-96.8,37.1-96.8h0Z"/>
          <circle class="cls-5" cx="1723.8" cy="34.1" r="28.5"/>
          <circle class="cls-8" cx="1723.8" cy="34.1" r="13.8"/>
        </g>
        <g>
          <g>
            <path class="cls-6" d="M2515.5,753.1c-4.2-4.2-9.6-6.3-15.1-6.3s-10.9,2.1-15.1,6.2l-4,3.9-4-3.9c-4.2-4.2-9.6-6.2-15.1-6.2s-10.9,2.1-15.1,6.3c-8.3,8.3-8.3,21.8,0,30.2l3.9,3.9,30.2,30.1,30.2-30.1,3.9-3.9c8.3-8.3,8.4-21.8,0-30.2h0Z"/>
            <g>
              <path class="cls-4" d="M2504.3,924.4c-14.5,8.3-32.4,8.3-47,0-2.5,15.4-7.9,30.3-15.9,43.8h78.9c-8-13.5-13.4-28.3-15.9-43.8h0Z"/>
              <path class="cls-4" d="M2405.6,865.1c-6.1-11.7-11.4-23.8-15.9-36.2h0c-29-18.8-52.8-45.3-62.1-75.9h43c-1.4-9.1-2.4-18.1-3.2-27.1h-44.4c-7.3,0-14.1,3.5-18.5,9.3-4.4,5.8-5.8,13.3-3.9,20.3,12.9,50,56.9,91.9,107.3,113.8-.8-1.4-1.6-2.8-2.3-4.2Z"/>
              <path class="cls-4" d="M2657.3,735.2c-4.4-5.8-11.2-9.2-18.5-9.3h-44.4c-.8,9-1.9,18-3.2,27.1h42.9c-9.3,30.5-33.1,57.1-62.1,75.9-4.5,12.4-9.8,24.5-15.9,36.2-.7,1.4-1.5,2.8-2.3,4.3,50.5-21.8,94.5-63.8,107.4-113.8,1.9-7,.5-14.5-3.9-20.3Z"/>
              <path class="cls-4" d="M2425.3,707.2c0,1.8-1.2,3.4-2.9,3.8h-48.6c6.3,118.4,60.7,211.9,107.1,211.9h0c46.4,0,100.8-93.5,107.1-211.9h-47.4c-1.7-.5-2.9-2.1-2.9-3.8s1.2-3.4,2.9-3.8h47.7v-7.1c0-2.1-.7-4.1-2.1-5.6-1.4-1.5-3.4-2.4-5.5-2.4h-200c-2.1,0-4.1.9-5.5,2.4-1.4,1.5-2.2,3.5-2.1,5.6v7.1h49.1c1.7.5,2.9,2,2.9,3.8ZM2451.4,714.4c32.4-16.4,71.7-3.3,88,29.1h0c9.6,19.1,10,40.6,0,58.9-10.4,18.9-58.6,77.7-58.6,77.7,0,0-48.9-58.8-58.6-77.7-15.8-30.9-3.3-71.7,29.1-88Z"/>
              <path class="cls-4" d="M2428.8,975.9c-2,0-3.9.9-5.4,2.3-1.4,1.4-2.2,3.4-2.2,5.4v11.5h119.4v-11.5c0-2.1-.8-4-2.2-5.5-1.4-1.4-3.4-2.3-5.5-2.2h-104.1Z"/>
              <polygon class="cls-4" points="2553.8 869.4 2553.8 869.4 2553.8 869.4 2553.8 869.4"/>
              <path class="cls-4" d="M2408,869.4c0,0-.1,0-.2,0,0,0,0,0,0,0h.1Z"/>
              <path class="cls-4" d="M2555.4,1002.9h-149c-12.7.2-22.9,10.6-22.8,23.3v15.6c0,4.2,3.3,7.6,7.5,7.7h179.5c4.2,0,7.6-3.5,7.5-7.7v-15.6c0-12.7-10.1-23.1-22.8-23.3Z"/>
            </g>
          </g>
          <g>
            <path class="cls-5" d="M2713.2,893.4c-8.6-3.1-17.3-6.2-25.3-10.4-4.9,7.5-9.7,15-14.6,22.6,8,4.2,16.6,7.3,25.3,10.4,4.9-7.5,9.7-15,14.6-22.6Z"/>
            <path class="cls-5" d="M2727.4,968.2c.8,1,2.1,1.5,3.3,1.5,1.3,0,2.5-.8,3.2-1.8l43.8-67.7c.9-1.5.9-3.4-.3-4.7-12.6-15.6-30.7-22-48.2-28.4-17.3-6.2-33.6-12.1-44.7-25.9-.8-1-2.1-1.5-3.3-1.5-1.3,0-2.5.8-3.2,1.8l-43.8,67.7c-.9,1.5-.9,3.4.3,4.7.7.9,1.4,1.7,2.2,2.5,12.4,13.7,29.5,19.9,46.1,25.8,17.3,6.2,33.6,12,44.7,25.9h0ZM2685.4,934.7c-8.6-3.1-16.9-6.1-24.4-10,4.1-6.4,8.3-12.8,12.4-19.2-6.8-3.5-13.1-7.9-18.4-13.6l14.6-22.6c5.4,5.7,11.6,10,18.4,13.6,4.1-6.4,8.3-12.8,12.4-19.2,8.1,4.3,16.7,7.4,25.2,10.5-4.1,6.4-8.2,12.7-12.3,19.1,8.6,3.1,17.3,6.2,25.3,10.4,4.1-6.4,8.3-12.8,12.4-19.2,6.9,3.5,13.1,7.8,18.4,13.6l-12.4,19.1c-5.4-5.7-11.6-10-18.4-13.6-4.9,7.5-9.7,15-14.6,22.6,6.8,3.5,13.1,7.9,18.4,13.6l-12.3,19.1c-5.5-5.7-11.8-9.9-18.5-13.5,4.1-6.4,8.3-12.8,12.4-19.2-8-4.2-16.6-7.3-25.3-10.4-4.1,6.4-8.2,12.7-12.4,19.1-.3-.1-.6-.2-.9-.3h0Z"/>
            <path class="cls-5" d="M2688.7,812.5c-2.1-1.3-4.5-1.8-7-1.3-2.4.5-4.5,2-5.8,4-2,3.1-1.9,6.9-.1,9.8l-103.2,159.6c-1,1.6-.8,3.6.4,4.9.2.3.5.5.8.7,1.9,1.2,4.4.7,5.6-1.2l103.2-159.6c3.4.4,6.9-1,8.9-4.1,2.8-4.3,1.5-10-2.7-12.8h0Z"/>
          </g>
          <g>
            <path class="cls-8" d="M2253.1,957.6c10.9-14,27.2-20,44.3-26.5,16.5-6.2,33.5-12.6,45.7-26.5.7-.8,1.4-1.7,2.1-2.6,1.1-1.4,1.2-3.3.2-4.7l-44.7-67.1c-.7-1.1-1.9-1.7-3.2-1.8-1.3,0-2.5.6-3.3,1.5-10.9,13.9-27.2,20-44.3,26.5-17.4,6.6-35.4,13.3-47.8,29.1-1.1,1.4-1.2,3.3-.2,4.7l44.7,67.1c.7,1.1,1.9,1.7,3.2,1.8,1.3,0,2.5-.5,3.3-1.5h0Z"/>
            <path class="cls-5" d="M2281.1,905c8.6-3.2,17.2-6.5,25.1-10.8-5-7.5-10-14.9-14.9-22.4-7.9,4.3-16.5,7.5-25.1,10.8,5,7.4,10,14.9,14.9,22.4Z"/>
            <path class="cls-5" d="M2253.1,957.6c10.9-14,27.2-20,44.3-26.5,16.5-6.2,33.5-12.6,45.7-26.5.7-.8,1.4-1.7,2.1-2.6,1.1-1.4,1.2-3.3.2-4.7l-44.7-67.1c-.7-1.1-1.9-1.7-3.2-1.8-1.3,0-2.5.6-3.3,1.5-10.9,13.9-27.2,20-44.3,26.5-17.4,6.6-35.4,13.3-47.8,29.1-1.1,1.4-1.2,3.3-.2,4.7l44.7,67.1c.7,1.1,1.9,1.7,3.2,1.8,1.3,0,2.5-.5,3.3-1.5h0ZM2294.6,923.5c-.3.1-.6.2-.9.3-4.2-6.3-8.4-12.6-12.6-18.9-8.6,3.2-17.2,6.5-25.1,10.8,4.2,6.3,8.5,12.7,12.7,19-6.7,3.6-12.9,8-18.3,13.7l-12.6-18.9c5.3-5.8,11.5-10.2,18.2-13.8-5-7.5-10-14.9-14.9-22.4-6.7,3.6-12.9,8-18.2,13.8l-12.6-18.9c5.2-5.9,11.3-10.3,18.2-13.9,4.2,6.3,8.4,12.6,12.7,19,7.9-4.3,16.5-7.5,25.1-10.8-4.2-6.3-8.4-12.6-12.6-18.9,8.5-3.2,17.1-6.5,25.1-10.8,4.2,6.3,8.5,12.7,12.7,19,6.7-3.6,12.9-8,18.2-13.8l14.9,22.4c-5.3,5.8-11.5,10.2-18.2,13.8,4.2,6.3,8.4,12.6,12.7,19-7.5,4-15.8,7.1-24.3,10.3h0Z"/>
            <path class="cls-5" d="M2289.5,801.5c-4.3,2.8-5.4,8.6-2.6,12.8,2,3,5.6,4.5,9,4l105.5,158.1c1.2,1.9,3.7,2.4,5.6,1.1.3-.2.6-.4.8-.7,1.2-1.3,1.4-3.3.3-4.9l-105.5-158.1c1.8-3,1.8-6.8-.3-9.8-1.4-2-3.5-3.4-5.9-3.9-2.4-.5-4.9,0-7,1.4h0Z"/>
          </g>
        </g>
      </g>
      <path class="cls-4" d="M1618.7,349.5c-9,17.1-19,34.3-30,51.5-7.7,12.1-15.6,2.2-8.3-6.9,13.8-17.4,24.9-35.8,33.3-55.1.7-1.6-.5-3.3-2.2-3.2-27.6,1.3-54.6,3.5-81.1,6.7-3.9.5-10.7-1.2-6.3-6.6.7-.9,1.8-1.5,3-1.7,23.7-4.2,47.7-6.2,71.9-6,9.6,0,10.9-3.2,3.9-9.6l-62-57.7c-.9-.9-1.2-2.1-.7-3.1,2.3-4.4,5.9-5.5,10.7-3.1,10.6,5.2,18.7,13.9,24.1,26.4.6,1.3,1.3,2.4,2.2,3,13.8,10,26.1,21.6,36.8,34.8.7.9,1.2.6,1.2-.9,1.1-27-8.7-53.7-16.4-79.4-.4-1.6.4-3.2,1.9-3.8,9.3-3.7,9.6,4.4,11.3,10.5,6.7,24.4,11,49.1,13,74.3.1,1.2.5,1.3,1.1.3,14.2-22.9,28.2-42.6,47.6-61.3,3.4-3.3,4.5-2.6,3.3,1.9-2.1,7.7-8.3,10-12,15.2-11.8,16.8-23,33.9-33.8,51.5-1.4,2.3-.7,3.3,2.2,3.3l59.5-1.2c1,0,1.7.9,1.5,1.9-1.2,6.5-50.7,6.6-58,6.4-1.9,0-2.2.6-1.1,1.8l60.1,64.3c.8.8.6,2.4-.5,3.7-2.5,3.2-8.4-5.9-11.5-7.1-1.3-.5-2.3-1.2-3.1-2l-48.8-50.5c-1.7-1.7-2.4-1.4-2.2.9,2.2,24.3,6.1,48.6,11.6,72.9.6,2.9-2.7,16.7-5.9,2.9-5.7-24.4-10-49.3-13-74.4-.4-3.7-1.5-3.9-3.2-.6Z"/>
      <path class="cls-7" d="M1983.5,837c-9.8-4.6-20-5.4-30.8-2.2-12.5,3.7-24.2,8.1-35,13.4-.4.1-.6.4-.8.7-.9,1.7-.4,2.9,1.5,3.5,2.7,7.7,3.8,15.8,3.3,24-.1,2.6-.7,5.4-1.5,8.3-3.9,13.1-11,29.5-20.5,39.5-.7.8-1.7,1.8-2.7,3.2-9.2,11.7-33.7,26.6-45.7,9.1-2.2-3.3-3.5-11.7-2.8-15.6.7-3.7,1.2-7.5,1.7-11.2,0-.3.1-.6.4-.9,3.5-4.8,2.5-9.6,6.7-13.2.3-.3.5-.7.6-1.1.4-2.4,1.6-4.2,3.7-5.4.4-.2.7-.6.8-1,.9-3,2.7-5.4,5.2-7.1.4-.3.7-.7.7-1.2.2-2,1.3-2,2.3-3,7-6.9,14.3-13.5,21.9-19.8,5-2.2,9.8-5,14.4-8.5.8-.6.9-1.7.3-2.5,0,0,0-.1-.1-.1-7.3-7.2-15.7-11.2-25.1-11.9-23.3-1.8-49.7,17.8-63.6,35.7-3.6,3.9-6.7,8.2-9.3,12.7-6.6,11.6-12.4,22.5-14,35.9,0,.4,0,.8.3,1.2,2.2,3.5,1.4,4.3-2.6,2.2-.7-.4-1-1-.9-1.7.8-10.9,3.8-21.2,8.8-30.8,1.2-2.1,3-3.2,3.3-6.2,0-.5.3-.9.7-1.2l2.5-2c.4-.3.6-.7.7-1.1.4-2.4,1.4-4.5,3-6.2.2-.2.2-.6,0-.8l-.2-.5c3.9-2.1,6.4-4.7,7.6-7.7,19.1-22,54.9-44.3,84.4-26.9,3.8,2.2,6.9,5.6,10.6,8.5.5.4,1.2.5,1.8.2,10-4.6,20.1-8.5,30.5-12,12.9-4.3,25.8-4.8,38.9-1.4l4.6,4.7c.1.1.4.3.6.4,2.3,1,3.9,2.8,4.7,5.3.7,2.1,2.3,2.5,4.8,1,22.9-13.2,51.9-22.4,77.1-12.4,5.4,2.2,9.4,6.7,13.5,10.9.4.4.6,1.1.4,1.7-.3,1.1-.1,2,.4,2.6.6.7,1.5.9,2.3.5,15.3-8.9,30.6-14.5,45.8-16.7,13-1.9,23.7-4.6,37.1-4.3.6,0,1,.4,1.1,1,.1,1.3-.7,2-2.5,2.2-27.3,2.2-54.8,7.2-79.1,20.6-.4.2-.7.6-.8,1-.8,2.3-.7,4.5.3,6.6.2.4.2.9,0,1.4-.7,1.7-.5,3.4.5,5.1.2.4.4.9.2,1.4-1.5,6.2-.8,12.6-2.5,18.2-4.6,14.9-15.3,32.9-32.9,28.6-.4-.1-.9-.4-1.1-.8l-4.1-6.8c-.1-.2-.2-.5-.2-.8-.5-7,1.2-13.2,5.1-18.8,2.8-3.9,4.7-9.1,9.1-12.4.3-.2.4-.4.6-.8,3-7.6,9.5-12.1,17.2-18.7.4-.4.7-1,.6-1.6-2.5-20-30.8-21.9-45.4-19.2-14.2,2.7-28,7.9-41.5,15.5-.8.4-1.2,1.4-.7,2.3,2.9,6.1,8.3,24.4,4.2,30.5-.2.4-.3.7-.3,1.1.4,6.3-6.4,19.3-9.6,23.3-7.1,9-32.4,36.7-45.3,23.7-.3-.3-.4-.6-.5-.9-3.3-18-.1-33.7,9.6-47,8.5-11.7,14.6-18.9,18.2-21.5,5.4-3.9,10.8-7.4,16.1-10.6.9-.5,1.2-1.6.7-2.4,0-.1-.2-.3-.4-.4l-8.5-7.7h0ZM1984.2,907.8c14.9-15.9,19.2-35.5,11.7-56.2-.4-.9-1.4-1.4-2.3-1.1-.1,0-.3.1-.4.2l-18.1,13.3c-.3.2-.5.4-.6.7-1.5,3.5-4.8,5.6-6.6,7.7-9.3,11.3-14.7,24.2-16.4,38.9-.7,5.6,0,10.6,2.2,14.8.4.8,1.3,1.2,2.1.9,11.5-3.5,20.1-10.7,28.4-19.5h0c0,.1,0,.1,0,.1ZM1906.6,854.1c-10.3,5.3-16.6,9.2-18.8,11.7-5.8,6.4-11.1,11.3-15.9,14.9-.1.1-.4.3-.4.5-9.8,16.1-20.6,28.2-17.2,48.6,2.2,13.1,14.9,11.3,23.7,6.5,10.1-5.5,14.3-10.6,22.3-21.7,4.9-6.8,8.3-14.4,12.2-21.8.2-.4.2-.7.1-1.2-.3-1.8.2-3.2,1.6-4.1.7-.4.9-1.1.9-1.8-.8-4.9,1.7-8.3,1.5-12.7-.2-4.8,0-18.5-4.9-19.7.9-.6,1-1.2.5-1.7-.3-.3-.7-.4-1-.4-1.9.3-3.4,1.2-4.6,2.6h0ZM2080.4,862.6c-4.4,3-5.6,7.8-8.9,11.7-5.2,5.9-7.7,11.7-11.1,18.3-2.4,4.5-.8,11.9,1.5,15.2.4.5,1,.8,1.7.7,5-.6,8.9-2.6,11.8-6,2-2.3,6-5.6,6.7-6.9,2.8-5.3,4.4-8.9,5-10.9,1.4-4.6,2.2-9.2,2.4-13.7l.5-12.6c0-1-.7-1.8-1.7-1.8s-.6,0-.9.2c-1.1.6-2,1.2-2.8,2.1-2,2-3.3,3.3-4.1,3.8h0q0-.1,0-.1Z"/>
    </g>
    <g>
      <text class="cls-11" transform="translate(1649.1 727.1) skewX(-4)"><tspan x="0" y="0">In</tspan></text>
      <text class="cls-13" transform="translate(1700.6 735) skewX(-4)"><tspan x="0" y="0">Financial Literacy</tspan></text>
    </g>
  </g>
</svg>