<svg viewBox="0 0 1224.6 485.2" xmlns="http://www.w3.org/2000/svg"><path d="m469.9 54c0-2.1-1.7-3.8-3.8-3.8s-3.8 1.7-3.8 3.8v374.7c0 2.1 1.7 3.8 3.8 3.8s3.8-1.7 3.8-3.8z" fill="#002c4d"/><circle cx="228" cy="241.3" fill="#077696" r="191.2" transform="matrix(.70710678 -.70710678 .70710678 .70710678 -103.9 231.9)"/><circle cx="228" cy="241.3" fill="#fff" r="181.6" transform="matrix(.0732382 -.99731448 .99731448 .0732382 -29.5 450.9)"/><circle cx="228" cy="241.3" fill="#002c4d" r="177.8" transform="matrix(.70710678 -.70710678 .70710678 .70710678 -103.9 231.9)"/><circle cx="228" cy="241.3" fill="#fff" r="114.7" transform="matrix(.70710678 -.70710678 .70710678 .70710678 -103.9 231.9)"/><path d="m284 259.6c-.1.5-.7.9-1.2.9h-109.6c-.5 0-1.1-.4-1.2-.9l-1.5-5.8c-.1-.5.2-.9.7-.9h113.4c.5 0 .9.4.7.9l-1.5 5.8z" fill="#002c4d"/><path d="m291.9 247.1c-.3 1-1.3 1.9-2.4 1.9h-123c-1.1 0-2.1-.8-2.4-1.9l-2.9-11.6c-.3-1 .4-1.9 1.5-1.9h130.7c1.1 0 1.7.8 1.5 1.9l-2.9 11.6z" fill="#002c4d"/><g fill="#fff"><path d="m102.5 165.7c2 1.6 4.3 2.7 6.7 3.3 1.6.4 3.2.6 4.7.6s1.7 0 2.5-.2c2.4-.3 4.8-1.2 7.2-2.7 2.3-1.4 4.5-3.4 6.4-5.8 2.2-2.9 4.2-6.3 5.9-10.2.2-.4 0-.8-.3-1l-13.1-10.2c-.2-.1-.4-.2-.6-.2s-.4.1-.6.3l-3.8 4.9c-.3.4-.2.9.1 1.2l8.7 6.8c-.9 1.4-1.8 2.8-2.7 4-2.2 2.8-4.8 4.4-7.7 4.8s-5.7-.5-8.4-2.5c-2.9-2.3-4.4-4.8-4.6-7.7s1-6.1 3.5-9.3c1.2-1.6 3.1-3.6 5.6-5.9.3-.3.4-.8 0-1.2l-3.9-4.1c-.3-.3-.8-.4-1.1 0-2.6 2.1-5 4.5-7.1 7.2-2.4 3.1-3.9 6.3-4.6 9.7s-.4 6.8.8 9.9c1.2 3.2 3.3 5.9 6.2 8.1z"/><path d="m131.3 136c1.2 1.6 2.7 3 4.4 4.1 1.7 1 3.6 1.7 5.5 2.1.7.1 1.5.2 2.3.2 1.2 0 2.5-.2 3.9-.5 2.1-.5 4.2-1.5 6.1-2.9s3.5-3.1 4.6-4.9c1.1-1.9 1.9-3.8 2.1-5.7.3-1.9.2-3.9-.3-5.8s-1.3-3.8-2.5-5.4l-12.4-17c-.3-.4-.8-.5-1.2-.2l-5.4 3.9c-.2.1-.3.3-.3.6 0 .2 0 .4.2.6l12.5 17.1c1.4 1.9 1.9 3.8 1.6 5.8s-1.4 3.6-3.3 5-3.8 1.9-5.7 1.6c-2-.3-3.6-1.4-5-3.3l-12.5-17.1c-.1-.2-.3-.3-.6-.3-.2 0-.4 0-.6.2l-5.5 4c-.2.1-.3.3-.3.6 0 .2 0 .4.2.6l12.4 17z"/><path d="m170 127c0 .2.3.4.5.4h.3s.2 0 .4 0l6.1-2.9c.4-.2.6-.7.4-1.1l-14.8-31.7c-.2-.4-.7-.6-1.1-.4l-6.1 2.9c-.2 0-.4.3-.4.5v.6l14.8 31.7z"/><path d="m215 113.5c.1-.2.2-.4.1-.6l-7.8-34.2c-.1-.5-.6-.7-1-.6l-6.5 1.5c-.2 0-.4.2-.5.4s-.2.4-.1.6l4.8 21.2-20.5-18.2c-.2-.2-.5-.3-.7-.2l-6.4 1.5c-.2 0-.4.2-.5.4s-.2.4-.1.6l7.8 34.2c0 .2.2.4.4.5.1 0 .3.1.4.1s.1 0 .2 0l6.4-1.5c.5-.1.7-.6.6-1l-4.9-21.2 20.6 18.2c.2.2.5.2.7.2l6.4-1.5c.2 0 .4-.2.5-.4z"/><path d="m253.5 115.7s0 0 0 0c.4 0 .8-.3.8-.8l2.8-34.9c0-.2 0-.4-.2-.6-.1-.2-.4-.3-.6-.3l-6.6-.5c-.5 0-.9.3-.9.8l-1.7 21.7-14.1-23.5c-.1-.2-.4-.4-.7-.4l-6.5-.5c-.5 0-.9.3-.9.8l-2.8 34.9c0 .2 0 .4.2.6.1.2.4.3.6.3l6.5.5c.5 0 .9-.3.9-.8l1.7-21.7 14.2 23.5c.1.2.4.4.7.4z"/><path d="m260.9 117.8 23.6 8.7h.3s.2 0 .4 0 .4-.3.4-.5l2-5.4c.2-.4 0-.9-.5-1.1l-16.5-6.1 2.7-7.3 15.4 5.7c.4.2.9 0 1.1-.5l2-5.4c0-.2 0-.4 0-.6s-.3-.4-.5-.4l-15.4-5.7 2.3-6.2 16.5 6.1h.6c.2 0 .4-.3.4-.5l2-5.4c0-.2 0-.4 0-.6s-.3-.4-.5-.4l-23.6-8.7c-.4-.2-.9 0-1.1.5l-12.1 32.9v.6c0 .2.3.4.5.4z"/><path d="m311.5 134.9c-1.4-.2-3.1-1-5-2.4-3.1-2.2-6.1-5.4-8.9-9.3-.1-.2-.3-.3-.6-.3-.2 0-.5 0-.6.2l-4.3 3.4c-.3.3-.4.7-.2 1.1 1.1 1.9 2.6 3.9 4.5 6 1.9 2 3.8 3.8 5.8 5.2 3.6 2.6 7.2 3.9 10.6 4h.2c3.4 0 6.2-1.4 8.1-4.1.5-.6.8-1.2 1.1-1.8s.5-1.2.7-1.9c.1-.6.2-1.2.2-1.7 0-.6 0-1.2-.3-1.9-.2-.7-.4-1.2-.6-1.8s-.6-1.2-1-2.1c-.5-.8-.9-1.5-1.3-2.2-.4-.6-.9-1.5-1.6-2.5 0 0 0-.1-.1-.2-2.4-3.6-3.8-6.1-4.3-7.3-.4-1-.4-1.8.2-2.5.5-.7 1.1-.9 2-.8 1.1.2 2.7 1.1 4.8 2.7 3 2.2 5.8 4.7 8.4 7.6.2.2.4.3.6.3s.5 0 .6-.2l4-3.8c.3-.3.3-.8 0-1.1-1.1-1.4-2.6-3-4.3-4.6-1.8-1.6-3.5-3.1-5.1-4.2-4-2.9-7.4-4.4-10.3-4.5-3-.1-5.6 1.2-7.6 4-.6.8-1.1 1.7-1.4 2.5s-.5 1.7-.5 2.6 0 1.7.2 2.5.5 1.8 1 2.8 1 2 1.6 3 1.3 2.2 2.2 3.5c2.2 3.3 3.6 5.5 4 6.6.4.9.3 1.7-.2 2.3-.6.9-1.5 1.2-2.7 1z"/><path d="m337.5 147.5c.3 1.1.7 2.5 1.2 4 1.2 3.8 1.9 6.3 2.1 7.5.1 1-.1 1.7-.8 2.2-.8.7-1.8.7-2.9.3-1.3-.6-2.7-1.8-4.1-3.6-2.4-3-4.4-6.8-6-11.3 0-.2-.2-.4-.5-.5-.2 0-.5 0-.7 0l-5 2.1c-.4.2-.6.6-.5 1 .5 2.1 1.5 4.5 2.7 7 1.3 2.4 2.7 4.6 4.2 6.5 2.8 3.5 5.8 5.7 9.1 6.7 1.1.3 2.1.5 3.1.5 2.2 0 4.2-.7 6-2.2.6-.5 1.1-1 1.6-1.4.5-.5.9-1 1.1-1.6.3-.5.5-1.1.7-1.6s.3-1.2.2-1.9c0-.7 0-1.3-.1-1.9 0-.6-.2-1.3-.4-2.3-.2-.9-.4-1.7-.7-2.5-.2-.7-.5-1.7-.9-2.8 0 0 0-.1 0-.2-1.3-4.2-2-6.9-2.2-8.2-.1-1.1.1-1.8.8-2.4.7-.5 1.3-.6 2.1-.2 1 .5 2.3 1.8 3.9 3.8 2.3 2.9 4.3 6.1 6.1 9.6.1.2.3.4.5.4h.7l4.9-2.6c.4-.2.5-.7.4-1.1-.7-1.7-1.7-3.6-2.9-5.6-1.3-2.1-2.5-3.9-3.7-5.4-3-3.8-6-6.2-8.7-7.1-2.9-.9-5.7-.3-8.3 1.8-.8.6-1.5 1.3-2 2-.6.7-1 1.5-1.2 2.4-.2.8-.4 1.7-.4 2.5s0 1.8.2 3c.2 1.1.4 2.2.7 3.3z"/><path d="m99.6 265.2c.5 0 .8-.4.8-.8s0-.2 0-.2v-6.4c-.1-.4-.4-.7-.8-.8l-20-4.6 19.9-6.7c.3-.1.6-.4.6-.8v-4.8c0-.4-.3-.7-.7-.8l-20.1-6 19.8-5.3c.4 0 .6-.4.6-.8v-6.6c-.1-.3-.2-.5-.4-.7s-.5-.2-.7-.1l-34.9 9.5c-.4.1-.6.4-.6.8v5.4c0 .4.3.7.7.8l21.6 6.5-21.4 7.2c-.3.1-.6.4-.6.8v5.4c0 .4.4.7.7.8l35.2 8.4h.2z"/><path d="m96.6 308.3c3.2-1.2 5.9-3 8.1-5.5s3.6-5.3 4.3-8.5c.6-3.2.4-6.5-.8-9.6-1.2-3.2-3-5.9-5.6-7.9-2.6-2.1-5.5-3.4-8.7-3.9s-6.5-.2-9.7 1-5.9 3-8.1 5.5-3.6 5.4-4.2 8.6-.4 6.5.8 9.7 3 5.8 5.6 7.9c2.5 2.1 5.5 3.4 8.7 3.9 1 .2 2 .2 3 .2 2.2 0 4.5-.4 6.7-1.2zm3.9-13.2c-1.4 2.4-3.7 4.2-6.8 5.4-1.7.6-3.3.9-4.8.9s-2.6-.2-3.8-.7c-2.6-1-4.3-2.9-5.4-5.8-1-2.9-.9-5.5.5-7.8 1.4-2.4 3.6-4.2 6.8-5.3 1.7-.6 3.3-.9 4.8-.9s2.6.2 3.8.7c2.6 1 4.3 2.8 5.4 5.7 1 2.9.9 5.5-.5 7.9z"/><path d="m125.4 337.4c2.6-1.9 4.1-4.5 4.6-7.7s-.4-6.2-2.5-9l-10.9-14.6c-.1-.2-.3-.3-.6-.3-.2 0-.4 0-.6.2l-28.1 21c-.2.1-.3.3-.3.6 0 .2 0 .4.2.6l4 5.4c.3.4.8.4 1.2.2l9.8-7.3 4.4 5.8-4.6 15.2c0 .3 0 .5.1.7l5 6.6c.2.2.4.3.7.3s0 0 .1 0c.3 0 .6-.3.7-.6l4.7-15.8c1.8.9 3.7 1.3 5.7 1.2 2.3-.1 4.5-.9 6.4-2.3zm-9.9-21 5.7 7.6c.8 1.1 1.1 2.2 1 3.5s-.8 2.3-1.9 3.1c-1.1.9-2.3 1.2-3.6 1s-2.3-.8-3.1-2l-5.7-7.6 7.5-5.6z"/><path d="m127.9 362.5 17.7-22.2c.3-.4.2-.9-.1-1.2l-5.3-4.2c-.2-.1-.4-.2-.6-.2s-.4.1-.6.3l-21.9 27.4c-.1.2-.2.4-.2.6s.1.4.3.6l18.7 15c.2.1.3.2.5.2s.5-.1.7-.3l3.6-4.5c.1-.2.2-.4.2-.6s-.1-.4-.3-.6l-12.8-10.2z"/><path d="m177.9 361.7c-2.5-2.9-5.7-5.3-9.7-7.2l-7.1-3.4c-.4-.2-.9 0-1.1.4l-15.1 31.6c0 .2-.1.4 0 .6 0 .2.2.4.4.5l7.1 3.4c4 1.9 7.9 2.9 11.7 3h.6c3.6 0 6.8-.8 9.6-2.4 2.9-1.7 5.2-4.2 6.7-7.3 1.5-3.2 2-6.5 1.5-9.9-.5-3.3-2.1-6.5-4.6-9.4zm-11.9.3c1.6.8 3 1.7 4.2 2.8s2.2 2.2 2.9 3.5 1 2.7 1.1 4.2c0 1.5-.4 3.1-1.1 4.7-.8 1.6-1.8 2.9-3 3.9s-2.5 1.6-3.9 1.8c-1.4.3-3 .3-4.6 0s-3.2-.8-4.8-1.5l-1.4-.7 9.2-19.4z"/><path d="m233.7 391.6c1.8-.8 3.3-2.1 4.5-3.7 1.4-1.9 2.1-4.1 2.1-6.5 0-3.2-1-6-3.2-8.4-2.2-2.3-5.1-3.6-8.6-3.7l-18.3-.4c-.5 0-.8.4-.8.8l-.8 35c0 .5.4.9.8.9l6.8.2c.2 0 .4 0 .6-.2s.3-.4.3-.6l.3-12.3 7.3.2 9.1 13c.2.2.4.4.7.4l8.3.2c.3 0 .6-.2.7-.4.2-.3.1-.6 0-.9l-9.5-13.5zm-16.1-15.4 9.5.2c1.4 0 2.5.5 3.4 1.4s1.3 2 1.3 3.4-.5 2.5-1.4 3.4c-.9.8-2 1.2-3.3 1.2l-9.6-.2.2-9.4z"/><path d="m279.9 391.3c-.1-.4-.6-.7-1-.6l-17 4.2-1.9-7.5 16-3.9c.5-.1.7-.6.6-1l-1.4-5.6c0-.2-.2-.4-.4-.5s-.4-.2-.6 0l-16 3.9-1.6-6.4 17-4.2c.5-.1.7-.6.6-1l-1.4-5.6c0-.2-.2-.4-.4-.5s-.4-.2-.6 0l-24.4 6c-.2 0-.4.2-.5.4s-.2.4 0 .6l8.4 34c0 .4.4.6.8.6s.1 0 .2 0l24.4-6c.2 0 .4-.2.5-.4s.2-.4 0-.6l-1.4-5.6z"/><path d="m316 372.5c-.2-.2-.4-.3-.6-.3s-.4 0-.6.2c-1.1 1-2 1.8-2.9 2.4-.8.6-1.9 1.2-3.1 1.9-3.6 2-6.9 2.6-9.8 1.9s-5.2-2.6-6.9-5.6-2-5.9-1.1-8.8c.9-2.8 3.2-5.3 6.8-7.3 2.1-1.2 4.4-2.1 6.8-2.7.2 0 .4-.2.5-.4s.1-.4 0-.7l-1.5-5.5c-.1-.4-.5-.7-1-.6-2.9.5-6.1 1.7-9.4 3.5-3.4 1.9-6.1 4.3-8 7.1-1.9 2.9-3 6.1-3.1 9.4s.7 6.6 2.4 9.8c1.8 3.2 4.1 5.6 7 7.3 2.8 1.6 5.8 2.4 9.1 2.4h.5c3.5 0 6.9-1.1 10.3-2.9 3.2-1.8 5.9-3.9 8-6.2.3-.3.3-.8 0-1.1l-3.8-4z"/><path d="m343.1 333.6c-2.4-2.4-5.2-4.2-8.3-5.1-3.1-1-6.4-1.1-9.5-.4-3.2.7-6 2.3-8.5 4.7-2.4 2.4-4.1 5.2-4.9 8.3-.8 3.2-.8 6.4 0 9.6.9 3.2 2.5 6 4.9 8.5 2.4 2.4 5.2 4.2 8.3 5.1 1.8.5 3.6.8 5.4.8s2.8-.2 4.2-.5c3.2-.7 6-2.3 8.5-4.7 2.4-2.4 4.1-5.2 4.9-8.3.8-3.2.8-6.4 0-9.5-.9-3.2-2.5-6-4.9-8.4zm-5.3 20.9c-2.2 2.1-4.6 3.1-7.3 2.8s-5.3-1.6-7.6-4-3.6-5-3.8-7.8.8-5.1 3-7.3c2-1.9 4.1-2.8 6.5-2.8s.6 0 .9 0c2.8.3 5.4 1.6 7.7 4s3.6 5 3.7 7.8c.2 2.8-.8 5.1-3 7.3z"/><path d="m380.1 303.9-16.3 2.2c0-2-.3-3.9-1.2-5.7-1.1-2.1-2.7-3.8-4.8-4.9-2.8-1.6-5.8-1.9-8.9-1s-5.5 2.9-7.3 5.9l-8.9 16c-.2.4 0 .9.3 1.1l30.6 17c.1 0 .3.1.4.1s.2 0 .2 0c.2 0 .4-.2.5-.4l3.3-5.9c.2-.4 0-.9-.3-1.1l-10.7-6 3.5-6.4 15.7-2c.3 0 .5-.2.6-.4l4-7.2c.2-.3.1-.6 0-.9-.2-.3-.5-.4-.8-.4zm-37.4 9.2 4.6-8.3c.7-1.2 1.6-2 2.8-2.3 1.2-.4 2.4-.2 3.6.4 1.2.7 2 1.6 2.4 2.8.3 1.2.2 2.4-.5 3.6l-4.6 8.3-8.2-4.6z"/><path d="m383.1 262.4c-2.3-2.5-5.2-4.2-8.6-5s-6.8-.6-9.9.7-5.9 3.4-8.2 6.5c-2.3 3-3.9 6.7-4.9 11l-1.8 7.7c0 .2 0 .4.1.6s.3.3.5.4l34.1 7.9h.2c.2 0 .3 0 .4-.1.2-.1.3-.3.4-.5l1.8-7.7c1-4.3 1.1-8.3.4-12s-2.3-6.9-4.5-9.4zm-24.3 15.2.4-1.5c.4-1.7 1-3.3 1.8-4.7s1.7-2.6 2.8-3.6c1.1-.9 2.4-1.6 3.9-1.9 1.5-.4 3.1-.3 4.9 0 1.7.4 3.2 1.1 4.4 2.1s2.1 2.1 2.6 3.4c.6 1.4.9 2.9 1 4.4 0 1.6 0 3.3-.5 5l-.4 1.5-20.9-4.8z"/><path d="m393.1 234.5c-.2-4.4-1.3-8.1-3.4-10.8-2.1-2.8-4.9-4.1-8.3-4-.8 0-1.5.1-2.1.2-.7.1-1.3.3-1.9.6-.5.3-1 .6-1.5.9s-.9.8-1.4 1.4c-.4.6-.7 1.1-1 1.6s-.6 1.2-1 2.1-.7 1.7-.9 2.4c-.3.7-.6 1.7-1 2.8v.2c-1.4 4.1-2.5 6.8-3.1 7.9-.5.9-1.2 1.4-2.2 1.4-.8 0-1.3-.3-1.7-1.1-.5-1-.8-2.8-.9-5.4-.1-3.7.1-7.5.8-11.3 0-.2 0-.5-.1-.6-.1-.2-.3-.3-.6-.3l-5.5-.8c-.4 0-.8.2-.9.6-.4 1.8-.8 3.9-1 6.3s-.3 4.6-.2 6.6c.2 4.9 1.1 8.5 2.8 10.9 1.8 2.5 4.4 3.6 7.8 3.5 1 0 2-.2 2.8-.4.9-.2 1.7-.6 2.4-1.2.7-.5 1.3-1.1 1.8-1.8.5-.6 1.1-1.5 1.6-2.5s1-2 1.4-3.1.9-2.4 1.4-3.9c1.2-3.8 2.2-6.2 2.8-7.3.5-.9 1.1-1.3 2.1-1.3s1.8.5 2.4 1.5c.7 1.2 1.1 3 1.2 5.4.1 3.8-.5 8.1-1.9 12.7v.7c.1.2.3.3.5.4l5.3 1.3h.2c.3 0 .6-.2.8-.5.8-2 1.5-4.5 1.9-7.2s.6-5.3.5-7.7z"/></g><path d="m185.9 276c-.5.2-.9.8-.9 1.4v48.4c0 .5.4 1.1.9 1.4l7.8 3.4c.5.2.9 0 .9-.6v-56.8c0-.5-.4-.8-.9-.6z" fill="#002c4d"/><path d="m205.1 269c-.5.1-.9.6-.9 1.2v62.8c0 .5.4 1.1.9 1.2l7.7 1.6c.5 0 .9-.3.9-.8v-66.7c0-.5-.4-.9-.9-.8l-7.7 1.6z" fill="#002c4d"/><path d="m228 266.2c-1.6 0-3.8 0-3.8 0-.5 0-1 .5-1 1v68.6c0 .5.4 1 1 1h3.8s3.8 0 3.8 0c.5 0 1-.5 1-1v-68.6c0-.5-.4-1-1-1 0 0-2.2 0-3.8 0z" fill="#002c4d"/><path d="m243.3 267.4c-.5 0-.9.3-.9.8v66.7c0 .5.4.9.9.8l7.7-1.6c.5-.1.9-.6.9-1.2v-62.8c0-.5-.4-1.1-.9-1.2l-7.7-1.6z" fill="#002c4d"/><path d="m262.4 272.6c-.5-.2-.9 0-.9.6v56.8c0 .5.4.8.9.6l7.8-3.4c.5-.2.9-.8.9-1.4v-48.4c0-.5-.4-1.1-.9-1.4z" fill="#002c4d"/><path d="m227.2 147c.4-1 1.1-1 1.6 0l10.8 23.8c.4 1 1.7 1.8 2.7 2l27 3c1.1.1 1.3.8.5 1.5l-19.8 17.5c-.8.7-1.3 2.1-1 3.2l5.6 26.2c.2 1-.4 1.5-1.3 1l-23.5-12.2c-.9-.5-2.5-.5-3.4 0l-23.5 12.2c-.9.5-1.5 0-1.3-1l5.6-26c.2-1-.2-2.5-1-3.2l-19.8-17.6c-.8-.7-.6-1.4.5-1.5l27.1-3c1.1-.1 2.3-1 2.7-2l10.8-23.8z" fill="#cd9600"/><path d="m376.2 379.8c-.6-1.5-.9-3-.9-4.6s.3-3.1.9-4.6 1.4-2.7 2.4-3.8 2.2-1.9 3.7-2.6c1.4-.6 3-.9 4.6-.9s3.2.3 4.6.9 2.7 1.5 3.7 2.6 1.8 2.3 2.4 3.8.9 3 .9 4.6-.3 3.1-.9 4.6-1.4 2.7-2.4 3.8-2.2 1.9-3.7 2.6c-1.4.6-3 1-4.6 1s-3.2-.3-4.6-1c-1.4-.6-2.7-1.5-3.7-2.6s-1.8-2.3-2.4-3.8zm1.2-4.6c0 1.3.2 2.5.7 3.7s1.1 2.3 1.9 3.2 1.8 1.7 3 2.2c1.2.6 2.5.8 3.9.8s2.7-.3 3.9-.8c1.2-.6 2.2-1.3 3-2.2s1.4-2 1.9-3.2c.4-1.2.7-2.4.7-3.7s-.1-2-.4-3-.7-1.9-1.2-2.7-1.2-1.6-1.9-2.2-1.6-1.1-2.6-1.5-2.1-.5-3.2-.5c-1.9 0-3.5.5-5 1.4-1.5 1-2.6 2.2-3.3 3.7-.8 1.5-1.1 3.1-1.1 4.8zm4.9 5.9v-11.7h6.2c.9 0 1.7.4 2.3 1.1s.9 1.6.9 2.7-.2 1.4-.5 2-.8 1-1.3 1.3l2.8 4.6h-2.7l-2.5-4.2h-3v4.2zm2.2-6.3h3.6c.4 0 .7-.2 1-.5s.4-.7.4-1.2-.1-.9-.4-1.2-.6-.5-1-.5h-3.6v3.3z" fill="#1d1d1b"/><path d="m527.6 212.8c4.5 4.6 9.9 8.2 16.2 10.9s13 4.1 19.9 4.1 17.9-2.3 25.7-6.9 14-10.8 18.5-18.7c4.5-7.8 6.8-16.5 6.8-25.8s-1.3-13.7-4-20c-2.6-6.3-6.3-11.8-10.8-16.4s-10-8.3-16.2-11c-6.3-2.7-13-4.1-19.9-4.1s-17.9 2.3-25.7 6.9-13.9 10.9-18.4 18.7c-4.4 7.8-6.7 16.5-6.7 25.8s1.3 13.7 3.9 20 6.2 11.8 10.7 16.3zm36.1-64.7c8 0 14 2.5 18.5 7.8 4.5 5.2 6.8 12.2 6.8 20.6s-2.3 15.3-6.8 20.5-10.5 7.7-18.5 7.7-14-2.5-18.4-7.7-6.7-12.1-6.7-20.5 2.3-15.3 6.7-20.6c4.4-5.2 10.5-7.8 18.4-7.8z" fill="#002c4d"/><path d="m630.4 226.1h21.6c1.1 0 2-.9 2-2v-38h44.9c1.1 0 2-.9 2-2v-18.5c0-1.1-.9-2-2-2h-44.9v-14.5h50.1c1.1 0 2-.9 2-2v-18.5c0-1.1-.9-2-2-2h-73.7c-1.1 0-2 .9-2 2v95.7c0 1.1.9 2 2 2z" fill="#002c4d"/><path d="m722.4 226.1h21.6c1.1 0 2-.9 2-2v-38h44.9c1.1 0 2-.9 2-2v-18.5c0-1.1-.9-2-2-2h-44.9v-14.5h50.1c1.1 0 2-.9 2-2v-18.5c0-1.1-.9-2-2-2h-73.7c-1.1 0-2 .9-2 2v95.7c0 1.1.9 2 2 2z" fill="#002c4d"/><rect fill="#002c4d" height="99.7" rx="2" width="25.7" x="813.1" y="126.4"/><path d="m907.9 227.8c10.1 0 19.5-1.5 28.1-4.6 1-.3 1.5-1.4 1.3-2.4l-4.3-17.5c-.1-.5-.5-1-1-1.3s-1-.3-1.6-.2c-6.5 1.9-13.1 2.8-19.5 2.8-10.8 0-19-2.6-24.5-7.8s-8.2-11.9-8.2-20.5 2.7-15.3 8.2-20.4 13.8-7.7 24.5-7.7 13 .9 19.5 2.8c.5.2 1.1 0 1.6-.2.5-.3.8-.7 1-1.2l4.8-17.8c.3-1-.3-2.1-1.3-2.4-7.9-2.8-17.5-4.3-28.5-4.3s-15.5 1.3-22.4 4-12.8 6.3-17.6 11c-4.8 4.6-8.6 10.1-11.3 16.3s-4.1 13-4.1 20 1.4 13.8 4.1 20 6.5 11.8 11.4 16.4c4.8 4.6 10.8 8.3 17.6 11 6.9 2.7 14.4 4 22.3 4z" fill="#002c4d"/><rect fill="#002c4d" height="99.7" rx="2" width="25.7" x="951.1" y="126.4"/><path d="m991.8 226.1h21.2c.8 0 1.6-.5 1.9-1.3l6.9-18.4h32.5l6.8 18.4c.3.8 1.1 1.3 1.9 1.3h21.1c.7 0 1.3-.3 1.7-.9.4-.5.5-1.2.2-1.9l-36.2-95.7c-.3-.8-1.1-1.3-1.9-1.3h-19.8c-.8 0-1.6.5-1.9 1.3l-36.4 95.7c-.2.6-.2 1.3.2 1.9.4.5 1 .9 1.7.9zm36.6-39.9 9.7-29.7 9.6 29.7z" fill="#002c4d"/><path d="m1169.3 203.6h-44.1v-75.1c0-1.1-.9-2-2-2h-21.6c-1.1 0-2 .9-2 2v95.7c0 1.1.9 2 2 2h67.7c1.1 0 2-.9 2-2v-18.5c0-1.1-.9-2-2-2z" fill="#002c4d"/><path d="m572 259.1c-.3-.8-1.1-1.3-1.9-1.3h-19.4c-.8 0-1.6.5-1.9 1.3l-35.8 94c-.2.6-.2 1.3.2 1.9.4.5 1 .9 1.7.9h20.8c.8 0 1.6-.5 1.9-1.3l6.8-18.1h31.9l6.7 18c.3.8 1.1 1.3 1.9 1.3h20.7c.7 0 1.3-.3 1.7-.9.4-.5.5-1.2.2-1.9l-35.6-94zm-2.2 57.4h-18.8l9.5-29 9.4 29z" fill="#002c4d"/><path d="m675.8 257.8h-82.8c-1.1 0-2 .9-2 2v18.2c0 1.1.9 2 2 2h28.9v73.8c0 1.1.9 2 2 2h21.2c1.1 0 2-.9 2-2v-73.8h28.7c1.1 0 2-.9 2-2v-18.2c0-1.1-.9-2-2-2z" fill="#002c4d"/><path d="m774.9 257.8h-82.8c-1.1 0-2 .9-2 2v18.2c0 1.1.9 2 2 2h28.9v73.8c0 1.1.9 2 2 2h21.2c1.1 0 2-.9 2-2v-73.8h28.7c1.1 0 2-.9 2-2v-18.2c0-1.1-.9-2-2-2z" fill="#002c4d"/><path d="m860.2 257.8h-69.1c-1.1 0-2 .9-2 2v94c0 1.1.9 2 2 2h69.1c1.1 0 2-.9 2-2v-18.2c0-1.1-.9-2-2-2h-45.8v-17.1h43.1c1.1 0 2-.9 2-2v-18.2c0-1.1-.9-2-2-2h-43.1v-14.2h45.8c1.1 0 2-.9 2-2v-18.2c0-1.1-.9-2-2-2z" fill="#002c4d"/><path d="m974.9 257.8h-20.3c-.7 0-1.4.4-1.7 1l-27.2 46.2-27.2-46.2c-.4-.6-1-1-1.7-1h-20.3c-1.1 0-2 .9-2 2v94c0 1.1.9 2 2 2h20.3c1.1 0 2-.9 2-2v-49.3l19.4 33c.4.6 1 1 1.7 1h11.4c.7 0 1.4-.4 1.7-1l19.5-32.9v49.2c0 1.1.9 2 2 2h20.3c1.1 0 2-.9 2-2v-94c0-1.1-.9-2-2-2z" fill="#002c4d"/><path d="m1059.1 262.2c-5.2-2.9-11-4.4-17.5-4.4h-49.4c-1.1 0-2 .9-2 2v94c0 1.1.9 2 2 2h20.9c1.1 0 2-.9 2-2v-30h26.4c6.4 0 12.3-1.5 17.5-4.6 5.2-3 9.3-7.1 12.1-12.2 2.8-5 4.2-10.6 4.2-16.5s-1.4-11.5-4.3-16.4c-2.8-4.9-6.9-8.9-12-11.9zm-43.7 16.5h22.7c3.2 0 5.9 1.1 8.2 3.4s3.4 5 3.4 8.4-1.1 6.2-3.5 8.6c-2.3 2.4-5 3.5-8.1 3.5h-22.9l.2-24z" fill="#002c4d"/><path d="m1169 257.8h-82.8c-1.1 0-2 .9-2 2v18.2c0 1.1.9 2 2 2h28.9v73.8c0 1.1.9 2 2 2h21.2c1.1 0 2-.9 2-2v-73.8h28.7c1.1 0 2-.9 2-2v-18.2c0-1.1-.9-2-2-2z" fill="#002c4d"/></svg>