<svg viewBox="0 0 1441.3 1063.9" xmlns="http://www.w3.org/2000/svg"><path d="m855.5 226.5v14.7c0 2.6-.8 4.2-3.1 5.5-8.5 4.7-17 9.6-25.4 14.5-1.7 1-3.5 1-5.2 0-4.4-2.5-8.8-4.9-13.1-7.4-4.2-2.4-8.3-4.8-12.5-7.1-2.2-1.2-3.2-2.8-3.2-5.3v-31.1c0-1.6.7-2.7 2.2-3.5 5.3-3 10.5-6 15.7-9 3.3-1.9 6.6-3.7 9.8-5.6 2.3-1.4 4.4-1.5 6.9-.1 8.4 4.9 16.9 9.7 25.4 14.5 1.7.9 2.4 2.2 2.4 4.1v15.9zm-30.4 19.8c6.1-.1 11.9-2.4 16.6-7.5 4.4-4.8 6.5-10.5 6.5-17s-.3-2-2-1.9c-3.4.2-6.5 1.2-9.4 3-6.9 4.2-10.7 10.5-11.5 18.5 0 .8-.2 1.6-.4 2.4 0 .1-.2.3-.4.3-.3 0-.5-.1-.5-.4s0-.7 0-1.1c0-1.3-.2-2.5-.5-3.7-2.1-9.1-7.5-15.3-16.4-18.3-1.4-.5-2.8-.7-4.3-.7s-1.8.2-1.9 1.7v4.1c2 12.5 11.9 20.5 24.3 20.6zm-8.2-32.8c0 4.2 3.1 7.5 7.3 7.6 4.2 0 7.6-3.2 7.7-7.4 0-3.9-3.4-7.5-7.4-7.6-4.2 0-7.6 3.2-7.6 7.4z" fill="#14bf96"/><path d="m891.7 221.9c1.2-.5 1.7-1.3 2.3-2 4.2-4.8 8.5-9.5 12.7-14.3 1.1-1.3 2.4-1.9 4.1-1.7h4.3c.8 0 1.6.1 2 1 .3.8 0 1.4-.6 1.9-1.6 1.9-3.2 3.7-4.9 5.6-3.4 3.8-6.8 7.6-10.2 11.4q-1.4 1.6 0 3.2c5.2 6.2 10.5 12.5 15.7 18.7 0 .2.3.3.4.5.5.7 1.1 1.4.7 2.3-.5 1-1.4 1.1-2.4 1.1h-5.1c-1.4 0-2.4-.5-3.3-1.6-4.4-5.5-8.8-10.9-13.2-16.4-.7-.8-1.3-1.7-2.1-2.4-.4.8-.2 1.5-.2 2.2v16.1c-.2 1.2-.7 1.8-1.9 1.9-1.8.1-3.5 0-5.3 0s-1.8-.7-2-1.8c0-.6 0-1.3 0-1.9v-39.6c.2-1.8.7-2.3 2.6-2.4h4.3c2 0 2.5.6 2.5 2.6v15.5h-.3z" fill="#0c2248"/><path d="m1211.4 222.5c1.3-1.2 2.4-2 3.7-2.7 4.4-2.1 9.8-1.5 13 1.8 1.2 1.2 1.3 1.2 2.6 0 3.3-2.7 7-3.6 11.1-2.9 4.4.7 7.2 3.1 8.5 7.3.6 1.8.8 3.7.8 5.7v14.7c0 2.6-.5 3.1-3.1 3.2h-3.2c-1.7 0-2.3-.7-2.3-2.4v-14.9c0-1.1 0-2.1-.5-3.1-.6-1.5-1.6-2.4-3.3-2.6-1 0-2-.1-3 0-2.2.4-3.3 1.9-3.3 4.2v16.8c-.2 1.2-.7 1.8-1.9 1.9h-4.7c-1.4 0-1.9-.6-1.9-2v-14.5c0-1.4 0-2.7-.5-4-.4-1.4-1.4-2.2-2.9-2.5-4-.7-6.7 1.5-6.7 5.5v15.1c-.2 1.7-.7 2.3-2.4 2.3h-4c-1.5 0-2-.6-2.1-2.1v-26.6c0-.7.4-1.2 1-1.5 1.8-.8 3.8 0 4.6 1.6.2.4.4.7.7 1.4z" fill="#0c2248"/><path d="m1068.5 249.6c-2.6.7-4.2-.8-5.1-3.5-.4-1.1-1-2.2-1.5-3.3-.4-1-1.1-1.4-2.2-1.4h-16.1c-1.1 0-1.7.4-2.1 1.4-.6 1.4-1.3 2.8-1.9 4.3-.7 1.8-1.9 2.7-3.9 2.6h-3.2c-2.6 0-3.1-.8-2-3.1 1.6-3.4 3.1-6.8 4.7-10.2 4.7-10.2 9.4-20.3 14.1-30.4.3-.6.6-1.3 1-1.9.8-1.1 2.2-1.1 3 0 .2.3.4.7.6 1.1 6.3 13.8 12.7 27.7 19 41.5 1 2.1.5 2.9-1.8 3h-2.6zm-17.1-28.9c-.6 1.4-1.3 2.8-2 4.3-1.1 2.4-2.2 4.9-3.3 7.4-.4 1-.2 1.3.8 1.3h9.3c1.2 0 1.3-.2.9-1.2 0-.3-.3-.7-.4-1-1.5-3.3-3-6.6-4.5-9.8-.2-.4-.3-.8-1-.9h.2z" fill="#0c2248"/><path d="m1160.2 246.7c-.8 0-1.2.5-1.6.9-6.9 5.4-16.2 2.7-20.2-3.8-4.2-6.9-3.2-16.5 2.8-21.6 3.2-2.8 7-3.8 11.2-3.5 1.3.1 2.7.4 4 .6 1.2.2 1.4 0 1.4-1.1v-11.9c0-1.7.7-2.3 2.4-2.3h4c1.6 0 2.1.6 2.2 2.2v40.3c0 2.7-1.9 3.9-4.4 2.9-.9-.4-1.2-1.2-1.5-2 0-.3-.2-.5-.4-.8zm-2.3-13.1v-4c0-1.3-.5-1.9-1.7-2.4-1.4-.5-2.8-.6-4.2-.6-3.6 0-6 1.8-7 5.3-.4 1.6-.4 3.2 0 4.8 1.1 4.6 5.1 6.9 9.3 5.3 2.3-.9 3.5-2.6 3.5-5v-3.4z" fill="#0c2248"/><path d="m931.2 220.5c1.7-.8 3.4-1.6 5.4-1.8 8.9-.9 12.9 3.9 13.8 10.2.3 1.8.4 3.7.4 5.5v12.1c0 2.6-.6 3.1-3.2 3.1h-2.8c-2.2 0-2.6-.5-2.7-2.6v-12.8c0-1 0-2-.2-3-.6-3.4-2.3-4.8-5.5-4.7-3 0-5.2 2.1-5.6 5.1v15.3c0 2.2-.4 2.6-2.6 2.6h-3.2c-2.2 0-2.7-.6-2.8-2.8v-40.2c0-2.1.6-2.6 2.7-2.7h3.6c1.8 0 2.2.5 2.3 2.3v12.1c0 .7-.2 1.4.3 2.2z" fill="#0c2248"/><path d="m1268.2 236.9c.6-.2.5-.8.7-1.2 1.8-4.7 3.6-9.4 5.4-14.1.8-2.2 1.1-2.4 3.4-2.4h4c2.1 0 2.7.9 1.9 2.9-1 2.5-2 5-3.1 7.5-4.4 10.7-8.8 21.3-13.3 32-.3.7-.6 1.3-.8 2-.4 1-1.2 1.5-2.3 1.5h-5.1c-1.9 0-2.5-.9-1.8-2.6 1.2-3.1 2.2-6.3 3.7-9.3 1.8-3.6 1.8-6.9.3-10.7-2.5-6.1-4.5-12.5-6.8-18.8-.2-.6-.4-1.2-.6-1.8-.4-1.6 0-2.4 1.8-2.5h4.2c2.5 0 2.7.2 3.4 2.5 1.4 4.7 2.8 9.3 4.2 14 0 .4 0 .9.5 1.1h.3z" fill="#0c2248"/><path d="m1189.8 236.3h-7.6c-2.1 0-2.5.8-1.5 2.7 1.6 3 5.3 4.4 9 3.4 1.2-.3 2.3-1 3.4-1.6 1.5-.9 1.9-.8 3 .6.6.8 1.2 1.6 1.8 2.4.8 1.3.7 2-.5 2.9-9.1 7.2-23 3.9-25.8-8.6-1.5-6.8 1.3-13.8 7.1-17.3 8-4.8 19.5-1.6 21.6 9.1.2 1.1.2 2.1.2 3.2 0 2.6-.6 3.2-3.3 3.3h-7.4zm-3.6-6h4c1.5 0 1.8-.6 1-1.9-1.1-2-2.9-2.8-5.1-2.7-2.3 0-4.1 1-5.2 3-.5 1-.3 1.5.8 1.6z" fill="#0c2248"/><path d="m993.3 222.3c.8-.1 1.2-.7 1.7-1.1 4.4-3.4 10.4-3.3 14.8-.9 1.5.8 2.7 2.1 3.5 3.6 1.1 2.2 1.7 4.5 1.8 6.9v15.9c0 2.3-.5 2.8-2.9 2.9h-3.4c-1.6 0-2.1-.7-2.3-2.2v-15.5c0-3-1.2-4.7-3.2-5.2-2.9-.7-5.9.5-7.2 2.8-.5.9-.6 1.9-.6 2.9v15.3c-.2 1.4-.6 1.9-2 2h-4.5c-1.3 0-1.9-.7-2-2v-26.5c0-1.1.7-1.6 1.8-1.8 2.5-.4 3.1 0 4.7 3h-.2z" fill="#0c2248"/><path d="m980.6 238.4v8.3c0 1.9-.4 2.5-1.6 2.9-1.7.4-3 0-3.9-1.3-.5-.8-1.2-.9-2.1-.3-3.3 2.1-6.8 3-10.7 2.1-4.5-1.1-7.2-4.5-7.5-9.6-.3-3.9 2.3-7.6 6.3-9.2 2.9-1.1 5.9-1.2 9-.8.7.1 1.6.6 2.1-.3.5-.8.2-1.7-.2-2.4-.7-1.4-2-1.9-3.5-1.9s-3.8.3-5.7.6c-.8.1-1.5.3-2.3.4-1.1.2-1.8-.2-2.1-1.3s-.5-2.2-.7-3.3c-.2-1.3 0-1.9 1.4-2.3s2.9-.8 4.3-1c2.8-.4 5.6-.7 8.5-.3 5 .7 7.6 3.2 8.4 8.2.3 2 .4 4.1.4 6.1v5.3h-.1zm-8.3.9c0-2.2 0-2.5-1-2.9-2.1-.7-4.2-.8-6.2 0-2.7 1.1-2.4 5.5-.5 6.6 1.7 1 3.4 1 5.1.1 1.6-.9 3-2 2.7-4v.2z" fill="#0c2248"/><path d="m1131.2 238.1v8.9c0 1.7-.4 2.2-1.4 2.5-1.6.4-3.1 0-3.8-1q-1-1.4-2.4-.5c-3 1.9-6.1 2.8-9.7 2.2-5-.9-8.2-4.4-8.4-9.5-.2-4.9 2.7-8.6 7.6-9.8 2.5-.6 5-.7 7.6-.3 2.1.3 2.7-.5 2-2.5-.6-1.6-1.8-2.1-3.3-2.2-2.1 0-4.2.3-6.3.7-3.7.7-3.9.6-4.6-3.1-.5-2.6-.2-3.2 2.4-3.7 3.9-.9 7.9-1.6 12-.9 4.2.7 6.7 2.9 7.8 7 .5 2.1.5 4.2.5 6.3v6zm-12.1-2.2c-.6 0-1.3 0-1.9.1-2.3.3-3.6 2.1-3.4 4.3s1.9 3.7 4.2 3.5c1 0 1.9-.4 2.8-.9 2-1.1 2.7-2.9 2-5.5-.5-1.9-2.2-1.3-3.5-1.5z" fill="#0c2248"/><path d="m1082.6 234.5c0 4.4 2.3 7.2 6.3 8 2.1.4 3.9-.2 5.6-1.4.6-.5 1.2-1 1.7-1.6.7-.6 1.5-.8 2.3-.1 1 .7 1.9 1.5 2.8 2.3 1.1 1.1 1.1 1.7.2 3-2.7 3.9-6.7 5.7-11.3 5.8-8.1.1-13.9-5-15.7-11.3-2.8-9.5 3.3-19 13.2-20.3 4.7-.7 8.8.7 12.4 3.8 1.9 1.7 1.9 2.3.4 4.2-.6.8-1.3 1.5-2 2.2s-1.5.7-2.3.1c-.5-.4-1-.8-1.5-1.2-4.1-2.9-9.9-1.2-11.6 3.6-.4 1-.4 2.1-.4 3z" fill="#0c2248"/><path d="m953.7 157.1c-10.2 7.2-22.2 14.8-35.1 22.7l-.5.3v.7c0 .1 0 .1.2.1h.3l.4-.2c11-5.7 23.6-12.6 36.3-19.6h.2c-.7-1.2-1.3-2.5-1.7-3.8v-.2zm66.7-54c-16-17.6-119.1-1.8-162.9 7.8l-1 .2h-.2v.2.2q0 0 0 0h.2l1-.2c36.3-6.5 111.8-15.4 128.1.7 5 4.9 3.8 11.3-2 18.7 3.2 2.1 5.4 5.3 6.3 9.1 22.4-15 37.5-29.2 30.4-37.1v.3z" fill="#cd2328"/><g fill="#023d5b"><path d="m960.2 152.5c.2 6.2 4.2 11.3 9.3 11.3 9.9 0 14.2-12.2 13.9-20.4-.2-6.2-4.2-11.3-9.4-11.3-8.5 0-14.1 12.2-13.8 20.4zm-5.3-.3c-.4-10.6 7.9-21.5 20-21.5s13.4 5.4 13.6 13.6c.4 11.2-7.4 21.5-20 21.5s-13.4-5.4-13.7-13.6z"/><path d="m840.6 149.3c-.5.2-1.1.4-1.7.5-.7.2-2 .4-3.8.7-.9 0-1.8.4-2.6.8-.2.1-.4.3-.6.6 0 .2-.2.5-.3.7v.8c0 .2.3.4.5.6.7.4 1.6.6 2.4.5.9 0 1.7-.1 2.5-.4.7-.2 1.4-.6 2-1.1.4-.4.7-.8.9-1.3.2-.7.4-1.5.5-2.2zm10.5-6.4c0 1.1-.3 2.2-.5 3.3l-1.8 10v1.2c.2.4.5.7.9.9v.4h-10.1v-2.6c-1.6 1-3.3 1.7-5 2.2-1.6.4-3.2.6-4.9.6-3.3 0-5.2-.3-6.5-1.5-.6-.4-1.1-.9-1.4-1.5s-.5-1.3-.5-2c0-1.1.5-2.1 1.2-3 .7-.8 1.7-1.5 2.7-1.9 1.3-.6 2.7-1 4.1-1.1 1.8-.3 4.3-.6 7.6-.9 1.1 0 2.3-.3 3.3-.7.7-.3 1-.6 1.1-1.1.2-1 0-1.6-1.5-1.9-4.7-.3-9.5.1-14.1 1.4l1.9-5.2c4.5-.7 9.1-1.1 13.6-1.1 7.3 0 9.7 2.1 9.6 4.8"/><path d="m880.6 158.6 3.5-19.9h9.8l-3.5 19.9zm4-24.6c.3-1.7 2.9-3 5.8-3s5 1.3 4.7 3-2.9 3-5.8 3-5-1.3-4.7-3z"/><path d="m928.4 149.4c-.4.2-1 .3-1.7.5s-2 .4-3.8.7c-.9 0-1.8.4-2.6.8-.4.3-.7.8-.8 1.3v.7c0 .2.3.4.5.6.8.4 1.6.6 2.5.5.8 0 1.7-.1 2.5-.4.8-.2 1.5-.6 2.1-1.1.4-.4.7-.8.9-1.3.2-.8.4-1.5.5-2.3zm10.5-6.6c0 1.1-.2 2.2-.5 3.3l-1.8 10v1.2c.2.4.5.7.8.9v.4h-10.2v-2.6c-1.5 1-3.2 1.7-4.9 2.2-1.6.4-3.2.6-4.9.6-3.3 0-5.1-.3-6.5-1.5-.6-.4-1.1-.9-1.4-1.5s-.5-1.3-.5-2c0-1.1.5-2.1 1.2-3 .8-.8 1.7-1.5 2.7-1.9 1.3-.6 2.7-1 4.1-1.2 1.8-.3 4.4-.6 7.7-.9 1.1 0 2.3-.3 3.3-.7.7-.3 1-.6 1.1-1.1.2-1-.2-1.6-1.5-1.9-3.7-.7-10.5.5-14.1 1.4l1.9-5.2c4.5-.7 9.1-1.1 13.6-1.1 7.3 0 9.6 2.2 9.6 4.8"/><path d="m820.1 151.3c-2.7.6-5.4.9-8.1.9-4.7 0-8.3-2.3-8.1-6.6.2-2.8 3.5-8.8 12-8.8s5.3.7 7.6 2.1l1.2-6.9c-3.1-1.2-6.3-1.8-9.6-1.6-11.1.1-21.8 5.2-23.1 15.4s11.4 13.2 17.1 13.1c3.3 0 6.6-.1 9.8-.5l1.3-7h-.1z"/><path d="m899.2 138.5.7-4 10.2-2.2-1.1 6.3h5l-.9 4h-4.8l-2.9 16.1h-9.8l2.9-16.1h-3.7l.7-4h3.8-.1z"/><path d="m948.8 158.5h-9.9l5-27.8 9.7.3-4.7 27.5z"/><path d="m867.7 143.3c-1.3 0-2.5.4-3.5 1.2-1.1.8-1.8 2.1-1.9 3.4-.2.6-.2 1.3 0 1.9 0 .7.3 1.3.7 1.8.4.4.9.7 1.4.9s1.1.3 1.6.2c.9 0 1.7-.1 2.5-.5s1.4-.9 1.9-1.6c.5-.8.9-1.7 1.1-2.6.2-.6.2-1.2 0-1.9 0-.6-.4-1.2-.8-1.7-.4-.4-.8-.7-1.3-.9s-1.1-.3-1.6-.3zm-17.8 22.2 4.7-26.7h8.5l-.7 3.4c.9-1.1 2.2-2 3.6-2.5 1.7-.8 3.6-1.2 5.5-1.2 1.8-.1 3.6.2 5.3 1 1.6.8 2.8 2.1 3.4 3.8s.8 3.6.4 5.4c-.2 1.6-.8 3-1.6 4.4-.8 1.3-1.9 2.5-3.2 3.4-3.4 2.2-7.4 2.9-11.3 2.1-.7-.2-1.3-.4-1.9-.8s-1.1-.9-1.6-1.5l-1.6 9.2h-9.6z"/><path d="m1026.6 145.7c0-.3 0-.7 0-1s-.3-.6-.5-.9-.5-.5-.9-.6c-.3-.1-.7-.2-1-.2-4 0-8.2 7.8-9 11 6.6 0 11.6-3.9 11.5-8.3zm.8 12.3.8.5c-.9 2.1-2.4 3.8-4.3 5.1s-4 2-6.3 2.1c-1 0-1.9-.1-2.8-.5s-1.7-.9-2.4-1.6-1.2-1.5-1.5-2.4-.5-1.9-.4-2.8c-.3-8.6 7.7-16.5 14.2-16.5s5.4 1.2 5.5 4.3c.2 6.8-9.3 8.8-15.6 9-.2.8-.3 1.7-.2 2.5 0 .7 0 1.4.3 2.1s.7 1.2 1.2 1.7 1.1.9 1.8 1.1 1.4.3 2.1.3c1.6-.2 3.1-.7 4.4-1.5s2.4-2 3.2-3.3z"/><path d="m988.5 145.5c.7 0 1.8-.2 2.2-.2s1.4.1 1.4.8-.7 3.5-.9 4.2l-1.5 6.6c-.6 2.7-1.3 5.6-1.9 7.9h3.9l2.2-10.6c6.6-7 9.2-9.2 10.8-9.2h.5c.2 0 .3.1.4.3 0 .1.2.3.3.4v.5c0 1.6-.5 3.3-1 4.8l-2.2 7.7c-.5 1.4-.8 2.9-.9 4.4 0 .3 0 .7.2 1 0 .3.3.6.6.8.2.2.5.4.9.5.3.1.7.1 1 .1 2.9 0 4.9-3 6.7-5.9l-.5-1c-.7 1.2-2.4 3.7-3.8 3.7s-.8-.3-.8-1c0-1.1.2-2.1.6-3.2l2.5-9.1c.5-1.6.8-3.3 1-5v-1c0-.3-.3-.6-.5-.9-.2-.2-.6-.4-.9-.5s-.7-.1-1 0c-2.6 0-6 1.9-13.2 10.2l.9-4.1c.5-2.2 1-4.5 1.4-6.1-2.7 1-5.5 1.7-8.3 2.3v1.6z"/><path d="m1070.6 95.1h-1.4v85.8h1.4s0-85.8 0-85.8z"/><path d="m1112 107.2h-6v22.8h6z"/><path d="m1138.8 130.1-1.2-13.6-4 11.6h-4.6l-4.2-11.7-1.3 13.7h-5.5l2.2-22.8h6.5l4.6 12.7 4.6-12.7h6.3l2.2 22.8z"/><path d="m1150.4 130.1v-22.4c1.3-.2 2.6-.4 4.1-.5 1.3 0 2.6-.2 3.9-.2 2.5-.2 5 .5 7.1 2 .8.7 1.4 1.6 1.8 2.6s.6 2 .6 3.1-.2 2.1-.7 3.1c-.4 1-1.1 1.9-1.9 2.6-2 1.5-4.5 2.2-7 2.1h-2.1v7.7h-5.9zm7.9-18.9c-.7 0-1.3 0-2 0v6.8h2.1c.5 0 .9 0 1.4-.2.4-.2.8-.4 1.2-.7.3-.3.6-.7.8-1.2.2-.4.2-.9.2-1.4 0-2.2-1.2-3.4-3.6-3.4z"/><path d="m1186 130.1-1.3-4.4h-7.4l-1.3 4.4h-5.9l7.6-22.8h6.9l7.5 22.9h-6.1zm-7.6-8.3h5.1l-2.6-8.8-2.6 8.8z"/><path d="m1212.4 129.1c-2 1-4.3 1.5-6.6 1.5s-2.9-.1-4.2-.7c-1.3-.5-2.5-1.4-3.5-2.4-1.9-2.5-2.9-5.6-2.7-8.8-.2-3.2.8-6.3 2.7-8.8 1-1.1 2.2-1.9 3.5-2.4s2.8-.8 4.2-.7c2.3 0 4.5.5 6.6 1.5v4.6c-.9-.4-1.9-.8-2.8-1.1-.9-.2-1.7-.3-2.6-.3s-1.5 0-2.1.4c-.7.3-1.2.8-1.7 1.4-1 1.6-1.4 3.5-1.3 5.4 0 1.9.3 3.8 1.3 5.4.4.6 1 1.1 1.7 1.4s1.4.5 2.1.4c.9 0 1.8 0 2.6-.3 1-.3 2-.6 2.9-1.1v4.5z"/><path d="m1223.1 130.1v-18.1h-6.2v-4.7h18.5v4.7h-6.2v18.1z"/><path d="m1109.9 146.4h-3.2v22.8h3.2z"/><path d="m1132.1 169.2-11-17.6v17.6h-3v-22.8h2.9l11 17.6v-17.6h3v22.8z"/><path d="m1146.2 146.4h-3.2v22.8h3.2z"/><path d="m1158.8 169.2v-20.2h-6.7v-2.6h16.5v2.6h-6.7v20.2h-3.2z"/><path d="m1177.8 146.4h-3.2v22.8h3.2z"/><path d="m1199.9 169.3-1.9-5.7h-9.3l-1.9 5.7h-3.3l7.9-22.9h3.8l7.9 22.9zm-10.4-8.1h7.8l-3.9-11.8-3.8 11.8z"/><path d="m1211.1 169.2v-20.2h-6.7v-2.6h16.5v2.6h-6.7v20.2h-3.2z"/><path d="m1230 146.4h-3.2v22.8h3.2z"/><path d="m1243.7 169.2-7.8-22.8h3.4l6.2 19.4 6.3-19.4h3.3l-7.8 22.8z"/><path d="m1264 159v7.7h10.8v2.6h-13.9v-22.8h13.8v2.6h-10.7v7.3h9.3v2.6z"/></g><path d="m234.8 252.5 21.9-83h7.2l-20.4 77.1h38.6l-1.6 5.8h-45.7z" fill="#013d5b"/><path d="m332.6 250.4c-2.5 1.2-5.3 2.1-8.6 2.8-3.2.7-6.3 1.1-9.3 1.1-7.4 0-13-2-16.6-6.1s-5.2-9.9-4.7-17.4c.5-7.7 2.4-14.5 5.6-20.6s7.2-10.8 12-14.1 9.9-5 15.4-5 10.7 1.7 13.9 5c3.2 3.4 4.6 8 4.2 14-.3 3.7-1.3 8.2-3.1 13.5h-40.2c-.6 2.9-1 5.5-1.1 7.6-.4 5.8.7 10.1 3.4 13.1 2.6 3 6.7 4.4 12.3 4.4s6.2-.4 9.5-1.1 6.2-1.7 8.7-2.8l-1.4 5.5zm-6.8-53.9c-5.1 0-9.7 2-13.8 5.9-4.1 4-7.1 9.4-9.2 16.2h33.8c.8-2.8 1.3-5.5 1.5-8.3.3-4.4-.6-7.8-2.7-10.3-2.1-2.4-5.3-3.6-9.6-3.6z" fill="#013d5b"/><path d="m372.4 198.1-9.8 37.2c-.5 2.1-.9 3.8-.9 5-.2 2.7.4 4.7 1.8 6.1s3.6 2.1 6.5 2.1 6.9-.6 10.1-1.8l-1.4 5.2c-3.6 1.3-7 1.9-10.4 1.9s-7.7-1.1-10.2-3.4c-2.4-2.3-3.5-5.4-3.3-9.4 0-1.3.4-3.2 1-5.6l9.8-37.3h-8.7l1.3-4.9 9-.4 4.6-14.9 6.1-.7-4.2 15.6h17.3l-1.3 5.2h-17.3z" fill="#013d5b"/><path d="m396.8 195.2c6.3-5.8 10.2-11.5 12-16.9-1.1-.2-1.9-.8-2.5-1.5-.6-.8-.8-1.8-.7-3.1.1-1.8.7-3.3 1.9-4.5 1.1-1.2 2.5-1.8 4.2-1.8s2.8.6 3.6 1.7 1.1 2.7 1 4.7c-.2 3.5-2 7.4-5.3 11.8s-7.2 8.2-11.9 11.4l-2.1-1.8z" fill="#013d5b"/><path d="m406.7 244c5.4 3.2 11.3 4.9 17.8 4.9s8.4-1.2 11.5-3.6 4.7-5.6 5-9.5c.2-2.4-.3-4.5-1.3-6-1-1.6-2.9-3-5.6-4.1l-8.2-3.7c-3.7-1.7-6.3-3.6-7.8-5.7-1.5-2.2-2.2-4.8-2-7.9.3-4.9 2.6-9 6.7-12.2s9.1-4.9 15-4.9 11.9 1.5 17.1 4.4l-1.4 5.2c-3-1.5-5.7-2.6-8.1-3.2s-5-.9-7.6-.9c-4.1 0-7.5 1-10.3 3.1s-4.2 4.8-4.5 8c-.1 2.1.3 3.9 1.3 5.2s2.9 2.5 5.5 3.7l8.4 3.8c6.9 3.2 10.1 8.1 9.6 14.7-.3 3.8-1.5 7.2-3.7 10.1s-5 5.2-8.5 6.8-7.3 2.4-11.5 2.4c-7 0-12.9-1.5-17.9-4.4l.4-5.9v-.3z" fill="#013d5b"/><path d="m543.6 250.4c-6.9 2.6-13.9 3.9-21 3.9s-17.3-2.8-22.5-8.3-7.4-13.2-6.8-22.9c.7-10.6 3.3-20.1 7.6-28.7 4.3-8.5 9.8-15.1 16.3-19.7s13.6-6.9 21.3-6.9 16.7 2.1 23.3 6.3l-1.5 5.6c-6.2-4-13.4-6-21.7-6s-13.2 2.2-18.6 6.6-9.9 10.4-13.2 17.9c-3.4 7.5-5.4 15.6-6 24.4-.6 8.3 1.1 14.7 5.1 19.2s10 6.8 18 6.8 9.7-.7 13.9-2.1l8.2-30.9h-11.3l2.8-5.8h16.8l-10.8 40.8v-.2z" fill="#013d5b"/><path d="m582.2 254.3c-6.9 0-12-1.9-15.4-5.6-3.4-3.8-4.8-9.1-4.3-16.1.6-7.9 2.4-15.1 5.5-21.6s7-11.4 11.8-14.8 10.2-5.1 16.2-5.1 12 1.9 15.4 5.6c3.4 3.8 4.8 9.1 4.3 16.1-.6 7.9-2.4 15.1-5.5 21.6s-7 11.4-11.8 14.8-10.2 5.1-16.2 5.1zm1.1-5.4c4.7 0 8.9-1.6 12.5-4.7 3.6-3.2 6.5-7.5 8.7-13.2 2.2-5.6 3.5-11.7 4-18.1.8-10.8-3.8-16.2-13.6-16.2s-8.9 1.6-12.5 4.7c-3.6 3.2-6.5 7.5-8.7 13.2-2.2 5.6-3.5 11.7-4 18.1-.8 10.8 3.8 16.2 13.6 16.2z" fill="#013d5b"/><path d="m446.9 363.9c2.7 1.9 5.8 3.4 9.2 4.5 3.5 1.1 6.7 1.7 9.8 1.7 4.6 0 8.3-1 11.2-3.1s4.5-4.8 4.7-8.1c.1-2.1-.3-3.9-1.4-5.3s-2.9-2.7-5.5-3.8l-5.6-2.5c-5-2.2-8.4-4.5-10.4-7s-2.8-5.7-2.6-9.7c.3-4.3 1.7-8 4.3-11.4 2.6-3.3 5.9-5.9 10-7.7s8.6-2.7 13.4-2.7 7.2.4 10.9 1.3 6.9 2.1 9.5 3.6l-2.7 10.2c-2.3-1.4-5-2.5-7.9-3.2-2.9-.8-5.9-1.2-8.8-1.2-4.2 0-7.6.9-10.3 2.6s-4.1 4-4.3 6.8c-.1 1.7.3 3.1 1.3 4.2s2.8 2.3 5.6 3.5l5.8 2.7c5 2.2 8.4 4.8 10.4 7.6s2.8 6.4 2.5 10.6c-.3 4.7-1.8 8.8-4.4 12.3s-6 6.2-10.2 8.1-9 2.8-14.2 2.8-8-.5-11.7-1.5-6.8-2.4-9.4-4.1l.8-11.3z" fill="#013d5b"/><path d="m539.9 377c-2.2 1.2-4.8 2.1-7.6 2.8s-5.6 1-8.3 1c-7.2 0-12.5-1.8-16-5.5s-5.1-9-4.6-15.9c.4-6.2 2-11.7 4.8-16.7 2.7-4.9 6.2-8.8 10.4-11.5s8.9-4 13.9-4 10.2 1.5 13.3 4.5 4.4 7.1 4.1 12.2c-.2 3.5-1.3 7.8-3.1 13h-30.5c-.2.7-.3 1.8-.4 3.2-.5 7.3 3.3 10.9 11.3 10.9s4.7-.3 7.4-.9 5.3-1.4 7.8-2.5l-2.4 9.3zm-8.7-40.8c-2.8 0-5.3 1.1-7.6 3.3-2.2 2.2-4 5.4-5.3 9.5h19.2c.5-1.7.8-3.4.9-5 .2-2.6-.3-4.5-1.6-5.8-1.2-1.3-3.1-2-5.7-2z" fill="#013d5b"/><path d="m577.7 337.8-6.1 23.2c-.5 2.2-.9 4-1 5.2-.2 3.1 1.6 4.7 5.5 4.7s4.8-.3 7-.9l-2.4 9c-3 1-6.3 1.5-9.8 1.5s-7.7-1.1-10.2-3.2c-2.5-2.2-3.6-5.1-3.3-8.8 0-1.9.4-3.7.9-5.4l6.7-25.3h-7.2l2.3-8.6 7.9-.3 4.3-12.6 11.5-1.3-3.6 13.8h12.5l-2.4 9z" fill="#013d5b"/><path d="m638.5 379.5v-2.9c-5 2.7-9.6 4.1-13.9 4.1s-7.5-1.2-9.8-3.7c-2.4-2.4-3.4-5.7-3.1-9.8.2-3.2 1.3-6.1 3.2-8.6s4.3-4.4 7.3-5.8c3-1.3 6.3-2 9.9-2s7.8.5 11.5 1.6l1-3.7c.3-1 .4-1.8.4-2.4.3-4.3-2.8-6.4-9.4-6.4s-9.9.9-14.6 2.7l2.3-8.7c5.1-2 10.4-3 15.9-3s10.4 1.2 13.5 3.7 4.4 5.9 4.1 10.4c0 1.4-.4 3-.9 4.8l-7.6 28.8-9.8 1zm-8.2-7.4c1.3 0 2.8-.2 4.3-.6 1.6-.4 3-1 4.3-1.7l2.7-10.4c-2.7-.6-5.3-.9-7.8-.9s-5.3.7-7.1 2.1-2.8 3.3-3 5.7c0 2 .3 3.4 1.4 4.4s2.8 1.5 5 1.5h.2z" fill="#013d5b"/><path d="m706 336.3-11.3 42.9h-12.2l16.9-64h11.2l14.2 42.9 11.3-42.9h12.2l-16.9 64h-11.2z" fill="#013d5b"/><path d="m780.5 377.2c-2.1 1.1-4.4 2-7 2.6s-5.2.9-7.7.9c-6.6 0-11.6-1.7-14.9-5.1s-4.7-8.3-4.3-14.8c.4-5.7 1.9-10.9 4.4-15.5s5.8-8.1 9.7-10.6 8.2-3.7 12.9-3.7 9.5 1.4 12.3 4.2c2.9 2.8 4.1 6.6 3.8 11.4-.2 3.2-1.2 7.3-2.9 12.1h-28.3c-.2.7-.3 1.7-.4 3-.5 6.8 3 10.1 10.5 10.1s4.4-.3 6.9-.8 4.9-1.3 7.2-2.3l-2.3 8.7v-.2zm-8.1-38c-2.6 0-5 1-7 3.1-2.1 2-3.7 5-5 8.8h17.8c.5-1.6.8-3.1.9-4.7.2-2.4-.3-4.2-1.5-5.4-1.1-1.2-2.9-1.8-5.3-1.8z" fill="#013d5b"/><path d="m827.6 379.2.7-35-18.2 35h-10.9l-1.2-46.9h11.5l-1 32.7 16.7-32.7h11.7l-.6 32.8 16.4-32.8h11.6l-25.9 46.9h-10.9z" fill="#013d5b"/><path d="m1231.1 657.8-2.6 23-841.8-30.4z" fill="#d0a8ff"/><path d="m217.2 130.8 435.2-29.4-5 29.4z" fill="#cd2328"/><path d="m399.8 419.4-5.7 21.8 428.9-25z" fill="#14bf96"/><path d="m112.7 782.3-8.5 27 346.3-30.5z" fill="#1b8eff"/><path d="m744.6 586.5-16.4-47.5h-16.7l-11.6 47.5h-24.7l30.7-124.6c5.2-1.3 11.1-2.4 17.7-3.1s13-1.1 19.1-1.1c15 0 26.3 3.2 33.8 9.5s10.9 15.5 10.3 27.6c-.5 9.7-3.8 18-9.9 25s-14.5 12.1-25.4 15.4l20.6 51.3zm-4.8-109.7c-5.5 0-9.9.4-13.3 1.3l-10.4 42.2h13.5c9.3 0 16.9-2.2 22.6-6.7 5.8-4.5 8.8-10.6 9.2-18.4.3-5.9-1.4-10.5-5.1-13.6-3.7-3.2-9.2-4.7-16.5-4.7z" fill="#013d5b"/><path d="m851.2 582.5c-4.1 2.2-8.8 3.9-13.9 5.1-5.2 1.2-10.3 1.8-15.4 1.8-13.2 0-23.2-3.4-29.8-10.2-6.7-6.8-9.7-16.6-9-29.5.6-11.4 3.3-21.7 8.3-30.8 4.9-9.2 11.2-16.2 18.9-21.2s16.2-7.5 25.6-7.5 18.9 2.8 24.7 8.3 8.4 13.1 7.9 22.6c-.3 6.4-2.1 14.4-5.3 24h-56.4c-.3 1.3-.5 3.3-.7 6-.7 13.5 6.4 20.2 21.3 20.2s8.7-.5 13.6-1.6c5-1.1 9.7-2.6 14.3-4.5l-4.2 17.3zm-17.5-75.5c-5.2 0-9.8 2-13.9 6.1-4 4.1-7.2 9.9-9.6 17.6h35.5c.9-3.2 1.4-6.2 1.6-9.3.2-4.7-.8-8.3-3.1-10.7s-5.8-3.6-10.5-3.6z" fill="#013d5b"/><path d="m932.9 582.7c-9.2 4.5-18.5 6.7-27.8 6.7s-21.4-3.3-27.5-9.9-8.8-16.2-8.1-28.8c.6-11.9 3.4-22.5 8.3-31.7 4.9-9.3 11.3-16.4 19.1-21.3s16.6-7.4 26.3-7.4 19 2.5 27.4 7.6l-4 17.3c-7.4-4.1-14.7-6.2-21.9-6.2s-10.9 1.8-15.4 5.4c-4.4 3.6-8 8.4-10.6 14.5s-4.1 12.9-4.5 20.3c-.4 7.5.8 13 3.7 16.4s7.6 5.1 14.1 5.1 16.5-1.8 25-5.5l-4.2 17.5z" fill="#013d5b"/><path d="m985.4 589.4c-12.5 0-21.8-3.1-27.8-9.3s-8.8-15.2-8.1-27.1c.7-12.7 3.4-23.8 8.3-33.3s11.3-16.7 19.2-21.8c8-5.1 16.9-7.6 26.9-7.6s21.8 3.1 27.8 9.3 8.8 15.2 8.1 27.1c-.7 12.7-3.4 23.8-8.3 33.3s-11.3 16.7-19.2 21.8c-8 5.1-16.9 7.6-26.9 7.6zm3-18.5c7.3 0 13.4-4.1 18.3-12.3s7.7-18.8 8.4-31.9c.3-6.3-.6-10.8-2.8-13.6s-6-4.2-11.3-4.2-13.4 4.1-18.3 12.3-7.7 18.8-8.4 31.9c-.3 6.3.6 10.9 2.8 13.6 2.2 2.8 6 4.2 11.3 4.2z" fill="#013d5b"/><path d="m1040.3 586.5 22.6-91.8 19.4-2v8.5c9.3-6.9 18.2-10.4 26.6-10.4s6.1.4 8.8 1.3l-4.8 19.6c-3.4-.7-6.4-1.1-9-1.1-8.5 0-16.1 2.2-22.9 6.7l-17.1 69.1h-23.6z" fill="#013d5b"/><path d="m1166.2 587v-5.8c-9.3 5.5-18.2 8.2-26.7 8.2s-17.1-3.3-22.1-9.8c-5.1-6.5-7.3-15.7-6.7-27.5.6-12.2 3.5-23.1 8.4-32.6 5-9.5 11.5-16.7 19.5-21.7s17.1-7.5 27.1-7.5 12.6 1 18.8 2.9l10.8-43.5 24.1-2.4-34 137.7-19.4 2zm-15.7-16.1c5.5 0 10.8-1.5 16.1-4.5l13.6-55.7c-3.9-1.7-8.4-2.5-13.3-2.5s-11.2 1.9-15.8 5.7-8.2 9-10.9 15.5-4.3 13.5-4.6 21c-.4 7 .6 12.2 3 15.6 2.4 3.3 6.3 5 11.9 5z" fill="#013d5b"/><path d="m272 589.2 3.4-100-47.1 100h-25.5l1.2-127.3h24.9l-5.5 93.8 43.8-93.8h28l-2.8 94.9 41.2-94.9h25.1l-61.4 127.3h-25.5z" fill="#013d5b"/><path d="m375.7 592.1c-12.5 0-21.8-3.1-27.8-9.3s-8.8-15.2-8.1-27.1c.7-12.7 3.4-23.8 8.3-33.3s11.3-16.7 19.2-21.8c8-5.1 16.9-7.6 26.9-7.6s21.8 3.1 27.8 9.3 8.8 15.2 8.1 27.1c-.7 12.7-3.4 23.8-8.3 33.3s-11.3 16.7-19.2 21.8c-8 5.1-16.9 7.6-26.9 7.6zm3-18.5c7.3 0 13.4-4.1 18.3-12.3s7.7-18.8 8.4-31.9c.3-6.3-.6-10.9-2.8-13.6-2.2-2.8-6-4.2-11.3-4.2s-13.4 4.1-18.3 12.3-7.7 18.8-8.4 31.9c-.3 6.3.6 10.9 2.8 13.6 2.2 2.8 6 4.2 11.3 4.2z" fill="#013d5b"/><path d="m430.6 589.2 22.6-91.8 19.4-2v8.5c9.3-6.9 18.2-10.4 26.6-10.4s6.1.4 8.8 1.3l-4.8 19.6c-3.4-.7-6.4-1.1-9-1.1-8.5 0-16.1 2.2-22.9 6.7l-17.1 69.1h-23.6z" fill="#013d5b"/><path d="m498.8 589.2 33.7-136.8 24.1-2.4-34.2 139.1h-23.6z" fill="#013d5b"/><path d="m601.7 589.8v-5.8c-9.3 5.5-18.2 8.2-26.7 8.2s-17.1-3.3-22.1-9.8c-5.1-6.5-7.3-15.7-6.7-27.5.6-12.2 3.5-23.1 8.4-32.6 5-9.5 11.5-16.7 19.5-21.7s17.1-7.5 27.1-7.5 12.6 1 18.8 2.9l10.8-43.5 24.1-2.4-34 137.7-19.4 2zm-15.7-16.2c5.5 0 10.8-1.5 16.1-4.5l13.6-55.7c-3.9-1.7-8.4-2.5-13.3-2.5s-11.2 1.9-15.8 5.7-8.2 9-10.9 15.5-4.3 13.5-4.6 21c-.4 7 .6 12.2 3 15.6 2.4 3.3 6.3 5 11.9 5z" fill="#013d5b"/><path d="m252.4 36.2-29.4 99.4-3.9-5.4 445.3-.6h4.2l-.9 4.1-34.4 157.4-1 4.6h-4.8c0 .1-199 4.7-199 4.7l7-5.7-24.9 118-9.9-12.6c5.4.2 869 13.5 874 13.7l-.6 3.6-35.6 230.6-1.3 8.4h-8.7c.8-2.8-1092.6-2.5-1078.1-9.4l-29.4 130.3-8.1-10.6 82.2.3c117.9.6 292.7 1.9 411.1 3.1 48.3.2 116.9.5 164.4 3.6v2.7c-47.3 4-116.3 2.5-164.4 3.6-118.6.9-293 2.7-411.1 3.1-3.8 0-92.2.3-93.6.4l3.3-10.6 39.7-127.5.7-2.2h2.2l1081-7.1-10 8.3 49.5-228 3 3.7-870.5.6h-13.1l3.3-12.6 30.4-116.7 1.5-5.6h5.6l199.1-2-5.8 4.7 39.7-156.2 3.3 4.1-445.3 2.1h-6l2.1-5.4 37.1-96.8h.1z" fill="#013d5b"/><circle cx="252.4" cy="34.1" fill="#013d5b" r="28.5"/><circle cx="252.4" cy="34.1" fill="#fff" r="13.8" transform="matrix(.23004974 -.97317887 .97317887 .23004974 161.2 271.9)"/><path d="m1044.1 753.1c-4.2-4.2-9.6-6.3-15.1-6.3s-10.9 2.1-15.1 6.2l-4 3.9-4-3.9c-4.2-4.2-9.6-6.2-15.1-6.2s-10.9 2.1-15.1 6.3c-8.3 8.3-8.3 21.8 0 30.2l3.9 3.9 30.2 30.1 30.2-30.1 3.9-3.9c8.3-8.3 8.4-21.8 0-30.2z" fill="#cd2328"/><path d="m1032.9 924.4c-14.5 8.3-32.4 8.3-47 0-2.5 15.4-7.9 30.3-15.9 43.8h78.9c-8-13.5-13.4-28.3-15.9-43.8z" fill="#fcb500"/><path d="m934.2 865.1c-6.1-11.7-11.4-23.8-15.9-36.2-29-18.8-52.8-45.3-62.1-75.9h43c-1.4-9.1-2.4-18.1-3.2-27.1h-44.4c-7.3 0-14.1 3.5-18.5 9.3s-5.8 13.3-3.9 20.3c12.9 50 56.9 91.9 107.3 113.8-.8-1.4-1.6-2.8-2.3-4.2z" fill="#fcb500"/><path d="m1185.9 735.2c-4.4-5.8-11.2-9.2-18.5-9.3h-44.4c-.8 9-1.9 18-3.2 27.1h42.9c-9.3 30.5-33.1 57.1-62.1 75.9-4.5 12.4-9.8 24.5-15.9 36.2-.7 1.4-1.5 2.8-2.3 4.3 50.5-21.8 94.5-63.8 107.4-113.8 1.9-7 .5-14.5-3.9-20.3z" fill="#fcb500"/><path d="m954 707.2c0 1.8-1.2 3.4-2.9 3.8h-48.6c6.3 118.4 60.7 211.9 107.1 211.9 46.4 0 100.8-93.5 107.1-211.9h-47.4c-1.7-.5-2.9-2.1-2.9-3.8s1.2-3.4 2.9-3.8h47.7v-7.1c0-2.1-.7-4.1-2.1-5.6s-3.4-2.4-5.5-2.4h-200c-2.1 0-4.1.9-5.5 2.4s-2.2 3.5-2.1 5.6v7.1h49.1c1.7.5 2.9 2 2.9 3.8zm26 7.2c32.4-16.4 71.7-3.3 88 29.1 9.6 19.1 10 40.6 0 58.9-10.4 18.9-58.6 77.7-58.6 77.7s-48.9-58.8-58.6-77.7c-15.8-30.9-3.3-71.7 29.1-88z" fill="#fcb500"/><path d="m957.4 975.9c-2 0-3.9.9-5.4 2.3-1.4 1.4-2.2 3.4-2.2 5.4v11.5h119.4v-11.5c0-2.1-.8-4-2.2-5.5-1.4-1.4-3.4-2.3-5.5-2.2z" fill="#fcb500"/><path d="m936.6 869.4h-.2z" fill="#fcb500"/><path d="m1084 1002.9h-149c-12.7.2-22.9 10.6-22.8 23.3v15.6c0 4.2 3.3 7.6 7.5 7.7h179.5c4.2 0 7.6-3.5 7.5-7.7v-15.6c0-12.7-10.1-23.1-22.8-23.3z" fill="#fcb500"/><path d="m1241.9 893.4c-8.6-3.1-17.3-6.2-25.3-10.4-4.9 7.5-9.7 15-14.6 22.6 8 4.2 16.6 7.3 25.3 10.4 4.9-7.5 9.7-15 14.6-22.6z" fill="#013d5b"/><path d="m1256 968.2c.8 1 2.1 1.5 3.3 1.5s2.5-.8 3.2-1.8l43.8-67.7c.9-1.5.9-3.4-.3-4.7-12.6-15.6-30.7-22-48.2-28.4-17.3-6.2-33.6-12.1-44.7-25.9-.8-1-2.1-1.5-3.3-1.5s-2.5.8-3.2 1.8l-43.8 67.7c-.9 1.5-.9 3.4.3 4.7.7.9 1.4 1.7 2.2 2.5 12.4 13.7 29.5 19.9 46.1 25.8 17.3 6.2 33.6 12 44.7 25.9zm-41.9-33.5c-8.6-3.1-16.9-6.1-24.4-10 4.1-6.4 8.3-12.8 12.4-19.2-6.8-3.5-13.1-7.9-18.4-13.6l14.6-22.6c5.4 5.7 11.6 10 18.4 13.6 4.1-6.4 8.3-12.8 12.4-19.2 8.1 4.3 16.7 7.4 25.2 10.5-4.1 6.4-8.2 12.7-12.3 19.1 8.6 3.1 17.3 6.2 25.3 10.4 4.1-6.4 8.3-12.8 12.4-19.2 6.9 3.5 13.1 7.8 18.4 13.6l-12.4 19.1c-5.4-5.7-11.6-10-18.4-13.6-4.9 7.5-9.7 15-14.6 22.6 6.8 3.5 13.1 7.9 18.4 13.6l-12.3 19.1c-5.5-5.7-11.8-9.9-18.5-13.5 4.1-6.4 8.3-12.8 12.4-19.2-8-4.2-16.6-7.3-25.3-10.4-4.1 6.4-8.2 12.7-12.4 19.1-.3 0-.6-.2-.9-.3z" fill="#013d5b"/><path d="m1217.4 812.5c-2.1-1.3-4.5-1.8-7-1.3-2.4.5-4.5 2-5.8 4-2 3.1-1.9 6.9 0 9.8l-103.2 159.6c-1 1.6-.8 3.6.4 4.9.2.3.5.5.8.7 1.9 1.2 4.4.7 5.6-1.2l103.2-159.6c3.4.4 6.9-1 8.9-4.1 2.8-4.3 1.5-10-2.7-12.8h-.1z" fill="#013d5b"/><path d="m781.8 957.6c10.9-14 27.2-20 44.3-26.5 16.5-6.2 33.5-12.6 45.7-26.5.7-.8 1.4-1.7 2.1-2.6 1.1-1.4 1.2-3.3.2-4.7l-44.7-67.1c-.7-1.1-1.9-1.7-3.2-1.8-1.3 0-2.5.6-3.3 1.5-10.9 13.9-27.2 20-44.3 26.5-17.4 6.6-35.4 13.3-47.8 29.1-1.1 1.4-1.2 3.3-.2 4.7l44.7 67.1c.7 1.1 1.9 1.7 3.2 1.8 1.3 0 2.5-.5 3.3-1.5z" fill="#fff"/><path d="m809.8 905c8.6-3.2 17.2-6.5 25.1-10.8-5-7.5-10-14.9-14.9-22.4-7.9 4.3-16.5 7.5-25.1 10.8 5 7.4 10 14.9 14.9 22.4z" fill="#013d5b"/><path d="m781.8 957.6c10.9-14 27.2-20 44.3-26.5 16.5-6.2 33.5-12.6 45.7-26.5.7-.8 1.4-1.7 2.1-2.6 1.1-1.4 1.2-3.3.2-4.7l-44.7-67.1c-.7-1.1-1.9-1.7-3.2-1.8-1.3 0-2.5.6-3.3 1.5-10.9 13.9-27.2 20-44.3 26.5-17.4 6.6-35.4 13.3-47.8 29.1-1.1 1.4-1.2 3.3-.2 4.7l44.7 67.1c.7 1.1 1.9 1.7 3.2 1.8 1.3 0 2.5-.5 3.3-1.5zm41.4-34.1c-.3 0-.6.2-.9.3-4.2-6.3-8.4-12.6-12.6-18.9-8.6 3.2-17.2 6.5-25.1 10.8 4.2 6.3 8.5 12.7 12.7 19-6.7 3.6-12.9 8-18.3 13.7l-12.6-18.9c5.3-5.8 11.5-10.2 18.2-13.8-5-7.5-10-14.9-14.9-22.4-6.7 3.6-12.9 8-18.2 13.8l-12.6-18.9c5.2-5.9 11.3-10.3 18.2-13.9 4.2 6.3 8.4 12.6 12.7 19 7.9-4.3 16.5-7.5 25.1-10.8-4.2-6.3-8.4-12.6-12.6-18.9 8.5-3.2 17.1-6.5 25.1-10.8 4.2 6.3 8.5 12.7 12.7 19 6.7-3.6 12.9-8 18.2-13.8l14.9 22.4c-5.3 5.8-11.5 10.2-18.2 13.8 4.2 6.3 8.4 12.6 12.7 19-7.5 4-15.8 7.1-24.3 10.3z" fill="#013d5b"/><path d="m818.2 801.5c-4.3 2.8-5.4 8.6-2.6 12.8 2 3 5.6 4.5 9 4l105.5 158.1c1.2 1.9 3.7 2.4 5.6 1.1.3-.2.6-.4.8-.7 1.2-1.3 1.4-3.3.3-4.9l-105.5-158.1c1.8-3 1.8-6.8-.3-9.8-1.4-2-3.5-3.4-5.9-3.9s-4.9 0-7 1.4z" fill="#013d5b"/><path d="m147.4 349.5c-9 17.1-19 34.3-30 51.5-7.7 12.1-15.6 2.2-8.3-6.9 13.8-17.4 24.9-35.8 33.3-55.1.7-1.6-.5-3.3-2.2-3.2-27.6 1.3-54.6 3.5-81.1 6.7-3.9.5-10.7-1.2-6.3-6.6.7-.9 1.8-1.5 3-1.7 23.7-4.2 47.7-6.2 71.9-6 9.6 0 10.9-3.2 3.9-9.6l-62-57.7c-.9-.9-1.2-2.1-.7-3.1 2.3-4.4 5.9-5.5 10.7-3.1 10.6 5.2 18.7 13.9 24.1 26.4.6 1.3 1.3 2.4 2.2 3 13.8 10 26.1 21.6 36.8 34.8.7.9 1.2.6 1.2-.9 1.1-27-8.7-53.7-16.4-79.4-.4-1.6.4-3.2 1.9-3.8 9.3-3.7 9.6 4.4 11.3 10.5 6.7 24.4 11 49.1 13 74.3.1 1.2.5 1.3 1.1.3 14.2-22.9 28.2-42.6 47.6-61.3 3.4-3.3 4.5-2.6 3.3 1.9-2.1 7.7-8.3 10-12 15.2-11.8 16.8-23 33.9-33.8 51.5-1.4 2.3-.7 3.3 2.2 3.3l59.5-1.2c1 0 1.7.9 1.5 1.9-1.2 6.5-50.7 6.6-58 6.4-1.9 0-2.2.6-1.1 1.8l60.1 64.3c.8.8.6 2.4-.5 3.7-2.5 3.2-8.4-5.9-11.5-7.1-1.3-.5-2.3-1.2-3.1-2l-48.8-50.5c-1.7-1.7-2.4-1.4-2.2.9 2.2 24.3 6.1 48.6 11.6 72.9.6 2.9-2.7 16.7-5.9 2.9-5.7-24.4-10-49.3-13-74.4-.4-3.7-1.5-3.9-3.2-.6z" fill="#fcb500"/><path d="m512.2 837c-9.8-4.6-20-5.4-30.8-2.2-12.5 3.7-24.2 8.1-35 13.4-.4 0-.6.4-.8.7-.9 1.7-.4 2.9 1.5 3.5 2.7 7.7 3.8 15.8 3.3 24-.1 2.6-.7 5.4-1.5 8.3-3.9 13.1-11 29.5-20.5 39.5-.7.8-1.7 1.8-2.7 3.2-9.2 11.7-33.7 26.6-45.7 9.1-2.2-3.3-3.5-11.7-2.8-15.6.7-3.7 1.2-7.5 1.7-11.2 0-.3.1-.6.4-.9 3.5-4.8 2.5-9.6 6.7-13.2.3-.3.5-.7.6-1.1.4-2.4 1.6-4.2 3.7-5.4.4-.2.7-.6.8-1 .9-3 2.7-5.4 5.2-7.1.4-.3.7-.7.7-1.2.2-2 1.3-2 2.3-3 7-6.9 14.3-13.5 21.9-19.8 5-2.2 9.8-5 14.4-8.5.8-.6.9-1.7.3-2.5 0 0 0 0-.1 0-7.3-7.2-15.7-11.2-25.1-11.9-23.3-1.8-49.7 17.8-63.6 35.7-3.6 3.9-6.7 8.2-9.3 12.7-6.6 11.6-12.4 22.5-14 35.9 0 .4 0 .8.3 1.2 2.2 3.5 1.4 4.3-2.6 2.2-.7-.4-1-1-.9-1.7.8-10.9 3.8-21.2 8.8-30.8 1.2-2.1 3-3.2 3.3-6.2 0-.5.3-.9.7-1.2l2.5-2c.4-.3.6-.7.7-1.1.4-2.4 1.4-4.5 3-6.2.2-.2.2-.6 0-.8l-.2-.5c3.9-2.1 6.4-4.7 7.6-7.7 19.1-22 54.9-44.3 84.4-26.9 3.8 2.2 6.9 5.6 10.6 8.5.5.4 1.2.5 1.8.2 10-4.6 20.1-8.5 30.5-12 12.9-4.3 25.8-4.8 38.9-1.4l4.6 4.7s.4.3.6.4c2.3 1 3.9 2.8 4.7 5.3.7 2.1 2.3 2.5 4.8 1 22.9-13.2 51.9-22.4 77.1-12.4 5.4 2.2 9.4 6.7 13.5 10.9.4.4.6 1.1.4 1.7-.3 1.1 0 2 .4 2.6.6.7 1.5.9 2.3.5 15.3-8.9 30.6-14.5 45.8-16.7 13-1.9 23.7-4.6 37.1-4.3.6 0 1 .4 1.1 1 0 1.3-.7 2-2.5 2.2-27.3 2.2-54.8 7.2-79.1 20.6-.4.2-.7.6-.8 1-.8 2.3-.7 4.5.3 6.6.2.4.2.9 0 1.4-.7 1.7-.5 3.4.5 5.1.2.4.4.9.2 1.4-1.5 6.2-.8 12.6-2.5 18.2-4.6 14.9-15.3 32.9-32.9 28.6-.4 0-.9-.4-1.1-.8l-4.1-6.8c0-.2-.2-.5-.2-.8-.5-7 1.2-13.2 5.1-18.8 2.8-3.9 4.7-9.1 9.1-12.4.3-.2.4-.4.6-.8 3-7.6 9.5-12.1 17.2-18.7.4-.4.7-1 .6-1.6-2.5-20-30.8-21.9-45.4-19.2-14.2 2.7-28 7.9-41.5 15.5-.8.4-1.2 1.4-.7 2.3 2.9 6.1 8.3 24.4 4.2 30.5-.2.4-.3.7-.3 1.1.4 6.3-6.4 19.3-9.6 23.3-7.1 9-32.4 36.7-45.3 23.7-.3-.3-.4-.6-.5-.9-3.3-18-.1-33.7 9.6-47 8.5-11.7 14.6-18.9 18.2-21.5 5.4-3.9 10.8-7.4 16.1-10.6.9-.5 1.2-1.6.7-2.4 0 0-.2-.3-.4-.4l-8.5-7.7-.4-.7zm.6 70.8c14.9-15.9 19.2-35.5 11.7-56.2-.4-.9-1.4-1.4-2.3-1.1 0 0-.3 0-.4.2l-18.1 13.3c-.3.2-.5.4-.6.7-1.5 3.5-4.8 5.6-6.6 7.7-9.3 11.3-14.7 24.2-16.4 38.9-.7 5.6 0 10.6 2.2 14.8.4.8 1.3 1.2 2.1.9 11.5-3.5 20.1-10.7 28.4-19.5zm-77.6-53.7c-10.3 5.3-16.6 9.2-18.8 11.7-5.8 6.4-11.1 11.3-15.9 14.9-.1 0-.4.3-.4.5-9.8 16.1-20.6 28.2-17.2 48.6 2.2 13.1 14.9 11.3 23.7 6.5 10.1-5.5 14.3-10.6 22.3-21.7 4.9-6.8 8.3-14.4 12.2-21.8.2-.4.2-.7.1-1.2-.3-1.8.2-3.2 1.6-4.1.7-.4.9-1.1.9-1.8-.8-4.9 1.7-8.3 1.5-12.7-.2-4.8 0-18.5-4.9-19.7.9-.6 1-1.2.5-1.7s-.7-.4-1-.4c-1.9.3-3.4 1.2-4.6 2.6zm173.8 8.5c-4.4 3-5.6 7.8-8.9 11.7-5.2 5.9-7.7 11.7-11.1 18.3-2.4 4.5-.8 11.9 1.5 15.2.4.5 1 .8 1.7.7 5-.6 8.9-2.6 11.8-6 2-2.3 6-5.6 6.7-6.9 2.8-5.3 4.4-8.9 5-10.9 1.4-4.6 2.2-9.2 2.4-13.7l.5-12.6c0-1-.7-1.8-1.7-1.8s-.6 0-.9.2c-1.1.6-2 1.2-2.8 2.1-2 2-3.3 3.3-4.1 3.8h-.1z" fill="#14bf96"/><path d="m179.5 727.1 9.7-36.8h5.1l-9.7 36.8z" fill="#013d5b"/><path d="m209.2 727.1 4.7-17.6c.2-.8.3-1.6.4-2.2 0-1.3-.2-2.3-1-3s-1.9-1-3.5-1-2.1.2-3.3.5-2.3.8-3.3 1.3l-5.8 21.9h-4.8l7-26.4 4-.4v1.8c2.9-1.6 5.7-2.5 8.2-2.5s4.4.6 5.7 1.9c1.3 1.2 1.8 3 1.7 5.2 0 .9-.2 1.8-.4 2.6l-4.7 17.9z" fill="#013d5b"/><path d="m230.9 735 13.2-49.9h31.1l-2.1 7.9h-21.3l-3.7 13.8h18.4l-2.1 7.9h-18.4l-5.3 20.2h-9.9.1z" fill="#013d5b"/><path d="m268.3 735 9.4-35.8 9.6-.9-9.7 36.8h-9.3zm16.2-42.4c-1.5 0-2.7-.4-3.6-1.2-.8-.8-1.2-1.9-1.1-3.1.1-1.9.8-3.5 2-4.6s2.8-1.7 4.8-1.7 2.7.4 3.6 1.2c.8.8 1.2 1.9 1.1 3.1-.1 1.9-.8 3.5-2 4.6s-2.8 1.7-4.8 1.7z" fill="#013d5b"/><path d="m307.8 735 6.2-23.4c.3-1 .4-1.9.5-2.7 0-1.4-.3-2.4-1.1-3.2-.9-.7-2.1-1.1-3.7-1.1-2.3 0-4.6.6-6.7 1.8l-7.6 28.6h-9.3l9.5-36 7.6-.8v2.3c3.9-2.1 7.5-3.2 10.8-3.2s5.9.9 7.7 2.6 2.6 4.1 2.4 7.2c0 1.4-.3 2.7-.6 3.8l-6.4 24h-9.3z" fill="#013d5b"/><path d="m347.2 735.2v-2.3c-3.9 2.1-7.5 3.2-10.8 3.2s-5.8-1-7.7-2.8c-1.8-1.9-2.7-4.4-2.4-7.6.2-2.5 1-4.7 2.5-6.7 1.5-1.9 3.4-3.4 5.7-4.5 2.3-1 4.9-1.6 7.7-1.6s6.1.4 9 1.2l.8-2.9c.2-.8.3-1.4.3-1.9.2-3.3-2.2-5-7.4-5s-7.7.7-11.4 2.1l1.8-6.8c4-1.6 8.2-2.4 12.4-2.4s8.1 1 10.5 2.9 3.5 4.6 3.2 8.1c0 1.1-.3 2.3-.7 3.7l-5.9 22.4-7.6.8zm-6.5-5.8c1 0 2.2-.2 3.4-.5s2.3-.8 3.4-1.4l2.1-8.1c-2.1-.5-4.1-.7-6.1-.7s-4.1.5-5.5 1.6-2.2 2.6-2.3 4.5c-.1 1.5.3 2.7 1.1 3.5s2.2 1.2 3.9 1.2z" fill="#013d5b"/><path d="m384.3 735 6.2-23.4c.3-1 .4-1.9.5-2.7 0-1.4-.3-2.4-1.1-3.2-.9-.7-2.1-1.1-3.7-1.1-2.3 0-4.6.6-6.7 1.8l-7.6 28.6h-9.3l9.5-36 7.6-.8v2.3c3.9-2.1 7.5-3.2 10.8-3.2s5.9.9 7.7 2.6 2.6 4.1 2.4 7.2c0 1.4-.3 2.7-.6 3.8l-6.4 24h-9.3z" fill="#013d5b"/><path d="m429 733.5c-3.6 1.8-7.3 2.6-11 2.6s-8.4-1.3-10.7-3.9-3.3-6.4-3-11.3c.3-4.7 1.5-8.8 3.5-12.4s4.5-6.4 7.7-8.3c3.1-1.9 6.6-2.9 10.4-2.9s7.4 1 10.7 3l-1.7 6.8c-2.9-1.6-5.7-2.4-8.5-2.4s-4.3.7-6.1 2.1-3.2 3.3-4.3 5.7-1.7 5-1.9 7.9.2 5.1 1.3 6.4 2.9 2 5.5 2 6.5-.7 9.9-2.1z" fill="#013d5b"/><path d="m434.6 735 9.4-35.8 9.6-.9-9.7 36.8h-9.3zm16.2-42.4c-1.5 0-2.7-.4-3.6-1.2-.8-.8-1.2-1.9-1.1-3.1.1-1.9.8-3.5 2-4.6s2.8-1.7 4.8-1.7 2.7.4 3.6 1.2c.8.8 1.2 1.9 1.1 3.1-.1 1.9-.8 3.5-2 4.6s-2.8 1.7-4.8 1.7z" fill="#013d5b"/><path d="m474.3 735.2v-2.3c-3.9 2.1-7.5 3.2-10.8 3.2s-5.8-1-7.7-2.8c-1.8-1.9-2.7-4.4-2.4-7.6.2-2.5 1-4.7 2.5-6.7 1.5-1.9 3.4-3.4 5.7-4.5 2.3-1 4.9-1.6 7.7-1.6s6.1.4 9 1.2l.8-2.9c.2-.8.3-1.4.3-1.9.2-3.3-2.2-5-7.4-5s-7.7.7-11.4 2.1l1.8-6.8c4-1.6 8.2-2.4 12.4-2.4s8.1 1 10.5 2.9 3.5 4.6 3.2 8.1c0 1.1-.3 2.3-.7 3.7l-5.9 22.4-7.6.8zm-6.4-5.8c1 0 2.2-.2 3.4-.5s2.3-.8 3.4-1.4l2.1-8.1c-2.1-.5-4.1-.7-6.1-.7s-4.1.5-5.5 1.6-2.2 2.6-2.3 4.5c-.1 1.5.3 2.7 1.1 3.5s2.2 1.2 3.9 1.2z" fill="#013d5b"/><path d="m489.8 735 14.2-53.6 9.5-.9-14.4 54.5z" fill="#013d5b"/><path d="m526.5 735 13.2-49.9h9.9l-11.1 42h20.7l-2.1 7.9h-30.7z" fill="#013d5b"/><path d="m562.4 735 9.4-35.8 9.6-.9-9.7 36.8h-9.3zm16.2-42.4c-1.5 0-2.7-.4-3.6-1.2-.8-.8-1.2-1.9-1.1-3.1 0-1.9.8-3.5 2-4.6s2.8-1.7 4.8-1.7 2.7.4 3.6 1.2c.8.8 1.2 1.9 1.1 3.1 0 1.9-.8 3.5-2 4.6s-2.8 1.7-4.8 1.7z" fill="#013d5b"/><path d="m599.9 705-4.5 16.8c-.4 1.6-.6 2.9-.7 3.8-.2 2.3 1.2 3.4 4 3.4s3.5-.2 5.1-.6l-1.7 6.6c-2.2.7-4.6 1.1-7.1 1.1s-5.6-.8-7.4-2.4-2.6-3.7-2.4-6.4c0-1.4.3-2.7.6-3.9l4.9-18.3h-5.2l1.7-6.3 5.7-.2 3.1-9.1 8.3-.9-2.6 10h9.1l-1.7 6.6h-9.1v-.2z" fill="#013d5b"/><path d="m636.3 733.4c-1.6.9-3.5 1.5-5.5 2s-4 .7-6 .7c-5.2 0-9.1-1.3-11.6-4-2.6-2.7-3.7-6.5-3.3-11.5.3-4.5 1.5-8.5 3.5-12.1s4.5-6.4 7.6-8.3 6.4-2.9 10.1-2.9 7.4 1.1 9.6 3.2c2.2 2.2 3.2 5.1 3 8.9-.2 2.5-.9 5.7-2.2 9.4h-22.1c0 .5-.2 1.3-.3 2.4-.4 5.3 2.4 7.9 8.2 7.9s3.4-.2 5.4-.6 3.8-1 5.7-1.8l-1.8 6.8h-.3zm-6.4-29.6c-2 0-3.9.8-5.5 2.4s-2.9 3.9-3.9 6.9h13.9c.4-1.2.6-2.4.7-3.6 0-1.9-.2-3.3-1.1-4.2s-2.3-1.4-4.1-1.4z" fill="#013d5b"/><path d="m643.9 735 9.5-36 7.6-.8v3.3c3.6-2.7 7.1-4.1 10.5-4.1s2.4.2 3.5.5l-2 7.7c-1.3-.3-2.5-.4-3.5-.4-3.3 0-6.3.9-9 2.6l-7.2 27.1h-9.4z" fill="#013d5b"/><path d="m692.6 735.2v-2.3c-3.9 2.1-7.5 3.2-10.8 3.2s-5.8-1-7.7-2.8c-1.8-1.9-2.7-4.4-2.4-7.6.2-2.5 1-4.7 2.5-6.7 1.5-1.9 3.4-3.4 5.7-4.5 2.3-1 4.9-1.6 7.7-1.6s6.1.4 9 1.2l.8-2.9c.2-.8.3-1.4.3-1.9.2-3.3-2.2-5-7.4-5s-7.7.7-11.4 2.1l1.8-6.8c4-1.6 8.2-2.4 12.4-2.4s8.1 1 10.5 2.9 3.5 4.6 3.2 8.1c0 1.1-.3 2.3-.7 3.7l-5.9 22.4-7.6.8zm-6.4-5.8c1 0 2.2-.2 3.4-.5s2.3-.8 3.4-1.4l2.1-8.1c-2.1-.5-4.1-.7-6.1-.7s-4.1.5-5.5 1.6-2.2 2.6-2.3 4.5c0 1.5.3 2.7 1.1 3.5s2.2 1.2 3.9 1.2z" fill="#013d5b"/><path d="m735.3 733.5c-3.6 1.8-7.3 2.6-11 2.6s-8.4-1.3-10.7-3.9-3.3-6.4-3-11.3c.3-4.7 1.5-8.8 3.5-12.4s4.5-6.4 7.7-8.3 6.6-2.9 10.4-2.9 7.4 1 10.7 3l-1.7 6.8c-2.9-1.6-5.7-2.4-8.5-2.4s-4.3.7-6.1 2.1-3.2 3.3-4.3 5.7-1.7 5-1.9 7.9.2 5.1 1.3 6.4 2.9 2 5.5 2 6.5-.7 9.9-2.1z" fill="#013d5b"/><path d="m736.3 743.4c3.6-.4 6.4-1.3 8.5-2.5s4-3.1 5.6-5.6l-3.7-37h9.4l.8 28 15.6-28h9.3l-22.3 36.6c-3.1 5.1-6.3 8.9-9.7 11.5s-7.4 4.2-11.9 4.9l-1.6-8z" fill="#013d5b"/></svg>