<?xml version="1.0" encoding="UTF-8"?>
<svg id="Layer_1" data-name="Layer 1" xmlns="http://www.w3.org/2000/svg" version="1.1" viewBox="0 0 1404.2 485.2">
  <defs>
    <style>
      .cls-1 {
        fill: #fbfcfc;
      }

      .cls-1, .cls-2, .cls-3, .cls-4, .cls-5, .cls-6, .cls-7, .cls-8, .cls-9, .cls-10, .cls-11, .cls-12, .cls-13, .cls-14, .cls-15, .cls-16 {
        stroke-width: 0px;
      }

      .cls-2 {
        fill: #fdfdfd;
      }

      .cls-3 {
        fill: #fbfbfc;
      }

      .cls-4 {
        fill: #122c4e;
      }

      .cls-5 {
        fill: #122d4f;
      }

      .cls-6 {
        fill: #322f2f;
      }

      .cls-7 {
        fill: #132e50;
      }

      .cls-8 {
        fill: #132c4f;
      }

      .cls-9 {
        fill: #013d5b;
      }

      .cls-10 {
        fill: #c6922d;
      }

      .cls-11 {
        fill: #112b4e;
      }

      .cls-12 {
        fill: #f9fafb;
      }

      .cls-13 {
        fill: #142f51;
      }

      .cls-14 {
        fill: #0b7898;
      }

      .cls-15 {
        fill: #fefefe;
      }

      .cls-16 {
        fill: #163052;
      }
    </style>
  </defs>
  <g>
    <path class="cls-15" d="M392.5,376h-.3c-.9-2.7-1.9-5.4-2.7-8.1-.5-1.7-1.8-.9-2.7-.9s-.7.9-.7,1.5v9.3c0,.7-.2,1.3.9,1.3s1-.7,1-1.4v-7.4c.8.4.8,1,1,1.5.7,2.1,1.4,4.1,2,6.2.2.7.4,1,1.3,1s1.2-.3,1.4-1.1c.5-1.7,1-3.4,1.6-5.1.3-.8.3-1.9,1.3-2.7v7.4c0,.7-.2,1.3.9,1.4,1.2,0,1.1-.7,1.1-1.4v-9.2c0-.6.5-1.6-.8-1.7-1.1,0-2.3-.5-2.7,1.3-.7,2.6-1.6,5.2-2.4,7.8h-.3v.3ZM379.5,366.9h-4.2c-.8,0-.9.4-.9,1s.3.8.9.8h1.7c1.2-.2,1.6.3,1.5,1.5v7.9c0,.8.3,1,1.1,1.1.8,0,1.1-.3,1.1-1.1v-5.9c0-3.2,0-3.3,3.1-3.5.7,0,1-.2.9-.9,0-.7-.3-1-1-.9h-4.2Z"/>
    <path class="cls-14" d="M419.4,250.8c-.8,1.7-.5,3.5-.7,5.3-6.1,75.1-57.2,139.7-129,163-23.3,7.6-47.3,10.5-71.8,8.8-77.7-5.5-144.6-59.2-166.7-133.8-6.5-21.9-9.1-44.3-7.2-67.1,4.4-53.9,27.6-98.1,69.3-132.6,23.5-19.4,50.5-31.9,80.3-38,18.9-3.9,37.9-4.8,57.1-2.8,40.7,4.3,76.3,20.1,106.6,47.5,29.7,26.9,48.9,60,57.6,99.2,2.1,9.6,3.5,19.4,4,29.2,0,.4-.2.8.3,1.2v20.2h.2ZM52.8,240.6c0,98.6,80,178.7,178.6,178.7s178.7-79.9,178.8-178.6c0-98.7-80-178.9-178.7-178.8-98.6,0-178.7,80-178.7,178.7h0Z"/>
    <path class="cls-6" d="M392.5,376c.8-2.6,1.8-5.2,2.4-7.8.4-1.7,1.7-1.3,2.7-1.3s.8,1,.8,1.7v9.2c0,.8,0,1.4-1.1,1.4s-.9-.8-.9-1.4v-7.4c-.9.8-.9,1.9-1.3,2.7-.6,1.7-1.1,3.4-1.6,5.1-.3.8-.5,1.1-1.4,1.1s-1-.4-1.3-1c-.7-2.1-1.3-4.2-2-6.2-.2-.5-.2-1.1-1-1.5v7.4c0,.8.2,1.4-1,1.4s-.9-.8-.9-1.3v-9.3c0-.6-.4-1.6.7-1.5.9,0,2.2-.7,2.7.9.8,2.7,1.8,5.4,2.7,8.1h.6v-.3Z"/>
    <path class="cls-6" d="M379.5,366.9h4.2c.8,0,.9.3,1,.9,0,.8-.3.9-.9.9-2.1.2-3.1,1.4-3.1,3.5v5.9c0,.8-.3,1.1-1.1,1.1s-1.1-.3-1.1-1.1v-7.9c0-1.2-.3-1.7-1.5-1.5h-1.7c-.6,0-.9-.2-.9-.8s.2-1.1.9-1h4.2Z"/>
    <path class="cls-12" d="M52.8,240.6c0-98.6,80-178.6,178.7-178.7,98.7,0,178.8,80.1,178.7,178.8,0,98.7-80.1,178.6-178.8,178.6S52.8,339.3,52.8,240.6h0ZM56.9,241c0,96.4,77.9,174.6,174.4,174.7,96.3.2,174.5-77.9,174.7-174.4.3-96.3-77.9-174.6-174.5-174.8-96.1-.3-174.5,78.1-174.7,174.6h0Z"/>
    <path class="cls-11" d="M56.9,241c0-96.4,78.4-174.7,174.7-174.6,96.6.3,174.7,78.5,174.5,174.8-.3,96.5-78.4,174.6-174.7,174.4-96.5-.2-174.5-78.4-174.4-174.7h0ZM213.4,104.3c-.4-.5-.8-1-1.3-1.4-5-4.7-10.3-9.1-14.9-14.1-3.2-3.5-6.3-4.3-10.6-2.9-1.2.4-1.4.7-1.2,1.9,1.8,9.1,3.5,18.3,5.3,27.4.4,1.9,0,4.8,1.4,5.6s3.8-.5,5.8-.8c1.3-.2,1.6-.7,1.3-1.9-.8-4-1.6-8.2-2.4-12.2-.6-2.9-1.1-5.8-1.7-9.1.8.8,1.3,1.2,1.7,1.6,6.1,5.6,12.2,11.4,18.3,17,.6.6,1.2,1.3,2.2,1,1.9-.4,3.7-.8,5.6-1.1.7-.2,1.1-.3.9-1.2-2.1-10.9-4.2-21.7-6.2-32.6-.2-.8-.5-1.3-1.4-1-1.8.4-3.6.8-5.4,1-1,.2-1.1.5-.9,1.4,1.2,5.7,2.3,11.5,3.3,17.3.3,1.4,1,2.8.4,4.3h0l-.2-.2ZM231.6,128.5c-62.3,0-112.7,50.3-112.8,112.6,0,62.3,50.2,112.7,112.5,112.9,62.3.2,112.9-50.3,112.9-112.7s-50.3-112.7-112.6-112.8h0ZM105.3,219.3c-10.4,2.7-20.5,5.3-30.6,8-5,1.3-4.9,1.3-4.7,6.4,0,.8.3,1.3,1.2,1.5,2.8.8,5.6,1.7,8.4,2.5,4,1.3,8.2,2.5,12.5,3.9-.8.3-1.3.6-1.9.8-5.7,1.9-11.4,4-17.1,5.9-1.9.6-2.8,1.9-2.8,4s1.1,3.5,3.2,4c10.3,2.4,20.6,4.6,30.9,7,1.3.3,1.6,0,1.5-1.3,0-1.7-.2-3.3,0-5,0-1.1-.4-1.5-1.4-1.7-2.4-.5-4.8-1-7.2-1.5-3.9-.8-7.8-1.7-12.1-2.7,6.6-2.3,12.8-4.4,18.9-6.5,1.1-.3,1.5-.8,1.5-2q0-4-3.9-5.2c-.3,0-.5-.2-.7-.2-5.3-1.6-10.5-3.2-16.2-5,.9-.3,1.5-.4,2.1-.6,5.6-1.4,11.4-2.9,17-4.3.9-.3,1.3-.6,1.3-1.6v-6.6.2h.1ZM257,105.2c-.8-.3-.9-1-1.2-1.4-3.3-5.9-6.8-11.6-9.7-17.7-2-4.2-4.5-6.7-9.4-6.5-1.3,0-1.6.3-1.7,1.4-1.3,10.2-2.5,20.4-3.9,30.6-.2,1.9.7,3.1,2.7,3.4,4.9.7,4.8.7,5.4-4.2.7-6,1.5-12,2.3-18.3.5.8.8,1.3,1.1,1.9,3.4,6.1,7,11.9,9.9,18.1,1.9,4.2,4.6,6.1,9.2,6,1.2,0,1.6,0,1.8-1.4,1.1-9.1,2.3-18.2,3.4-27.3.3-2,1.5-4.7.3-6s-4-.8-6.1-1.1h-.2c-.9-.3-1.1.2-1.2,1-.3,2.9-.7,5.7-1.1,8.6-.5,4.3-1.1,8.6-1.6,12.9h0ZM381.3,302.9c-5.1.6-9.8,1.2-14.5,1.9-1.6.3-2.9.3-2.6-1.9,0-.6-.2-1.2-.3-1.8-1.4-4.5-4.5-7.3-9.3-8-5.1-.7-8.8,1.3-11.4,5.6-3.1,5.2-6,10.6-9.1,15.9-.6,1-.2,1.3.6,1.7,9.5,5.3,18.9,10.6,28.4,16,.9.5,1.4.6,1.9-.5.8-1.6,1.7-3.1,2.6-4.6.5-.8.4-1.3-.5-1.9-2.9-1.6-5.8-3.3-8.8-4.9-.8-.5-1.2-.8-.6-1.8.9-1.3,1.7-2.9,2.4-4.3.4-.8.9-1.1,1.9-1.2,4.3-.4,8.6-1,13-1.5.6,0,1.3,0,1.7-.6,1.5-2.6,3-5.3,4.6-8.2h0ZM110.6,349c.3-.6.4-.9.5-1.3,1.5-4.5,3-9,4.5-13.6.3-.8.5-1.3,1.6-.8,5,2,9.9.8,13.2-3.2,3.1-3.9,3.5-9.1.5-13.5-3.5-5.1-7.1-10.1-10.6-15.2-.6-.8-1-.8-1.7-.3-8.9,6.4-17.9,12.7-26.9,19-.8.6-.8,1-.3,1.7,1.1,1.4,2.2,2.9,3.2,4.5.6,1,1.1.8,1.9.3,1.4-1.1,2.9-2.1,4.3-3.1,1.6-1.1,3.4-3.2,4.8-3,1.6.3,2.4,2.9,3.6,4.5.7.8.7,1.5.3,2.5-1.4,4-2.8,8.1-4.1,12.1-.3.7-.6,1.3,0,2,1.7,2.4,3.4,4.8,5.1,7.3h0ZM246.7,401.9c-3-4.4-6-8.5-8.8-12.6-.7-.9-.8-1.3.4-2,4.4-2.5,6.3-7.3,5.1-12.2s-5.3-8.4-10.4-8.6c-6.1-.3-12.4-.3-18.5-.4-1,0-1.3.2-1.3,1.3-.2,10.9-.5,21.9-.8,32.8,0,.9.2,1.3,1.2,1.3,1.8,0,3.5,0,5.3.2,1.2,0,1.4-.3,1.4-1.4,0-3.3.3-6.6.2-9.9,0-1.2.3-1.4,1.4-1.3,1.4,0,2.9.2,4.4,0,1.2,0,1.9.3,2.5,1.3,2.4,3.5,4.9,7.1,7.2,10.5.4.6.8,1.2,1.7,1.2h8.9v-.2ZM167.6,386.2c10,0,17.1-6.1,17.8-15.2.5-5.8-2.1-10.4-6.1-14.3-4.2-4.2-9.7-6.2-14.8-8.8-.8-.4-.9.2-1.2.7-4.8,9.9-9.7,19.9-14.6,29.7-.5.9-.2,1.3.7,1.6,2.8,1.3,5.5,2.7,8.2,4,3.4,1.5,6.9,2.3,9.9,2.4h.1ZM387.9,274.6c0-1,0-2.7-.4-4.4-1.8-9.3-9.3-15.1-18.5-13.8-6.2.8-10.3,4.8-13.2,10-2.7,4.6-3.5,9.8-4.7,15-.3,1.3,0,1.6,1.1,1.8,3.5.8,7.2,1.6,10.7,2.4,7,1.6,13.9,3.3,20.9,4.8.5,0,1.3.8,1.7-.5,1-4.8,2.6-9.6,2.5-15.2h-.1ZM312.6,343.9c0,10,8.3,18.3,18.3,18.3s17.8-8.1,17.9-18c0-10.1-8.2-18.3-18.3-18.3s-18,8-17.9,17.9h0ZM95.4,267.7c-9.9,0-17.9,7.9-18,17.9,0,10,8,18.1,18,18.1s18-8,18-17.9-7.9-18-18-18.1ZM262,376.7c-.8.3-.8-.3-1-1-.3-1.3-.6-2.8-1-4s0-1.5,1.2-1.9c3.6-.8,7.2-1.8,10.9-2.7,1.7-.4,4.2-.3,4.8-1.6.6-1.3-.7-3.3-.9-5.1-.3-1.2-.8-1.3-1.8-1-7.5,1.9-15,3.9-22.6,5.6-1,.3-1.2.6-.9,1.6,2.7,10.6,5.3,21.1,7.9,31.7.3,1.1.7,1.3,1.7.9,6.2-1.6,12.5-3.2,18.8-4.7,1.7-.4,4-.3,4.7-1.5.6-1.2-.6-3.2-.9-4.9-.3-1.2-.6-1.6-1.9-1.2-4.8,1.3-9.6,2.4-14.3,3.6-1.2.3-1.8.3-2-1.2-.3-1.7-.8-3.4-1.3-5-.3-1,0-1.3,1-1.6,3.4-.8,6.7-1.7,10.1-2.5,1.6-.4,3.8-.4,4.5-1.4.9-1.2-.6-3.1-.8-4.8-.2-1.5-.8-1.6-2.2-1.3-4.6,1.3-9.3,2.4-14,3.5v.5ZM301.4,111.8c.2-.8-.5-.8-.8-1-3.2-1.4-6.4-2.8-9.5-4.2-1.6-.8-4.1-.9-4.5-2.4-.4-1.3,1.2-3.2,1.8-4.8.3-1,.8-1.3,1.9-.8,3.4,1.6,6.8,3,10.2,4.5,1.6.7,3.5,2.2,4.8,1.8,1.4-.5,1.6-3.1,2.4-4.7.5-.9.3-1.3-.7-1.8-7.2-3-14.2-6.1-21.3-9.3-1.1-.5-1.5-.3-1.9.8-4.3,9.9-8.6,19.8-13,29.7-.4,1-.4,1.5.8,1.9,5.9,2.5,11.8,5.1,17.6,7.7,1.6.7,3.5,2.2,4.6,1.8,1.4-.5,1.5-3,2.4-4.5.7-1.2.3-1.6-.9-2.1-4.5-1.9-8.9-4-13.5-5.8-1.4-.6-1.5-1.2-.9-2.4.7-1.3,1.3-2.8,1.9-4.2.4-1.2.8-1.4,2.1-.8,4.2,1.9,8.5,3.8,12.7,5.6.5.2,1.2,1,1.6,0,.8-1.8,1.6-3.5,2.4-5.3v.3h-.2ZM164.5,127.6c0-3.1-.8-6-2.6-8.4-4-5.5-7.9-10.9-11.9-16.2-.6-.8-1-.8-1.8-.2-1.3,1-2.6,2-4,2.9-1.2.8-1.3,1.3-.4,2.5,3.9,5.1,7.6,10.2,11.3,15.3,2.4,3.5,2.4,7.1-.2,9.9-3.8,4.2-9.3,4-12.7-.7-3.8-5.1-7.6-10.2-11.3-15.3-.8-1.1-1.3-1.1-2.2-.3-1.3,1.1-2.7,2.1-4.1,3-.9.6-.8,1-.3,1.9,3.9,5.2,7.7,10.4,11.5,15.6,4.2,5.6,10.7,7.5,17.1,5.3,6.8-2.3,11.4-8.5,11.4-15.2h.2ZM322.1,110.3c-5.9,0-10.5,5.7-9.3,10.9.4,1.6,1,3.1,1.9,4.5,1.9,3.2,3.8,6.4,5.6,9.7.8,1.3,1.4,2.7.2,4-1.3,1.4-2.9,1-4.4.3-1.3-.6-2.4-1.3-3.4-2.2-2.3-1.8-4.2-4-6-6.1-.9-1.2-1.6-3.4-2.8-3.4s-2.5,1.7-3.9,2.5c-1,.6-1,1.2-.4,2,2.8,4.3,6.1,8.2,10.2,11.2,2.1,1.5,4.4,2.7,6.9,3.3,4,.9,7.6.2,10.4-3.2,2.8-3.4,2.5-6.8.6-10.4-1-1.9-2-3.6-3.1-5.4-1.2-2-2.3-4-3.4-6.1-.7-1.3-1.1-2.7.3-3.9,1.3-1.1,2.5-.4,3.7.3,3,1.8,5.5,4.2,8,6.6,1.1,1.1,1.9,3.5,3.4,3.2,1.4-.3,2.6-2.1,4-3.1.8-.6.6-1,0-1.7-3.5-4.3-7.2-8.2-12-11-2.2-1.3-4.5-2.3-6.5-2.4h-.2l.2.4ZM342.9,174.1c6.6,0,10.6-5.2,9.2-11.6-1-4.3-2.2-8.5-3.2-12.8s-.4-2.9,1.2-3.7,2.7.3,3.6,1.3c2.4,2.5,4.1,5.4,5.9,8.3.8,1.3.9,3.8,2.4,4,1.4.2,3-1.3,4.6-2h.2c.6-.3.8-.6.5-1.3-2.7-6.1-5.8-11.9-11.1-16.1-3-2.4-6.4-3.2-10-1.1-3.8,2.1-5.6,5.2-4.9,9.6.2,1.2.3,2.3.6,3.5.9,3.5,1.9,6.8,2.8,10.3.4,1.4.7,2.9-1,3.9-1.6.9-2.9.2-4.2-.8-.8-.7-1.5-1.4-2.1-2.3-2-2.5-3.5-5.4-4.9-8.3-.6-1.3-.6-3.5-1.9-3.9-1.2-.3-2.8.9-4.2,1.4-.2,0-.3.2-.5.2-.7.3-.8.6-.6,1.3,2.2,6.9,5.3,13.3,11.3,17.8s4.4,2.4,6.5,2.5h0l-.2-.2ZM356.6,232.1c0,5,.2,8.4,1.5,11.7s3.7,5.3,7.2,5.6c3.9.3,7-.8,9-4.4,1.1-1.9,1.9-3.9,2.5-5.9,1-2.9,2-5.9,3.1-8.8.4-1.2,1.2-1.9,2.6-1.9s2.1.8,2.7,1.9c.4.8.6,1.7.8,2.6.6,3.8,0,7.4-.6,11.1-.3,1.5-1.6,3.4-.6,4.4s2.9.8,4.5,1.3c.9.3,1.3,0,1.6-.9,1.6-5,2.4-10.1,1.9-15.3-.3-3.8-1.4-7.2-4-10.2-3.4-3.9-12.2-4.5-14.9,2.4-1.3,3.4-2.5,6.7-3.7,10.1-.6,1.5-1,3-1.9,4.4-.6.9-1.4,1.3-2.5,1.2-1,0-1.5-.8-1.8-1.6-.3-.6-.3-1.3-.4-1.9-.6-4-.3-7.9.3-11.9.3-1.7-.4-2.8-2.1-3.1-.9-.2-1.9-.3-2.7-.5-.9-.3-1.3,0-1.4,1-.7,3.4-1.1,6.7-1.1,8.8h0ZM100.5,154c.2,6.6,3.5,12,9.8,15.3,6.2,3.3,12.4,2.8,18.2-1.1,5.6-3.7,8.6-9.3,11.4-15.2.3-.8,0-1.1-.5-1.4-4-2.9-7.9-6-11.9-9-.8-.6-1.2-.6-1.8.2-.9,1.3-1.9,2.7-2.9,4-.7.8-.7,1.2.3,1.9,2.4,1.8,4.8,3.6,7.2,5.4.5.4.9.7.4,1.4-1.3,2.2-2.7,4.4-4.7,6-3.9,3.2-8.8,3.2-13.2,0-4.5-3.4-6-7.6-4.1-12.5,1.1-2.8,2.9-5.1,4.8-7.3,1-1.3,3.3-2.3,3-3.8-.3-1.4-2.2-2.5-3.4-3.8v-.2c-.5-.8-.9-.6-1.6,0-1.7,1.6-3.4,3.2-4.8,5.1-3.5,4.2-5.9,8.8-6,15v.2l-.2-.2ZM283.9,365c0,9.9,7,17.6,16.2,18.4,7.4.7,13.3-2.6,18.7-7.4,1.1-.9,1.6-1.7.2-2.9-.8-.7-1.5-1.4-2.1-2.3-.8-1-1.3-1.2-2.4-.2-2.6,2.4-5.6,4.1-9,5.1-5.1,1.4-9.7-.5-12.3-5.1-2.7-4.8-2-9.6,1.9-13.3,1.9-1.8,4.1-2.9,6.5-4,1.4-.7,3.9-.4,4.3-1.9s-.7-3.3-1-5c-.3-1.2-.8-1.3-1.8-1-4.5,1.1-8.6,2.9-12.1,5.8-4.5,3.7-7,8.3-7.1,13.6h0v.2ZM138.7,373.1c.3-.3.5-.6.8-.8.9-1.1,1.8-2.2,2.7-3.2.8-.8.8-1.3-.2-2.1-3.5-2.9-7-6-10.5-8.8-1.3-1-1.2-1.5-.2-2.6,5.5-6.3,10.8-12.8,16.2-19.2.8-1,.8-1.5-.2-2.3-1.3-1-2.7-2.2-4-3.3-.7-.6-1-.8-1.7,0-7.1,8.5-14.2,16.9-21.3,25.3-.6.7-.5,1,.2,1.6,5.8,4.9,11.6,9.8,17.4,14.6.3.3.6.4.9.8h-.2.1ZM177.6,127.7c.3,0,.4,0,.6-.2,1.9-.8,3.8-1.7,5.7-2.5.9-.4.5-.9.3-1.4-4.5-10.1-8.9-20.1-13.3-30.2-.3-.8-.6-1.1-1.4-.7-1.8.8-3.5,1.6-5.3,2.4-.8.3-.8.8-.5,1.5,4.5,10.1,8.9,20.1,13.4,30.2.2.3.3.8.7.8h-.2Z"/>
    <path class="cls-2" d="M231.6,128.5c62.3,0,112.7,50.5,112.6,112.8,0,62.4-50.6,112.9-112.9,112.7-62.4-.2-112.6-50.6-112.5-112.9,0-62.4,50.5-112.6,112.8-112.6h0ZM207.1,222.6c0,.3-.2.8.3.9.6.3,1.1-.2,1.5-.4,6.6-4,13.4-7.9,19.9-11.9,1.9-1.1,3.5-1.2,5.3,0,6.6,4,13.2,7.9,19.9,11.8.5.3,1.1,1,1.8.5.6-.5,0-1.2,0-1.7-1.7-7.7-3.5-15.5-5.2-23.2-.3-1.6,0-2.8,1.2-3.8,1.5-1.3,3.1-2.8,4.7-4.1,4.5-4,9-7.9,13.5-11.9.4-.3,1-.7.8-1.3-.2-.5-.8-.4-1.3-.5-7.7-.8-15.3-1.5-23-2.1-2.4-.2-3.8-1-4.7-3.2-2.9-7-6-13.9-9-20.9-.3-.6-.3-1.7-1.2-1.6-.8,0-.9,1.1-1.2,1.7-3,7-6.1,14-9.1,21-.8,1.8-1.9,2.8-3.8,2.9-7.9.7-15.8,1.4-23.7,2.2-.5,0-1.2,0-1.4.6-.2.6.4.8.8,1.2s.8.7,1.1,1c5.6,4.9,11.2,9.8,16.8,14.7,1.3,1.2,1.9,2.4,1.5,4.2-.5,1.9-.9,4-1.3,5.9-1.3,6-2.7,12-4,18h-.2ZM231.8,235.3h-63.6c-1.5,0-2.1.3-1.7,1.9.8,3.3,1.5,6.6,2.1,10,.3,1.9,1.2,2.5,3.1,2.5h92.6c30.8,0,18.4,0,27.7,0s2.2-.3,2.4-1.9c.6-3.5,1.4-6.8,2.1-10.2.3-1.6-.3-2.4-1.9-2.4h-62.9,0ZM231.4,259.9h51.2c4.7,0,3.8.5,4.9-3.7.7-2.5.6-2.5-1.9-2.5h-106.6c-35.5,0-4,0-3.1,4,.4,1.9,1.3,2.4,3.1,2.4h52.4v-.2ZM235.4,300v-32.7c0-1.6-.5-2.3-2.1-2.1h-4.2c-1.5,0-1.9.6-1.9,2v65.5c0,1.3.3,2,1.9,2h4c1.8.2,2.3-.6,2.3-2.4v-32.5h0v.2ZM245.9,299.9v31.6c0,2.2,0,2.3,2.3,1.9,1.2-.3,2.3-.6,3.5-.7,1.8-.2,2.4-.9,2.4-2.8v-56.7c0-18.9,0-5.3-5.1-6.4-.3,0-.6,0-.9-.2-1.6-.5-2.1,0-2.1,1.8v31.6h0ZM216.8,300v-31.6c0-1.5-.3-2.1-2-1.7-1.4.4-2.9.7-4.5.9-1.2.2-1.7.7-1.7,1.9v60.7c0,1.3.5,1.8,1.7,1.9,1.4.3,2.9.6,4.3.8,1.4.3,2.1-.3,2.1-1.8v-31.4h0v.3ZM263.2,300v27.5c0,1.3.3,1.9,1.7,1.2,1.6-.8,3.3-1.5,5-2.3,1-.4,1.4-1.1,1.4-2.3v-48.4c0-1.2-.4-1.8-1.5-2.2-1.6-.7-3.1-1.4-4.7-2.1q-1.9-.8-1.9,1.2v27.4h0ZM200,300.1v-27.4c0-1.4-.3-1.9-1.8-1.2-1.6.8-3.3,1.6-5,2.4-.9.4-1.4,1-1.4,2.1v47.8c0,1,.3,1.6,1.3,2,1.6.8,3.2,1.5,4.8,2.3,1.9.9,2,.8,2-1.3v-26.8h.1Z"/>
    <path class="cls-3" d="M105.3,219.3v6.6c0,1-.3,1.3-1.3,1.6-5.7,1.3-11.4,2.9-17,4.3-.6.2-1.2.3-2.1.6,5.6,1.7,10.9,3.4,16.2,5,.3,0,.5.2.7.2,3.9,1.2,3.8,1.2,3.9,5.2,0,1.3-.5,1.6-1.5,2-6.1,2.1-12.4,4.2-18.9,6.5,4.3.9,8.2,1.8,12.1,2.7,2.4.5,4.8,1.1,7.2,1.5,1,.2,1.4.6,1.4,1.7v5c0,1.3-.2,1.5-1.5,1.3-10.3-2.4-20.5-4.6-30.9-7-2.1-.5-3.2-1.9-3.2-4s.9-3.3,2.8-4c5.7-1.9,11.4-4,17.1-5.9.5-.2,1-.4,1.9-.8-4.4-1.3-8.5-2.6-12.5-3.9-2.8-.8-5.6-1.8-8.4-2.5-.8-.3-1.1-.7-1.2-1.5-.2-3.4,1.4-5.5,4.7-6.4,10.1-2.6,20.2-5.2,30.6-8v-.2h-.1Z"/>
    <path class="cls-1" d="M257,105.2c.6-4.4,1.1-8.6,1.6-12.9.3-2.9.8-5.7,1.1-8.6,0-.8.3-1.3,1.2-1h.2c2.1.3,4.9-.3,6.1,1.1,1.2,1.3-.2,4-.3,6-1.1,9.1-2.3,18.2-3.4,27.3-.2,1.3-.6,1.3-1.8,1.4-4.5.2-7.2-1.8-9.2-6-2.9-6.2-6.6-12.1-9.9-18.1-.3-.5-.6-1-1.1-1.9-.8,6.3-1.6,12.3-2.3,18.3-.6,4.9-.5,4.9-5.4,4.2-2-.3-2.9-1.4-2.7-3.4,1.3-10.2,2.6-20.4,3.9-30.6.2-1.2.4-1.4,1.7-1.4,4.9-.3,7.4,2.3,9.4,6.5,2.9,6.1,6.4,11.8,9.7,17.7.3.5.3,1.2,1.2,1.4h0Z"/>
    <path class="cls-3" d="M213.4,104.3c.6-1.5-.2-2.9-.4-4.3-1-5.8-2.1-11.5-3.3-17.3-.2-.9,0-1.3.9-1.4,1.8-.3,3.6-.6,5.4-1,1-.3,1.3.2,1.4,1,2,10.9,4.1,21.7,6.2,32.6.2.8-.2,1.1-.9,1.2-1.9.3-3.7.7-5.6,1.1-1,.3-1.6-.4-2.2-1-6.1-5.6-12.2-11.4-18.3-17-.4-.4-.8-.8-1.7-1.6.6,3.4,1.2,6.2,1.7,9.1.8,4,1.5,8.2,2.4,12.2.3,1.3,0,1.8-1.3,1.9-2,.3-4.4,1.5-5.8.8-1.4-.8-1.1-3.6-1.4-5.6-1.8-9.1-3.5-18.2-5.3-27.4-.3-1.1,0-1.4,1.2-1.9,4.2-1.4,7.4-.6,10.6,2.9,4.6,5.1,9.9,9.4,14.9,14.1.5.4.9,1,1.3,1.4h0c.1,0,.1,0,0-.2-.2-.2-.2.2-.3.2h.2l.3.2Z"/>
    <path class="cls-3" d="M381.3,302.9c-1.7,2.9-3.1,5.6-4.6,8.2-.3.6-1.1.5-1.7.6-4.3.5-8.6,1.1-13,1.5-.9,0-1.4.4-1.9,1.2-.8,1.4-1.5,2.9-2.4,4.3-.6.9-.3,1.3.6,1.8,2.9,1.6,5.8,3.3,8.8,4.9.9.5,1,.9.5,1.9-.9,1.5-1.9,3-2.6,4.6-.5,1.1-1,1-1.9.5-9.4-5.4-18.9-10.7-28.4-16-.8-.4-1.2-.7-.6-1.7,3-5.3,6-10.7,9.1-15.9,2.5-4.3,6.4-6.3,11.4-5.6,4.7.7,7.8,3.4,9.3,8,.2.6.3,1.2.3,1.8-.3,2.3,1,2.2,2.6,1.9,4.7-.7,9.4-1.2,14.5-1.9h0ZM357.1,306c0-2.4-1.3-4.3-3.7-5-2-.7-4.2,0-5.4,2-1.6,2.6-3,5.3-4.5,7.9-.5.9,0,1.1.6,1.5,2.2,1.2,4.4,2.4,6.5,3.7,1,.6,1.4.3,1.9-.6,1.3-2.4,2.5-4.5,3.8-6.9.5-.8.8-1.8.8-2.6h0Z"/>
    <path class="cls-3" d="M110.6,349c-1.8-2.5-3.5-5-5.1-7.3-.5-.8-.3-1.3,0-2,1.3-4,2.7-8.1,4.1-12.1.3-.9.3-1.7-.3-2.5-1.3-1.5-2-4.3-3.6-4.5-1.4-.2-3.2,1.9-4.8,3-1.4,1-2.9,2-4.3,3.1-.8.6-1.3.8-1.9-.3-1-1.5-2-3-3.2-4.5-.5-.8-.6-1.1.3-1.7,9-6.3,17.9-12.6,26.9-19,.8-.5,1.2-.6,1.7.3,3.5,5.1,7.2,10,10.6,15.2,2.9,4.4,2.6,9.6-.5,13.5-3.3,4-8.2,5.3-13.2,3.2-1.1-.5-1.3,0-1.6.8-1.5,4.5-3,9-4.5,13.6-.2.4-.3.8-.5,1.3h0ZM120.4,326.5c2,0,3.5-.8,4.5-2.5.9-1.7.9-3.5-.2-5.1-1.7-2.4-3.5-4.9-5.1-7.4-.4-.7-.8-.8-1.4-.3-2.1,1.5-4.3,3-6.5,4.5-.7.5-.8.8-.3,1.6,1.7,2.3,3.3,4.7,5,7,.9,1.3,2.3,2,3.9,2h0v.2Z"/>
    <path class="cls-1" d="M246.7,401.9h-8.8c-.9,0-1.3-.5-1.7-1.2-2.4-3.5-4.9-7-7.2-10.5-.7-1-1.3-1.4-2.5-1.3h-4.4c-1.1,0-1.4.2-1.4,1.3,0,3.3-.2,6.6-.2,9.9s-.3,1.5-1.4,1.4c-1.8-.2-3.5-.2-5.3-.2s-1.2-.3-1.2-1.3c.3-10.9.5-21.9.8-32.8,0-1.1.3-1.3,1.3-1.3,6.1.2,12.4.3,18.5.4,5.1.2,9.2,3.7,10.4,8.6,1.2,4.9-.8,9.7-5.1,12.2-1.2.7-1.1,1.1-.4,2,2.9,4.1,5.8,8.2,8.8,12.6h0l-.2.2ZM226.1,382.6v.3h3.7c3.4,0,5.6-1.9,5.7-4.9.2-2.9-1.9-5.1-5.4-5.2-2.7,0-5.4,0-8.1-.2-1,0-1.3.3-1.3,1.3,0,2.5,0,5.1-.2,7.5,0,.9.2,1.3,1.2,1.3h4.4Z"/>
    <path class="cls-3" d="M167.6,386.2c-2.9,0-6.6-.8-9.9-2.4-2.8-1.3-5.5-2.6-8.2-4-.8-.3-1.1-.7-.7-1.6,4.9-9.9,9.7-19.9,14.6-29.7.3-.5.3-1.1,1.2-.7,5.1,2.6,10.6,4.7,14.8,8.8,4,4,6.6,8.6,6.1,14.3-.8,9.1-7.8,15.2-17.8,15.2h-.1ZM177.6,368.6c0-.8,0-1.8-.4-2.7-1.5-4.2-4.9-6.4-8.7-8.2-.8-.4-.9.3-1.2.8-2.8,5.6-5.5,11.3-8.2,16.9-.4.8-.4,1.3.5,1.7,1.5.7,3,1.3,4.6,1.8,7.2,1.8,13.3-2.9,13.4-10.2h0Z"/>
    <path class="cls-1" d="M387.9,274.6c0,5.7-1.5,10.4-2.5,15.2-.3,1.3-1.1.7-1.7.5-7-1.6-13.9-3.2-20.9-4.8s-7.2-1.7-10.7-2.4c-1.1-.3-1.4-.5-1.1-1.8,1.3-5.1,2-10.3,4.7-15,2.9-5.2,7-9.2,13.2-10,9.2-1.2,16.8,4.5,18.5,13.8.3,1.7.5,3.4.4,4.4h.1ZM381,275.7c0-6.2-2.7-9.8-8.1-11.1-5.1-1.2-9.3.9-11.7,6.1-.8,1.5-1.1,3.1-1.6,4.6-.3.9,0,1.3,1,1.5,6.1,1.3,12.2,2.8,18.3,4.3,1,.3,1.3-.2,1.4-.9.3-1.6.7-3.2.6-4.5h.1Z"/>
    <path class="cls-1" d="M312.6,343.9c0-9.9,7.9-17.8,17.9-17.9,10.1,0,18.3,8.2,18.3,18.3s-8.1,18-17.9,18-18.3-8.3-18.3-18.3h0ZM331.8,355.1c6.6,0,11.5-7.1,9.2-13.3-1.4-3.6-4-6.3-7.6-7.8-5.8-2.5-12.8,1.7-13.6,8-.7,6.1,5.6,13.1,11.9,13.1h.1Z"/>
    <path class="cls-1" d="M95.4,267.7c10.1,0,18,8,18,18.1s-8.1,17.9-18,17.9-18-8.1-18-18.1,8.1-17.9,18-17.9ZM93.9,296c2.8,0,5.3-.8,7.7-2.3,4.2-2.6,5.8-6.9,4.3-11.5-1.5-4.7-5.2-7.2-10.3-6.8-2.7.3-5.1,1.1-7.3,2.6-3.7,2.6-5.1,6.6-3.7,10.9,1.3,4.5,4.8,7,9.4,7h0Z"/>
    <path class="cls-3" d="M262,376.7c4.8-1.2,9.4-2.4,14-3.5,1.3-.3,2-.3,2.2,1.3.2,1.7,1.7,3.6.8,4.8-.8,1-3,1-4.5,1.4-3.4.8-6.7,1.8-10.1,2.5-1,.3-1.3.5-1,1.6.5,1.6,1,3.3,1.3,5,.3,1.4.8,1.4,2,1.2,4.8-1.3,9.6-2.4,14.3-3.6,1.3-.3,1.7,0,1.9,1.2.3,1.7,1.5,3.7.9,4.9-.6,1.3-3,1.1-4.7,1.5-6.2,1.6-12.5,3.1-18.8,4.7-1.1.3-1.4.2-1.7-.9-2.6-10.6-5.2-21.2-7.9-31.7-.3-1,0-1.3.9-1.6,7.5-1.9,15-3.7,22.6-5.6,1-.3,1.5-.2,1.8,1,.3,1.8,1.5,3.8.9,5.1-.6,1.3-3.1,1.1-4.8,1.6-3.6.9-7.2,1.9-10.9,2.7-1.1.3-1.6.6-1.2,1.9s.7,2.7,1,4c.2.6.3,1.3,1,1v-.5Z"/>
    <path class="cls-3" d="M301.4,111.8c-.8,1.7-1.5,3.5-2.4,5.3-.4.8-1.1,0-1.6,0-4.3-1.9-8.5-3.6-12.7-5.6-1.3-.6-1.7-.3-2.1.8-.5,1.4-1.1,2.9-1.9,4.2-.7,1.3-.5,1.9.9,2.4,4.5,1.9,8.9,3.9,13.5,5.8,1.1.5,1.6.9.9,2.1-.9,1.5-.9,4-2.4,4.5-1.3.4-3.1-1.1-4.6-1.8-5.9-2.5-11.7-5.1-17.6-7.7-1.2-.5-1.2-.9-.8-1.9,4.4-9.8,8.7-19.8,13-29.7.4-1.1.8-1.3,1.9-.8,7.1,3.1,14.1,6.2,21.3,9.3,1,.4,1.2.8.7,1.8-.8,1.6-1,4.2-2.4,4.7-1.3.4-3.2-1.1-4.8-1.8-3.5-1.5-6.8-2.9-10.2-4.5-1-.5-1.4-.3-1.9.8-.6,1.7-2.1,3.5-1.8,4.8.4,1.4,2.9,1.6,4.5,2.4,3.2,1.4,6.4,2.8,9.5,4.2.3.2,1.1,0,.8,1v-.3h.2Z"/>
    <path class="cls-1" d="M164.5,127.6c0,6.7-4.6,13-11.4,15.2-6.4,2.2-12.9.3-17.1-5.3-4-5.1-7.7-10.4-11.5-15.6-.6-.8-.7-1.3.3-1.9,1.4-.9,2.9-1.9,4.1-3,.9-.8,1.4-.8,2.2.3,3.7,5.1,7.5,10.3,11.3,15.3,3.5,4.6,8.9,4.9,12.7.7,2.5-2.9,2.7-6.5.2-9.9-3.7-5.1-7.5-10.3-11.3-15.3-.9-1.2-.8-1.8.4-2.5,1.4-.8,2.7-1.9,4-2.9.8-.6,1.2-.6,1.8.2,4,5.5,7.9,10.9,11.9,16.2,1.8,2.5,2.6,5.4,2.6,8.4h-.2Z"/>
    <path class="cls-3" d="M322.1,110.3c2,0,4.3,1.1,6.5,2.4,4.7,2.9,8.5,6.7,12,11,.5.7.7,1.1,0,1.7-1.3,1.1-2.5,2.9-4,3.1-1.4.3-2.2-2.1-3.4-3.2-2.5-2.4-5-4.9-8-6.6-1.2-.7-2.4-1.4-3.7-.3-1.3,1.2-.9,2.5-.3,3.9,1.1,2,2.3,4,3.4,6.1,1,1.8,2.1,3.6,3.1,5.4,2,3.5,2.3,7-.6,10.4-2.8,3.4-6.3,4.1-10.4,3.2-2.5-.6-4.8-1.8-6.9-3.3-4.1-3-7.4-6.8-10.2-11.2-.6-.9-.6-1.4.4-2,1.3-.8,2.6-2.5,3.9-2.5s1.9,2.2,2.8,3.4c1.9,2.2,3.8,4.4,6,6.1,1.1.8,2.1,1.6,3.4,2.2,1.5.7,3,1.1,4.4-.3,1.3-1.3.6-2.8-.2-4-1.9-3.3-3.8-6.4-5.6-9.7-.8-1.4-1.4-2.9-1.9-4.5-1.3-5.2,3.4-11,9.3-10.9h.2l-.2-.4Z"/>
    <path class="cls-3" d="M342.9,174.1c-2.2,0-4.5-1-6.5-2.5-6-4.5-9.1-10.9-11.3-17.8-.2-.7,0-1.1.6-1.3.2,0,.3,0,.5-.2,1.4-.6,3-1.8,4.2-1.4,1.3.3,1.3,2.5,1.9,3.9,1.3,2.9,2.9,5.8,4.9,8.3.7.8,1.3,1.6,2.1,2.3,1.2,1,2.5,1.8,4.2.8s1.4-2.4,1-3.9c-.9-3.5-1.9-6.8-2.8-10.3-.3-1.1-.4-2.3-.6-3.5-.7-4.4,1.1-7.4,4.9-9.6,3.6-2,7-1.3,10,1.1,5.3,4.2,8.4,10,11.1,16.1.3.7,0,1-.5,1.3h-.2c-1.5.8-3.2,2.2-4.6,2s-1.5-2.6-2.4-4c-1.8-2.9-3.5-5.9-5.9-8.3-1-1-2-2.1-3.6-1.3-1.5.8-1.5,2.2-1.2,3.7,1.1,4.3,2.3,8.5,3.2,12.8,1.4,6.4-2.6,11.7-9.2,11.6h0l.2.2Z"/>
    <path class="cls-3" d="M356.6,232.1c0-1.9.4-5.4,1.1-8.8.2-1,.6-1.2,1.4-1,.9.3,1.8.3,2.7.5,1.7.3,2.4,1.3,2.1,3.1-.6,4-.9,7.9-.3,11.9,0,.7.3,1.3.4,1.9.3.8.8,1.5,1.8,1.6,1.1,0,1.9-.3,2.5-1.2.8-1.3,1.3-2.9,1.9-4.4,1.3-3.4,2.4-6.7,3.7-10.1,2.7-7,11.4-6.3,14.9-2.4,2.6,2.9,3.7,6.5,4,10.2.4,5.2-.3,10.4-1.9,15.3-.3.9-.7,1.2-1.6.9-1.5-.4-3.5-.3-4.5-1.3-1-1.1.3-2.9.6-4.4.6-3.7,1.1-7.4.6-11.1-.2-.9-.3-1.8-.8-2.6-.5-1.1-1.3-1.9-2.7-1.9s-2.2.8-2.6,1.9c-1.1,2.9-2.1,5.8-3.1,8.8-.8,2-1.5,4-2.5,5.9-2,3.5-5.1,4.7-9,4.4-3.6-.3-5.9-2.3-7.2-5.6s-1.6-6.7-1.5-11.7h0Z"/>
    <path class="cls-1" d="M100.5,154c.2-6.1,2.5-10.8,6-15,1.5-1.8,3.1-3.5,4.8-5.1.6-.6,1.1-.8,1.6,0v.2c1.2,1.3,3,2.4,3.4,3.8.3,1.5-1.9,2.4-3,3.8-1.9,2.3-3.7,4.5-4.8,7.3-1.9,4.9-.4,9.2,4.1,12.5,4.4,3.2,9.3,3.1,13.2,0,2-1.7,3.4-3.9,4.7-6,.5-.8,0-1.1-.4-1.4-2.4-1.8-4.7-3.6-7.2-5.4-.8-.6-.9-1-.3-1.9,1.1-1.3,2-2.6,2.9-4,.6-.8,1-.8,1.8-.2,4,3,7.9,6,11.9,9,.5.4.8.7.5,1.4-2.8,5.8-5.8,11.5-11.4,15.2-5.8,3.9-12,4.4-18.2,1.1-6.2-3.4-9.6-8.7-9.8-15.3v-.2l.2.2Z"/>
    <path class="cls-3" d="M283.9,365c0-5.3,2.6-10,7.1-13.6,3.5-2.9,7.7-4.7,12.1-5.8,1-.3,1.5-.2,1.8,1,.3,1.7,1.4,3.5,1,5-.4,1.4-2.8,1.2-4.3,1.9-2.4,1.1-4.6,2.3-6.5,4-3.9,3.7-4.5,8.5-1.9,13.3,2.6,4.6,7.2,6.5,12.3,5.1,3.5-.9,6.4-2.7,9-5.1,1.1-1,1.6-.8,2.4.2.6.8,1.3,1.7,2.1,2.3,1.4,1.1.9,1.9-.2,2.9-5.3,4.8-11.2,8.1-18.7,7.4-9.3-.8-16.2-8.5-16.2-18.4h0v-.2Z"/>
    <path class="cls-3" d="M138.7,373.1c-.3-.3-.7-.5-.9-.8-5.8-4.9-11.6-9.8-17.4-14.6-.7-.6-.7-.9-.2-1.6,7.2-8.4,14.2-16.9,21.3-25.3.7-.8,1.1-.6,1.7,0,1.3,1.2,2.5,2.3,4,3.3,1,.8,1,1.3.2,2.3-5.4,6.4-10.8,12.8-16.2,19.2-1,1.2-1,1.7.2,2.6,3.6,2.9,7,5.9,10.5,8.8.9.8,1.1,1.3.2,2.1-1,1-1.9,2.1-2.7,3.2-.3.3-.5.5-.8.8h.2-.1Z"/>
    <path class="cls-3" d="M177.6,127.7c-.5,0-.5-.5-.7-.8-4.5-10.1-8.9-20.2-13.4-30.2-.3-.8-.3-1.2.5-1.5,1.8-.8,3.6-1.5,5.3-2.4s1.1,0,1.4.7c4.5,10.1,8.9,20.1,13.3,30.2.3.5.7,1-.3,1.4-1.9.8-3.8,1.7-5.7,2.5-.2,0-.3,0-.6.2h.2Z"/>
    <path class="cls-10" d="M207.1,222.6c1.3-6,2.7-12,4-18,.4-1.9.8-4,1.3-5.9.5-1.8-.2-3-1.5-4.2-5.6-4.9-11.2-9.8-16.8-14.7-.3-.3-.8-.6-1.1-1-.3-.3-.9-.6-.8-1.2.2-.7.8-.5,1.4-.6,7.9-.8,15.8-1.5,23.7-2.2,1.9-.2,3-1.2,3.8-2.9,2.9-7,6-14.1,9.1-21,.3-.7.3-1.7,1.2-1.7s.9,1,1.2,1.6c3,6.9,6.1,13.9,9,20.9.9,2.3,2.4,3,4.7,3.2,7.7.6,15.3,1.4,23,2.1.5,0,1.1,0,1.3.5.3.7-.4.9-.8,1.3-4.5,4-9,7.9-13.5,11.9-1.6,1.3-3.1,2.8-4.7,4.1-1.2,1-1.5,2.2-1.2,3.8,1.8,7.7,3.5,15.5,5.2,23.2,0,.6.7,1.3,0,1.7-.7.5-1.3-.2-1.8-.5-6.6-4-13.2-7.8-19.9-11.8-1.9-1.1-3.5-1.1-5.3,0-6.6,4-13.3,7.9-19.9,11.9-.4.3-.9.7-1.5.4-.4-.3-.3-.6-.3-.9h.2Z"/>
    <path class="cls-13" d="M231.8,235.3h62.9c1.6,0,2.2.8,1.9,2.4-.7,3.4-1.5,6.8-2.1,10.2-.3,1.6-1,1.9-2.4,1.9h-120.3c-2,0-2.9-.6-3.1-2.5-.5-3.4-1.3-6.7-2.1-10-.4-1.7.2-1.9,1.7-1.9h63.6-.1Z"/>
    <path class="cls-13" d="M231.4,259.9h-52.4c-1.9,0-2.8-.4-3.1-2.4-.8-4-.9-4,3.1-4h106.6c1.7,0,2.4.8,1.9,2.5-1.1,4.3-.2,3.7-4.9,3.7h-51.2v.2Z"/>
    <path class="cls-16" d="M235.4,300v32.5c0,1.8-.5,2.4-2.3,2.4h-4c-1.5,0-1.9-.6-1.9-2v-65.5c0-1.3.3-2,1.9-2h4.2c1.6,0,2.1.5,2.1,2.1v32.7h0v-.2Z"/>
    <path class="cls-7" d="M245.9,299.9v-31.6c0-1.7.5-2.3,2.1-1.8.3,0,.6.2.9.2,3.4.7,5.1,2.9,5.1,6.4v56.7c0,1.9-.6,2.6-2.4,2.8-1.2,0-2.3.4-3.5.7-2.2.4-2.3.3-2.3-1.9v-31.6h0Z"/>
    <path class="cls-5" d="M216.8,300v31.4c0,1.5-.7,2-2.1,1.8-1.4-.3-2.9-.6-4.3-.8-1.1-.2-1.7-.7-1.7-1.9v-60.7c0-1.3.5-1.8,1.7-1.9,1.5-.3,3-.5,4.5-.9,1.7-.5,2,0,2,1.7v31.6h0v-.3Z"/>
    <path class="cls-5" d="M263.2,300v-27.4c0-1.9,0-2,1.9-1.2,1.6.7,3.1,1.4,4.7,2.1,1,.4,1.5,1.1,1.5,2.2v48.4c0,1.2-.4,1.8-1.4,2.3-1.7.7-3.4,1.4-5,2.3-1.4.8-1.7.2-1.7-1.2v-27.5h0Z"/>
    <path class="cls-5" d="M200,300.1v26.8q0,2.1-2,1.3c-1.6-.8-3.2-1.5-4.8-2.3-.9-.4-1.3-1-1.3-2v-47.8c0-1.1.5-1.7,1.4-2.1,1.7-.8,3.4-1.5,5-2.4,1.4-.8,1.8-.3,1.8,1.2v27.4h-.1Z"/>
    <path class="cls-11" d="M213.4,104.3s.2-.2.3-.2q0,.2,0,0h0l-.3.2Z"/>
    <path class="cls-8" d="M357.1,306c0,.9-.3,1.8-.8,2.6-1.3,2.3-2.6,4.5-3.8,6.9-.5.9-.9,1.3-1.9.6-2.1-1.3-4.3-2.5-6.5-3.7-.7-.3-1.1-.6-.6-1.5,1.6-2.6,2.9-5.3,4.5-7.9,1.2-1.9,3.4-2.7,5.4-2,2.3.7,3.7,2.5,3.7,5h0Z"/>
    <path class="cls-8" d="M120.4,326.5c-1.7,0-2.9-.8-3.9-2-1.7-2.4-3.3-4.7-5-7-.5-.8-.4-1.1.3-1.6,2.2-1.5,4.3-2.9,6.5-4.5.7-.5,1-.4,1.4.3,1.7,2.4,3.5,4.9,5.1,7.4,1.1,1.6,1.1,3.4.2,5.1-1,1.7-2.5,2.6-4.5,2.5h0v-.2Z"/>
    <path class="cls-8" d="M226.1,382.6h-4.2c-1,0-1.2-.3-1.2-1.3,0-2.5.2-5,.2-7.5s.3-1.3,1.3-1.3c2.7,0,5.4,0,8.1.2,3.4.2,5.5,2.3,5.4,5.2-.2,2.9-2.4,4.9-5.7,4.9h-3.7v-.3h-.2Z"/>
    <path class="cls-8" d="M177.6,368.6c0,7.3-6.2,12-13.4,10.2-1.6-.4-3.1-1.1-4.6-1.8-.9-.4-.9-.8-.5-1.7,2.8-5.6,5.5-11.3,8.2-16.9.3-.4.3-1.2,1.2-.8,3.8,1.8,7.2,4,8.7,8.2.3.9.5,1.9.4,2.7h0Z"/>
    <path class="cls-4" d="M381,275.7c0,1.2-.3,2.9-.6,4.5-.2.8-.4,1.2-1.4.9-6.1-1.5-12.2-2.9-18.3-4.3-.9-.2-1.3-.6-1-1.5.4-1.6.8-3.2,1.6-4.6,2.4-5.1,6.6-7.2,11.7-6.1,5.4,1.3,8.1,4.9,8.1,11.1h-.1Z"/>
    <path class="cls-4" d="M331.8,355.1c-6.3,0-12.5-6.9-11.9-13.1.8-6.3,7.7-10.5,13.6-8,3.6,1.5,6.1,4.2,7.6,7.8,2.4,6.1-2.6,13.2-9.2,13.3h-.1Z"/>
    <path class="cls-4" d="M93.9,296c-4.6,0-8-2.5-9.4-7-1.3-4.3,0-8.3,3.7-10.9,2.2-1.5,4.6-2.4,7.3-2.6,5-.4,8.7,2.1,10.3,6.8,1.5,4.6,0,8.9-4.3,11.5-2.4,1.4-4.9,2.3-7.7,2.3h0Z"/>
  </g>
  <rect class="cls-9" x="487.7" y="51.8" width="8.8" height="377"/>
  <g>
    <path class="cls-11" d="M627,216.5c-18.5,0-32.5-5.3-41.9-15.9-9.5-10.6-14.2-26.3-14.2-47.1s4.7-36.4,14.2-47.1c9.5-10.6,23.5-15.9,41.9-15.9s32.5,5.3,41.9,15.9c9.5,10.6,14.2,26.3,14.2,47.1s-4.7,36.4-14.2,47.1c-9.5,10.6-23.5,15.9-41.9,15.9h0ZM627,191.7c7.8,0,13.5-3,17-9,3.5-6.1,5.2-15.7,5.2-29.2s-1.8-23.1-5.2-29.2c-3.5-6.1-9.2-9-17-9s-13.5,3-17,9c-3.5,6.1-5.2,15.7-5.2,29.2s1.8,23.1,5.2,29.2c3.5,6.1,9.2,9,17,9Z"/>
    <path class="cls-11" d="M701.4,213.7v-120.5h82v24.8h-50.1v25h43.3v24.8h-43.3v46h-31.9Z"/>
    <path class="cls-11" d="M799,213.7v-120.5h82v24.8h-50.1v25h43.3v24.8h-43.3v46h-31.9Z"/>
    <path class="cls-11" d="M896.6,213.7v-120.5h31.8v120.5h-31.8Z"/>
    <path class="cls-11" d="M1037.2,208.3c-10.4,5.4-22.2,8.1-35.3,8.1s-31.4-5.4-40.9-16.2c-9.5-10.9-14.2-26.4-14.2-46.7s4.8-35.4,14.5-46.5,23.1-16.5,40.7-16.5,24.2,2.7,34.6,8.1v24.2c-5.9-2.8-10.9-4.6-15-5.7s-8.7-1.5-13.6-1.5c-8.8,0-15.5,3.2-20,9.6s-6.8,15.8-6.8,28.4,2.3,22,6.8,28.4,11.2,9.6,20,9.6,9.3-.5,13.8-1.6,9.7-2.9,15.5-5.6v24.2-.3h0Z"/>
    <path class="cls-11" d="M1054.5,213.7v-120.5h31.8v120.5h-31.8Z"/>
    <path class="cls-11" d="M1182,213.7l-6.9-23.2h-39.1l-6.7,23.2h-31.3l40-120.5h36.5l39.6,120.5h-32.2,0ZM1142,169.9h27.2l-13.6-46.5-13.6,46.5h0Z"/>
    <path class="cls-11" d="M1225.6,213.7v-120.5h31.8v95.7h48.1v24.8h-79.9Z"/>
    <path class="cls-11" d="M648.2,375.2l-6.9-23.2h-39.1l-6.7,23.2h-31.3l40-120.5h36.5l39.6,120.5h-32.2.1ZM608.2,331.5h27.2l-13.6-46.5-13.6,46.5h0Z"/>
    <path class="cls-11" d="M707.4,375.2v-95.7h-32.9v-24.8h97.6v24.8h-32.9v95.7h-31.8,0Z"/>
    <path class="cls-11" d="M815.4,375.2v-95.7h-32.9v-24.8h97.6v24.8h-32.9v95.7h-31.8,0Z"/>
    <path class="cls-11" d="M925.4,327.1v23.7h51.2v24.5h-82.7v-120.5h82v24.5h-50.4v23.4h43.6v24.5h-43.7,0Z"/>
    <path class="cls-11" d="M1099.7,375.2l-6.2-71.8-21.4,61.3h-24.5l-22.1-62-6.7,72.5h-29l11.7-120.5h34.1l24.1,66.8,24.2-66.8h33.2l11.7,120.5h-29.5.4Z"/>
    <path class="cls-11" d="M1148.7,375.2v-118.1c6.6-1.2,14-2.1,21.9-2.9s14.8-1.1,20.6-1.1c16.4,0,28.9,3.5,37.5,10.4s12.8,16.9,12.8,30.1-4.5,22.9-13.5,30.1c-8.9,7.2-21.3,10.9-37,10.9h-11v40.7h-31.3ZM1190.6,275.7c-3.4,0-6.8.3-10.5.7v36h11c5.7,0,10.3-1.7,13.7-5,3.4-3.4,5.1-7.8,5.1-13.6,0-12-6.4-18.1-19.3-18.1h0Z"/>
    <path class="cls-11" d="M1282.4,375.2v-95.7h-32.9v-24.8h97.6v24.8h-32.9v95.7h-31.8,0Z"/>
  </g>
</svg>