<svg viewBox="0 0 708.8 864.1" xmlns="http://www.w3.org/2000/svg"><path d="m324.8 9.3c-7.6-3.6-15.6-4.2-24.1-1.8-9.8 2.9-18.9 6.3-27.3 10.4-.3.1-.5.3-.6.6-.7 1.4-.3 2.3 1.2 2.7 2.1 6 2.9 12.3 2.5 18.7-.1 2-.5 4.2-1.2 6.5-3 10.2-8.6 23-16 30.8-.6.6-1.3 1.4-2.1 2.5-7.2 9.1-26.3 20.8-35.7 7.1-1.8-2.5-2.8-9.1-2.2-12.2.6-2.9 1-5.8 1.3-8.8 0-.2.1-.5.3-.7 2.7-3.8 2-7.5 5.3-10.3.2-.2.4-.5.5-.8.3-1.9 1.2-3.3 2.9-4.2.3-.2.5-.5.6-.8.7-2.3 2.1-4.2 4.1-5.5.3-.2.5-.6.6-1 .2-1.6 1-1.6 1.8-2.4 5.5-5.4 11.1-10.5 17.1-15.4 3.9-1.7 7.6-3.9 11.2-6.7.6-.5.7-1.4.2-2 0 0 0-.1-.1-.1-5.7-5.6-12.3-8.8-19.6-9.3-18.2-1.4-38.8 13.9-49.6 27.8-2.8 3-5.3 6.4-7.3 9.9-5.1 9-9.7 17.6-11 28 0 .3 0 .6.2.9 1.8 2.8 1.1 3.3-2 1.7-.5-.3-.8-.8-.7-1.4.6-8.5 2.9-16.5 6.9-24.1.9-1.6 2.3-2.5 2.5-4.8 0-.4.2-.7.5-1l1.9-1.5c.3-.2.5-.5.5-.8.3-1.9 1.1-3.5 2.3-4.9.2-.2.2-.5 0-.6l-.2-.4c3.1-1.6 5-3.7 5.9-6 14.9-17.2 42.8-34.6 65.9-21 2.9 1.8 5.4 4.3 8.3 6.7.4.3 1 .4 1.4.2 7.8-3.6 15.7-6.7 23.8-9.4 10.1-3.3 20.2-3.7 30.3-1.1l3.6 3.7c.1.1.3.2.5.3 1.8.8 3.1 2.1 3.7 4.1.6 1.6 1.8 1.9 3.8.8 17.8-10.3 40.5-17.4 60.1-9.7 4.2 1.7 7.3 5.2 10.5 8.5.3.3.5.8.3 1.3-.2.8-.1 1.5.3 2 .5.6 1.2.7 1.8.4 12-6.9 23.9-11.3 35.8-13 10.1-1.5 18.5-3.6 28.9-3.4.5 0 .8.3.8.8.1 1-.5 1.6-1.9 1.7-21.3 1.8-42.8 5.6-61.7 16-.3.2-.5.5-.6.8-.6 1.8-.6 3.5.2 5.1.2.3.2.7 0 1.1-.5 1.4-.4 2.7.4 4 .2.3.3.7.2 1.1-1.2 4.9-.6 9.8-2 14.2-3.6 11.6-12 25.6-25.6 22.3-.3 0-.7-.3-.8-.6l-3.2-5.3c-.1-.2-.2-.4-.2-.6-.4-5.5 1-10.3 4-14.7 2.1-3 3.7-7.1 7.1-9.7.2-.2.3-.3.5-.6 2.4-5.9 7.4-9.4 13.4-14.6.3-.3.5-.8.5-1.2-1.9-15.6-24-17.1-35.4-15-11.1 2.1-21.9 6.2-32.4 12.1-.6.3-.9 1.1-.6 1.8 2.3 4.7 6.5 19 3.3 23.8-.2.3-.2.6-.2.8.3 4.9-5 15-7.5 18.2-5.5 7.1-25.2 28.6-35.4 18.5-.2-.2-.3-.5-.4-.7-2.6-14.1-.1-26.3 7.5-36.7 6.7-9.1 11.4-14.7 14.2-16.8 4.2-3 8.4-5.8 12.6-8.2.7-.4.9-1.2.5-1.9 0-.1-.2-.2-.3-.3l-6.6-6zm.5 55.3c11.6-12.4 15-27.7 9.1-43.8-.3-.7-1.1-1.1-1.8-.8-.1 0-.2.1-.3.2l-14.1 10.4c-.2.2-.4.3-.5.6-1.2 2.8-3.8 4.4-5.1 6-7.2 8.8-11.5 18.9-12.8 30.4-.5 4.4 0 8.3 1.8 11.6.3.6 1 .9 1.6.7 9-2.8 15.7-8.4 22.1-15.2zm-60.6-41.9c-8 4.1-12.9 7.2-14.7 9.1-4.5 5-8.6 8.8-12.4 11.6-.1 0-.3.2-.3.4-7.7 12.5-16.1 22-13.4 37.9 1.7 10.2 11.6 8.8 18.5 5.1 7.9-4.3 11.2-8.3 17.4-16.9 3.8-5.3 6.5-11.2 9.5-17 .2-.3.2-.6.1-.9-.2-1.4.2-2.5 1.2-3.2.5-.3.7-.8.7-1.4-.6-3.8 1.4-6.5 1.2-9.9-.2-3.7 0-14.4-3.8-15.4.7-.5.8-.9.4-1.4-.2-.2-.5-.3-.8-.3-1.5.2-2.7.9-3.6 2v.3zm135.6 6.6c-3.4 2.4-4.3 6.1-6.9 9.1-4.1 4.6-6 9.1-8.7 14.3-1.9 3.5-.6 9.3 1.2 11.9.3.4.8.6 1.3.6 3.9-.5 6.9-2 9.2-4.7 1.5-1.8 4.7-4.3 5.3-5.4 2.1-4.1 3.4-6.9 3.9-8.5 1.1-3.6 1.8-7.2 1.9-10.7l.4-9.8c0-.8-.6-1.4-1.4-1.4s-.5 0-.7.2c-.8.5-1.6 1-2.2 1.6-1.5 1.6-2.6 2.5-3.2 3v-.2z" fill="#5ba26f"/><path d="m323.6 828.3c1.4.9 2.8 1.2 4.3.8 8.1-.8 16.2-1.2 24.2-1.4 2.9 0 4.1.7 4.5 3.7 0 .5-.2.8-.7.9l-28.6 1.8c-1.5-.3-2.6 0-3.4 1.4-.8 6.6-.8 13.2-.3 19.8.1 1.4 1.7 3.9-.8 4-2.3 0-4.4 0-4.7-2.9-.5-5.7-.6-11.5-.2-17.2.6-1.9.5-3.8-.3-5.6 0-.2-.1-.4 0-.6.3-1 .4-2 .2-2.8l-.5-1.3.6-1.5v-.6c-.7-1.6-.5-2.8.7-3.6.4-5.1 1.4-12.1.3-16.9-.1-.5.2-.8.6-1h.1c1.4 0 2.6 0 3.8.6.3 0 .5.4.5.7.4 7.2.3 14.5-.1 21.8h-.2z" fill="#f56b36"/><path d="m318.5 823.1c-1.2.8-1.5 2-.7 3.6s.1.4 0 .6l-.6 1.5c-4.2-5.2-8.1-11-12.9-15.7-.3-.3-.3-.7 0-1.1 1.1-1.3 2.3-1.4 3.7-.3 1.5 1.2 2.7 2.3 3.6 3.4z" fill="#f56b36"/><path d="m327.9 829.2c-1.5.3-2.9 0-4.3-.8 3.8-4.3 8.1-8.2 12.5-11.9 1.3-1 2.8-2.6 4.4-4.7.2-.3.6-.4 1-.3 2.3 1 2.4 2.4.2 4.3-1.5 1.3-6.1 5.8-13.8 13.4z" fill="#f56b36"/><path d="m317.6 830.1c.2.8.2 1.8-.2 2.8v.6c.8 1.9 1 3.7.3 5.6.1-1-.2-1.2-.9-.7-5.8 4.9-14.5 12.1-17 17.6-.2.4-.3.7-.6 1.1-.2.4-.7.5-1.1.2-.7-.5-1.1-1.1-1.4-1.9-1.6-4.3 12.6-16 15.8-18.5.2 0 3.7-1.9 2.1-1.9-9.8.4-15.9.5-18.4.4-1.6 0-2.4-1-2.3-2.7 0-.4.3-.7.7-.7l22.9-1.9z" fill="#f56b36"/><path d="m327.2 834.1c4.9 6.5 10.1 12.8 15.7 18.7.3.3.3.8 0 1.1l-2.3 1.6c-.3.2-.7.2-1 0-5.1-4.2-9.8-10.7-13.2-15.1-1-1.3-1.9-3-2.5-5.1.8-1.2 2-1.7 3.4-1.4h-.2v.2z" fill="#f56b36"/><circle cx="61.5" cy="162.5" fill="#013d5b" r="57.5" stroke="#013d5b" stroke-width="4"/><circle cx="61.5" cy="458.5" fill="#013d5b" r="57.5" stroke="#013d5b" stroke-width="4"/><circle cx="61.5" cy="754.5" fill="#013d5b" r="57.5" stroke="#013d5b" stroke-width="4"/><circle cx="61.5" cy="310.5" fill="#013d5b" r="57.5" stroke="#013d5b" stroke-width="4"/><circle cx="62.5" cy="606.5" fill="#013d5b" r="57.5" stroke="#013d5b" stroke-width="4"/><path d="m61.4 181v-31l-8.9 5.8-1-4.1 10.7-6.9h4.2v36.3h-5z" fill="#fff"/><path d="m48.3 471.5c3.2 1.5 6.4 2.3 9.5 2.3s4.9-.6 6.5-1.9 2.4-3 2.4-5.1-.7-3.7-2.2-4.9c-1.4-1.2-3.4-1.9-5.9-1.9h-3.4v-4h3.2c2.3 0 4-.5 5.4-1.6 1.3-1.1 2-2.6 2-4.5s-.7-3.4-2.1-4.5-3.3-1.6-5.7-1.6-5.5.6-8.3 1.7v-3.9c2.5-1.2 5.5-1.8 9-1.8s6.6.9 8.9 2.7 3.4 4.2 3.4 7-.5 3.6-1.6 5.1-2.7 2.5-4.7 3.2c2.4.7 4.2 1.8 5.5 3.4s1.9 3.5 1.9 5.8-.6 4-1.7 5.7c-1.1 1.6-2.7 2.8-4.8 3.7-2 .8-4.3 1.3-6.9 1.3s-3.5-.2-5.2-.5c-1.7-.4-3.1-.8-4.3-1.4l-.6-4.3z" fill="#fff"/><path d="m48.9 767.5c3.2 1.5 6.4 2.3 9.5 2.3s5.2-.7 6.8-2.1 2.4-3.5 2.4-6.1-.7-4.2-2-5.5-3.2-2-5.6-2-2.6.2-3.9.5-2.4.8-3.3 1.4l-2.4-1.6 1.7-17.7h13.6c1.9 0 3.7 0 5.2-.2v4.4h-14.8l-1 10.9c.9-.4 1.9-.7 3-1 1.1-.2 2.2-.4 3.3-.4 3.5 0 6.2 1 8.3 3.1 2.1 2 3.1 4.8 3.1 8.2s-.6 4.7-1.7 6.5-2.7 3.2-4.8 4.2c-2 1-4.4 1.4-7.1 1.4s-3.4-.2-5.1-.5c-1.7-.4-3.2-.8-4.4-1.4l-.6-4.3h-.2z" fill="#fff"/><path d="m48.9 329c0-3.2.7-5.9 1.9-8.3 1.2-2.3 3.3-4.7 6.2-7.2l4.5-3.8c1.8-1.5 3.1-2.9 3.9-4.1s1.2-2.4 1.2-3.7c0-1.9-.7-3.4-2.1-4.5-1.3-1.1-3.2-1.6-5.5-1.6s-6 1.1-8.9 3.2v-4.1c2.9-2.1 6.2-3.1 10.1-3.1s4.3.4 6 1.3c1.8.8 3.1 2 4.1 3.6 1 1.5 1.4 3.1 1.4 5s-.5 3.6-1.5 5.2-2.6 3.4-4.9 5.4l-4.2 3.6c-2 1.7-3.5 3.3-4.5 4.7s-1.7 2.8-2 4.2h12.3c2 0 3.8 0 5.3-.2v4.3h-23.3z" fill="#fff"/><path d="m65.8 625v-8.6h-17.9v-3.8l17.4-23.9h5.2v23.8c2.2 0 3.9 0 5.3-.2v4.1h-5.3v8.6zm0-12.5v-17.9l-13.2 17.9z" fill="#fff"/><g fill="#013d5b"><path d="m150.8 154v-7.8l-7.6-14.6h3.4l5.8 11.8 5.9-11.8h3.3l-7.6 14.5v7.9h-3.1z"/><path d="m168.7 154.4c-2.4 0-4.3-.7-5.5-2.2s-1.9-3.6-1.9-6.4.6-5 1.9-6.4c1.2-1.5 3.1-2.2 5.5-2.2s4.3.7 5.5 2.2 1.9 3.6 1.9 6.4-.6 5-1.9 6.4c-1.2 1.5-3.1 2.2-5.5 2.2zm0-2.3c1.5 0 2.6-.5 3.2-1.5.7-1 1-2.6 1-4.8s-.3-3.8-1-4.8-1.8-1.5-3.2-1.5-2.6.5-3.2 1.5c-.7 1-1 2.6-1 4.8s.3 3.8 1 4.8 1.8 1.5 3.2 1.5z"/><path d="m190.7 154-.2-1.1c-1.7 1-3.5 1.5-5.2 1.5s-3.1-.5-4-1.4c-1-.9-1.4-2.3-1.4-3.9v-11.4h3v10.9c0 2.3 1.1 3.4 3.3 3.4s1.3-.1 2-.3 1.4-.5 2-.8v-13.2h3v16.1l-2.4.3z"/><path d="m196.4 139.5c.7-.7 1.2-1.6 1.6-2.4.4-.9.6-1.7.6-2.5-.4-.1-.8-.3-1-.7-.2-.3-.4-.7-.4-1.2s.2-1 .6-1.4.8-.5 1.4-.5 1 .2 1.4.6.5 1 .5 1.8-.2 1.6-.5 2.5c-.4.9-.8 1.7-1.4 2.5s-1.2 1.4-1.9 1.9z"/><path d="m205.2 154v-24l3-.4v24.4z"/><path d="m213.1 154v-24l3-.4v24.4z"/><path d="m229 154v-24l3-.4v9c1.6-.9 3.3-1.3 4.8-1.3s3.1.5 4.1 1.4 1.5 2.2 1.5 4v11.4h-3v-10.9c0-2.3-1.1-3.4-3.4-3.4s-1.3.1-2 .3-1.4.5-2 .8v13.2h-3z"/><path d="m257 154-.2-1.1c-1.8 1-3.5 1.5-5.2 1.5s-3-.5-4-1.4-1.5-2.1-1.5-3.7.6-2.8 1.7-3.7 2.7-1.3 4.7-1.3 2.5.1 4.1.4v-1.7c0-1.2-.3-2-1-2.6s-1.7-.9-3.1-.9-3.4.4-5.3 1.1v-2.3c.9-.4 1.9-.6 2.9-.8s2-.3 3-.3c2.1 0 3.7.5 4.8 1.5s1.6 2.4 1.6 4.3v10.8l-2.4.3zm-4.6-1.9c.6 0 1.3-.1 2.1-.3s1.5-.5 2-.8v-4.1c-1-.3-2.2-.4-3.6-.4s-2.2.2-2.8.7-.9 1.2-.9 2.2c0 1.8 1.1 2.8 3.2 2.8z"/><path d="m268 154-6-16.3h3.2l4.4 13 4.4-13h3.1l-6.1 16.3h-2.9z"/><path d="m291.4 153.3c-1.5.7-3.1 1.1-4.9 1.1-2.6 0-4.7-.7-6-2.2s-2.1-3.6-2.1-6.5.3-3.3.9-4.6 1.5-2.3 2.6-3 2.4-1 3.8-1 3.6.6 4.7 1.8 1.7 2.8 1.7 5 0 1.7-.2 2.5h-10.6c0 3.8 1.9 5.7 5.5 5.7s3.1-.3 4.6-1v2.3zm-5.8-13.9c-1.2 0-2.2.4-3 1.3s-1.2 2.1-1.3 3.6h8c0-.1 0-.2 0-.3v-.3c0-1.3-.3-2.4-1-3.1s-1.6-1.1-2.7-1.1z"/><path d="m307.7 139.9v9.3c0 1 .2 1.7.6 2.1.4.5 1.1.7 2 .7s1.4-.1 2.1-.4v2.1c-.9.3-1.8.5-2.8.5-1.6 0-2.8-.4-3.7-1.3-.8-.9-1.2-2.1-1.2-3.7v-9.4h-2.4v-2h2.6s.2-4.2.2-4.2l2.7-.3v4.3h4.5v2.2h-4.5z"/><path d="m315.6 154v-24l3-.4v9c1.6-.9 3.3-1.3 4.8-1.3s3.1.5 4.1 1.4 1.5 2.2 1.5 4v11.4h-3v-10.9c0-2.3-1.1-3.4-3.4-3.4s-1.3.1-2 .3-1.4.5-2 .8v13.2h-3z"/><path d="m333.7 154v-16.1l2.4-.3.3 1.5c1.4-1.2 2.9-1.8 4.5-1.8s1 0 1.5.2v2.5c-.5-.1-1-.2-1.6-.2-1.5 0-2.9.5-4.1 1.4v12.7h-3z"/><path d="m357.1 153.3c-1.5.7-3.1 1.1-4.9 1.1-2.6 0-4.7-.7-6-2.2s-2.1-3.6-2.1-6.5.3-3.3.9-4.6 1.5-2.3 2.6-3 2.4-1 3.8-1 3.6.6 4.7 1.8 1.7 2.8 1.7 5 0 1.7-.2 2.5h-10.6c0 3.8 1.9 5.7 5.5 5.7s3.1-.3 4.6-1v2.3zm-5.7-13.9c-1.2 0-2.2.4-3 1.3s-1.2 2.1-1.3 3.6h8c0-.1 0-.2 0-.3v-.3c0-1.3-.3-2.4-1-3.1s-1.6-1.1-2.7-1.1z"/><path d="m373.8 153.3c-1.5.7-3.1 1.1-4.9 1.1-2.6 0-4.7-.7-6-2.2s-2.1-3.6-2.1-6.5.3-3.3.9-4.6 1.5-2.3 2.6-3 2.4-1 3.8-1 3.6.6 4.7 1.8 1.7 2.8 1.7 5 0 1.7-.2 2.5h-10.6c0 3.8 1.9 5.7 5.5 5.7s3.1-.3 4.6-1v2.3zm-5.7-13.9c-1.2 0-2.2.4-3 1.3s-1.2 2.1-1.3 3.6h8c0-.1 0-.2 0-.3v-.3c0-1.3-.3-2.4-1-3.1s-1.6-1.1-2.7-1.1z"/><path d="m405.7 154v-11.3c0-2-1-3.1-3-3.1s-2.5.4-3.8 1.2c.1.5.2.9.2 1.4v11.8h-3v-11.3c0-2-1-3.1-3-3.1s-2.4.4-3.6 1.1v13.2h-3v-16.1l2.4-.3.2 1.1c1.6-1 3.3-1.5 4.8-1.5s3.2.6 4.2 1.8c1.9-1.2 3.7-1.8 5.4-1.8s2.9.4 3.8 1.3 1.4 2.1 1.4 3.6v11.8h-3z"/><path d="m419.8 154.4c-2.4 0-4.3-.7-5.5-2.2s-1.9-3.6-1.9-6.4.6-5 1.9-6.4c1.2-1.5 3.1-2.2 5.5-2.2s4.3.7 5.5 2.2 1.9 3.6 1.9 6.4-.6 5-1.9 6.4c-1.2 1.5-3.1 2.2-5.5 2.2zm0-2.3c1.5 0 2.6-.5 3.2-1.5.7-1 1-2.6 1-4.8s-.3-3.8-1-4.8-1.8-1.5-3.2-1.5-2.6.5-3.2 1.5c-.7 1-1 2.6-1 4.8s.3 3.8 1 4.8 1.8 1.5 3.2 1.5z"/><path d="m444.3 129.6v24.2l-2.4.3-.2-1.1c-1.7 1-3.3 1.5-4.9 1.5s-3.7-.7-4.9-2.2-1.8-3.5-1.8-6.1.7-5 2.1-6.5 3.3-2.3 5.9-2.3 2.3.1 3.3.4v-7.7l3-.4zm-6.8 22.5c.6 0 1.2-.1 1.9-.3s1.3-.5 1.9-.8v-11c-.9-.3-1.8-.4-2.8-.4-1.8 0-3.1.5-3.9 1.6-.9 1.1-1.3 2.7-1.3 4.9s.4 3.5 1.1 4.5 1.8 1.5 3.2 1.5z"/><path d="m459.9 154-.2-1.1c-1.7 1-3.5 1.5-5.2 1.5s-3.1-.5-4-1.4c-1-.9-1.4-2.3-1.4-3.9v-11.4h3v10.9c0 2.3 1.1 3.4 3.3 3.4s1.3-.1 2-.3 1.4-.5 2-.8v-13.2h3v16.1l-2.4.3z"/><path d="m467.2 154v-24l3-.4v24.4z"/><path d="m487.2 153.3c-1.5.7-3.1 1.1-4.9 1.1-2.6 0-4.7-.7-6-2.2s-2.1-3.6-2.1-6.5.3-3.3.9-4.6 1.5-2.3 2.6-3 2.4-1 3.8-1 3.6.6 4.7 1.8 1.7 2.8 1.7 5 0 1.7-.2 2.5h-10.6c0 3.8 1.9 5.7 5.5 5.7s3.1-.3 4.6-1v2.3zm-5.8-13.9c-1.2 0-2.2.4-3 1.3s-1.2 2.1-1.3 3.6h8c0-.1 0-.2 0-.3v-.3c0-1.3-.3-2.4-1-3.1s-1.6-1.1-2.7-1.1z"/><path d="m490.7 151c1.7.7 3.4 1.1 5.1 1.1s2.2-.2 2.8-.7c.7-.5 1-1.1 1-2s-.2-1-.5-1.4c-.4-.4-1-.7-1.8-.9l-2.2-.7c-1.5-.4-2.5-1-3.2-1.7s-1-1.6-1-2.7.6-2.6 1.7-3.5 2.7-1.3 4.6-1.3 3.2.3 4.6 1v2.3c-1.6-.6-3.1-.9-4.4-.9s-1.9.2-2.5.6-.9 1-.9 1.7.2.9.5 1.2.9.6 1.8.8l2.4.7c2.6.8 4 2.4 4 4.7s-.6 2.9-1.7 3.8-2.8 1.3-4.9 1.3-3.6-.3-5-1l-.4-2.5z"/><path d="m518 139.9v9.3c0 1 .2 1.7.6 2.1.4.5 1.1.7 2 .7s1.4-.1 2.1-.4v2.1c-.9.3-1.8.5-2.8.5-1.6 0-2.8-.4-3.7-1.3-.8-.9-1.2-2.1-1.2-3.7v-9.4h-2.4v-2h2.6s.2-4.2.2-4.2l2.7-.3v4.3h4.5v2.2h-4.5z"/><path d="m532.4 154.4c-2.4 0-4.3-.7-5.5-2.2s-1.9-3.6-1.9-6.4.6-5 1.9-6.4c1.2-1.5 3.1-2.2 5.5-2.2s4.3.7 5.5 2.2 1.9 3.6 1.9 6.4-.6 5-1.9 6.4c-1.2 1.5-3.1 2.2-5.5 2.2zm0-2.3c1.5 0 2.6-.5 3.2-1.5.7-1 1-2.6 1-4.8s-.3-3.8-1-4.8-1.8-1.5-3.2-1.5-2.6.5-3.2 1.5c-.7 1-1 2.6-1 4.8s.3 3.8 1 4.8 1.8 1.5 3.2 1.5z"/><path d="m156.6 193.8c-1.5.7-3.1 1.1-4.9 1.1s-4.2-.7-5.4-2.2c-1.3-1.5-1.9-3.6-1.9-6.3s.6-4.9 1.9-6.4 3.1-2.3 5.5-2.3 3.2.4 4.8 1.1v2.3c-1.5-.6-2.9-1-4.2-1s-2.8.5-3.6 1.6c-.8 1-1.2 2.6-1.2 4.6s.4 3.6 1.2 4.6c.8 1.1 2 1.6 3.6 1.6s2.8-.3 4.3-1v2.3z"/><path d="m166.5 194.8c-2.4 0-4.3-.7-5.5-2.2s-1.9-3.6-1.9-6.4.6-5 1.9-6.4c1.2-1.5 3.1-2.2 5.5-2.2s4.3.7 5.5 2.2 1.9 3.6 1.9 6.4-.6 5-1.9 6.4c-1.2 1.5-3.1 2.2-5.5 2.2zm0-2.3c1.5 0 2.6-.5 3.2-1.5.7-1 1-2.6 1-4.8s-.3-3.8-1-4.8-1.8-1.5-3.2-1.5-2.6.5-3.2 1.5c-.7 1-1 2.6-1 4.8s.3 3.8 1 4.8 1.8 1.5 3.2 1.5z"/><path d="m197 194.4v-11.3c0-2-1-3.1-3-3.1s-2.5.4-3.8 1.2c.1.5.2.9.2 1.4v11.8h-3v-11.3c0-2-1-3.1-3-3.1s-2.4.4-3.6 1.1v13.2h-3v-16.1l2.4-.3.2 1.1c1.6-1 3.3-1.5 4.8-1.5s3.2.6 4.2 1.8c1.9-1.2 3.7-1.8 5.4-1.8s2.9.4 3.8 1.3 1.4 2.1 1.4 3.6v11.8h-3z"/><path d="m204.6 201.6v-23.3l2.4-.3.2 1.1c1.7-1 3.3-1.5 4.9-1.5s3.7.7 4.9 2.2 1.8 3.5 1.8 6.1-.7 5-2.1 6.5-3.3 2.3-5.9 2.3-2.3-.1-3.3-.4v6.8l-3 .4zm6.8-21.6c-.6 0-1.2.1-1.9.3s-1.3.5-1.9.8v11c.9.3 1.8.4 2.8.4 1.7 0 3.1-.5 3.9-1.6.9-1.1 1.3-2.7 1.3-4.9s-.4-3.5-1.1-4.5-1.8-1.5-3.2-1.5z"/><path d="m222.7 194.4v-24l3-.4v24.4z"/><path d="m242.7 193.7c-1.5.7-3.1 1.1-4.9 1.1-2.6 0-4.7-.7-6-2.2s-2.1-3.6-2.1-6.5.3-3.3.9-4.6 1.5-2.3 2.6-3 2.4-1 3.8-1 3.6.6 4.7 1.8 1.7 2.8 1.7 5 0 1.7-.2 2.5h-10.6c0 3.8 1.9 5.7 5.5 5.7s3.1-.3 4.6-1v2.3zm-5.7-13.9c-1.2 0-2.2.4-3 1.3s-1.2 2.1-1.3 3.6h8c0-.1 0-.2 0-.3v-.3c0-1.3-.3-2.4-1-3.1s-1.6-1.1-2.7-1.1z"/><path d="m251 180.3v9.3c0 1 .2 1.7.6 2.1.4.5 1.1.7 2 .7s1.4-.1 2.1-.4v2.1c-.9.3-1.8.5-2.8.5-1.6 0-2.8-.4-3.7-1.3-.8-.9-1.2-2.1-1.2-3.7v-9.4h-2.4v-2h2.6s.2-4.2.2-4.2l2.7-.3v4.3h4.5v2.2h-4.5z"/><path d="m271 193.7c-1.5.7-3.1 1.1-4.9 1.1-2.6 0-4.7-.7-6-2.2s-2.1-3.6-2.1-6.5.3-3.3.9-4.6 1.5-2.3 2.6-3 2.4-1 3.8-1 3.6.6 4.7 1.8 1.7 2.8 1.7 5 0 1.7-.2 2.5h-10.6c0 3.8 1.9 5.7 5.5 5.7s3.1-.3 4.6-1v2.3zm-5.7-13.9c-1.2 0-2.2.4-3 1.3s-1.2 2.1-1.3 3.6h8c0-.1 0-.2 0-.3v-.3c0-1.3-.3-2.4-1-3.1s-1.6-1.1-2.7-1.1z"/><path d="m276.9 194.5c-.6 0-1-.2-1.4-.5-.4-.4-.5-.8-.5-1.4s.2-1 .5-1.4.8-.5 1.4-.5 1 .2 1.4.5c.4.4.5.8.5 1.4s-.2 1-.5 1.4c-.4.4-.8.5-1.4.5z"/><path d="m144.7 289.1c0-3.8.8-6.7 2.4-8.7s4-3 7.1-3 5.4 1 7.1 3c1.6 2 2.4 4.9 2.4 8.7s-.8 6.7-2.4 8.7-4 3-7.1 3-5.4-1-7.1-3-2.4-4.9-2.4-8.7zm3.3 0c0 3.1.5 5.4 1.5 6.9s2.6 2.3 4.7 2.3 3.7-.8 4.7-2.3 1.5-3.8 1.5-6.9-.5-5.4-1.5-6.9-2.6-2.3-4.7-2.3-3.7.8-4.7 2.3-1.5 3.8-1.5 6.9z"/><path d="m177.7 300.3v-10.9c0-2.3-1.1-3.4-3.4-3.4s-1.3.1-2 .3-1.4.5-2 .8v13.2h-3v-16.1l2.4-.3.2 1.1c1.7-1 3.5-1.5 5.2-1.5s3.1.5 4.1 1.4 1.5 2.2 1.5 4v11.4z"/><path d="m196 299.7c-1.5.7-3.1 1.1-4.9 1.1s-4.2-.7-5.4-2.2c-1.3-1.5-1.9-3.6-1.9-6.3s.6-4.9 1.9-6.4 3.1-2.3 5.5-2.3 3.2.4 4.8 1.1v2.3c-1.5-.6-2.9-1-4.2-1s-2.8.5-3.6 1.6c-.8 1-1.2 2.6-1.2 4.6s.4 3.6 1.2 4.6c.8 1.1 2 1.6 3.6 1.6s2.8-.3 4.3-1v2.3z"/><path d="m210.9 299.6c-1.5.7-3.1 1.1-4.9 1.1-2.6 0-4.7-.7-6-2.2s-2.1-3.6-2.1-6.5.3-3.3.9-4.6 1.5-2.3 2.6-3 2.4-1 3.8-1 3.6.6 4.7 1.8 1.7 2.8 1.7 5 0 1.7-.2 2.5h-10.6c0 3.8 1.9 5.7 5.5 5.7s3.1-.3 4.6-1v2.3zm-5.8-13.9c-1.2 0-2.2.4-3 1.3s-1.2 2.1-1.3 3.6h8c0-.1 0-.2 0-.3v-.3c0-1.3-.3-2.4-1-3.1s-1.6-1.1-2.7-1.1z"/><path d="m220.3 304.9c1-.2 1.9-.4 2.5-.7s1.3-.8 1.8-1.4 1-1.4 1.5-2.4l-6.1-16.4h3.2l4.4 13 4.4-13h3.1l-5.9 15.6c-.6 1.7-1.3 3.1-2 4.1s-1.5 1.8-2.4 2.4-2.2 1-3.7 1.4l-.7-2.6z"/><path d="m243.1 300.7c-2.4 0-4.3-.7-5.5-2.2s-1.9-3.6-1.9-6.4.6-5 1.9-6.4c1.2-1.5 3.1-2.2 5.5-2.2s4.3.7 5.5 2.2 1.9 3.6 1.9 6.4-.6 5-1.9 6.4c-1.2 1.5-3.1 2.2-5.5 2.2zm0-2.3c1.5 0 2.6-.5 3.2-1.5.7-1 1-2.6 1-4.8s-.3-3.8-1-4.8-1.8-1.5-3.2-1.5-2.6.5-3.2 1.5c-.7 1-1 2.6-1 4.8s.3 3.8 1 4.8 1.8 1.5 3.2 1.5z"/><path d="m264.5 300.3-.2-1.1c-1.7 1-3.5 1.5-5.2 1.5s-3.1-.5-4-1.4c-1-.9-1.4-2.3-1.4-3.9v-11.4h3v10.9c0 2.3 1.1 3.4 3.3 3.4s1.3-.1 2-.3 1.4-.5 2-.8v-13.2h3v16.1l-2.4.3z"/><path d="m269.5 285.8c.7-.7 1.2-1.6 1.6-2.4.4-.9.6-1.7.6-2.5-.4-.1-.8-.3-1-.7-.2-.3-.4-.7-.4-1.2s.2-1 .6-1.4.8-.5 1.4-.5 1 .2 1.4.6.5 1 .5 1.8-.2 1.6-.5 2.5c-.4.9-.8 1.7-1.4 2.5s-1.2 1.4-1.9 1.9z"/><path d="m281.5 300.3-6-16.3h3.2l4.4 13 4.4-13h3.1l-6.1 16.3h-2.9z"/><path d="m304.3 299.6c-1.5.7-3.1 1.1-4.9 1.1-2.6 0-4.7-.7-6-2.2s-2.1-3.6-2.1-6.5.3-3.3.9-4.6 1.5-2.3 2.6-3 2.4-1 3.8-1 3.6.6 4.7 1.8 1.7 2.8 1.7 5 0 1.7-.2 2.5h-10.6c0 3.8 1.9 5.7 5.5 5.7s3.1-.3 4.6-1v2.3zm-5.7-13.9c-1.2 0-2.2.4-3 1.3s-1.2 2.1-1.3 3.6h8c0-.1 0-.2 0-.3v-.3c0-1.3-.3-2.4-1-3.1s-1.6-1.1-2.7-1.1z"/><path d="m314.5 297.3c1.7.7 3.4 1.1 5.1 1.1s2.2-.2 2.8-.7c.7-.5 1-1.1 1-2s-.2-1-.5-1.4c-.4-.4-1-.7-1.8-.9l-2.2-.7c-1.5-.4-2.5-1-3.2-1.7s-1-1.6-1-2.7.6-2.6 1.7-3.5 2.7-1.3 4.6-1.3 3.2.3 4.6 1v2.3c-1.6-.6-3.1-.9-4.4-.9s-1.9.2-2.5.6-.9 1-.9 1.7.2.9.5 1.2.9.6 1.8.8l2.4.7c2.6.8 4 2.4 4 4.7s-.6 2.9-1.7 3.8-2.8 1.3-4.9 1.3-3.6-.3-5-1l-.4-2.5z"/><path d="m333.2 286.2v9.3c0 1 .2 1.7.6 2.1.4.5 1.1.7 2 .7s1.4-.1 2.1-.4v2.1c-.9.3-1.8.5-2.8.5-1.6 0-2.8-.4-3.7-1.3-.8-.9-1.2-2.1-1.2-3.7v-9.4h-2.4v-2h2.6s.2-4.2.2-4.2l2.7-.3v4.3h4.5v2.2h-4.5z"/><path d="m350.5 300.3-.2-1.1c-1.8 1-3.5 1.5-5.2 1.5s-3-.5-4-1.4-1.5-2.1-1.5-3.7.6-2.8 1.7-3.7 2.7-1.3 4.7-1.3 2.5.1 4.1.4v-1.7c0-1.2-.3-2-1-2.6s-1.7-.9-3.1-.9-3.4.4-5.3 1.1v-2.3c.9-.4 1.9-.6 2.9-.8s2-.3 3-.3c2.1 0 3.7.5 4.8 1.5s1.6 2.4 1.6 4.3v10.8l-2.4.3zm-4.6-1.9c.6 0 1.3-.1 2.1-.3s1.5-.5 2-.8v-4.1c-1-.3-2.2-.4-3.6-.4s-2.2.2-2.8.7-.9 1.2-.9 2.2c0 1.8 1.1 2.8 3.2 2.8z"/><path d="m357 300.3v-16.1l2.4-.3.3 1.5c1.4-1.2 2.9-1.8 4.5-1.8s1 0 1.5.2v2.5c-.5-.1-1-.2-1.6-.2-1.5 0-2.9.5-4.1 1.4v12.7h-3z"/><path d="m371.7 286.2v9.3c0 1 .2 1.7.6 2.1.4.5 1.1.7 2 .7s1.4-.1 2.1-.4v2.1c-.9.3-1.8.5-2.8.5-1.6 0-2.8-.4-3.7-1.3-.8-.9-1.2-2.1-1.2-3.7v-9.4h-2.4v-2h2.6s.2-4.2.2-4.2l2.7-.3v4.3h4.5v2.2h-4.5z"/><path d="m391.1 299.6c-1.5.7-3.1 1.1-4.9 1.1-2.6 0-4.7-.7-6-2.2s-2.1-3.6-2.1-6.5.3-3.3.9-4.6 1.5-2.3 2.6-3 2.4-1 3.8-1 3.6.6 4.7 1.8 1.7 2.8 1.7 5 0 1.7-.2 2.5h-10.6c0 3.8 1.9 5.7 5.5 5.7s3.1-.3 4.6-1v2.3zm-5.8-13.9c-1.2 0-2.2.4-3 1.3s-1.2 2.1-1.3 3.6h8c0-.1 0-.2 0-.3v-.3c0-1.3-.3-2.4-1-3.1s-1.6-1.1-2.7-1.1z"/><path d="m408.3 275.9v24.2l-2.4.3-.2-1.1c-1.7 1-3.3 1.5-4.9 1.5s-3.7-.7-4.9-2.2-1.8-3.5-1.8-6.1.7-5 2.1-6.5 3.3-2.3 5.9-2.3 2.3.1 3.3.4v-7.7l3-.4zm-6.8 22.5c.6 0 1.2-.1 1.9-.3s1.3-.5 1.9-.8v-11c-.9-.3-1.8-.4-2.8-.4-1.8 0-3.1.5-3.9 1.6-.9 1.1-1.3 2.7-1.3 4.9s.4 3.5 1.1 4.5 1.8 1.5 3.2 1.5z"/><path d="m423.6 286.2v9.3c0 1 .2 1.7.6 2.1.4.5 1.1.7 2 .7s1.4-.1 2.1-.4v2.1c-.9.3-1.8.5-2.8.5-1.6 0-2.8-.4-3.7-1.3-.8-.9-1.2-2.1-1.2-3.7v-9.4h-2.4v-2h2.6s.2-4.2.2-4.2l2.7-.3v4.3h4.5v2.2h-4.5z"/><path d="m430.8 300.3v-24l3-.4v9c1.6-.9 3.3-1.3 4.8-1.3s3.1.5 4.1 1.4 1.5 2.2 1.5 4v11.4h-3v-10.9c0-2.3-1.1-3.4-3.4-3.4s-1.3.1-2 .3-1.4.5-2 .8v13.2h-3z"/><path d="m460.4 299.6c-1.5.7-3.1 1.1-4.9 1.1-2.6 0-4.7-.7-6-2.2s-2.1-3.6-2.1-6.5.3-3.3.9-4.6 1.5-2.3 2.6-3 2.4-1 3.8-1 3.6.6 4.7 1.8 1.7 2.8 1.7 5 0 1.7-.2 2.5h-10.6c0 3.8 1.9 5.7 5.5 5.7s3.1-.3 4.6-1v2.3zm-5.8-13.9c-1.2 0-2.2.4-3 1.3s-1.2 2.1-1.3 3.6h8c0-.1 0-.2 0-.3v-.3c0-1.3-.3-2.4-1-3.1s-1.6-1.1-2.7-1.1z"/><path d="m472.4 300.3v-14.1h-2.4v-2h2.4v-3.3c0-1.7.4-3 1.3-3.9s2.1-1.4 3.7-1.4 1.5.1 2.3.4v2.1c-.6-.1-1.2-.2-1.7-.2-1.8 0-2.7.9-2.7 2.8v3.3h4.1v2.2h-4.1v14.1h-3zm11.9-19.6c-.6 0-1.1-.2-1.5-.5s-.5-.8-.5-1.4.2-1 .5-1.4.8-.5 1.5-.5 1.1.2 1.5.5.5.8.5 1.4-.2 1-.5 1.4c-.4.3-.8.5-1.5.5zm-1.5 19.6v-16l3-.4v16.4z"/><path d="m490.1 300.3v-16.1l2.4-.3.3 1.5c1.4-1.2 2.9-1.8 4.5-1.8s1 0 1.5.2v2.5c-.5-.1-1-.2-1.6-.2-1.5 0-2.9.5-4.1 1.4v12.7h-3z"/><path d="m500 297.3c1.7.7 3.4 1.1 5.1 1.1s2.2-.2 2.8-.7c.7-.5 1-1.1 1-2s-.2-1-.5-1.4c-.4-.4-1-.7-1.8-.9l-2.2-.7c-1.5-.4-2.5-1-3.2-1.7s-1-1.6-1-2.7.6-2.6 1.7-3.5 2.7-1.3 4.6-1.3 3.2.3 4.6 1v2.3c-1.6-.6-3.1-.9-4.4-.9s-1.9.2-2.5.6-.9 1-.9 1.7.2.9.5 1.2.9.6 1.8.8l2.4.7c2.6.8 4 2.4 4 4.7s-.6 2.9-1.7 3.8-2.8 1.3-4.9 1.3-3.6-.3-5-1l-.4-2.5z"/><path d="m518.7 286.2v9.3c0 1 .2 1.7.6 2.1.4.5 1.1.7 2 .7s1.4-.1 2.1-.4v2.1c-.9.3-1.8.5-2.8.5-1.6 0-2.8-.4-3.7-1.3-.8-.9-1.2-2.1-1.2-3.7v-9.4h-2.4v-2h2.6s.2-4.2.2-4.2l2.7-.3v4.3h4.5v2.2h-4.5z"/><path d="m552.5 300.3v-11.3c0-2-1-3.1-3-3.1s-2.5.4-3.8 1.2c.1.5.2.9.2 1.4v11.8h-3v-11.3c0-2-1-3.1-3-3.1s-2.4.4-3.6 1.1v13.2h-3v-16.1l2.4-.3.2 1.1c1.6-1 3.3-1.5 4.8-1.5s3.2.6 4.2 1.8c1.9-1.2 3.7-1.8 5.4-1.8s2.9.4 3.8 1.3 1.4 2.1 1.4 3.6v11.8h-3z"/><path d="m566 300.7c-2.4 0-4.3-.7-5.5-2.2s-1.9-3.6-1.9-6.4.6-5 1.9-6.4c1.2-1.5 3.1-2.2 5.5-2.2s4.3.7 5.5 2.2 1.9 3.6 1.9 6.4-.6 5-1.9 6.4c-1.2 1.5-3.1 2.2-5.5 2.2zm0-2.3c1.5 0 2.6-.5 3.2-1.5.7-1 1-2.6 1-4.8s-.3-3.8-1-4.8-1.8-1.5-3.2-1.5-2.6.5-3.2 1.5c-.7 1-1 2.6-1 4.8s.3 3.8 1 4.8 1.8 1.5 3.2 1.5z"/><path d="m589.9 275.9v24.2l-2.4.3-.2-1.1c-1.7 1-3.3 1.5-4.9 1.5s-3.7-.7-4.9-2.2-1.8-3.5-1.8-6.1.7-5 2.1-6.5 3.3-2.3 5.9-2.3 2.3.1 3.3.4v-7.7l3-.4zm-6.8 22.5c.6 0 1.2-.1 1.9-.3s1.3-.5 1.9-.8v-11c-.9-.3-1.8-.4-2.8-.4-1.8 0-3.1.5-3.9 1.6-.9 1.1-1.3 2.7-1.3 4.9s.4 3.5 1.1 4.5 1.8 1.5 3.2 1.5z"/><path d="m604.8 300.3-.2-1.1c-1.7 1-3.5 1.5-5.2 1.5s-3.1-.5-4-1.4c-1-.9-1.4-2.3-1.4-3.9v-11.4h3v10.9c0 2.3 1.1 3.4 3.3 3.4s1.3-.1 2-.3 1.4-.5 2-.8v-13.2h3v16.1l-2.4.3z"/><path d="m611.5 300.3v-24l3-.4v24.4z"/><path d="m630.8 299.6c-1.5.7-3.1 1.1-4.9 1.1-2.6 0-4.7-.7-6-2.2s-2.1-3.6-2.1-6.5.3-3.3.9-4.6 1.5-2.3 2.6-3 2.4-1 3.8-1 3.6.6 4.7 1.8 1.7 2.8 1.7 5 0 1.7-.2 2.5h-10.6c0 3.8 1.9 5.7 5.5 5.7s3.1-.3 4.6-1v2.3zm-5.7-13.9c-1.2 0-2.2.4-3 1.3s-1.2 2.1-1.3 3.6h8c0-.1 0-.2 0-.3v-.3c0-1.3-.3-2.4-1-3.1s-1.6-1.1-2.7-1.1z"/><path d="m155.4 340.7-.2-1.1c-1.8 1-3.5 1.5-5.2 1.5s-3-.5-4-1.4-1.5-2.1-1.5-3.7.6-2.8 1.7-3.7 2.7-1.3 4.7-1.3 2.5.1 4.1.4v-1.7c0-1.2-.3-2-1-2.6s-1.7-.9-3.1-.9-3.4.4-5.3 1.1v-2.3c.9-.4 1.9-.6 2.9-.8s2-.3 3-.3c2.1 0 3.7.5 4.8 1.5s1.6 2.4 1.6 4.3v10.8l-2.4.3zm-4.7-1.9c.6 0 1.3-.1 2.1-.3s1.5-.5 2-.8v-4.1c-1-.3-2.2-.4-3.6-.4s-2.2.2-2.8.7-.9 1.2-.9 2.2c0 1.8 1.1 2.8 3.2 2.8z"/><path d="m167.2 337.4c1.9.9 3.8 1.4 5.7 1.4s3-.4 4-1.1c1-.8 1.5-1.8 1.5-3.1s-.4-2.3-1.3-3-2.1-1.1-3.6-1.1h-2.1v-2.4h1.9c1.4 0 2.4-.3 3.2-1s1.2-1.6 1.2-2.7-.4-2-1.2-2.7-2-1-3.4-1-3.3.3-5 1v-2.3c1.5-.7 3.3-1.1 5.4-1.1s4 .5 5.4 1.6 2 2.5 2 4.2-.3 2.2-1 3.1-1.6 1.5-2.8 1.9c1.4.4 2.5 1.1 3.3 2.1s1.2 2.1 1.2 3.5-.3 2.4-1 3.4-1.7 1.7-2.9 2.2-2.6.8-4.2.8-2.1-.1-3.1-.3-1.9-.5-2.6-.9l-.4-2.6z"/><path d="m192.2 341.1c-5.3 0-7.9-3.8-7.9-11.5s.7-6.6 2-8.5 3.3-2.9 6-2.9 4.6 1 6 2.9c1.3 1.9 2 4.8 2 8.5 0 7.6-2.6 11.5-7.9 11.5zm0-2.3c1.7 0 2.9-.7 3.6-2.2.8-1.5 1.2-3.8 1.2-6.9s-.4-5.4-1.2-6.9-2-2.2-3.6-2.2-2.9.7-3.6 2.2c-.8 1.5-1.2 3.7-1.2 6.9s.4 5.4 1.2 6.9 2 2.2 3.6 2.2z"/><path d="m202.9 333.8v-2.6h8.6v2.6z"/><path d="m234.1 340.7v-11.3c0-2-1-3.1-3-3.1s-2.5.4-3.8 1.2c.1.5.2.9.2 1.4v11.8h-3v-11.3c0-2-1-3.1-3-3.1s-2.4.4-3.6 1.1v13.2h-3v-16.1l2.4-.3.2 1.1c1.6-1 3.3-1.5 4.8-1.5s3.2.6 4.2 1.8c1.9-1.2 3.7-1.8 5.4-1.8s2.9.4 3.8 1.3 1.4 2.1 1.4 3.6v11.8h-3z"/><path d="m242.6 321.1c-.6 0-1.1-.2-1.5-.5s-.5-.8-.5-1.4.2-1 .5-1.4c.4-.3.8-.5 1.5-.5s1.1.2 1.5.5.5.8.5 1.4-.2 1-.5 1.4c-.4.3-.8.5-1.5.5zm-1.5 19.6v-16l3-.4v16.4z"/><path d="m258.7 340.7v-10.9c0-2.3-1.1-3.4-3.4-3.4s-1.3.1-2 .3-1.4.5-2 .8v13.2h-3v-16.1l2.4-.3.2 1.1c1.7-1 3.5-1.5 5.2-1.5s3.1.5 4.1 1.4 1.5 2.2 1.5 4v11.4z"/><path d="m276.5 340.7-.2-1.1c-1.7 1-3.5 1.5-5.2 1.5s-3.1-.5-4-1.4c-1-.9-1.4-2.3-1.4-3.9v-11.4h3v10.9c0 2.3 1.1 3.4 3.3 3.4s1.3-.1 2-.3 1.4-.5 2-.8v-13.2h3v16.1l-2.4.3z"/><path d="m286.8 326.6v9.3c0 1 .2 1.7.6 2.1.4.5 1.1.7 2 .7s1.4-.1 2.1-.4v2.1c-.9.3-1.8.5-2.8.5-1.6 0-2.8-.4-3.7-1.3-.8-.9-1.2-2.1-1.2-3.7v-9.4h-2.4v-2h2.6s.2-4.2.2-4.2l2.7-.3v4.3h4.5v2.2h-4.5z"/><path d="m306.2 340c-1.5.7-3.1 1.1-4.9 1.1-2.6 0-4.7-.7-6-2.2s-2.1-3.6-2.1-6.5.3-3.3.9-4.6 1.5-2.3 2.6-3 2.4-1 3.8-1 3.6.6 4.7 1.8 1.7 2.8 1.7 5 0 1.7-.2 2.5h-10.6c0 3.8 1.9 5.7 5.5 5.7s3.1-.3 4.6-1v2.3zm-5.8-13.9c-1.2 0-2.2.4-3 1.3s-1.2 2.1-1.3 3.6h8c0-.1 0-.2 0-.3v-.3c0-1.3-.3-2.4-1-3.1s-1.6-1.1-2.7-1.1z"/><path d="m321.2 326.6v9.3c0 1 .2 1.7.6 2.1.4.5 1.1.7 2 .7s1.4-.1 2.1-.4v2.1c-.9.3-1.8.5-2.8.5-1.6 0-2.8-.4-3.7-1.3-.8-.9-1.2-2.1-1.2-3.7v-9.4h-2.4v-2h2.6s.2-4.2.2-4.2l2.7-.3v4.3h4.5v2.2h-4.5z"/><path d="m330 321.1c-.6 0-1.1-.2-1.5-.5s-.5-.8-.5-1.4.2-1 .5-1.4c.4-.3.8-.5 1.5-.5s1.1.2 1.5.5.5.8.5 1.4-.2 1-.5 1.4c-.4.3-.8.5-1.5.5zm-1.5 19.6v-16l3-.4v16.4z"/><path d="m354.9 340.7v-11.3c0-2-1-3.1-3-3.1s-2.5.4-3.8 1.2c.1.5.2.9.2 1.4v11.8h-3v-11.3c0-2-1-3.1-3-3.1s-2.4.4-3.6 1.1v13.2h-3v-16.1l2.4-.3.2 1.1c1.6-1 3.3-1.5 4.8-1.5s3.2.6 4.2 1.8c1.9-1.2 3.7-1.8 5.4-1.8s2.9.4 3.8 1.3 1.4 2.1 1.4 3.6v11.8h-3z"/><path d="m374 340c-1.5.7-3.1 1.1-4.9 1.1-2.6 0-4.7-.7-6-2.2s-2.1-3.6-2.1-6.5.3-3.3.9-4.6 1.5-2.3 2.6-3 2.4-1 3.8-1 3.6.6 4.7 1.8 1.7 2.8 1.7 5 0 1.7-.2 2.5h-10.6c0 3.8 1.9 5.7 5.5 5.7s3.1-.3 4.6-1v2.3zm-5.7-13.9c-1.2 0-2.2.4-3 1.3s-1.2 2.1-1.3 3.6h8c0-.1 0-.2 0-.3v-.3c0-1.3-.3-2.4-1-3.1s-1.6-1.1-2.7-1.1z"/><path d="m378 340.7v-16.1l2.4-.3.3 1.5c1.4-1.2 2.9-1.8 4.5-1.8s1 0 1.5.2v2.5c-.5-.1-1-.2-1.6-.2-1.5 0-2.9.5-4.1 1.4v12.7h-3z"/><path d="m409.6 340.7-3.8-13.1-3.7 13.1h-2.8l-5.1-16.3h3l3.5 12.6 3.5-12.6h3.2l3.5 12.6 3.5-12.6h2.9l-5 16.3h-2.8z"/><path d="m421 321.1c-.6 0-1.1-.2-1.5-.5s-.5-.8-.5-1.4.2-1 .5-1.4c.4-.3.8-.5 1.5-.5s1.1.2 1.5.5.5.8.5 1.4-.2 1-.5 1.4c-.4.3-.8.5-1.5.5zm-1.6 19.6v-16l3-.4v16.4z"/><path d="m426.7 340.7v-24l3-.4v24.4z"/><path d="m433.9 340.7v-24l3-.4v24.4z"/><path d="m451.5 325.2c1.6-.9 3.1-1.3 4.5-1.3 2.1 0 3.7.7 4.9 2.2s1.8 3.5 1.8 6.1-.7 5.1-2.2 6.6-3.5 2.3-6.2 2.3-3.9-.3-5.8-.8v-23.7l3-.4v8.9zm3.8 1.1c-.6 0-1.2.1-1.9.3s-1.3.5-1.9.8v11c.9.3 1.8.4 2.8.4 1.7 0 3.1-.5 3.9-1.6.9-1.1 1.3-2.7 1.3-4.9s-.4-3.5-1.1-4.5-1.8-1.5-3.2-1.5z"/><path d="m478.1 340c-1.5.7-3.1 1.1-4.9 1.1-2.6 0-4.7-.7-6-2.2s-2.1-3.6-2.1-6.5.3-3.3.9-4.6 1.5-2.3 2.6-3 2.4-1 3.8-1 3.6.6 4.7 1.8 1.7 2.8 1.7 5 0 1.7-.2 2.5h-10.6c0 3.8 1.9 5.7 5.5 5.7s3.1-.3 4.6-1v2.3zm-5.8-13.9c-1.2 0-2.2.4-3 1.3s-1.2 2.1-1.3 3.6h8c0-.1 0-.2 0-.3v-.3c0-1.3-.3-2.4-1-3.1s-1.6-1.1-2.7-1.1z"/><path d="m487.7 348.2c-2 0-3.7-.3-5-1l-.4-2.5c1.7.7 3.4 1.1 5.1 1.1 3.3 0 4.9-1.5 4.9-4.4v-1.9c-1.6.9-3.1 1.3-4.5 1.3-2.1 0-3.7-.7-4.9-2.1s-1.8-3.4-1.8-5.9.7-5.1 2.2-6.6 3.5-2.3 6.2-2.3 1.8.1 2.8.3 2 .5 3 .8v16c0 2.3-.7 4.1-2 5.3s-3.2 1.9-5.7 1.9zm.8-9.7c.6 0 1.2-.1 1.9-.3s1.3-.5 1.9-.8v-10.7c-.9-.3-1.8-.4-2.8-.4-1.8 0-3.1.5-3.9 1.6-.9 1.1-1.3 2.7-1.3 4.9s.4 3.3 1.1 4.3 1.8 1.5 3.2 1.5z"/><path d="m501 321.1c-.6 0-1.1-.2-1.5-.5s-.5-.8-.5-1.4.2-1 .5-1.4c.4-.3.8-.5 1.5-.5s1.1.2 1.5.5.5.8.5 1.4-.2 1-.5 1.4c-.4.3-.8.5-1.5.5zm-1.5 19.6v-16l3-.4v16.4z"/><path d="m517.2 340.7v-10.9c0-2.3-1.1-3.4-3.4-3.4s-1.3.1-2 .3-1.4.5-2 .8v13.2h-3v-16.1l2.4-.3.2 1.1c1.7-1 3.5-1.5 5.2-1.5s3.1.5 4.1 1.4 1.5 2.2 1.5 4v11.4z"/><path d="m525.4 340.8c-.6 0-1-.2-1.4-.5-.4-.4-.5-.8-.5-1.4s.2-1 .5-1.4.8-.5 1.4-.5 1 .2 1.4.5c.4.4.5.8.5 1.4s-.2 1-.5 1.4c-.4.4-.8.5-1.4.5z"/><path d="m159.6 449.3-10.8-17.2v17.2h-3v-22.4h2.8l10.8 17.2v-17.2h3v22.4z"/><path d="m177.1 449.3-.2-1.1c-1.8 1-3.5 1.5-5.2 1.5s-3-.5-4-1.4-1.5-2.1-1.5-3.7.6-2.8 1.7-3.7 2.7-1.3 4.7-1.3 2.5.1 4.1.4v-1.7c0-1.2-.3-2-1-2.6s-1.7-.9-3.1-.9-3.4.4-5.3 1.1v-2.3c.9-.4 1.9-.6 2.9-.8s2-.3 3-.3c2.1 0 3.7.5 4.8 1.5s1.6 2.4 1.6 4.3v10.8l-2.4.3zm-4.7-1.9c.6 0 1.3-.1 2.1-.3s1.5-.5 2-.8v-4.1c-1-.3-2.2-.4-3.6-.4s-2.2.2-2.8.7-.9 1.2-.9 2.2c0 1.8 1.1 2.8 3.2 2.8z"/><path d="m187.4 449.3-6-16.3h3.2l4.4 13 4.4-13h3.1l-6.1 16.3h-2.9z"/><path d="m199.8 429.7c-.6 0-1.1-.2-1.5-.5s-.5-.8-.5-1.4.2-1 .5-1.4c.4-.3.8-.5 1.5-.5s1.1.2 1.5.5.5.8.5 1.4-.2 1-.5 1.4c-.4.3-.8.5-1.5.5zm-1.5 19.6v-16l3-.4v16.4z"/><path d="m211.2 456.8c-2 0-3.7-.3-5-1l-.4-2.5c1.7.7 3.4 1.1 5.1 1.1 3.3 0 4.9-1.5 4.9-4.4v-1.9c-1.6.9-3.1 1.3-4.5 1.3-2.1 0-3.7-.7-4.9-2.1s-1.8-3.4-1.8-5.9.7-5.1 2.2-6.6 3.5-2.3 6.2-2.3 1.8.1 2.8.3 2 .5 3 .8v16c0 2.3-.7 4.1-2 5.3s-3.2 1.9-5.7 1.9zm.8-9.7c.6 0 1.2-.1 1.9-.3s1.3-.5 1.9-.8v-10.7c-.9-.3-1.8-.4-2.8-.4-1.8 0-3.1.5-3.9 1.6-.9 1.1-1.3 2.7-1.3 4.9s.4 3.3 1.1 4.3 1.8 1.5 3.2 1.5z"/><path d="m233 449.3-.2-1.1c-1.8 1-3.5 1.5-5.2 1.5s-3-.5-4-1.4-1.5-2.1-1.5-3.7.6-2.8 1.7-3.7 2.7-1.3 4.7-1.3 2.5.1 4.1.4v-1.7c0-1.2-.3-2-1-2.6s-1.7-.9-3.1-.9-3.4.4-5.3 1.1v-2.3c.9-.4 1.9-.6 2.9-.8s2-.3 3-.3c2.1 0 3.7.5 4.8 1.5s1.6 2.4 1.6 4.3v10.8l-2.4.3zm-4.6-1.9c.6 0 1.3-.1 2.1-.3s1.5-.5 2-.8v-4.1c-1-.3-2.2-.4-3.6-.4s-2.2.2-2.8.7-.9 1.2-.9 2.2c0 1.8 1.1 2.8 3.2 2.8z"/><path d="m243.2 435.2v9.3c0 1 .2 1.7.6 2.1.4.5 1.1.7 2 .7s1.4-.1 2.1-.4v2.1c-.9.3-1.8.5-2.8.5-1.6 0-2.8-.4-3.7-1.3-.8-.9-1.2-2.1-1.2-3.7v-9.4h-2.4v-2h2.6s.2-4.2.2-4.2l2.7-.3v4.3h4.5v2.2h-4.5z"/><path d="m262.6 448.6c-1.5.7-3.1 1.1-4.9 1.1-2.6 0-4.7-.7-6-2.2-1.4-1.5-2.1-3.6-2.1-6.5s.3-3.3.9-4.6 1.5-2.3 2.6-3 2.4-1 3.8-1 3.6.6 4.7 1.8c1.2 1.2 1.7 2.8 1.7 5s0 1.7-.2 2.5h-10.6c0 3.8 1.9 5.7 5.5 5.7s3.1-.3 4.6-1v2.3zm-5.8-13.9c-1.2 0-2.2.4-3 1.3s-1.2 2.1-1.3 3.6h8c0-.1 0-.2 0-.3v-.3c0-1.3-.3-2.4-1-3.1s-1.6-1.1-2.7-1.1z"/><path d="m277.6 435.2v9.3c0 1 .2 1.7.6 2.1.4.5 1.1.7 2 .7s1.4-.1 2.1-.4v2.1c-.9.3-1.8.5-2.8.5-1.6 0-2.8-.4-3.7-1.3-.8-.9-1.2-2.1-1.2-3.7v-9.4h-2.4v-2h2.6s.2-4.2.2-4.2l2.7-.3v4.3h4.5v2.2h-4.5z"/><path d="m284.9 449.3v-24l3-.4v9c1.6-.9 3.3-1.3 4.8-1.3s3.1.5 4.1 1.4 1.5 2.2 1.5 4v11.4h-3v-10.9c0-2.3-1.1-3.4-3.4-3.4s-1.3.1-2 .3-1.4.5-2 .8v13.2h-3z"/><path d="m314.4 448.6c-1.5.7-3.1 1.1-4.9 1.1-2.6 0-4.7-.7-6-2.2-1.4-1.5-2.1-3.6-2.1-6.5s.3-3.3.9-4.6 1.5-2.3 2.6-3 2.4-1 3.8-1 3.6.6 4.7 1.8c1.2 1.2 1.7 2.8 1.7 5s0 1.7-.2 2.5h-10.6c0 3.8 1.9 5.7 5.5 5.7s3.1-.3 4.6-1v2.3zm-5.7-13.9c-1.2 0-2.2.4-3 1.3s-1.2 2.1-1.3 3.6h8c0-.1 0-.2 0-.3v-.3c0-1.3-.3-2.4-1-3.1s-1.6-1.1-2.7-1.1z"/><path d="m345 449.3v-11.3c0-2-1-3.1-3-3.1s-2.5.4-3.8 1.2c.1.5.2.9.2 1.4v11.8h-3v-11.3c0-2-1-3.1-3-3.1s-2.4.4-3.6 1.1v13.2h-3v-16.1l2.4-.3.2 1.1c1.6-1 3.3-1.5 4.8-1.5s3.2.6 4.2 1.8c1.9-1.2 3.7-1.8 5.4-1.8s2.9.4 3.8 1.3 1.4 2.1 1.4 3.6v11.8h-3z"/><path d="m358.4 449.7c-2.4 0-4.3-.7-5.5-2.2s-1.9-3.6-1.9-6.4.6-5 1.9-6.4 3.1-2.2 5.5-2.2 4.3.7 5.5 2.2 1.9 3.6 1.9 6.4-.6 5-1.9 6.4-3.1 2.2-5.5 2.2zm0-2.3c1.5 0 2.6-.5 3.2-1.5.7-1 1-2.6 1-4.8s-.3-3.8-1-4.8-1.8-1.5-3.2-1.5-2.6.5-3.2 1.5c-.7 1-1 2.6-1 4.8s.3 3.8 1 4.8 1.8 1.5 3.2 1.5z"/><path d="m382.3 424.9v24.2l-2.4.3-.2-1.1c-1.7 1-3.3 1.5-4.9 1.5s-3.7-.7-4.9-2.2-1.8-3.5-1.8-6.1.7-5 2.1-6.5 3.3-2.3 5.9-2.3 2.3.1 3.3.4v-7.7l3-.4zm-6.8 22.5c.6 0 1.2-.1 1.9-.3s1.3-.5 1.9-.8v-11c-.9-.3-1.8-.4-2.8-.4-1.8 0-3.1.5-3.9 1.6-.9 1.1-1.3 2.7-1.3 4.9s.4 3.5 1.1 4.5 1.8 1.5 3.2 1.5z"/><path d="m397.2 449.3-.2-1.1c-1.7 1-3.5 1.5-5.2 1.5s-3.1-.5-4-1.4c-1-.9-1.4-2.2-1.4-3.9v-11.4h3v10.9c0 2.3 1.1 3.4 3.3 3.4s1.3-.1 2-.3 1.4-.5 2-.8v-13.2h3v16.1l-2.4.3z"/><path d="m403.9 449.3v-24l3-.4v24.4z"/><path d="m423.2 448.6c-1.5.7-3.1 1.1-4.9 1.1-2.6 0-4.7-.7-6-2.2-1.4-1.5-2.1-3.6-2.1-6.5s.3-3.3.9-4.6 1.5-2.3 2.6-3 2.4-1 3.8-1 3.6.6 4.7 1.8c1.2 1.2 1.7 2.8 1.7 5s0 1.7-.2 2.5h-10.6c0 3.8 1.9 5.7 5.5 5.7s3.1-.3 4.6-1v2.3zm-5.7-13.9c-1.2 0-2.2.4-3 1.3s-1.2 2.1-1.3 3.6h8c0-.1 0-.2 0-.3v-.3c0-1.3-.3-2.4-1-3.1s-1.6-1.1-2.7-1.1z"/><path d="m426.1 446.3c1.7.7 3.4 1.1 5.1 1.1s2.2-.2 2.8-.7c.7-.5 1-1.1 1-2s-.2-1-.5-1.4c-.4-.4-1-.7-1.8-.9l-2.2-.7c-1.5-.4-2.5-1-3.2-1.7s-1-1.6-1-2.7.6-2.6 1.7-3.5 2.7-1.3 4.6-1.3 3.2.3 4.6 1v2.3c-1.6-.6-3.1-.9-4.4-.9s-1.9.2-2.5.6-.9 1-.9 1.7.2.9.5 1.2.9.6 1.8.8l2.4.7c2.6.8 4 2.4 4 4.7s-.6 2.9-1.7 3.8-2.8 1.3-4.9 1.3-3.6-.3-5-1l-.4-2.5z"/><path d="m451.5 433.8c1.6-.9 3.1-1.3 4.5-1.3 2.1 0 3.7.7 4.9 2.2s1.8 3.5 1.8 6.1-.7 5.1-2.2 6.6-3.5 2.3-6.2 2.3-3.9-.3-5.8-.8v-23.7l3-.4v8.9zm3.8 1.1c-.6 0-1.2.1-1.9.3s-1.3.5-1.9.8v11c.9.3 1.8.4 2.8.4 1.7 0 3.1-.5 3.9-1.6s1.3-2.7 1.3-4.9-.4-3.5-1.1-4.5-1.8-1.5-3.2-1.5z"/><path d="m463.7 453.9c1-.2 1.9-.4 2.5-.7.7-.3 1.3-.8 1.8-1.4s1-1.4 1.5-2.4l-6.1-16.4h3.2l4.4 13 4.4-13h3.1l-5.9 15.6c-.6 1.7-1.3 3.1-2 4.1s-1.5 1.8-2.4 2.4-2.2 1-3.7 1.4l-.7-2.6z"/><path d="m498.5 449.3-.2-1.1c-1.7 1-3.5 1.5-5.2 1.5s-3.1-.5-4-1.4c-1-.9-1.4-2.2-1.4-3.9v-11.4h3v10.9c0 2.3 1.1 3.4 3.3 3.4s1.3-.1 2-.3 1.4-.5 2-.8v-13.2h3v16.1l-2.4.3z"/><path d="m504 446.3c1.7.7 3.4 1.1 5.1 1.1s2.2-.2 2.8-.7c.7-.5 1-1.1 1-2s-.2-1-.5-1.4c-.4-.4-1-.7-1.8-.9l-2.2-.7c-1.5-.4-2.5-1-3.2-1.7s-1-1.6-1-2.7.6-2.6 1.7-3.5 2.7-1.3 4.6-1.3 3.2.3 4.6 1v2.3c-1.6-.6-3.1-.9-4.4-.9s-1.9.2-2.5.6-.9 1-.9 1.7.2.9.5 1.2.9.6 1.8.8l2.4.7c2.6.8 4 2.4 4 4.7s-.6 2.9-1.7 3.8-2.8 1.3-4.9 1.3-3.6-.3-5-1l-.4-2.5z"/><path d="m520.6 429.7c-.6 0-1.1-.2-1.5-.5s-.5-.8-.5-1.4.2-1 .5-1.4c.4-.3.8-.5 1.5-.5s1.1.2 1.5.5.5.8.5 1.4-.2 1-.5 1.4c-.4.3-.8.5-1.5.5zm-1.5 19.6v-16l3-.4v16.4z"/><path d="m536.7 449.3v-10.9c0-2.3-1.1-3.4-3.4-3.4s-1.3.1-2 .3-1.4.5-2 .8v13.2h-3v-16.1l2.4-.3.2 1.1c1.7-1 3.5-1.5 5.2-1.5s3.1.5 4.1 1.4 1.5 2.2 1.5 4v11.4z"/><path d="m549.3 456.8c-2 0-3.7-.3-5-1l-.4-2.5c1.7.7 3.4 1.1 5.1 1.1 3.3 0 4.9-1.5 4.9-4.4v-1.9c-1.6.9-3.1 1.3-4.5 1.3-2.1 0-3.7-.7-4.9-2.1s-1.8-3.4-1.8-5.9.7-5.1 2.2-6.6 3.5-2.3 6.2-2.3 1.8.1 2.8.3 2 .5 3 .8v16c0 2.3-.7 4.1-2 5.3s-3.2 1.9-5.7 1.9zm.9-9.7c.6 0 1.2-.1 1.9-.3s1.3-.5 1.9-.8v-10.7c-.9-.3-1.8-.4-2.8-.4-1.8 0-3.1.5-3.9 1.6-.9 1.1-1.3 2.7-1.3 4.9s.4 3.3 1.1 4.3 1.8 1.5 3.2 1.5z"/><path d="m572.2 435.2v9.3c0 1 .2 1.7.6 2.1.4.5 1.1.7 2 .7s1.4-.1 2.1-.4v2.1c-.9.3-1.8.5-2.8.5-1.6 0-2.8-.4-3.7-1.3-.8-.9-1.2-2.1-1.2-3.7v-9.4h-2.4v-2h2.6s.2-4.2.2-4.2l2.7-.3v4.3h4.5v2.2h-4.5z"/><path d="m579.5 449.3v-24l3-.4v9c1.6-.9 3.3-1.3 4.8-1.3s3.1.5 4.1 1.4 1.5 2.2 1.5 4v11.4h-3v-10.9c0-2.3-1.1-3.4-3.4-3.4s-1.3.1-2 .3-1.4.5-2 .8v13.2h-3z"/><path d="m609 448.6c-1.5.7-3.1 1.1-4.9 1.1-2.6 0-4.7-.7-6-2.2-1.4-1.5-2.1-3.6-2.1-6.5s.3-3.3.9-4.6 1.5-2.3 2.6-3 2.4-1 3.8-1 3.6.6 4.7 1.8c1.2 1.2 1.7 2.8 1.7 5s0 1.7-.2 2.5h-10.6c0 3.8 1.9 5.7 5.5 5.7s3.1-.3 4.6-1v2.3zm-5.7-13.9c-1.2 0-2.2.4-3 1.3s-1.2 2.1-1.3 3.6h8c0-.1 0-.2 0-.3v-.3c0-1.3-.3-2.4-1-3.1s-1.6-1.1-2.7-1.1z"/><path d="m149.3 467.1c-.6.7-1.2 1.6-1.6 2.4-.4.9-.6 1.7-.7 2.5.4.1.8.3 1 .7s.4.7.4 1.2-.2 1-.6 1.4-.8.5-1.4.5-1-.2-1.4-.6-.5-1-.5-1.8.2-1.6.5-2.5c.4-.9.8-1.7 1.4-2.5s1.2-1.4 1.9-1.9l.9.6zm5.9 0c-.6.7-1.2 1.6-1.6 2.4-.4.9-.6 1.7-.7 2.5.4.1.8.3 1 .7.2.3.4.7.4 1.2s-.2 1-.6 1.4-.8.5-1.4.5-1-.2-1.4-.6-.5-1-.5-1.8.2-1.6.5-2.5c.4-.9.8-1.7 1.4-2.5s1.2-1.4 1.9-1.9l.9.6z"/><path d="m158.2 489.7v-21.9c1-.2 2.1-.4 3.4-.5s2.3-.2 3.2-.2c2.6 0 4.7.6 6.2 1.9s2.2 3 2.2 5.2-.8 3.9-2.3 5.2-3.7 1.9-6.4 1.9h-3.3v8.5h-3.1zm6.4-20.3c-1 0-2.1.1-3.3.3v9h3.2c1.7 0 3.1-.4 4-1.2s1.4-2 1.4-3.5-.5-2.7-1.4-3.5-2.2-1.2-4-1.2z"/><path d="m175.6 489.7v-16.1l2.4-.3.3 1.5c1.4-1.2 2.9-1.8 4.5-1.8s1 0 1.5.2v2.5c-.5-.1-1-.2-1.6-.2-1.5 0-2.9.5-4.1 1.4v12.7h-3z"/><path d="m198.4 489c-1.5.7-3.1 1.1-4.9 1.1-2.6 0-4.7-.7-6-2.2-1.4-1.5-2.1-3.6-2.1-6.5s.3-3.3.9-4.6 1.5-2.3 2.6-3 2.4-1 3.8-1 3.6.6 4.7 1.8c1.2 1.2 1.7 2.8 1.7 5s0 1.7-.2 2.5h-10.6c0 3.8 1.9 5.7 5.5 5.7s3.1-.3 4.6-1v2.3zm-5.7-13.9c-1.2 0-2.2.4-3 1.3s-1.2 2.1-1.3 3.6h8c0-.1 0-.2 0-.3v-.3c0-1.3-.3-2.4-1-3.1s-1.6-1.1-2.7-1.1z"/><path d="m206.2 489.7-6-16.3h3.2l4.4 13 4.4-13h3.1l-6.1 16.3h-2.9z"/><path d="m218.7 470.1c-.6 0-1.1-.2-1.5-.5s-.5-.8-.5-1.4.2-1 .5-1.4c.4-.3.8-.5 1.5-.5s1.1.2 1.5.5.5.8.5 1.4-.2 1-.5 1.4c-.4.3-.8.5-1.5.5zm-1.5 19.6v-16l3-.4v16.4z"/><path d="m230.8 490.1c-2.4 0-4.3-.7-5.5-2.2s-1.9-3.6-1.9-6.4.6-5 1.9-6.4c1.2-1.5 3.1-2.2 5.5-2.2s4.3.7 5.5 2.2 1.9 3.6 1.9 6.4-.6 5-1.9 6.4c-1.2 1.5-3.1 2.2-5.5 2.2zm0-2.3c1.5 0 2.6-.5 3.2-1.5s1-2.6 1-4.8-.3-3.8-1-4.8-1.8-1.5-3.2-1.5-2.6.5-3.2 1.5-1 2.6-1 4.8.3 3.8 1 4.8 1.8 1.5 3.2 1.5z"/><path d="m252.2 489.7-.2-1.1c-1.7 1-3.5 1.5-5.2 1.5s-3.1-.5-4-1.4-1.4-2.3-1.4-3.9v-11.4h3v10.9c0 2.3 1.1 3.4 3.3 3.4s1.3-.1 2-.3 1.4-.5 2-.8v-13.2h3v16.1l-2.4.3z"/><path d="m257.7 486.7c1.7.7 3.4 1.1 5.1 1.1s2.2-.2 2.8-.7c.7-.5 1-1.1 1-2s-.2-1-.5-1.4-1-.7-1.8-.9l-2.2-.7c-1.5-.4-2.5-1-3.2-1.7s-1-1.6-1-2.7.6-2.6 1.7-3.5 2.7-1.3 4.6-1.3 3.2.3 4.6 1v2.3c-1.6-.6-3.1-.9-4.4-.9s-1.9.2-2.5.6-.9 1-.9 1.7.2.9.5 1.2.9.6 1.8.8l2.4.7c2.6.8 4 2.4 4 4.7s-.6 2.9-1.7 3.8-2.8 1.3-4.9 1.3-3.6-.3-5-1l-.4-2.5z"/><path d="m270.5 475.2c.7-.7 1.2-1.6 1.6-2.4.4-.9.6-1.7.6-2.5-.4-.1-.8-.3-1-.7-.2-.3-.4-.7-.4-1.2s.2-1 .6-1.4.8-.5 1.4-.5 1 .2 1.4.6.5 1 .5 1.8-.2 1.6-.5 2.5c-.4.9-.8 1.7-1.4 2.5s-1.2 1.4-1.9 1.9zm5.9 0c.7-.7 1.2-1.6 1.6-2.4.4-.9.6-1.7.6-2.5-.4-.1-.8-.3-1-.7-.2-.3-.4-.7-.4-1.2s.2-1 .6-1.4.8-.5 1.4-.5 1 .2 1.4.6.5 1 .5 1.8-.2 1.6-.5 2.5c-.4.9-.8 1.7-1.4 2.5s-1.2 1.4-1.9 1.9z"/><path d="m307 489.7-3-3.1c-1 1.2-2.1 2.1-3.2 2.7s-2.3.9-3.7.9-3.5-.5-4.7-1.6-1.8-2.5-1.8-4.3c0-2.7 1.6-4.9 4.7-6.8-1-1.1-1.7-2.1-2.1-2.9s-.6-1.7-.6-2.6c0-1.5.5-2.8 1.6-3.7 1-.9 2.4-1.4 4-1.4s2.1.2 2.9.7c.8.4 1.5 1.1 2 1.8.5.8.7 1.6.7 2.6s-.4 2.1-1.1 3.1c-.7.9-1.9 1.9-3.5 2.9l4.7 4.8c1.8-2.3 3.2-4.1 4.4-5.4l.8 2.9c-1.2 1.3-2.4 2.8-3.5 4.3l5.1 5.2h-3.5zm-9.7-1.9c.9 0 1.7-.2 2.5-.7s1.6-1.3 2.4-2.3l-5.4-5.7c-1.1.7-1.9 1.5-2.4 2.3s-.8 1.7-.8 2.6.3 2 1 2.8c.7.7 1.5 1.1 2.7 1.1zm-2.1-15.8c0 .6.2 1.3.5 1.9.4.6 1 1.4 1.8 2.4 1.2-.7 2.1-1.4 2.6-2.1s.8-1.4.8-2.2-.3-1.6-.8-2.1-1.2-.8-2.1-.8-1.5.3-2.1.8c-.5.5-.8 1.3-.8 2.1z"/><path d="m323.6 467.1c-.6.7-1.2 1.6-1.6 2.4-.4.9-.6 1.7-.7 2.5.4.1.8.3 1 .7s.4.7.4 1.2-.2 1-.6 1.4-.8.5-1.4.5-1-.2-1.4-.6-.5-1-.5-1.8.2-1.6.5-2.5c.4-.9.8-1.7 1.4-2.5s1.2-1.4 1.9-1.9l.9.6zm5.8 0c-.6.7-1.2 1.6-1.6 2.4-.4.9-.6 1.7-.7 2.5.4.1.8.3 1 .7.2.3.4.7.4 1.2s-.2 1-.6 1.4-.8.5-1.4.5-1-.2-1.4-.6-.5-1-.5-1.8.2-1.6.5-2.5c.4-.9.8-1.7 1.4-2.5s1.2-1.4 1.9-1.9l.9.6z"/><path d="m346.3 489.7-10.8-17.2v17.2h-3v-22.4h2.8l10.8 17.2v-17.2h3v22.4z"/><path d="m365.9 489c-1.5.7-3.1 1.1-4.9 1.1-2.6 0-4.7-.7-6-2.2-1.4-1.5-2.1-3.6-2.1-6.5s.3-3.3.9-4.6 1.5-2.3 2.6-3 2.4-1 3.8-1 3.6.6 4.7 1.8c1.2 1.2 1.7 2.8 1.7 5s0 1.7-.2 2.5h-10.6c0 3.8 1.9 5.7 5.5 5.7s3.1-.3 4.6-1v2.3zm-5.7-13.9c-1.2 0-2.2.4-3 1.3s-1.2 2.1-1.3 3.6h8c0-.1 0-.2 0-.3v-.3c0-1.3-.3-2.4-1-3.1s-1.6-1.1-2.7-1.1z"/><path d="m379.5 489.7-4.3-6.4-4.3 6.4h-3.2l5.9-8.3-5.5-7.9h3.3l3.9 6 3.9-6h3.2l-5.6 7.9 6 8.3z"/><path d="m388.5 475.6v9.3c0 1 .2 1.7.6 2.1s1.1.7 2 .7 1.4-.1 2.1-.4v2.1c-.9.3-1.8.5-2.8.5-1.6 0-2.8-.4-3.7-1.3s-1.2-2.1-1.2-3.7v-9.4h-2.4v-2h2.6s.2-4.2.2-4.2l2.7-.3v4.3h4.5v2.2h-4.5z"/><path d="m394.2 475.2c.7-.7 1.2-1.6 1.6-2.4.4-.9.6-1.7.6-2.5-.4-.1-.8-.3-1-.7-.2-.3-.4-.7-.4-1.2s.2-1 .6-1.4.8-.5 1.4-.5 1 .2 1.4.6.5 1 .5 1.8-.2 1.6-.5 2.5c-.4.9-.8 1.7-1.4 2.5s-1.2 1.4-1.9 1.9zm5.9 0c.7-.7 1.2-1.6 1.6-2.4.4-.9.6-1.7.6-2.5-.4-.1-.8-.3-1-.7-.2-.3-.4-.7-.4-1.2s.2-1 .6-1.4.8-.5 1.4-.5 1 .2 1.4.6.5 1 .5 1.8-.2 1.6-.5 2.5c-.4.9-.8 1.7-1.4 2.5s-1.2 1.4-1.9 1.9z"/><path d="m418.6 474.2c1.6-.9 3.1-1.3 4.5-1.3 2.1 0 3.7.7 4.9 2.2s1.8 3.5 1.8 6.1-.7 5.1-2.2 6.6-3.5 2.3-6.2 2.3-3.9-.3-5.8-.8v-23.7l3-.4v8.9zm3.8 1.1c-.6 0-1.2.1-1.9.3s-1.3.5-1.9.8v11c.9.3 1.8.4 2.8.4 1.7 0 3.1-.5 3.9-1.6.9-1.1 1.3-2.7 1.3-4.9s-.4-3.5-1.1-4.5-1.8-1.5-3.2-1.5z"/><path d="m443.8 489.7-.2-1.1c-1.7 1-3.5 1.5-5.2 1.5s-3.1-.5-4-1.4-1.4-2.3-1.4-3.9v-11.4h3v10.9c0 2.3 1.1 3.4 3.3 3.4s1.3-.1 2-.3 1.4-.5 2-.8v-13.2h3v16.1l-2.4.3z"/><path d="m454.1 475.6v9.3c0 1 .2 1.7.6 2.1s1.1.7 2 .7 1.4-.1 2.1-.4v2.1c-.9.3-1.8.5-2.8.5-1.6 0-2.8-.4-3.7-1.3s-1.2-2.1-1.2-3.7v-9.4h-2.4v-2h2.6s.2-4.2.2-4.2l2.7-.3v4.3h4.5v2.2h-4.5z"/><path d="m465 475.6v9.3c0 1 .2 1.7.6 2.1s1.1.7 2 .7 1.4-.1 2.1-.4v2.1c-.9.3-1.8.5-2.8.5-1.6 0-2.8-.4-3.7-1.3s-1.2-2.1-1.2-3.7v-9.4h-2.4v-2h2.6s.2-4.2.2-4.2l2.7-.3v4.3h4.5v2.2h-4.5z"/><path d="m478.7 490.1c-2.4 0-4.3-.7-5.5-2.2s-1.9-3.6-1.9-6.4.6-5 1.9-6.4c1.2-1.5 3.1-2.2 5.5-2.2s4.3.7 5.5 2.2 1.9 3.6 1.9 6.4-.6 5-1.9 6.4c-1.2 1.5-3.1 2.2-5.5 2.2zm0-2.3c1.5 0 2.6-.5 3.2-1.5s1-2.6 1-4.8-.3-3.8-1-4.8-1.8-1.5-3.2-1.5-2.6.5-3.2 1.5-1 2.6-1 4.8.3 3.8 1 4.8 1.8 1.5 3.2 1.5z"/><path d="m499.8 489.7v-10.9c0-2.3-1.1-3.4-3.4-3.4s-1.3.1-2 .3-1.4.5-2 .8v13.2h-3v-16.1l2.4-.3.2 1.1c1.7-1 3.5-1.5 5.2-1.5s3.1.5 4.1 1.4 1.5 2.2 1.5 4v11.4z"/><path d="m505.7 486.7c1.7.7 3.4 1.1 5.1 1.1s2.2-.2 2.8-.7c.7-.5 1-1.1 1-2s-.2-1-.5-1.4-1-.7-1.8-.9l-2.2-.7c-1.5-.4-2.5-1-3.2-1.7s-1-1.6-1-2.7.6-2.6 1.7-3.5 2.7-1.3 4.6-1.3 3.2.3 4.6 1v2.3c-1.6-.6-3.1-.9-4.4-.9s-1.9.2-2.5.6-.9 1-.9 1.7.2.9.5 1.2.9.6 1.8.8l2.4.7c2.6.8 4 2.4 4 4.7s-.6 2.9-1.7 3.8-2.8 1.3-4.9 1.3-3.6-.3-5-1l-.4-2.5z"/><path d="m521.9 489.8c-.6 0-1-.2-1.4-.5-.4-.4-.5-.8-.5-1.4s.2-1 .5-1.4.8-.5 1.4-.5 1 .2 1.4.5c.4.4.5.8.5 1.4s-.2 1-.5 1.4-.8.5-1.4.5z"/><path d="m144.7 580.1c0-3.8.8-6.7 2.4-8.7s4-3 7.1-3 5.4 1 7.1 3c1.6 2 2.4 4.9 2.4 8.7s-.8 6.7-2.4 8.7-4 3-7.1 3-5.4-1-7.1-3c-1.6-2-2.4-4.9-2.4-8.7zm3.3 0c0 3.1.5 5.4 1.5 6.9s2.6 2.3 4.7 2.3 3.7-.8 4.7-2.3 1.5-3.8 1.5-6.9-.5-5.4-1.5-6.9-2.6-2.3-4.7-2.3-3.7.8-4.7 2.3-1.5 3.8-1.5 6.9z"/><path d="m177.7 591.3v-10.9c0-2.3-1.1-3.4-3.4-3.4s-1.3.1-2 .3-1.4.5-2 .8v13.2h-3v-16.1l2.4-.3.2 1.1c1.7-1 3.5-1.5 5.2-1.5s3.1.5 4.1 1.4 1.5 2.2 1.5 4v11.4z"/><path d="m196 590.7c-1.5.7-3.1 1.1-4.9 1.1s-4.2-.7-5.4-2.2c-1.3-1.5-1.9-3.6-1.9-6.3s.6-4.9 1.9-6.4 3.1-2.3 5.5-2.3 3.2.4 4.8 1.1v2.3c-1.5-.6-2.9-1-4.2-1s-2.8.5-3.6 1.6c-.8 1-1.2 2.6-1.2 4.6s.4 3.6 1.2 4.6c.8 1.1 2 1.6 3.6 1.6s2.8-.3 4.3-1v2.3z"/><path d="m210.9 590.6c-1.5.7-3.1 1.1-4.9 1.1-2.6 0-4.7-.7-6-2.2-1.4-1.5-2.1-3.6-2.1-6.5s.3-3.3.9-4.6 1.5-2.3 2.6-3 2.4-1 3.8-1 3.6.6 4.7 1.8c1.2 1.2 1.7 2.8 1.7 5s0 1.7-.2 2.5h-10.6c0 3.8 1.9 5.7 5.5 5.7s3.1-.3 4.6-1v2.3zm-5.8-13.9c-1.2 0-2.2.4-3 1.3s-1.2 2.1-1.3 3.6h8c0-.1 0-.2 0-.3v-.3c0-1.3-.3-2.4-1-3.1s-1.6-1.1-2.7-1.1z"/><path d="m220.3 595.9c1-.2 1.9-.4 2.5-.7.7-.3 1.3-.8 1.8-1.4s1-1.4 1.5-2.4l-6.1-16.4h3.2l4.4 13 4.4-13h3.1l-5.9 15.6c-.6 1.7-1.3 3.1-2 4.1s-1.5 1.8-2.4 2.4-2.2 1-3.7 1.4l-.7-2.6z"/><path d="m243.1 591.7c-2.4 0-4.3-.7-5.5-2.2s-1.9-3.6-1.9-6.4.6-5 1.9-6.4 3.1-2.2 5.5-2.2 4.3.7 5.5 2.2 1.9 3.6 1.9 6.4-.6 5-1.9 6.4-3.1 2.2-5.5 2.2zm0-2.3c1.5 0 2.6-.5 3.2-1.5.7-1 1-2.6 1-4.8s-.3-3.8-1-4.8-1.8-1.5-3.2-1.5-2.6.5-3.2 1.5c-.7 1-1 2.6-1 4.8s.3 3.8 1 4.8 1.8 1.5 3.2 1.5z"/><path d="m264.5 591.3-.2-1.1c-1.7 1-3.5 1.5-5.2 1.5s-3.1-.5-4-1.4c-1-.9-1.4-2.2-1.4-3.9v-11.4h3v10.9c0 2.3 1.1 3.4 3.3 3.4s1.3-.1 2-.3 1.4-.5 2-.8v-13.2h3v16.1l-2.4.3z"/><path d="m269.5 576.8c.7-.7 1.2-1.6 1.6-2.4.4-.9.6-1.7.6-2.5-.4-.1-.8-.3-1-.7-.2-.3-.4-.7-.4-1.2s.2-1 .6-1.4.8-.5 1.4-.5 1 .2 1.4.6.5 1 .5 1.8-.2 1.6-.5 2.5c-.4.9-.8 1.7-1.4 2.5s-1.2 1.4-1.9 1.9z"/><path d="m281.5 591.3-6-16.3h3.2l4.4 13 4.4-13h3.1l-6.1 16.3h-2.9z"/><path d="m304.3 590.6c-1.5.7-3.1 1.1-4.9 1.1-2.6 0-4.7-.7-6-2.2-1.4-1.5-2.1-3.6-2.1-6.5s.3-3.3.9-4.6 1.5-2.3 2.6-3 2.4-1 3.8-1 3.6.6 4.7 1.8c1.2 1.2 1.7 2.8 1.7 5s0 1.7-.2 2.5h-10.6c0 3.8 1.9 5.7 5.5 5.7s3.1-.3 4.6-1v2.3zm-5.7-13.9c-1.2 0-2.2.4-3 1.3s-1.2 2.1-1.3 3.6h8c0-.1 0-.2 0-.3v-.3c0-1.3-.3-2.4-1-3.1s-1.6-1.1-2.7-1.1z"/><path d="m326.9 590.7c-1.5.7-3.1 1.1-4.9 1.1s-4.2-.7-5.4-2.2c-1.3-1.5-1.9-3.6-1.9-6.3s.6-4.9 1.9-6.4 3.1-2.3 5.5-2.3 3.2.4 4.8 1.1v2.3c-1.5-.6-2.9-1-4.2-1s-2.8.5-3.6 1.6c-.8 1-1.2 2.6-1.2 4.6s.4 3.6 1.2 4.6c.8 1.1 2 1.6 3.6 1.6s2.8-.3 4.3-1v2.3z"/><path d="m336.1 591.7c-2.4 0-4.3-.7-5.5-2.2s-1.9-3.6-1.9-6.4.6-5 1.9-6.4 3.1-2.2 5.5-2.2 4.3.7 5.5 2.2 1.9 3.6 1.9 6.4-.6 5-1.9 6.4c-1.2 1.5-3.1 2.2-5.5 2.2zm0-2.3c1.5 0 2.6-.5 3.2-1.5.7-1 1-2.6 1-4.8s-.3-3.8-1-4.8-1.8-1.5-3.2-1.5-2.6.5-3.2 1.5c-.7 1-1 2.6-1 4.8s.3 3.8 1 4.8 1.8 1.5 3.2 1.5z"/><path d="m366 591.3v-11.3c0-2-1-3.1-3-3.1s-2.5.4-3.8 1.2c.1.5.2.9.2 1.4v11.8h-3v-11.3c0-2-1-3.1-3-3.1s-2.4.4-3.6 1.1v13.2h-3v-16.1l2.4-.3.2 1.1c1.6-1 3.3-1.5 4.8-1.5s3.2.6 4.2 1.8c1.9-1.2 3.7-1.8 5.4-1.8s2.9.4 3.8 1.3 1.4 2.1 1.4 3.6v11.8h-3z"/><path d="m373 598.5v-23.3l2.4-.3.2 1.1c1.7-1 3.3-1.5 4.9-1.5s3.7.7 4.9 2.2 1.8 3.5 1.8 6.1-.7 5-2.1 6.5-3.3 2.3-5.9 2.3-2.3-.1-3.3-.4v6.8l-3 .4zm6.8-21.6c-.6 0-1.2.1-1.9.3s-1.3.5-1.9.8v11c.9.3 1.8.4 2.8.4 1.7 0 3.1-.5 3.9-1.6s1.3-2.7 1.3-4.9-.4-3.5-1.1-4.5-1.8-1.5-3.2-1.5z"/><path d="m390.5 591.3v-24l3-.4v24.4z"/><path d="m409.8 590.6c-1.5.7-3.1 1.1-4.9 1.1-2.6 0-4.7-.7-6-2.2-1.4-1.5-2.1-3.6-2.1-6.5s.3-3.3.9-4.6 1.5-2.3 2.6-3 2.4-1 3.8-1 3.6.6 4.7 1.8c1.2 1.2 1.7 2.8 1.7 5s0 1.7-.2 2.5h-10.6c0 3.8 1.9 5.7 5.5 5.7s3.1-.3 4.6-1v2.3zm-5.7-13.9c-1.2 0-2.2.4-3 1.3s-1.2 2.1-1.3 3.6h8c0-.1 0-.2 0-.3v-.3c0-1.3-.3-2.4-1-3.1s-1.6-1.1-2.7-1.1z"/><path d="m417.5 577.2v9.3c0 1 .2 1.7.6 2.1.4.5 1.1.7 2 .7s1.4-.1 2.1-.4v2.1c-.9.3-1.8.5-2.8.5-1.6 0-2.8-.4-3.7-1.3-.8-.9-1.2-2.1-1.2-3.7v-9.4h-2.4v-2h2.6s.2-4.2.2-4.2l2.7-.3v4.3h4.5v2.2h-4.5z"/><path d="m436.9 590.6c-1.5.7-3.1 1.1-4.9 1.1-2.6 0-4.7-.7-6-2.2-1.4-1.5-2.1-3.6-2.1-6.5s.3-3.3.9-4.6 1.5-2.3 2.6-3 2.4-1 3.8-1 3.6.6 4.7 1.8c1.2 1.2 1.7 2.8 1.7 5s0 1.7-.2 2.5h-10.6c0 3.8 1.9 5.7 5.5 5.7s3.1-.3 4.6-1v2.3zm-5.8-13.9c-1.2 0-2.2.4-3 1.3s-1.2 2.1-1.3 3.6h8c0-.1 0-.2 0-.3v-.3c0-1.3-.3-2.4-1-3.1s-1.6-1.1-2.7-1.1z"/><path d="m454.1 566.9v24.2l-2.4.3-.2-1.1c-1.7 1-3.3 1.5-4.9 1.5s-3.7-.7-4.9-2.2-1.8-3.5-1.8-6.1.7-5 2.1-6.5 3.3-2.3 5.9-2.3 2.3.1 3.3.4v-7.7l3-.4zm-6.8 22.5c.6 0 1.2-.1 1.9-.3s1.3-.5 1.9-.8v-11c-.9-.3-1.8-.4-2.8-.4-1.8 0-3.1.5-3.9 1.6-.9 1.1-1.3 2.7-1.3 4.9s.4 3.5 1.1 4.5 1.8 1.5 3.2 1.5z"/><path d="m469.4 577.2v9.3c0 1 .2 1.7.6 2.1.4.5 1.1.7 2 .7s1.4-.1 2.1-.4v2.1c-.9.3-1.8.5-2.8.5-1.6 0-2.8-.4-3.7-1.3-.8-.9-1.2-2.1-1.2-3.7v-9.4h-2.4v-2h2.6s.2-4.2.2-4.2l2.7-.3v4.3h4.5v2.2h-4.5z"/><path d="m476.6 591.3v-24l3-.4v9c1.6-.9 3.3-1.3 4.8-1.3s3.1.5 4.1 1.4 1.5 2.2 1.5 4v11.4h-3v-10.9c0-2.3-1.1-3.4-3.4-3.4s-1.3.1-2 .3-1.4.5-2 .8v13.2h-3z"/><path d="m506.2 590.6c-1.5.7-3.1 1.1-4.9 1.1-2.6 0-4.7-.7-6-2.2-1.4-1.5-2.1-3.6-2.1-6.5s.3-3.3.9-4.6 1.5-2.3 2.6-3 2.4-1 3.8-1 3.6.6 4.7 1.8c1.2 1.2 1.7 2.8 1.7 5s0 1.7-.2 2.5h-10.6c0 3.8 1.9 5.7 5.5 5.7s3.1-.3 4.6-1v2.3zm-5.8-13.9c-1.2 0-2.2.4-3 1.3s-1.2 2.1-1.3 3.6h8c0-.1 0-.2 0-.3v-.3c0-1.3-.3-2.4-1-3.1s-1.6-1.1-2.7-1.1z"/><path d="m518.2 591.3v-14.1h-2.4v-2h2.4v-3.3c0-1.7.4-3 1.3-3.9s2.1-1.4 3.7-1.4 1.5.1 2.3.4v2.1c-.6-.1-1.2-.2-1.7-.2-1.8 0-2.7.9-2.7 2.8v3.3h4.1v2.2h-4.1v14.1h-3zm11.9-19.6c-.6 0-1.1-.2-1.5-.5s-.5-.8-.5-1.4.2-1 .5-1.4c.4-.3.8-.5 1.5-.5s1.1.2 1.5.5.5.8.5 1.4-.2 1-.5 1.4c-.4.3-.8.5-1.5.5zm-1.5 19.6v-16l3-.4v16.4z"/><path d="m546.3 591.3v-10.9c0-2.3-1.1-3.4-3.4-3.4s-1.3.1-2 .3-1.4.5-2 .8v13.2h-3v-16.1l2.4-.3.2 1.1c1.7-1 3.5-1.5 5.2-1.5s3.1.5 4.1 1.4 1.5 2.2 1.5 4v11.4z"/><path d="m563.3 591.3-.2-1.1c-1.8 1-3.5 1.5-5.2 1.5s-3-.5-4-1.4-1.5-2.1-1.5-3.7.6-2.8 1.7-3.7 2.7-1.3 4.7-1.3 2.5.1 4.1.4v-1.7c0-1.2-.3-2-1-2.6s-1.7-.9-3.1-.9-3.4.4-5.3 1.1v-2.3c.9-.4 1.9-.6 2.9-.8s2-.3 3-.3c2.1 0 3.7.5 4.8 1.5s1.6 2.4 1.6 4.3v10.8l-2.4.3zm-4.6-1.9c.6 0 1.3-.1 2.1-.3s1.5-.5 2-.8v-4.1c-1-.3-2.2-.4-3.6-.4s-2.2.2-2.8.7-.9 1.2-.9 2.2c0 1.8 1.1 2.8 3.2 2.8z"/><path d="m569.8 591.3v-24l3-.4v24.4z"/><path d="m603.6 591.3v-11.3c0-2-1-3.1-3-3.1s-2.5.4-3.8 1.2c.1.5.2.9.2 1.4v11.8h-3v-11.3c0-2-1-3.1-3-3.1s-2.4.4-3.6 1.1v13.2h-3v-16.1l2.4-.3.2 1.1c1.6-1 3.3-1.5 4.8-1.5s3.2.6 4.2 1.8c1.9-1.2 3.7-1.8 5.4-1.8s2.9.4 3.8 1.3 1.4 2.1 1.4 3.6v11.8h-3z"/><path d="m617 591.7c-2.4 0-4.3-.7-5.5-2.2s-1.9-3.6-1.9-6.4.6-5 1.9-6.4 3.1-2.2 5.5-2.2 4.3.7 5.5 2.2 1.9 3.6 1.9 6.4-.6 5-1.9 6.4-3.1 2.2-5.5 2.2zm0-2.3c1.5 0 2.6-.5 3.2-1.5.7-1 1-2.6 1-4.8s-.3-3.8-1-4.8-1.8-1.5-3.2-1.5-2.6.5-3.2 1.5c-.7 1-1 2.6-1 4.8s.3 3.8 1 4.8 1.8 1.5 3.2 1.5z"/><path d="m640.9 566.9v24.2l-2.4.3-.2-1.1c-1.7 1-3.3 1.5-4.9 1.5s-3.7-.7-4.9-2.2-1.8-3.5-1.8-6.1.7-5 2.1-6.5 3.3-2.3 5.9-2.3 2.3.1 3.3.4v-7.7l3-.4zm-6.8 22.5c.6 0 1.2-.1 1.9-.3s1.3-.5 1.9-.8v-11c-.9-.3-1.8-.4-2.8-.4-1.8 0-3.1.5-3.9 1.6-.9 1.1-1.3 2.7-1.3 4.9s.4 3.5 1.1 4.5 1.8 1.5 3.2 1.5z"/><path d="m655.9 591.3-.2-1.1c-1.7 1-3.5 1.5-5.2 1.5s-3.1-.5-4-1.4c-1-.9-1.4-2.2-1.4-3.9v-11.4h3v10.9c0 2.3 1.1 3.4 3.3 3.4s1.3-.1 2-.3 1.4-.5 2-.8v-13.2h3v16.1l-2.4.3z"/><path d="m662.5 591.3v-24l3-.4v24.4z"/><path d="m681.8 590.6c-1.5.7-3.1 1.1-4.9 1.1-2.6 0-4.7-.7-6-2.2-1.4-1.5-2.1-3.6-2.1-6.5s.3-3.3.9-4.6 1.5-2.3 2.6-3 2.4-1 3.8-1 3.6.6 4.7 1.8c1.2 1.2 1.7 2.8 1.7 5s0 1.7-.2 2.5h-10.6c0 3.8 1.9 5.7 5.5 5.7s3.1-.3 4.6-1v2.3zm-5.7-13.9c-1.2 0-2.2.4-3 1.3s-1.2 2.1-1.3 3.6h8c0-.1 0-.2 0-.3v-.3c0-1.3-.3-2.4-1-3.1s-1.6-1.1-2.7-1.1z"/><path d="m143.4 636.3c1-.2 1.9-.4 2.5-.7.7-.3 1.3-.8 1.8-1.4s1-1.4 1.5-2.4l-6.1-16.4h3.2l4.4 13 4.4-13h3.1l-5.9 15.6c-.6 1.7-1.3 3.1-2 4.1s-1.5 1.8-2.4 2.4-2.2 1-3.7 1.4l-.7-2.6z"/><path d="m166.2 632.1c-2.4 0-4.3-.7-5.5-2.2s-1.9-3.6-1.9-6.4.6-5 1.9-6.4c1.2-1.5 3.1-2.2 5.5-2.2s4.3.7 5.5 2.2 1.9 3.6 1.9 6.4-.6 5-1.9 6.4c-1.2 1.5-3.1 2.2-5.5 2.2zm0-2.3c1.5 0 2.6-.5 3.2-1.5s1-2.6 1-4.8-.3-3.8-1-4.8-1.8-1.5-3.2-1.5-2.6.5-3.2 1.5-1 2.6-1 4.8.3 3.8 1 4.8 1.8 1.5 3.2 1.5z"/><path d="m187.6 631.7-.2-1.1c-1.7 1-3.5 1.5-5.2 1.5s-3.1-.5-4-1.4-1.4-2.3-1.4-3.9v-11.4h3v10.9c0 2.3 1.1 3.4 3.3 3.4s1.3-.1 2-.3 1.4-.5 2-.8v-13.2h3v16.1l-2.4.3z"/><path d="m192.6 617.2c.7-.7 1.2-1.6 1.6-2.4.4-.9.6-1.7.6-2.5-.4-.1-.8-.3-1-.7-.2-.3-.4-.7-.4-1.2s.2-1 .6-1.4.8-.5 1.4-.5 1 .2 1.4.6.5 1 .5 1.8-.2 1.6-.5 2.5c-.4.9-.8 1.7-1.4 2.5s-1.2 1.4-1.9 1.9z"/><path d="m200.8 631.7v-24l3-.4v24.4z"/><path d="m208.1 631.7v-24l3-.4v24.4z"/><path d="m221.5 628.7c1.7.7 3.4 1.1 5.1 1.1s2.2-.2 2.8-.7c.7-.5 1-1.1 1-2s-.2-1-.5-1.4-1-.7-1.8-.9l-2.2-.7c-1.5-.4-2.5-1-3.2-1.7s-1-1.6-1-2.7.6-2.6 1.7-3.5 2.7-1.3 4.6-1.3 3.2.3 4.6 1v2.3c-1.6-.6-3.1-.9-4.4-.9s-1.9.2-2.5.6-.9 1-.9 1.7.2.9.5 1.2.9.6 1.8.8l2.4.7c2.6.8 4 2.4 4 4.7s-.6 2.9-1.7 3.8-2.8 1.3-4.9 1.3-3.6-.3-5-1l-.4-2.5z"/><path d="m248.7 631c-1.5.7-3.1 1.1-4.9 1.1-2.6 0-4.7-.7-6-2.2-1.4-1.5-2.1-3.6-2.1-6.5s.3-3.3.9-4.6 1.5-2.3 2.6-3 2.4-1 3.8-1 3.6.6 4.7 1.8c1.2 1.2 1.7 2.8 1.7 5s0 1.7-.2 2.5h-10.6c0 3.8 1.9 5.7 5.5 5.7s3.1-.3 4.6-1v2.3zm-5.8-13.9c-1.2 0-2.2.4-3 1.3s-1.2 2.1-1.3 3.6h8c0-.1 0-.2 0-.3v-.3c0-1.3-.3-2.4-1-3.1s-1.6-1.1-2.7-1.1z"/><path d="m264.8 631c-1.5.7-3.1 1.1-4.9 1.1-2.6 0-4.7-.7-6-2.2-1.4-1.5-2.1-3.6-2.1-6.5s.3-3.3.9-4.6 1.5-2.3 2.6-3 2.4-1 3.8-1 3.6.6 4.7 1.8c1.2 1.2 1.7 2.8 1.7 5s0 1.7-.2 2.5h-10.6c0 3.8 1.9 5.7 5.5 5.7s3.1-.3 4.6-1v2.3zm-5.8-13.9c-1.2 0-2.2.4-3 1.3s-1.2 2.1-1.3 3.6h8c0-.1 0-.2 0-.3v-.3c0-1.3-.3-2.4-1-3.1s-1.6-1.1-2.7-1.1z"/><path d="m286.1 631.7-.2-1.1c-1.8 1-3.5 1.5-5.2 1.5s-3-.5-4-1.4-1.5-2.1-1.5-3.7.6-2.8 1.7-3.7 2.7-1.3 4.7-1.3 2.5.1 4.1.4v-1.7c0-1.2-.3-2-1-2.6s-1.7-.9-3.1-.9-3.4.4-5.3 1.1v-2.3c.9-.4 1.9-.6 2.9-.8s2-.3 3-.3c2.1 0 3.7.5 4.8 1.5s1.6 2.4 1.6 4.3v10.8l-2.4.3zm-4.6-1.9c.6 0 1.3-.1 2.1-.3s1.5-.5 2-.8v-4.1c-1-.3-2.2-.4-3.6-.4s-2.2.2-2.8.7-.9 1.2-.9 2.2c0 1.8 1.1 2.8 3.2 2.8z"/><path d="m303.9 609.1c-.6.7-1.2 1.6-1.6 2.4-.4.9-.6 1.7-.7 2.5.4.1.8.3 1 .7s.4.7.4 1.2-.2 1-.6 1.4-.8.5-1.4.5-1-.2-1.4-.6-.5-1-.5-1.8.2-1.6.5-2.5c.4-.9.8-1.7 1.4-2.5s1.2-1.4 1.9-1.9l.9.6zm5.9 0c-.6.7-1.2 1.6-1.6 2.4-.4.9-.6 1.7-.7 2.5.4.1.8.3 1 .7.2.3.4.7.4 1.2s-.2 1-.6 1.4-.8.5-1.4.5-1-.2-1.4-.6-.5-1-.5-1.8.2-1.6.5-2.5c.4-.9.8-1.7 1.4-2.5s1.2-1.4 1.9-1.9l.9.6z"/><path d="m312.8 631.7v-22.4h13.6v2.6h-10.5v7.7h9.2v2.6h-9.2v9.6h-3.1z"/><path d="m330.5 612.1c-.6 0-1.1-.2-1.5-.5s-.5-.8-.5-1.4.2-1 .5-1.4c.4-.3.8-.5 1.5-.5s1.1.2 1.5.5.5.8.5 1.4-.2 1-.5 1.4c-.4.3-.8.5-1.5.5zm-1.5 19.6v-16l3-.4v16.4z"/><path d="m346.6 631.7v-10.9c0-2.3-1.1-3.4-3.4-3.4s-1.3.1-2 .3-1.4.5-2 .8v13.2h-3v-16.1l2.4-.3.2 1.1c1.7-1 3.5-1.5 5.2-1.5s3.1.5 4.1 1.4 1.5 2.2 1.5 4v11.4z"/><path d="m355.2 612.1c-.6 0-1.1-.2-1.5-.5s-.5-.8-.5-1.4.2-1 .5-1.4c.4-.3.8-.5 1.5-.5s1.1.2 1.5.5.5.8.5 1.4-.2 1-.5 1.4c-.4.3-.8.5-1.5.5zm-1.5 19.6v-16l3-.4v16.4z"/><path d="m359.8 628.7c1.7.7 3.4 1.1 5.1 1.1s2.2-.2 2.8-.7c.7-.5 1-1.1 1-2s-.2-1-.5-1.4-1-.7-1.8-.9l-2.2-.7c-1.5-.4-2.5-1-3.2-1.7s-1-1.6-1-2.7.6-2.6 1.7-3.5 2.7-1.3 4.6-1.3 3.2.3 4.6 1v2.3c-1.6-.6-3.1-.9-4.4-.9s-1.9.2-2.5.6-.9 1-.9 1.7.2.9.5 1.2.9.6 1.8.8l2.4.7c2.6.8 4 2.4 4 4.7s-.6 2.9-1.7 3.8-2.8 1.3-4.9 1.3-3.6-.3-5-1l-.4-2.5z"/><path d="m374.8 631.7v-24l3-.4v9c1.6-.9 3.3-1.3 4.8-1.3s3.1.5 4.1 1.4 1.5 2.2 1.5 4v11.4h-3v-10.9c0-2.3-1.1-3.4-3.4-3.4s-1.3.1-2 .3-1.4.5-2 .8v13.2h-3z"/><path d="m404.3 631c-1.5.7-3.1 1.1-4.9 1.1-2.6 0-4.7-.7-6-2.2-1.4-1.5-2.1-3.6-2.1-6.5s.3-3.3.9-4.6 1.5-2.3 2.6-3 2.4-1 3.8-1 3.6.6 4.7 1.8c1.2 1.2 1.7 2.8 1.7 5s0 1.7-.2 2.5h-10.6c0 3.8 1.9 5.7 5.5 5.7s3.1-.3 4.6-1v2.3zm-5.7-13.9c-1.2 0-2.2.4-3 1.3s-1.2 2.1-1.3 3.6h8c0-.1 0-.2 0-.3v-.3c0-1.3-.3-2.4-1-3.1s-1.6-1.1-2.7-1.1z"/><path d="m421.6 607.3v24.2l-2.4.3-.2-1.1c-1.7 1-3.3 1.5-4.9 1.5s-3.7-.7-4.9-2.2-1.8-3.5-1.8-6.1.7-5 2.1-6.5 3.3-2.3 5.9-2.3 2.3.1 3.3.4v-7.7l3-.4zm-6.8 22.5c.6 0 1.2-.1 1.9-.3s1.3-.5 1.9-.8v-11c-.9-.3-1.8-.4-2.8-.4-1.8 0-3.1.5-3.9 1.6-.9 1.1-1.3 2.7-1.3 4.9s.4 3.5 1.1 4.5 1.8 1.5 3.2 1.5z"/><path d="m423.6 617.2c.7-.7 1.2-1.6 1.6-2.4.4-.9.6-1.7.6-2.5-.4-.1-.8-.3-1-.7-.2-.3-.4-.7-.4-1.2s.2-1 .6-1.4.8-.5 1.4-.5 1 .2 1.4.6.5 1 .5 1.8-.2 1.6-.5 2.5c-.4.9-.8 1.7-1.4 2.5s-1.2 1.4-1.9 1.9zm5.8 0c.7-.7 1.2-1.6 1.6-2.4.4-.9.6-1.7.6-2.5-.4-.1-.8-.3-1-.7-.2-.3-.4-.7-.4-1.2s.2-1 .6-1.4.8-.5 1.4-.5 1 .2 1.4.6.5 1 .5 1.8-.2 1.6-.5 2.5c-.4.9-.8 1.7-1.4 2.5s-1.2 1.4-1.9 1.9z"/><path d="m464.2 631.7v-11.3c0-2-1-3.1-3-3.1s-2.5.4-3.8 1.2c.1.5.2.9.2 1.4v11.8h-3v-11.3c0-2-1-3.1-3-3.1s-2.4.4-3.6 1.1v13.2h-3v-16.1l2.4-.3.2 1.1c1.6-1 3.3-1.5 4.8-1.5s3.2.6 4.2 1.8c1.9-1.2 3.7-1.8 5.4-1.8s2.9.4 3.8 1.3 1.4 2.1 1.4 3.6v11.8h-3z"/><path d="m483.3 631c-1.5.7-3.1 1.1-4.9 1.1-2.6 0-4.7-.7-6-2.2-1.4-1.5-2.1-3.6-2.1-6.5s.3-3.3.9-4.6 1.5-2.3 2.6-3 2.4-1 3.8-1 3.6.6 4.7 1.8c1.2 1.2 1.7 2.8 1.7 5s0 1.7-.2 2.5h-10.6c0 3.8 1.9 5.7 5.5 5.7s3.1-.3 4.6-1v2.3zm-5.7-13.9c-1.2 0-2.2.4-3 1.3s-1.2 2.1-1.3 3.6h8c0-.1 0-.2 0-.3v-.3c0-1.3-.3-2.4-1-3.1s-1.6-1.1-2.7-1.1z"/><path d="m486.2 628.7c1.7.7 3.4 1.1 5.1 1.1s2.2-.2 2.8-.7c.7-.5 1-1.1 1-2s-.2-1-.5-1.4-1-.7-1.8-.9l-2.2-.7c-1.5-.4-2.5-1-3.2-1.7s-1-1.6-1-2.7.6-2.6 1.7-3.5 2.7-1.3 4.6-1.3 3.2.3 4.6 1v2.3c-1.6-.6-3.1-.9-4.4-.9s-1.9.2-2.5.6-.9 1-.9 1.7.2.9.5 1.2.9.6 1.8.8l2.4.7c2.6.8 4 2.4 4 4.7s-.6 2.9-1.7 3.8-2.8 1.3-4.9 1.3-3.6-.3-5-1l-.4-2.5z"/><path d="m500.1 628.7c1.7.7 3.4 1.1 5.1 1.1s2.2-.2 2.8-.7c.7-.5 1-1.1 1-2s-.2-1-.5-1.4-1-.7-1.8-.9l-2.2-.7c-1.5-.4-2.5-1-3.2-1.7s-1-1.6-1-2.7.6-2.6 1.7-3.5 2.7-1.3 4.6-1.3 3.2.3 4.6 1v2.3c-1.6-.6-3.1-.9-4.4-.9s-1.9.2-2.5.6-.9 1-.9 1.7.2.9.5 1.2.9.6 1.8.8l2.4.7c2.6.8 4 2.4 4 4.7s-.6 2.9-1.7 3.8-2.8 1.3-4.9 1.3-3.6-.3-5-1l-.4-2.5z"/><path d="m525.2 631.7-.2-1.1c-1.8 1-3.5 1.5-5.2 1.5s-3-.5-4-1.4-1.5-2.1-1.5-3.7.6-2.8 1.7-3.7 2.7-1.3 4.7-1.3 2.5.1 4.1.4v-1.7c0-1.2-.3-2-1-2.6s-1.7-.9-3.1-.9-3.4.4-5.3 1.1v-2.3c.9-.4 1.9-.6 2.9-.8s2-.3 3-.3c2.1 0 3.7.5 4.8 1.5s1.6 2.4 1.6 4.3v10.8l-2.4.3zm-4.7-1.9c.6 0 1.3-.1 2.1-.3s1.5-.5 2-.8v-4.1c-1-.3-2.2-.4-3.6-.4s-2.2.2-2.8.7-.9 1.2-.9 2.2c0 1.8 1.1 2.8 3.2 2.8z"/><path d="m537.2 639.2c-2 0-3.7-.3-5-1l-.4-2.5c1.7.7 3.4 1.1 5.1 1.1 3.3 0 4.9-1.5 4.9-4.4v-1.9c-1.6.9-3.1 1.3-4.5 1.3-2.1 0-3.7-.7-4.9-2.1s-1.8-3.4-1.8-5.9.7-5 2.2-6.6c1.5-1.5 3.5-2.3 6.2-2.3s1.8.1 2.8.3 2 .5 3 .8v16c0 2.3-.7 4.1-2 5.3s-3.2 1.9-5.7 1.9zm.9-9.7c.6 0 1.2-.1 1.9-.3s1.3-.5 1.9-.8v-10.7c-.9-.3-1.8-.4-2.8-.4-1.8 0-3.1.5-3.9 1.6-.9 1.1-1.3 2.7-1.3 4.9s.4 3.3 1.1 4.3 1.8 1.5 3.2 1.5z"/><path d="m561.2 631c-1.5.7-3.1 1.1-4.9 1.1-2.6 0-4.7-.7-6-2.2-1.4-1.5-2.1-3.6-2.1-6.5s.3-3.3.9-4.6 1.5-2.3 2.6-3 2.4-1 3.8-1 3.6.6 4.7 1.8c1.2 1.2 1.7 2.8 1.7 5s0 1.7-.2 2.5h-10.6c0 3.8 1.9 5.7 5.5 5.7s3.1-.3 4.6-1v2.3zm-5.7-13.9c-1.2 0-2.2.4-3 1.3s-1.2 2.1-1.3 3.6h8c0-.1 0-.2 0-.3v-.3c0-1.3-.3-2.4-1-3.1s-1.6-1.1-2.7-1.1z"/><path d="m566.4 631.8c-.6 0-1-.2-1.4-.5-.4-.4-.5-.8-.5-1.4s.2-1 .5-1.4.8-.5 1.4-.5 1 .2 1.4.5c.4.4.5.8.5 1.4s-.2 1-.5 1.4-.8.5-1.4.5z"/><path d="m145.8 736.3v-22.4h3.1v19.8h10.3v2.6z"/><path d="m167.8 736.7c-2.4 0-4.3-.7-5.5-2.2s-1.9-3.6-1.9-6.4.6-5 1.9-6.4 3.1-2.2 5.5-2.2 4.3.7 5.5 2.2 1.9 3.6 1.9 6.4-.6 5-1.9 6.4-3.1 2.2-5.5 2.2zm0-2.3c1.5 0 2.6-.5 3.2-1.5.7-1 1-2.6 1-4.8s-.3-3.8-1-4.8-1.8-1.5-3.2-1.5-2.6.5-3.2 1.5c-.7 1-1 2.6-1 4.8s.3 3.8 1 4.8 1.8 1.5 3.2 1.5z"/><path d="m189.8 735.7c-1.5.7-3.1 1.1-4.9 1.1s-4.2-.7-5.4-2.2c-1.3-1.5-1.9-3.6-1.9-6.3s.6-4.9 1.9-6.4 3.1-2.3 5.5-2.3 3.2.4 4.8 1.1v2.3c-1.5-.6-2.9-1-4.2-1s-2.8.5-3.6 1.6c-.8 1-1.2 2.6-1.2 4.6s.4 3.6 1.2 4.6c.8 1.1 2 1.6 3.6 1.6s2.8-.3 4.3-1v2.3z"/><path d="m202.8 736.3-.2-1.1c-1.8 1-3.5 1.5-5.2 1.5s-3-.5-4-1.4-1.5-2.1-1.5-3.7.6-2.8 1.7-3.7 2.7-1.3 4.7-1.3 2.5.1 4.1.4v-1.7c0-1.2-.3-2-1-2.6s-1.7-.9-3.1-.9-3.4.4-5.3 1.1v-2.3c.9-.4 1.9-.6 2.9-.8s2-.3 3-.3c2.1 0 3.7.5 4.8 1.5s1.6 2.4 1.6 4.3v10.8l-2.4.3zm-4.6-1.9c.6 0 1.3-.1 2.1-.3s1.5-.5 2-.8v-4.1c-1-.3-2.2-.4-3.6-.4s-2.2.2-2.8.7-.9 1.2-.9 2.2c0 1.8 1.1 2.8 3.2 2.8z"/><path d="m213 722.2v9.3c0 1 .2 1.7.6 2.1.4.5 1.1.7 2 .7s1.4-.1 2.1-.4v2.1c-.9.3-1.8.5-2.8.5-1.6 0-2.8-.4-3.7-1.3-.8-.9-1.2-2.1-1.2-3.7v-9.4h-2.4v-2h2.6s.2-4.2.2-4.2l2.7-.3v4.3h4.5v2.2h-4.5z"/><path d="m232.3 735.6c-1.5.7-3.1 1.1-4.9 1.1-2.6 0-4.7-.7-6-2.2-1.4-1.5-2.1-3.6-2.1-6.5s.3-3.3.9-4.6 1.5-2.3 2.6-3 2.4-1 3.8-1 3.6.6 4.7 1.8c1.2 1.2 1.7 2.8 1.7 5s0 1.7-.2 2.5h-10.6c0 3.8 1.9 5.7 5.5 5.7s3.1-.3 4.6-1v2.3zm-5.7-13.9c-1.2 0-2.2.4-3 1.3s-1.2 2.1-1.3 3.6h8c0-.1 0-.2 0-.3v-.3c0-1.3-.3-2.4-1-3.1s-1.6-1.1-2.7-1.1z"/><path d="m241.8 740.9c1-.2 1.9-.4 2.5-.7.7-.3 1.3-.8 1.8-1.4s1-1.4 1.5-2.4l-6.1-16.4h3.2l4.4 13 4.4-13h3.1l-5.9 15.6c-.6 1.7-1.3 3.1-2 4.1s-1.5 1.8-2.4 2.4-2.2 1-3.7 1.4l-.7-2.6z"/><path d="m264.6 736.7c-2.4 0-4.3-.7-5.5-2.2s-1.9-3.6-1.9-6.4.6-5 1.9-6.4 3.1-2.2 5.5-2.2 4.3.7 5.5 2.2 1.9 3.6 1.9 6.4-.6 5-1.9 6.4-3.1 2.2-5.5 2.2zm0-2.3c1.5 0 2.6-.5 3.2-1.5.7-1 1-2.6 1-4.8s-.3-3.8-1-4.8-1.8-1.5-3.2-1.5-2.6.5-3.2 1.5c-.7 1-1 2.6-1 4.8s.3 3.8 1 4.8 1.8 1.5 3.2 1.5z"/><path d="m285.9 736.3-.2-1.1c-1.7 1-3.5 1.5-5.2 1.5s-3.1-.5-4-1.4c-1-.9-1.4-2.2-1.4-3.9v-11.4h3v10.9c0 2.3 1.1 3.4 3.3 3.4s1.3-.1 2-.3 1.4-.5 2-.8v-13.2h3v16.1l-2.4.3z"/><path d="m292.6 736.3v-16.1l2.4-.3.3 1.5c1.4-1.2 2.9-1.8 4.5-1.8s1 0 1.5.2v2.5c-.5-.1-1-.2-1.6-.2-1.5 0-2.9.5-4.1 1.4v12.7h-3z"/><path d="m322.3 735.7c-1.5.7-3.1 1.1-4.9 1.1s-4.2-.7-5.4-2.2c-1.3-1.5-1.9-3.6-1.9-6.3s.6-4.9 1.9-6.4 3.1-2.3 5.5-2.3 3.2.4 4.8 1.1v2.3c-1.5-.6-2.9-1-4.2-1s-2.8.5-3.6 1.6c-.8 1-1.2 2.6-1.2 4.6s.4 3.6 1.2 4.6c.8 1.1 2 1.6 3.6 1.6s2.8-.3 4.3-1v2.3z"/><path d="m331.5 736.7c-2.4 0-4.3-.7-5.5-2.2s-1.9-3.6-1.9-6.4.6-5 1.9-6.4 3.1-2.2 5.5-2.2 4.3.7 5.5 2.2 1.9 3.6 1.9 6.4-.6 5-1.9 6.4-3.1 2.2-5.5 2.2zm0-2.3c1.5 0 2.6-.5 3.2-1.5.7-1 1-2.6 1-4.8s-.3-3.8-1-4.8-1.8-1.5-3.2-1.5-2.6.5-3.2 1.5c-.7 1-1 2.6-1 4.8s.3 3.8 1 4.8 1.8 1.5 3.2 1.5z"/><path d="m361.3 736.3v-11.3c0-2-1-3.1-3-3.1s-2.5.4-3.8 1.2c.1.5.2.9.2 1.4v11.8h-3v-11.3c0-2-1-3.1-3-3.1s-2.4.4-3.6 1.1v13.2h-3v-16.1l2.4-.3.2 1.1c1.6-1 3.3-1.5 4.8-1.5s3.2.6 4.2 1.8c1.9-1.2 3.7-1.8 5.4-1.8s2.9.4 3.8 1.3 1.4 2.1 1.4 3.6v11.8h-3z"/><path d="m368.4 743.5v-23.3l2.4-.3.2 1.1c1.7-1 3.3-1.5 4.9-1.5s3.7.7 4.9 2.2 1.8 3.5 1.8 6.1-.7 5-2.1 6.5-3.3 2.3-5.9 2.3-2.3-.1-3.3-.4v6.8l-3 .4zm6.8-21.6c-.6 0-1.2.1-1.9.3s-1.3.5-1.9.8v11c.9.3 1.8.4 2.8.4 1.7 0 3.1-.5 3.9-1.6s1.3-2.7 1.3-4.9-.4-3.5-1.1-4.5-1.8-1.5-3.2-1.5z"/><path d="m385.8 736.3v-24l3-.4v24.4z"/><path d="m405.2 735.6c-1.5.7-3.1 1.1-4.9 1.1-2.6 0-4.7-.7-6-2.2-1.4-1.5-2.1-3.6-2.1-6.5s.3-3.3.9-4.6 1.5-2.3 2.6-3 2.4-1 3.8-1 3.6.6 4.7 1.8c1.2 1.2 1.7 2.8 1.7 5s0 1.7-.2 2.5h-10.6c0 3.8 1.9 5.7 5.5 5.7s3.1-.3 4.6-1v2.3zm-5.8-13.9c-1.2 0-2.2.4-3 1.3s-1.2 2.1-1.3 3.6h8c0-.1 0-.2 0-.3v-.3c0-1.3-.3-2.4-1-3.1s-1.6-1.1-2.7-1.1z"/><path d="m412.9 722.2v9.3c0 1 .2 1.7.6 2.1.4.5 1.1.7 2 .7s1.4-.1 2.1-.4v2.1c-.9.3-1.8.5-2.8.5-1.6 0-2.8-.4-3.7-1.3-.8-.9-1.2-2.1-1.2-3.7v-9.4h-2.4v-2h2.6s.2-4.2.2-4.2l2.7-.3v4.3h4.5v2.2h-4.5z"/><path d="m421.6 716.7c-.6 0-1.1-.2-1.5-.5s-.5-.8-.5-1.4.2-1 .5-1.4c.4-.3.8-.5 1.5-.5s1.1.2 1.5.5.5.8.5 1.4-.2 1-.5 1.4c-.4.3-.8.5-1.5.5zm-1.5 19.6v-16l3-.4v16.4z"/><path d="m433.8 736.7c-2.4 0-4.3-.7-5.5-2.2s-1.9-3.6-1.9-6.4.6-5 1.9-6.4 3.1-2.2 5.5-2.2 4.3.7 5.5 2.2 1.9 3.6 1.9 6.4-.6 5-1.9 6.4-3.1 2.2-5.5 2.2zm0-2.3c1.5 0 2.6-.5 3.2-1.5.7-1 1-2.6 1-4.8s-.3-3.8-1-4.8-1.8-1.5-3.2-1.5-2.6.5-3.2 1.5c-.7 1-1 2.6-1 4.8s.3 3.8 1 4.8 1.8 1.5 3.2 1.5z"/><path d="m454.8 736.3v-10.9c0-2.3-1.1-3.4-3.4-3.4s-1.3.1-2 .3-1.4.5-2 .8v13.2h-3v-16.1l2.4-.3.2 1.1c1.7-1 3.5-1.5 5.2-1.5s3.1.5 4.1 1.4 1.5 2.2 1.5 4v11.4z"/><path d="m480.5 735.7c-1.5.7-3.1 1.1-4.9 1.1s-4.2-.7-5.4-2.2c-1.3-1.5-1.9-3.6-1.9-6.3s.6-4.9 1.9-6.4 3.1-2.3 5.5-2.3 3.2.4 4.8 1.1v2.3c-1.5-.6-2.9-1-4.2-1s-2.8.5-3.6 1.6c-.8 1-1.2 2.6-1.2 4.6s.4 3.6 1.2 4.6c.8 1.1 2 1.6 3.6 1.6s2.8-.3 4.3-1v2.3z"/><path d="m489.7 736.7c-2.4 0-4.3-.7-5.5-2.2s-1.9-3.6-1.9-6.4.6-5 1.9-6.4 3.1-2.2 5.5-2.2 4.3.7 5.5 2.2 1.9 3.6 1.9 6.4-.6 5-1.9 6.4-3.1 2.2-5.5 2.2zm0-2.3c1.5 0 2.6-.5 3.2-1.5.7-1 1-2.6 1-4.8s-.3-3.8-1-4.8-1.8-1.5-3.2-1.5-2.6.5-3.2 1.5c-.7 1-1 2.6-1 4.8s.3 3.8 1 4.8 1.8 1.5 3.2 1.5z"/><path d="m513.6 711.9v24.2l-2.4.3-.2-1.1c-1.7 1-3.3 1.5-4.9 1.5s-3.7-.7-4.9-2.2-1.8-3.5-1.8-6.1.7-5 2.1-6.5 3.3-2.3 5.9-2.3 2.3.1 3.3.4v-7.7l3-.4zm-6.8 22.5c.6 0 1.2-.1 1.9-.3s1.3-.5 1.9-.8v-11c-.9-.3-1.8-.4-2.8-.4-1.8 0-3.1.5-3.9 1.6-.9 1.1-1.3 2.7-1.3 4.9s.4 3.5 1.1 4.5 1.8 1.5 3.2 1.5z"/><path d="m529.9 735.6c-1.5.7-3.1 1.1-4.9 1.1-2.6 0-4.7-.7-6-2.2-1.4-1.5-2.1-3.6-2.1-6.5s.3-3.3.9-4.6 1.5-2.3 2.6-3 2.4-1 3.8-1 3.6.6 4.7 1.8c1.2 1.2 1.7 2.8 1.7 5s0 1.7-.2 2.5h-10.6c0 3.8 1.9 5.7 5.5 5.7s3.1-.3 4.6-1v2.3zm-5.7-13.9c-1.2 0-2.2.4-3 1.3s-1.2 2.1-1.3 3.6h8c0-.1 0-.2 0-.3v-.3c0-1.3-.3-2.4-1-3.1s-1.6-1.1-2.7-1.1z"/><path d="m551.3 736.3-.2-1.1c-1.8 1-3.5 1.5-5.2 1.5s-3-.5-4-1.4-1.5-2.1-1.5-3.7.6-2.8 1.7-3.7 2.7-1.3 4.7-1.3 2.5.1 4.1.4v-1.7c0-1.2-.3-2-1-2.6s-1.7-.9-3.1-.9-3.4.4-5.3 1.1v-2.3c.9-.4 1.9-.6 2.9-.8s2-.3 3-.3c2.1 0 3.7.5 4.8 1.5s1.6 2.4 1.6 4.3v10.8l-2.4.3zm-4.6-1.9c.6 0 1.3-.1 2.1-.3s1.5-.5 2-.8v-4.1c-1-.3-2.2-.4-3.6-.4s-2.2.2-2.8.7-.9 1.2-.9 2.2c0 1.8 1.1 2.8 3.2 2.8z"/><path d="m568.2 736.3v-10.9c0-2.3-1.1-3.4-3.4-3.4s-1.3.1-2 .3-1.4.5-2 .8v13.2h-3v-16.1l2.4-.3.2 1.1c1.7-1 3.5-1.5 5.2-1.5s3.1.5 4.1 1.4 1.5 2.2 1.5 4v11.4z"/><path d="m588.5 711.9v24.2l-2.4.3-.2-1.1c-1.7 1-3.3 1.5-4.9 1.5s-3.7-.7-4.9-2.2-1.8-3.5-1.8-6.1.7-5 2.1-6.5 3.3-2.3 5.9-2.3 2.3.1 3.3.4v-7.7l3-.4zm-6.8 22.5c.6 0 1.2-.1 1.9-.3s1.3-.5 1.9-.8v-11c-.9-.3-1.8-.4-2.8-.4-1.8 0-3.1.5-3.9 1.6-.9 1.1-1.3 2.7-1.3 4.9s.4 3.5 1.1 4.5 1.8 1.5 3.2 1.5z"/><path d="m611.3 735.7c-1.5.7-3.1 1.1-4.9 1.1s-4.2-.7-5.4-2.2c-1.3-1.5-1.9-3.6-1.9-6.3s.6-4.9 1.9-6.4 3.1-2.3 5.5-2.3 3.2.4 4.8 1.1v2.3c-1.5-.6-2.9-1-4.2-1s-2.8.5-3.6 1.6c-.8 1-1.2 2.6-1.2 4.6s.4 3.6 1.2 4.6c.8 1.1 2 1.6 3.6 1.6s2.8-.3 4.3-1v2.3z"/><path d="m620.5 736.7c-2.4 0-4.3-.7-5.5-2.2s-1.9-3.6-1.9-6.4.6-5 1.9-6.4 3.1-2.2 5.5-2.2 4.3.7 5.5 2.2 1.9 3.6 1.9 6.4-.6 5-1.9 6.4-3.1 2.2-5.5 2.2zm0-2.3c1.5 0 2.6-.5 3.2-1.5.7-1 1-2.6 1-4.8s-.3-3.8-1-4.8-1.8-1.5-3.2-1.5-2.6.5-3.2 1.5c-.7 1-1 2.6-1 4.8s.3 3.8 1 4.8 1.8 1.5 3.2 1.5z"/><path d="m631.2 743.5v-23.3l2.4-.3.2 1.1c1.7-1 3.3-1.5 4.9-1.5s3.7.7 4.9 2.2 1.8 3.5 1.8 6.1-.7 5-2.1 6.5-3.3 2.3-5.9 2.3-2.3-.1-3.3-.4v6.8l-3 .4zm6.8-21.6c-.6 0-1.2.1-1.9.3s-1.3.5-1.9.8v11c.9.3 1.8.4 2.8.4 1.7 0 3.1-.5 3.9-1.6s1.3-2.7 1.3-4.9-.4-3.5-1.1-4.5-1.8-1.5-3.2-1.5z"/><path d="m646.4 740.9c1-.2 1.9-.4 2.5-.7.7-.3 1.3-.8 1.8-1.4s1-1.4 1.5-2.4l-6.1-16.4h3.2l4.4 13 4.4-13h3.1l-5.9 15.6c-.6 1.7-1.3 3.1-2 4.1s-1.5 1.8-2.4 2.4-2.2 1-3.7 1.4l-.7-2.6z"/><path d="m160.4 776.7-3-3.1c-1 1.2-2.1 2.1-3.2 2.7s-2.3.9-3.7.9-3.5-.5-4.7-1.6-1.8-2.5-1.8-4.3c0-2.7 1.6-4.9 4.7-6.8-1-1.1-1.7-2.1-2.1-2.9s-.6-1.7-.6-2.6c0-1.5.5-2.8 1.6-3.7 1-.9 2.4-1.4 4-1.4s2.1.2 2.9.7c.8.4 1.5 1.1 2 1.8.5.8.7 1.6.7 2.6s-.4 2.1-1.1 3.1c-.7.9-1.9 1.9-3.5 2.9l4.7 4.8c1.8-2.3 3.2-4.1 4.4-5.4l.8 2.9c-1.2 1.3-2.4 2.8-3.5 4.3l5.1 5.2h-3.5zm-9.7-1.9c.9 0 1.7-.2 2.5-.7s1.6-1.3 2.4-2.3l-5.4-5.7c-1.1.7-1.9 1.5-2.4 2.3s-.8 1.7-.8 2.6.3 2 1 2.8c.7.7 1.5 1.1 2.7 1.1zm-2.1-15.8c0 .6.2 1.3.5 1.9.4.6 1 1.4 1.8 2.4 1.2-.7 2.1-1.4 2.6-2.1s.8-1.4.8-2.2-.3-1.6-.8-2.1-1.2-.8-2.1-.8-1.5.3-2.1.8c-.5.5-.8 1.3-.8 2.1z"/><path d="m173 783.9v-23.3l2.4-.3.2 1.1c1.7-1 3.3-1.5 4.9-1.5s3.7.7 4.9 2.2 1.8 3.5 1.8 6.1-.7 5-2.1 6.5-3.3 2.3-5.9 2.3-2.3-.1-3.3-.4v6.8l-3 .4zm6.8-21.6c-.6 0-1.2.1-1.9.3s-1.3.5-1.9.8v11c.9.3 1.8.4 2.8.4 1.7 0 3.1-.5 3.9-1.6.9-1.1 1.3-2.7 1.3-4.9s-.4-3.5-1.1-4.5-1.8-1.5-3.2-1.5z"/><path d="m200.5 776.7-.2-1.1c-1.8 1-3.5 1.5-5.2 1.5s-3-.5-4-1.4-1.5-2.1-1.5-3.7.6-2.8 1.7-3.7 2.7-1.3 4.7-1.3 2.5.1 4.1.4v-1.7c0-1.2-.3-2-1-2.6s-1.7-.9-3.1-.9-3.4.4-5.3 1.1v-2.3c.9-.4 1.9-.6 2.9-.8s2-.3 3-.3c2.1 0 3.7.5 4.8 1.5s1.6 2.4 1.6 4.3v10.8l-2.4.3zm-4.6-1.9c.6 0 1.3-.1 2.1-.3s1.5-.5 2-.8v-4.1c-1-.3-2.2-.4-3.6-.4s-2.2.2-2.8.7-.9 1.2-.9 2.2c0 1.8 1.1 2.8 3.2 2.8z"/><path d="m205.9 773.7c1.7.7 3.4 1.1 5.1 1.1s2.2-.2 2.8-.7c.7-.5 1-1.1 1-2s-.2-1-.5-1.4-1-.7-1.8-.9l-2.2-.7c-1.5-.4-2.5-1-3.2-1.7s-1-1.6-1-2.7.6-2.6 1.7-3.5 2.7-1.3 4.6-1.3 3.2.3 4.6 1v2.3c-1.6-.6-3.1-.9-4.4-.9s-1.9.2-2.5.6-.9 1-.9 1.7.2.9.5 1.2.9.6 1.8.8l2.4.7c2.6.8 4 2.4 4 4.7s-.6 2.9-1.7 3.8-2.8 1.3-4.9 1.3-3.6-.3-5-1l-.4-2.5z"/><path d="m224.6 762.6v9.3c0 1 .2 1.7.6 2.1s1.1.7 2 .7 1.4-.1 2.1-.4v2.1c-.9.3-1.8.5-2.8.5-1.6 0-2.8-.4-3.7-1.3s-1.2-2.1-1.2-3.7v-9.4h-2.4v-2h2.6s.2-4.2.2-4.2l2.7-.3v4.3h4.5v2.2h-4.5z"/><path d="m243.9 776c-1.5.7-3.1 1.1-4.9 1.1-2.6 0-4.7-.7-6-2.2-1.4-1.5-2.1-3.6-2.1-6.5s.3-3.3.9-4.6 1.5-2.3 2.6-3 2.4-1 3.8-1 3.6.6 4.7 1.8c1.2 1.2 1.7 2.8 1.7 5s0 1.7-.2 2.5h-10.6c0 3.8 1.9 5.7 5.5 5.7s3.1-.3 4.6-1v2.3zm-5.7-13.9c-1.2 0-2.2.4-3 1.3s-1.2 2.1-1.3 3.6h8c0-.1 0-.2 0-.3v-.3c0-1.3-.3-2.4-1-3.1s-1.6-1.1-2.7-1.1z"/><path d="m256.8 757.1c-.6 0-1.1-.2-1.5-.5s-.5-.8-.5-1.4.2-1 .5-1.4c.4-.3.8-.5 1.5-.5s1.1.2 1.5.5.5.8.5 1.4-.2 1-.5 1.4c-.4.3-.8.5-1.5.5zm-1.5 19.6v-16l3-.4v16.4z"/><path d="m266.2 762.6v9.3c0 1 .2 1.7.6 2.1s1.1.7 2 .7 1.4-.1 2.1-.4v2.1c-.9.3-1.8.5-2.8.5-1.6 0-2.8-.4-3.7-1.3s-1.2-2.1-1.2-3.7v-9.4h-2.4v-2h2.6s.2-4.2.2-4.2l2.7-.3v4.3h4.5v2.2h-4.5z"/><path d="m282.3 757.1c-.6 0-1.1-.2-1.5-.5s-.5-.8-.5-1.4.2-1 .5-1.4c.4-.3.8-.5 1.5-.5s1.1.2 1.5.5.5.8.5 1.4-.2 1-.5 1.4c-.4.3-.8.5-1.5.5zm-1.5 19.6v-16l3-.4v16.4z"/><path d="m298.5 776.7v-10.9c0-2.3-1.1-3.4-3.4-3.4s-1.3.1-2 .3-1.4.5-2 .8v13.2h-3v-16.1l2.4-.3.2 1.1c1.7-1 3.5-1.5 5.2-1.5s3.1.5 4.1 1.4 1.5 2.2 1.5 4v11.4z"/><path d="m309.2 762.6v9.3c0 1 .2 1.7.6 2.1s1.1.7 2 .7 1.4-.1 2.1-.4v2.1c-.9.3-1.8.5-2.8.5-1.6 0-2.8-.4-3.7-1.3s-1.2-2.1-1.2-3.7v-9.4h-2.4v-2h2.6s.2-4.2.2-4.2l2.7-.3v4.3h4.5v2.2h-4.5z"/><path d="m322.9 777.1c-2.4 0-4.3-.7-5.5-2.2s-1.9-3.6-1.9-6.4.6-5 1.9-6.4c1.2-1.5 3.1-2.2 5.5-2.2s4.3.7 5.5 2.2 1.9 3.6 1.9 6.4-.6 5-1.9 6.4c-1.2 1.5-3.1 2.2-5.5 2.2zm0-2.3c1.5 0 2.6-.5 3.2-1.5s1-2.6 1-4.8-.3-3.8-1-4.8-1.8-1.5-3.2-1.5-2.6.5-3.2 1.5-1 2.6-1 4.8.3 3.8 1 4.8 1.8 1.5 3.2 1.5z"/><path d="m339 781.3c1-.2 1.9-.4 2.5-.7.7-.3 1.3-.8 1.8-1.4s1-1.4 1.5-2.4l-6.1-16.4h3.2l4.4 13 4.4-13h3.1l-5.9 15.6c-.6 1.7-1.3 3.1-2 4.1s-1.5 1.8-2.4 2.4-2.2 1-3.7 1.4l-.7-2.6z"/><path d="m361.8 777.1c-2.4 0-4.3-.7-5.5-2.2s-1.9-3.6-1.9-6.4.6-5 1.9-6.4c1.2-1.5 3.1-2.2 5.5-2.2s4.3.7 5.5 2.2 1.9 3.6 1.9 6.4-.6 5-1.9 6.4c-1.2 1.5-3.1 2.2-5.5 2.2zm0-2.3c1.5 0 2.6-.5 3.2-1.5s1-2.6 1-4.8-.3-3.8-1-4.8-1.8-1.5-3.2-1.5-2.6.5-3.2 1.5-1 2.6-1 4.8.3 3.8 1 4.8 1.8 1.5 3.2 1.5z"/><path d="m383.1 776.7-.2-1.1c-1.7 1-3.5 1.5-5.2 1.5s-3.1-.5-4-1.4-1.4-2.3-1.4-3.9v-11.4h3v10.9c0 2.3 1.1 3.4 3.3 3.4s1.3-.1 2-.3 1.4-.5 2-.8v-13.2h3v16.1l-2.4.3z"/><path d="m389.8 776.7v-16.1l2.4-.3.3 1.5c1.4-1.2 2.9-1.8 4.5-1.8s1 0 1.5.2v2.5c-.5-.1-1-.2-1.6-.2-1.5 0-2.9.5-4.1 1.4v12.7h-3z"/><path d="m407.1 773.7c1.7.7 3.4 1.1 5.1 1.1s2.2-.2 2.8-.7c.7-.5 1-1.1 1-2s-.2-1-.5-1.4-1-.7-1.8-.9l-2.2-.7c-1.5-.4-2.5-1-3.2-1.7s-1-1.6-1-2.7.6-2.6 1.7-3.5 2.7-1.3 4.6-1.3 3.2.3 4.6 1v2.3c-1.6-.6-3.1-.9-4.4-.9s-1.9.2-2.5.6-.9 1-.9 1.7.2.9.5 1.2.9.6 1.8.8l2.4.7c2.6.8 4 2.4 4 4.7s-.6 2.9-1.7 3.8-2.8 1.3-4.9 1.3-3.6-.3-5-1l-.4-2.5z"/><path d="m432.8 776.7-.2-1.1c-1.7 1-3.5 1.5-5.2 1.5s-3.1-.5-4-1.4-1.4-2.3-1.4-3.9v-11.4h3v10.9c0 2.3 1.1 3.4 3.3 3.4s1.3-.1 2-.3 1.4-.5 2-.8v-13.2h3v16.1l-2.4.3z"/><path d="m442.5 761.2c1.6-.9 3.1-1.3 4.5-1.3 2.1 0 3.7.7 4.9 2.2s1.8 3.5 1.8 6.1-.7 5.1-2.2 6.6-3.5 2.3-6.2 2.3-3.9-.3-5.8-.8v-23.7l3-.4v8.9zm3.8 1.1c-.6 0-1.2.1-1.9.3s-1.3.5-1.9.8v11c.9.3 1.8.4 2.8.4 1.7 0 3.1-.5 3.9-1.6.9-1.1 1.3-2.7 1.3-4.9s-.4-3.5-1.1-4.5-1.8-1.5-3.2-1.5z"/><path d="m476.1 776.7v-11.3c0-2-1-3.1-3-3.1s-2.5.4-3.8 1.2c.1.5.2.9.2 1.4v11.8h-3v-11.3c0-2-1-3.1-3-3.1s-2.4.4-3.6 1.1v13.2h-3v-16.1l2.4-.3.2 1.1c1.6-1 3.3-1.5 4.8-1.5s3.2.6 4.2 1.8c1.9-1.2 3.7-1.8 5.4-1.8s2.9.4 3.8 1.3 1.4 2.1 1.4 3.6v11.8h-3z"/><path d="m484.7 757.1c-.6 0-1.1-.2-1.5-.5s-.5-.8-.5-1.4.2-1 .5-1.4c.4-.3.8-.5 1.5-.5s1.1.2 1.5.5.5.8.5 1.4-.2 1-.5 1.4c-.4.3-.8.5-1.5.5zm-1.5 19.6v-16l3-.4v16.4z"/><path d="m489.3 773.7c1.7.7 3.4 1.1 5.1 1.1s2.2-.2 2.8-.7c.7-.5 1-1.1 1-2s-.2-1-.5-1.4-1-.7-1.8-.9l-2.2-.7c-1.5-.4-2.5-1-3.2-1.7s-1-1.6-1-2.7.6-2.6 1.7-3.5 2.7-1.3 4.6-1.3 3.2.3 4.6 1v2.3c-1.6-.6-3.1-.9-4.4-.9s-1.9.2-2.5.6-.9 1-.9 1.7.2.9.5 1.2.9.6 1.8.8l2.4.7c2.6.8 4 2.4 4 4.7s-.6 2.9-1.7 3.8-2.8 1.3-4.9 1.3-3.6-.3-5-1l-.4-2.5z"/><path d="m503.2 773.7c1.7.7 3.4 1.1 5.1 1.1s2.2-.2 2.8-.7c.7-.5 1-1.1 1-2s-.2-1-.5-1.4-1-.7-1.8-.9l-2.2-.7c-1.5-.4-2.5-1-3.2-1.7s-1-1.6-1-2.7.6-2.6 1.7-3.5 2.7-1.3 4.6-1.3 3.2.3 4.6 1v2.3c-1.6-.6-3.1-.9-4.4-.9s-1.9.2-2.5.6-.9 1-.9 1.7.2.9.5 1.2.9.6 1.8.8l2.4.7c2.6.8 4 2.4 4 4.7s-.6 2.9-1.7 3.8-2.8 1.3-4.9 1.3-3.6-.3-5-1l-.4-2.5z"/><path d="m519.7 757.1c-.6 0-1.1-.2-1.5-.5s-.5-.8-.5-1.4.2-1 .5-1.4c.4-.3.8-.5 1.5-.5s1.1.2 1.5.5.5.8.5 1.4-.2 1-.5 1.4c-.4.3-.8.5-1.5.5zm-1.5 19.6v-16l3-.4v16.4z"/><path d="m531.9 777.1c-2.4 0-4.3-.7-5.5-2.2s-1.9-3.6-1.9-6.4.6-5 1.9-6.4c1.2-1.5 3.1-2.2 5.5-2.2s4.3.7 5.5 2.2 1.9 3.6 1.9 6.4-.6 5-1.9 6.4c-1.2 1.5-3.1 2.2-5.5 2.2zm0-2.3c1.5 0 2.6-.5 3.2-1.5s1-2.6 1-4.8-.3-3.8-1-4.8-1.8-1.5-3.2-1.5-2.6.5-3.2 1.5-1 2.6-1 4.8.3 3.8 1 4.8 1.8 1.5 3.2 1.5z"/><path d="m552.9 776.7v-10.9c0-2.3-1.1-3.4-3.4-3.4s-1.3.1-2 .3-1.4.5-2 .8v13.2h-3v-16.1l2.4-.3.2 1.1c1.7-1 3.5-1.5 5.2-1.5s3.1.5 4.1 1.4 1.5 2.2 1.5 4v11.4z"/><path d="m568 776.7v-14.1h-2.4v-2h2.4v-3.3c0-1.7.4-3 1.3-3.9s2.1-1.4 3.7-1.4 1.9.2 2.9.5v2.1c-.9-.2-1.6-.4-2.2-.4-1.8 0-2.7.9-2.7 2.8v3.3h4.1v2.2h-4.1v14.1h-3z"/><path d="m584 777.1c-2.4 0-4.3-.7-5.5-2.2s-1.9-3.6-1.9-6.4.6-5 1.9-6.4c1.2-1.5 3.1-2.2 5.5-2.2s4.3.7 5.5 2.2 1.9 3.6 1.9 6.4-.6 5-1.9 6.4c-1.2 1.5-3.1 2.2-5.5 2.2zm0-2.3c1.5 0 2.6-.5 3.2-1.5s1-2.6 1-4.8-.3-3.8-1-4.8-1.8-1.5-3.2-1.5-2.6.5-3.2 1.5-1 2.6-1 4.8.3 3.8 1 4.8 1.8 1.5 3.2 1.5z"/><path d="m594.6 776.7v-16.1l2.4-.3.3 1.5c1.4-1.2 2.9-1.8 4.5-1.8s1 0 1.5.2v2.5c-.5-.1-1-.2-1.6-.2-1.5 0-2.9.5-4.1 1.4v12.7h-3z"/><path d="m624.9 776.7v-11.3c0-2-1-3.1-3-3.1s-2.5.4-3.8 1.2c.1.5.2.9.2 1.4v11.8h-3v-11.3c0-2-1-3.1-3-3.1s-2.4.4-3.6 1.1v13.2h-3v-16.1l2.4-.3.2 1.1c1.6-1 3.3-1.5 4.8-1.5s3.2.6 4.2 1.8c1.9-1.2 3.7-1.8 5.4-1.8s2.9.4 3.8 1.3 1.4 2.1 1.4 3.6v11.8h-3z"/><path d="m633.1 776.8c-.6 0-1-.2-1.4-.5-.4-.4-.5-.8-.5-1.4s.2-1 .5-1.4.8-.5 1.4-.5 1 .2 1.4.5c.4.4.5.8.5 1.4s-.2 1-.5 1.4-.8.5-1.4.5z"/></g></svg>