<?xml version="1.0" encoding="UTF-8"?>
<svg id="Layer_1" data-name="Layer 1" xmlns="http://www.w3.org/2000/svg" version="1.1" viewBox="0 0 684.8 864.1">
  <defs>
    <style>
      .cls-1, .cls-2, .cls-3, .cls-4 {
        stroke-width: 0px;
      }

      .cls-1, .cls-5 {
        fill: #013d5b;
      }

      .cls-2 {
        fill: #5ba26f;
      }

      .cls-5 {
        stroke: #013d5b;
        stroke-width: 4px;
      }

      .cls-3 {
        fill: #f56b36;
      }

      .cls-4 {
        fill: #fff;
      }
    </style>
  </defs>
  <path class="cls-2" d="M324.8,9.3c-7.6-3.6-15.6-4.2-24.1-1.8-9.8,2.9-18.9,6.3-27.3,10.4-.3.1-.5.3-.6.6-.7,1.4-.3,2.3,1.2,2.7,2.1,6,2.9,12.3,2.5,18.7-.1,2-.5,4.2-1.2,6.5-3,10.2-8.6,23-16,30.8-.6.6-1.3,1.4-2.1,2.5-7.2,9.1-26.3,20.8-35.7,7.1-1.8-2.5-2.8-9.1-2.2-12.2.6-2.9,1-5.8,1.3-8.8,0-.2.1-.5.3-.7,2.7-3.8,2-7.5,5.3-10.3.2-.2.4-.5.5-.8.3-1.9,1.2-3.3,2.9-4.2.3-.2.5-.5.6-.8.7-2.3,2.1-4.2,4.1-5.5.3-.2.5-.6.6-1,.2-1.6,1-1.6,1.8-2.4,5.5-5.4,11.1-10.5,17.1-15.4,3.9-1.7,7.6-3.9,11.2-6.7.6-.5.7-1.4.2-2,0,0,0-.1-.1-.1-5.7-5.6-12.3-8.8-19.6-9.3-18.2-1.4-38.8,13.9-49.6,27.8-2.8,3-5.3,6.4-7.3,9.9-5.1,9-9.7,17.6-11,28,0,.3,0,.6.2.9,1.8,2.8,1.1,3.3-2,1.7-.5-.3-.8-.8-.7-1.4.6-8.5,2.9-16.5,6.9-24.1.9-1.6,2.3-2.5,2.5-4.8,0-.4.2-.7.5-1l1.9-1.5c.3-.2.5-.5.5-.8.3-1.9,1.1-3.5,2.3-4.9.2-.2.2-.5,0-.6l-.2-.4c3.1-1.6,5-3.7,5.9-6,14.9-17.2,42.8-34.6,65.9-21,2.9,1.8,5.4,4.3,8.3,6.7.4.3,1,.4,1.4.2,7.8-3.6,15.7-6.7,23.8-9.4,10.1-3.3,20.2-3.7,30.3-1.1l3.6,3.7c.1.1.3.2.5.3,1.8.8,3.1,2.1,3.7,4.1.6,1.6,1.8,1.9,3.8.8,17.8-10.3,40.5-17.4,60.1-9.7,4.2,1.7,7.3,5.2,10.5,8.5.3.3.5.8.3,1.3-.2.8-.1,1.5.3,2,.5.6,1.2.7,1.8.4,12-6.9,23.9-11.3,35.8-13,10.1-1.5,18.5-3.6,28.9-3.4.5,0,.8.3.8.8.1,1-.5,1.6-1.9,1.7-21.3,1.8-42.8,5.6-61.7,16-.3.2-.5.5-.6.8-.6,1.8-.6,3.5.2,5.1.2.3.2.7,0,1.1-.5,1.4-.4,2.7.4,4,.2.3.3.7.2,1.1-1.2,4.9-.6,9.8-2,14.2-3.6,11.6-12,25.6-25.6,22.3-.3-.1-.7-.3-.8-.6l-3.2-5.3c-.1-.2-.2-.4-.2-.6-.4-5.5,1-10.3,4-14.7,2.1-3,3.7-7.1,7.1-9.7.2-.2.3-.3.5-.6,2.4-5.9,7.4-9.4,13.4-14.6.3-.3.5-.8.5-1.2-1.9-15.6-24-17.1-35.4-15-11.1,2.1-21.9,6.2-32.4,12.1-.6.3-.9,1.1-.6,1.8,2.3,4.7,6.5,19,3.3,23.8-.2.3-.2.6-.2.8.3,4.9-5,15-7.5,18.2-5.5,7.1-25.2,28.6-35.4,18.5-.2-.2-.3-.5-.4-.7-2.6-14.1-.1-26.3,7.5-36.7,6.7-9.1,11.4-14.7,14.2-16.8,4.2-3,8.4-5.8,12.6-8.2.7-.4.9-1.2.5-1.9,0-.1-.2-.2-.3-.3l-6.6-6ZM325.3,64.6c11.6-12.4,15-27.7,9.1-43.8-.3-.7-1.1-1.1-1.8-.8-.1,0-.2.1-.3.2l-14.1,10.4c-.2.2-.4.3-.5.6-1.2,2.8-3.8,4.4-5.1,6-7.2,8.8-11.5,18.9-12.8,30.4-.5,4.4,0,8.3,1.8,11.6.3.6,1,.9,1.6.7,9-2.8,15.7-8.4,22.1-15.2h0c0,.1,0,.1,0,.1ZM264.7,22.7c-8,4.1-12.9,7.2-14.7,9.1-4.5,5-8.6,8.8-12.4,11.6-.1.1-.3.2-.3.4-7.7,12.5-16.1,22-13.4,37.9,1.7,10.2,11.6,8.8,18.5,5.1,7.9-4.3,11.2-8.3,17.4-16.9,3.8-5.3,6.5-11.2,9.5-17,.2-.3.2-.6.1-.9-.2-1.4.2-2.5,1.2-3.2.5-.3.7-.8.7-1.4-.6-3.8,1.4-6.5,1.2-9.9-.2-3.7,0-14.4-3.8-15.4.7-.5.8-.9.4-1.4-.2-.2-.5-.3-.8-.3-1.5.2-2.7.9-3.6,2h0ZM400.3,29.3c-3.4,2.4-4.3,6.1-6.9,9.1-4.1,4.6-6,9.1-8.7,14.3-1.9,3.5-.6,9.3,1.2,11.9.3.4.8.6,1.3.6,3.9-.5,6.9-2,9.2-4.7,1.5-1.8,4.7-4.3,5.3-5.4,2.1-4.1,3.4-6.9,3.9-8.5,1.1-3.6,1.8-7.2,1.9-10.7l.4-9.8c0-.8-.6-1.4-1.4-1.4s-.5,0-.7.2c-.8.5-1.6,1-2.2,1.6-1.5,1.6-2.6,2.5-3.2,3h0Z"/>
  <g>
    <path class="cls-3" d="M323.6,828.3c1.4.9,2.8,1.2,4.3.8,8.1-.8,16.2-1.2,24.2-1.4,2.9,0,4.1.7,4.5,3.7,0,.5-.2.8-.7.9l-28.6,1.8c-1.5-.3-2.6.1-3.4,1.4-.8,6.6-.8,13.2-.3,19.8.1,1.4,1.7,3.9-.8,4-2.3.1-4.4,0-4.7-2.9-.5-5.7-.6-11.5-.2-17.2.6-1.9.5-3.8-.3-5.6,0-.2-.1-.4,0-.6.3-1,.4-2,.2-2.8l-.5-1.3.6-1.5v-.6c-.7-1.6-.5-2.8.7-3.6.4-5.1,1.4-12.1.3-16.9-.1-.5.2-.8.6-1h.1c1.4-.1,2.6,0,3.8.6.3.1.5.4.5.7.4,7.2.3,14.5-.1,21.8h0Z"/>
    <path class="cls-3" d="M318.5,823.1c-1.2.8-1.5,2-.7,3.6.1.2.1.4,0,.6l-.6,1.5c-4.2-5.2-8.1-11-12.9-15.7-.3-.3-.3-.7,0-1.1,1.1-1.3,2.3-1.4,3.7-.3,1.5,1.2,2.7,2.3,3.6,3.4l6.9,8h0Z"/>
    <path class="cls-3" d="M327.9,829.2c-1.5.3-2.9,0-4.3-.8,3.8-4.3,8.1-8.2,12.5-11.9,1.3-1,2.8-2.6,4.4-4.7.2-.3.6-.4,1-.3,2.3,1,2.4,2.4.2,4.3-1.5,1.3-6.1,5.8-13.8,13.4Z"/>
    <path class="cls-3" d="M317.6,830.1c.2.8.2,1.8-.2,2.8v.6c.8,1.9,1,3.7.3,5.6.1-1-.2-1.2-.9-.7-5.8,4.9-14.5,12.1-17,17.6-.2.4-.3.7-.6,1.1-.2.4-.7.5-1.1.2-.7-.5-1.1-1.1-1.4-1.9-1.6-4.3,12.6-16,15.8-18.5.2-.1,3.7-1.9,2.1-1.9-9.8.4-15.9.5-18.4.4-1.6-.1-2.4-1-2.3-2.7,0-.4.3-.7.7-.7l22.9-1.9h0Z"/>
    <path class="cls-3" d="M327.2,834.1c4.9,6.5,10.1,12.8,15.7,18.7.3.3.3.8,0,1.1l-2.3,1.6c-.3.2-.7.2-1,0-5.1-4.2-9.8-10.7-13.2-15.1-1-1.3-1.9-3-2.5-5.1.8-1.2,2-1.7,3.4-1.4h-.2Z"/>
  </g>
  <g>
    <path class="cls-1" d="M161.3,152v-20.5h-6.8v-2.6h16.7v2.6h-6.8v20.5h-3.2ZM178.9,150.1c1.5,0,2.7-.5,3.3-1.5.7-1,1.1-2.7,1.1-4.9s-.4-3.9-1.1-4.9c-.7-1-1.8-1.5-3.3-1.5s-2.7.5-3.4,1.5c-.7,1-1,2.7-1,4.9s.3,3.9,1,4.9c.7,1,1.8,1.5,3.4,1.5ZM178.9,152.5c-2.5,0-4.4-.7-5.7-2.2-1.3-1.5-1.9-3.7-1.9-6.6s.6-5.1,1.9-6.6c1.3-1.5,3.2-2.3,5.7-2.3s4.4.8,5.7,2.3c1.3,1.5,1.9,3.7,1.9,6.6s-.6,5.1-1.9,6.6c-1.3,1.5-3.2,2.2-5.7,2.2ZM199.2,152v-22.6c1.2-.2,2.4-.4,3.7-.5,1.3-.1,2.4-.2,3.4-.2,2.6,0,4.5.5,5.9,1.6,1.4,1,2.1,2.5,2.1,4.4s-.4,2.4-1.1,3.3c-.7.9-1.7,1.6-3,2,1.6.4,2.9,1,3.8,2,.9,1,1.4,2.2,1.4,3.8s-.7,3.6-2.1,4.7c-1.4,1.1-3.4,1.6-6,1.6h-8ZM207.1,149.6c1.6,0,2.9-.3,3.7-1,.9-.7,1.3-1.7,1.3-3.1s-.5-2.3-1.4-3c-.9-.7-2.1-1.1-3.7-1.1h-4.7v8.2h4.8ZM206.1,131.1c-1,0-2.3.1-3.8.3v7.5h4.4c1.4,0,2.5-.4,3.3-1.1.8-.7,1.2-1.7,1.2-2.9,0-2.6-1.7-3.9-5.1-3.9ZM231.6,151.4c-1.5.7-3.2,1.1-5.1,1.1-2.7,0-4.8-.8-6.2-2.3-1.4-1.5-2.1-3.7-2.1-6.7s.3-3.4,1-4.7c.6-1.3,1.5-2.4,2.7-3.1,1.1-.7,2.5-1.1,3.9-1.1s3.7.6,4.9,1.8c1.2,1.2,1.8,2.9,1.8,5.1s0,1.7-.2,2.5h-10.9c0,3.9,2,5.8,5.7,5.8s3.2-.4,4.7-1.1v2.3ZM225.7,137c-1.3,0-2.3.5-3.1,1.4-.8.9-1.2,2.1-1.4,3.7h8.3c0-.1,0-.2,0-.3v-.3c0-1.4-.3-2.4-1-3.2-.7-.8-1.6-1.2-2.8-1.2ZM242.1,159.8c-2.1,0-3.8-.4-5.2-1.1l-.4-2.5c1.8.8,3.5,1.2,5.3,1.2,3.4,0,5-1.5,5-4.6v-1.9c-1.7.9-3.2,1.3-4.7,1.3-2.2,0-3.9-.7-5.1-2.2-1.2-1.5-1.8-3.5-1.8-6.1s.7-5.2,2.2-6.8c1.5-1.6,3.6-2.4,6.4-2.4s1.8.1,2.9.3c1.1.2,2.1.5,3.1.8v16.5c0,2.4-.7,4.2-2,5.5-1.4,1.3-3.3,1.9-5.8,1.9ZM243,149.8c.6,0,1.2,0,1.9-.3.7-.2,1.4-.5,2-.9v-11.1c-.9-.3-1.9-.4-2.9-.4-1.8,0-3.2.6-4.1,1.7-.9,1.1-1.3,2.8-1.3,5s.4,3.4,1.1,4.5c.7,1,1.8,1.5,3.3,1.5ZM255.1,152v-16.5l3.1-.4v16.9h-3.1ZM256.6,131.8c-.6,0-1.1-.2-1.5-.5-.4-.4-.5-.8-.5-1.4s.2-1.1.5-1.4c.4-.4.9-.5,1.5-.5s1.1.2,1.5.5c.4.3.6.8.6,1.4s-.2,1.1-.6,1.4c-.4.3-.8.5-1.5.5ZM273.9,152v-11.3c0-2.4-1.2-3.5-3.5-3.5s-1.3.1-2.1.3c-.7.2-1.4.5-2,.8v13.7h-3.1v-16.6l2.5-.3.2,1.2c1.8-1.1,3.6-1.6,5.4-1.6s3.2.5,4.2,1.5c1,.9,1.5,2.3,1.5,4.1v11.7h-3.1ZM280.2,157.4c.7-.8,1.2-1.7,1.6-2.6.4-.9.6-1.8.7-2.6-.4-.1-.8-.3-1-.7-.2-.4-.4-.8-.4-1.3s.2-1.1.6-1.5c.4-.4.9-.6,1.5-.6s1.1.2,1.5.7c.4.4.6,1,.6,1.8,0,1.2-.4,2.5-1.2,3.9-.8,1.4-1.7,2.5-2.8,3.4l-.9-.6ZM295.6,156.8c1.1-.2,1.9-.4,2.6-.8.7-.3,1.3-.8,1.8-1.4.5-.6,1-1.4,1.5-2.5l-6.3-16.9h3.3l4.5,13.4,4.5-13.4h3.2l-6.1,16.1c-.7,1.8-1.3,3.2-2,4.2-.7,1.1-1.5,1.9-2.5,2.5-1,.6-2.2,1.1-3.8,1.4l-.7-2.7ZM319.8,150.1c1.5,0,2.7-.5,3.3-1.5.7-1,1.1-2.7,1.1-4.9s-.4-3.9-1.1-4.9c-.7-1-1.8-1.5-3.3-1.5s-2.7.5-3.4,1.5c-.7,1-1,2.7-1,4.9s.3,3.9,1,4.9c.7,1,1.8,1.5,3.4,1.5ZM319.8,152.5c-2.5,0-4.4-.7-5.7-2.2-1.3-1.5-1.9-3.7-1.9-6.6s.6-5.1,1.9-6.6c1.3-1.5,3.2-2.3,5.7-2.3s4.4.8,5.7,2.3c1.3,1.5,1.9,3.7,1.9,6.6s-.6,5.1-1.9,6.6c-1.3,1.5-3.2,2.2-5.7,2.2ZM342.4,152.1l-.2-1.2c-1.8,1.1-3.6,1.6-5.4,1.6s-3.2-.5-4.2-1.5-1.5-2.3-1.5-4.1v-11.7h3.1v11.3c0,2.4,1.1,3.5,3.4,3.5s1.3,0,2.1-.3c.7-.2,1.4-.5,2-.9v-13.7h3.1v16.6l-2.5.3ZM348.3,137.1c.7-.8,1.2-1.6,1.6-2.5.4-.9.6-1.8.7-2.6-.4-.1-.8-.3-1.1-.7-.2-.4-.4-.8-.4-1.2s.2-1,.6-1.4c.4-.4.9-.6,1.5-.6s1.1.2,1.4.7c.4.4.6,1,.6,1.8s-.2,1.7-.6,2.6c-.4.9-.9,1.7-1.5,2.5-.6.8-1.2,1.5-1.9,2l-.9-.6ZM357.4,152v-24.8l3.1-.4v25.1h-3.1ZM365.5,152v-24.8l3.1-.4v25.1h-3.1ZM387.6,159.8c-2.1,0-3.8-.4-5.2-1.1l-.4-2.5c1.8.8,3.5,1.2,5.3,1.2,3.4,0,5-1.5,5-4.6v-1.9c-1.6.9-3.2,1.3-4.7,1.3-2.2,0-3.9-.7-5.1-2.2-1.2-1.5-1.8-3.5-1.8-6.1s.7-5.2,2.2-6.8c1.5-1.6,3.6-2.4,6.4-2.4s1.8.1,2.9.3c1.1.2,2.1.5,3.1.8v16.5c0,2.4-.7,4.2-2,5.5-1.4,1.3-3.3,1.9-5.8,1.9ZM388.5,149.8c.6,0,1.2,0,1.9-.3.7-.2,1.4-.5,2-.9v-11.1c-.9-.3-1.9-.4-2.9-.4-1.8,0-3.2.6-4.1,1.7-.9,1.1-1.3,2.8-1.3,5s.4,3.4,1.1,4.5c.7,1,1.8,1.5,3.3,1.5ZM413,151.4c-1.5.7-3.2,1.1-5.1,1.1-2.7,0-4.8-.8-6.2-2.3-1.4-1.5-2.1-3.7-2.1-6.7s.3-3.4,1-4.7c.6-1.3,1.5-2.4,2.7-3.1,1.1-.7,2.5-1.1,3.9-1.1s3.7.6,4.9,1.8c1.2,1.2,1.8,2.9,1.8,5.1s0,1.7-.2,2.5h-10.9c0,3.9,2,5.8,5.7,5.8s3.2-.4,4.7-1.1v2.3ZM407.1,137c-1.3,0-2.3.5-3.1,1.4-.8.9-1.2,2.1-1.4,3.7h8.3c0-.1,0-.2,0-.3v-.3c0-1.4-.3-2.4-1-3.2-.7-.8-1.6-1.2-2.8-1.2ZM421.6,137.5v9.6c0,1,.2,1.7.7,2.2.4.5,1.1.7,2,.7s1.4-.1,2.2-.4v2.2c-.9.4-1.9.5-2.9.5-1.7,0-2.9-.4-3.8-1.3-.9-.9-1.3-2.2-1.3-3.9v-9.7h-2.5v-2.1h2.6c0,0,.2-4.3.2-4.3l2.7-.3v4.5h4.7v2.2h-4.7ZM448.4,152.1l-.2-1.2c-1.8,1.1-3.6,1.6-5.4,1.6s-3.1-.5-4.2-1.4c-1-.9-1.5-2.2-1.5-3.8s.6-2.9,1.7-3.8c1.1-.9,2.8-1.4,4.8-1.4s2.6.1,4.2.4v-1.7c0-1.2-.4-2.1-1.1-2.7-.7-.6-1.7-.9-3.2-.9s-3.5.4-5.5,1.2v-2.4c.9-.4,1.9-.7,3-.9,1.1-.2,2.1-.3,3.1-.3,2.2,0,3.8.5,5,1.5,1.1,1,1.7,2.5,1.7,4.5v11.1l-2.5.3ZM443.6,150.1c.6,0,1.4-.1,2.1-.3s1.5-.5,2.1-.9v-4.2c-1-.3-2.3-.4-3.7-.4s-2.3.3-2.9.8c-.6.5-.9,1.2-.9,2.2,0,1.9,1.1,2.8,3.3,2.8ZM467.3,151.4c-1.5.7-3.2,1.1-5,1.1s-4.3-.8-5.6-2.3c-1.3-1.5-2-3.7-2-6.5s.7-5,2-6.6c1.3-1.6,3.2-2.3,5.6-2.3s3.3.4,4.9,1.1v2.4c-1.5-.7-3-1-4.4-1s-2.9.5-3.7,1.6c-.8,1.1-1.3,2.7-1.3,4.8s.4,3.7,1.3,4.8c.8,1.1,2.1,1.6,3.7,1.6s2.9-.3,4.5-1v2.4ZM482.5,151.4c-1.5.7-3.2,1.1-5,1.1s-4.3-.8-5.6-2.3c-1.3-1.5-2-3.7-2-6.5s.7-5,2-6.6c1.3-1.6,3.2-2.3,5.6-2.3s3.3.4,4.9,1.1v2.4c-1.5-.7-3-1-4.4-1s-2.9.5-3.7,1.6c-.8,1.1-1.3,2.7-1.3,4.8s.4,3.7,1.3,4.8c.8,1.1,2.1,1.6,3.7,1.6s2.9-.3,4.5-1v2.4ZM498.5,151.4c-1.5.7-3.2,1.1-5.1,1.1-2.7,0-4.8-.8-6.2-2.3-1.4-1.5-2.1-3.7-2.1-6.7s.3-3.4,1-4.7c.6-1.3,1.5-2.4,2.7-3.1,1.1-.7,2.5-1.1,3.9-1.1s3.7.6,4.9,1.8c1.2,1.2,1.8,2.9,1.8,5.1s0,1.7-.2,2.5h-10.9c0,3.9,2,5.8,5.7,5.8s3.2-.4,4.7-1.1v2.3ZM492.6,137c-1.3,0-2.3.5-3.1,1.4-.8.9-1.2,2.1-1.4,3.7h8.3c0-.1,0-.2,0-.3v-.3c0-1.4-.3-2.4-1-3.2-.7-.8-1.6-1.2-2.8-1.2ZM502.1,148.9c1.8.8,3.5,1.2,5.3,1.2s2.2-.2,2.9-.7c.7-.5,1-1.2,1-2.1s-.2-1.1-.6-1.5c-.4-.4-1-.7-1.8-1l-2.2-.7c-1.5-.5-2.6-1.1-3.3-1.8-.7-.7-1-1.7-1-2.8s.6-2.7,1.7-3.6c1.2-.9,2.7-1.3,4.7-1.3s3.3.3,4.8,1v2.4c-1.7-.6-3.2-1-4.6-1s-2,.2-2.6.7c-.6.4-.9,1-.9,1.7s.2.9.5,1.3c.3.3.9.6,1.8.9l2.5.8c2.7.8,4.1,2.4,4.1,4.9s-.6,3-1.7,3.9c-1.2.9-2.8,1.4-5,1.4s-3.8-.3-5.1-1l-.4-2.5ZM517.1,148.9c1.8.8,3.5,1.2,5.3,1.2s2.2-.2,2.9-.7c.7-.5,1-1.2,1-2.1s-.2-1.1-.6-1.5c-.4-.4-1-.7-1.8-1l-2.2-.7c-1.5-.5-2.6-1.1-3.3-1.8s-1-1.7-1-2.8.6-2.7,1.7-3.6c1.2-.9,2.7-1.3,4.7-1.3s3.3.3,4.8,1v2.4c-1.7-.6-3.2-1-4.6-1s-2,.2-2.6.7c-.6.4-.9,1-.9,1.7s.2.9.5,1.3c.3.3.9.6,1.8.9l2.5.8c2.7.8,4.1,2.4,4.1,4.9s-.6,3-1.7,3.9c-1.2.9-2.8,1.4-5,1.4s-3.8-.3-5.1-1l-.4-2.5ZM545.3,137.5v9.6c0,1,.2,1.7.7,2.2.4.5,1.1.7,2,.7s1.4-.1,2.2-.4v2.2c-.9.4-1.9.5-2.9.5-1.7,0-2.9-.4-3.8-1.3-.9-.9-1.3-2.2-1.3-3.9v-9.7h-2.5v-2.1h2.6c0,0,.2-4.3.2-4.3l2.7-.3v4.5h4.7v2.2h-4.7ZM560.1,150.1c1.5,0,2.7-.5,3.3-1.5.7-1,1.1-2.7,1.1-4.9s-.4-3.9-1.1-4.9c-.7-1-1.8-1.5-3.3-1.5s-2.7.5-3.4,1.5c-.7,1-1,2.7-1,4.9s.3,3.9,1,4.9c.7,1,1.8,1.5,3.4,1.5ZM560.1,152.5c-2.5,0-4.4-.7-5.7-2.2-1.3-1.5-1.9-3.7-1.9-6.6s.6-5.1,1.9-6.6c1.3-1.5,3.2-2.3,5.7-2.3s4.4.8,5.7,2.3c1.3,1.5,1.9,3.7,1.9,6.6s-.6,5.1-1.9,6.6c-1.3,1.5-3.2,2.2-5.7,2.2ZM162.9,181.9v7.4c0,1.4.7,2,2,2s1.3-.1,2-.4v3.8c-1.1.5-2.4.8-3.7.8-2,0-3.5-.5-4.5-1.5-1-1-1.6-2.5-1.6-4.4v-7.8h-2.5v-3.8h2.8c0,0,.4-4.4.4-4.4l5.1-.5v4.8h4v4h-4ZM169.7,195v-24.8l5.7-.5v8.8c.6-.3,1.2-.6,1.9-.8s1.4-.3,2-.3c2,0,3.5.5,4.5,1.6,1.1,1,1.6,2.5,1.6,4.4v11.7h-5.7v-11c0-.8-.2-1.4-.5-1.7-.3-.4-.8-.6-1.6-.6s-.8,0-1.3.2c-.4.1-.7.3-1,.4v12.7h-5.7ZM189,195v-16.8l4.6-.4.5,1.6c1.4-1.3,2.9-1.9,4.5-1.9s1.1,0,1.8.2v4.7c-.7-.2-1.3-.2-1.9-.2s-1.4,0-2,.3c-.7.2-1.2.4-1.6.8v11.8h-5.7ZM217.1,194.3c-1.7.8-3.5,1.2-5.6,1.2-3.1,0-5.5-.8-7.1-2.3-1.6-1.6-2.4-3.8-2.4-6.8s.4-3.4,1.1-4.8c.7-1.4,1.8-2.4,3-3.2,1.3-.7,2.8-1.1,4.4-1.1s4.1.6,5.4,1.9c1.3,1.3,2,3,2,5.2s-.1,1.9-.3,3.2h-9.9c.1,1.2.5,2.1,1.3,2.7.7.6,1.9.9,3.3.9s3.2-.4,4.8-1.1v4.1ZM210.5,181.2c-.9,0-1.5.3-2,.9-.5.6-.8,1.4-.8,2.4h5.2v-.7c0-1.8-.8-2.7-2.4-2.7ZM235.3,194.3c-1.7.8-3.5,1.2-5.6,1.2-3.1,0-5.5-.8-7.1-2.3-1.6-1.6-2.4-3.8-2.4-6.8s.4-3.4,1.1-4.8c.7-1.4,1.8-2.4,3-3.2,1.3-.7,2.8-1.1,4.4-1.1s4.1.6,5.4,1.9c1.3,1.3,2,3,2,5.2s-.1,1.9-.3,3.2h-9.9c.1,1.2.5,2.1,1.3,2.7.7.6,1.9.9,3.3.9s3.2-.4,4.8-1.1v4.1ZM228.7,181.2c-.9,0-1.5.3-2,.9-.5.6-.8,1.4-.8,2.4h5.2v-.7c0-1.8-.8-2.7-2.4-2.7ZM265.2,181.7c-.4,0-.8,0-1.3.2-.4.1-.8.3-1.1.5,0,.2,0,.3,0,.5,0,.2,0,.3,0,.5v11.7h-5.7v-11c0-1.5-.6-2.3-1.9-2.3s-.8,0-1.2.2c-.4.1-.7.3-1,.4v12.7h-5.7v-16.8l4.6-.4.3,1c.7-.5,1.5-.8,2.4-1.1.9-.3,1.7-.4,2.5-.4,2,0,3.5.5,4.5,1.6,1.8-1.1,3.6-1.6,5.4-1.6s3.3.5,4.4,1.6c1,1,1.6,2.5,1.6,4.4v11.7h-5.7v-11c0-1.5-.6-2.3-1.9-2.3ZM284.1,191.2c.9,0,1.5-.4,1.9-1.1.4-.7.6-1.9.6-3.7s-.2-3-.6-3.7c-.4-.7-1-1.1-1.9-1.1s-1.5.4-1.9,1.1c-.4.7-.6,1.9-.6,3.7s.2,3,.6,3.7c.4.7,1,1.1,1.9,1.1ZM284.1,195.5c-2.8,0-4.9-.8-6.3-2.3-1.5-1.6-2.2-3.8-2.2-6.8s.7-5.2,2.2-6.7c1.5-1.6,3.6-2.3,6.3-2.3s4.9.8,6.3,2.3c1.5,1.5,2.2,3.8,2.2,6.7s-.7,5.2-2.2,6.8c-1.5,1.5-3.6,2.3-6.3,2.3ZM306.9,195.1l-.3-1c-1.5,1-3.1,1.5-4.8,1.5s-3.9-.8-5.1-2.3-1.8-3.7-1.8-6.4.7-5.3,2.1-6.9c1.5-1.6,3.5-2.4,6.2-2.4s1.7,0,2.5.3v-7.5l5.7-.5v25l-4.6.4ZM303.5,191.2c.3,0,.7,0,1.1-.2s.8-.3,1.1-.4v-9c-.6,0-1.1-.1-1.5-.1-1.2,0-2,.4-2.6,1.3-.5.8-.8,2.1-.8,3.9s.2,2.7.6,3.5c.4.7,1.1,1.1,2,1.1ZM326,195.1l-.3-1c-.8.5-1.6.8-2.4,1.1-.8.3-1.7.4-2.4.4-1.9,0-3.4-.5-4.4-1.5-1-1-1.6-2.5-1.6-4.4v-11.7h5.7v11c0,.8.2,1.4.5,1.7.3.4.8.6,1.5.6s.8,0,1.2-.2c.4-.1.8-.3,1-.4v-12.7h5.7v16.8l-4.6.4ZM334.2,195v-24.8l5.7-.5v25.3h-5.7ZM358.1,194.3c-1.7.8-3.5,1.2-5.6,1.2-3.1,0-5.5-.8-7.1-2.3-1.6-1.6-2.4-3.8-2.4-6.8s.4-3.4,1.1-4.8c.7-1.4,1.8-2.4,3-3.2,1.3-.7,2.8-1.1,4.4-1.1s4.1.6,5.4,1.9c1.3,1.3,2,3,2,5.2s-.1,1.9-.3,3.2h-9.9c.1,1.2.5,2.1,1.3,2.7.7.6,1.9.9,3.3.9s3.2-.4,4.8-1.1v4.1ZM351.5,181.2c-.9,0-1.5.3-2,.9-.5.6-.8,1.4-.8,2.4h5.2v-.7c0-1.8-.8-2.7-2.4-2.7ZM361,190.2c.8.4,1.7.7,2.7.9,1,.2,2,.3,2.9.3s1.6-.1,2.1-.4c.5-.3.8-.6.8-1.2s-.1-.6-.4-.8c-.2-.2-.6-.4-1.2-.5l-1.7-.4c-1.7-.4-3-1.1-3.8-1.9-.8-.8-1.2-1.9-1.2-3.2s.7-3.2,2-4.2c1.3-1,3.2-1.5,5.6-1.5s3.8.4,5.5,1.2v4c-1.8-.7-3.5-1.1-5-1.1s-2.4.4-2.4,1.3,0,.5.3.7c.2.2.6.3,1.2.5l2.2.6c1.6.4,2.7,1.1,3.5,1.9.7.9,1.1,2,1.1,3.4,0,3.8-2.7,5.7-8,5.7s-4.1-.4-5.6-1.1l-.6-4.3ZM390.7,180.5v9.6c0,1,.2,1.7.7,2.2.4.5,1.1.7,2,.7s1.4-.1,2.2-.4v2.2c-.9.4-1.9.5-2.9.5-1.7,0-2.9-.4-3.8-1.3-.9-.9-1.3-2.2-1.3-3.9v-9.7h-2.5v-2.1h2.6c0,0,.2-4.3.2-4.3l2.7-.3v4.5h4.7v2.2h-4.7ZM405.5,193.1c1.5,0,2.7-.5,3.3-1.5.7-1,1.1-2.7,1.1-4.9s-.4-3.9-1.1-4.9c-.7-1-1.8-1.5-3.3-1.5s-2.7.5-3.4,1.5c-.7,1-1,2.7-1,4.9s.3,3.9,1,4.9c.7,1,1.8,1.5,3.4,1.5ZM405.5,195.5c-2.5,0-4.4-.7-5.7-2.2-1.3-1.5-1.9-3.7-1.9-6.6s.6-5.1,1.9-6.6c1.3-1.5,3.2-2.3,5.7-2.3s4.4.8,5.7,2.3c1.3,1.5,1.9,3.7,1.9,6.6s-.6,5.1-1.9,6.6c-1.3,1.5-3.2,2.2-5.7,2.2ZM437.1,194.4c-1.5.7-3.2,1.1-5,1.1s-4.3-.8-5.6-2.3c-1.3-1.5-2-3.7-2-6.5s.7-5,2-6.6c1.3-1.6,3.2-2.3,5.6-2.3s3.3.4,4.9,1.1v2.4c-1.5-.7-3-1-4.4-1s-2.9.5-3.7,1.6c-.8,1.1-1.3,2.7-1.3,4.8s.4,3.7,1.3,4.8c.8,1.1,2.1,1.6,3.7,1.6s2.9-.3,4.5-1v2.4ZM447.2,193.1c1.5,0,2.7-.5,3.3-1.5.7-1,1.1-2.7,1.1-4.9s-.4-3.9-1.1-4.9c-.7-1-1.8-1.5-3.3-1.5s-2.7.5-3.4,1.5c-.7,1-1,2.7-1,4.9s.3,3.9,1,4.9c.7,1,1.8,1.5,3.4,1.5ZM447.2,195.5c-2.5,0-4.4-.7-5.7-2.2-1.3-1.5-1.9-3.7-1.9-6.6s.6-5.1,1.9-6.6c1.3-1.5,3.2-2.3,5.7-2.3s4.4.8,5.7,2.3c1.3,1.5,1.9,3.7,1.9,6.6s-.6,5.1-1.9,6.6c-1.3,1.5-3.2,2.2-5.7,2.2ZM478.6,195v-11.6c0-2.1-1-3.2-3.1-3.2s-2.5.4-3.9,1.2c.1.5.2,1,.2,1.5v12.1h-3.1v-11.6c0-2.1-1-3.2-3.1-3.2s-2.5.4-3.7,1.2v13.7h-3.1v-16.6l2.5-.3.2,1.2c1.7-1.1,3.4-1.6,5-1.6s3.3.6,4.3,1.8c2-1.2,3.9-1.8,5.6-1.8s2.9.5,3.9,1.4c.9.9,1.4,2.2,1.4,3.8v12.1h-3.1ZM486.5,202.5v-24l2.5-.3.2,1.2c1.7-1.1,3.4-1.6,5-1.6s3.8.8,5,2.3c1.2,1.5,1.8,3.6,1.8,6.3s-.7,5.2-2.1,6.8c-1.4,1.6-3.4,2.4-6,2.4s-2.4-.2-3.4-.5v7.1l-3.1.4ZM493.6,180.2c-.6,0-1.3.1-2,.3-.7.2-1.4.5-1.9.8v11.4c.9.3,1.9.4,2.9.4,1.8,0,3.1-.6,4-1.6.9-1.1,1.4-2.8,1.4-5s-.4-3.6-1.1-4.7c-.7-1.1-1.8-1.6-3.3-1.6ZM505.2,195v-24.8l3.1-.4v25.1h-3.1ZM525.8,194.4c-1.5.7-3.2,1.1-5.1,1.1-2.7,0-4.8-.8-6.2-2.3-1.4-1.5-2.1-3.7-2.1-6.7s.3-3.4,1-4.7c.6-1.3,1.5-2.4,2.7-3.1,1.1-.7,2.5-1.1,3.9-1.1s3.7.6,4.9,1.8c1.2,1.2,1.8,2.9,1.8,5.1s0,1.7-.2,2.5h-10.9c0,3.9,2,5.8,5.7,5.8s3.2-.4,4.7-1.1v2.3ZM519.9,180c-1.3,0-2.3.5-3.1,1.4-.8.9-1.2,2.1-1.4,3.7h8.3c0-.1,0-.2,0-.3v-.3c0-1.4-.3-2.4-1-3.2-.7-.8-1.6-1.2-2.8-1.2ZM534.4,180.5v9.6c0,1,.2,1.7.7,2.2.4.5,1.1.7,2,.7s1.4-.1,2.2-.4v2.2c-.9.4-1.9.5-2.9.5-1.7,0-2.9-.4-3.8-1.3-.9-.9-1.3-2.2-1.3-3.9v-9.7h-2.5v-2.1h2.6c0,0,.2-4.3.2-4.3l2.7-.3v4.5h4.7v2.2h-4.7ZM555.1,194.4c-1.5.7-3.2,1.1-5.1,1.1-2.7,0-4.8-.8-6.2-2.3-1.4-1.5-2.1-3.7-2.1-6.7s.3-3.4,1-4.7c.6-1.3,1.5-2.4,2.7-3.1,1.1-.7,2.5-1.1,3.9-1.1s3.7.6,4.9,1.8c1.2,1.2,1.8,2.9,1.8,5.1s0,1.7-.2,2.5h-10.9c0,3.9,2,5.8,5.7,5.8s3.2-.4,4.7-1.1v2.3ZM549.1,180c-1.3,0-2.3.5-3.1,1.4-.8.9-1.2,2.1-1.4,3.7h8.3c0-.1,0-.2,0-.3v-.3c0-1.4-.3-2.4-1-3.2-.7-.8-1.6-1.2-2.8-1.2ZM561.1,195.2c-.6,0-1.1-.2-1.5-.6-.4-.4-.6-.9-.6-1.5s.2-1.1.6-1.5c.4-.4.9-.6,1.5-.6s1.1.2,1.5.6c.4.4.6.9.6,1.5s-.2,1.1-.6,1.5c-.4.4-.9.6-1.5.6Z"/>
    <path class="cls-1" d="M171.2,448l-11.2-17.8v17.8h-3.1v-23.1h2.9l11.2,17.8v-17.8h3.1v23.1h-2.9ZM189.9,448.1l-.2-1.2c-1.8,1.1-3.6,1.6-5.4,1.6s-3.1-.5-4.2-1.4c-1-.9-1.5-2.2-1.5-3.8s.6-2.9,1.7-3.8c1.1-.9,2.8-1.4,4.8-1.4s2.6.1,4.2.4v-1.7c0-1.2-.4-2.1-1.1-2.7-.7-.6-1.7-.9-3.2-.9s-3.5.4-5.5,1.2v-2.4c.9-.4,1.9-.7,3-.9,1.1-.2,2.1-.3,3.1-.3,2.2,0,3.8.5,4.9,1.5,1.1,1,1.7,2.5,1.7,4.5v11.1l-2.5.3ZM185.1,446.1c.6,0,1.4-.1,2.1-.3.8-.2,1.5-.5,2.1-.9v-4.2c-1-.3-2.3-.4-3.7-.4s-2.3.3-2.9.8c-.6.5-.9,1.2-.9,2.2,0,1.9,1.1,2.8,3.3,2.8ZM201.2,448l-6.2-16.8h3.3l4.5,13.4,4.6-13.4h3.2l-6.3,16.8h-3ZM213.2,448v-16.5l3.1-.4v16.9h-3.1ZM214.7,427.8c-.6,0-1.1-.2-1.5-.5-.4-.4-.5-.8-.5-1.4s.2-1.1.5-1.4c.4-.4.9-.5,1.5-.5s1.1.2,1.5.5c.4.3.6.8.6,1.4s-.2,1.1-.6,1.4c-.4.3-.8.5-1.5.5ZM227.1,455.8c-2.1,0-3.8-.4-5.2-1.1l-.4-2.5c1.8.8,3.5,1.2,5.3,1.2,3.4,0,5-1.5,5-4.6v-1.9c-1.7.9-3.2,1.3-4.7,1.3-2.2,0-3.9-.7-5.1-2.2-1.2-1.5-1.8-3.5-1.8-6.1s.7-5.2,2.2-6.8c1.5-1.6,3.6-2.4,6.4-2.4s1.8.1,2.9.3c1.1.2,2.1.5,3.1.8v16.5c0,2.4-.7,4.2-2,5.5s-3.3,1.9-5.8,1.9ZM227.9,445.8c.6,0,1.2,0,1.9-.3.7-.2,1.4-.5,2-.9v-11.1c-.9-.3-1.9-.4-2.9-.4-1.8,0-3.2.6-4.1,1.6-.9,1.1-1.3,2.8-1.3,5s.4,3.4,1.1,4.5c.7,1,1.8,1.5,3.3,1.5ZM250.3,448.1l-.2-1.2c-1.8,1.1-3.6,1.6-5.4,1.6s-3.1-.5-4.2-1.4c-1-.9-1.5-2.2-1.5-3.8s.6-2.9,1.7-3.8c1.1-.9,2.8-1.4,4.8-1.4s2.6.1,4.2.4v-1.7c0-1.2-.4-2.1-1.1-2.7-.7-.6-1.7-.9-3.2-.9s-3.5.4-5.5,1.2v-2.4c.9-.4,1.9-.7,3-.9,1.1-.2,2.1-.3,3.1-.3,2.2,0,3.8.5,4.9,1.5,1.1,1,1.7,2.5,1.7,4.5v11.1l-2.5.3ZM245.5,446.1c.6,0,1.4-.1,2.1-.3.8-.2,1.5-.5,2.1-.9v-4.2c-1-.3-2.3-.4-3.7-.4s-2.3.3-2.9.8c-.6.5-.9,1.2-.9,2.2,0,1.9,1.1,2.8,3.3,2.8ZM261.4,433.5v9.6c0,1,.2,1.7.7,2.2.4.5,1.1.7,2,.7s1.4-.1,2.2-.4v2.2c-.9.4-1.9.5-2.9.5-1.7,0-2.9-.4-3.8-1.3-.9-.9-1.3-2.2-1.3-3.9v-9.7h-2.5v-2.1h2.6c0,0,.2-4.3.2-4.3l2.7-.3v4.5h4.7v2.2h-4.7ZM282.1,447.4c-1.5.7-3.2,1.1-5.1,1.1-2.7,0-4.8-.8-6.2-2.3-1.4-1.5-2.1-3.7-2.1-6.7s.3-3.4,1-4.7c.6-1.3,1.5-2.4,2.7-3.1,1.1-.7,2.5-1.1,3.9-1.1s3.7.6,4.9,1.8c1.2,1.2,1.8,2.9,1.8,5.1s0,1.7-.2,2.5h-10.9c0,3.9,2,5.8,5.7,5.8s3.2-.4,4.7-1.1v2.3ZM276.2,433c-1.3,0-2.3.5-3.1,1.4-.8.9-1.2,2.1-1.4,3.7h8.3c0-.1,0-.2,0-.3v-.3c0-1.4-.3-2.4-1-3.2-.7-.8-1.6-1.2-2.8-1.2ZM298.9,433.5v9.6c0,1,.2,1.7.7,2.2.4.5,1.1.7,2,.7s1.4-.1,2.2-.4v2.2c-.9.4-1.9.5-2.9.5-1.7,0-2.9-.4-3.8-1.3-.9-.9-1.3-2.2-1.3-3.9v-9.7h-2.5v-2.1h2.6c0,0,.2-4.3.2-4.3l2.7-.3v4.5h4.7v2.2h-4.7ZM307.1,448v-24.8l3.1-.4v9.2c1.7-.9,3.4-1.4,5-1.4s3.2.5,4.2,1.5c1,.9,1.5,2.3,1.5,4.1v11.7h-3.1v-11.3c0-2.4-1.2-3.5-3.5-3.5s-1.3.1-2.1.3c-.7.2-1.4.5-2,.8v13.7h-3.1ZM338.2,447.4c-1.5.7-3.2,1.1-5.1,1.1-2.7,0-4.8-.8-6.2-2.3-1.4-1.5-2.1-3.7-2.1-6.7s.3-3.4,1-4.7c.6-1.3,1.5-2.4,2.7-3.1,1.1-.7,2.5-1.1,3.9-1.1s3.7.6,4.9,1.8c1.2,1.2,1.8,2.9,1.8,5.1s0,1.7-.2,2.5h-10.9c0,3.9,2,5.8,5.7,5.8s3.2-.4,4.7-1.1v2.3ZM332.3,433c-1.3,0-2.3.5-3.1,1.4-.8.9-1.2,2.1-1.4,3.7h8.3c0-.1,0-.2,0-.3v-.3c0-1.4-.3-2.4-1-3.2-.7-.8-1.6-1.2-2.8-1.2ZM362.8,448v-11.6c0-2.1-1-3.2-3.1-3.2s-2.5.4-3.9,1.2c.1.5.2,1,.2,1.5v12.1h-3.1v-11.6c0-2.1-1-3.2-3.1-3.2s-2.5.4-3.7,1.2v13.7h-3.1v-16.6l2.5-.3.2,1.2c1.7-1.1,3.4-1.6,5-1.6s3.3.6,4.3,1.8c2-1.2,3.9-1.8,5.6-1.8s2.9.5,3.9,1.4c.9.9,1.4,2.2,1.4,3.8v12.1h-3.1ZM390,448.1l-.2-1.2c-1.8,1.1-3.6,1.6-5.4,1.6s-3.2-.5-4.2-1.5-1.5-2.3-1.5-4.1v-11.7h3.1v11.3c0,2.4,1.1,3.5,3.4,3.5s1.3,0,2.1-.3c.7-.2,1.4-.5,2-.9v-13.7h3.1v16.6l-2.5.3ZM396.3,444.9c1.8.8,3.5,1.2,5.3,1.2s2.2-.2,2.9-.7c.7-.5,1-1.2,1-2.1s-.2-1.1-.6-1.5-1-.7-1.8-1l-2.2-.7c-1.5-.5-2.6-1.1-3.3-1.8-.7-.7-1-1.6-1-2.8s.6-2.7,1.7-3.6c1.2-.9,2.7-1.3,4.7-1.3s3.3.3,4.8,1v2.4c-1.7-.6-3.2-1-4.6-1s-2,.2-2.6.7c-.6.4-.9,1-.9,1.7s.2.9.5,1.3c.3.3.9.6,1.8.9l2.5.8c2.7.8,4.1,2.4,4.1,4.9s-.6,3-1.7,3.9c-1.2.9-2.8,1.4-5,1.4s-3.8-.3-5.1-1l-.4-2.5ZM412.5,448v-16.5l3.1-.4v16.9h-3.1ZM414.1,427.8c-.6,0-1.1-.2-1.5-.5-.4-.4-.5-.8-.5-1.4s.2-1.1.5-1.4c.4-.4.9-.5,1.5-.5s1.1.2,1.5.5c.4.3.6.8.6,1.4s-.2,1.1-.6,1.4c-.4.3-.8.5-1.5.5ZM431.4,448v-11.3c0-2.4-1.2-3.5-3.5-3.5s-1.3.1-2.1.3c-.7.2-1.4.5-2,.8v13.7h-3.1v-16.6l2.5-.3.2,1.2c1.8-1.1,3.6-1.6,5.4-1.6s3.2.5,4.2,1.5c1,.9,1.5,2.3,1.5,4.1v11.7h-3.1ZM445.1,455.8c-2.1,0-3.8-.4-5.2-1.1l-.4-2.5c1.8.8,3.5,1.2,5.3,1.2,3.4,0,5-1.5,5-4.6v-1.9c-1.6.9-3.2,1.3-4.7,1.3-2.2,0-3.9-.7-5.1-2.2-1.2-1.5-1.8-3.5-1.8-6.1s.7-5.2,2.2-6.8c1.5-1.6,3.6-2.4,6.4-2.4s1.8.1,2.9.3c1.1.2,2.1.5,3.1.8v16.5c0,2.4-.7,4.2-2,5.5-1.4,1.3-3.3,1.9-5.8,1.9ZM445.9,445.8c.6,0,1.2,0,1.9-.3.7-.2,1.4-.5,2-.9v-11.1c-.9-.3-1.9-.4-2.9-.4-1.8,0-3.2.6-4.1,1.6-.9,1.1-1.3,2.8-1.3,5s.4,3.4,1.1,4.5c.7,1,1.8,1.5,3.3,1.5ZM470,433.5v9.6c0,1,.2,1.7.7,2.2.4.5,1.1.7,2,.7s1.4-.1,2.2-.4v2.2c-.9.4-1.9.5-2.9.5-1.7,0-2.9-.4-3.8-1.3-.9-.9-1.3-2.2-1.3-3.9v-9.7h-2.5v-2.1h2.6c0,0,.2-4.3.2-4.3l2.7-.3v4.5h4.7v2.2h-4.7ZM478.2,448v-24.8l3.1-.4v9.2c1.7-.9,3.4-1.4,5-1.4s3.2.5,4.2,1.5c1,.9,1.5,2.3,1.5,4.1v11.7h-3.1v-11.3c0-2.4-1.2-3.5-3.5-3.5s-1.3.1-2.1.3c-.7.2-1.4.5-2,.8v13.7h-3.1ZM509.3,447.4c-1.5.7-3.2,1.1-5.1,1.1-2.7,0-4.8-.8-6.2-2.3-1.4-1.5-2.1-3.7-2.1-6.7s.3-3.4,1-4.7c.6-1.3,1.5-2.4,2.7-3.1,1.1-.7,2.5-1.1,3.9-1.1s3.7.6,4.9,1.8c1.2,1.2,1.8,2.9,1.8,5.1s0,1.7-.2,2.5h-10.9c0,3.9,2,5.8,5.7,5.8s3.2-.4,4.7-1.1v2.3ZM503.4,433c-1.3,0-2.3.5-3.1,1.4-.8.9-1.2,2.1-1.4,3.7h8.3c0-.1,0-.2,0-.3v-.3c0-1.4-.3-2.4-1-3.2-.7-.8-1.6-1.2-2.8-1.2ZM156.5,476.6l-.5-8.7h3l-.5,8.7h-2ZM162.2,476.6l-.5-8.7h3l-.5,8.7h-2ZM169.6,491v-22.6c1-.2,2.2-.4,3.5-.5,1.3-.1,2.4-.2,3.3-.2,2.7,0,4.9.6,6.4,1.9,1.5,1.3,2.3,3,2.3,5.3s-.8,4.1-2.4,5.4c-1.6,1.3-3.8,1.9-6.5,1.9h-3.4v8.8h-3.2ZM176.2,470.1c-1,0-2.2.1-3.4.3v9.3h3.3c1.8,0,3.2-.4,4.2-1.3,1-.8,1.5-2,1.5-3.6s-.5-2.8-1.4-3.6c-.9-.8-2.3-1.2-4.1-1.2ZM188.2,491v-16.6l2.5-.3.3,1.5c1.5-1.2,3-1.8,4.7-1.8s1,0,1.5.2v2.5c-.5-.1-1.1-.2-1.6-.2-1.6,0-3,.5-4.2,1.5v13.1h-3.1ZM212.4,490.4c-1.5.7-3.2,1.1-5.1,1.1-2.7,0-4.8-.8-6.2-2.3-1.4-1.5-2.1-3.7-2.1-6.7s.3-3.4,1-4.7c.6-1.3,1.5-2.4,2.7-3.1,1.1-.7,2.5-1.1,3.9-1.1s3.7.6,4.9,1.8c1.2,1.2,1.8,2.9,1.8,5.1s0,1.7-.2,2.5h-10.9c0,3.9,2,5.8,5.7,5.8s3.2-.4,4.7-1.1v2.3ZM206.5,476c-1.3,0-2.3.5-3.1,1.4-.8.9-1.2,2.1-1.4,3.7h8.3c0-.1,0-.2,0-.3v-.3c0-1.4-.3-2.4-1-3.2-.7-.8-1.6-1.2-2.8-1.2ZM221.1,491l-6.2-16.8h3.3l4.5,13.4,4.6-13.4h3.2l-6.3,16.8h-3ZM233.1,491v-16.5l3.1-.4v16.9h-3.1ZM234.6,470.8c-.6,0-1.1-.2-1.5-.5-.4-.4-.5-.8-.5-1.4s.2-1.1.5-1.4c.4-.4.9-.5,1.5-.5s1.1.2,1.5.5c.4.3.6.8.6,1.4s-.2,1.1-.6,1.4c-.4.3-.8.5-1.5.5ZM247.8,489.1c1.5,0,2.7-.5,3.3-1.5.7-1,1.1-2.7,1.1-4.9s-.4-3.9-1.1-4.9c-.7-1-1.8-1.5-3.3-1.5s-2.7.5-3.4,1.5c-.7,1-1,2.7-1,4.9s.3,3.9,1,4.9c.7,1,1.8,1.5,3.4,1.5ZM247.8,491.5c-2.5,0-4.4-.7-5.7-2.2-1.3-1.5-1.9-3.7-1.9-6.6s.6-5.1,1.9-6.6c1.3-1.5,3.2-2.3,5.7-2.3s4.4.8,5.7,2.3c1.3,1.5,1.9,3.7,1.9,6.6s-.6,5.1-1.9,6.6c-1.3,1.5-3.2,2.2-5.7,2.2ZM270.5,491.1l-.2-1.2c-1.8,1.1-3.6,1.6-5.4,1.6s-3.2-.5-4.2-1.5-1.5-2.3-1.5-4.1v-11.7h3.1v11.3c0,2.4,1.1,3.5,3.4,3.5s1.3,0,2.1-.3c.7-.2,1.4-.5,2-.9v-13.7h3.1v16.6l-2.5.3ZM276.8,487.9c1.8.8,3.5,1.2,5.3,1.2s2.2-.2,2.9-.7c.7-.5,1-1.2,1-2.1s-.2-1.1-.6-1.5-1-.7-1.8-1l-2.2-.7c-1.5-.5-2.6-1.1-3.3-1.8-.7-.7-1-1.6-1-2.8s.6-2.7,1.7-3.6c1.2-.9,2.7-1.3,4.7-1.3s3.3.3,4.8,1v2.4c-1.7-.6-3.2-1-4.6-1s-2,.2-2.6.7c-.6.4-.9,1-.9,1.7s.2.9.5,1.3c.3.3.9.6,1.8.9l2.5.8c2.7.8,4.1,2.4,4.1,4.9s-.6,3-1.7,3.9c-1.2.9-2.8,1.4-5,1.4s-3.8-.3-5.1-1l-.4-2.5ZM292.4,476.6l-.5-8.7h3l-.5,8.7h-2ZM298,476.6l-.5-8.7h3l-.5,8.7h-2ZM328.8,491l-3.1-3.2c-1,1.3-2.1,2.2-3.3,2.8-1.1.6-2.4.9-3.8.9s-3.6-.6-4.9-1.7c-1.2-1.1-1.8-2.6-1.8-4.4,0-2.8,1.6-5.1,4.9-7-1-1.1-1.7-2.1-2.2-3-.4-.9-.7-1.8-.7-2.7,0-1.6.5-2.9,1.6-3.8,1.1-1,2.5-1.5,4.2-1.5s2.1.2,3,.7c.9.5,1.6,1.1,2,1.9.5.8.7,1.7.7,2.6s-.4,2.2-1.1,3.2c-.7,1-1.9,2-3.6,3l4.8,5c1.8-2.4,3.3-4.3,4.5-5.6l.8,3c-1.3,1.4-2.5,2.9-3.6,4.4l5.2,5.4h-3.6ZM318.8,489.1c.9,0,1.8-.3,2.6-.8.8-.5,1.7-1.3,2.5-2.4l-5.5-5.8c-1.1.7-2,1.5-2.5,2.3-.5.8-.8,1.7-.8,2.7s.3,2.1,1,2.8c.7.7,1.6,1.1,2.7,1.1ZM316.7,472.8c0,.7.2,1.3.5,2,.4.6,1,1.4,1.9,2.4,1.3-.7,2.2-1.5,2.7-2.1.5-.7.8-1.4.8-2.3s-.3-1.6-.8-2.1c-.6-.6-1.3-.9-2.1-.9s-1.6.3-2.1.9-.8,1.3-.8,2.2ZM343.1,476.6l-.5-8.7h3l-.5,8.7h-2ZM348.8,476.6l-.5-8.7h3l-.5,8.7h-2ZM370.5,491l-11.2-17.8v17.8h-3.1v-23.1h2.9l11.2,17.8v-17.8h3.1v23.1h-2.9ZM391.3,490.4c-1.5.7-3.2,1.1-5.1,1.1-2.7,0-4.8-.8-6.2-2.3-1.4-1.5-2.1-3.7-2.1-6.7s.3-3.4,1-4.7c.6-1.3,1.5-2.4,2.7-3.1,1.1-.7,2.5-1.1,3.9-1.1s3.7.6,4.9,1.8c1.2,1.2,1.8,2.9,1.8,5.1s0,1.7-.2,2.5h-10.9c0,3.9,2,5.8,5.7,5.8s3.2-.4,4.7-1.1v2.3ZM385.4,476c-1.3,0-2.3.5-3.1,1.4-.8.9-1.2,2.1-1.4,3.7h8.3c0-.1,0-.2,0-.3v-.3c0-1.4-.3-2.4-1-3.2-.7-.8-1.6-1.2-2.8-1.2ZM406,491l-4.5-6.6-4.4,6.6h-3.3l6.1-8.6-5.7-8.2h3.4l4,6.2,4.1-6.2h3.3l-5.8,8.2,6.2,8.6h-3.4ZM416,476.5v9.6c0,1,.2,1.7.7,2.2.4.5,1.1.7,2,.7s1.4-.1,2.2-.4v2.2c-.9.4-1.9.5-2.9.5-1.7,0-2.9-.4-3.8-1.3-.9-.9-1.3-2.2-1.3-3.9v-9.7h-2.5v-2.1h2.6c0,0,.2-4.3.2-4.3l2.7-.3v4.5h4.7v2.2h-4.7ZM424.2,476.6l-.5-8.7h3l-.5,8.7h-2ZM429.8,476.6l-.5-8.7h3l-.5,8.7h-2ZM448.2,475.1c1.6-.9,3.2-1.3,4.7-1.3,2.2,0,3.8.8,5,2.3,1.2,1.5,1.8,3.6,1.8,6.3s-.7,5.2-2.2,6.8c-1.5,1.6-3.6,2.3-6.4,2.3s-4-.3-6-.9v-24.4l3.1-.4v9.2ZM452.1,476.2c-.6,0-1.3.1-2,.3-.7.2-1.4.5-1.9.8v11.4c.9.3,1.9.4,2.9.4,1.8,0,3.1-.5,4-1.6.9-1.1,1.4-2.8,1.4-5s-.4-3.6-1.1-4.7c-.7-1.1-1.8-1.6-3.3-1.6ZM474.8,491.1l-.2-1.2c-1.8,1.1-3.6,1.6-5.4,1.6s-3.2-.5-4.2-1.5-1.5-2.3-1.5-4.1v-11.7h3.1v11.3c0,2.4,1.1,3.5,3.4,3.5s1.3,0,2.1-.3c.7-.2,1.4-.5,2-.9v-13.7h3.1v16.6l-2.5.3ZM486.1,476.5v9.6c0,1,.2,1.7.7,2.2.4.5,1.1.7,2,.7s1.4-.1,2.2-.4v2.2c-.9.4-1.9.5-2.9.5-1.7,0-2.9-.4-3.8-1.3-.9-.9-1.3-2.2-1.3-3.9v-9.7h-2.5v-2.1h2.6c0,0,.2-4.3.2-4.3l2.7-.3v4.5h4.7v2.2h-4.7ZM498,476.5v9.6c0,1,.2,1.7.7,2.2.4.5,1.1.7,2,.7s1.4-.1,2.2-.4v2.2c-.9.4-1.9.5-2.9.5-1.7,0-2.9-.4-3.8-1.3-.9-.9-1.3-2.2-1.3-3.9v-9.7h-2.5v-2.1h2.6c0,0,.2-4.3.2-4.3l2.7-.3v4.5h4.7v2.2h-4.7ZM512.8,489.1c1.5,0,2.7-.5,3.3-1.5.7-1,1.1-2.7,1.1-4.9s-.4-3.9-1.1-4.9c-.7-1-1.8-1.5-3.3-1.5s-2.7.5-3.4,1.5c-.7,1-1,2.7-1,4.9s.3,3.9,1,4.9c.7,1,1.8,1.5,3.4,1.5ZM512.8,491.5c-2.5,0-4.4-.7-5.7-2.2-1.3-1.5-1.9-3.7-1.9-6.6s.6-5.1,1.9-6.6c1.3-1.5,3.2-2.3,5.7-2.3s4.4.8,5.7,2.3c1.3,1.5,1.9,3.7,1.9,6.6s-.6,5.1-1.9,6.6c-1.3,1.5-3.2,2.2-5.7,2.2ZM535.2,491v-11.3c0-2.4-1.2-3.5-3.5-3.5s-1.3.1-2.1.3c-.7.2-1.4.5-2,.8v13.7h-3.1v-16.6l2.5-.3.2,1.2c1.8-1.1,3.6-1.6,5.4-1.6s3.2.5,4.2,1.5c1,.9,1.5,2.3,1.5,4.1v11.7h-3.1ZM542,487.9c1.8.8,3.5,1.2,5.3,1.2s2.2-.2,2.9-.7c.7-.5,1-1.2,1-2.1s-.2-1.1-.6-1.5c-.4-.4-1-.7-1.8-1l-2.2-.7c-1.5-.5-2.6-1.1-3.3-1.8-.7-.7-1-1.6-1-2.8s.6-2.7,1.7-3.6c1.2-.9,2.7-1.3,4.7-1.3s3.3.3,4.8,1v2.4c-1.7-.6-3.2-1-4.6-1s-2,.2-2.6.7c-.6.4-.9,1-.9,1.7s.2.9.5,1.3c.3.3.9.6,1.8.9l2.5.8c2.7.8,4.1,2.4,4.1,4.9s-.6,3-1.7,3.9c-1.2.9-2.8,1.4-5,1.4s-3.8-.3-5.1-1l-.4-2.5ZM559.4,491.2c-.6,0-1.1-.2-1.5-.6-.4-.4-.6-.9-.6-1.5s.2-1.1.6-1.5c.4-.4.9-.6,1.5-.6s1.1.2,1.5.6c.4.4.6.9.6,1.5s-.2,1.1-.6,1.5c-.4.4-.9.6-1.5.6Z"/>
    <path class="cls-1" d="M162.1,596v-8.1l-7.9-15h3.5l6,12.2,6.1-12.2h3.4l-7.9,15v8.1h-3.2ZM180.6,594.1c1.5,0,2.7-.5,3.3-1.5.7-1,1.1-2.7,1.1-4.9s-.4-3.9-1.1-4.9c-.7-1-1.8-1.5-3.3-1.5s-2.7.5-3.4,1.5c-.7,1-1,2.7-1,4.9s.3,3.9,1,4.9c.7,1,1.8,1.5,3.4,1.5ZM180.6,596.5c-2.5,0-4.4-.7-5.7-2.2-1.3-1.5-1.9-3.7-1.9-6.6s.6-5.1,1.9-6.6c1.3-1.5,3.2-2.3,5.7-2.3s4.4.8,5.7,2.3c1.3,1.5,1.9,3.7,1.9,6.6s-.6,5.1-1.9,6.6c-1.3,1.5-3.2,2.2-5.7,2.2ZM203.3,596.1l-.2-1.2c-1.8,1.1-3.6,1.6-5.4,1.6s-3.2-.5-4.2-1.5c-1-1-1.5-2.3-1.5-4.1v-11.7h3.1v11.3c0,2.4,1.1,3.5,3.4,3.5s1.3,0,2.1-.3c.7-.2,1.4-.5,2-.9v-13.7h3.1v16.6l-2.5.3ZM210.8,581.6l-.5-8.7h3l-.5,8.7h-2ZM217.8,596v-24.8l3.1-.4v25.1h-3.1ZM225.9,596v-24.8l3.1-.4v25.1h-3.1ZM241.1,592.9c1.8.8,3.5,1.2,5.3,1.2s2.2-.2,2.9-.7c.7-.5,1-1.2,1-2.1s-.2-1.1-.6-1.5c-.4-.4-1-.7-1.8-1l-2.2-.7c-1.5-.5-2.6-1.1-3.3-1.8-.7-.7-1-1.6-1-2.8s.6-2.7,1.7-3.6c1.2-.9,2.7-1.3,4.7-1.3s3.3.3,4.8,1v2.4c-1.7-.6-3.2-1-4.6-1s-2,.2-2.6.7c-.6.4-.9,1-.9,1.7s.2.9.5,1.3c.3.3.9.6,1.8.9l2.5.8c2.7.8,4.1,2.4,4.1,4.9s-.6,3-1.7,3.9c-1.2.9-2.8,1.4-5,1.4s-3.8-.3-5.1-1l-.4-2.5ZM269.8,595.4c-1.5.7-3.2,1.1-5.1,1.1-2.7,0-4.8-.8-6.2-2.3s-2.1-3.7-2.1-6.7.3-3.4,1-4.7c.6-1.3,1.5-2.4,2.7-3.1,1.1-.7,2.5-1.1,3.9-1.1s3.7.6,4.9,1.8c1.2,1.2,1.8,2.9,1.8,5.1s0,1.7-.2,2.5h-10.9c0,3.9,2,5.8,5.7,5.8s3.2-.4,4.7-1.1v2.3ZM263.8,581c-1.3,0-2.3.5-3.1,1.4-.8.9-1.2,2.1-1.4,3.7h8.3c0-.1,0-.2,0-.3v-.3c0-1.4-.3-2.4-1-3.2-.7-.8-1.6-1.2-2.8-1.2ZM287,595.4c-1.5.7-3.2,1.1-5.1,1.1-2.7,0-4.8-.8-6.2-2.3-1.4-1.5-2.1-3.7-2.1-6.7s.3-3.4,1-4.7c.6-1.3,1.5-2.4,2.7-3.1s2.5-1.1,3.9-1.1,3.7.6,4.9,1.8c1.2,1.2,1.8,2.9,1.8,5.1s0,1.7-.2,2.5h-10.9c0,3.9,2,5.8,5.7,5.8s3.2-.4,4.7-1.1v2.3ZM281.1,581c-1.3,0-2.3.5-3.1,1.4-.8.9-1.2,2.1-1.4,3.7h8.3c0-.1,0-.2,0-.3v-.3c0-1.4-.3-2.4-1-3.2-.7-.8-1.6-1.2-2.8-1.2ZM310.4,596.1l-.2-1.2c-1.8,1.1-3.6,1.6-5.4,1.6s-3.1-.5-4.2-1.4c-1-.9-1.5-2.2-1.5-3.8s.6-2.9,1.7-3.8c1.1-.9,2.8-1.4,4.8-1.4s2.6.1,4.2.4v-1.7c0-1.2-.4-2.1-1.1-2.7-.7-.6-1.7-.9-3.2-.9s-3.5.4-5.5,1.2v-2.4c.9-.4,1.9-.7,3-.9,1.1-.2,2.1-.3,3.1-.3,2.2,0,3.8.5,5,1.5,1.1,1,1.7,2.5,1.7,4.5v11.1l-2.5.3ZM305.6,594.1c.6,0,1.4-.1,2.1-.3.8-.2,1.5-.5,2.1-.9v-4.2c-1-.3-2.3-.4-3.7-.4s-2.3.3-2.9.8c-.6.5-.9,1.2-.9,2.2,0,1.9,1.1,2.8,3.3,2.8ZM326,581.6l-.5-8.7h3l-.5,8.7h-2ZM331.6,581.6l-.5-8.7h3l-.5,8.7h-2ZM339,596v-23.1h14v2.6h-10.8v7.9h9.4v2.6h-9.4v9.9h-3.2ZM356.4,596v-16.5l3.1-.4v16.9h-3.1ZM357.9,575.8c-.6,0-1.1-.2-1.5-.5-.4-.4-.5-.8-.5-1.4s.2-1.1.5-1.4c.4-.4.9-.5,1.5-.5s1.1.2,1.5.5c.4.3.6.8.6,1.4s-.2,1.1-.6,1.4c-.4.3-.8.5-1.5.5ZM375.2,596v-11.3c0-2.4-1.2-3.5-3.5-3.5s-1.3.1-2.1.3c-.7.2-1.4.5-2,.8v13.7h-3.1v-16.6l2.5-.3.2,1.2c1.8-1.1,3.6-1.6,5.4-1.6s3.2.5,4.2,1.5c1,.9,1.5,2.3,1.5,4.1v11.7h-3.1ZM383.2,596v-16.5l3.1-.4v16.9h-3.1ZM384.7,575.8c-.6,0-1.1-.2-1.5-.5-.4-.4-.5-.8-.5-1.4s.2-1.1.5-1.4c.4-.4.9-.5,1.5-.5s1.1.2,1.5.5c.4.3.6.8.6,1.4s-.2,1.1-.6,1.4c-.4.3-.8.5-1.5.5ZM390.1,592.9c1.8.8,3.5,1.2,5.3,1.2s2.2-.2,2.9-.7c.7-.5,1-1.2,1-2.1s-.2-1.1-.6-1.5c-.4-.4-1-.7-1.8-1l-2.2-.7c-1.5-.5-2.6-1.1-3.3-1.8-.7-.7-1-1.6-1-2.8s.6-2.7,1.7-3.6c1.2-.9,2.7-1.3,4.7-1.3s3.3.3,4.8,1v2.4c-1.7-.6-3.2-1-4.6-1s-2,.2-2.6.7c-.6.4-.9,1-.9,1.7s.2.9.5,1.3c.3.3.9.6,1.8.9l2.5.8c2.7.8,4.1,2.4,4.1,4.9s-.6,3-1.7,3.9c-1.2.9-2.8,1.4-5,1.4s-3.8-.3-5.1-1l-.4-2.5ZM406.3,596v-24.8l3.1-.4v9.2c1.7-.9,3.4-1.4,5-1.4s3.2.5,4.2,1.5c1,.9,1.5,2.3,1.5,4.1v11.7h-3.1v-11.3c0-2.4-1.2-3.5-3.5-3.5s-1.3.1-2.1.3c-.7.2-1.4.5-2,.8v13.7h-3.1ZM437.4,595.4c-1.5.7-3.2,1.1-5.1,1.1-2.7,0-4.8-.8-6.2-2.3-1.4-1.5-2.1-3.7-2.1-6.7s.3-3.4,1-4.7c.6-1.3,1.5-2.4,2.7-3.1s2.5-1.1,3.9-1.1,3.7.6,4.9,1.8c1.2,1.2,1.8,2.9,1.8,5.1s0,1.7-.2,2.5h-10.9c0,3.9,2,5.8,5.7,5.8s3.2-.4,4.7-1.1v2.3ZM431.5,581c-1.3,0-2.3.5-3.1,1.4-.8.9-1.2,2.1-1.4,3.7h8.3c0-.1,0-.2,0-.3v-.3c0-1.4-.3-2.4-1-3.2-.7-.8-1.6-1.2-2.8-1.2ZM455.9,570.9v24.9l-2.5.3-.2-1.2c-1.7,1.1-3.4,1.6-5,1.6s-3.8-.8-5.1-2.3c-1.2-1.5-1.8-3.7-1.8-6.3s.7-5.1,2.1-6.7c1.4-1.6,3.4-2.4,6-2.4s2.4.2,3.4.5v-8l3.1-.4ZM448.9,594.1c.6,0,1.2,0,1.9-.3.7-.2,1.4-.5,2-.9v-11.4c-.9-.3-1.9-.4-2.9-.4-1.8,0-3.2.5-4.1,1.6-.9,1.1-1.3,2.8-1.3,5s.4,3.6,1.1,4.7c.7,1.1,1.8,1.6,3.3,1.6ZM460.3,581.6l-.5-8.7h3l-.5,8.7h-2ZM465.9,581.6l-.5-8.7h3l-.5,8.7h-2ZM501,596v-11.6c0-2.1-1-3.2-3.1-3.2s-2.5.4-3.9,1.2c.1.5.2,1,.2,1.5v12.1h-3.1v-11.6c0-2.1-1-3.2-3.1-3.2s-2.5.4-3.7,1.2v13.7h-3.1v-16.6l2.5-.3.2,1.2c1.7-1.1,3.4-1.6,5-1.6s3.3.6,4.3,1.8c2-1.2,3.9-1.8,5.6-1.8s2.9.5,3.9,1.4c.9.9,1.4,2.2,1.4,3.8v12.1h-3.1ZM521.3,595.4c-1.5.7-3.2,1.1-5.1,1.1-2.7,0-4.8-.8-6.2-2.3-1.4-1.5-2.1-3.7-2.1-6.7s.3-3.4,1-4.7c.6-1.3,1.5-2.4,2.7-3.1,1.1-.7,2.5-1.1,3.9-1.1s3.7.6,4.9,1.8c1.2,1.2,1.8,2.9,1.8,5.1s0,1.7-.2,2.5h-10.9c0,3.9,2,5.8,5.7,5.8s3.2-.4,4.7-1.1v2.3ZM515.4,581c-1.3,0-2.3.5-3.1,1.4-.8.9-1.2,2.1-1.4,3.7h8.3c0-.1,0-.2,0-.3v-.3c0-1.4-.3-2.4-1-3.2-.7-.8-1.6-1.2-2.8-1.2ZM525,592.9c1.8.8,3.5,1.2,5.3,1.2s2.2-.2,2.9-.7c.7-.5,1-1.2,1-2.1s-.2-1.1-.6-1.5c-.4-.4-1-.7-1.8-1l-2.2-.7c-1.5-.5-2.6-1.1-3.3-1.8-.7-.7-1-1.6-1-2.8s.6-2.7,1.7-3.6c1.2-.9,2.7-1.3,4.7-1.3s3.3.3,4.8,1v2.4c-1.7-.6-3.2-1-4.6-1s-2,.2-2.6.7c-.6.4-.9,1-.9,1.7s.2.9.5,1.3c.3.3.9.6,1.8.9l2.5.8c2.7.8,4.1,2.4,4.1,4.9s-.6,3-1.7,3.9c-1.2.9-2.8,1.4-5,1.4s-3.8-.3-5.1-1l-.4-2.5ZM540,592.9c1.8.8,3.5,1.2,5.3,1.2s2.2-.2,2.9-.7c.7-.5,1-1.2,1-2.1s-.2-1.1-.6-1.5c-.4-.4-1-.7-1.8-1l-2.2-.7c-1.5-.5-2.6-1.1-3.3-1.8-.7-.7-1-1.6-1-2.8s.6-2.7,1.7-3.6c1.2-.9,2.7-1.3,4.7-1.3s3.3.3,4.8,1v2.4c-1.7-.6-3.2-1-4.6-1s-2,.2-2.6.7c-.6.4-.9,1-.9,1.7s.2.9.5,1.3c.3.3.9.6,1.8.9l2.5.8c2.7.8,4.1,2.4,4.1,4.9s-.6,3-1.7,3.9c-1.2.9-2.8,1.4-5,1.4s-3.8-.3-5.1-1l-.4-2.5ZM566.5,596.1l-.2-1.2c-1.8,1.1-3.6,1.6-5.4,1.6s-3.1-.5-4.2-1.4c-1-.9-1.5-2.2-1.5-3.8s.6-2.9,1.7-3.8c1.1-.9,2.8-1.4,4.8-1.4s2.6.1,4.2.4v-1.7c0-1.2-.4-2.1-1.1-2.7-.7-.6-1.7-.9-3.2-.9s-3.5.4-5.5,1.2v-2.4c.9-.4,1.9-.7,3-.9,1.1-.2,2.1-.3,3.1-.3,2.2,0,3.8.5,4.9,1.5,1.1,1,1.7,2.5,1.7,4.5v11.1l-2.5.3ZM561.7,594.1c.6,0,1.4-.1,2.1-.3.8-.2,1.5-.5,2.1-.9v-4.2c-1-.3-2.3-.4-3.7-.4s-2.3.3-2.9.8c-.6.5-.9,1.2-.9,2.2,0,1.9,1.1,2.8,3.3,2.8ZM579.6,603.8c-2.1,0-3.8-.4-5.2-1.1l-.4-2.5c1.8.8,3.5,1.2,5.3,1.2,3.4,0,5-1.5,5-4.6v-1.9c-1.6.9-3.2,1.3-4.7,1.3-2.2,0-3.9-.7-5.1-2.2-1.2-1.5-1.8-3.5-1.8-6.1s.7-5.2,2.2-6.8c1.5-1.6,3.6-2.4,6.4-2.4s1.8.1,2.9.3c1.1.2,2.1.5,3.1.8v16.5c0,2.4-.7,4.2-2,5.5s-3.3,1.9-5.8,1.9ZM580.5,593.8c.6,0,1.2,0,1.9-.3.7-.2,1.4-.5,2-.9v-11.1c-.9-.3-1.9-.4-2.9-.4-1.8,0-3.2.5-4.1,1.6-.9,1.1-1.3,2.8-1.3,5s.4,3.4,1.1,4.5c.7,1,1.8,1.5,3.3,1.5ZM605,595.4c-1.5.7-3.2,1.1-5.1,1.1-2.7,0-4.8-.8-6.2-2.3s-2.1-3.7-2.1-6.7.3-3.4,1-4.7c.6-1.3,1.5-2.4,2.7-3.1,1.1-.7,2.5-1.1,3.9-1.1s3.7.6,4.9,1.8,1.8,2.9,1.8,5.1,0,1.7-.2,2.5h-10.9c0,3.9,2,5.8,5.7,5.8s3.2-.4,4.7-1.1v2.3ZM599.1,581c-1.3,0-2.3.5-3.1,1.4-.8.9-1.2,2.1-1.4,3.7h8.3c0-.1,0-.2,0-.3v-.3c0-1.4-.3-2.4-1-3.2-.7-.8-1.6-1.2-2.8-1.2ZM611,596.2c-.6,0-1.1-.2-1.5-.6-.4-.4-.6-.9-.6-1.5s.2-1.1.6-1.5.9-.6,1.5-.6,1.1.2,1.5.6c.4.4.6.9.6,1.5s-.2,1.1-.6,1.5c-.4.4-.9.6-1.5.6Z"/>
    <circle class="cls-5" cx="59.5" cy="162.5" r="57.5"/>
    <circle class="cls-5" cx="59.5" cy="458.5" r="57.5"/>
    <circle class="cls-5" cx="59.5" cy="754.5" r="57.5"/>
    <circle class="cls-5" cx="59.5" cy="310.5" r="57.5"/>
    <circle class="cls-5" cx="60.5" cy="606.5" r="57.5"/>
    <path class="cls-1" d="M170.8,300l-1.9-5.7h-9.5l-1.9,5.7h-3.3l8-23.1h3.8l8,23.1h-3.3ZM160.2,291.8h7.9l-4-11.9-3.9,11.9ZM188.9,285.5v9.6c0,1,.2,1.7.7,2.2.4.5,1.1.7,2,.7s1.4-.1,2.2-.4v2.2c-.9.4-1.9.5-2.9.5-1.7,0-2.9-.4-3.8-1.3-.9-.9-1.3-2.2-1.3-3.9v-9.7h-2.5v-2.1h2.6c0,0,.2-4.3.2-4.3l2.7-.3v4.5h4.7v2.2h-4.7ZM197,300v-16.5l3.1-.4v16.9h-3.1ZM198.6,279.8c-.6,0-1.1-.2-1.5-.5-.4-.4-.5-.8-.5-1.4s.2-1.1.5-1.4c.4-.4.9-.5,1.5-.5s1.1.2,1.5.5c.4.3.6.8.6,1.4s-.2,1.1-.6,1.4c-.4.3-.8.5-1.5.5ZM224.9,300v-11.6c0-2.1-1-3.2-3.1-3.2s-2.5.4-3.9,1.2c.1.5.2,1,.2,1.5v12.1h-3.1v-11.6c0-2.1-1-3.2-3.1-3.2s-2.5.4-3.7,1.2v13.7h-3.1v-16.6l2.5-.3.2,1.2c1.7-1.1,3.4-1.6,5-1.6s3.3.6,4.3,1.8c2-1.2,3.8-1.8,5.6-1.8s2.9.5,3.9,1.4,1.4,2.2,1.4,3.8v12.1h-3.1ZM245.3,299.4c-1.5.7-3.2,1.1-5.1,1.1-2.7,0-4.8-.8-6.2-2.3-1.4-1.5-2.1-3.7-2.1-6.7s.3-3.4,1-4.7c.6-1.3,1.5-2.4,2.7-3.1s2.5-1.1,3.9-1.1,3.7.6,4.9,1.8c1.2,1.2,1.8,2.9,1.8,5.1s0,1.7-.2,2.5h-10.9c0,3.9,2,5.8,5.7,5.8s3.2-.4,4.7-1.1v2.3ZM239.4,285c-1.3,0-2.3.5-3.1,1.4-.8.9-1.2,2.1-1.4,3.7h8.3c0-.1,0-.2,0-.3v-.3c0-1.4-.3-2.4-1-3.2-.7-.8-1.6-1.2-2.8-1.2ZM250.1,300v-16.6l2.5-.3.3,1.5c1.5-1.2,3-1.8,4.7-1.8s1,0,1.5.2v2.5c-.5-.1-1.1-.2-1.6-.2-1.6,0-3,.5-4.2,1.5v13.1h-3.1ZM284,300l-3.9-13.5-3.8,13.5h-2.8l-5.2-16.8h3.1l3.6,13,3.6-13h3.3l3.6,13,3.6-13h3l-5.1,16.8h-2.8ZM294.8,300v-16.5l3.1-.4v16.9h-3.1ZM296.4,279.8c-.6,0-1.1-.2-1.5-.5-.4-.4-.5-.8-.5-1.4s.2-1.1.5-1.4c.4-.4.9-.5,1.5-.5s1.1.2,1.5.5c.4.3.6.8.6,1.4s-.2,1.1-.6,1.4c-.4.3-.8.5-1.5.5ZM302.9,300v-24.8l3.1-.4v25.1h-3.1ZM311.1,300v-24.8l3.1-.4v25.1h-3.1ZM326.3,296.9c1.8.8,3.5,1.2,5.3,1.2s2.2-.2,2.9-.7c.7-.5,1-1.2,1-2.1s-.2-1.1-.6-1.5c-.4-.4-1-.7-1.8-1l-2.2-.7c-1.5-.5-2.6-1.1-3.3-1.8-.7-.7-1-1.6-1-2.8s.6-2.7,1.7-3.6c1.2-.9,2.7-1.3,4.7-1.3s3.3.3,4.8,1v2.4c-1.7-.6-3.2-1-4.6-1s-2,.2-2.6.7c-.6.4-.9,1-.9,1.7s.2.9.5,1.3c.3.3.9.6,1.8.9l2.5.8c2.7.8,4.1,2.4,4.1,4.9s-.6,3-1.7,3.9c-1.2.9-2.8,1.4-5,1.4s-3.8-.3-5.1-1l-.4-2.5ZM346.2,285.5v9.6c0,1,.2,1.7.7,2.2.4.5,1.1.7,2,.7s1.4-.1,2.2-.4v2.2c-.9.4-1.9.5-2.9.5-1.7,0-2.9-.4-3.8-1.3-.9-.9-1.3-2.2-1.3-3.9v-9.7h-2.5v-2.1h2.6c0,0,.2-4.3.2-4.3l2.7-.3v4.5h4.7v2.2h-4.7ZM364.7,300.1l-.2-1.2c-1.8,1.1-3.6,1.6-5.4,1.6s-3.1-.5-4.2-1.4c-1-.9-1.5-2.2-1.5-3.8s.6-2.9,1.7-3.8c1.1-.9,2.8-1.4,4.8-1.4s2.6.1,4.2.4v-1.7c0-1.2-.4-2.1-1.1-2.7-.7-.6-1.7-.9-3.2-.9s-3.5.4-5.5,1.2v-2.4c.9-.4,1.9-.7,3-.9,1.1-.2,2.1-.3,3.1-.3,2.2,0,3.8.5,5,1.5,1.1,1,1.7,2.5,1.7,4.5v11.1l-2.5.3ZM360,298.1c.6,0,1.4-.1,2.1-.3s1.5-.5,2.1-.9v-4.2c-1-.3-2.3-.4-3.7-.4s-2.3.3-2.9.8c-.6.5-.9,1.2-.9,2.2,0,1.9,1.1,2.8,3.3,2.8ZM372.1,300v-16.6l2.5-.3.3,1.5c1.5-1.2,3-1.8,4.7-1.8s1,0,1.5.2v2.5c-.5-.1-1.1-.2-1.6-.2-1.6,0-3,.5-4.2,1.5v13.1h-3.1ZM387.9,285.5v9.6c0,1,.2,1.7.7,2.2.4.5,1.1.7,2,.7s1.4-.1,2.2-.4v2.2c-.9.4-1.9.5-2.9.5-1.7,0-2.9-.4-3.8-1.3-.9-.9-1.3-2.2-1.3-3.9v-9.7h-2.5v-2.1h2.6c0,0,.2-4.3.2-4.3l2.7-.3v4.5h4.7v2.2h-4.7ZM414.7,300.1l-.2-1.2c-1.8,1.1-3.6,1.6-5.4,1.6s-3.1-.5-4.2-1.4c-1-.9-1.5-2.2-1.5-3.8s.6-2.9,1.7-3.8c1.1-.9,2.8-1.4,4.8-1.4s2.6.1,4.2.4v-1.7c0-1.2-.4-2.1-1.1-2.7-.7-.6-1.7-.9-3.2-.9s-3.5.4-5.5,1.2v-2.4c.9-.4,1.9-.7,3-.9,1.1-.2,2.1-.3,3.1-.3,2.2,0,3.8.5,4.9,1.5,1.1,1,1.7,2.5,1.7,4.5v11.1l-2.5.3ZM409.9,298.1c.6,0,1.4-.1,2.1-.3.8-.2,1.5-.5,2.1-.9v-4.2c-1-.3-2.3-.4-3.7-.4s-2.3.3-2.9.8c-.6.5-.9,1.2-.9,2.2,0,1.9,1.1,2.8,3.3,2.8ZM420.8,296.9c1.8.8,3.5,1.2,5.3,1.2s2.2-.2,2.9-.7c.7-.5,1-1.2,1-2.1s-.2-1.1-.6-1.5c-.4-.4-1-.7-1.8-1l-2.2-.7c-1.5-.5-2.6-1.1-3.3-1.8-.7-.7-1-1.6-1-2.8s.6-2.7,1.7-3.6c1.2-.9,2.7-1.3,4.7-1.3s3.3.3,4.8,1v2.4c-1.7-.6-3.2-1-4.6-1s-2,.2-2.6.7c-.6.4-.9,1-.9,1.7s.2.9.5,1.3c.3.3.9.6,1.8.9l2.5.8c2.7.8,4.1,2.4,4.1,4.9s-.6,3-1.7,3.9c-1.2.9-2.8,1.4-5,1.4s-3.8-.3-5.1-1l-.4-2.5ZM444.1,296.9c1.8.8,3.5,1.2,5.3,1.2s2.2-.2,2.9-.7c.7-.5,1-1.2,1-2.1s-.2-1.1-.6-1.5c-.4-.4-1-.7-1.8-1l-2.2-.7c-1.5-.5-2.6-1.1-3.3-1.8-.7-.7-1-1.6-1-2.8s.6-2.7,1.7-3.6c1.2-.9,2.7-1.3,4.7-1.3s3.3.3,4.8,1v2.4c-1.7-.6-3.2-1-4.6-1s-2,.2-2.6.7c-.6.4-.9,1-.9,1.7s.2.9.5,1.3c.3.3.9.6,1.8.9l2.5.8c2.7.8,4.1,2.4,4.1,4.9s-.6,3-1.7,3.9c-1.2.9-2.8,1.4-5,1.4s-3.8-.3-5.1-1l-.4-2.5ZM466.9,298.1c1.5,0,2.7-.5,3.3-1.5.7-1,1.1-2.7,1.1-4.9s-.4-3.9-1.1-4.9c-.7-1-1.8-1.5-3.3-1.5s-2.7.5-3.4,1.5c-.7,1-1,2.7-1,4.9s.3,3.9,1,4.9c.7,1,1.8,1.5,3.4,1.5ZM466.9,300.5c-2.5,0-4.4-.7-5.7-2.2-1.3-1.5-1.9-3.7-1.9-6.6s.6-5.1,1.9-6.6c1.3-1.5,3.2-2.3,5.7-2.3s4.4.8,5.7,2.3c1.3,1.5,1.9,3.7,1.9,6.6s-.6,5.1-1.9,6.6c-1.3,1.5-3.2,2.2-5.7,2.2ZM485.2,298.1c1.5,0,2.7-.5,3.3-1.5.7-1,1.1-2.7,1.1-4.9s-.4-3.9-1.1-4.9c-.7-1-1.8-1.5-3.3-1.5s-2.7.5-3.4,1.5c-.7,1-1,2.7-1,4.9s.3,3.9,1,4.9c.7,1,1.8,1.5,3.4,1.5ZM485.2,300.5c-2.5,0-4.4-.7-5.7-2.2-1.3-1.5-1.9-3.7-1.9-6.6s.6-5.1,1.9-6.6c1.3-1.5,3.2-2.3,5.7-2.3s4.4.8,5.7,2.3c1.3,1.5,1.9,3.7,1.9,6.6s-.6,5.1-1.9,6.6c-1.3,1.5-3.2,2.2-5.7,2.2ZM507.5,300v-11.3c0-2.4-1.2-3.5-3.5-3.5s-1.3.1-2.1.3c-.7.2-1.4.5-2,.8v13.7h-3.1v-16.6l2.5-.3.2,1.2c1.8-1.1,3.6-1.6,5.4-1.6s3.2.5,4.2,1.5c1,.9,1.5,2.3,1.5,4.1v11.7h-3.1ZM534.1,300.1l-.2-1.2c-1.8,1.1-3.6,1.6-5.4,1.6s-3.1-.5-4.2-1.4c-1-.9-1.5-2.2-1.5-3.8s.6-2.9,1.7-3.8c1.1-.9,2.8-1.4,4.8-1.4s2.6.1,4.2.4v-1.7c0-1.2-.4-2.1-1.1-2.7-.7-.6-1.7-.9-3.2-.9s-3.5.4-5.5,1.2v-2.4c.9-.4,1.9-.7,3-.9,1.1-.2,2.1-.3,3.1-.3,2.2,0,3.8.5,5,1.5,1.1,1,1.7,2.5,1.7,4.5v11.1l-2.5.3ZM529.3,298.1c.6,0,1.4-.1,2.1-.3s1.5-.5,2.1-.9v-4.2c-1-.3-2.3-.4-3.7-.4s-2.3.3-2.9.8c-.6.5-.9,1.2-.9,2.2,0,1.9,1.1,2.8,3.3,2.8ZM540.2,296.9c1.8.8,3.5,1.2,5.3,1.2s2.2-.2,2.9-.7c.7-.5,1-1.2,1-2.1s-.2-1.1-.6-1.5c-.4-.4-1-.7-1.8-1l-2.2-.7c-1.5-.5-2.6-1.1-3.3-1.8-.7-.7-1-1.6-1-2.8s.6-2.7,1.7-3.6,2.7-1.3,4.7-1.3,3.3.3,4.8,1v2.4c-1.7-.6-3.2-1-4.6-1s-2,.2-2.6.7c-.6.4-.9,1-.9,1.7s.2.9.5,1.3c.3.3.9.6,1.8.9l2.5.8c2.7.8,4.1,2.4,4.1,4.9s-.6,3-1.7,3.9c-1.2.9-2.8,1.4-5,1.4s-3.8-.3-5.1-1l-.4-2.5ZM562.7,304.8c1.1-.2,1.9-.4,2.6-.8.7-.3,1.3-.8,1.8-1.4.5-.6,1-1.4,1.5-2.5l-6.3-16.9h3.3l4.5,13.4,4.5-13.4h3.2l-6.1,16.1c-.7,1.8-1.3,3.2-2,4.2-.7,1.1-1.5,1.9-2.5,2.5-1,.6-2.2,1.1-3.8,1.4l-.7-2.7ZM586.9,298.1c1.5,0,2.7-.5,3.3-1.5.7-1,1.1-2.7,1.1-4.9s-.4-3.9-1.1-4.9c-.7-1-1.8-1.5-3.3-1.5s-2.7.5-3.4,1.5c-.7,1-1,2.7-1,4.9s.3,3.9,1,4.9c.7,1,1.8,1.5,3.4,1.5ZM586.9,300.5c-2.5,0-4.4-.7-5.7-2.2-1.3-1.5-1.9-3.7-1.9-6.6s.6-5.1,1.9-6.6c1.3-1.5,3.2-2.3,5.7-2.3s4.4.8,5.7,2.3c1.3,1.5,1.9,3.7,1.9,6.6s-.6,5.1-1.9,6.6c-1.3,1.5-3.2,2.2-5.7,2.2ZM609.5,300.1l-.2-1.2c-1.8,1.1-3.6,1.6-5.4,1.6s-3.2-.5-4.2-1.5-1.5-2.3-1.5-4.1v-11.7h3.1v11.3c0,2.4,1.1,3.5,3.4,3.5s1.3,0,2.1-.3c.7-.2,1.4-.5,2-.9v-13.7h3.1v16.6l-2.5.3ZM159.6,327.1c1.6-.9,3.2-1.3,4.7-1.3,2.2,0,3.8.8,5,2.3,1.2,1.5,1.8,3.6,1.8,6.3s-.7,5.2-2.2,6.8c-1.5,1.6-3.6,2.3-6.4,2.3s-4-.3-6-.9v-24.4l3.1-.4v9.2ZM163.5,328.2c-.6,0-1.3.1-2,.3-.7.2-1.4.5-1.9.8v11.4c.9.3,1.9.4,2.9.4,1.8,0,3.1-.5,4-1.6.9-1.1,1.4-2.8,1.4-5s-.4-3.6-1.1-4.7c-.7-1.1-1.8-1.6-3.3-1.6ZM187.7,342.4c-1.5.7-3.2,1.1-5.1,1.1-2.7,0-4.8-.8-6.2-2.3-1.4-1.5-2.1-3.7-2.1-6.7s.3-3.4,1-4.7c.6-1.3,1.5-2.4,2.7-3.1s2.5-1.1,3.9-1.1,3.7.6,4.9,1.8c1.2,1.2,1.8,2.9,1.8,5.1s0,1.7-.2,2.5h-10.9c0,3.9,2,5.8,5.7,5.8s3.2-.4,4.7-1.1v2.3ZM181.8,328c-1.3,0-2.3.5-3.1,1.4-.8.9-1.2,2.1-1.4,3.7h8.3c0-.1,0-.2,0-.3v-.3c0-1.4-.3-2.4-1-3.2-.7-.8-1.6-1.2-2.8-1.2ZM198.2,350.8c-2.1,0-3.8-.4-5.2-1.1l-.4-2.5c1.8.8,3.5,1.2,5.3,1.2,3.4,0,5-1.5,5-4.6v-1.9c-1.7.9-3.2,1.3-4.7,1.3-2.2,0-3.9-.7-5.1-2.2-1.2-1.5-1.8-3.5-1.8-6.1s.7-5.2,2.2-6.8c1.5-1.6,3.6-2.4,6.4-2.4s1.8.1,2.9.3c1.1.2,2.1.5,3.1.8v16.5c0,2.4-.7,4.2-2,5.5s-3.3,1.9-5.8,1.9ZM199.1,340.8c.6,0,1.2,0,1.9-.3.7-.2,1.4-.5,2-.9v-11.1c-.9-.3-1.9-.4-2.9-.4-1.8,0-3.2.6-4.1,1.6-.9,1.1-1.3,2.8-1.3,5s.4,3.4,1.1,4.5c.7,1,1.8,1.5,3.3,1.5ZM211.2,343v-16.5l3.1-.4v16.9h-3.1ZM212.7,322.8c-.6,0-1.1-.2-1.5-.5-.4-.4-.5-.8-.5-1.4s.2-1.1.5-1.4c.4-.4.9-.5,1.5-.5s1.1.2,1.5.5c.4.3.6.8.6,1.4s-.2,1.1-.6,1.4c-.4.3-.8.5-1.5.5ZM230,343v-11.3c0-2.4-1.2-3.5-3.5-3.5s-1.3.1-2.1.3c-.7.2-1.4.5-2,.8v13.7h-3.1v-16.6l2.5-.3.2,1.2c1.8-1.1,3.6-1.6,5.4-1.6s3.2.5,4.2,1.5c1,.9,1.5,2.3,1.5,4.1v11.7h-3.1ZM239.2,343.2c-.6,0-1.1-.2-1.5-.6-.4-.4-.6-.9-.6-1.5s.2-1.1.6-1.5c.4-.4.9-.6,1.5-.6s1.1.2,1.5.6c.4.4.6.9.6,1.5s-.2,1.1-.6,1.5c-.4.4-.9.6-1.5.6ZM254.1,343v-23.1h3.2v23.1h-3.2ZM266.5,328.5v9.6c0,1,.2,1.7.7,2.2.4.5,1.1.7,2,.7s1.4-.1,2.2-.4v2.2c-.9.4-1.9.5-2.9.5-1.7,0-2.9-.4-3.8-1.3-.9-.9-1.3-2.2-1.3-3.9v-9.7h-2.5v-2.1h2.6c0,0,.2-4.3.2-4.3l2.7-.3v4.5h4.7v2.2h-4.7ZM296.5,343l-3.9-13.5-3.8,13.5h-2.8l-5.2-16.8h3.1l3.6,13,3.6-13h3.3l3.6,13,3.6-13h3l-5.1,16.8h-2.8ZM307.3,343v-16.5l3.1-.4v16.9h-3.1ZM308.9,322.8c-.6,0-1.1-.2-1.5-.5-.4-.4-.5-.8-.5-1.4s.2-1.1.5-1.4c.4-.4.9-.5,1.5-.5s1.1.2,1.5.5c.4.3.6.8.6,1.4s-.2,1.1-.6,1.4c-.4.3-.8.5-1.5.5ZM315.4,343v-24.8l3.1-.4v25.1h-3.1ZM323.6,343v-24.8l3.1-.4v25.1h-3.1ZM339.9,343v-16.6l2.5-.3.3,1.5c1.5-1.2,3-1.8,4.7-1.8s1,0,1.5.2v2.5c-.5-.1-1.1-.2-1.6-.2-1.6,0-3,.5-4.2,1.5v13.1h-3.1ZM363,343.1l-.2-1.2c-1.8,1.1-3.6,1.6-5.4,1.6s-3.2-.5-4.2-1.5c-1-1-1.5-2.3-1.5-4.1v-11.7h3.1v11.3c0,2.4,1.1,3.5,3.4,3.5s1.3,0,2.1-.3c.7-.2,1.4-.5,2-.9v-13.7h3.1v16.6l-2.5.3ZM381.2,343v-11.3c0-2.4-1.2-3.5-3.5-3.5s-1.3.1-2.1.3c-.7.2-1.4.5-2,.8v13.7h-3.1v-16.6l2.5-.3.2,1.2c1.8-1.1,3.6-1.6,5.4-1.6s3.2.5,4.2,1.5c1,.9,1.5,2.3,1.5,4.1v11.7h-3.1ZM398.1,343v-14.5h-2.5v-2.1h2.5v-3.4c0-1.7.5-3.1,1.4-4,.9-1,2.2-1.5,3.9-1.5s2,.2,3,.5v2.2c-.9-.2-1.7-.4-2.3-.4-1.8,0-2.8,1-2.8,2.9v3.4h4.3v2.2h-4.3v14.5h-3.1ZM415.2,341.1c1.5,0,2.7-.5,3.3-1.5.7-1,1.1-2.7,1.1-4.9s-.4-3.9-1.1-4.9c-.7-1-1.8-1.5-3.3-1.5s-2.7.5-3.4,1.5c-.7,1-1,2.7-1,4.9s.3,3.9,1,4.9c.7,1,1.8,1.5,3.4,1.5ZM415.2,343.5c-2.5,0-4.4-.7-5.7-2.2-1.3-1.5-1.9-3.7-1.9-6.6s.6-5.1,1.9-6.6c1.3-1.5,3.2-2.3,5.7-2.3s4.4.8,5.7,2.3c1.3,1.5,1.9,3.7,1.9,6.6s-.6,5.1-1.9,6.6c-1.3,1.5-3.2,2.2-5.7,2.2ZM426.9,343v-16.6l2.5-.3.3,1.5c1.5-1.2,3-1.8,4.7-1.8s1,0,1.5.2v2.5c-.5-.1-1.1-.2-1.6-.2-1.6,0-3,.5-4.2,1.5v13.1h-3.1ZM445,337.8c1.2.5,2.2.8,3.1,1.1s1.8.3,2.6.3c1.4,0,2.5-.3,3.3-.8.8-.5,1.2-1.2,1.2-2.2s-.3-1.5-.9-1.9c-.6-.5-1.4-.7-2.5-.7h-2.7v-4.4h2.3c1,0,1.7-.2,2.3-.7.5-.4.8-1.1.8-1.8s-.3-1.4-1-1.8c-.6-.4-1.5-.7-2.6-.7s-3.3.3-5.1,1v-4.2c.8-.4,1.7-.6,2.8-.9,1.1-.2,2.2-.3,3.3-.3,2.6,0,4.7.6,6.2,1.7,1.5,1.1,2.3,2.7,2.3,4.6s-.3,2.1-.9,3c-.5.8-1.4,1.5-2.5,2,1.3.4,2.3,1.1,3,2,.7.9,1.1,2,1.1,3.4,0,2.1-.8,3.8-2.5,5.1-1.7,1.2-4,1.8-6.9,1.8s-2.2,0-3.3-.3c-1.1-.2-2-.5-2.8-.8l-.6-4.7ZM472.3,339.2c.7,0,1.2-.2,1.6-.7.4-.4.7-1.2.9-2.2.2-1.1.3-2.6.3-4.6s0-3.4-.2-4.4c-.2-1.1-.4-1.9-.8-2.3-.4-.5-.9-.7-1.6-.7s-1.2.2-1.6.7c-.4.4-.6,1.2-.8,2.3-.2,1.1-.3,2.6-.3,4.6s0,3.3.2,4.4c.2,1.1.4,1.8.8,2.3.4.5,1,.7,1.7.7ZM472.3,343.5c-2.9,0-5.1-1-6.6-2.9-1.4-2-2.1-4.9-2.1-8.9s.7-7,2.1-8.9c1.5-2,3.6-2.9,6.6-2.9s5.1,1,6.5,2.9c1.5,1.9,2.2,4.9,2.2,8.9s-.7,7-2.1,8.9c-1.4,1.9-3.6,2.9-6.6,2.9ZM510.3,329.7c-.4,0-.8,0-1.3.2-.4.1-.8.3-1.1.5,0,.2,0,.3,0,.5,0,.2,0,.3,0,.5v11.7h-5.7v-11c0-1.5-.6-2.3-1.9-2.3s-.8,0-1.2.2c-.4.1-.7.3-1,.4v12.7h-5.7v-16.8l4.6-.4.3,1c.7-.5,1.5-.8,2.4-1.1.9-.3,1.7-.4,2.5-.4,2,0,3.5.6,4.5,1.7,1.8-1.1,3.6-1.7,5.4-1.7s3.3.5,4.4,1.6c1,1,1.6,2.5,1.6,4.4v11.7h-5.7v-11c0-1.5-.6-2.3-1.9-2.3ZM521.5,343v-16.7l5.7-.5v17.2h-5.7ZM524.3,323.9c-1,0-1.8-.3-2.4-.8-.6-.5-.9-1.3-.9-2.2s.3-1.7.9-2.2c.6-.5,1.4-.8,2.4-.8s1.8.3,2.4.8c.6.5.9,1.3.9,2.2s-.3,1.7-.9,2.2c-.6.5-1.4.8-2.4.8ZM540.9,343v-11c0-.8-.2-1.4-.5-1.7-.3-.4-.8-.6-1.6-.6s-.8,0-1.3.2c-.4.1-.7.3-1,.4v12.7h-5.7v-16.8l4.6-.4.3,1c.8-.5,1.6-.8,2.4-1.1.8-.3,1.6-.4,2.4-.4,2,0,3.5.5,4.5,1.6,1.1,1,1.6,2.5,1.6,4.4v11.7h-5.7ZM561.1,343.1l-.3-1c-.8.5-1.6.8-2.4,1.1-.8.3-1.7.4-2.4.4-1.9,0-3.4-.5-4.4-1.5-1-1-1.6-2.5-1.6-4.4v-11.7h5.7v11c0,.8.2,1.4.5,1.7.3.4.8.6,1.5.6s.8,0,1.2-.2c.4-.1.8-.3,1-.4v-12.7h5.7v16.8l-4.6.4ZM576.4,329.9v7.4c0,1.4.7,2,2,2s1.3-.1,2-.4v3.8c-1.1.5-2.4.8-3.7.8-2,0-3.5-.5-4.5-1.5-1-1-1.6-2.5-1.6-4.4v-7.8h-2.5v-3.8h2.8c0,0,.4-4.4.4-4.4l5.1-.5v4.8h4v4h-4ZM597.6,342.3c-1.7.8-3.5,1.2-5.6,1.2-3.1,0-5.5-.8-7.1-2.3-1.6-1.6-2.4-3.8-2.4-6.8s.4-3.4,1.1-4.8c.7-1.4,1.8-2.4,3-3.2,1.3-.7,2.8-1.1,4.4-1.1s4.1.6,5.4,1.9c1.3,1.3,2,3,2,5.2s-.1,1.9-.3,3.2h-9.9c.1,1.2.5,2.1,1.3,2.7.7.6,1.9.9,3.3.9s3.2-.4,4.8-1.1v4.1ZM591,329.2c-.9,0-1.5.3-2,.9-.5.6-.8,1.4-.8,2.4h5.2v-.7c0-1.8-.8-2.7-2.4-2.7ZM600.6,338.2c.8.4,1.7.7,2.7.9,1,.2,2,.3,2.9.3s1.6-.1,2.1-.4c.5-.3.8-.6.8-1.2s-.1-.6-.4-.8c-.2-.2-.6-.4-1.2-.5l-1.7-.4c-1.7-.4-3-1.1-3.8-1.9-.8-.8-1.2-1.9-1.2-3.2s.7-3.2,2-4.2c1.3-1,3.2-1.5,5.6-1.5s3.8.4,5.5,1.2v4c-1.8-.7-3.5-1.1-5-1.1s-2.4.4-2.4,1.3,0,.5.3.7c.2.2.6.3,1.2.5l2.2.6c1.6.4,2.7,1.1,3.5,1.9s1.1,2,1.1,3.4c0,3.8-2.7,5.7-8,5.7s-4.1-.4-5.6-1.1l-.6-4.3ZM619.5,343.2c-.6,0-1.1-.2-1.5-.6-.4-.4-.6-.9-.6-1.5s.2-1.1.6-1.5c.4-.4.9-.6,1.5-.6s1.1.2,1.5.6c.4.4.6.9.6,1.5s-.2,1.1-.6,1.5c-.4.4-.9.6-1.5.6Z"/>
    <path class="cls-4" d="M59.4,181v-31l-8.9,5.8-1-4.1,10.7-6.9h4.2v36.3h-5Z"/>
    <path class="cls-4" d="M46.3,471.5c3.2,1.5,6.4,2.3,9.5,2.3s4.9-.6,6.5-1.9c1.6-1.3,2.4-3,2.4-5.1s-.7-3.7-2.2-4.9c-1.4-1.2-3.4-1.9-5.9-1.9h-3.4v-4h3.2c2.3,0,4-.5,5.4-1.6,1.3-1.1,2-2.6,2-4.5s-.7-3.4-2.1-4.5c-1.4-1.1-3.3-1.6-5.7-1.6s-5.5.6-8.3,1.7v-3.9c2.5-1.2,5.5-1.8,9-1.8s6.6.9,8.9,2.7,3.4,4.2,3.4,7-.5,3.6-1.6,5.1-2.7,2.5-4.7,3.2c2.4.7,4.2,1.8,5.5,3.4,1.3,1.6,1.9,3.5,1.9,5.8s-.6,4-1.7,5.7c-1.1,1.6-2.7,2.8-4.8,3.7-2,.8-4.3,1.3-6.9,1.3s-3.5-.2-5.2-.5c-1.7-.4-3.1-.8-4.3-1.4l-.6-4.3Z"/>
    <path class="cls-4" d="M46.9,767.5c3.2,1.5,6.4,2.3,9.5,2.3s5.2-.7,6.8-2.1c1.6-1.4,2.4-3.5,2.4-6.1s-.7-4.2-2-5.5c-1.3-1.3-3.2-2-5.6-2s-2.6.2-3.9.5c-1.3.3-2.4.8-3.3,1.4l-2.4-1.6,1.7-17.7h13.6c1.9,0,3.7,0,5.2-.2v4.4h-14.8l-1,10.9c.9-.4,1.9-.7,3-1,1.1-.2,2.2-.4,3.3-.4,3.5,0,6.2,1,8.3,3.1,2.1,2,3.1,4.8,3.1,8.2s-.6,4.7-1.7,6.5c-1.1,1.8-2.7,3.2-4.8,4.2-2,1-4.4,1.4-7.1,1.4s-3.4-.2-5.1-.5c-1.7-.4-3.2-.8-4.4-1.4l-.6-4.3Z"/>
    <path class="cls-4" d="M46.9,329c0-3.2.7-5.9,1.9-8.3,1.2-2.3,3.3-4.7,6.2-7.2l4.5-3.8c1.8-1.5,3.1-2.9,3.9-4.1.8-1.2,1.2-2.4,1.2-3.7,0-1.9-.7-3.4-2.1-4.5-1.3-1.1-3.2-1.6-5.5-1.6s-6,1.1-8.9,3.2v-4.1c2.9-2.1,6.2-3.1,10.1-3.1s4.3.4,6,1.3c1.8.8,3.1,2,4.1,3.6,1,1.5,1.4,3.1,1.4,5s-.5,3.6-1.5,5.2c-1,1.6-2.6,3.4-4.9,5.4l-4.2,3.6c-2,1.7-3.5,3.3-4.5,4.7-1,1.4-1.7,2.8-2,4.2h12.3c2,0,3.8,0,5.3-.2v4.3h-23.3Z"/>
    <path class="cls-4" d="M63.8,625v-8.6h-17.9v-3.8l17.4-23.9h5.2v23.8c2.2,0,3.9,0,5.3-.2v4.1h-5.3v8.6h-4.7ZM63.8,612.5v-17.9l-13.2,17.9h13.2Z"/>
    <g>
      <path class="cls-1" d="M155.4,634.2v-22.3c1-.2,2.2-.4,3.4-.5,1.3-.1,2.4-.2,3.3-.2,2.7,0,4.8.6,6.3,1.9,1.5,1.3,2.3,3,2.3,5.2s-.8,4-2.4,5.3c-1.6,1.3-3.7,1.9-6.5,1.9h-3.3v8.7h-3.1ZM161.9,613.6c-1,0-2.1.1-3.4.3v9.1h3.3c1.8,0,3.1-.4,4.1-1.2,1-.8,1.4-2,1.4-3.5s-.5-2.7-1.4-3.5c-.9-.8-2.3-1.2-4.1-1.2Z"/>
      <path class="cls-1" d="M173.7,634.2v-16.3l2.5-.3.3,1.5c1.4-1.2,3-1.8,4.6-1.8s1,0,1.5.2v2.5c-.5-.1-1.1-.2-1.6-.2-1.6,0-2.9.5-4.2,1.5v12.9h-3.1Z"/>
      <path class="cls-1" d="M191.8,634.7c-2.5,0-4.3-.7-5.6-2.2-1.3-1.5-1.9-3.7-1.9-6.5s.6-5,1.9-6.5c1.3-1.5,3.1-2.2,5.6-2.2s4.3.7,5.6,2.2c1.3,1.5,1.9,3.7,1.9,6.5s-.6,5-1.9,6.5c-1.3,1.5-3.1,2.2-5.6,2.2ZM191.8,632.3c1.5,0,2.6-.5,3.3-1.5.7-1,1-2.6,1-4.8s-.3-3.8-1-4.8c-.7-1-1.8-1.5-3.3-1.5s-2.6.5-3.3,1.5c-.7,1-1,2.6-1,4.8s.3,3.8,1,4.8c.7,1,1.8,1.5,3.3,1.5Z"/>
      <path class="cls-1" d="M214.8,633.6c-1.5.7-3.2,1.1-5,1.1s-4.2-.8-5.5-2.3c-1.3-1.5-2-3.7-2-6.4s.7-5,2-6.5c1.3-1.5,3.2-2.3,5.5-2.3s3.3.4,4.8,1.1v2.3c-1.5-.7-2.9-1-4.3-1s-2.8.5-3.6,1.6c-.8,1.1-1.2,2.6-1.2,4.7s.4,3.6,1.2,4.7c.8,1.1,2,1.6,3.6,1.6s2.8-.3,4.4-1v2.3Z"/>
      <path class="cls-1" d="M230.5,633.6c-1.5.7-3.2,1.1-5,1.1-2.7,0-4.7-.7-6.1-2.2-1.4-1.5-2.1-3.7-2.1-6.6s.3-3.3.9-4.6c.6-1.3,1.5-2.3,2.6-3,1.1-.7,2.4-1,3.9-1s3.6.6,4.8,1.8c1.2,1.2,1.8,2.9,1.8,5s0,1.7-.2,2.5h-10.8c0,3.8,1.9,5.8,5.6,5.8s3.1-.3,4.7-1v2.3ZM224.7,619.4c-1.3,0-2.3.4-3.1,1.3-.8.9-1.2,2.1-1.3,3.6h8.2c0-.1,0-.2,0-.3v-.3c0-1.3-.3-2.4-1-3.2-.7-.8-1.6-1.1-2.8-1.1Z"/>
      <path class="cls-1" d="M247.5,633.6c-1.5.7-3.2,1.1-5,1.1-2.7,0-4.7-.7-6.1-2.2-1.4-1.5-2.1-3.7-2.1-6.6s.3-3.3.9-4.6c.6-1.3,1.5-2.3,2.6-3,1.1-.7,2.4-1,3.9-1s3.6.6,4.8,1.8c1.2,1.2,1.8,2.9,1.8,5s0,1.7-.2,2.5h-10.8c0,3.8,1.9,5.8,5.6,5.8s3.1-.3,4.7-1v2.3ZM241.7,619.4c-1.3,0-2.3.4-3.1,1.3-.8.9-1.2,2.1-1.3,3.6h8.2c0-.1,0-.2,0-.3v-.3c0-1.3-.3-2.4-1-3.2-.7-.8-1.6-1.1-2.8-1.1Z"/>
      <path class="cls-1" d="M265.7,609.4v24.6l-2.5.3-.2-1.1c-1.7,1-3.4,1.6-5,1.6s-3.8-.8-5-2.3c-1.2-1.5-1.8-3.6-1.8-6.2s.7-5.1,2.1-6.7c1.4-1.6,3.4-2.4,6-2.4s2.3.2,3.3.5v-7.9l3.1-.4ZM258.8,632.3c.6,0,1.2-.1,1.9-.3.7-.2,1.3-.5,1.9-.8v-11.2c-.9-.3-1.9-.4-2.9-.4-1.8,0-3.1.5-4,1.6-.9,1.1-1.3,2.7-1.3,4.9s.4,3.5,1.1,4.6c.7,1,1.8,1.6,3.2,1.6Z"/>
      <path class="cls-1" d="M282.5,619.9v9.5c0,1,.2,1.7.7,2.2s1.1.7,2,.7,1.4-.1,2.1-.4v2.2c-.9.3-1.9.5-2.8.5-1.6,0-2.9-.4-3.7-1.3-.8-.9-1.3-2.1-1.3-3.8v-9.6h-2.5v-2.1h2.6c0,0,.2-4.2.2-4.2l2.7-.3v4.4h4.6v2.2h-4.6Z"/>
      <path class="cls-1" d="M297.1,634.7c-2.5,0-4.3-.7-5.6-2.2-1.3-1.5-1.9-3.7-1.9-6.5s.6-5,1.9-6.5c1.3-1.5,3.1-2.2,5.6-2.2s4.3.7,5.6,2.2c1.3,1.5,1.9,3.7,1.9,6.5s-.6,5-1.9,6.5c-1.3,1.5-3.1,2.2-5.6,2.2ZM297.1,632.3c1.5,0,2.6-.5,3.3-1.5.7-1,1-2.6,1-4.8s-.3-3.8-1-4.8c-.7-1-1.8-1.5-3.3-1.5s-2.6.5-3.3,1.5c-.7,1-1,2.6-1,4.8s.3,3.8,1,4.8c.7,1,1.8,1.5,3.3,1.5Z"/>
      <path class="cls-1" d="M320.4,619.9v9.5c0,1,.2,1.7.7,2.2s1.1.7,2,.7,1.4-.1,2.1-.4v2.2c-.9.3-1.9.5-2.8.5-1.6,0-2.9-.4-3.7-1.3-.8-.9-1.3-2.1-1.3-3.8v-9.6h-2.5v-2.1h2.6c0,0,.2-4.2.2-4.2l2.7-.3v4.4h4.6v2.2h-4.6Z"/>
      <path class="cls-1" d="M328.5,634.2v-24.4l3.1-.4v9.1c1.7-.9,3.3-1.3,4.9-1.3s3.2.5,4.2,1.4,1.5,2.3,1.5,4v11.6h-3.1v-11.1c0-2.3-1.2-3.5-3.4-3.5s-1.3.1-2,.3-1.4.5-2,.8v13.5h-3.1Z"/>
      <path class="cls-1" d="M359.1,633.6c-1.5.7-3.2,1.1-5,1.1-2.7,0-4.7-.7-6.1-2.2-1.4-1.5-2.1-3.7-2.1-6.6s.3-3.3.9-4.6c.6-1.3,1.5-2.3,2.6-3,1.1-.7,2.4-1,3.9-1s3.6.6,4.8,1.8c1.2,1.2,1.8,2.9,1.8,5s0,1.7-.2,2.5h-10.8c0,3.8,1.9,5.8,5.6,5.8s3.1-.3,4.7-1v2.3ZM353.3,619.4c-1.3,0-2.3.4-3.1,1.3-.8.9-1.2,2.1-1.3,3.6h8.2c0-.1,0-.2,0-.3v-.3c0-1.3-.3-2.4-1-3.2s-1.6-1.1-2.8-1.1Z"/>
      <path class="cls-1" d="M370.8,631.2c1.7.8,3.5,1.1,5.2,1.1s2.2-.2,2.9-.7c.7-.5,1-1.2,1-2s-.2-1.1-.6-1.4c-.4-.4-1-.7-1.8-.9l-2.2-.7c-1.5-.5-2.5-1-3.2-1.8-.7-.7-1-1.6-1-2.7s.6-2.6,1.7-3.5,2.7-1.3,4.7-1.3,3.2.3,4.7,1v2.3c-1.6-.6-3.2-.9-4.5-.9s-2,.2-2.6.6c-.6.4-.9,1-.9,1.7s.2.9.5,1.2.9.6,1.8.9l2.5.7c2.7.8,4,2.4,4,4.8s-.6,2.9-1.7,3.8c-1.1.9-2.8,1.3-5,1.3s-3.7-.3-5.1-1l-.4-2.5Z"/>
      <path class="cls-1" d="M397.6,634.3l-.2-1.1c-1.8,1-3.5,1.6-5.3,1.6s-3.1-.5-4.1-1.4-1.5-2.3-1.5-4v-11.6h3.1v11.1c0,2.3,1.1,3.5,3.3,3.5s1.3-.1,2-.3,1.4-.5,2-.8v-13.5h3.1v16.3l-2.5.3Z"/>
      <path class="cls-1" d="M408.1,618.5c1.6-.9,3.2-1.3,4.6-1.3,2.1,0,3.8.8,5,2.3s1.8,3.6,1.8,6.2-.7,5.1-2.2,6.7c-1.5,1.6-3.6,2.3-6.3,2.3s-3.9-.3-5.9-.8v-24.1l3.1-.4v9.1ZM412,619.6c-.6,0-1.2.1-1.9.3-.7.2-1.3.5-1.9.8v11.2c.9.3,1.9.4,2.9.4,1.8,0,3.1-.5,4-1.6.9-1.1,1.3-2.7,1.3-4.9s-.4-3.5-1.1-4.6c-.7-1-1.8-1.6-3.2-1.6Z"/>
      <path class="cls-1" d="M443,634.2v-11.5c0-2.1-1-3.1-3-3.1s-2.5.4-3.8,1.2c.1.5.2,1,.2,1.4v12h-3.1v-11.5c0-2.1-1-3.1-3-3.1s-2.4.4-3.7,1.1v13.5h-3.1v-16.3l2.5-.3.2,1.1c1.7-1,3.3-1.6,4.9-1.6s3.3.6,4.2,1.8c2-1.2,3.8-1.8,5.5-1.8s2.9.4,3.8,1.3c.9.9,1.4,2.1,1.4,3.7v12h-3.1Z"/>
      <path class="cls-1" d="M452.3,614.3c-.6,0-1.1-.2-1.5-.5s-.5-.8-.5-1.4.2-1,.5-1.4.9-.5,1.5-.5,1.1.2,1.5.5c.4.3.5.8.5,1.4s-.2,1-.5,1.4c-.4.3-.9.5-1.5.5ZM450.8,634.2v-16.3l3.1-.4v16.6h-3.1Z"/>
      <path class="cls-1" d="M457.7,631.2c1.7.8,3.5,1.1,5.2,1.1s2.2-.2,2.9-.7c.7-.5,1-1.2,1-2s-.2-1.1-.6-1.4c-.4-.4-1-.7-1.8-.9l-2.2-.7c-1.5-.5-2.5-1-3.2-1.8-.7-.7-1-1.6-1-2.7s.6-2.6,1.7-3.5,2.7-1.3,4.7-1.3,3.2.3,4.7,1v2.3c-1.6-.6-3.2-.9-4.5-.9s-2,.2-2.6.6c-.6.4-.9,1-.9,1.7s.2.9.5,1.2.9.6,1.8.9l2.5.7c2.7.8,4,2.4,4,4.8s-.6,2.9-1.7,3.8c-1.1.9-2.8,1.3-5,1.3s-3.7-.3-5.1-1l-.4-2.5Z"/>
      <path class="cls-1" d="M472.4,631.2c1.7.8,3.5,1.1,5.2,1.1s2.2-.2,2.9-.7c.7-.5,1-1.2,1-2s-.2-1.1-.6-1.4c-.4-.4-1-.7-1.8-.9l-2.2-.7c-1.5-.5-2.5-1-3.2-1.8-.7-.7-1-1.6-1-2.7s.6-2.6,1.7-3.5,2.7-1.3,4.7-1.3,3.2.3,4.7,1v2.3c-1.6-.6-3.2-.9-4.5-.9s-2,.2-2.6.6c-.6.4-.9,1-.9,1.7s.2.9.5,1.2.9.6,1.8.9l2.5.7c2.7.8,4,2.4,4,4.8s-.6,2.9-1.7,3.8c-1.1.9-2.8,1.3-5,1.3s-3.7-.3-5.1-1l-.4-2.5Z"/>
      <path class="cls-1" d="M489.9,614.3c-.6,0-1.1-.2-1.5-.5s-.5-.8-.5-1.4.2-1,.5-1.4.9-.5,1.5-.5,1.1.2,1.5.5c.4.3.5.8.5,1.4s-.2,1-.5,1.4c-.4.3-.9.5-1.5.5ZM488.4,634.2v-16.3l3.1-.4v16.6h-3.1Z"/>
      <path class="cls-1" d="M502.9,634.7c-2.5,0-4.3-.7-5.6-2.2-1.3-1.5-1.9-3.7-1.9-6.5s.6-5,1.9-6.5c1.3-1.5,3.1-2.2,5.6-2.2s4.3.7,5.6,2.2c1.3,1.5,1.9,3.7,1.9,6.5s-.6,5-1.9,6.5c-1.3,1.5-3.1,2.2-5.6,2.2ZM502.9,632.3c1.5,0,2.6-.5,3.3-1.5.7-1,1-2.6,1-4.8s-.3-3.8-1-4.8c-.7-1-1.8-1.5-3.3-1.5s-2.6.5-3.3,1.5c-.7,1-1,2.6-1,4.8s.3,3.8,1,4.8c.7,1,1.8,1.5,3.3,1.5Z"/>
      <path class="cls-1" d="M525,634.2v-11.1c0-2.3-1.1-3.5-3.4-3.5s-1.3.1-2,.3-1.4.5-2,.8v13.5h-3.1v-16.3l2.5-.3.2,1.1c1.8-1,3.5-1.6,5.3-1.6s3.2.5,4.2,1.4,1.5,2.3,1.5,4v11.6h-3.1Z"/>
      <path class="cls-1" d="M541.6,634.2v-14.3h-2.5v-2.1h2.5v-3.3c0-1.7.4-3,1.3-4,.9-.9,2.2-1.4,3.8-1.4s1.9.2,2.9.5v2.2c-.9-.2-1.6-.4-2.3-.4-1.8,0-2.7,1-2.7,2.9v3.4h4.2v2.2h-4.2v14.3h-3.1Z"/>
      <path class="cls-1" d="M558.5,634.7c-2.5,0-4.3-.7-5.6-2.2-1.3-1.5-1.9-3.7-1.9-6.5s.6-5,1.9-6.5c1.3-1.5,3.1-2.2,5.6-2.2s4.3.7,5.6,2.2c1.3,1.5,1.9,3.7,1.9,6.5s-.6,5-1.9,6.5c-1.3,1.5-3.1,2.2-5.6,2.2ZM558.5,632.3c1.5,0,2.6-.5,3.3-1.5.7-1,1-2.6,1-4.8s-.3-3.8-1-4.8c-.7-1-1.8-1.5-3.3-1.5s-2.6.5-3.3,1.5c-.7,1-1,2.6-1,4.8s.3,3.8,1,4.8c.7,1,1.8,1.5,3.3,1.5Z"/>
      <path class="cls-1" d="M570,634.2v-16.3l2.5-.3.3,1.5c1.4-1.2,3-1.8,4.6-1.8s1,0,1.5.2v2.5c-.5-.1-1.1-.2-1.6-.2-1.6,0-2.9.5-4.2,1.5v12.9h-3.1Z"/>
      <path class="cls-1" d="M601.3,634.2v-11.5c0-2.1-1-3.1-3-3.1s-2.5.4-3.8,1.2c.1.5.2,1,.2,1.4v12h-3.1v-11.5c0-2.1-1-3.1-3-3.1s-2.4.4-3.7,1.1v13.5h-3.1v-16.3l2.5-.3.2,1.1c1.7-1,3.3-1.6,4.9-1.6s3.3.6,4.2,1.8c2-1.2,3.8-1.8,5.5-1.8s2.9.4,3.8,1.3c.9.9,1.4,2.1,1.4,3.7v12h-3.1Z"/>
      <path class="cls-1" d="M610.3,634.4c-.6,0-1.1-.2-1.4-.6-.4-.4-.6-.8-.6-1.4s.2-1.1.6-1.4c.4-.4.8-.6,1.4-.6s1.1.2,1.4.6.6.8.6,1.4-.2,1.1-.6,1.4-.8.6-1.4.6Z"/>
    </g>
    <g>
      <path class="cls-1" d="M158.2,740.3v-22.3h3.1v19.8h10.3v2.6h-13.4Z"/>
      <path class="cls-1" d="M180.8,740.8c-2.4,0-4.3-.7-5.5-2.2-1.2-1.5-1.9-3.6-1.9-6.4s.6-4.9,1.9-6.4c1.2-1.5,3.1-2.2,5.5-2.2s4.3.7,5.5,2.2c1.2,1.5,1.9,3.6,1.9,6.4s-.6,4.9-1.9,6.4c-1.2,1.5-3.1,2.2-5.5,2.2ZM180.8,738.4c1.5,0,2.6-.5,3.2-1.5.7-1,1-2.6,1-4.8s-.3-3.8-1-4.8c-.7-1-1.8-1.5-3.2-1.5s-2.6.5-3.2,1.5c-.7,1-1,2.6-1,4.8s.3,3.8,1,4.8c.7,1,1.8,1.5,3.2,1.5Z"/>
      <path class="cls-1" d="M203.3,739.8c-1.5.7-3.1,1.1-4.9,1.1s-4.1-.7-5.4-2.2c-1.3-1.5-1.9-3.6-1.9-6.3s.6-4.9,1.9-6.4c1.3-1.5,3.1-2.2,5.4-2.2s3.2.4,4.8,1.1v2.3c-1.5-.6-2.9-1-4.2-1s-2.8.5-3.6,1.6-1.2,2.6-1.2,4.6.4,3.6,1.2,4.6c.8,1.1,2,1.6,3.6,1.6s2.8-.3,4.3-1v2.3Z"/>
      <path class="cls-1" d="M217,740.4l-.2-1.1c-1.8,1-3.5,1.5-5.2,1.5s-3-.5-4-1.4-1.5-2.1-1.5-3.7.6-2.8,1.7-3.7,2.7-1.3,4.7-1.3,2.5.1,4.1.4v-1.7c0-1.2-.3-2-1-2.6s-1.7-.9-3.1-.9-3.4.4-5.3,1.1v-2.3c.9-.4,1.9-.6,2.9-.8,1-.2,2-.3,3-.3,2.1,0,3.7.5,4.8,1.5,1.1,1,1.6,2.4,1.6,4.3v10.7l-2.4.3ZM212.4,738.5c.6,0,1.3-.1,2.1-.3.8-.2,1.4-.5,2-.8v-4.1c-1-.3-2.2-.4-3.5-.4s-2.2.2-2.8.7c-.6.5-.9,1.2-.9,2.2,0,1.8,1.1,2.7,3.2,2.7Z"/>
      <path class="cls-1" d="M227.8,726.3v9.3c0,1,.2,1.7.6,2.1.4.5,1.1.7,1.9.7s1.4-.1,2.1-.4v2.1c-.9.3-1.8.5-2.8.5-1.6,0-2.8-.4-3.7-1.3-.8-.9-1.2-2.1-1.2-3.7v-9.4h-2.4v-2h2.6c0,0,.2-4.1.2-4.1l2.6-.3v4.3h4.5v2.2h-4.5Z"/>
      <path class="cls-1" d="M247.7,739.7c-1.5.7-3.1,1.1-4.9,1.1-2.6,0-4.6-.7-6-2.2-1.4-1.5-2.1-3.6-2.1-6.4s.3-3.3.9-4.5c.6-1.3,1.5-2.3,2.6-3,1.1-.7,2.4-1,3.8-1s3.6.6,4.7,1.8c1.1,1.2,1.7,2.8,1.7,4.9s0,1.6-.2,2.5h-10.6c0,3.8,1.9,5.6,5.5,5.6s3.1-.3,4.6-1v2.3ZM242,725.8c-1.2,0-2.2.4-3,1.3-.8.9-1.2,2.1-1.3,3.5h8c0-.1,0-.2,0-.3v-.3c0-1.3-.3-2.4-1-3.1-.6-.7-1.6-1.1-2.7-1.1Z"/>
      <path class="cls-1" d="M258.4,745c1-.2,1.9-.4,2.5-.7.7-.3,1.3-.8,1.8-1.4.5-.6,1-1.4,1.5-2.4l-6.1-16.4h3.2l4.4,13,4.4-13h3.1l-5.9,15.6c-.6,1.7-1.3,3.1-2,4.1-.7,1-1.5,1.8-2.4,2.4-.9.6-2.2,1-3.7,1.4l-.7-2.6Z"/>
      <path class="cls-1" d="M281.8,740.8c-2.4,0-4.3-.7-5.5-2.2-1.2-1.5-1.9-3.6-1.9-6.4s.6-4.9,1.9-6.4c1.2-1.5,3.1-2.2,5.5-2.2s4.3.7,5.5,2.2c1.2,1.5,1.9,3.6,1.9,6.4s-.6,4.9-1.9,6.4c-1.2,1.5-3.1,2.2-5.5,2.2ZM281.8,738.4c1.5,0,2.6-.5,3.2-1.5.7-1,1-2.6,1-4.8s-.3-3.8-1-4.8c-.7-1-1.8-1.5-3.2-1.5s-2.6.5-3.2,1.5c-.7,1-1,2.6-1,4.8s.3,3.8,1,4.8c.7,1,1.8,1.5,3.2,1.5Z"/>
      <path class="cls-1" d="M303.8,740.4l-.2-1.1c-1.7,1-3.5,1.5-5.2,1.5s-3.1-.5-4-1.4c-1-.9-1.4-2.2-1.4-3.9v-11.4h3v10.9c0,2.3,1.1,3.4,3.3,3.4s1.3-.1,2-.3c.7-.2,1.4-.5,2-.8v-13.2h3v16l-2.4.3Z"/>
      <path class="cls-1" d="M311,740.3v-16l2.4-.3.3,1.5c1.4-1.2,2.9-1.8,4.5-1.8s1,0,1.5.2v2.5c-.5-.1-1-.2-1.6-.2-1.5,0-2.9.5-4.1,1.4v12.7h-3Z"/>
      <path class="cls-1" d="M342.9,739.7c-1.7.8-3.4,1.1-5.3,1.1-2.7,0-4.8-.7-6.2-2.2s-2.1-3.6-2.1-6.5.7-5,2.1-6.6c1.4-1.5,3.5-2.3,6.2-2.3s3.4.4,5.1,1.1v4c-1.6-.6-2.9-.9-4-.9-2.4,0-3.7,1.5-3.7,4.5s1.2,4.5,3.7,4.5,2.5-.3,4.1-.9v4Z"/>
      <path class="cls-1" d="M352.8,740.8c-2.7,0-4.7-.8-6.1-2.2s-2.1-3.7-2.1-6.5.7-5,2.1-6.5,3.4-2.2,6.1-2.2,4.7.8,6.1,2.2,2.1,3.7,2.1,6.5-.7,5-2.1,6.5-3.4,2.2-6.1,2.2ZM352.8,736.6c.9,0,1.5-.3,1.9-1,.4-.7.5-1.9.5-3.5s-.2-2.9-.5-3.5c-.4-.7-1-1-1.9-1s-1.5.3-1.9,1c-.4.7-.5,1.9-.5,3.5s.2,2.9.5,3.5c.4.7,1,1,1.9,1Z"/>
      <path class="cls-1" d="M381.1,727.5c-.4,0-.8,0-1.2.2s-.8.3-1,.4c0,.1,0,.3,0,.5,0,.2,0,.3,0,.5v11.3h-5.6v-10.6c0-1.5-.6-2.2-1.8-2.2s-.8,0-1.2.2c-.4.1-.7.2-1,.4v12.3h-5.6v-16.2l4.4-.4.3,1c.7-.4,1.5-.8,2.3-1,.8-.2,1.6-.4,2.4-.4,1.9,0,3.4.5,4.3,1.6,1.8-1.1,3.5-1.6,5.2-1.6s3.2.5,4.2,1.5c1,1,1.5,2.4,1.5,4.2v11.3h-5.6v-10.6c0-1.5-.6-2.2-1.8-2.2Z"/>
      <path class="cls-1" d="M391.9,747.7v-23.6l4.4-.4.3,1c1.5-.9,3-1.4,4.7-1.4s3.7.8,4.9,2.3c1.2,1.5,1.8,3.6,1.8,6.2s-.7,5.1-2.1,6.7c-1.4,1.6-3.4,2.4-6,2.4s-1.7,0-2.5-.3v6.6l-5.6.5ZM399.5,727.5c-.3,0-.7,0-1.1.2s-.7.2-1,.4v8.7c.6,0,1,.1,1.4.1,1.1,0,2-.4,2.5-1.2.5-.8.8-2.1.8-3.8s-.2-2.6-.6-3.3-1.1-1.1-2-1.1Z"/>
      <path class="cls-1" d="M410.8,740.3v-24l5.6-.5v24.5h-5.6Z"/>
      <path class="cls-1" d="M433.8,739.7c-1.6.8-3.4,1.1-5.4,1.1-3,0-5.3-.8-6.9-2.2-1.6-1.5-2.4-3.7-2.4-6.5s.4-3.3,1.1-4.6c.7-1.3,1.7-2.4,2.9-3.1,1.2-.7,2.7-1.1,4.3-1.1s4,.6,5.2,1.9c1.3,1.2,1.9,2.9,1.9,5.1s-.1,1.8-.3,3.1h-9.6c.1,1.2.5,2.1,1.2,2.6.7.6,1.8.8,3.2.8s3.1-.4,4.7-1.1v4ZM427.4,727c-.8,0-1.5.3-2,.9-.5.6-.7,1.4-.8,2.4h5v-.6c0-1.7-.8-2.6-2.3-2.6Z"/>
      <path class="cls-1" d="M444.4,727.6v7.2c0,1.3.6,2,1.9,2s1.2-.1,2-.4v3.7c-1.1.5-2.3.7-3.6.7-1.9,0-3.3-.5-4.3-1.5s-1.5-2.4-1.5-4.2v-7.5h-2.4v-3.6h2.7c0,0,.4-4.3.4-4.3l4.9-.5v4.6h3.9v3.8h-3.9Z"/>
      <path class="cls-1" d="M453.7,721.9c-1,0-1.8-.3-2.3-.8-.6-.5-.8-1.2-.8-2.1s.3-1.6.8-2.1c.6-.5,1.3-.8,2.3-.8s1.8.3,2.3.8c.6.5.8,1.2.8,2.1s-.3,1.6-.8,2.1c-.6.5-1.3.8-2.3.8ZM450.9,740.3v-16.1l5.6-.5v16.6h-5.6Z"/>
      <path class="cls-1" d="M467.5,740.8c-2.7,0-4.7-.8-6.1-2.2s-2.1-3.7-2.1-6.5.7-5,2.1-6.5,3.4-2.2,6.1-2.2,4.7.8,6.1,2.2,2.1,3.7,2.1,6.5-.7,5-2.1,6.5-3.4,2.2-6.1,2.2ZM467.5,736.6c.9,0,1.5-.3,1.9-1,.4-.7.5-1.9.5-3.5s-.2-2.9-.5-3.5c-.4-.7-1-1-1.9-1s-1.5.3-1.9,1c-.4.7-.5,1.9-.5,3.5s.2,2.9.5,3.5c.4.7,1,1,1.9,1Z"/>
      <path class="cls-1" d="M488.3,740.3v-10.6c0-.8-.2-1.3-.5-1.7-.3-.4-.8-.5-1.5-.5s-.8,0-1.2.2-.7.2-1,.4v12.3h-5.6v-16.2l4.4-.4.3,1c.7-.4,1.5-.8,2.3-1,.8-.2,1.6-.4,2.4-.4,1.9,0,3.3.5,4.4,1.5,1,1,1.5,2.4,1.5,4.3v11.3h-5.6Z"/>
      <path class="cls-1" d="M518.1,739.7c-1.7.8-3.4,1.1-5.3,1.1-2.7,0-4.8-.7-6.2-2.2-1.4-1.5-2.1-3.6-2.1-6.5s.7-5,2.1-6.6c1.4-1.5,3.5-2.3,6.2-2.3s3.4.4,5.1,1.1v4c-1.6-.6-2.9-.9-4-.9-2.4,0-3.7,1.5-3.7,4.5s1.2,4.5,3.7,4.5,2.5-.3,4.1-.9v4Z"/>
      <path class="cls-1" d="M528,740.8c-2.7,0-4.7-.8-6.1-2.2s-2.1-3.7-2.1-6.5.7-5,2.1-6.5,3.4-2.2,6.1-2.2,4.7.8,6.1,2.2,2.1,3.7,2.1,6.5-.7,5-2.1,6.5-3.4,2.2-6.1,2.2ZM528,736.6c.9,0,1.5-.3,1.9-1,.4-.7.5-1.9.5-3.5s-.2-2.9-.5-3.5c-.4-.7-1-1-1.9-1s-1.5.3-1.9,1c-.4.7-.5,1.9-.5,3.5s.2,2.9.5,3.5c.4.7,1,1,1.9,1Z"/>
      <path class="cls-1" d="M550,740.4l-.3-1c-1.5.9-3,1.4-4.7,1.4s-3.7-.8-4.9-2.3c-1.2-1.5-1.8-3.6-1.8-6.2s.7-5.1,2.1-6.7c1.4-1.6,3.4-2.4,6-2.4s1.7,0,2.5.3v-7.2l5.6-.5v24.2l-4.4.4ZM546.8,736.6c.3,0,.7,0,1.1-.2.4-.1.7-.2,1-.4v-8.7c-.6,0-1-.1-1.4-.1-1.1,0-2,.4-2.5,1.2-.5.8-.8,2.1-.8,3.8s.2,2.6.6,3.3,1.1,1.1,2,1.1Z"/>
      <path class="cls-1" d="M571.9,739.7c-1.6.8-3.4,1.1-5.4,1.1-3,0-5.3-.8-6.9-2.2-1.6-1.5-2.4-3.7-2.4-6.5s.4-3.3,1.1-4.6c.7-1.3,1.7-2.4,2.9-3.1,1.2-.7,2.7-1.1,4.3-1.1s4,.6,5.2,1.9c1.3,1.2,1.9,2.9,1.9,5.1s-.1,1.8-.3,3.1h-9.6c.1,1.2.5,2.1,1.2,2.6.7.6,1.8.8,3.2.8s3.1-.4,4.7-1.1v4ZM565.5,727c-.8,0-1.5.3-2,.9-.5.6-.7,1.4-.8,2.4h5v-.6c0-1.7-.8-2.6-2.3-2.6Z"/>
      <path class="cls-1" d="M598.7,740.3l-2.1-2.2c-1,.9-2,1.6-3,2-1,.4-2.2.7-3.4.7s-2.8-.3-3.9-.8c-1.1-.5-2-1.3-2.6-2.2-.6-.9-.9-2-.9-3.2s.3-2.6,1-3.6c.7-1,1.8-1.9,3.3-2.7-1.5-1.7-2.3-3.5-2.3-5.2s.6-3,1.8-4c1.2-1,2.8-1.5,4.7-1.5s3.5.5,4.7,1.5c1.2,1,1.8,2.4,1.8,4s-.4,2.1-1.1,3c-.7.9-1.9,1.8-3.4,2.7l3.5,3.4c1.3-1.5,2.3-2.6,3-3.4s1.4-1.4,2-1.9l1.1,4.4c-1.3,1.2-2.5,2.4-3.4,3.5l5.6,5.5h-6.2ZM591,736.7c1,0,2-.4,2.9-1.3l-4.3-4.5c-1,.8-1.5,1.8-1.5,3s.3,1.5.8,2c.5.5,1.2.8,2.1.8ZM589.2,723.4c0,.5.1,1,.3,1.4s.6,1,1.2,1.6c.7-.4,1.3-.9,1.7-1.4.4-.5.5-1,.5-1.6s-.2-1.1-.5-1.5c-.3-.4-.8-.6-1.3-.6s-1,.2-1.3.6c-.3.4-.5.9-.5,1.5Z"/>
      <path class="cls-1" d="M627.5,739.7c-1.7.8-3.4,1.1-5.3,1.1-2.7,0-4.8-.7-6.2-2.2-1.4-1.5-2.1-3.6-2.1-6.5s.7-5,2.1-6.6c1.4-1.5,3.5-2.3,6.2-2.3s3.4.4,5.1,1.1v4c-1.6-.6-2.9-.9-4-.9-2.4,0-3.7,1.5-3.7,4.5s1.2,4.5,3.7,4.5,2.5-.3,4.1-.9v4Z"/>
      <path class="cls-1" d="M637.5,740.8c-2.7,0-4.7-.8-6.1-2.2s-2.1-3.7-2.1-6.5.7-5,2.1-6.5,3.4-2.2,6.1-2.2,4.7.8,6.1,2.2,2.1,3.7,2.1,6.5-.7,5-2.1,6.5-3.4,2.2-6.1,2.2ZM637.5,736.6c.9,0,1.5-.3,1.9-1,.4-.7.5-1.9.5-3.5s-.2-2.9-.5-3.5c-.4-.7-1-1-1.9-1s-1.5.3-1.9,1c-.4.7-.5,1.9-.5,3.5s.2,2.9.5,3.5c.4.7,1,1,1.9,1Z"/>
      <path class="cls-1" d="M648.5,747.7v-23.6l4.4-.4.3,1c1.5-.9,3-1.4,4.7-1.4s3.7.8,4.9,2.3c1.2,1.5,1.8,3.6,1.8,6.2s-.7,5.1-2.1,6.7c-1.4,1.6-3.4,2.4-6,2.4s-1.7,0-2.5-.3v6.6l-5.6.5ZM656.2,727.5c-.3,0-.7,0-1.1.2s-.7.2-1,.4v8.7c.6,0,1,.1,1.4.1,1.1,0,2-.4,2.5-1.2.5-.8.8-2.1.8-3.8s-.2-2.6-.6-3.3-1.1-1.1-2-1.1Z"/>
      <path class="cls-1" d="M666.3,743.1c1.5-.1,2.6-.4,3.4-.8.8-.4,1.4-.9,1.9-1.6l-6.1-17h5.7l3.1,11,2.9-11h5.6l-5.3,15.1c-.7,2-1.4,3.5-2.2,4.7-.8,1.2-1.7,2.1-2.9,2.7-1.1.6-2.7,1.2-4.8,1.5l-1.2-4.7Z"/>
      <path class="cls-1" d="M157.1,786v-23.6l4.4-.4.3,1c1.5-.9,3-1.4,4.7-1.4s3.7.8,4.9,2.3c1.2,1.5,1.8,3.6,1.8,6.2s-.7,5.1-2.1,6.7c-1.4,1.6-3.4,2.4-6,2.4s-1.7,0-2.5-.3v6.6l-5.6.5ZM164.8,765.8c-.3,0-.7,0-1.1.2-.4.1-.7.2-1,.4v8.7c.6,0,1,.1,1.4.1,1.1,0,2-.4,2.5-1.2.5-.8.8-2.1.8-3.8s-.2-2.6-.6-3.3c-.4-.7-1.1-1.1-2-1.1Z"/>
      <path class="cls-1" d="M186,778.7l-.3-1c-1.6.9-3.2,1.4-4.8,1.4s-3.1-.5-4.2-1.4c-1-1-1.5-2.3-1.5-3.9s.6-3,1.7-3.9c1.1-.9,2.7-1.4,4.8-1.4s2,0,3.2.3v-.9c0-.8-.2-1.3-.7-1.7-.5-.4-1.3-.5-2.3-.5s-3.3.4-5.4,1.1v-4c1-.4,2-.6,3.2-.9,1.1-.2,2.2-.3,3.3-.3,2.4,0,4.2.5,5.5,1.6,1.3,1.1,2,2.6,2,4.5v10.6l-4.4.4ZM182.7,775.4c.8,0,1.5-.2,2.2-.6v-2.9c-.6-.2-1.2-.3-1.8-.3s-1.4.2-1.8.5c-.4.3-.6.8-.6,1.4s.2,1,.5,1.3.9.5,1.5.5Z"/>
      <path class="cls-1" d="M193,774c.7.4,1.6.7,2.6.9,1,.2,1.9.3,2.8.3s1.5-.1,2-.4c.5-.3.7-.6.7-1.1s-.1-.5-.4-.7c-.2-.2-.6-.4-1.2-.5l-1.6-.4c-1.7-.4-2.9-1-3.7-1.8s-1.2-1.8-1.2-3.1.6-3.1,1.9-4.1c1.3-1,3.1-1.5,5.4-1.5s3.6.4,5.3,1.1v3.9c-1.8-.7-3.4-1.1-4.9-1.1s-2.3.4-2.3,1.3,0,.5.3.6c.2.1.6.3,1.1.5l2.1.6c1.5.4,2.6,1,3.4,1.9.7.8,1.1,1.9,1.1,3.3,0,3.7-2.6,5.5-7.7,5.5s-4-.3-5.4-1l-.6-4.1Z"/>
      <path class="cls-1" d="M216.3,765.9v7.2c0,1.3.6,2,1.9,2s1.2-.1,2-.4v3.7c-1.1.5-2.3.7-3.6.7-1.9,0-3.3-.5-4.3-1.5-1-1-1.5-2.4-1.5-4.2v-7.5h-2.4v-3.6h2.7c0,0,.4-4.3.4-4.3l4.9-.5v4.6h3.9v3.8h-3.9Z"/>
      <path class="cls-1" d="M236.8,778c-1.6.8-3.4,1.1-5.4,1.1-3,0-5.3-.8-6.9-2.2s-2.4-3.7-2.4-6.5.4-3.3,1.1-4.6c.7-1.3,1.7-2.4,2.9-3.1,1.2-.7,2.7-1.1,4.3-1.1s4,.6,5.2,1.9c1.3,1.2,1.9,2.9,1.9,5.1s-.1,1.8-.3,3.1h-9.6c.1,1.2.5,2.1,1.2,2.6.7.6,1.8.8,3.2.8s3.1-.4,4.7-1.1v4ZM230.4,765.3c-.8,0-1.5.3-2,.9-.5.6-.7,1.4-.8,2.4h5v-.6c0-1.7-.8-2.6-2.3-2.6Z"/>
      <path class="cls-1" d="M251.2,760.2c-1,0-1.8-.3-2.3-.8-.6-.5-.8-1.2-.8-2.1s.3-1.6.8-2.1c.6-.5,1.3-.8,2.3-.8s1.8.3,2.3.8.8,1.2.8,2.1-.3,1.6-.8,2.1-1.3.8-2.3.8ZM248.4,778.6v-16.1l5.6-.5v16.6h-5.6Z"/>
      <path class="cls-1" d="M264.4,765.9v7.2c0,1.3.6,2,1.9,2s1.2-.1,2-.4v3.7c-1.1.5-2.3.7-3.6.7-1.9,0-3.3-.5-4.3-1.5-1-1-1.5-2.4-1.5-4.2v-7.5h-2.4v-3.6h2.7c0,0,.4-4.3.4-4.3l4.9-.5v4.6h3.9v3.8h-3.9Z"/>
      <path class="cls-1" d="M281.1,759.1c-.6,0-1.1-.2-1.5-.5s-.5-.8-.5-1.4.2-1,.5-1.4.8-.5,1.5-.5,1.1.2,1.5.5.5.8.5,1.4-.2,1-.5,1.4-.8.5-1.5.5ZM279.6,778.6v-16l3-.4v16.3h-3Z"/>
      <path class="cls-1" d="M297.8,778.6v-10.9c0-2.3-1.1-3.4-3.4-3.4s-1.3.1-2,.3c-.7.2-1.4.5-2,.8v13.2h-3v-16l2.4-.3.2,1.1c1.7-1,3.5-1.5,5.2-1.5s3.1.5,4.1,1.4,1.5,2.2,1.5,3.9v11.4h-3Z"/>
      <path class="cls-1" d="M309.1,764.6v9.3c0,1,.2,1.7.6,2.1.4.5,1.1.7,1.9.7s1.4-.1,2.1-.4v2.1c-.9.3-1.8.5-2.8.5-1.6,0-2.8-.4-3.7-1.3-.8-.9-1.2-2.1-1.2-3.7v-9.4h-2.4v-2h2.6c0,0,.2-4.1.2-4.1l2.6-.3v4.3h4.5v2.2h-4.5Z"/>
      <path class="cls-1" d="M323.4,779.1c-2.4,0-4.3-.7-5.5-2.2-1.2-1.5-1.9-3.6-1.9-6.4s.6-4.9,1.9-6.4c1.2-1.5,3.1-2.2,5.5-2.2s4.3.7,5.5,2.2c1.2,1.5,1.9,3.6,1.9,6.4s-.6,4.9-1.9,6.4c-1.2,1.5-3.1,2.2-5.5,2.2ZM323.4,776.7c1.5,0,2.6-.5,3.2-1.5.7-1,1-2.6,1-4.8s-.3-3.8-1-4.8c-.7-1-1.8-1.5-3.2-1.5s-2.6.5-3.2,1.5c-.7,1-1,2.6-1,4.8s.3,3.8,1,4.8c.7,1,1.8,1.5,3.2,1.5Z"/>
      <path class="cls-1" d="M340.8,783.3c1-.2,1.9-.4,2.5-.7s1.3-.8,1.8-1.4c.5-.6,1-1.4,1.5-2.4l-6.1-16.4h3.2l4.4,13,4.4-13h3.1l-5.9,15.6c-.6,1.7-1.3,3.1-2,4.1-.7,1-1.5,1.8-2.4,2.4-.9.6-2.2,1-3.7,1.4l-.7-2.6Z"/>
      <path class="cls-1" d="M364.2,779.1c-2.4,0-4.3-.7-5.5-2.2-1.2-1.5-1.9-3.6-1.9-6.4s.6-4.9,1.9-6.4c1.2-1.5,3.1-2.2,5.5-2.2s4.3.7,5.5,2.2c1.2,1.5,1.9,3.6,1.9,6.4s-.6,4.9-1.9,6.4c-1.2,1.5-3.1,2.2-5.5,2.2ZM364.2,776.7c1.5,0,2.6-.5,3.2-1.5.7-1,1-2.6,1-4.8s-.3-3.8-1-4.8c-.7-1-1.8-1.5-3.2-1.5s-2.6.5-3.2,1.5c-.7,1-1,2.6-1,4.8s.3,3.8,1,4.8c.7,1,1.8,1.5,3.2,1.5Z"/>
      <path class="cls-1" d="M386.1,778.7l-.2-1.1c-1.7,1-3.5,1.5-5.2,1.5s-3.1-.5-4-1.4c-1-.9-1.4-2.2-1.4-3.9v-11.4h3v10.9c0,2.3,1.1,3.4,3.3,3.4s1.3-.1,2-.3c.7-.2,1.4-.5,2-.8v-13.2h3v16l-2.4.3Z"/>
      <path class="cls-1" d="M393.4,778.6v-16l2.4-.3.3,1.5c1.4-1.2,2.9-1.8,4.5-1.8s1,0,1.5.2v2.5c-.5-.1-1-.2-1.6-.2-1.5,0-2.9.5-4.1,1.4v12.7h-3Z"/>
      <path class="cls-1" d="M411.9,775.7c1.7.7,3.4,1.1,5.1,1.1s2.2-.2,2.8-.7c.6-.5,1-1.1,1-2s-.2-1-.5-1.4c-.4-.4-1-.7-1.8-.9l-2.2-.7c-1.4-.4-2.5-1-3.2-1.7-.7-.7-1-1.6-1-2.7s.6-2.6,1.7-3.4c1.1-.9,2.6-1.3,4.6-1.3s3.2.3,4.6,1v2.3c-1.6-.6-3.1-.9-4.4-.9s-1.9.2-2.5.6-.9,1-.9,1.7.2.9.5,1.2.9.6,1.8.8l2.4.7c2.6.8,4,2.4,4,4.7s-.6,2.9-1.7,3.8-2.8,1.3-4.9,1.3-3.6-.3-5-1l-.4-2.5Z"/>
      <path class="cls-1" d="M438.2,778.7l-.2-1.1c-1.7,1-3.5,1.5-5.2,1.5s-3.1-.5-4-1.4c-1-.9-1.4-2.2-1.4-3.9v-11.4h3v10.9c0,2.3,1.1,3.4,3.3,3.4s1.3-.1,2-.3c.7-.2,1.4-.5,2-.8v-13.2h3v16l-2.4.3Z"/>
      <path class="cls-1" d="M448.5,763.2c1.6-.9,3.1-1.3,4.5-1.3,2.1,0,3.7.7,4.9,2.2,1.2,1.5,1.8,3.5,1.8,6.1s-.7,5-2.2,6.6c-1.4,1.5-3.5,2.3-6.2,2.3s-3.9-.3-5.8-.8v-23.6l3-.4v8.9ZM452.3,764.3c-.6,0-1.2.1-1.9.3-.7.2-1.3.5-1.9.8v11c.9.3,1.8.4,2.8.4,1.7,0,3-.5,3.9-1.6.9-1.1,1.3-2.7,1.3-4.9s-.4-3.5-1.1-4.5c-.7-1-1.8-1.5-3.2-1.5Z"/>
      <path class="cls-1" d="M482.7,778.6v-11.3c0-2-1-3.1-3-3.1s-2.4.4-3.8,1.2c.1.5.2.9.2,1.4v11.7h-3v-11.3c0-2-1-3.1-3-3.1s-2.4.4-3.6,1.1v13.2h-3v-16l2.4-.3.2,1.1c1.6-1,3.2-1.5,4.8-1.5s3.2.6,4.1,1.8c1.9-1.2,3.7-1.8,5.4-1.8s2.9.4,3.8,1.3c.9.9,1.4,2.1,1.4,3.6v11.7h-3Z"/>
      <path class="cls-1" d="M491.8,759.1c-.6,0-1.1-.2-1.5-.5-.4-.3-.5-.8-.5-1.4s.2-1,.5-1.4c.4-.3.8-.5,1.5-.5s1.1.2,1.5.5c.4.3.5.8.5,1.4s-.2,1-.5,1.4c-.4.3-.8.5-1.5.5ZM490.3,778.6v-16l3-.4v16.3h-3Z"/>
      <path class="cls-1" d="M497.1,775.7c1.7.7,3.4,1.1,5.1,1.1s2.2-.2,2.8-.7c.6-.5,1-1.1,1-2s-.2-1-.5-1.4c-.4-.4-1-.7-1.8-.9l-2.2-.7c-1.4-.4-2.5-1-3.2-1.7-.7-.7-1-1.6-1-2.7s.6-2.6,1.7-3.4c1.1-.9,2.6-1.3,4.6-1.3s3.2.3,4.6,1v2.3c-1.6-.6-3.1-.9-4.4-.9s-1.9.2-2.5.6-.9,1-.9,1.7.2.9.5,1.2.9.6,1.8.8l2.4.7c2.6.8,4,2.4,4,4.7s-.6,2.9-1.7,3.8-2.8,1.3-4.9,1.3-3.6-.3-5-1l-.4-2.5Z"/>
      <path class="cls-1" d="M511.6,775.7c1.7.7,3.4,1.1,5.1,1.1s2.2-.2,2.8-.7c.6-.5,1-1.1,1-2s-.2-1-.5-1.4c-.4-.4-1-.7-1.8-.9l-2.2-.7c-1.4-.4-2.5-1-3.2-1.7-.7-.7-1-1.6-1-2.7s.6-2.6,1.7-3.4c1.1-.9,2.6-1.3,4.6-1.3s3.2.3,4.6,1v2.3c-1.6-.6-3.1-.9-4.4-.9s-1.9.2-2.5.6-.9,1-.9,1.7.2.9.5,1.2.9.6,1.8.8l2.4.7c2.6.8,4,2.4,4,4.7s-.6,2.9-1.7,3.8-2.8,1.3-4.9,1.3-3.6-.3-5-1l-.4-2.5Z"/>
      <path class="cls-1" d="M528.7,759.1c-.6,0-1.1-.2-1.5-.5-.4-.3-.5-.8-.5-1.4s.2-1,.5-1.4c.4-.3.8-.5,1.5-.5s1.1.2,1.5.5c.4.3.5.8.5,1.4s-.2,1-.5,1.4c-.4.3-.8.5-1.5.5ZM527.2,778.6v-16l3-.4v16.3h-3Z"/>
      <path class="cls-1" d="M541.5,779.1c-2.4,0-4.3-.7-5.5-2.2-1.2-1.5-1.9-3.6-1.9-6.4s.6-4.9,1.9-6.4c1.2-1.5,3.1-2.2,5.5-2.2s4.3.7,5.5,2.2c1.2,1.5,1.9,3.6,1.9,6.4s-.6,4.9-1.9,6.4c-1.2,1.5-3.1,2.2-5.5,2.2ZM541.5,776.7c1.5,0,2.6-.5,3.2-1.5.7-1,1-2.6,1-4.8s-.3-3.8-1-4.8c-.7-1-1.8-1.5-3.2-1.5s-2.6.5-3.2,1.5c-.7,1-1,2.6-1,4.8s.3,3.8,1,4.8c.7,1,1.8,1.5,3.2,1.5Z"/>
      <path class="cls-1" d="M563.1,778.6v-10.9c0-2.3-1.1-3.4-3.4-3.4s-1.3.1-2,.3c-.7.2-1.4.5-2,.8v13.2h-3v-16l2.4-.3.2,1.1c1.7-1,3.5-1.5,5.2-1.5s3.1.5,4.1,1.4c1,.9,1.5,2.2,1.5,3.9v11.4h-3Z"/>
      <path class="cls-1" d="M579.4,778.6v-14h-2.4v-2h2.4v-3.3c0-1.7.4-3,1.3-3.9s2.1-1.4,3.7-1.4,1.9.2,2.9.5v2.1c-.9-.2-1.6-.4-2.2-.4-1.8,0-2.7.9-2.7,2.8v3.3h4.1v2.2h-4.1v14h-3Z"/>
      <path class="cls-1" d="M596,779.1c-2.4,0-4.3-.7-5.5-2.2-1.2-1.5-1.9-3.6-1.9-6.4s.6-4.9,1.9-6.4c1.2-1.5,3.1-2.2,5.5-2.2s4.3.7,5.5,2.2c1.2,1.5,1.9,3.6,1.9,6.4s-.6,4.9-1.9,6.4c-1.2,1.5-3.1,2.2-5.5,2.2ZM596,776.7c1.5,0,2.6-.5,3.2-1.5.7-1,1-2.6,1-4.8s-.3-3.8-1-4.8c-.7-1-1.8-1.5-3.2-1.5s-2.6.5-3.2,1.5c-.7,1-1,2.6-1,4.8s.3,3.8,1,4.8c.7,1,1.8,1.5,3.2,1.5Z"/>
      <path class="cls-1" d="M607.3,778.6v-16l2.4-.3.3,1.5c1.4-1.2,2.9-1.8,4.5-1.8s1,0,1.5.2v2.5c-.5-.1-1-.2-1.6-.2-1.5,0-2.9.5-4.1,1.4v12.7h-3Z"/>
      <path class="cls-1" d="M638.1,778.6v-11.3c0-2-1-3.1-3-3.1s-2.4.4-3.8,1.2c.1.5.2.9.2,1.4v11.7h-3v-11.3c0-2-1-3.1-3-3.1s-2.4.4-3.6,1.1v13.2h-3v-16l2.4-.3.2,1.1c1.6-1,3.2-1.5,4.8-1.5s3.2.6,4.1,1.8c1.9-1.2,3.7-1.8,5.4-1.8s2.9.4,3.8,1.3c.9.9,1.4,2.1,1.4,3.6v11.7h-3Z"/>
      <path class="cls-1" d="M646.9,778.8c-.6,0-1-.2-1.4-.5-.4-.4-.5-.8-.5-1.4s.2-1,.5-1.4.8-.5,1.4-.5,1,.2,1.4.5c.4.4.5.8.5,1.4s-.2,1-.5,1.4-.8.5-1.4.5Z"/>
    </g>
  </g>
  <g>
    <path class="cls-1" d="M734.5,740.3v-22.3h3.1v19.8h10.3v2.6h-13.4Z"/>
    <path class="cls-1" d="M757.2,740.8c-2.4,0-4.3-.7-5.5-2.2-1.2-1.5-1.9-3.6-1.9-6.4s.6-4.9,1.9-6.4c1.2-1.5,3.1-2.2,5.5-2.2s4.3.7,5.5,2.2c1.2,1.5,1.9,3.6,1.9,6.4s-.6,4.9-1.9,6.4c-1.2,1.5-3.1,2.2-5.5,2.2ZM757.2,738.4c1.5,0,2.6-.5,3.2-1.5.7-1,1-2.6,1-4.8s-.3-3.8-1-4.8c-.7-1-1.8-1.5-3.2-1.5s-2.6.5-3.2,1.5-1,2.6-1,4.8.3,3.8,1,4.8c.7,1,1.8,1.5,3.2,1.5Z"/>
    <path class="cls-1" d="M779.7,739.8c-1.5.7-3.1,1.1-4.9,1.1s-4.1-.7-5.4-2.2c-1.3-1.5-1.9-3.6-1.9-6.3s.6-4.9,1.9-6.4,3.1-2.2,5.4-2.2,3.2.4,4.8,1.1v2.3c-1.5-.6-2.9-1-4.2-1s-2.8.5-3.6,1.6-1.2,2.6-1.2,4.6.4,3.6,1.2,4.6c.8,1.1,2,1.6,3.6,1.6s2.8-.3,4.3-1v2.3Z"/>
    <path class="cls-1" d="M793.4,740.4l-.2-1.1c-1.8,1-3.5,1.5-5.2,1.5s-3-.5-4-1.4-1.5-2.1-1.5-3.7.6-2.8,1.7-3.7,2.7-1.3,4.7-1.3,2.5.1,4.1.4v-1.7c0-1.2-.3-2-1-2.6-.7-.6-1.7-.9-3.1-.9s-3.4.4-5.3,1.1v-2.3c.9-.4,1.9-.6,2.9-.8s2-.3,3-.3c2.1,0,3.7.5,4.8,1.5s1.6,2.4,1.6,4.3v10.7l-2.4.3ZM788.8,738.5c.6,0,1.3-.1,2.1-.3s1.4-.5,2-.8v-4.1c-1-.3-2.2-.4-3.5-.4s-2.2.2-2.8.7c-.6.5-.9,1.2-.9,2.2,0,1.8,1.1,2.7,3.2,2.7Z"/>
    <path class="cls-1" d="M804.1,726.3v9.3c0,1,.2,1.7.6,2.1.4.5,1.1.7,1.9.7s1.4-.1,2.1-.4v2.1c-.9.3-1.8.5-2.8.5-1.6,0-2.8-.4-3.7-1.3-.8-.9-1.2-2.1-1.2-3.7v-9.4h-2.4v-2h2.6c0,0,.2-4.1.2-4.1l2.6-.3v4.3h4.5v2.2h-4.5Z"/>
    <path class="cls-1" d="M824.1,739.7c-1.5.7-3.1,1.1-4.9,1.1-2.6,0-4.6-.7-6-2.2-1.4-1.5-2.1-3.6-2.1-6.4s.3-3.3.9-4.5c.6-1.3,1.5-2.3,2.6-3,1.1-.7,2.4-1,3.8-1s3.6.6,4.7,1.8c1.1,1.2,1.7,2.8,1.7,4.9s0,1.6-.2,2.5h-10.6c0,3.8,1.9,5.6,5.5,5.6s3.1-.3,4.6-1v2.3ZM818.4,725.8c-1.2,0-2.2.4-3,1.3-.8.9-1.2,2.1-1.3,3.5h8c0-.1,0-.2,0-.3v-.3c0-1.3-.3-2.4-1-3.1-.6-.7-1.6-1.1-2.7-1.1Z"/>
    <path class="cls-1" d="M834.8,745c1-.2,1.9-.4,2.5-.7.7-.3,1.3-.8,1.8-1.4.5-.6,1-1.4,1.5-2.4l-6.1-16.4h3.2l4.4,13,4.4-13h3.1l-5.9,15.6c-.6,1.7-1.3,3.1-2,4.1-.7,1-1.5,1.8-2.4,2.4-.9.6-2.2,1-3.7,1.4l-.7-2.6Z"/>
    <path class="cls-1" d="M858.2,740.8c-2.4,0-4.3-.7-5.5-2.2-1.2-1.5-1.9-3.6-1.9-6.4s.6-4.9,1.9-6.4c1.2-1.5,3.1-2.2,5.5-2.2s4.3.7,5.5,2.2c1.2,1.5,1.9,3.6,1.9,6.4s-.6,4.9-1.9,6.4c-1.2,1.5-3.1,2.2-5.5,2.2ZM858.2,738.4c1.5,0,2.6-.5,3.2-1.5.7-1,1-2.6,1-4.8s-.3-3.8-1-4.8c-.7-1-1.8-1.5-3.2-1.5s-2.6.5-3.2,1.5-1,2.6-1,4.8.3,3.8,1,4.8c.7,1,1.8,1.5,3.2,1.5Z"/>
    <path class="cls-1" d="M880.1,740.4l-.2-1.1c-1.7,1-3.5,1.5-5.2,1.5s-3.1-.5-4-1.4c-1-.9-1.4-2.2-1.4-3.9v-11.4h3v10.9c0,2.3,1.1,3.4,3.3,3.4s1.3-.1,2-.3c.7-.2,1.4-.5,2-.8v-13.2h3v16l-2.4.3Z"/>
    <path class="cls-1" d="M887.4,740.3v-16l2.4-.3.3,1.5c1.4-1.2,2.9-1.8,4.5-1.8s1,0,1.5.2v2.5c-.5-.1-1-.2-1.6-.2-1.5,0-2.9.5-4.1,1.4v12.7h-3Z"/>
    <path class="cls-1" d="M919.2,739.7c-1.7.8-3.4,1.1-5.3,1.1-2.7,0-4.8-.7-6.2-2.2s-2.1-3.6-2.1-6.5.7-5,2.1-6.6c1.4-1.5,3.5-2.3,6.2-2.3s3.4.4,5.1,1.1v4c-1.6-.6-2.9-.9-4-.9-2.4,0-3.7,1.5-3.7,4.5s1.2,4.5,3.7,4.5,2.5-.3,4.1-.9v4Z"/>
    <path class="cls-1" d="M929.2,740.8c-2.7,0-4.7-.8-6.1-2.2s-2.1-3.7-2.1-6.5.7-5,2.1-6.5,3.4-2.2,6.1-2.2,4.7.8,6.1,2.2,2.1,3.7,2.1,6.5-.7,5-2.1,6.5-3.4,2.2-6.1,2.2ZM929.2,736.6c.9,0,1.5-.3,1.9-1,.4-.7.5-1.9.5-3.5s-.2-2.9-.5-3.5c-.4-.7-1-1-1.9-1s-1.5.3-1.9,1c-.4.7-.5,1.9-.5,3.5s.2,2.9.5,3.5c.4.7,1,1,1.9,1Z"/>
    <path class="cls-1" d="M957.5,727.5c-.4,0-.8,0-1.2.2s-.8.3-1,.4c0,.1,0,.3,0,.5,0,.2,0,.3,0,.5v11.3h-5.6v-10.6c0-1.5-.6-2.2-1.8-2.2s-.8,0-1.2.2c-.4.1-.7.2-1,.4v12.3h-5.6v-16.2l4.4-.4.3,1c.7-.4,1.5-.8,2.3-1,.8-.2,1.6-.4,2.4-.4,1.9,0,3.4.5,4.3,1.6,1.8-1.1,3.5-1.6,5.2-1.6s3.2.5,4.2,1.5c1,1,1.5,2.4,1.5,4.2v11.3h-5.6v-10.6c0-1.5-.6-2.2-1.8-2.2Z"/>
    <path class="cls-1" d="M968.2,747.7v-23.6l4.4-.4.3,1c1.5-.9,3-1.4,4.7-1.4s3.7.8,4.9,2.3c1.2,1.5,1.8,3.6,1.8,6.2s-.7,5.1-2.1,6.7c-1.4,1.6-3.4,2.4-6,2.4s-1.7,0-2.5-.3v6.6l-5.6.5ZM975.9,727.5c-.3,0-.7,0-1.1.2s-.7.2-1,.4v8.7c.6,0,1,.1,1.4.1,1.1,0,2-.4,2.5-1.2.5-.8.8-2.1.8-3.8s-.2-2.6-.6-3.3-1.1-1.1-2-1.1Z"/>
    <path class="cls-1" d="M987.1,740.3v-24l5.6-.5v24.5h-5.6Z"/>
    <path class="cls-1" d="M1010.2,739.7c-1.6.8-3.4,1.1-5.4,1.1-3,0-5.3-.8-6.9-2.2-1.6-1.5-2.4-3.7-2.4-6.5s.4-3.3,1.1-4.6c.7-1.3,1.7-2.4,2.9-3.1,1.2-.7,2.7-1.1,4.3-1.1s4,.6,5.2,1.9c1.3,1.2,1.9,2.9,1.9,5.1s-.1,1.8-.3,3.1h-9.6c.1,1.2.5,2.1,1.2,2.6.7.6,1.8.8,3.2.8s3.1-.4,4.7-1.1v4ZM1003.8,727c-.8,0-1.5.3-2,.9-.5.6-.7,1.4-.8,2.4h5v-.6c0-1.7-.8-2.6-2.3-2.6Z"/>
    <path class="cls-1" d="M1020.7,727.6v7.2c0,1.3.6,2,1.9,2s1.2-.1,2-.4v3.7c-1.1.5-2.3.7-3.6.7-1.9,0-3.3-.5-4.3-1.5s-1.5-2.4-1.5-4.2v-7.5h-2.4v-3.6h2.7c0,0,.4-4.3.4-4.3l4.9-.5v4.6h3.9v3.8h-3.9Z"/>
    <path class="cls-1" d="M1030,721.9c-1,0-1.8-.3-2.3-.8-.6-.5-.8-1.2-.8-2.1s.3-1.6.8-2.1c.6-.5,1.3-.8,2.3-.8s1.8.3,2.3.8c.6.5.8,1.2.8,2.1s-.3,1.6-.8,2.1c-.6.5-1.3.8-2.3.8ZM1027.3,740.3v-16.1l5.6-.5v16.6h-5.6Z"/>
    <path class="cls-1" d="M1043.9,740.8c-2.7,0-4.7-.8-6.1-2.2s-2.1-3.7-2.1-6.5.7-5,2.1-6.5,3.4-2.2,6.1-2.2,4.7.8,6.1,2.2,2.1,3.7,2.1,6.5-.7,5-2.1,6.5-3.4,2.2-6.1,2.2ZM1043.9,736.6c.9,0,1.5-.3,1.9-1,.4-.7.5-1.9.5-3.5s-.2-2.9-.5-3.5c-.4-.7-1-1-1.9-1s-1.5.3-1.9,1c-.4.7-.5,1.9-.5,3.5s.2,2.9.5,3.5c.4.7,1,1,1.9,1Z"/>
    <path class="cls-1" d="M1064.6,740.3v-10.6c0-.8-.2-1.3-.5-1.7-.3-.4-.8-.5-1.5-.5s-.8,0-1.2.2-.7.2-1,.4v12.3h-5.6v-16.2l4.4-.4.3,1c.7-.4,1.5-.8,2.3-1,.8-.2,1.6-.4,2.4-.4,1.9,0,3.3.5,4.4,1.5,1,1,1.5,2.4,1.5,4.3v11.3h-5.6Z"/>
    <path class="cls-1" d="M1094.4,739.7c-1.7.8-3.4,1.1-5.3,1.1-2.7,0-4.8-.7-6.2-2.2-1.4-1.5-2.1-3.6-2.1-6.5s.7-5,2.1-6.6c1.4-1.5,3.5-2.3,6.2-2.3s3.4.4,5.1,1.1v4c-1.6-.6-2.9-.9-4-.9-2.4,0-3.7,1.5-3.7,4.5s1.2,4.5,3.7,4.5,2.5-.3,4.1-.9v4Z"/>
    <path class="cls-1" d="M1104.3,740.8c-2.7,0-4.7-.8-6.1-2.2s-2.1-3.7-2.1-6.5.7-5,2.1-6.5,3.4-2.2,6.1-2.2,4.7.8,6.1,2.2,2.1,3.7,2.1,6.5-.7,5-2.1,6.5-3.4,2.2-6.1,2.2ZM1104.3,736.6c.9,0,1.5-.3,1.9-1,.4-.7.5-1.9.5-3.5s-.2-2.9-.5-3.5c-.4-.7-1-1-1.9-1s-1.5.3-1.9,1c-.4.7-.5,1.9-.5,3.5s.2,2.9.5,3.5c.4.7,1,1,1.9,1Z"/>
    <path class="cls-1" d="M1126.4,740.4l-.3-1c-1.5.9-3,1.4-4.7,1.4s-3.7-.8-4.9-2.3c-1.2-1.5-1.8-3.6-1.8-6.2s.7-5.1,2.1-6.7c1.4-1.6,3.4-2.4,6-2.4s1.7,0,2.5.3v-7.2l5.6-.5v24.2l-4.4.4ZM1123.1,736.6c.3,0,.7,0,1.1-.2.4-.1.7-.2,1-.4v-8.7c-.6,0-1-.1-1.4-.1-1.1,0-2,.4-2.5,1.2-.5.8-.8,2.1-.8,3.8s.2,2.6.6,3.3,1.1,1.1,2,1.1Z"/>
    <path class="cls-1" d="M1148.3,739.7c-1.6.8-3.4,1.1-5.4,1.1-3,0-5.3-.8-6.9-2.2-1.6-1.5-2.4-3.7-2.4-6.5s.4-3.3,1.1-4.6c.7-1.3,1.7-2.4,2.9-3.1,1.2-.7,2.7-1.1,4.3-1.1s4,.6,5.2,1.9c1.3,1.2,1.9,2.9,1.9,5.1s-.1,1.8-.3,3.1h-9.6c.1,1.2.5,2.1,1.2,2.6.7.6,1.8.8,3.2.8s3.1-.4,4.7-1.1v4ZM1141.9,727c-.8,0-1.5.3-2,.9-.5.6-.7,1.4-.8,2.4h5v-.6c0-1.7-.8-2.6-2.3-2.6Z"/>
    <path class="cls-1" d="M1175,740.3l-2.1-2.2c-1,.9-2,1.6-3,2-1,.4-2.2.7-3.4.7s-2.8-.3-3.9-.8c-1.1-.5-2-1.3-2.6-2.2-.6-.9-.9-2-.9-3.2s.3-2.6,1-3.6c.7-1,1.8-1.9,3.3-2.7-1.5-1.7-2.3-3.5-2.3-5.2s.6-3,1.8-4c1.2-1,2.8-1.5,4.7-1.5s3.5.5,4.7,1.5c1.2,1,1.8,2.4,1.8,4s-.4,2.1-1.1,3c-.7.9-1.9,1.8-3.4,2.7l3.5,3.4c1.3-1.5,2.3-2.6,3-3.4s1.4-1.4,2-1.9l1.1,4.4c-1.3,1.2-2.5,2.4-3.4,3.5l5.6,5.5h-6.2ZM1167.3,736.7c1,0,2-.4,2.9-1.3l-4.3-4.5c-1,.8-1.5,1.8-1.5,3s.3,1.5.8,2c.5.5,1.2.8,2.1.8ZM1165.6,723.4c0,.5.1,1,.3,1.4s.6,1,1.2,1.6c.7-.4,1.3-.9,1.7-1.4.4-.5.5-1,.5-1.6s-.2-1.1-.5-1.5c-.3-.4-.8-.6-1.3-.6s-1,.2-1.3.6c-.3.4-.5.9-.5,1.5Z"/>
    <path class="cls-1" d="M1203.9,739.7c-1.7.8-3.4,1.1-5.3,1.1-2.7,0-4.8-.7-6.2-2.2-1.4-1.5-2.1-3.6-2.1-6.5s.7-5,2.1-6.6c1.4-1.5,3.5-2.3,6.2-2.3s3.4.4,5.1,1.1v4c-1.6-.6-2.9-.9-4-.9-2.4,0-3.7,1.5-3.7,4.5s1.2,4.5,3.7,4.5,2.5-.3,4.1-.9v4Z"/>
    <path class="cls-1" d="M1213.8,740.8c-2.7,0-4.7-.8-6.1-2.2s-2.1-3.7-2.1-6.5.7-5,2.1-6.5,3.4-2.2,6.1-2.2,4.7.8,6.1,2.2,2.1,3.7,2.1,6.5-.7,5-2.1,6.5-3.4,2.2-6.1,2.2ZM1213.8,736.6c.9,0,1.5-.3,1.9-1,.4-.7.5-1.9.5-3.5s-.2-2.9-.5-3.5c-.4-.7-1-1-1.9-1s-1.5.3-1.9,1c-.4.7-.5,1.9-.5,3.5s.2,2.9.5,3.5c.4.7,1,1,1.9,1Z"/>
    <path class="cls-1" d="M1224.9,747.7v-23.6l4.4-.4.3,1c1.5-.9,3-1.4,4.7-1.4s3.7.8,4.9,2.3c1.2,1.5,1.8,3.6,1.8,6.2s-.7,5.1-2.1,6.7c-1.4,1.6-3.4,2.4-6,2.4s-1.7,0-2.5-.3v6.6l-5.6.5ZM1232.5,727.5c-.3,0-.7,0-1.1.2s-.7.2-1,.4v8.7c.6,0,1,.1,1.4.1,1.1,0,2-.4,2.5-1.2.5-.8.8-2.1.8-3.8s-.2-2.6-.6-3.3-1.1-1.1-2-1.1Z"/>
    <path class="cls-1" d="M1242.6,743.1c1.5-.1,2.6-.4,3.4-.8.8-.4,1.4-.9,1.9-1.6l-6.1-17h5.7l3.1,11,2.9-11h5.6l-5.3,15.1c-.7,2-1.4,3.5-2.2,4.7-.8,1.2-1.7,2.1-2.9,2.7-1.1.6-2.7,1.2-4.8,1.5l-1.2-4.7Z"/>
    <path class="cls-1" d="M733.5,786v-23.6l4.4-.4.3,1c1.5-.9,3-1.4,4.7-1.4s3.7.8,4.9,2.3,1.8,3.6,1.8,6.2-.7,5.1-2.1,6.7c-1.4,1.6-3.4,2.4-6,2.4s-1.7,0-2.5-.3v6.6l-5.6.5ZM741.1,765.8c-.3,0-.7,0-1.1.2-.4.1-.7.2-1,.4v8.7c.6,0,1,.1,1.4.1,1.1,0,2-.4,2.5-1.2.5-.8.8-2.1.8-3.8s-.2-2.6-.6-3.3-1.1-1.1-2-1.1Z"/>
    <path class="cls-1" d="M762.3,778.7l-.3-1c-1.6.9-3.2,1.4-4.8,1.4s-3.1-.5-4.2-1.4c-1-1-1.5-2.3-1.5-3.9s.6-3,1.7-3.9c1.1-.9,2.7-1.4,4.8-1.4s2,0,3.2.3v-.9c0-.8-.2-1.3-.7-1.7-.5-.4-1.3-.5-2.3-.5s-3.3.4-5.4,1.1v-4c1-.4,2-.6,3.2-.9,1.1-.2,2.2-.3,3.3-.3,2.4,0,4.2.5,5.5,1.6,1.3,1.1,2,2.6,2,4.5v10.6l-4.4.4ZM759.1,775.4c.8,0,1.5-.2,2.2-.6v-2.9c-.6-.2-1.2-.3-1.8-.3s-1.4.2-1.8.5c-.4.3-.6.8-.6,1.4s.2,1,.5,1.3c.4.3.9.5,1.5.5Z"/>
    <path class="cls-1" d="M769.3,774c.7.4,1.6.7,2.6.9,1,.2,1.9.3,2.8.3s1.5-.1,2-.4c.5-.3.7-.6.7-1.1s-.1-.5-.4-.7c-.2-.2-.6-.4-1.2-.5l-1.6-.4c-1.7-.4-2.9-1-3.7-1.8-.8-.8-1.2-1.8-1.2-3.1s.6-3.1,1.9-4.1c1.3-1,3.1-1.5,5.4-1.5s3.6.4,5.3,1.1v3.9c-1.8-.7-3.4-1.1-4.9-1.1s-2.3.4-2.3,1.3,0,.5.3.6c.2.1.6.3,1.1.5l2.1.6c1.5.4,2.6,1,3.4,1.9.7.8,1.1,1.9,1.1,3.3,0,3.7-2.6,5.5-7.7,5.5s-4-.3-5.4-1l-.6-4.1Z"/>
    <path class="cls-1" d="M792.6,765.9v7.2c0,1.3.6,2,1.9,2s1.2-.1,2-.4v3.7c-1.1.5-2.3.7-3.6.7-1.9,0-3.3-.5-4.3-1.5s-1.5-2.4-1.5-4.2v-7.5h-2.4v-3.6h2.7c0,0,.4-4.3.4-4.3l4.9-.5v4.6h3.9v3.8h-3.9Z"/>
    <path class="cls-1" d="M813.1,778c-1.6.8-3.4,1.1-5.4,1.1-3,0-5.3-.8-6.9-2.2-1.6-1.5-2.4-3.7-2.4-6.5s.4-3.3,1.1-4.6c.7-1.3,1.7-2.4,2.9-3.1,1.2-.7,2.7-1.1,4.3-1.1s4,.6,5.2,1.9c1.3,1.2,1.9,2.9,1.9,5.1s-.1,1.8-.3,3.1h-9.6c.1,1.2.5,2.1,1.2,2.6.7.6,1.8.8,3.2.8s3.1-.4,4.7-1.1v4ZM806.8,765.3c-.8,0-1.5.3-2,.9-.5.6-.7,1.4-.8,2.4h5v-.6c0-1.7-.8-2.6-2.3-2.6Z"/>
    <path class="cls-1" d="M827.6,760.2c-1,0-1.8-.3-2.3-.8-.6-.5-.8-1.2-.8-2.1s.3-1.6.8-2.1c.6-.5,1.3-.8,2.3-.8s1.8.3,2.3.8c.6.5.8,1.2.8,2.1s-.3,1.6-.8,2.1c-.6.5-1.3.8-2.3.8ZM824.8,778.6v-16.1l5.6-.5v16.6h-5.6Z"/>
    <path class="cls-1" d="M840.8,765.9v7.2c0,1.3.6,2,1.9,2s1.2-.1,2-.4v3.7c-1.1.5-2.3.7-3.6.7-1.9,0-3.3-.5-4.3-1.5-1-1-1.5-2.4-1.5-4.2v-7.5h-2.4v-3.6h2.7c0,0,.4-4.3.4-4.3l4.9-.5v4.6h3.9v3.8h-3.9Z"/>
    <path class="cls-1" d="M857.4,759.1c-.6,0-1.1-.2-1.5-.5-.4-.3-.5-.8-.5-1.4s.2-1,.5-1.4c.4-.3.8-.5,1.5-.5s1.1.2,1.5.5c.4.3.5.8.5,1.4s-.2,1-.5,1.4c-.4.3-.8.5-1.5.5ZM855.9,778.6v-16l3-.4v16.3h-3Z"/>
    <path class="cls-1" d="M874.2,778.6v-10.9c0-2.3-1.1-3.4-3.4-3.4s-1.3.1-2,.3-1.4.5-2,.8v13.2h-3v-16l2.4-.3.2,1.1c1.7-1,3.5-1.5,5.2-1.5s3.1.5,4.1,1.4c1,.9,1.5,2.2,1.5,3.9v11.4h-3Z"/>
    <path class="cls-1" d="M885.5,764.6v9.3c0,1,.2,1.7.6,2.1.4.5,1.1.7,1.9.7s1.4-.1,2.1-.4v2.1c-.9.3-1.8.5-2.8.5-1.6,0-2.8-.4-3.7-1.3-.8-.9-1.2-2.1-1.2-3.7v-9.4h-2.4v-2h2.6c0,0,.2-4.1.2-4.1l2.6-.3v4.3h4.5v2.2h-4.5Z"/>
    <path class="cls-1" d="M899.8,779.1c-2.4,0-4.3-.7-5.5-2.2-1.2-1.5-1.9-3.6-1.9-6.4s.6-4.9,1.9-6.4c1.2-1.5,3.1-2.2,5.5-2.2s4.3.7,5.5,2.2c1.2,1.5,1.9,3.6,1.9,6.4s-.6,4.9-1.9,6.4c-1.2,1.5-3.1,2.2-5.5,2.2ZM899.8,776.7c1.5,0,2.6-.5,3.2-1.5.7-1,1-2.6,1-4.8s-.3-3.8-1-4.8c-.7-1-1.8-1.5-3.2-1.5s-2.6.5-3.2,1.5-1,2.6-1,4.8.3,3.8,1,4.8c.7,1,1.8,1.5,3.2,1.5Z"/>
    <path class="cls-1" d="M917.1,783.3c1-.2,1.9-.4,2.5-.7s1.3-.8,1.8-1.4c.5-.6,1-1.4,1.5-2.4l-6.1-16.4h3.2l4.4,13,4.4-13h3.1l-5.9,15.6c-.6,1.7-1.3,3.1-2,4.1-.7,1-1.5,1.8-2.4,2.4-.9.6-2.2,1-3.7,1.4l-.7-2.6Z"/>
    <path class="cls-1" d="M940.5,779.1c-2.4,0-4.3-.7-5.5-2.2-1.2-1.5-1.9-3.6-1.9-6.4s.6-4.9,1.9-6.4c1.2-1.5,3.1-2.2,5.5-2.2s4.3.7,5.5,2.2c1.2,1.5,1.9,3.6,1.9,6.4s-.6,4.9-1.9,6.4c-1.2,1.5-3.1,2.2-5.5,2.2ZM940.5,776.7c1.5,0,2.6-.5,3.2-1.5.7-1,1-2.6,1-4.8s-.3-3.8-1-4.8c-.7-1-1.8-1.5-3.2-1.5s-2.6.5-3.2,1.5c-.7,1-1,2.6-1,4.8s.3,3.8,1,4.8c.7,1,1.8,1.5,3.2,1.5Z"/>
    <path class="cls-1" d="M962.4,778.7l-.2-1.1c-1.7,1-3.5,1.5-5.2,1.5s-3.1-.5-4-1.4c-1-.9-1.4-2.2-1.4-3.9v-11.4h3v10.9c0,2.3,1.1,3.4,3.3,3.4s1.3-.1,2-.3c.7-.2,1.4-.5,2-.8v-13.2h3v16l-2.4.3Z"/>
    <path class="cls-1" d="M969.7,778.6v-16l2.4-.3.3,1.5c1.4-1.2,2.9-1.8,4.5-1.8s1,0,1.5.2v2.5c-.5-.1-1-.2-1.6-.2-1.5,0-2.9.5-4.1,1.4v12.7h-3Z"/>
    <path class="cls-1" d="M988.2,775.7c1.7.7,3.4,1.1,5.1,1.1s2.2-.2,2.8-.7c.6-.5,1-1.1,1-2s-.2-1-.5-1.4c-.4-.4-1-.7-1.8-.9l-2.2-.7c-1.4-.4-2.5-1-3.2-1.7-.7-.7-1-1.6-1-2.7s.6-2.6,1.7-3.4c1.1-.9,2.6-1.3,4.6-1.3s3.2.3,4.6,1v2.3c-1.6-.6-3.1-.9-4.4-.9s-1.9.2-2.5.6-.9,1-.9,1.7.2.9.5,1.2.9.6,1.8.8l2.4.7c2.6.8,4,2.4,4,4.7s-.6,2.9-1.7,3.8-2.8,1.3-4.9,1.3-3.6-.3-5-1l-.4-2.5Z"/>
    <path class="cls-1" d="M1014.5,778.7l-.2-1.1c-1.7,1-3.5,1.5-5.2,1.5s-3.1-.5-4-1.4c-1-.9-1.4-2.2-1.4-3.9v-11.4h3v10.9c0,2.3,1.1,3.4,3.3,3.4s1.3-.1,2-.3c.7-.2,1.4-.5,2-.8v-13.2h3v16l-2.4.3Z"/>
    <path class="cls-1" d="M1024.8,763.2c1.6-.9,3.1-1.3,4.5-1.3,2.1,0,3.7.7,4.9,2.2,1.2,1.5,1.8,3.5,1.8,6.1s-.7,5-2.2,6.6c-1.4,1.5-3.5,2.3-6.2,2.3s-3.9-.3-5.8-.8v-23.6l3-.4v8.9ZM1028.6,764.3c-.6,0-1.2.1-1.9.3-.7.2-1.3.5-1.9.8v11c.9.3,1.8.4,2.8.4,1.7,0,3-.5,3.9-1.6.9-1.1,1.3-2.7,1.3-4.9s-.4-3.5-1.1-4.5c-.7-1-1.8-1.5-3.2-1.5Z"/>
    <path class="cls-1" d="M1059,778.6v-11.3c0-2-1-3.1-3-3.1s-2.4.4-3.8,1.2c.1.5.2.9.2,1.4v11.7h-3v-11.3c0-2-1-3.1-3-3.1s-2.4.4-3.6,1.1v13.2h-3v-16l2.4-.3.2,1.1c1.6-1,3.2-1.5,4.8-1.5s3.2.6,4.1,1.8c1.9-1.2,3.7-1.8,5.4-1.8s2.9.4,3.8,1.3c.9.9,1.4,2.1,1.4,3.6v11.7h-3Z"/>
    <path class="cls-1" d="M1068.2,759.1c-.6,0-1.1-.2-1.5-.5-.4-.3-.5-.8-.5-1.4s.2-1,.5-1.4c.4-.3.8-.5,1.5-.5s1.1.2,1.5.5c.4.3.5.8.5,1.4s-.2,1-.5,1.4c-.4.3-.8.5-1.5.5ZM1066.7,778.6v-16l3-.4v16.3h-3Z"/>
    <path class="cls-1" d="M1073.4,775.7c1.7.7,3.4,1.1,5.1,1.1s2.2-.2,2.8-.7c.6-.5,1-1.1,1-2s-.2-1-.5-1.4c-.4-.4-1-.7-1.8-.9l-2.2-.7c-1.4-.4-2.5-1-3.2-1.7-.7-.7-1-1.6-1-2.7s.6-2.6,1.7-3.4c1.1-.9,2.6-1.3,4.6-1.3s3.2.3,4.6,1v2.3c-1.6-.6-3.1-.9-4.4-.9s-1.9.2-2.5.6-.9,1-.9,1.7.2.9.5,1.2.9.6,1.8.8l2.4.7c2.6.8,4,2.4,4,4.7s-.6,2.9-1.7,3.8-2.8,1.3-4.9,1.3-3.6-.3-5-1l-.4-2.5Z"/>
    <path class="cls-1" d="M1087.9,775.7c1.7.7,3.4,1.1,5.1,1.1s2.2-.2,2.8-.7c.6-.5,1-1.1,1-2s-.2-1-.5-1.4c-.4-.4-1-.7-1.8-.9l-2.2-.7c-1.4-.4-2.5-1-3.2-1.7-.7-.7-1-1.6-1-2.7s.6-2.6,1.7-3.4c1.1-.9,2.6-1.3,4.6-1.3s3.2.3,4.6,1v2.3c-1.6-.6-3.1-.9-4.4-.9s-1.9.2-2.5.6-.9,1-.9,1.7.2.9.5,1.2.9.6,1.8.8l2.4.7c2.6.8,4,2.4,4,4.7s-.6,2.9-1.7,3.8-2.8,1.3-4.9,1.3-3.6-.3-5-1l-.4-2.5Z"/>
    <path class="cls-1" d="M1105.1,759.1c-.6,0-1.1-.2-1.5-.5-.4-.3-.5-.8-.5-1.4s.2-1,.5-1.4c.4-.3.8-.5,1.5-.5s1.1.2,1.5.5c.4.3.5.8.5,1.4s-.2,1-.5,1.4c-.4.3-.8.5-1.5.5ZM1103.6,778.6v-16l3-.4v16.3h-3Z"/>
    <path class="cls-1" d="M1117.8,779.1c-2.4,0-4.3-.7-5.5-2.2-1.2-1.5-1.9-3.6-1.9-6.4s.6-4.9,1.9-6.4c1.2-1.5,3.1-2.2,5.5-2.2s4.3.7,5.5,2.2c1.2,1.5,1.9,3.6,1.9,6.4s-.6,4.9-1.9,6.4c-1.2,1.5-3.1,2.2-5.5,2.2ZM1117.8,776.7c1.5,0,2.6-.5,3.2-1.5.7-1,1-2.6,1-4.8s-.3-3.8-1-4.8c-.7-1-1.8-1.5-3.2-1.5s-2.6.5-3.2,1.5c-.7,1-1,2.6-1,4.8s.3,3.8,1,4.8c.7,1,1.8,1.5,3.2,1.5Z"/>
    <path class="cls-1" d="M1139.5,778.6v-10.9c0-2.3-1.1-3.4-3.4-3.4s-1.3.1-2,.3c-.7.2-1.4.5-2,.8v13.2h-3v-16l2.4-.3.2,1.1c1.7-1,3.5-1.5,5.2-1.5s3.1.5,4.1,1.4c1,.9,1.5,2.2,1.5,3.9v11.4h-3Z"/>
    <path class="cls-1" d="M1155.8,778.6v-14h-2.4v-2h2.4v-3.3c0-1.7.4-3,1.3-3.9s2.1-1.4,3.7-1.4,1.9.2,2.9.5v2.1c-.9-.2-1.6-.4-2.2-.4-1.8,0-2.7.9-2.7,2.8v3.3h4.1v2.2h-4.1v14h-3Z"/>
    <path class="cls-1" d="M1172.4,779.1c-2.4,0-4.3-.7-5.5-2.2-1.2-1.5-1.9-3.6-1.9-6.4s.6-4.9,1.9-6.4c1.2-1.5,3.1-2.2,5.5-2.2s4.3.7,5.5,2.2c1.2,1.5,1.9,3.6,1.9,6.4s-.6,4.9-1.9,6.4c-1.2,1.5-3.1,2.2-5.5,2.2ZM1172.4,776.7c1.5,0,2.6-.5,3.2-1.5.7-1,1-2.6,1-4.8s-.3-3.8-1-4.8c-.7-1-1.8-1.5-3.2-1.5s-2.6.5-3.2,1.5c-.7,1-1,2.6-1,4.8s.3,3.8,1,4.8c.7,1,1.8,1.5,3.2,1.5Z"/>
    <path class="cls-1" d="M1183.6,778.6v-16l2.4-.3.3,1.5c1.4-1.2,2.9-1.8,4.5-1.8s1,0,1.5.2v2.5c-.5-.1-1-.2-1.6-.2-1.5,0-2.9.5-4.1,1.4v12.7h-3Z"/>
    <path class="cls-1" d="M1214.4,778.6v-11.3c0-2-1-3.1-3-3.1s-2.4.4-3.8,1.2c.1.5.2.9.2,1.4v11.7h-3v-11.3c0-2-1-3.1-3-3.1s-2.4.4-3.6,1.1v13.2h-3v-16l2.4-.3.2,1.1c1.6-1,3.2-1.5,4.8-1.5s3.2.6,4.1,1.8c1.9-1.2,3.7-1.8,5.4-1.8s2.9.4,3.8,1.3c.9.9,1.4,2.1,1.4,3.6v11.7h-3Z"/>
    <path class="cls-1" d="M1223.3,778.8c-.6,0-1-.2-1.4-.5-.4-.4-.5-.8-.5-1.4s.2-1,.5-1.4.8-.5,1.4-.5,1,.2,1.4.5c.4.4.5.8.5,1.4s-.2,1-.5,1.4-.8.5-1.4.5Z"/>
  </g>
</svg>