<?xml version="1.0" encoding="UTF-8"?>
<svg id="Layer_2" data-name="Layer 2" xmlns="http://www.w3.org/2000/svg" viewBox="0 0 826.85 153.88">
  <defs>
    <style>
      .cls-1 {
        fill: #cc9cff;
      }

      .cls-1, .cls-2, .cls-3, .cls-4, .cls-5, .cls-6, .cls-7, .cls-8, .cls-9, .cls-10, .cls-11 {
        stroke-width: 0px;
      }

      .cls-2 {
        fill: #1b8eff;
      }

      .cls-3 {
        fill: #c0a3ff;
      }

      .cls-4 {
        fill: #d0a8ff;
      }

      .cls-5 {
        fill: #013d5b;
      }

      .cls-6 {
        fill: #b69fff;
      }

      .cls-7 {
        fill: #7093ff;
      }

      .cls-8 {
        fill: #d59eff;
      }

      .cls-9 {
        fill: #9196ff;
      }

      .cls-10 {
        fill: #a39eff;
      }

      .cls-11 {
        fill: #6193ff;
      }
    </style>
  </defs>
  <g id="Layer_1-2" data-name="Layer 1">
    <g>
      <path class="cls-8" d="M800.78,38.35c-2.19-2.27-3.75-4.89-4.64-7.83-.39-1.25-1.37-2.07-2.42-2.11-2.07-.04-3.94.67-5.62,2.11-6.6-1.92-9.95-6.1-10.07-12.56-.04-.63-.7-1.45-1.76-2.11-3.24-2.07-6.75-2.74-10.61-2-1.95.39-3.43.78-3.71,1.06-2.03,2.07-3.79,2.11-5.31.08-.74-1.02-.98-2.5-.55-4.03l2.97-10.92,67.79.23c-6.95,13.85-15.65,26.53-26.07,38.08Z"/>
      <path class="cls-9" d="M800.78,38.35c-13.5,18.59-27.94,36.2-43.36,52.79-4.37-2.15-8.59-2.15-12.61-.04-.98.51-2.15.27-2.85-.55-2.54-3.01-5.31-3.8-8.27-2.31-13.78,6.85-26.69,9.74-38.75,8.73,10.11-4.5,18.11-11.19,24.04-20.04,3.82-5.75,7.69-6.73,13.82-4.15,1.33.59,2.65.67,3.63.23,10.81-4.74-8.04-17.88-11.4-21.8-.9-1.02-2.07-1.57-3.2-1.49-6.83.51-12.25-1.84-16.27-7-1.29-1.64-2.3-1.45-3.12.59l-4.96,12.52c-.7,1.76-1.91,2.93-3.04,2.93l-4.88-.04c-.86-.04-1.99.55-3.08,1.57-6.44,6.07-14.05,9.74-22.87,10.96-8,1.13-10.89,5.32-7.22,12.76l-29.11-5.87c-1.76-.35-3.08-1.21-3.08-2.07-.2-8.96,2.65-16.79,8.62-23.48.51-.55,1.68-.08,2.42,1.02,2.73,3.91,5.81,4.23,9.21.94.94-.9.66-2.43-.47-2.97-2.85-1.33-5-3.4-6.48-6.26-.66-1.29-.98-2.47-.86-3.25,1.52-10.41,4.29-20.47,8.31-30.17.59-1.37.51-2.82-.2-3.76-9.64-13.15-9.64,27.94-18.11,25.2-1.05-.35-1.72-1.57-1.48-2.86L630.27.04h18.54c-3.51,6.54-2.54,11.43,2.93,14.67,1.13.67,1.72,1.8,1.37,2.62l-5.5,12.99c-.55,1.29-.23,2.66.7,3.25,4.25,2.66,8.9,3.87,13.93,3.68.98-.04,1.95-.86,2.42-2.11,4.84-12.95,25.72-8.22,36.76-5.05.98.27,2.19-.27,3.04-1.41,1.76-2.23,3.94-3.99,6.56-5.24,1.21-.59,2.81-.23,4.02.86,7.3,6.61,15.49,11.82,24.51,15.61,1.29.51,2.15,1.64,2.22,2.86.2,3.72,1.29,7.12,3.2,10.14.59.86,2.22.94,3.79.16,4.41-2.23,8.9-2.86,13.42-1.92,1.33.23,2.58.08,3.59-.51,9.09-5.2,16.51-11.94,22.32-20.11,1.68-1.45,3.55-2.15,5.62-2.11,1.05.04,2.03.86,2.42,2.11.9,2.93,2.46,5.56,4.64,7.83Z"/>
      <path class="cls-6" d="M788.09,30.52c-5.81,8.18-13.23,14.91-22.32,20.11-1.01.59-2.26.74-3.59.51-4.53-.94-9.02-.31-13.42,1.92-1.56.78-3.2.7-3.79-.16-1.91-3.01-3.01-6.42-3.2-10.14-.08-1.21-.94-2.35-2.22-2.86-9.02-3.8-17.21-9-24.51-15.61-1.21-1.1-2.81-1.45-4.02-.86-2.61,1.25-4.8,3.01-6.56,5.24-.86,1.13-2.07,1.68-3.04,1.41-11.04-3.17-31.92-7.9-36.76,5.05-.47,1.25-1.44,2.07-2.42,2.11-5.03.2-9.68-1.02-13.93-3.68-.94-.59-1.25-1.96-.7-3.25l5.5-12.99c.35-.82-.23-1.96-1.37-2.62-5.46-3.25-6.44-8.14-2.93-14.67h110.25l-2.97,10.92c-.43,1.53-.2,3.01.55,4.03,1.52,2.03,3.28,2,5.31-.08.27-.27,1.76-.67,3.71-1.06,3.86-.74,7.38-.08,10.61,2,1.05.67,1.72,1.49,1.76,2.11.12,6.46,3.47,10.64,10.07,12.56Z"/>
      <path class="cls-3" d="M757.42,91.14c-27.71,30.92-76.1,41.87-115.67,44.73-2.07-1.21-2.77-2.74-2.19-4.58.39-1.21-.23-2.47-1.4-2.9-6.91-2.54-9.83-6.1-8.78-10.72.78-3.33,1.21-8.14-3.67-7.12-1.05.23-1.99,1.13-2.5,2.43-2.38,6.03-5.58,6.22-9.6.55l7.61-22.58c.59-1.72,2.46-2.54,4.02-1.76,15.77,8.18,32.66,12.01,50.66,11.47,6.99.74,13.35-.51,19.04-3.68,12.06,1.02,24.98-1.88,38.75-8.73,2.97-1.49,5.74-.7,8.27,2.31.7.82,1.87,1.06,2.85.55,4.02-2.11,8.23-2.11,12.61.04Z"/>
      <path class="cls-11" d="M694.94,96.97c-5.7,3.17-12.06,4.42-19.04,3.68-.74-12.29-7.22-17.84-19.51-16.63-3.67-7.44-.78-11.62,7.22-12.76,8.82-1.21,16.43-4.89,22.87-10.96,1.09-1.02,2.22-1.6,3.08-1.57l4.88.04c1.13,0,2.34-1.17,3.04-2.93l4.96-12.52c.82-2.03,1.83-2.23,3.12-.59,4.02,5.17,9.44,7.51,16.27,7,1.13-.08,2.3.47,3.2,1.49,3.36,3.91,22.21,17.06,11.4,21.8-.98.43-2.3.35-3.63-.23-6.13-2.58-9.99-1.6-13.82,4.15-5.93,8.84-13.93,15.54-24.04,20.04Z"/>
      <path class="cls-2" d="M675.89,100.65c-17.99.55-34.89-3.29-50.66-11.47-1.56-.78-3.43.04-4.02,1.76l-7.61,22.58c-.08,3.4-1.25,5.91-3.55,7.59-3.55,2.58-4.72,1.68-3.51-2.74l5.39-19.84c.35-1.25.08-2.5-.66-3.25-6.32-6.3-13,36.86-13.42,42.54h-7.81l3.75-23.75c5.15-17.49,5.74-34.98,11.04-52.48,5.15-17.1,8.47-34.63,9.91-52.67,4.88-1.8,6.13-4.77,3.82-8.88h11.71l-5.11,30.45c-.23,1.29.43,2.5,1.48,2.86,8.47,2.74,8.47-38.35,18.11-25.2.7.94.78,2.39.2,3.76-4.02,9.7-6.79,19.76-8.31,30.17-.12.78.2,1.96.86,3.25,1.48,2.86,3.63,4.93,6.48,6.26,1.13.55,1.4,2.07.47,2.97-3.4,3.29-6.48,2.97-9.21-.94-.74-1.1-1.91-1.57-2.42-1.02-5.97,6.69-8.82,14.52-8.62,23.48,0,.86,1.33,1.72,3.08,2.07l29.11,5.87c12.29-1.21,18.77,4.34,19.51,16.63Z"/>
      <path class="cls-10" d="M641.74,135.87l-43.9,1.96c.43-5.67,7.1-48.84,13.42-42.54.74.74,1.01,2,.66,3.25l-5.39,19.84c-1.21,4.42-.04,5.32,3.51,2.74,2.3-1.68,3.47-4.19,3.55-7.59,4.02,5.67,7.22,5.48,9.6-.55.51-1.29,1.44-2.19,2.5-2.43,4.88-1.02,4.45,3.8,3.67,7.12-1.05,4.62,1.87,8.18,8.78,10.72,1.17.43,1.8,1.68,1.4,2.9-.59,1.84.12,3.37,2.19,4.58Z"/>
      <path class="cls-3" d="M614.74,8.92c-5.54,3.68-8.27,8.8-8.23,15.38,0,1.49-.31,2.78-.86,3.68-6.91,11.04-50.73-1.1-61.97-5.79,6.56-6.22,9.72-13.62,9.52-22.15h65.37c2.3,4.11,1.05,7.08-3.82,8.88Z"/>
      <path class="cls-9" d="M614.74,8.92c-1.44,18.04-4.76,35.57-9.91,52.67-5.31,17.49-5.89,34.98-11.04,52.48-12.14,3.72-24.12,2.93-36.02-2.27-6.09-2.7-7.38-1.21-3.82,4.46,3.55,5.67,4.29,13.23,2.3,22.62l-35.47.9-4.33-9.86c-.59-1.33-.74-2.62-.47-3.56,4.72-15.03,3.08-27.12,12.8-37.76.82-.9,1.05-2.15.62-3.25-2.93-7.59-2.42-15.38,1.44-23.4,5.5-11.35,9.8-24.61,12.84-39.76,11.24,4.7,55.07,16.83,61.97,5.79.55-.9.86-2.19.86-3.68-.04-6.57,2.69-11.7,8.23-15.38Z"/>
      <path class="cls-6" d="M593.78,114.07l-3.75,23.75-33.8,1.06c1.99-9.39,1.25-16.94-2.3-22.62-3.55-5.67-2.26-7.16,3.82-4.46,11.9,5.2,23.88,5.99,36.02,2.27Z"/>
      <path class="cls-1" d="M543.67,22.19c-3.04,15.14-7.34,28.41-12.84,39.76-3.86,8.02-4.37,15.81-1.44,23.4.43,1.1.2,2.35-.62,3.25-9.72,10.64-8.08,22.74-12.8,37.76-.27.94-.12,2.23.47,3.56l4.33,9.86-19.08,1.02,11.12-41.95c5.03-29.23,15.1-55.8,20.33-85.08.27-1.57-.51-2.97-1.68-2.97h-9.72c-1.29,0-2.38-.67-2.85-1.68-1.44-3.25-.74-6.3,2.11-9.08h32.2c.2,8.53-2.97,15.93-9.52,22.15Z"/>
      <path class="cls-9" d="M512.8,98.85c-11.43,14.87-29.07,30.68-44.68,19.49-4.45-3.21-12.92-11.78-25.41-25.75-.98-1.1-2.07-1.76-3.04-1.96-5.46-.98-8.55,1.53-9.21,7.51-.08.78-1.01,1.64-2.34,2.23-18.81,7.83-27.98-5.56-34.07-20.62-.51-1.25-1.29-2.27-2.26-2.93-6.67-4.5-13.62-5.56-19.04-11.51-3.75-4.11-7.42-8.53-10.97-13.27-.62-.86-1.83-1.1-2.77-.51-15.22,9.47-26.85,6.18-42.11,11.62-5.27,1.88-10.46,3.6-15.65,5.2,8.94-9.16-8.12-7.63-9.76-17.3.98-4.85.04-9.35-2.77-13.54-.86-1.29-1.33-2.5-1.17-3.25l3.82-19.61c.39-1.96.43-3.52.12-3.91-1.83-2.47-3.82-2.5-6.05-.12-1.05,1.13-1.64,2.39-1.68,3.44-.08,3.44,5.23,25.79-3.82,20.86-12.76-6.93-19.9-18.55-21.39-34.91h262.45c-2.85,2.78-3.55,5.83-2.11,9.08.47,1.02,1.56,1.68,2.85,1.68h9.72c1.17,0,1.95,1.41,1.68,2.97-5.23,29.27-15.3,55.84-20.33,85.08Z"/>
      <path class="cls-6" d="M190.53,56.04c-5-5.28-9.37-7.12-13.15-5.44-4.37,1.96-5.15,4.77-2.38,8.49,4.06,5.36,7.77,8.06,11.08,8.02,9.83-.08,11.32-3.76,4.45-11.07ZM210.31,87.31c7.38-8.65-12.61-9.51-17.99-5.91-1.05.74-1.25,2.15-.35,2.82,4.33,3.09,9.21,4.74,14.63,4.93,1.29.04,2.65-.63,3.71-1.84M228.5,83.9c-.23,3.8,1.8,5.75,6.13,5.95,1.21.04,2.34-.7,2.77-1.88,1.91-5.28-.31-7.44-6.67-6.38-1.21.2-2.15,1.17-2.22,2.31M512.8,98.85l-11.12,41.95-85.31,9.08-42.93,2.62c-1.87-6.14-.74-11.19,3.36-15.11.82-.78,1.29-1.96,1.25-3.25-.04-1.25.39-1.88,1.21-1.92,2.38,0,3.71-.08,3.98-.23,10.73-5.83,14.36-15.03,10.85-27.51-.39-1.37-1.17-2.54-2.26-3.37-19.79-14.71-36.26-39.88-61.62-29.66-7.61,3.05-12.96,4.7-16.04,4.89-17.68,1.21-46.05-9.98-45.66,19.72.04,1.53-.47,2.78-1.17,3.09-3.32,1.45-5.85,3.72-7.65,6.85-.66,1.17-2.38,1.72-4.29,1.37-5.27-1.02-9.87.35-13.82,4.07-1.01.98-2.65.98-3.59-.04l-12.06-13.27c-3.98-4.34-7.61-4.62-10.85-.74-17.33,20.82-30.52-6.89-46.44-6.57-1.25.04-2.54-.39-3.59-1.13-8.55-5.91-15.88-12.99-22.05-21.21-1.01-1.33-2.54-1.92-3.08-1.17-1.21,1.64-2.81,2.93-4.8,3.91-.94.47-2.26.31-3.47-.35-9.8-5.52-18.54-12.25-26.23-20.23,10.58-15.07,16-31.97,16.35-50.64l136.79.04c1.48,16.36,8.62,27.98,21.39,34.91,9.05,4.93,3.75-17.41,3.82-20.86.04-1.06.62-2.31,1.68-3.44,2.22-2.39,4.21-2.35,6.05.12.31.39.27,1.96-.12,3.91l-3.82,19.61c-.16.74.31,1.96,1.17,3.25,2.81,4.19,3.75,8.69,2.77,13.54-5.42-2.15-11.01-2.62-16.74-1.33-1.48.35-2.77.39-3.51.08-7.65-2.9-15.53-4.23-23.65-3.99-1.6.04-3.04-.7-3.79-2-5.03-8.8-8.9-8.3-11.59,1.45-1.56,5.6.51,9.39,6.21,11.39,8.9,3.17,17.56,6.3,25.95,9.47,12.96,4.85,23.81,3.6,36.88,2.23,5.19-1.6,10.38-3.33,15.65-5.2,15.26-5.44,26.89-2.15,42.11-11.62.94-.59,2.15-.35,2.77.51,3.55,4.74,7.22,9.16,10.97,13.27,5.42,5.95,12.37,7,19.04,11.51.98.67,1.76,1.68,2.26,2.93,6.09,15.07,15.26,28.45,34.07,20.62,1.33-.59,2.26-1.45,2.34-2.23.66-5.99,3.75-8.49,9.21-7.51.98.2,2.07.86,3.04,1.96,12.49,13.97,20.96,22.54,25.41,25.75,15.61,11.19,33.25-4.62,44.68-19.49"/>
      <path class="cls-4" d="M373.44,152.5c-62.29,5.48-131.83-5.28-188.73-34.08-27.12-13.7-58.58-38.43-87.38-57.56,4.96-2.62,7.65-6.03,8.08-10.21,7.69,7.98,16.43,14.71,26.23,20.23,1.21.67,2.54.82,3.47.35,1.99-.98,3.59-2.27,4.8-3.91.55-.74,2.07-.16,3.08,1.17,6.17,8.22,13.5,15.3,22.05,21.21,1.05.74,2.34,1.17,3.59,1.13,15.92-.31,29.11,27.39,46.44,6.57,3.24-3.87,6.87-3.6,10.85.74l12.06,13.27c.94,1.02,2.58,1.02,3.59.04,3.94-3.72,8.55-5.09,13.82-4.07,1.91.35,3.63-.2,4.29-1.37,1.8-3.13,4.33-5.4,7.65-6.85.7-.31,1.21-1.57,1.17-3.09-.39-29.7,27.98-18.51,45.66-19.72,3.08-.2,8.43-1.84,16.04-4.89,25.37-10.21,41.84,14.95,61.62,29.66,1.09.82,1.87,2,2.26,3.37,3.51,12.48-.12,21.68-10.85,27.51-.27.16-1.6.23-3.98.23-.82.04-1.25.67-1.21,1.92.04,1.29-.43,2.47-1.25,3.25-4.1,3.91-5.23,8.96-3.36,15.11Z"/>
      <path class="cls-7" d="M301.24,68.37c-13.07,1.37-23.92,2.62-36.88-2.23-8.39-3.17-17.05-6.3-25.95-9.47-5.7-2-7.77-5.79-6.21-11.39,2.69-9.74,6.56-10.25,11.59-1.45.74,1.29,2.19,2.03,3.79,2,8.12-.23,16,1.1,23.65,3.99.74.31,2.03.27,3.51-.08,5.74-1.29,11.32-.82,16.74,1.33,1.64,9.67,18.69,8.14,9.76,17.3Z"/>
      <path class="cls-7" d="M230.72,81.59c6.36-1.06,8.59,1.1,6.67,6.38-.43,1.17-1.56,1.92-2.77,1.88-4.33-.2-6.36-2.15-6.13-5.95.08-1.13,1.01-2.11,2.22-2.31Z"/>
      <path class="cls-9" d="M192.32,81.4c5.39-3.6,25.37-2.74,17.99,5.91-1.05,1.21-2.42,1.88-3.71,1.84-5.42-.2-10.3-1.84-14.63-4.93-.9-.67-.7-2.07.35-2.82Z"/>
      <path class="cls-10" d="M190.53,56.04c6.87,7.32,5.39,11-4.45,11.07-3.32.04-7.02-2.66-11.08-8.02-2.77-3.72-1.99-6.54,2.38-8.49,3.79-1.68,8.16.16,13.15,5.44Z"/>
      <path class="cls-8" d="M121.76,0c-.35,18.67-5.78,35.57-16.35,50.64-.43,4.19-3.12,7.59-8.08,10.21L9.52,3.8C9.99,1.33,11.71.08,14.63.04l107.13-.04Z"/>
      <path class="cls-5" d="M14.63.04c-2.93.04-4.64,1.29-5.11,3.76L0,.04h14.63Z"/>
    </g>
  </g>
</svg>