<?xml version="1.0" encoding="UTF-8"?>
<svg id="Layer_2" data-name="Layer 2" xmlns="http://www.w3.org/2000/svg" viewBox="0 0 108.39 123.06">
  <defs>
    <style>
      .cls-1 {
        fill: #fcb500;
        stroke-width: 0px;
      }
    </style>
  </defs>
  <g id="Layer_1-2" data-name="Layer 1">
    <path class="cls-1" d="M60.09,72.36c-5.63,10.7-11.89,21.46-18.77,32.23-4.82,7.57-9.76,1.38-5.19-4.32,8.64-10.89,15.58-22.4,20.84-34.48.44-1-.31-2.06-1.38-2-17.27.81-34.17,2.19-50.75,4.19-2.44.31-6.7-.75-3.94-4.13.44-.56,1.13-.94,1.88-1.06,14.83-2.63,29.85-3.88,44.99-3.75,6.01,0,6.82-2,2.44-6.01L11.41,16.92c-.56-.56-.75-1.31-.44-1.94,1.44-2.75,3.69-3.44,6.7-1.94,6.63,3.25,11.7,8.7,15.08,16.52.38.81.81,1.5,1.38,1.88,8.64,6.26,16.33,13.52,23.03,21.78.44.56.75.38.75-.56.69-16.9-5.44-33.6-10.26-49.68-.25-1,.25-2,1.19-2.38,5.82-2.32,6.01,2.75,7.07,6.57,4.19,15.27,6.88,30.72,8.13,46.49.06.75.31.81.69.19,8.89-14.33,17.65-26.66,29.79-38.36,2.13-2.06,2.82-1.63,2.06,1.19-1.31,4.82-5.19,6.26-7.51,9.51-7.38,10.51-14.39,21.21-21.15,32.23-.88,1.44-.44,2.06,1.38,2.06l37.23-.75c.63,0,1.06.56.94,1.19-.75,4.07-31.73,4.13-36.29,4-1.19,0-1.38.38-.69,1.13l37.61,40.24c.5.5.38,1.5-.31,2.32-1.56,2-5.26-3.69-7.2-4.44-.81-.31-1.44-.75-1.94-1.25l-30.54-31.6c-1.06-1.06-1.5-.88-1.38.56,1.38,15.21,3.82,30.41,7.26,45.62.38,1.81-1.69,10.45-3.69,1.81-3.57-15.27-6.26-30.85-8.13-46.56-.25-2.32-.94-2.44-2-.38h-.06Z"/>
  </g>
</svg>